<?xml version="1.0" encoding="utf-8"?>
<!-- Generator: Adobe Illustrator 28.3.0, SVG Export Plug-In . SVG Version: 6.00 Build 0)  -->
<svg version="1.1" id="Capa_1" xmlns="http://www.w3.org/2000/svg" xmlns:xlink="http://www.w3.org/1999/xlink" x="0px" y="0px"
	 viewBox="0 0 1070 569" style="enable-background:new 0 0 1070 569;" xml:space="preserve">
<style type="text/css">
	.st0{fill:#FBFBFB;}
	.st1{enable-background:new    ;}
	.st2{fill:#0B481E;}
	.st3{fill:#12263F;}
	.st4{font-family:'Roboto-Bold';}
	.st5{font-size:20px;}
	.st6{fill:#CEE284;}
	.st7{fill:#ADCE32;}
	.st8{fill:#FFC107;}
	.st9{fill:#FFA686;}
	.st10{fill:#FFFFFF;}
	.st11{fill:none;}
	.st12{clip-path:url(#SVGID_00000154386573717600114050000009719818349936251276_);}
	.st13{fill:#ADD031;}
	.st14{fill:#4F9638;}
	.st15{fill:#36753C;}
	.st16{fill:#F3F3F3;}
	.st17{fill:#D9D9D9;}
	.st18{fill:#C8C8C8;}
	.st19{fill:url(#SVGID_00000024686335311838458270000010176488009236167845_);}
	.st20{fill:url(#SVGID_00000112634929009894667590000005504044563060783502_);}
	.st21{fill:url(#SVGID_00000066493793744362762900000004326228663620047762_);}
	.st22{fill:url(#SVGID_00000033333853842488577420000016237379892101083790_);}
	.st23{fill:url(#SVGID_00000047017720630117145860000006361601662015510401_);}
	.st24{fill:url(#SVGID_00000114072483743585937780000004226002028270512028_);}
	.st25{fill:url(#SVGID_00000123414576039221960340000014422511341593557168_);}
</style>
<path id="Rectángulo_329821" class="st0" d="M23.8,0h1017.7c5.5,0,10,4.5,10,10v549c0,5.5-4.5,10-10,10H23.8c-5.5,0-10-4.5-10-10
	V10C13.8,4.5,18.2,0,23.8,0z"/>
<g class="st1">
	<path class="st2" d="M778.2,237.3h-4.8v5h-1.5v-11.4h7v1.2h-5.5v3.9h4.8V237.3z"/>
	<path class="st2" d="M785.5,242.3c-0.1-0.2-0.2-0.5-0.2-0.9c-0.7,0.7-1.5,1-2.4,1c-0.8,0-1.5-0.2-2.1-0.7c-0.5-0.5-0.8-1.1-0.8-1.8
		c0-0.9,0.3-1.6,1-2.1c0.7-0.5,1.6-0.7,2.8-0.7h1.4v-0.7c0-0.5-0.2-0.9-0.5-1.2c-0.3-0.3-0.7-0.4-1.3-0.4c-0.5,0-0.9,0.1-1.3,0.4
		c-0.3,0.3-0.5,0.6-0.5,0.9h-1.5c0-0.4,0.2-0.8,0.4-1.2c0.3-0.4,0.7-0.7,1.2-0.9c0.5-0.2,1.1-0.3,1.7-0.3c1,0,1.7,0.2,2.3,0.7
		c0.6,0.5,0.8,1.2,0.9,2v3.9c0,0.8,0.1,1.4,0.3,1.9v0.1H785.5z M783.1,241.2c0.5,0,0.9-0.1,1.3-0.4s0.7-0.5,0.9-0.9v-1.7h-1.1
		c-1.8,0-2.7,0.5-2.7,1.6c0,0.5,0.2,0.8,0.5,1.1C782.2,241.1,782.6,241.2,783.1,241.2z"/>
	<path class="st2" d="M792.3,241.3c0.5,0,1-0.2,1.4-0.5c0.4-0.3,0.6-0.7,0.6-1.2h1.4c0,0.5-0.2,0.9-0.5,1.4c-0.3,0.4-0.7,0.8-1.2,1
		c-0.5,0.3-1.1,0.4-1.6,0.4c-1.2,0-2.1-0.4-2.7-1.2s-1-1.8-1-3.2v-0.2c0-0.8,0.2-1.6,0.5-2.2c0.3-0.6,0.7-1.1,1.3-1.5
		c0.6-0.4,1.2-0.5,2-0.5c0.9,0,1.7,0.3,2.4,0.9c0.6,0.6,1,1.3,1,2.2h-1.4c0-0.5-0.2-1-0.6-1.3c-0.4-0.4-0.8-0.5-1.4-0.5
		c-0.7,0-1.3,0.3-1.7,0.8c-0.4,0.5-0.6,1.3-0.6,2.3v0.3c0,1,0.2,1.7,0.6,2.2C791,241,791.6,241.3,792.3,241.3z"/>
	<path class="st2" d="M797.3,231.6c0-0.2,0.1-0.4,0.2-0.6c0.1-0.2,0.4-0.2,0.6-0.2s0.5,0.1,0.6,0.2c0.1,0.2,0.2,0.4,0.2,0.6
		s-0.1,0.4-0.2,0.6c-0.1,0.2-0.4,0.2-0.6,0.2s-0.5-0.1-0.6-0.2C797.4,232,797.3,231.8,797.3,231.6z M798.9,242.3h-1.4v-8.5h1.4
		V242.3z"/>
	<path class="st2" d="M802.8,242.3h-1.4v-12h1.4V242.3z"/>
	<path class="st2" d="M805.1,231.6c0-0.2,0.1-0.4,0.2-0.6c0.1-0.2,0.4-0.2,0.6-0.2s0.5,0.1,0.6,0.2c0.1,0.2,0.2,0.4,0.2,0.6
		s-0.1,0.4-0.2,0.6c-0.1,0.2-0.4,0.2-0.6,0.2s-0.5-0.1-0.6-0.2C805.2,232,805.1,231.8,805.1,231.6z M806.7,242.3h-1.4v-8.5h1.4
		V242.3z"/>
	<path class="st2" d="M810.9,231.8v2h1.6v1.1h-1.6v5.2c0,0.3,0.1,0.6,0.2,0.8c0.1,0.2,0.4,0.3,0.7,0.3c0.2,0,0.4,0,0.7-0.1v1.2
		c-0.4,0.1-0.8,0.2-1.1,0.2c-0.6,0-1.1-0.2-1.5-0.6s-0.5-0.9-0.5-1.7V235h-1.5v-1.1h1.5v-2H810.9z"/>
	<path class="st2" d="M819.4,242.3c-0.1-0.2-0.2-0.5-0.2-0.9c-0.7,0.7-1.5,1-2.4,1c-0.8,0-1.5-0.2-2.1-0.7c-0.5-0.5-0.8-1.1-0.8-1.8
		c0-0.9,0.3-1.6,1-2.1c0.7-0.5,1.6-0.7,2.8-0.7h1.4v-0.7c0-0.5-0.2-0.9-0.5-1.2c-0.3-0.3-0.7-0.4-1.3-0.4c-0.5,0-0.9,0.1-1.3,0.4
		c-0.3,0.3-0.5,0.6-0.5,0.9h-1.5c0-0.4,0.2-0.8,0.4-1.2c0.3-0.4,0.7-0.7,1.2-0.9c0.5-0.2,1.1-0.3,1.7-0.3c1,0,1.7,0.2,2.3,0.7
		c0.6,0.5,0.8,1.2,0.9,2v3.9c0,0.8,0.1,1.4,0.3,1.9v0.1H819.4z M817,241.2c0.5,0,0.9-0.1,1.3-0.4s0.7-0.5,0.9-0.9v-1.7H818
		c-1.8,0-2.7,0.5-2.7,1.6c0,0.5,0.2,0.8,0.5,1.1C816.1,241.1,816.5,241.2,817,241.2z"/>
	<path class="st2" d="M827,235.1c-0.2,0-0.5-0.1-0.7-0.1c-0.9,0-1.6,0.4-1.9,1.2v6h-1.4v-8.5h1.4l0,1c0.5-0.8,1.1-1.1,2-1.1
		c0.3,0,0.5,0,0.6,0.1V235.1z"/>
	<path class="st2" d="M833.8,242.3h-1.4v-12h1.4V242.3z"/>
	<path class="st2" d="M841.4,242.3c-0.1-0.2-0.2-0.5-0.2-0.9c-0.7,0.7-1.5,1-2.4,1c-0.8,0-1.5-0.2-2.1-0.7c-0.5-0.5-0.8-1.1-0.8-1.8
		c0-0.9,0.3-1.6,1-2.1c0.7-0.5,1.6-0.7,2.8-0.7h1.4v-0.7c0-0.5-0.2-0.9-0.5-1.2c-0.3-0.3-0.7-0.4-1.3-0.4c-0.5,0-0.9,0.1-1.3,0.4
		c-0.3,0.3-0.5,0.6-0.5,0.9h-1.5c0-0.4,0.2-0.8,0.4-1.2c0.3-0.4,0.7-0.7,1.2-0.9c0.5-0.2,1.1-0.3,1.7-0.3c1,0,1.7,0.2,2.3,0.7
		c0.6,0.5,0.8,1.2,0.9,2v3.9c0,0.8,0.1,1.4,0.3,1.9v0.1H841.4z M839,241.2c0.5,0,0.9-0.1,1.3-0.4s0.7-0.5,0.9-0.9v-1.7H840
		c-1.8,0-2.7,0.5-2.7,1.6c0,0.5,0.2,0.8,0.5,1.1C838.1,241.1,838.5,241.2,839,241.2z"/>
</g>
<g class="st1">
	<path class="st2" d="M775,263.3c0.5,0,1-0.2,1.4-0.5c0.4-0.3,0.6-0.7,0.6-1.2h1.4c0,0.5-0.2,0.9-0.5,1.4c-0.3,0.4-0.7,0.8-1.2,1
		c-0.5,0.3-1.1,0.4-1.6,0.4c-1.2,0-2.1-0.4-2.7-1.2s-1-1.8-1-3.2v-0.2c0-0.8,0.2-1.6,0.5-2.2c0.3-0.6,0.7-1.1,1.3-1.5
		c0.6-0.4,1.2-0.5,2-0.5c0.9,0,1.7,0.3,2.4,0.9c0.6,0.6,1,1.3,1,2.2H777c0-0.5-0.2-1-0.6-1.3c-0.4-0.4-0.8-0.5-1.4-0.5
		c-0.7,0-1.3,0.3-1.7,0.8c-0.4,0.5-0.6,1.3-0.6,2.3v0.3c0,1,0.2,1.7,0.6,2.2C773.7,263,774.3,263.3,775,263.3z"/>
	<path class="st2" d="M779.7,260c0-0.8,0.2-1.6,0.5-2.2c0.3-0.7,0.8-1.2,1.4-1.5c0.6-0.4,1.2-0.5,2-0.5c1.2,0,2.1,0.4,2.8,1.2
		s1.1,1.9,1.1,3.2v0.1c0,0.8-0.2,1.6-0.5,2.2c-0.3,0.7-0.8,1.2-1.4,1.5s-1.3,0.5-2,0.5c-1.1,0-2.1-0.4-2.8-1.2s-1.1-1.9-1.1-3.2V260
		z M781.1,260.2c0,0.9,0.2,1.7,0.7,2.3c0.4,0.6,1,0.9,1.7,0.9c0.7,0,1.3-0.3,1.8-0.9c0.4-0.6,0.6-1.4,0.6-2.4c0-0.9-0.2-1.7-0.7-2.3
		c-0.4-0.6-1-0.9-1.8-0.9c-0.7,0-1.3,0.3-1.7,0.9S781.1,259.1,781.1,260.2z"/>
	<path class="st2" d="M790.5,255.8l0,0.9c0.6-0.7,1.5-1.1,2.5-1.1c1.2,0,2,0.5,2.4,1.4c0.3-0.4,0.6-0.7,1.1-1c0.5-0.2,1-0.4,1.6-0.4
		c1.9,0,2.8,1,2.8,2.9v5.7h-1.4v-5.6c0-0.6-0.1-1.1-0.4-1.4c-0.3-0.3-0.7-0.4-1.4-0.4c-0.5,0-1,0.2-1.3,0.5
		c-0.4,0.3-0.6,0.8-0.6,1.3v5.6h-1.5v-5.5c0-1.2-0.6-1.8-1.8-1.8c-0.9,0-1.6,0.4-1.9,1.2v6.2h-1.4v-8.5H790.5z"/>
	<path class="st2" d="M808.4,263.5c-0.6,0.7-1.4,1-2.5,1c-0.9,0-1.6-0.3-2.1-0.8c-0.5-0.5-0.7-1.3-0.7-2.3v-5.5h1.4v5.5
		c0,1.3,0.5,1.9,1.6,1.9c1.1,0,1.8-0.4,2.2-1.2v-6.1h1.4v8.5h-1.4L808.4,263.5z"/>
	<path class="st2" d="M813.4,255.8l0,1.1c0.6-0.8,1.5-1.2,2.5-1.2c1.8,0,2.7,1,2.7,3v5.6h-1.4v-5.6c0-0.6-0.1-1.1-0.4-1.4
		s-0.7-0.4-1.3-0.4c-0.5,0-0.9,0.1-1.2,0.4c-0.4,0.2-0.6,0.6-0.8,1v6H812v-8.5H813.4z"/>
	<path class="st2" d="M820.8,253.6c0-0.2,0.1-0.4,0.2-0.6c0.1-0.2,0.4-0.2,0.6-0.2s0.5,0.1,0.6,0.2c0.1,0.2,0.2,0.4,0.2,0.6
		s-0.1,0.4-0.2,0.6c-0.1,0.2-0.4,0.2-0.6,0.2s-0.5-0.1-0.6-0.2C820.9,254,820.8,253.8,820.8,253.6z M822.4,264.3H821v-8.5h1.4V264.3
		z"/>
	<path class="st2" d="M828.1,263.3c0.5,0,1-0.2,1.4-0.5c0.4-0.3,0.6-0.7,0.6-1.2h1.4c0,0.5-0.2,0.9-0.5,1.4c-0.3,0.4-0.7,0.8-1.2,1
		c-0.5,0.3-1.1,0.4-1.6,0.4c-1.2,0-2.1-0.4-2.7-1.2s-1-1.8-1-3.2v-0.2c0-0.8,0.2-1.6,0.5-2.2c0.3-0.6,0.7-1.1,1.3-1.5
		c0.6-0.4,1.2-0.5,2-0.5c0.9,0,1.7,0.3,2.4,0.9c0.6,0.6,1,1.3,1,2.2h-1.4c0-0.5-0.2-1-0.6-1.3c-0.4-0.4-0.8-0.5-1.4-0.5
		c-0.7,0-1.3,0.3-1.7,0.8c-0.4,0.5-0.6,1.3-0.6,2.3v0.3c0,1,0.2,1.7,0.6,2.2C826.8,263,827.4,263.3,828.1,263.3z"/>
	<path class="st2" d="M838.3,264.3c-0.1-0.2-0.2-0.5-0.2-0.9c-0.7,0.7-1.5,1-2.4,1c-0.8,0-1.5-0.2-2.1-0.7c-0.5-0.5-0.8-1.1-0.8-1.8
		c0-0.9,0.3-1.6,1-2.1c0.7-0.5,1.6-0.7,2.8-0.7h1.4v-0.7c0-0.5-0.2-0.9-0.5-1.2c-0.3-0.3-0.7-0.4-1.3-0.4c-0.5,0-0.9,0.1-1.3,0.4
		c-0.3,0.3-0.5,0.6-0.5,0.9H833c0-0.4,0.2-0.8,0.4-1.2c0.3-0.4,0.7-0.7,1.2-0.9c0.5-0.2,1.1-0.3,1.7-0.3c1,0,1.7,0.2,2.3,0.7
		c0.6,0.5,0.8,1.2,0.9,2v3.9c0,0.8,0.1,1.4,0.3,1.9v0.1H838.3z M835.9,263.2c0.5,0,0.9-0.1,1.3-0.4s0.7-0.5,0.9-0.9v-1.7h-1.1
		c-1.8,0-2.7,0.5-2.7,1.6c0,0.5,0.2,0.8,0.5,1.1C835,263.1,835.4,263.2,835.9,263.2z"/>
	<path class="st2" d="M845.2,263.3c0.5,0,1-0.2,1.4-0.5c0.4-0.3,0.6-0.7,0.6-1.2h1.4c0,0.5-0.2,0.9-0.5,1.4c-0.3,0.4-0.7,0.8-1.2,1
		c-0.5,0.3-1.1,0.4-1.6,0.4c-1.2,0-2.1-0.4-2.7-1.2s-1-1.8-1-3.2v-0.2c0-0.8,0.2-1.6,0.5-2.2c0.3-0.6,0.7-1.1,1.3-1.5
		c0.6-0.4,1.2-0.5,2-0.5c0.9,0,1.7,0.3,2.4,0.9c0.6,0.6,1,1.3,1,2.2h-1.4c0-0.5-0.2-1-0.6-1.3c-0.4-0.4-0.8-0.5-1.4-0.5
		c-0.7,0-1.3,0.3-1.7,0.8c-0.4,0.5-0.6,1.3-0.6,2.3v0.3c0,1,0.2,1.7,0.6,2.2C843.9,263,844.4,263.3,845.2,263.3z"/>
	<path class="st2" d="M850.2,253.6c0-0.2,0.1-0.4,0.2-0.6c0.1-0.2,0.4-0.2,0.6-0.2s0.5,0.1,0.6,0.2c0.1,0.2,0.2,0.4,0.2,0.6
		s-0.1,0.4-0.2,0.6c-0.1,0.2-0.4,0.2-0.6,0.2s-0.5-0.1-0.6-0.2C850.2,254,850.2,253.8,850.2,253.6z M851.7,264.3h-1.4v-8.5h1.4
		V264.3z"/>
	<path class="st2" d="M853.7,260c0-0.8,0.2-1.6,0.5-2.2c0.3-0.7,0.8-1.2,1.4-1.5c0.6-0.4,1.2-0.5,2-0.5c1.2,0,2.1,0.4,2.8,1.2
		s1.1,1.9,1.1,3.2v0.1c0,0.8-0.2,1.6-0.5,2.2c-0.3,0.7-0.8,1.2-1.4,1.5s-1.3,0.5-2,0.5c-1.1,0-2.1-0.4-2.8-1.2s-1.1-1.9-1.1-3.2V260
		z M855.1,260.2c0,0.9,0.2,1.7,0.7,2.3c0.4,0.6,1,0.9,1.7,0.9c0.7,0,1.3-0.3,1.8-0.9c0.4-0.6,0.6-1.4,0.6-2.4c0-0.9-0.2-1.7-0.7-2.3
		c-0.4-0.6-1-0.9-1.8-0.9c-0.7,0-1.3,0.3-1.7,0.9S855.1,259.1,855.1,260.2z M858.2,252.3h1.8l-2.1,2.3l-1.2,0L858.2,252.3z"/>
	<path class="st2" d="M864.5,255.8l0,1.1c0.6-0.8,1.5-1.2,2.5-1.2c1.8,0,2.7,1,2.7,3v5.6h-1.4v-5.6c0-0.6-0.1-1.1-0.4-1.4
		s-0.7-0.4-1.3-0.4c-0.5,0-0.9,0.1-1.2,0.4c-0.4,0.2-0.6,0.6-0.8,1v6h-1.4v-8.5H864.5z"/>
</g>
<g class="st1">
	<path class="st2" d="M774.4,284.2l2-6.3h1.5l-3.4,9.8c-0.5,1.4-1.4,2.1-2.5,2.1l-0.3,0l-0.5-0.1v-1.2l0.4,0c0.5,0,0.9-0.1,1.1-0.3
		s0.5-0.6,0.7-1.1l0.3-0.9l-3-8.4h1.6L774.4,284.2z"/>
	<path class="st2" d="M784.8,286.3h-1.4v-12h1.4V286.3z"/>
	<path class="st2" d="M792.3,286.3c-0.1-0.2-0.2-0.5-0.2-0.9c-0.7,0.7-1.5,1-2.4,1c-0.8,0-1.5-0.2-2.1-0.7c-0.5-0.5-0.8-1.1-0.8-1.8
		c0-0.9,0.3-1.6,1-2.1c0.7-0.5,1.6-0.7,2.8-0.7h1.4v-0.7c0-0.5-0.2-0.9-0.5-1.2c-0.3-0.3-0.7-0.4-1.3-0.4c-0.5,0-0.9,0.1-1.3,0.4
		c-0.3,0.3-0.5,0.6-0.5,0.9H787c0-0.4,0.2-0.8,0.4-1.2c0.3-0.4,0.7-0.7,1.2-0.9c0.5-0.2,1.1-0.3,1.7-0.3c1,0,1.7,0.2,2.3,0.7
		c0.6,0.5,0.8,1.2,0.9,2v3.9c0,0.8,0.1,1.4,0.3,1.9v0.1H792.3z M789.9,285.2c0.5,0,0.9-0.1,1.3-0.4s0.7-0.5,0.9-0.9v-1.7h-1.1
		c-1.8,0-2.7,0.5-2.7,1.6c0,0.5,0.2,0.8,0.5,1.1C789,285.1,789.4,285.2,789.9,285.2z"/>
	<path class="st2" d="M805,285.5c-0.6,0.7-1.4,1-2.5,1c-0.9,0-1.6-0.3-2.1-0.8c-0.5-0.5-0.7-1.3-0.7-2.3v-5.5h1.4v5.5
		c0,1.3,0.5,1.9,1.6,1.9c1.1,0,1.8-0.4,2.2-1.2v-6.1h1.4v8.5H805L805,285.5z"/>
	<path class="st2" d="M809.9,277.8l0,1.1c0.6-0.8,1.5-1.2,2.5-1.2c1.8,0,2.7,1,2.7,3v5.6h-1.4v-5.6c0-0.6-0.1-1.1-0.4-1.4
		s-0.7-0.4-1.3-0.4c-0.5,0-0.9,0.1-1.2,0.4c-0.4,0.2-0.6,0.6-0.8,1v6h-1.4v-8.5H809.9z"/>
	<path class="st2" d="M817.4,275.6c0-0.2,0.1-0.4,0.2-0.6c0.1-0.2,0.4-0.2,0.6-0.2s0.5,0.1,0.6,0.2c0.1,0.2,0.2,0.4,0.2,0.6
		s-0.1,0.4-0.2,0.6c-0.1,0.2-0.4,0.2-0.6,0.2s-0.5-0.1-0.6-0.2C817.5,276,817.4,275.8,817.4,275.6z M819,286.3h-1.4v-8.5h1.4V286.3z
		"/>
	<path class="st2" d="M822,286.3V279h-1.3v-1.1h1.3V277c0-0.9,0.2-1.6,0.7-2.1s1.2-0.7,2.1-0.7c0.3,0,0.7,0,1,0.1l-0.1,1.2
		c-0.2,0-0.5-0.1-0.8-0.1c-0.5,0-0.8,0.1-1.1,0.4c-0.3,0.3-0.4,0.7-0.4,1.2v0.9h1.8v1.1h-1.8v7.3H822z"/>
	<path class="st2" d="M826.8,275.6c0-0.2,0.1-0.4,0.2-0.6c0.1-0.2,0.4-0.2,0.6-0.2s0.5,0.1,0.6,0.2c0.1,0.2,0.2,0.4,0.2,0.6
		s-0.1,0.4-0.2,0.6c-0.1,0.2-0.4,0.2-0.6,0.2s-0.5-0.1-0.6-0.2C826.9,276,826.8,275.8,826.8,275.6z M828.4,286.3h-1.4v-8.5h1.4
		V286.3z"/>
	<path class="st2" d="M834.1,285.3c0.5,0,1-0.2,1.4-0.5c0.4-0.3,0.6-0.7,0.6-1.2h1.4c0,0.5-0.2,0.9-0.5,1.4c-0.3,0.4-0.7,0.8-1.2,1
		c-0.5,0.3-1.1,0.4-1.6,0.4c-1.2,0-2.1-0.4-2.7-1.2s-1-1.8-1-3.2v-0.2c0-0.8,0.2-1.6,0.5-2.2c0.3-0.6,0.7-1.1,1.3-1.5
		c0.6-0.4,1.2-0.5,2-0.5c0.9,0,1.7,0.3,2.4,0.9c0.6,0.6,1,1.3,1,2.2h-1.4c0-0.5-0.2-1-0.6-1.3c-0.4-0.4-0.8-0.5-1.4-0.5
		c-0.7,0-1.3,0.3-1.7,0.8c-0.4,0.5-0.6,1.3-0.6,2.3v0.3c0,1,0.2,1.7,0.6,2.2C832.8,285,833.4,285.3,834.1,285.3z"/>
	<path class="st2" d="M844.3,286.3c-0.1-0.2-0.2-0.5-0.2-0.9c-0.7,0.7-1.5,1-2.4,1c-0.8,0-1.5-0.2-2.1-0.7c-0.5-0.5-0.8-1.1-0.8-1.8
		c0-0.9,0.3-1.6,1-2.1c0.7-0.5,1.6-0.7,2.8-0.7h1.4v-0.7c0-0.5-0.2-0.9-0.5-1.2c-0.3-0.3-0.7-0.4-1.3-0.4c-0.5,0-0.9,0.1-1.3,0.4
		c-0.3,0.3-0.5,0.6-0.5,0.9H839c0-0.4,0.2-0.8,0.4-1.2c0.3-0.4,0.7-0.7,1.2-0.9c0.5-0.2,1.1-0.3,1.7-0.3c1,0,1.7,0.2,2.3,0.7
		c0.6,0.5,0.8,1.2,0.9,2v3.9c0,0.8,0.1,1.4,0.3,1.9v0.1H844.3z M841.9,285.2c0.5,0,0.9-0.1,1.3-0.4s0.7-0.5,0.9-0.9v-1.7h-1.1
		c-1.8,0-2.7,0.5-2.7,1.6c0,0.5,0.2,0.8,0.5,1.1C841,285.1,841.4,285.2,841.9,285.2z"/>
	<path class="st2" d="M851.2,285.3c0.5,0,1-0.2,1.4-0.5c0.4-0.3,0.6-0.7,0.6-1.2h1.4c0,0.5-0.2,0.9-0.5,1.4c-0.3,0.4-0.7,0.8-1.2,1
		c-0.5,0.3-1.1,0.4-1.6,0.4c-1.2,0-2.1-0.4-2.7-1.2s-1-1.8-1-3.2v-0.2c0-0.8,0.2-1.6,0.5-2.2c0.3-0.6,0.7-1.1,1.3-1.5
		c0.6-0.4,1.2-0.5,2-0.5c0.9,0,1.7,0.3,2.4,0.9c0.6,0.6,1,1.3,1,2.2h-1.4c0-0.5-0.2-1-0.6-1.3c-0.4-0.4-0.8-0.5-1.4-0.5
		c-0.7,0-1.3,0.3-1.7,0.8c-0.4,0.5-0.6,1.3-0.6,2.3v0.3c0,1,0.2,1.7,0.6,2.2C849.9,285,850.4,285.3,851.2,285.3z"/>
	<path class="st2" d="M856.2,275.6c0-0.2,0.1-0.4,0.2-0.6c0.1-0.2,0.4-0.2,0.6-0.2s0.5,0.1,0.6,0.2c0.1,0.2,0.2,0.4,0.2,0.6
		s-0.1,0.4-0.2,0.6c-0.1,0.2-0.4,0.2-0.6,0.2s-0.5-0.1-0.6-0.2C856.2,276,856.2,275.8,856.2,275.6z M857.7,286.3h-1.4v-8.5h1.4
		V286.3z"/>
	<path class="st2" d="M859.7,282c0-0.8,0.2-1.6,0.5-2.2c0.3-0.7,0.8-1.2,1.4-1.5c0.6-0.4,1.2-0.5,2-0.5c1.2,0,2.1,0.4,2.8,1.2
		s1.1,1.9,1.1,3.2v0.1c0,0.8-0.2,1.6-0.5,2.2c-0.3,0.7-0.8,1.2-1.4,1.5s-1.3,0.5-2,0.5c-1.1,0-2.1-0.4-2.8-1.2s-1.1-1.9-1.1-3.2V282
		z M861.1,282.2c0,0.9,0.2,1.7,0.7,2.3c0.4,0.6,1,0.9,1.7,0.9c0.7,0,1.3-0.3,1.8-0.9c0.4-0.6,0.6-1.4,0.6-2.4c0-0.9-0.2-1.7-0.7-2.3
		c-0.4-0.6-1-0.9-1.8-0.9c-0.7,0-1.3,0.3-1.7,0.9S861.1,281.1,861.1,282.2z M864.2,274.3h1.8l-2.1,2.3l-1.2,0L864.2,274.3z"/>
	<path class="st2" d="M870.5,277.8l0,1.1c0.6-0.8,1.5-1.2,2.5-1.2c1.8,0,2.7,1,2.7,3v5.6h-1.4v-5.6c0-0.6-0.1-1.1-0.4-1.4
		s-0.7-0.4-1.3-0.4c-0.5,0-0.9,0.1-1.2,0.4c-0.4,0.2-0.6,0.6-0.8,1v6h-1.4v-8.5H870.5z"/>
</g>
<g class="st1">
	<path class="st2" d="M770.3,304c0-1.3,0.3-2.3,0.9-3.1c0.6-0.8,1.4-1.2,2.4-1.2c1,0,1.8,0.3,2.4,1v-4.4h1.4v12h-1.3l-0.1-0.9
		c-0.6,0.7-1.4,1.1-2.4,1.1c-1,0-1.8-0.4-2.4-1.2s-0.9-1.8-0.9-3.1V304z M771.7,304.2c0,1,0.2,1.7,0.6,2.2c0.4,0.5,0.9,0.8,1.6,0.8
		c0.9,0,1.6-0.4,2-1.2v-3.9c-0.4-0.8-1.1-1.2-2-1.2c-0.7,0-1.3,0.3-1.7,0.8C771.9,302.3,771.7,303.1,771.7,304.2z"/>
	<path class="st2" d="M783.2,308.5c-1.1,0-2.1-0.4-2.8-1.1s-1.1-1.8-1.1-3V304c0-0.8,0.2-1.6,0.5-2.2s0.8-1.2,1.3-1.5
		c0.6-0.4,1.2-0.6,1.9-0.6c1.1,0,2,0.4,2.6,1.1s0.9,1.8,0.9,3.1v0.6h-5.7c0,0.8,0.3,1.5,0.7,2c0.5,0.5,1.1,0.8,1.8,0.8
		c0.5,0,0.9-0.1,1.3-0.3c0.4-0.2,0.7-0.5,0.9-0.8l0.9,0.7C785.6,307.9,784.6,308.5,783.2,308.5z M783,300.9c-0.6,0-1.1,0.2-1.5,0.6
		c-0.4,0.4-0.6,1-0.7,1.8h4.2v-0.1c0-0.7-0.2-1.3-0.6-1.7C784.1,301.1,783.6,300.9,783,300.9z"/>
	<path class="st2" d="M795.5,307.3c0.5,0,1-0.2,1.4-0.5c0.4-0.3,0.6-0.7,0.6-1.2h1.4c0,0.5-0.2,0.9-0.5,1.4c-0.3,0.4-0.7,0.8-1.2,1
		c-0.5,0.3-1.1,0.4-1.6,0.4c-1.2,0-2.1-0.4-2.7-1.2s-1-1.8-1-3.2v-0.2c0-0.8,0.2-1.6,0.5-2.2c0.3-0.6,0.7-1.1,1.3-1.5
		c0.6-0.4,1.2-0.5,2-0.5c0.9,0,1.7,0.3,2.4,0.9c0.6,0.6,1,1.3,1,2.2h-1.4c0-0.5-0.2-1-0.6-1.3c-0.4-0.4-0.8-0.5-1.4-0.5
		c-0.7,0-1.3,0.3-1.7,0.8c-0.4,0.5-0.6,1.3-0.6,2.3v0.3c0,1,0.2,1.7,0.6,2.2C794.2,307,794.7,307.3,795.5,307.3z"/>
	<path class="st2" d="M804.5,301.1c-0.2,0-0.5-0.1-0.7-0.1c-0.9,0-1.6,0.4-1.9,1.2v6h-1.4v-8.5h1.4l0,1c0.5-0.8,1.1-1.1,2-1.1
		c0.3,0,0.5,0,0.6,0.1V301.1z"/>
	<path class="st2" d="M805.9,297.6c0-0.2,0.1-0.4,0.2-0.6c0.1-0.2,0.4-0.2,0.6-0.2s0.5,0.1,0.6,0.2c0.1,0.2,0.2,0.4,0.2,0.6
		s-0.1,0.4-0.2,0.6c-0.1,0.2-0.4,0.2-0.6,0.2s-0.5-0.1-0.6-0.2C805.9,298,805.9,297.8,805.9,297.6z M807.4,308.3H806v-8.5h1.4V308.3
		z"/>
	<path class="st2" d="M811.7,297.8v2h1.6v1.1h-1.6v5.2c0,0.3,0.1,0.6,0.2,0.8c0.1,0.2,0.4,0.3,0.7,0.3c0.2,0,0.4,0,0.7-0.1v1.2
		c-0.4,0.1-0.8,0.2-1.1,0.2c-0.6,0-1.1-0.2-1.5-0.6s-0.5-0.9-0.5-1.7V301h-1.5v-1.1h1.5v-2H811.7z"/>
	<path class="st2" d="M818.5,308.5c-1.1,0-2.1-0.4-2.8-1.1s-1.1-1.8-1.1-3V304c0-0.8,0.2-1.6,0.5-2.2s0.8-1.2,1.3-1.5
		c0.6-0.4,1.2-0.6,1.9-0.6c1.1,0,2,0.4,2.6,1.1s0.9,1.8,0.9,3.1v0.6h-5.7c0,0.8,0.3,1.5,0.7,2c0.5,0.5,1.1,0.8,1.8,0.8
		c0.5,0,0.9-0.1,1.3-0.3c0.4-0.2,0.7-0.5,0.9-0.8l0.9,0.7C821,307.9,819.9,308.5,818.5,308.5z M818.3,300.9c-0.6,0-1.1,0.2-1.5,0.6
		c-0.4,0.4-0.6,1-0.7,1.8h4.2v-0.1c0-0.7-0.2-1.3-0.6-1.7C819.4,301.1,818.9,300.9,818.3,300.9z"/>
	<path class="st2" d="M827.5,301.1c-0.2,0-0.5-0.1-0.7-0.1c-0.9,0-1.6,0.4-1.9,1.2v6h-1.4v-8.5h1.4l0,1c0.5-0.8,1.1-1.1,2-1.1
		c0.3,0,0.5,0,0.6,0.1V301.1z"/>
	<path class="st2" d="M828.9,297.6c0-0.2,0.1-0.4,0.2-0.6c0.1-0.2,0.4-0.2,0.6-0.2s0.5,0.1,0.6,0.2c0.1,0.2,0.2,0.4,0.2,0.6
		s-0.1,0.4-0.2,0.6c-0.1,0.2-0.4,0.2-0.6,0.2s-0.5-0.1-0.6-0.2C828.9,298,828.9,297.8,828.9,297.6z M830.4,308.3H829v-8.5h1.4V308.3
		z"/>
	<path class="st2" d="M832.4,304c0-0.8,0.2-1.6,0.5-2.2c0.3-0.7,0.8-1.2,1.4-1.5c0.6-0.4,1.2-0.5,2-0.5c1.2,0,2.1,0.4,2.8,1.2
		s1.1,1.9,1.1,3.2v0.1c0,0.8-0.2,1.6-0.5,2.2c-0.3,0.7-0.8,1.2-1.4,1.5s-1.3,0.5-2,0.5c-1.1,0-2.1-0.4-2.8-1.2s-1.1-1.9-1.1-3.2V304
		z M833.8,304.2c0,0.9,0.2,1.7,0.7,2.3c0.4,0.6,1,0.9,1.7,0.9c0.7,0,1.3-0.3,1.8-0.9c0.4-0.6,0.6-1.4,0.6-2.4c0-0.9-0.2-1.7-0.7-2.3
		c-0.4-0.6-1-0.9-1.8-0.9c-0.7,0-1.3,0.3-1.7,0.9S833.8,303.1,833.8,304.2z"/>
	<path class="st2" d="M846.8,306.1c0-0.4-0.1-0.7-0.4-0.9c-0.3-0.2-0.8-0.4-1.5-0.6c-0.7-0.2-1.3-0.3-1.7-0.6s-0.7-0.5-1-0.8
		c-0.2-0.3-0.3-0.7-0.3-1.1c0-0.7,0.3-1.3,0.9-1.8s1.3-0.7,2.2-0.7c1,0,1.7,0.2,2.3,0.7c0.6,0.5,0.9,1.1,0.9,1.9h-1.5
		c0-0.4-0.2-0.7-0.5-1s-0.8-0.4-1.3-0.4c-0.5,0-0.9,0.1-1.2,0.3s-0.4,0.5-0.4,0.9c0,0.3,0.1,0.6,0.4,0.8c0.3,0.2,0.8,0.3,1.5,0.5
		c0.7,0.2,1.3,0.4,1.8,0.6c0.4,0.2,0.8,0.5,1,0.8c0.2,0.3,0.3,0.7,0.3,1.2c0,0.8-0.3,1.4-0.9,1.8c-0.6,0.5-1.4,0.7-2.4,0.7
		c-0.7,0-1.3-0.1-1.8-0.4c-0.5-0.2-0.9-0.6-1.2-1c-0.3-0.4-0.4-0.9-0.4-1.4h1.4c0,0.5,0.2,0.9,0.6,1.2c0.4,0.3,0.8,0.4,1.4,0.4
		c0.5,0,1-0.1,1.3-0.3C846.6,306.7,846.8,306.4,846.8,306.1z"/>
</g>
<g class="st1">
	<path class="st3" d="M471,41.9l0.1-11.4l3.2,0c1,0,1.9,0.2,2.6,0.7c0.8,0.4,1.3,1.1,1.8,1.9c0.4,0.8,0.6,1.7,0.6,2.8l0,0.7
		c0,1.1-0.2,2-0.6,2.8c-0.4,0.8-1,1.4-1.8,1.9c-0.8,0.4-1.7,0.6-2.7,0.7L471,41.9z M472.6,31.7l0,8.9l1.6,0c1.2,0,2.1-0.4,2.7-1.1
		c0.6-0.7,1-1.7,1-3.1l0-0.7c0-1.3-0.3-2.3-0.9-3c-0.6-0.7-1.5-1.1-2.6-1.1L472.6,31.7z"/>
	<path class="st3" d="M484.8,42.1c-1.1,0-2.1-0.4-2.8-1.1c-0.7-0.8-1.1-1.8-1.1-3l0-0.3c0-0.8,0.2-1.6,0.5-2.2s0.8-1.2,1.4-1.5
		c0.6-0.4,1.2-0.6,1.9-0.6c1.1,0,2,0.4,2.6,1.1c0.6,0.7,0.9,1.8,0.9,3.1l0,0.6l-5.7,0c0,0.8,0.3,1.5,0.7,2c0.5,0.5,1.1,0.8,1.8,0.8
		c0.5,0,0.9-0.1,1.3-0.3c0.4-0.2,0.7-0.5,0.9-0.8l0.9,0.7C487.3,41.5,486.2,42.1,484.8,42.1z M484.6,34.5c-0.6,0-1.1,0.2-1.5,0.6
		c-0.4,0.4-0.6,1-0.7,1.8l4.2,0l0-0.1c0-0.7-0.2-1.3-0.6-1.7C485.7,34.7,485.2,34.5,484.6,34.5z"/>
	<path class="st3" d="M491.3,33.5l0,9.4c0,1.6-0.7,2.4-2.2,2.4c-0.3,0-0.6,0-0.9-0.1l0-1.1c0.2,0,0.4,0.1,0.7,0.1
		c0.3,0,0.6-0.1,0.7-0.3c0.2-0.2,0.3-0.5,0.3-0.9l0-9.5L491.3,33.5z M489.7,31.2c0-0.2,0.1-0.4,0.2-0.6c0.1-0.2,0.4-0.2,0.6-0.2
		c0.3,0,0.5,0.1,0.6,0.2c0.1,0.2,0.2,0.4,0.2,0.6c0,0.2-0.1,0.4-0.2,0.6c-0.1,0.2-0.4,0.2-0.6,0.2s-0.5-0.1-0.6-0.2
		S489.7,31.5,489.7,31.2z"/>
	<path class="st3" d="M498.8,42c-0.1-0.2-0.1-0.5-0.2-0.9c-0.7,0.7-1.5,1-2.4,1c-0.8,0-1.5-0.2-2-0.7c-0.5-0.5-0.8-1.1-0.8-1.8
		c0-0.9,0.3-1.6,1-2c0.7-0.5,1.6-0.7,2.8-0.7l1.4,0l0-0.7c0-0.5-0.1-0.9-0.4-1.2c-0.3-0.3-0.7-0.5-1.3-0.5c-0.5,0-0.9,0.1-1.3,0.4
		c-0.4,0.3-0.5,0.6-0.5,0.9l-1.5,0c0-0.4,0.2-0.8,0.5-1.2c0.3-0.4,0.7-0.7,1.2-0.9c0.5-0.2,1.1-0.3,1.7-0.3c1,0,1.7,0.3,2.3,0.7
		c0.5,0.5,0.8,1.2,0.9,2l0,3.9c0,0.8,0.1,1.4,0.3,1.9l0,0.1L498.8,42z M496.4,40.9c0.5,0,0.9-0.1,1.3-0.3c0.4-0.2,0.7-0.5,0.9-0.9
		l0-1.7l-1.1,0c-1.8,0-2.7,0.5-2.7,1.5c0,0.5,0.1,0.8,0.4,1.1C495.5,40.7,495.9,40.9,496.4,40.9z"/>
	<path class="st3" d="M506.4,34.9c-0.2,0-0.5-0.1-0.7-0.1c-0.9,0-1.6,0.4-1.9,1.2l0,6l-1.4,0l0-8.5l1.4,0l0,1c0.5-0.8,1.2-1.1,2-1.1
		c0.3,0,0.5,0,0.6,0.1L506.4,34.9z"/>
	<path class="st3" d="M518.8,37.9c0,1.3-0.3,2.3-0.9,3.1c-0.6,0.8-1.4,1.2-2.4,1.2c-1,0-1.8-0.3-2.4-1l0,4.1l-1.4,0l0.1-11.7l1.3,0
		l0.1,0.9c0.6-0.7,1.4-1.1,2.5-1.1c1,0,1.8,0.4,2.4,1.2c0.6,0.8,0.9,1.8,0.9,3.2L518.8,37.9z M517.4,37.8c0-1-0.2-1.7-0.6-2.3
		c-0.4-0.6-1-0.8-1.7-0.8c-0.9,0-1.5,0.4-2,1.2l0,4c0.4,0.8,1.1,1.2,2,1.2c0.7,0,1.2-0.3,1.7-0.8C517.1,39.7,517.4,38.9,517.4,37.8z
		"/>
	<path class="st3" d="M520.3,37.8c0-0.8,0.2-1.6,0.5-2.2c0.3-0.7,0.8-1.2,1.4-1.5c0.6-0.4,1.2-0.5,2-0.5c1.2,0,2.1,0.4,2.8,1.2
		c0.7,0.8,1.1,1.9,1.1,3.2l0,0.1c0,0.8-0.2,1.6-0.5,2.2c-0.3,0.7-0.8,1.2-1.4,1.5c-0.6,0.4-1.3,0.5-2,0.5c-1.1,0-2.1-0.4-2.8-1.2
		s-1.1-1.9-1.1-3.2L520.3,37.8z M521.7,38c0,0.9,0.2,1.7,0.6,2.3c0.4,0.6,1,0.9,1.7,0.9c0.7,0,1.3-0.3,1.8-0.9
		c0.4-0.6,0.7-1.4,0.7-2.4c0-0.9-0.2-1.7-0.7-2.3c-0.4-0.6-1-0.9-1.8-0.9c-0.7,0-1.3,0.3-1.7,0.8C521.9,36.1,521.7,36.9,521.7,38z"
		/>
	<path class="st3" d="M533.9,35c-0.2,0-0.5-0.1-0.7-0.1c-0.9,0-1.6,0.4-1.9,1.2l0,6l-1.4,0l0-8.5l1.4,0l0,1c0.5-0.8,1.2-1.1,2-1.1
		c0.3,0,0.5,0,0.6,0.1L533.9,35z"/>
	<path class="st3" d="M542.6,42.3c-1.1,0-2.1-0.4-2.8-1.1c-0.7-0.8-1.1-1.8-1.1-3l0-0.3c0-0.8,0.2-1.6,0.5-2.2
		c0.3-0.7,0.8-1.2,1.4-1.5c0.6-0.4,1.2-0.6,1.9-0.6c1.1,0,2,0.4,2.6,1.1c0.6,0.7,0.9,1.8,0.9,3.1l0,0.6l-5.7,0c0,0.8,0.3,1.5,0.7,2
		c0.5,0.5,1.1,0.8,1.8,0.8c0.5,0,0.9-0.1,1.3-0.3c0.4-0.2,0.7-0.5,0.9-0.8l0.9,0.7C545.1,41.8,544,42.3,542.6,42.3z M542.5,34.8
		c-0.6,0-1.1,0.2-1.5,0.6c-0.4,0.4-0.6,1-0.7,1.8l4.2,0l0-0.1c0-0.7-0.2-1.3-0.6-1.7C543.6,35,543.1,34.8,542.5,34.8z"/>
	<path class="st3" d="M552.5,40c0-0.4-0.1-0.7-0.4-0.9c-0.3-0.2-0.8-0.4-1.5-0.6c-0.7-0.2-1.3-0.3-1.7-0.6c-0.4-0.2-0.7-0.5-0.9-0.8
		c-0.2-0.3-0.3-0.7-0.3-1.1c0-0.7,0.3-1.3,0.9-1.8c0.6-0.5,1.3-0.7,2.2-0.7c1,0,1.7,0.3,2.3,0.8c0.6,0.5,0.9,1.1,0.9,1.9l-1.5,0
		c0-0.4-0.2-0.7-0.5-1c-0.3-0.3-0.8-0.4-1.3-0.4c-0.5,0-0.9,0.1-1.2,0.3c-0.3,0.2-0.4,0.5-0.4,0.9c0,0.3,0.1,0.6,0.4,0.8
		c0.3,0.2,0.8,0.4,1.5,0.5c0.7,0.2,1.3,0.4,1.8,0.6c0.4,0.2,0.8,0.5,1,0.8c0.2,0.3,0.3,0.7,0.3,1.2c0,0.8-0.3,1.4-0.9,1.8
		c-0.6,0.5-1.4,0.7-2.4,0.7c-0.7,0-1.3-0.1-1.8-0.4c-0.5-0.2-0.9-0.6-1.2-1c-0.3-0.4-0.4-0.9-0.4-1.4l1.4,0c0,0.5,0.2,0.9,0.6,1.2
		c0.4,0.3,0.8,0.4,1.4,0.4c0.5,0,1-0.1,1.3-0.3C552.4,40.6,552.5,40.4,552.5,40z"/>
	<path class="st3" d="M559.2,41.2c0.5,0,1-0.2,1.4-0.5c0.4-0.3,0.6-0.7,0.6-1.2l1.4,0c0,0.5-0.2,0.9-0.5,1.4c-0.3,0.4-0.7,0.8-1.2,1
		c-0.5,0.3-1.1,0.4-1.6,0.4c-1.2,0-2.1-0.4-2.7-1.2c-0.7-0.8-1-1.8-1-3.2l0-0.2c0-0.8,0.2-1.6,0.5-2.2c0.3-0.6,0.7-1.1,1.3-1.5
		c0.6-0.4,1.2-0.5,2-0.5c0.9,0,1.7,0.3,2.4,0.9c0.6,0.6,1,1.3,1,2.2l-1.4,0c0-0.5-0.2-1-0.6-1.4c-0.4-0.4-0.8-0.5-1.4-0.5
		c-0.7,0-1.3,0.3-1.7,0.8c-0.4,0.5-0.6,1.3-0.6,2.3l0,0.3c0,1,0.2,1.7,0.6,2.3C557.9,41,558.5,41.2,559.2,41.2z"/>
	<path class="st3" d="M568.3,35.1c-0.2,0-0.5-0.1-0.7-0.1c-0.9,0-1.6,0.4-1.9,1.2l0,6l-1.4,0l0-8.5l1.4,0l0,1c0.5-0.8,1.2-1.1,2-1.1
		c0.3,0,0.5,0,0.6,0.1L568.3,35.1z"/>
	<path class="st3" d="M569.7,31.6c0-0.2,0.1-0.4,0.2-0.6c0.1-0.2,0.4-0.2,0.6-0.2c0.3,0,0.5,0.1,0.6,0.2c0.1,0.2,0.2,0.4,0.2,0.6
		c0,0.2-0.1,0.4-0.2,0.6c-0.1,0.2-0.4,0.2-0.6,0.2c-0.3,0-0.5-0.1-0.6-0.2C569.8,32,569.7,31.8,569.7,31.6z M571.2,42.3l-1.4,0
		l0-8.5l1.4,0L571.2,42.3z"/>
	<path class="st3" d="M575.5,31.8l0,2l1.6,0l0,1.1l-1.6,0l0,5.2c0,0.3,0.1,0.6,0.2,0.8c0.1,0.2,0.4,0.3,0.7,0.3c0.2,0,0.4,0,0.7-0.1
		l0,1.2c-0.4,0.1-0.8,0.2-1.1,0.2c-0.6,0-1.1-0.2-1.5-0.6c-0.3-0.4-0.5-0.9-0.5-1.7l0-5.2l-1.5,0l0-1.1l1.5,0l0-2L575.5,31.8z"/>
	<path class="st3" d="M578.2,38c0-0.8,0.2-1.6,0.5-2.2c0.3-0.7,0.8-1.2,1.4-1.5c0.6-0.4,1.2-0.5,2-0.5c1.2,0,2.1,0.4,2.8,1.2
		c0.7,0.8,1.1,1.9,1.1,3.2l0,0.1c0,0.8-0.2,1.6-0.5,2.2c-0.3,0.7-0.8,1.2-1.4,1.5s-1.3,0.5-2,0.5c-1.1,0-2.1-0.4-2.8-1.2
		c-0.7-0.8-1.1-1.9-1.1-3.2L578.2,38z M579.7,38.2c0,0.9,0.2,1.7,0.6,2.3c0.4,0.6,1,0.9,1.7,0.9c0.7,0,1.3-0.3,1.8-0.9
		c0.4-0.6,0.7-1.4,0.7-2.4c0-0.9-0.2-1.7-0.7-2.3c-0.4-0.6-1-0.9-1.8-0.9c-0.7,0-1.3,0.3-1.7,0.8S579.7,37.2,579.7,38.2z"/>
</g>
<g class="st1">
	<path class="st3" d="M477.8,59.8c0,1.3-0.3,2.3-0.9,3.1c-0.6,0.8-1.4,1.2-2.4,1.2c-1,0-1.8-0.3-2.4-1l0,4.1l-1.4,0l0.1-11.7l1.3,0
		l0.1,0.9c0.6-0.7,1.4-1.1,2.5-1.1c1,0,1.8,0.4,2.4,1.2c0.6,0.8,0.9,1.8,0.9,3.2L477.8,59.8z M476.4,59.6c0-1-0.2-1.7-0.6-2.3
		s-1-0.8-1.7-0.8c-0.9,0-1.5,0.4-2,1.2l0,4c0.4,0.8,1.1,1.2,2,1.2c0.7,0,1.2-0.3,1.7-0.8C476.2,61.5,476.4,60.7,476.4,59.6z"/>
	<path class="st3" d="M483.8,56.8c-0.2,0-0.5-0.1-0.7-0.1c-0.9,0-1.6,0.4-1.9,1.2l0,6l-1.4,0l0-8.5l1.4,0l0,1c0.5-0.8,1.2-1.1,2-1.1
		c0.3,0,0.5,0,0.6,0.1L483.8,56.8z"/>
	<path class="st3" d="M484.5,59.6c0-0.8,0.2-1.6,0.5-2.2c0.3-0.7,0.8-1.2,1.4-1.5c0.6-0.4,1.2-0.5,2-0.5c1.2,0,2.1,0.4,2.8,1.2
		c0.7,0.8,1.1,1.9,1.1,3.2l0,0.1c0,0.8-0.2,1.6-0.5,2.2c-0.3,0.7-0.8,1.2-1.4,1.5s-1.3,0.5-2,0.5c-1.1,0-2.1-0.4-2.8-1.2
		s-1.1-1.9-1.1-3.2L484.5,59.6z M486,59.8c0,0.9,0.2,1.7,0.6,2.3c0.4,0.6,1,0.9,1.7,0.9c0.7,0,1.3-0.3,1.8-0.9
		c0.4-0.6,0.7-1.4,0.7-2.4c0-0.9-0.2-1.7-0.7-2.3c-0.4-0.6-1-0.9-1.8-0.9c-0.7,0-1.3,0.3-1.7,0.8S486,58.7,486,59.8z"/>
	<path class="st3" d="M497.4,63c0.5,0,1-0.2,1.4-0.5c0.4-0.3,0.6-0.7,0.6-1.2l1.4,0c0,0.5-0.2,0.9-0.5,1.4c-0.3,0.4-0.7,0.8-1.2,1
		c-0.5,0.3-1.1,0.4-1.6,0.4c-1.2,0-2.1-0.4-2.7-1.2s-1-1.8-1-3.2l0-0.2c0-0.8,0.2-1.6,0.5-2.2c0.3-0.6,0.7-1.1,1.3-1.5
		c0.6-0.4,1.2-0.5,2-0.5c0.9,0,1.7,0.3,2.4,0.9c0.6,0.6,1,1.3,1,2.2l-1.4,0c0-0.5-0.2-1-0.6-1.4c-0.4-0.4-0.8-0.5-1.4-0.5
		c-0.7,0-1.3,0.3-1.7,0.8c-0.4,0.5-0.6,1.3-0.6,2.3l0,0.3c0,1,0.2,1.7,0.6,2.3C496.1,62.7,496.7,62.9,497.4,63z"/>
	<path class="st3" d="M505.9,64.2c-1.1,0-2.1-0.4-2.8-1.1c-0.7-0.8-1.1-1.8-1.1-3l0-0.3c0-0.8,0.2-1.6,0.5-2.2
		c0.3-0.7,0.8-1.2,1.4-1.5c0.6-0.4,1.2-0.6,1.9-0.6c1.1,0,2,0.4,2.6,1.1c0.6,0.7,0.9,1.8,0.9,3.1l0,0.6l-5.7,0c0,0.8,0.3,1.5,0.7,2
		c0.5,0.5,1.1,0.8,1.8,0.8c0.5,0,0.9-0.1,1.3-0.3c0.4-0.2,0.7-0.5,0.9-0.8l0.9,0.7C508.4,63.6,507.3,64.2,505.9,64.2z M505.8,56.6
		c-0.6,0-1.1,0.2-1.5,0.6c-0.4,0.4-0.6,1-0.7,1.8l4.2,0l0-0.1c0-0.7-0.2-1.3-0.6-1.7C506.9,56.8,506.4,56.6,505.8,56.6z"/>
	<path class="st3" d="M515.8,61.8c0-0.4-0.1-0.7-0.4-0.9c-0.3-0.2-0.8-0.4-1.5-0.6c-0.7-0.2-1.3-0.3-1.7-0.6
		c-0.4-0.2-0.7-0.5-0.9-0.8c-0.2-0.3-0.3-0.7-0.3-1.1c0-0.7,0.3-1.3,0.9-1.8c0.6-0.5,1.3-0.7,2.2-0.7c1,0,1.7,0.3,2.3,0.8
		c0.6,0.5,0.9,1.1,0.9,1.9l-1.5,0c0-0.4-0.2-0.7-0.5-1c-0.3-0.3-0.8-0.4-1.3-0.4c-0.5,0-0.9,0.1-1.2,0.3c-0.3,0.2-0.4,0.5-0.4,0.9
		c0,0.3,0.1,0.6,0.4,0.8c0.3,0.2,0.8,0.4,1.5,0.5c0.7,0.2,1.3,0.4,1.8,0.6c0.4,0.2,0.8,0.5,1,0.8c0.2,0.3,0.3,0.7,0.3,1.2
		c0,0.8-0.3,1.4-0.9,1.8c-0.6,0.5-1.4,0.7-2.4,0.7c-0.7,0-1.3-0.1-1.8-0.4c-0.5-0.2-0.9-0.6-1.2-1c-0.3-0.4-0.4-0.9-0.4-1.4l1.4,0
		c0,0.5,0.2,0.9,0.6,1.2c0.4,0.3,0.8,0.4,1.4,0.4c0.5,0,1-0.1,1.3-0.3C515.7,62.5,515.8,62.2,515.8,61.8z"/>
	<path class="st3" d="M518.8,59.8c0-0.8,0.2-1.6,0.5-2.2c0.3-0.7,0.8-1.2,1.4-1.5c0.6-0.4,1.2-0.5,2-0.5c1.2,0,2.1,0.4,2.8,1.2
		s1.1,1.9,1.1,3.2l0,0.1c0,0.8-0.2,1.6-0.5,2.2c-0.3,0.7-0.8,1.2-1.4,1.5s-1.3,0.5-2,0.5c-1.1,0-2.1-0.4-2.8-1.2
		c-0.7-0.8-1.1-1.9-1.1-3.2L518.8,59.8z M520.2,59.9c0,0.9,0.2,1.7,0.6,2.3c0.4,0.6,1,0.9,1.7,0.9c0.7,0,1.3-0.3,1.8-0.9
		c0.4-0.6,0.7-1.4,0.7-2.4c0-0.9-0.2-1.7-0.7-2.3c-0.4-0.6-1-0.9-1.8-0.9c-0.7,0-1.3,0.3-1.7,0.8C520.5,58.1,520.2,58.9,520.2,59.9z
		"/>
	<path class="st3" d="M533.2,61.9c0-0.4-0.1-0.7-0.4-0.9c-0.3-0.2-0.8-0.4-1.5-0.6c-0.7-0.2-1.3-0.3-1.7-0.6
		c-0.4-0.2-0.7-0.5-0.9-0.8c-0.2-0.3-0.3-0.7-0.3-1.1c0-0.7,0.3-1.3,0.9-1.8c0.6-0.5,1.3-0.7,2.2-0.7c1,0,1.7,0.3,2.3,0.8
		c0.6,0.5,0.9,1.1,0.9,1.9l-1.5,0c0-0.4-0.2-0.7-0.5-1c-0.3-0.3-0.8-0.4-1.3-0.4c-0.5,0-0.9,0.1-1.2,0.3c-0.3,0.2-0.4,0.5-0.4,0.9
		c0,0.3,0.1,0.6,0.4,0.8c0.3,0.2,0.8,0.4,1.5,0.5c0.7,0.2,1.3,0.4,1.8,0.6c0.4,0.2,0.8,0.5,1,0.8c0.2,0.3,0.3,0.7,0.3,1.2
		c0,0.8-0.3,1.4-0.9,1.8c-0.6,0.5-1.4,0.7-2.4,0.7c-0.7,0-1.3-0.1-1.8-0.4c-0.5-0.2-0.9-0.6-1.2-1c-0.3-0.4-0.4-0.9-0.4-1.4l1.4,0
		c0,0.5,0.2,0.9,0.6,1.2c0.4,0.3,0.8,0.4,1.4,0.4c0.5,0,1-0.1,1.3-0.3C533,62.6,533.2,62.3,533.2,61.9z"/>
	<path class="st3" d="M543.9,63.2c0.5,0,1-0.2,1.4-0.5c0.4-0.3,0.6-0.7,0.6-1.2l1.4,0c0,0.5-0.2,0.9-0.5,1.4c-0.3,0.4-0.7,0.8-1.2,1
		c-0.5,0.3-1.1,0.4-1.6,0.4c-1.2,0-2.1-0.4-2.7-1.2c-0.7-0.8-1-1.8-1-3.2l0-0.2c0-0.8,0.2-1.6,0.5-2.2c0.3-0.6,0.7-1.1,1.3-1.5
		c0.6-0.4,1.2-0.5,2-0.5c0.9,0,1.7,0.3,2.4,0.9c0.6,0.6,1,1.3,1,2.2l-1.4,0c0-0.5-0.2-1-0.6-1.4c-0.4-0.4-0.8-0.5-1.4-0.5
		c-0.7,0-1.3,0.3-1.7,0.8c-0.4,0.5-0.6,1.3-0.6,2.3l0,0.3c0,1,0.2,1.7,0.6,2.3C542.6,62.9,543.1,63.2,543.9,63.2z"/>
	<path class="st3" d="M553,57.1c-0.2,0-0.5-0.1-0.7-0.1c-0.9,0-1.6,0.4-1.9,1.2l0,6l-1.4,0l0-8.5l1.4,0l0,1c0.5-0.8,1.2-1.1,2-1.1
		c0.3,0,0.5,0,0.6,0.1L553,57.1z"/>
	<path class="st3" d="M555.9,52.2l1.8,0l-2.1,2.3l-1.2,0L555.9,52.2z M555.8,64.2l-1.5,0l0-8.5l1.5,0L555.8,64.2z"/>
	<path class="st3" d="M560.2,53.8l0,2l1.6,0l0,1.1l-1.6,0l0,5.2c0,0.3,0.1,0.6,0.2,0.8c0.1,0.2,0.4,0.3,0.7,0.3c0.2,0,0.4,0,0.7-0.1
		l0,1.2c-0.4,0.1-0.8,0.2-1.1,0.2c-0.6,0-1.1-0.2-1.5-0.6s-0.5-0.9-0.5-1.7l0-5.2l-1.5,0l0-1.1l1.5,0l0-2L560.2,53.8z"/>
	<path class="st3" d="M563.5,53.6c0-0.2,0.1-0.4,0.2-0.6c0.1-0.2,0.4-0.2,0.6-0.2c0.3,0,0.5,0.1,0.6,0.2c0.1,0.2,0.2,0.4,0.2,0.6
		c0,0.2-0.1,0.4-0.2,0.6c-0.1,0.2-0.4,0.2-0.6,0.2c-0.3,0-0.5-0.1-0.6-0.2C563.6,54,563.5,53.8,563.5,53.6z M565,64.3l-1.4,0l0-8.5
		l1.4,0L565,64.3z"/>
	<path class="st3" d="M570.7,63.3c0.5,0,1-0.2,1.4-0.5c0.4-0.3,0.6-0.7,0.6-1.2l1.4,0c0,0.5-0.2,0.9-0.5,1.4c-0.3,0.4-0.7,0.8-1.2,1
		c-0.5,0.3-1.1,0.4-1.6,0.4c-1.2,0-2.1-0.4-2.7-1.2c-0.7-0.8-1-1.8-1-3.2l0-0.2c0-0.8,0.2-1.6,0.5-2.2c0.3-0.6,0.7-1.1,1.3-1.5
		c0.6-0.4,1.2-0.5,2-0.5c0.9,0,1.7,0.3,2.4,0.9c0.6,0.6,1,1.3,1,2.2l-1.4,0c0-0.5-0.2-1-0.6-1.4c-0.4-0.4-0.8-0.5-1.4-0.5
		c-0.7,0-1.3,0.3-1.7,0.8c-0.4,0.5-0.6,1.3-0.6,2.3l0,0.3c0,1,0.2,1.7,0.6,2.3C569.4,63,570,63.3,570.7,63.3z"/>
	<path class="st3" d="M575.3,60c0-0.8,0.2-1.6,0.5-2.2c0.3-0.7,0.8-1.2,1.4-1.5c0.6-0.4,1.2-0.5,2-0.5c1.2,0,2.1,0.4,2.8,1.2
		c0.7,0.8,1.1,1.9,1.1,3.2l0,0.1c0,0.8-0.2,1.6-0.5,2.2c-0.3,0.7-0.8,1.2-1.4,1.5c-0.6,0.4-1.3,0.5-2,0.5c-1.1,0-2.1-0.4-2.8-1.2
		c-0.7-0.8-1.1-1.9-1.1-3.2L575.3,60z M576.8,60.2c0,0.9,0.2,1.7,0.6,2.3c0.4,0.6,1,0.9,1.7,0.9c0.7,0,1.3-0.3,1.8-0.9
		c0.4-0.6,0.7-1.4,0.7-2.4c0-0.9-0.2-1.7-0.7-2.3c-0.4-0.6-1-0.9-1.8-0.9c-0.7,0-1.3,0.3-1.7,0.8C577,58.3,576.8,59.1,576.8,60.2z"
		/>
	<path class="st3" d="M589.8,62.1c0-0.4-0.1-0.7-0.4-0.9c-0.3-0.2-0.8-0.4-1.5-0.6c-0.7-0.2-1.3-0.3-1.7-0.6s-0.7-0.5-0.9-0.8
		c-0.2-0.3-0.3-0.7-0.3-1.1c0-0.7,0.3-1.3,0.9-1.8c0.6-0.5,1.3-0.7,2.2-0.7c1,0,1.7,0.3,2.3,0.8c0.6,0.5,0.9,1.1,0.9,1.9l-1.5,0
		c0-0.4-0.2-0.7-0.5-1c-0.3-0.3-0.8-0.4-1.3-0.4c-0.5,0-0.9,0.1-1.2,0.3s-0.4,0.5-0.4,0.9c0,0.3,0.1,0.6,0.4,0.8
		c0.3,0.2,0.8,0.4,1.5,0.5c0.7,0.2,1.3,0.4,1.8,0.6c0.4,0.2,0.8,0.5,1,0.8c0.2,0.3,0.3,0.7,0.3,1.2c0,0.8-0.3,1.4-0.9,1.8
		c-0.6,0.5-1.4,0.7-2.4,0.7c-0.7,0-1.3-0.1-1.8-0.4c-0.5-0.2-0.9-0.6-1.2-1c-0.3-0.4-0.4-0.9-0.4-1.4l1.4,0c0,0.5,0.2,0.9,0.6,1.2
		c0.4,0.3,0.8,0.4,1.4,0.4c0.5,0,1-0.1,1.3-0.3C589.6,62.8,589.8,62.5,589.8,62.1z"/>
</g>
<g class="st1">
	<path class="st3" d="M715.4,451.1l3.7,9.3l3.7-9.3h1.9v11.4h-1.5V458l0.1-4.8l-3.7,9.2h-1.1l-3.7-9.2l0.1,4.8v4.4h-1.5v-11.4H715.4
		z"/>
	<path class="st3" d="M730.7,462.6c-1.1,0-2.1-0.4-2.8-1.1s-1.1-1.8-1.1-3v-0.3c0-0.8,0.2-1.6,0.5-2.2s0.8-1.2,1.3-1.5
		c0.6-0.4,1.2-0.6,1.9-0.6c1.1,0,2,0.4,2.6,1.1s0.9,1.8,0.9,3.1v0.6h-5.7c0,0.8,0.3,1.5,0.7,2c0.5,0.5,1.1,0.8,1.8,0.8
		c0.5,0,0.9-0.1,1.3-0.3c0.4-0.2,0.7-0.5,0.9-0.8l0.9,0.7C733.2,462.1,732.1,462.6,730.7,462.6z M730.5,455c-0.6,0-1.1,0.2-1.5,0.6
		c-0.4,0.4-0.6,1-0.7,1.8h4.2v-0.1c0-0.7-0.2-1.3-0.6-1.7C731.6,455.2,731.1,455,730.5,455z"/>
	<path class="st3" d="M737.1,454v9.4c0,1.6-0.7,2.4-2.2,2.4c-0.3,0-0.6,0-0.9-0.1v-1.1c0.2,0,0.4,0.1,0.7,0.1c0.3,0,0.6-0.1,0.7-0.3
		c0.2-0.2,0.3-0.5,0.3-0.9V454H737.1z M735.5,451.8c0-0.2,0.1-0.4,0.2-0.6c0.1-0.2,0.4-0.2,0.6-0.2c0.3,0,0.5,0.1,0.6,0.2
		c0.1,0.2,0.2,0.4,0.2,0.6s-0.1,0.4-0.2,0.6c-0.1,0.2-0.4,0.2-0.6,0.2s-0.5-0.1-0.6-0.2S735.5,452,735.5,451.8z"/>
	<path class="st3" d="M739.1,458.2c0-0.8,0.2-1.6,0.5-2.2c0.3-0.7,0.8-1.2,1.4-1.5c0.6-0.4,1.2-0.5,2-0.5c1.2,0,2.1,0.4,2.8,1.2
		s1.1,1.9,1.1,3.2v0.1c0,0.8-0.2,1.6-0.5,2.2c-0.3,0.7-0.8,1.2-1.4,1.5s-1.3,0.5-2,0.5c-1.1,0-2.1-0.4-2.8-1.2s-1.1-1.9-1.1-3.2
		V458.2z M740.5,458.3c0,0.9,0.2,1.7,0.7,2.3c0.4,0.6,1,0.9,1.7,0.9c0.7,0,1.3-0.3,1.8-0.9c0.4-0.6,0.6-1.4,0.6-2.4
		c0-0.9-0.2-1.7-0.7-2.3c-0.4-0.6-1-0.9-1.8-0.9c-0.7,0-1.3,0.3-1.7,0.9S740.5,457.3,740.5,458.3z"/>
	<path class="st3" d="M752.7,455.3c-0.2,0-0.5-0.1-0.7-0.1c-0.9,0-1.6,0.4-1.9,1.2v6h-1.4V454h1.4l0,1c0.5-0.8,1.1-1.1,2-1.1
		c0.3,0,0.5,0,0.6,0.1V455.3z"/>
	<path class="st3" d="M758.9,462.5c-0.1-0.2-0.2-0.5-0.2-0.9c-0.7,0.7-1.5,1-2.4,1c-0.8,0-1.5-0.2-2.1-0.7c-0.5-0.5-0.8-1.1-0.8-1.8
		c0-0.9,0.3-1.6,1-2.1c0.7-0.5,1.6-0.7,2.8-0.7h1.4v-0.7c0-0.5-0.2-0.9-0.5-1.2c-0.3-0.3-0.7-0.4-1.3-0.4c-0.5,0-0.9,0.1-1.3,0.4
		c-0.3,0.3-0.5,0.6-0.5,0.9h-1.5c0-0.4,0.1-0.8,0.4-1.2c0.3-0.4,0.7-0.7,1.2-0.9c0.5-0.2,1.1-0.3,1.7-0.3c1,0,1.7,0.2,2.3,0.7
		c0.6,0.5,0.8,1.2,0.9,2v3.9c0,0.8,0.1,1.4,0.3,1.9v0.1H758.9z M756.5,461.4c0.5,0,0.9-0.1,1.3-0.4s0.7-0.5,0.9-0.9v-1.7h-1.1
		c-1.8,0-2.7,0.5-2.7,1.6c0,0.5,0.2,0.8,0.5,1.1C755.6,461.2,756,461.4,756.5,461.4z"/>
	<path class="st3" d="M766.5,455.3c-0.2,0-0.5-0.1-0.7-0.1c-0.9,0-1.6,0.4-1.9,1.2v6h-1.4V454h1.4l0,1c0.5-0.8,1.1-1.1,2-1.1
		c0.3,0,0.5,0,0.6,0.1V455.3z"/>
	<path class="st3" d="M774.5,460.3l2-6.3h1.5l-3.4,9.8c-0.5,1.4-1.4,2.1-2.5,2.1l-0.3,0l-0.5-0.1v-1.2l0.4,0c0.5,0,0.9-0.1,1.1-0.3
		s0.5-0.6,0.7-1.1l0.3-0.9l-3-8.4h1.6L774.5,460.3z"/>
</g>
<g class="st1">
	<path class="st3" d="M712.8,480.2c0-0.8,0.2-1.6,0.5-2.2c0.3-0.7,0.8-1.2,1.4-1.5c0.6-0.4,1.2-0.5,2-0.5c1.2,0,2.1,0.4,2.8,1.2
		s1.1,1.9,1.1,3.2v0.1c0,0.8-0.2,1.6-0.5,2.2c-0.3,0.7-0.8,1.2-1.4,1.5s-1.3,0.5-2,0.5c-1.1,0-2.1-0.4-2.8-1.2s-1.1-1.9-1.1-3.2
		V480.2z M714.3,480.3c0,0.9,0.2,1.7,0.7,2.3c0.4,0.6,1,0.9,1.7,0.9c0.7,0,1.3-0.3,1.8-0.9c0.4-0.6,0.6-1.4,0.6-2.4
		c0-0.9-0.2-1.7-0.7-2.3c-0.4-0.6-1-0.9-1.8-0.9c-0.7,0-1.3,0.3-1.7,0.9S714.3,479.3,714.3,480.3z"/>
	<path class="st3" d="M729.5,480.3c0,1.3-0.3,2.3-0.9,3.1c-0.6,0.8-1.4,1.2-2.4,1.2c-1,0-1.8-0.3-2.4-1v4.1h-1.4V476h1.3l0.1,0.9
		c0.6-0.7,1.4-1.1,2.5-1.1c1,0,1.8,0.4,2.4,1.1c0.6,0.8,0.9,1.8,0.9,3.2V480.3z M728,480.2c0-1-0.2-1.7-0.6-2.3s-1-0.8-1.7-0.8
		c-0.9,0-1.5,0.4-2,1.2v4c0.4,0.8,1.1,1.2,2,1.2c0.7,0,1.2-0.3,1.7-0.8C727.8,482.1,728,481.2,728,480.2z"/>
	<path class="st3" d="M733.3,474v2h1.6v1.1h-1.6v5.2c0,0.3,0.1,0.6,0.2,0.8c0.1,0.2,0.4,0.3,0.7,0.3c0.2,0,0.4,0,0.7-0.1v1.2
		c-0.4,0.1-0.8,0.2-1.1,0.2c-0.6,0-1.1-0.2-1.5-0.6s-0.5-0.9-0.5-1.7v-5.2h-1.5V476h1.5v-2H733.3z"/>
	<path class="st3" d="M736.5,473.8c0-0.2,0.1-0.4,0.2-0.6c0.1-0.2,0.4-0.2,0.6-0.2s0.5,0.1,0.6,0.2c0.1,0.2,0.2,0.4,0.2,0.6
		s-0.1,0.4-0.2,0.6c-0.1,0.2-0.4,0.2-0.6,0.2s-0.5-0.1-0.6-0.2C736.6,474.2,736.5,474,736.5,473.8z M738.1,484.5h-1.4V476h1.4V484.5
		z"/>
	<path class="st3" d="M741.8,476l0,0.9c0.6-0.7,1.5-1.1,2.5-1.1c1.2,0,2,0.5,2.4,1.4c0.3-0.4,0.6-0.7,1.1-1c0.5-0.2,1-0.4,1.6-0.4
		c1.9,0,2.8,1,2.8,2.9v5.7h-1.4v-5.6c0-0.6-0.1-1.1-0.4-1.4c-0.3-0.3-0.7-0.4-1.4-0.4c-0.5,0-1,0.2-1.3,0.5
		c-0.4,0.3-0.6,0.8-0.6,1.3v5.6h-1.5v-5.5c0-1.2-0.6-1.8-1.8-1.8c-0.9,0-1.6,0.4-1.9,1.2v6.2h-1.4V476H741.8z"/>
	<path class="st3" d="M754.4,473.8c0-0.2,0.1-0.4,0.2-0.6c0.1-0.2,0.4-0.2,0.6-0.2s0.5,0.1,0.6,0.2c0.1,0.2,0.2,0.4,0.2,0.6
		s-0.1,0.4-0.2,0.6c-0.1,0.2-0.4,0.2-0.6,0.2s-0.5-0.1-0.6-0.2C754.5,474.2,754.4,474,754.4,473.8z M756,484.5h-1.4V476h1.4V484.5z"
		/>
	<path class="st3" d="M759.7,483.3h4.9v1.2h-6.7v-1.1l4.7-6.2H758V476h6.4v1L759.7,483.3z"/>
	<path class="st3" d="M771.5,484.5c-0.1-0.2-0.2-0.5-0.2-0.9c-0.7,0.7-1.5,1-2.4,1c-0.8,0-1.5-0.2-2.1-0.7c-0.5-0.5-0.8-1.1-0.8-1.8
		c0-0.9,0.3-1.6,1-2.1c0.7-0.5,1.6-0.7,2.8-0.7h1.4v-0.7c0-0.5-0.2-0.9-0.5-1.2c-0.3-0.3-0.7-0.4-1.3-0.4c-0.5,0-0.9,0.1-1.3,0.4
		c-0.3,0.3-0.5,0.6-0.5,0.9h-1.5c0-0.4,0.1-0.8,0.4-1.2c0.3-0.4,0.7-0.7,1.2-0.9c0.5-0.2,1.1-0.3,1.7-0.3c1,0,1.7,0.2,2.3,0.7
		c0.6,0.5,0.8,1.2,0.9,2v3.9c0,0.8,0.1,1.4,0.3,1.9v0.1H771.5z M769.1,483.4c0.5,0,0.9-0.1,1.3-0.4s0.7-0.5,0.9-0.9v-1.7h-1.1
		c-1.8,0-2.7,0.5-2.7,1.6c0,0.5,0.2,0.8,0.5,1.1C768.2,483.2,768.6,483.4,769.1,483.4z"/>
	<path class="st3" d="M779,477.3c-0.2,0-0.5-0.1-0.7-0.1c-0.9,0-1.6,0.4-1.9,1.2v6h-1.4V476h1.4l0,1c0.5-0.8,1.1-1.1,2-1.1
		c0.3,0,0.5,0,0.6,0.1V477.3z"/>
</g>
<g class="st1">
	<path class="st3" d="M714.8,506.5h-1.4v-12h1.4V506.5z"/>
	<path class="st3" d="M716.7,502.2c0-0.8,0.2-1.6,0.5-2.2c0.3-0.7,0.8-1.2,1.4-1.5c0.6-0.4,1.2-0.5,2-0.5c1.2,0,2.1,0.4,2.8,1.2
		s1.1,1.9,1.1,3.2v0.1c0,0.8-0.2,1.6-0.5,2.2c-0.3,0.7-0.8,1.2-1.4,1.5s-1.3,0.5-2,0.5c-1.1,0-2.1-0.4-2.8-1.2s-1.1-1.9-1.1-3.2
		V502.2z M718.2,502.3c0,0.9,0.2,1.7,0.7,2.3c0.4,0.6,1,0.9,1.7,0.9c0.7,0,1.3-0.3,1.8-0.9c0.4-0.6,0.6-1.4,0.6-2.4
		c0-0.9-0.2-1.7-0.7-2.3c-0.4-0.6-1-0.9-1.8-0.9c-0.7,0-1.3,0.3-1.7,0.9S718.2,501.3,718.2,502.3z"/>
	<path class="st3" d="M731.1,504.2c0-0.4-0.1-0.7-0.4-0.9c-0.3-0.2-0.8-0.4-1.5-0.6c-0.7-0.2-1.3-0.3-1.7-0.6s-0.7-0.5-1-0.8
		c-0.2-0.3-0.3-0.7-0.3-1.1c0-0.7,0.3-1.3,0.9-1.8s1.3-0.7,2.2-0.7c1,0,1.7,0.2,2.3,0.7c0.6,0.5,0.9,1.1,0.9,1.9H731
		c0-0.4-0.2-0.7-0.5-1s-0.8-0.4-1.3-0.4c-0.5,0-0.9,0.1-1.2,0.3s-0.4,0.5-0.4,0.9c0,0.3,0.1,0.6,0.4,0.8c0.3,0.2,0.8,0.3,1.5,0.5
		c0.7,0.2,1.3,0.4,1.8,0.6c0.4,0.2,0.8,0.5,1,0.8c0.2,0.3,0.3,0.7,0.3,1.2c0,0.8-0.3,1.4-0.9,1.8c-0.6,0.5-1.4,0.7-2.4,0.7
		c-0.7,0-1.3-0.1-1.8-0.4c-0.5-0.2-0.9-0.6-1.2-1c-0.3-0.4-0.4-0.9-0.4-1.4h1.4c0,0.5,0.2,0.9,0.6,1.2c0.4,0.3,0.8,0.4,1.4,0.4
		c0.5,0,1-0.1,1.3-0.3C731,504.9,731.1,504.6,731.1,504.2z"/>
	<path class="st3" d="M745.6,502.3c0,1.3-0.3,2.3-0.9,3.1c-0.6,0.8-1.4,1.2-2.4,1.2c-1,0-1.8-0.3-2.4-1v4.1h-1.4V498h1.3l0.1,0.9
		c0.6-0.7,1.4-1.1,2.5-1.1c1,0,1.8,0.4,2.4,1.1c0.6,0.8,0.9,1.8,0.9,3.2V502.3z M744.1,502.2c0-1-0.2-1.7-0.6-2.3s-1-0.8-1.7-0.8
		c-0.9,0-1.5,0.4-2,1.2v4c0.4,0.8,1.1,1.2,2,1.2c0.7,0,1.2-0.3,1.7-0.8C743.9,504.1,744.1,503.2,744.1,502.2z"/>
	<path class="st3" d="M751.5,499.3c-0.2,0-0.5-0.1-0.7-0.1c-0.9,0-1.6,0.4-1.9,1.2v6h-1.4V498h1.4l0,1c0.5-0.8,1.1-1.1,2-1.1
		c0.3,0,0.5,0,0.6,0.1V499.3z"/>
	<path class="st3" d="M752.3,502.2c0-0.8,0.2-1.6,0.5-2.2c0.3-0.7,0.8-1.2,1.4-1.5c0.6-0.4,1.2-0.5,2-0.5c1.2,0,2.1,0.4,2.8,1.2
		s1.1,1.9,1.1,3.2v0.1c0,0.8-0.2,1.6-0.5,2.2c-0.3,0.7-0.8,1.2-1.4,1.5s-1.3,0.5-2,0.5c-1.1,0-2.1-0.4-2.8-1.2s-1.1-1.9-1.1-3.2
		V502.2z M753.7,502.3c0,0.9,0.2,1.7,0.7,2.3c0.4,0.6,1,0.9,1.7,0.9c0.7,0,1.3-0.3,1.8-0.9c0.4-0.6,0.6-1.4,0.6-2.4
		c0-0.9-0.2-1.7-0.7-2.3c-0.4-0.6-1-0.9-1.8-0.9c-0.7,0-1.3,0.3-1.7,0.9S753.7,501.3,753.7,502.3z"/>
	<path class="st3" d="M765.2,505.4c0.5,0,1-0.2,1.4-0.5c0.4-0.3,0.6-0.7,0.6-1.2h1.4c0,0.5-0.2,0.9-0.5,1.4c-0.3,0.4-0.7,0.8-1.2,1
		c-0.5,0.3-1.1,0.4-1.6,0.4c-1.2,0-2.1-0.4-2.7-1.2s-1-1.8-1-3.2v-0.2c0-0.8,0.2-1.6,0.5-2.2c0.3-0.6,0.7-1.1,1.3-1.5
		c0.6-0.4,1.2-0.5,2-0.5c0.9,0,1.7,0.3,2.4,0.9c0.6,0.6,1,1.3,1,2.2h-1.4c0-0.5-0.2-1-0.6-1.3c-0.4-0.4-0.8-0.5-1.4-0.5
		c-0.7,0-1.3,0.3-1.7,0.8c-0.4,0.5-0.6,1.3-0.6,2.3v0.3c0,1,0.2,1.7,0.6,2.2C763.8,505.2,764.4,505.4,765.2,505.4z"/>
	<path class="st3" d="M773.7,506.6c-1.1,0-2.1-0.4-2.8-1.1s-1.1-1.8-1.1-3v-0.3c0-0.8,0.2-1.6,0.5-2.2s0.8-1.2,1.3-1.5
		c0.6-0.4,1.2-0.6,1.9-0.6c1.1,0,2,0.4,2.6,1.1s0.9,1.8,0.9,3.1v0.6h-5.7c0,0.8,0.3,1.5,0.7,2c0.5,0.5,1.1,0.8,1.8,0.8
		c0.5,0,0.9-0.1,1.3-0.3c0.4-0.2,0.7-0.5,0.9-0.8l0.9,0.7C776.1,506.1,775.1,506.6,773.7,506.6z M773.5,499c-0.6,0-1.1,0.2-1.5,0.6
		c-0.4,0.4-0.6,1-0.7,1.8h4.2v-0.1c0-0.7-0.2-1.3-0.6-1.7C774.6,499.2,774.1,499,773.5,499z"/>
	<path class="st3" d="M783.5,504.2c0-0.4-0.1-0.7-0.4-0.9c-0.3-0.2-0.8-0.4-1.5-0.6c-0.7-0.2-1.3-0.3-1.7-0.6s-0.7-0.5-1-0.8
		c-0.2-0.3-0.3-0.7-0.3-1.1c0-0.7,0.3-1.3,0.9-1.8s1.3-0.7,2.2-0.7c1,0,1.7,0.2,2.3,0.7c0.6,0.5,0.9,1.1,0.9,1.9h-1.5
		c0-0.4-0.2-0.7-0.5-1s-0.8-0.4-1.3-0.4c-0.5,0-0.9,0.1-1.2,0.3s-0.4,0.5-0.4,0.9c0,0.3,0.1,0.6,0.4,0.8c0.3,0.2,0.8,0.3,1.5,0.5
		c0.7,0.2,1.3,0.4,1.8,0.6c0.4,0.2,0.8,0.5,1,0.8c0.2,0.3,0.3,0.7,0.3,1.2c0,0.8-0.3,1.4-0.9,1.8c-0.6,0.5-1.4,0.7-2.4,0.7
		c-0.7,0-1.3-0.1-1.8-0.4c-0.5-0.2-0.9-0.6-1.2-1c-0.3-0.4-0.4-0.9-0.4-1.4h1.4c0,0.5,0.2,0.9,0.6,1.2c0.4,0.3,0.8,0.4,1.4,0.4
		c0.5,0,1-0.1,1.3-0.3C783.4,504.9,783.5,504.6,783.5,504.2z"/>
	<path class="st3" d="M786.5,502.2c0-0.8,0.2-1.6,0.5-2.2c0.3-0.7,0.8-1.2,1.4-1.5c0.6-0.4,1.2-0.5,2-0.5c1.2,0,2.1,0.4,2.8,1.2
		s1.1,1.9,1.1,3.2v0.1c0,0.8-0.2,1.6-0.5,2.2c-0.3,0.7-0.8,1.2-1.4,1.5s-1.3,0.5-2,0.5c-1.1,0-2.1-0.4-2.8-1.2s-1.1-1.9-1.1-3.2
		V502.2z M787.9,502.3c0,0.9,0.2,1.7,0.7,2.3c0.4,0.6,1,0.9,1.7,0.9c0.7,0,1.3-0.3,1.8-0.9c0.4-0.6,0.6-1.4,0.6-2.4
		c0-0.9-0.2-1.7-0.7-2.3c-0.4-0.6-1-0.9-1.8-0.9c-0.7,0-1.3,0.3-1.7,0.9S787.9,501.3,787.9,502.3z"/>
	<path class="st3" d="M800.9,504.2c0-0.4-0.1-0.7-0.4-0.9c-0.3-0.2-0.8-0.4-1.5-0.6c-0.7-0.2-1.3-0.3-1.7-0.6s-0.7-0.5-1-0.8
		c-0.2-0.3-0.3-0.7-0.3-1.1c0-0.7,0.3-1.3,0.9-1.8s1.3-0.7,2.2-0.7c1,0,1.7,0.2,2.3,0.7c0.6,0.5,0.9,1.1,0.9,1.9h-1.5
		c0-0.4-0.2-0.7-0.5-1s-0.8-0.4-1.3-0.4c-0.5,0-0.9,0.1-1.2,0.3s-0.4,0.5-0.4,0.9c0,0.3,0.1,0.6,0.4,0.8c0.3,0.2,0.8,0.3,1.5,0.5
		c0.7,0.2,1.3,0.4,1.8,0.6c0.4,0.2,0.8,0.5,1,0.8c0.2,0.3,0.3,0.7,0.3,1.2c0,0.8-0.3,1.4-0.9,1.8c-0.6,0.5-1.4,0.7-2.4,0.7
		c-0.7,0-1.3-0.1-1.8-0.4c-0.5-0.2-0.9-0.6-1.2-1c-0.3-0.4-0.4-0.9-0.4-1.4h1.4c0,0.5,0.2,0.9,0.6,1.2c0.4,0.3,0.8,0.4,1.4,0.4
		c0.5,0,1-0.1,1.3-0.3C800.8,504.9,800.9,504.6,800.9,504.2z"/>
</g>
<g class="st1">
	<path class="st3" d="M232,459.6v-11.4h3.2c1,0,1.9,0.2,2.6,0.7c0.8,0.4,1.3,1.1,1.8,1.9s0.6,1.7,0.6,2.8v0.7c0,1.1-0.2,2-0.6,2.8
		s-1,1.4-1.8,1.9c-0.8,0.4-1.7,0.7-2.7,0.7H232z M233.5,449.4v8.9h1.6c1.2,0,2.1-0.4,2.7-1.1c0.6-0.7,1-1.7,1-3.1v-0.7
		c0-1.3-0.3-2.3-0.9-3c-0.6-0.7-1.5-1.1-2.6-1.1H233.5z"/>
	<path class="st3" d="M242.3,448.9c0-0.2,0.1-0.4,0.2-0.6c0.1-0.2,0.4-0.2,0.6-0.2s0.5,0.1,0.6,0.2c0.1,0.2,0.2,0.4,0.2,0.6
		s-0.1,0.4-0.2,0.6c-0.1,0.2-0.4,0.2-0.6,0.2s-0.5-0.1-0.6-0.2C242.4,449.3,242.3,449.1,242.3,448.9z M243.9,459.6h-1.4v-8.5h1.4
		V459.6z"/>
	<path class="st3" d="M251.1,457.3c0-0.4-0.1-0.7-0.4-0.9c-0.3-0.2-0.8-0.4-1.5-0.6c-0.7-0.2-1.3-0.3-1.7-0.6s-0.7-0.5-1-0.8
		c-0.2-0.3-0.3-0.7-0.3-1.1c0-0.7,0.3-1.3,0.9-1.8s1.3-0.7,2.2-0.7c1,0,1.7,0.2,2.3,0.7c0.6,0.5,0.9,1.1,0.9,1.9H251
		c0-0.4-0.2-0.7-0.5-1s-0.8-0.4-1.3-0.4c-0.5,0-0.9,0.1-1.2,0.3s-0.4,0.5-0.4,0.9c0,0.3,0.1,0.6,0.4,0.8c0.3,0.2,0.8,0.3,1.5,0.5
		c0.7,0.2,1.3,0.4,1.8,0.6c0.4,0.2,0.8,0.5,1,0.8c0.2,0.3,0.3,0.7,0.3,1.2c0,0.8-0.3,1.4-0.9,1.8c-0.6,0.5-1.4,0.7-2.4,0.7
		c-0.7,0-1.3-0.1-1.8-0.4c-0.5-0.2-0.9-0.6-1.2-1c-0.3-0.4-0.4-0.9-0.4-1.4h1.4c0,0.5,0.2,0.9,0.6,1.2c0.4,0.3,0.8,0.4,1.4,0.4
		c0.5,0,1-0.1,1.3-0.3C250.9,458,251.1,457.7,251.1,457.3z"/>
	<path class="st3" d="M255.8,451.1l0,0.9c0.6-0.7,1.5-1.1,2.5-1.1c1.2,0,2,0.5,2.4,1.4c0.3-0.4,0.6-0.7,1.1-1c0.5-0.2,1-0.4,1.6-0.4
		c1.9,0,2.8,1,2.8,2.9v5.7h-1.4V454c0-0.6-0.1-1.1-0.4-1.4c-0.3-0.3-0.7-0.4-1.4-0.4c-0.5,0-1,0.2-1.3,0.5c-0.4,0.3-0.6,0.8-0.6,1.3
		v5.6h-1.5V454c0-1.2-0.6-1.8-1.8-1.8c-0.9,0-1.6,0.4-1.9,1.2v6.2h-1.4v-8.5H255.8z"/>
	<path class="st3" d="M268.5,448.9c0-0.2,0.1-0.4,0.2-0.6c0.1-0.2,0.4-0.2,0.6-0.2s0.5,0.1,0.6,0.2c0.1,0.2,0.2,0.4,0.2,0.6
		s-0.1,0.4-0.2,0.6c-0.1,0.2-0.4,0.2-0.6,0.2s-0.5-0.1-0.6-0.2C268.5,449.3,268.5,449.1,268.5,448.9z M270,459.6h-1.4v-8.5h1.4
		V459.6z"/>
	<path class="st3" d="M273.7,451.1l0,1.1c0.6-0.8,1.5-1.2,2.5-1.2c1.8,0,2.7,1,2.7,3v5.6h-1.4V454c0-0.6-0.1-1.1-0.4-1.4
		s-0.7-0.4-1.3-0.4c-0.5,0-0.9,0.1-1.2,0.4c-0.4,0.2-0.6,0.6-0.8,1v6h-1.4v-8.5H273.7z"/>
	<path class="st3" d="M286.4,458.7c-0.6,0.7-1.4,1-2.5,1c-0.9,0-1.6-0.3-2.1-0.8c-0.5-0.5-0.7-1.3-0.7-2.3v-5.5h1.4v5.5
		c0,1.3,0.5,1.9,1.6,1.9c1.1,0,1.8-0.4,2.2-1.2v-6.1h1.4v8.5h-1.4L286.4,458.7z"/>
	<path class="st3" d="M290,448.9c0-0.2,0.1-0.4,0.2-0.6c0.1-0.2,0.4-0.2,0.6-0.2s0.5,0.1,0.6,0.2c0.1,0.2,0.2,0.4,0.2,0.6
		s-0.1,0.4-0.2,0.6c-0.1,0.2-0.4,0.2-0.6,0.2s-0.5-0.1-0.6-0.2C290.1,449.3,290,449.1,290,448.9z M291.5,459.6h-1.4v-8.5h1.4V459.6z
		"/>
	<path class="st3" d="M297.9,452.4c-0.2,0-0.5-0.1-0.7-0.1c-0.9,0-1.6,0.4-1.9,1.2v6h-1.4v-8.5h1.4l0,1c0.5-0.8,1.1-1.1,2-1.1
		c0.3,0,0.5,0,0.6,0.1V452.4z"/>
	<path class="st3" d="M305.2,449.1v2h1.6v1.1h-1.6v5.2c0,0.3,0.1,0.6,0.2,0.8c0.1,0.2,0.4,0.3,0.7,0.3c0.2,0,0.4,0,0.7-0.1v1.2
		c-0.4,0.1-0.8,0.2-1.1,0.2c-0.6,0-1.1-0.2-1.5-0.6s-0.5-0.9-0.5-1.7v-5.2h-1.5v-1.1h1.5v-2H305.2z"/>
	<path class="st3" d="M308.5,448.9c0-0.2,0.1-0.4,0.2-0.6c0.1-0.2,0.4-0.2,0.6-0.2s0.5,0.1,0.6,0.2c0.1,0.2,0.2,0.4,0.2,0.6
		s-0.1,0.4-0.2,0.6c-0.1,0.2-0.4,0.2-0.6,0.2s-0.5-0.1-0.6-0.2C308.5,449.3,308.5,449.1,308.5,448.9z M310,459.6h-1.4v-8.5h1.4
		V459.6z"/>
	<path class="st3" d="M315.9,459.7c-1.1,0-2.1-0.4-2.8-1.1s-1.1-1.8-1.1-3v-0.3c0-0.8,0.2-1.6,0.5-2.2s0.8-1.2,1.3-1.5
		c0.6-0.4,1.2-0.6,1.9-0.6c1.1,0,2,0.4,2.6,1.1s0.9,1.8,0.9,3.1v0.6h-5.7c0,0.8,0.3,1.5,0.7,2c0.5,0.5,1.1,0.8,1.8,0.8
		c0.5,0,0.9-0.1,1.3-0.3c0.4-0.2,0.7-0.5,0.9-0.8l0.9,0.7C318.3,459.2,317.3,459.7,315.9,459.7z M315.7,452.1
		c-0.6,0-1.1,0.2-1.5,0.6c-0.4,0.4-0.6,1-0.7,1.8h4.2v-0.1c0-0.7-0.2-1.3-0.6-1.7C316.8,452.3,316.3,452.1,315.7,452.1z"/>
	<path class="st3" d="M322.2,451.1l0,0.9c0.6-0.7,1.5-1.1,2.5-1.1c1.2,0,2,0.5,2.4,1.4c0.3-0.4,0.6-0.7,1.1-1c0.5-0.2,1-0.4,1.6-0.4
		c1.9,0,2.8,1,2.8,2.9v5.7h-1.4V454c0-0.6-0.1-1.1-0.4-1.4c-0.3-0.3-0.7-0.4-1.4-0.4c-0.5,0-1,0.2-1.3,0.5c-0.4,0.3-0.6,0.8-0.6,1.3
		v5.6H326V454c0-1.2-0.6-1.8-1.8-1.8c-0.9,0-1.6,0.4-1.9,1.2v6.2h-1.4v-8.5H322.2z"/>
	<path class="st3" d="M342,455.4c0,1.3-0.3,2.3-0.9,3.1c-0.6,0.8-1.4,1.2-2.4,1.2c-1,0-1.8-0.3-2.4-1v4.1h-1.4v-11.7h1.3l0.1,0.9
		c0.6-0.7,1.4-1.1,2.5-1.1c1,0,1.8,0.4,2.4,1.1c0.6,0.8,0.9,1.8,0.9,3.2V455.4z M340.5,455.3c0-1-0.2-1.7-0.6-2.3s-1-0.8-1.7-0.8
		c-0.9,0-1.5,0.4-2,1.2v4c0.4,0.8,1.1,1.2,2,1.2c0.7,0,1.2-0.3,1.7-0.8C340.3,457.2,340.5,456.3,340.5,455.3z"/>
	<path class="st3" d="M343.4,455.3c0-0.8,0.2-1.6,0.5-2.2c0.3-0.7,0.8-1.2,1.4-1.5c0.6-0.4,1.2-0.5,2-0.5c1.2,0,2.1,0.4,2.8,1.2
		s1.1,1.9,1.1,3.2v0.1c0,0.8-0.2,1.6-0.5,2.2c-0.3,0.7-0.8,1.2-1.4,1.5s-1.3,0.5-2,0.5c-1.1,0-2.1-0.4-2.8-1.2s-1.1-1.9-1.1-3.2
		V455.3z M344.9,455.4c0,0.9,0.2,1.7,0.7,2.3c0.4,0.6,1,0.9,1.7,0.9c0.7,0,1.3-0.3,1.8-0.9c0.4-0.6,0.6-1.4,0.6-2.4
		c0-0.9-0.2-1.7-0.7-2.3c-0.4-0.6-1-0.9-1.8-0.9c-0.7,0-1.3,0.3-1.7,0.9S344.9,454.4,344.9,455.4z"/>
	<path class="st3" d="M357.9,457.3c0-0.4-0.1-0.7-0.4-0.9c-0.3-0.2-0.8-0.4-1.5-0.6c-0.7-0.2-1.3-0.3-1.7-0.6s-0.7-0.5-1-0.8
		c-0.2-0.3-0.3-0.7-0.3-1.1c0-0.7,0.3-1.3,0.9-1.8s1.3-0.7,2.2-0.7c1,0,1.7,0.2,2.3,0.7c0.6,0.5,0.9,1.1,0.9,1.9h-1.5
		c0-0.4-0.2-0.7-0.5-1s-0.8-0.4-1.3-0.4c-0.5,0-0.9,0.1-1.2,0.3s-0.4,0.5-0.4,0.9c0,0.3,0.1,0.6,0.4,0.8c0.3,0.2,0.8,0.3,1.5,0.5
		c0.7,0.2,1.3,0.4,1.8,0.6c0.4,0.2,0.8,0.5,1,0.8c0.2,0.3,0.3,0.7,0.3,1.2c0,0.8-0.3,1.4-0.9,1.8c-0.6,0.5-1.4,0.7-2.4,0.7
		c-0.7,0-1.3-0.1-1.8-0.4c-0.5-0.2-0.9-0.6-1.2-1c-0.3-0.4-0.4-0.9-0.4-1.4h1.4c0,0.5,0.2,0.9,0.6,1.2c0.4,0.3,0.8,0.4,1.4,0.4
		c0.5,0,1-0.1,1.3-0.3C357.7,458,357.9,457.7,357.9,457.3z"/>
</g>
<g class="st1">
	<path class="st3" d="M266.4,477.3c0-1.3,0.3-2.3,0.9-3.1c0.6-0.8,1.4-1.2,2.4-1.2c1,0,1.8,0.3,2.4,1v-4.4h1.4v12h-1.3l-0.1-0.9
		c-0.6,0.7-1.4,1.1-2.4,1.1c-1,0-1.8-0.4-2.4-1.2s-0.9-1.8-0.9-3.1V477.3z M267.8,477.4c0,1,0.2,1.7,0.6,2.2
		c0.4,0.5,0.9,0.8,1.6,0.8c0.9,0,1.6-0.4,2-1.2v-3.9c-0.4-0.8-1.1-1.2-2-1.2c-0.7,0-1.3,0.3-1.7,0.8
		C268,475.5,267.8,476.3,267.8,477.4z"/>
	<path class="st3" d="M279.2,481.7c-1.1,0-2.1-0.4-2.8-1.1s-1.1-1.8-1.1-3v-0.3c0-0.8,0.2-1.6,0.5-2.2s0.8-1.2,1.3-1.5
		c0.6-0.4,1.2-0.6,1.9-0.6c1.1,0,2,0.4,2.6,1.1s0.9,1.8,0.9,3.1v0.6h-5.7c0,0.8,0.3,1.5,0.7,2c0.5,0.5,1.1,0.8,1.8,0.8
		c0.5,0,0.9-0.1,1.3-0.3c0.4-0.2,0.7-0.5,0.9-0.8l0.9,0.7C281.7,481.2,280.7,481.7,279.2,481.7z M279.1,474.1
		c-0.6,0-1.1,0.2-1.5,0.6c-0.4,0.4-0.6,1-0.7,1.8h4.2v-0.1c0-0.7-0.2-1.3-0.6-1.7C280.1,474.3,279.7,474.1,279.1,474.1z"/>
	<path class="st3" d="M288.9,481.6v-7.3h-1.3v-1.1h1.3v-0.9c0-0.9,0.2-1.6,0.7-2.1s1.2-0.7,2.1-0.7c0.3,0,0.7,0,1,0.1l-0.1,1.2
		c-0.2,0-0.5-0.1-0.8-0.1c-0.5,0-0.8,0.1-1.1,0.4c-0.3,0.3-0.4,0.7-0.4,1.2v0.9h1.8v1.1h-1.8v7.3H288.9z"/>
	<path class="st3" d="M293.3,477.3c0-0.8,0.2-1.6,0.5-2.2c0.3-0.7,0.8-1.2,1.4-1.5c0.6-0.4,1.2-0.5,2-0.5c1.2,0,2.1,0.4,2.8,1.2
		s1.1,1.9,1.1,3.2v0.1c0,0.8-0.2,1.6-0.5,2.2c-0.3,0.7-0.8,1.2-1.4,1.5s-1.3,0.5-2,0.5c-1.1,0-2.1-0.4-2.8-1.2s-1.1-1.9-1.1-3.2
		V477.3z M294.8,477.4c0,0.9,0.2,1.7,0.7,2.3c0.4,0.6,1,0.9,1.7,0.9c0.7,0,1.3-0.3,1.8-0.9c0.4-0.6,0.6-1.4,0.6-2.4
		c0-0.9-0.2-1.7-0.7-2.3c-0.4-0.6-1-0.9-1.8-0.9c-0.7,0-1.3,0.3-1.7,0.9S294.8,476.4,294.8,477.4z"/>
	<path class="st3" d="M306.9,474.4c-0.2,0-0.5-0.1-0.7-0.1c-0.9,0-1.6,0.4-1.9,1.2v6h-1.4v-8.5h1.4l0,1c0.5-0.8,1.1-1.1,2-1.1
		c0.3,0,0.5,0,0.6,0.1V474.4z"/>
	<path class="st3" d="M309.6,473.1l0,0.9c0.6-0.7,1.5-1.1,2.5-1.1c1.2,0,2,0.5,2.4,1.4c0.3-0.4,0.6-0.7,1.1-1c0.5-0.2,1-0.4,1.6-0.4
		c1.9,0,2.8,1,2.8,2.9v5.7h-1.4V476c0-0.6-0.1-1.1-0.4-1.4c-0.3-0.3-0.7-0.4-1.4-0.4c-0.5,0-1,0.2-1.3,0.5c-0.4,0.3-0.6,0.8-0.6,1.3
		v5.6h-1.5V476c0-1.2-0.6-1.8-1.8-1.8c-0.9,0-1.6,0.4-1.9,1.2v6.2h-1.4v-8.5H309.6z"/>
	<path class="st3" d="M327.5,481.6c-0.1-0.2-0.2-0.5-0.2-0.9c-0.7,0.7-1.5,1-2.4,1c-0.8,0-1.5-0.2-2.1-0.7c-0.5-0.5-0.8-1.1-0.8-1.8
		c0-0.9,0.3-1.6,1-2.1c0.7-0.5,1.6-0.7,2.8-0.7h1.4v-0.7c0-0.5-0.2-0.9-0.5-1.2c-0.3-0.3-0.7-0.4-1.3-0.4c-0.5,0-0.9,0.1-1.3,0.4
		c-0.3,0.3-0.5,0.6-0.5,0.9h-1.5c0-0.4,0.1-0.8,0.4-1.2c0.3-0.4,0.7-0.7,1.2-0.9c0.5-0.2,1.1-0.3,1.7-0.3c1,0,1.7,0.2,2.3,0.7
		c0.6,0.5,0.8,1.2,0.9,2v3.9c0,0.8,0.1,1.4,0.3,1.9v0.1H327.5z M325.1,480.5c0.5,0,0.9-0.1,1.3-0.4s0.7-0.5,0.9-0.9v-1.7h-1.1
		c-1.8,0-2.7,0.5-2.7,1.6c0,0.5,0.2,0.8,0.5,1.1C324.2,480.3,324.6,480.5,325.1,480.5z"/>
	<path class="st3" d="M334.4,480.5c0.5,0,1-0.2,1.4-0.5c0.4-0.3,0.6-0.7,0.6-1.2h1.4c0,0.5-0.2,0.9-0.5,1.4c-0.3,0.4-0.7,0.8-1.2,1
		c-0.5,0.3-1.1,0.4-1.6,0.4c-1.2,0-2.1-0.4-2.7-1.2s-1-1.8-1-3.2v-0.2c0-0.8,0.2-1.6,0.5-2.2c0.3-0.6,0.7-1.1,1.3-1.5
		c0.6-0.4,1.2-0.5,2-0.5c0.9,0,1.7,0.3,2.4,0.9c0.6,0.6,1,1.3,1,2.2h-1.4c0-0.5-0.2-1-0.6-1.3c-0.4-0.4-0.8-0.5-1.4-0.5
		c-0.7,0-1.3,0.3-1.7,0.8c-0.4,0.5-0.6,1.3-0.6,2.3v0.3c0,1,0.2,1.7,0.6,2.2C333.1,480.3,333.6,480.5,334.4,480.5z"/>
	<path class="st3" d="M339.4,470.9c0-0.2,0.1-0.4,0.2-0.6c0.1-0.2,0.4-0.2,0.6-0.2s0.5,0.1,0.6,0.2c0.1,0.2,0.2,0.4,0.2,0.6
		s-0.1,0.4-0.2,0.6c-0.1,0.2-0.4,0.2-0.6,0.2s-0.5-0.1-0.6-0.2C339.4,471.3,339.4,471.1,339.4,470.9z M340.9,481.6h-1.4v-8.5h1.4
		V481.6z"/>
	<path class="st3" d="M342.9,477.3c0-0.8,0.2-1.6,0.5-2.2c0.3-0.7,0.8-1.2,1.4-1.5c0.6-0.4,1.2-0.5,2-0.5c1.2,0,2.1,0.4,2.8,1.2
		s1.1,1.9,1.1,3.2v0.1c0,0.8-0.2,1.6-0.5,2.2c-0.3,0.7-0.8,1.2-1.4,1.5s-1.3,0.5-2,0.5c-1.1,0-2.1-0.4-2.8-1.2s-1.1-1.9-1.1-3.2
		V477.3z M344.3,477.4c0,0.9,0.2,1.7,0.7,2.3c0.4,0.6,1,0.9,1.7,0.9c0.7,0,1.3-0.3,1.8-0.9c0.4-0.6,0.6-1.4,0.6-2.4
		c0-0.9-0.2-1.7-0.7-2.3c-0.4-0.6-1-0.9-1.8-0.9c-0.7,0-1.3,0.3-1.7,0.9S344.3,476.4,344.3,477.4z M347.4,469.6h1.8l-2.1,2.3l-1.2,0
		L347.4,469.6z"/>
	<path class="st3" d="M353.7,473.1l0,1.1c0.6-0.8,1.5-1.2,2.5-1.2c1.8,0,2.7,1,2.7,3v5.6h-1.4V476c0-0.6-0.1-1.1-0.4-1.4
		s-0.7-0.4-1.3-0.4c-0.5,0-0.9,0.1-1.2,0.4c-0.4,0.2-0.6,0.6-0.8,1v6h-1.4v-8.5H353.7z"/>
</g>
<g class="st1">
	<path class="st3" d="M263.7,504.5h-1.2l4.8-12.4h1.2L263.7,504.5z"/>
	<path class="st3" d="M273.4,502.5c0.5,0,1-0.2,1.4-0.5c0.4-0.3,0.6-0.7,0.6-1.2h1.4c0,0.5-0.2,0.9-0.5,1.4c-0.3,0.4-0.7,0.8-1.2,1
		c-0.5,0.3-1.1,0.4-1.6,0.4c-1.2,0-2.1-0.4-2.7-1.2s-1-1.8-1-3.2v-0.2c0-0.8,0.2-1.6,0.5-2.2c0.3-0.6,0.7-1.1,1.3-1.5
		c0.6-0.4,1.2-0.5,2-0.5c0.9,0,1.7,0.3,2.4,0.9c0.6,0.6,1,1.3,1,2.2h-1.4c0-0.5-0.2-1-0.6-1.3c-0.4-0.4-0.8-0.5-1.4-0.5
		c-0.7,0-1.3,0.3-1.7,0.8c-0.4,0.5-0.6,1.3-0.6,2.3v0.3c0,1,0.2,1.7,0.6,2.2C272.1,502.3,272.7,502.5,273.4,502.5z"/>
	<path class="st3" d="M283.6,503.6c-0.1-0.2-0.2-0.5-0.2-0.9c-0.7,0.7-1.5,1-2.4,1c-0.8,0-1.5-0.2-2.1-0.7c-0.5-0.5-0.8-1.1-0.8-1.8
		c0-0.9,0.3-1.6,1-2.1c0.7-0.5,1.6-0.7,2.8-0.7h1.4v-0.7c0-0.5-0.2-0.9-0.5-1.2c-0.3-0.3-0.7-0.4-1.3-0.4c-0.5,0-0.9,0.1-1.3,0.4
		c-0.3,0.3-0.5,0.6-0.5,0.9h-1.5c0-0.4,0.1-0.8,0.4-1.2c0.3-0.4,0.7-0.7,1.2-0.9c0.5-0.2,1.1-0.3,1.7-0.3c1,0,1.7,0.2,2.3,0.7
		c0.6,0.5,0.8,1.2,0.9,2v3.9c0,0.8,0.1,1.4,0.3,1.9v0.1H283.6z M281.2,502.5c0.5,0,0.9-0.1,1.3-0.4s0.7-0.5,0.9-0.9v-1.7h-1.1
		c-1.8,0-2.7,0.5-2.7,1.6c0,0.5,0.2,0.8,0.5,1.1C280.4,502.3,280.8,502.5,281.2,502.5z"/>
	<path class="st3" d="M294.3,499.4c0,1.3-0.3,2.3-0.9,3.1c-0.6,0.8-1.4,1.2-2.4,1.2c-1,0-1.8-0.3-2.4-1v4.1h-1.4v-11.7h1.3l0.1,0.9
		c0.6-0.7,1.4-1.1,2.5-1.1c1,0,1.8,0.4,2.4,1.1c0.6,0.8,0.9,1.8,0.9,3.2V499.4z M292.8,499.3c0-1-0.2-1.7-0.6-2.3s-1-0.8-1.7-0.8
		c-0.9,0-1.5,0.4-2,1.2v4c0.4,0.8,1.1,1.2,2,1.2c0.7,0,1.2-0.3,1.7-0.8C292.6,501.2,292.8,500.3,292.8,499.3z"/>
	<path class="st3" d="M301.3,503.6c-0.1-0.2-0.2-0.5-0.2-0.9c-0.7,0.7-1.5,1-2.4,1c-0.8,0-1.5-0.2-2.1-0.7c-0.5-0.5-0.8-1.1-0.8-1.8
		c0-0.9,0.3-1.6,1-2.1c0.7-0.5,1.6-0.7,2.8-0.7h1.4v-0.7c0-0.5-0.2-0.9-0.5-1.2c-0.3-0.3-0.7-0.4-1.3-0.4c-0.5,0-0.9,0.1-1.3,0.4
		c-0.3,0.3-0.5,0.6-0.5,0.9H296c0-0.4,0.1-0.8,0.4-1.2c0.3-0.4,0.7-0.7,1.2-0.9c0.5-0.2,1.1-0.3,1.7-0.3c1,0,1.7,0.2,2.3,0.7
		c0.6,0.5,0.8,1.2,0.9,2v3.9c0,0.8,0.1,1.4,0.3,1.9v0.1H301.3z M298.9,502.5c0.5,0,0.9-0.1,1.3-0.4s0.7-0.5,0.9-0.9v-1.7H300
		c-1.8,0-2.7,0.5-2.7,1.6c0,0.5,0.2,0.8,0.5,1.1C298.1,502.3,298.4,502.5,298.9,502.5z"/>
	<path class="st3" d="M308.2,502.5c0.5,0,1-0.2,1.4-0.5c0.4-0.3,0.6-0.7,0.6-1.2h1.4c0,0.5-0.2,0.9-0.5,1.4c-0.3,0.4-0.7,0.8-1.2,1
		c-0.5,0.3-1.1,0.4-1.6,0.4c-1.2,0-2.1-0.4-2.7-1.2s-1-1.8-1-3.2v-0.2c0-0.8,0.2-1.6,0.5-2.2c0.3-0.6,0.7-1.1,1.3-1.5
		c0.6-0.4,1.2-0.5,2-0.5c0.9,0,1.7,0.3,2.4,0.9c0.6,0.6,1,1.3,1,2.2h-1.4c0-0.5-0.2-1-0.6-1.3c-0.4-0.4-0.8-0.5-1.4-0.5
		c-0.7,0-1.3,0.3-1.7,0.8c-0.4,0.5-0.6,1.3-0.6,2.3v0.3c0,1,0.2,1.7,0.6,2.2C306.9,502.3,307.4,502.5,308.2,502.5z"/>
	<path class="st3" d="M313.2,492.9c0-0.2,0.1-0.4,0.2-0.6c0.1-0.2,0.4-0.2,0.6-0.2s0.5,0.1,0.6,0.2c0.1,0.2,0.2,0.4,0.2,0.6
		s-0.1,0.4-0.2,0.6c-0.1,0.2-0.4,0.2-0.6,0.2s-0.5-0.1-0.6-0.2C313.3,493.3,313.2,493.1,313.2,492.9z M314.7,503.6h-1.4v-8.5h1.4
		V503.6z"/>
	<path class="st3" d="M319,493.1v2h1.6v1.1H319v5.2c0,0.3,0.1,0.6,0.2,0.8c0.1,0.2,0.4,0.3,0.7,0.3c0.2,0,0.4,0,0.7-0.1v1.2
		c-0.4,0.1-0.8,0.2-1.1,0.2c-0.6,0-1.1-0.2-1.5-0.6s-0.5-0.9-0.5-1.7v-5.2H316v-1.1h1.5v-2H319z"/>
	<path class="st3" d="M327.5,503.6c-0.1-0.2-0.2-0.5-0.2-0.9c-0.7,0.7-1.5,1-2.4,1c-0.8,0-1.5-0.2-2.1-0.7c-0.5-0.5-0.8-1.1-0.8-1.8
		c0-0.9,0.3-1.6,1-2.1c0.7-0.5,1.6-0.7,2.8-0.7h1.4v-0.7c0-0.5-0.2-0.9-0.5-1.2c-0.3-0.3-0.7-0.4-1.3-0.4c-0.5,0-0.9,0.1-1.3,0.4
		c-0.3,0.3-0.5,0.6-0.5,0.9h-1.5c0-0.4,0.1-0.8,0.4-1.2c0.3-0.4,0.7-0.7,1.2-0.9c0.5-0.2,1.1-0.3,1.7-0.3c1,0,1.7,0.2,2.3,0.7
		c0.6,0.5,0.8,1.2,0.9,2v3.9c0,0.8,0.1,1.4,0.3,1.9v0.1H327.5z M325.1,502.5c0.5,0,0.9-0.1,1.3-0.4s0.7-0.5,0.9-0.9v-1.7h-1.1
		c-1.8,0-2.7,0.5-2.7,1.6c0,0.5,0.2,0.8,0.5,1.1C324.2,502.3,324.6,502.5,325.1,502.5z"/>
	<path class="st3" d="M334.4,502.5c0.5,0,1-0.2,1.4-0.5c0.4-0.3,0.6-0.7,0.6-1.2h1.4c0,0.5-0.2,0.9-0.5,1.4c-0.3,0.4-0.7,0.8-1.2,1
		c-0.5,0.3-1.1,0.4-1.6,0.4c-1.2,0-2.1-0.4-2.7-1.2s-1-1.8-1-3.2v-0.2c0-0.8,0.2-1.6,0.5-2.2c0.3-0.6,0.7-1.1,1.3-1.5
		c0.6-0.4,1.2-0.5,2-0.5c0.9,0,1.7,0.3,2.4,0.9c0.6,0.6,1,1.3,1,2.2h-1.4c0-0.5-0.2-1-0.6-1.3c-0.4-0.4-0.8-0.5-1.4-0.5
		c-0.7,0-1.3,0.3-1.7,0.8c-0.4,0.5-0.6,1.3-0.6,2.3v0.3c0,1,0.2,1.7,0.6,2.2C333.1,502.3,333.6,502.5,334.4,502.5z"/>
	<path class="st3" d="M339.4,492.9c0-0.2,0.1-0.4,0.2-0.6c0.1-0.2,0.4-0.2,0.6-0.2s0.5,0.1,0.6,0.2c0.1,0.2,0.2,0.4,0.2,0.6
		s-0.1,0.4-0.2,0.6c-0.1,0.2-0.4,0.2-0.6,0.2s-0.5-0.1-0.6-0.2C339.4,493.3,339.4,493.1,339.4,492.9z M340.9,503.6h-1.4v-8.5h1.4
		V503.6z"/>
	<path class="st3" d="M342.9,499.3c0-0.8,0.2-1.6,0.5-2.2c0.3-0.7,0.8-1.2,1.4-1.5c0.6-0.4,1.2-0.5,2-0.5c1.2,0,2.1,0.4,2.8,1.2
		s1.1,1.9,1.1,3.2v0.1c0,0.8-0.2,1.6-0.5,2.2c-0.3,0.7-0.8,1.2-1.4,1.5s-1.3,0.5-2,0.5c-1.1,0-2.1-0.4-2.8-1.2s-1.1-1.9-1.1-3.2
		V499.3z M344.3,499.4c0,0.9,0.2,1.7,0.7,2.3c0.4,0.6,1,0.9,1.7,0.9c0.7,0,1.3-0.3,1.8-0.9c0.4-0.6,0.6-1.4,0.6-2.4
		c0-0.9-0.2-1.7-0.7-2.3c-0.4-0.6-1-0.9-1.8-0.9c-0.7,0-1.3,0.3-1.7,0.9S344.3,498.4,344.3,499.4z M347.4,491.6h1.8l-2.1,2.3l-1.2,0
		L347.4,491.6z"/>
	<path class="st3" d="M353.7,495.1l0,1.1c0.6-0.8,1.5-1.2,2.5-1.2c1.8,0,2.7,1,2.7,3v5.6h-1.4V498c0-0.6-0.1-1.1-0.4-1.4
		s-0.7-0.4-1.3-0.4c-0.5,0-0.9,0.1-1.2,0.4c-0.4,0.2-0.6,0.6-0.8,1v6h-1.4v-8.5H353.7z"/>
</g>
<g class="st1">
	<path class="st3" d="M197.3,237h-4.9v4h5.7v1.2h-7.2v-11.4h7.1v1.2h-5.6v3.7h4.9V237z"/>
	<path class="st3" d="M201.3,242.3h-1.4v-12h1.4V242.3z"/>
	<path class="st3" d="M203.6,231.6c0-0.2,0.1-0.4,0.2-0.6c0.1-0.2,0.4-0.2,0.6-0.2s0.5,0.1,0.6,0.2c0.1,0.2,0.2,0.4,0.2,0.6
		s-0.1,0.4-0.2,0.6c-0.1,0.2-0.4,0.2-0.6,0.2s-0.5-0.1-0.6-0.2C203.7,232,203.6,231.8,203.6,231.6z M205.2,242.3h-1.4v-8.5h1.4
		V242.3z"/>
	<path class="st3" d="M208.9,233.8l0,0.9c0.6-0.7,1.5-1.1,2.5-1.1c1.2,0,2,0.5,2.4,1.4c0.3-0.4,0.6-0.7,1.1-1c0.5-0.2,1-0.4,1.6-0.4
		c1.9,0,2.8,1,2.8,2.9v5.7h-1.4v-5.6c0-0.6-0.1-1.1-0.4-1.4c-0.3-0.3-0.7-0.4-1.4-0.4c-0.5,0-1,0.2-1.3,0.5
		c-0.4,0.3-0.6,0.8-0.6,1.3v5.6h-1.5v-5.5c0-1.2-0.6-1.8-1.8-1.8c-0.9,0-1.6,0.4-1.9,1.2v6.2h-1.4v-8.5H208.9z"/>
	<path class="st3" d="M221.5,231.6c0-0.2,0.1-0.4,0.2-0.6c0.1-0.2,0.4-0.2,0.6-0.2s0.5,0.1,0.6,0.2c0.1,0.2,0.2,0.4,0.2,0.6
		s-0.1,0.4-0.2,0.6c-0.1,0.2-0.4,0.2-0.6,0.2s-0.5-0.1-0.6-0.2C221.6,232,221.5,231.8,221.5,231.6z M223.1,242.3h-1.4v-8.5h1.4
		V242.3z"/>
	<path class="st3" d="M226.8,233.8l0,1.1c0.6-0.8,1.5-1.2,2.5-1.2c1.8,0,2.7,1,2.7,3v5.6h-1.4v-5.6c0-0.6-0.1-1.1-0.4-1.4
		s-0.7-0.4-1.3-0.4c-0.5,0-0.9,0.1-1.2,0.4c-0.4,0.2-0.6,0.6-0.8,1v6h-1.4v-8.5H226.8z"/>
	<path class="st3" d="M239.5,242.3c-0.1-0.2-0.2-0.5-0.2-0.9c-0.7,0.7-1.5,1-2.4,1c-0.8,0-1.5-0.2-2.1-0.7c-0.5-0.5-0.8-1.1-0.8-1.8
		c0-0.9,0.3-1.6,1-2.1c0.7-0.5,1.6-0.7,2.8-0.7h1.4v-0.7c0-0.5-0.2-0.9-0.5-1.2c-0.3-0.3-0.7-0.4-1.3-0.4c-0.5,0-0.9,0.1-1.3,0.4
		c-0.3,0.3-0.5,0.6-0.5,0.9h-1.5c0-0.4,0.1-0.8,0.4-1.2c0.3-0.4,0.7-0.7,1.2-0.9c0.5-0.2,1.1-0.3,1.7-0.3c1,0,1.7,0.2,2.3,0.7
		c0.6,0.5,0.8,1.2,0.9,2v3.9c0,0.8,0.1,1.4,0.3,1.9v0.1H239.5z M237.1,241.2c0.5,0,0.9-0.1,1.3-0.4s0.7-0.5,0.9-0.9v-1.7h-1.1
		c-1.8,0-2.7,0.5-2.7,1.6c0,0.5,0.2,0.8,0.5,1.1C236.2,241.1,236.6,241.2,237.1,241.2z"/>
	<path class="st3" d="M246.3,241.3c0.5,0,1-0.2,1.4-0.5c0.4-0.3,0.6-0.7,0.6-1.2h1.4c0,0.5-0.2,0.9-0.5,1.4c-0.3,0.4-0.7,0.8-1.2,1
		c-0.5,0.3-1.1,0.4-1.6,0.4c-1.2,0-2.1-0.4-2.7-1.2s-1-1.8-1-3.2v-0.2c0-0.8,0.2-1.6,0.5-2.2c0.3-0.6,0.7-1.1,1.3-1.5
		c0.6-0.4,1.2-0.5,2-0.5c0.9,0,1.7,0.3,2.4,0.9c0.6,0.6,1,1.3,1,2.2h-1.4c0-0.5-0.2-1-0.6-1.3c-0.4-0.4-0.8-0.5-1.4-0.5
		c-0.7,0-1.3,0.3-1.7,0.8c-0.4,0.5-0.6,1.3-0.6,2.3v0.3c0,1,0.2,1.7,0.6,2.2C245,241,245.6,241.3,246.3,241.3z"/>
	<path class="st3" d="M251.3,231.6c0-0.2,0.1-0.4,0.2-0.6c0.1-0.2,0.4-0.2,0.6-0.2s0.5,0.1,0.6,0.2c0.1,0.2,0.2,0.4,0.2,0.6
		s-0.1,0.4-0.2,0.6c-0.1,0.2-0.4,0.2-0.6,0.2s-0.5-0.1-0.6-0.2C251.4,232,251.3,231.8,251.3,231.6z M252.9,242.3h-1.4v-8.5h1.4
		V242.3z"/>
	<path class="st3" d="M254.8,238c0-0.8,0.2-1.6,0.5-2.2c0.3-0.7,0.8-1.2,1.4-1.5c0.6-0.4,1.2-0.5,2-0.5c1.2,0,2.1,0.4,2.8,1.2
		s1.1,1.9,1.1,3.2v0.1c0,0.8-0.2,1.6-0.5,2.2c-0.3,0.7-0.8,1.2-1.4,1.5s-1.3,0.5-2,0.5c-1.1,0-2.1-0.4-2.8-1.2s-1.1-1.9-1.1-3.2V238
		z M256.3,238.2c0,0.9,0.2,1.7,0.7,2.3c0.4,0.6,1,0.9,1.7,0.9c0.7,0,1.3-0.3,1.8-0.9c0.4-0.6,0.6-1.4,0.6-2.4c0-0.9-0.2-1.7-0.7-2.3
		c-0.4-0.6-1-0.9-1.8-0.9c-0.7,0-1.3,0.3-1.7,0.9S256.3,237.1,256.3,238.2z M259.3,230.3h1.8l-2.1,2.3l-1.2,0L259.3,230.3z"/>
	<path class="st3" d="M265.7,233.8l0,1.1c0.6-0.8,1.5-1.2,2.5-1.2c1.8,0,2.7,1,2.7,3v5.6h-1.4v-5.6c0-0.6-0.1-1.1-0.4-1.4
		s-0.7-0.4-1.3-0.4c-0.5,0-0.9,0.1-1.2,0.4c-0.4,0.2-0.6,0.6-0.8,1v6h-1.4v-8.5H265.7z"/>
	<path class="st3" d="M276.8,238c0-1.3,0.3-2.3,0.9-3.1c0.6-0.8,1.4-1.2,2.4-1.2c1,0,1.8,0.3,2.4,1v-4.4h1.4v12h-1.3l-0.1-0.9
		c-0.6,0.7-1.4,1.1-2.4,1.1c-1,0-1.8-0.4-2.4-1.2s-0.9-1.8-0.9-3.1V238z M278.2,238.2c0,1,0.2,1.7,0.6,2.2c0.4,0.5,0.9,0.8,1.6,0.8
		c0.9,0,1.6-0.4,2-1.2v-3.9c-0.4-0.8-1.1-1.2-2-1.2c-0.7,0-1.3,0.3-1.7,0.8C278.4,236.3,278.2,237.1,278.2,238.2z"/>
	<path class="st3" d="M289.7,242.5c-1.1,0-2.1-0.4-2.8-1.1s-1.1-1.8-1.1-3V238c0-0.8,0.2-1.6,0.5-2.2s0.8-1.2,1.3-1.5
		c0.6-0.4,1.2-0.6,1.9-0.6c1.1,0,2,0.4,2.6,1.1s0.9,1.8,0.9,3.1v0.6h-5.7c0,0.8,0.3,1.5,0.7,2c0.5,0.5,1.1,0.8,1.8,0.8
		c0.5,0,0.9-0.1,1.3-0.3c0.4-0.2,0.7-0.5,0.9-0.8l0.9,0.7C292.1,241.9,291.1,242.5,289.7,242.5z M289.5,234.9
		c-0.6,0-1.1,0.2-1.5,0.6c-0.4,0.4-0.6,1-0.7,1.8h4.2v-0.1c0-0.7-0.2-1.3-0.6-1.7C290.6,235.1,290.1,234.9,289.5,234.9z"/>
</g>
<g class="st1">
	<path class="st3" d="M196.8,263.3c0.5,0,1-0.2,1.4-0.5c0.4-0.3,0.6-0.7,0.6-1.2h1.4c0,0.5-0.2,0.9-0.5,1.4c-0.3,0.4-0.7,0.8-1.2,1
		c-0.5,0.3-1.1,0.4-1.6,0.4c-1.2,0-2.1-0.4-2.7-1.2s-1-1.8-1-3.2v-0.2c0-0.8,0.2-1.6,0.5-2.2c0.3-0.6,0.7-1.1,1.3-1.5
		c0.6-0.4,1.2-0.5,2-0.5c0.9,0,1.7,0.3,2.4,0.9c0.6,0.6,1,1.3,1,2.2h-1.4c0-0.5-0.2-1-0.6-1.3c-0.4-0.4-0.8-0.5-1.4-0.5
		c-0.7,0-1.3,0.3-1.7,0.8c-0.4,0.5-0.6,1.3-0.6,2.3v0.3c0,1,0.2,1.7,0.6,2.2C195.4,263,196,263.3,196.8,263.3z"/>
	<path class="st3" d="M201.4,260c0-0.8,0.2-1.6,0.5-2.2c0.3-0.7,0.8-1.2,1.4-1.5c0.6-0.4,1.2-0.5,2-0.5c1.2,0,2.1,0.4,2.8,1.2
		s1.1,1.9,1.1,3.2v0.1c0,0.8-0.2,1.6-0.5,2.2c-0.3,0.7-0.8,1.2-1.4,1.5s-1.3,0.5-2,0.5c-1.1,0-2.1-0.4-2.8-1.2s-1.1-1.9-1.1-3.2V260
		z M202.8,260.2c0,0.9,0.2,1.7,0.7,2.3c0.4,0.6,1,0.9,1.7,0.9c0.7,0,1.3-0.3,1.8-0.9c0.4-0.6,0.6-1.4,0.6-2.4c0-0.9-0.2-1.7-0.7-2.3
		c-0.4-0.6-1-0.9-1.8-0.9c-0.7,0-1.3,0.3-1.7,0.9S202.8,259.1,202.8,260.2z"/>
	<path class="st3" d="M212.2,255.8l0,1.1c0.6-0.8,1.5-1.2,2.5-1.2c1.8,0,2.7,1,2.7,3v5.6h-1.4v-5.6c0-0.6-0.1-1.1-0.4-1.4
		s-0.7-0.4-1.3-0.4c-0.5,0-0.9,0.1-1.2,0.4c-0.4,0.2-0.6,0.6-0.8,1v6h-1.4v-8.5H212.2z"/>
	<path class="st3" d="M223.1,263.3c0.5,0,1-0.2,1.4-0.5c0.4-0.3,0.6-0.7,0.6-1.2h1.4c0,0.5-0.2,0.9-0.5,1.4c-0.3,0.4-0.7,0.8-1.2,1
		c-0.5,0.3-1.1,0.4-1.6,0.4c-1.2,0-2.1-0.4-2.7-1.2s-1-1.8-1-3.2v-0.2c0-0.8,0.2-1.6,0.5-2.2c0.3-0.6,0.7-1.1,1.3-1.5
		c0.6-0.4,1.2-0.5,2-0.5c0.9,0,1.7,0.3,2.4,0.9c0.6,0.6,1,1.3,1,2.2h-1.4c0-0.5-0.2-1-0.6-1.3c-0.4-0.4-0.8-0.5-1.4-0.5
		c-0.7,0-1.3,0.3-1.7,0.8c-0.4,0.5-0.6,1.3-0.6,2.3v0.3c0,1,0.2,1.7,0.6,2.2C221.8,263,222.3,263.3,223.1,263.3z"/>
	<path class="st3" d="M231.6,264.5c-1.1,0-2.1-0.4-2.8-1.1s-1.1-1.8-1.1-3V260c0-0.8,0.2-1.6,0.5-2.2s0.8-1.2,1.3-1.5
		c0.6-0.4,1.2-0.6,1.9-0.6c1.1,0,2,0.4,2.6,1.1s0.9,1.8,0.9,3.1v0.6h-5.7c0,0.8,0.3,1.5,0.7,2c0.5,0.5,1.1,0.8,1.8,0.8
		c0.5,0,0.9-0.1,1.3-0.3c0.4-0.2,0.7-0.5,0.9-0.8l0.9,0.7C234.1,263.9,233,264.5,231.6,264.5z M231.4,256.9c-0.6,0-1.1,0.2-1.5,0.6
		c-0.4,0.4-0.6,1-0.7,1.8h4.2v-0.1c0-0.7-0.2-1.3-0.6-1.7C232.5,257.1,232,256.9,231.4,256.9z"/>
	<path class="st3" d="M237.9,255.8l0,1.1c0.6-0.8,1.5-1.2,2.5-1.2c1.8,0,2.7,1,2.7,3v5.6h-1.4v-5.6c0-0.6-0.1-1.1-0.4-1.4
		s-0.7-0.4-1.3-0.4c-0.5,0-0.9,0.1-1.2,0.4c-0.4,0.2-0.6,0.6-0.8,1v6h-1.4v-8.5H237.9z"/>
	<path class="st3" d="M247.3,253.8v2h1.6v1.1h-1.6v5.2c0,0.3,0.1,0.6,0.2,0.8c0.1,0.2,0.4,0.3,0.7,0.3c0.2,0,0.4,0,0.7-0.1v1.2
		c-0.4,0.1-0.8,0.2-1.1,0.2c-0.6,0-1.1-0.2-1.5-0.6s-0.5-0.9-0.5-1.7V257h-1.5v-1.1h1.5v-2H247.3z"/>
	<path class="st3" d="M254.7,257.1c-0.2,0-0.5-0.1-0.7-0.1c-0.9,0-1.6,0.4-1.9,1.2v6h-1.4v-8.5h1.4l0,1c0.5-0.8,1.1-1.1,2-1.1
		c0.3,0,0.5,0,0.6,0.1V257.1z"/>
	<path class="st3" d="M260.9,264.3c-0.1-0.2-0.2-0.5-0.2-0.9c-0.7,0.7-1.5,1-2.4,1c-0.8,0-1.5-0.2-2.1-0.7c-0.5-0.5-0.8-1.1-0.8-1.8
		c0-0.9,0.3-1.6,1-2.1c0.7-0.5,1.6-0.7,2.8-0.7h1.4v-0.7c0-0.5-0.2-0.9-0.5-1.2c-0.3-0.3-0.7-0.4-1.3-0.4c-0.5,0-0.9,0.1-1.3,0.4
		c-0.3,0.3-0.5,0.6-0.5,0.9h-1.5c0-0.4,0.1-0.8,0.4-1.2c0.3-0.4,0.7-0.7,1.2-0.9c0.5-0.2,1.1-0.3,1.7-0.3c1,0,1.7,0.2,2.3,0.7
		c0.6,0.5,0.8,1.2,0.9,2v3.9c0,0.8,0.1,1.4,0.3,1.9v0.1H260.9z M258.5,263.2c0.5,0,0.9-0.1,1.3-0.4s0.7-0.5,0.9-0.9v-1.7h-1.1
		c-1.8,0-2.7,0.5-2.7,1.6c0,0.5,0.2,0.8,0.5,1.1C257.7,263.1,258.1,263.2,258.5,263.2z"/>
	<path class="st3" d="M267.8,263.3c0.5,0,1-0.2,1.4-0.5c0.4-0.3,0.6-0.7,0.6-1.2h1.4c0,0.5-0.2,0.9-0.5,1.4c-0.3,0.4-0.7,0.8-1.2,1
		c-0.5,0.3-1.1,0.4-1.6,0.4c-1.2,0-2.1-0.4-2.7-1.2s-1-1.8-1-3.2v-0.2c0-0.8,0.2-1.6,0.5-2.2c0.3-0.6,0.7-1.1,1.3-1.5
		c0.6-0.4,1.2-0.5,2-0.5c0.9,0,1.7,0.3,2.4,0.9c0.6,0.6,1,1.3,1,2.2h-1.4c0-0.5-0.2-1-0.6-1.3c-0.4-0.4-0.8-0.5-1.4-0.5
		c-0.7,0-1.3,0.3-1.7,0.8c-0.4,0.5-0.6,1.3-0.6,2.3v0.3c0,1,0.2,1.7,0.6,2.2C266.5,263,267.1,263.3,267.8,263.3z"/>
	<path class="st3" d="M272.8,253.6c0-0.2,0.1-0.4,0.2-0.6c0.1-0.2,0.4-0.2,0.6-0.2s0.5,0.1,0.6,0.2c0.1,0.2,0.2,0.4,0.2,0.6
		s-0.1,0.4-0.2,0.6c-0.1,0.2-0.4,0.2-0.6,0.2s-0.5-0.1-0.6-0.2C272.9,254,272.8,253.8,272.8,253.6z M274.4,264.3h-1.4v-8.5h1.4
		V264.3z"/>
	<path class="st3" d="M276.3,260c0-0.8,0.2-1.6,0.5-2.2c0.3-0.7,0.8-1.2,1.4-1.5c0.6-0.4,1.2-0.5,2-0.5c1.2,0,2.1,0.4,2.8,1.2
		s1.1,1.9,1.1,3.2v0.1c0,0.8-0.2,1.6-0.5,2.2c-0.3,0.7-0.8,1.2-1.4,1.5s-1.3,0.5-2,0.5c-1.1,0-2.1-0.4-2.8-1.2s-1.1-1.9-1.1-3.2V260
		z M277.7,260.2c0,0.9,0.2,1.7,0.7,2.3c0.4,0.6,1,0.9,1.7,0.9c0.7,0,1.3-0.3,1.8-0.9c0.4-0.6,0.6-1.4,0.6-2.4c0-0.9-0.2-1.7-0.7-2.3
		c-0.4-0.6-1-0.9-1.8-0.9c-0.7,0-1.3,0.3-1.7,0.9S277.7,259.1,277.7,260.2z M280.8,252.3h1.8l-2.1,2.3l-1.2,0L280.8,252.3z"/>
	<path class="st3" d="M287.2,255.8l0,1.1c0.6-0.8,1.5-1.2,2.5-1.2c1.8,0,2.7,1,2.7,3v5.6H291v-5.6c0-0.6-0.1-1.1-0.4-1.4
		s-0.7-0.4-1.3-0.4c-0.5,0-0.9,0.1-1.2,0.4c-0.4,0.2-0.6,0.6-0.8,1v6h-1.4v-8.5H287.2z"/>
</g>
<g class="st1">
	<path class="st3" d="M223.8,282c0-1.3,0.3-2.3,0.9-3.1c0.6-0.8,1.4-1.2,2.4-1.2c1,0,1.8,0.3,2.4,1v-4.4h1.4v12h-1.3l-0.1-0.9
		c-0.6,0.7-1.4,1.1-2.4,1.1c-1,0-1.8-0.4-2.4-1.2s-0.9-1.8-0.9-3.1V282z M225.2,282.2c0,1,0.2,1.7,0.6,2.2c0.4,0.5,0.9,0.8,1.6,0.8
		c0.9,0,1.6-0.4,2-1.2v-3.9c-0.4-0.8-1.1-1.2-2-1.2c-0.7,0-1.3,0.3-1.7,0.8C225.4,280.3,225.2,281.1,225.2,282.2z"/>
	<path class="st3" d="M236.7,286.5c-1.1,0-2.1-0.4-2.8-1.1s-1.1-1.8-1.1-3V282c0-0.8,0.2-1.6,0.5-2.2s0.8-1.2,1.3-1.5
		c0.6-0.4,1.2-0.6,1.9-0.6c1.1,0,2,0.4,2.6,1.1s0.9,1.8,0.9,3.1v0.6h-5.7c0,0.8,0.3,1.5,0.7,2c0.5,0.5,1.1,0.8,1.8,0.8
		c0.5,0,0.9-0.1,1.3-0.3c0.4-0.2,0.7-0.5,0.9-0.8l0.9,0.7C239.1,285.9,238.1,286.5,236.7,286.5z M236.5,278.9
		c-0.6,0-1.1,0.2-1.5,0.6c-0.4,0.4-0.6,1-0.7,1.8h4.2v-0.1c0-0.7-0.2-1.3-0.6-1.7C237.6,279.1,237.1,278.9,236.5,278.9z"/>
	<path class="st3" d="M246.7,275.4l-0.2,2.8h-0.9l0-3.9h1.1V275.4z M248.8,275.4l-0.2,2.8h-0.9l0-3.9h1.1V275.4z"/>
	<path class="st3" d="M254.4,280.6l3-5.7h1.7l-3.9,7.1v4.2h-1.5v-4.2l-3.9-7.1h1.7L254.4,280.6z"/>
	<path class="st3" d="M259.4,282c0-0.8,0.2-1.6,0.5-2.2c0.3-0.7,0.8-1.2,1.4-1.5c0.6-0.4,1.2-0.5,2-0.5c1.2,0,2.1,0.4,2.8,1.2
		s1.1,1.9,1.1,3.2v0.1c0,0.8-0.2,1.6-0.5,2.2c-0.3,0.7-0.8,1.2-1.4,1.5s-1.3,0.5-2,0.5c-1.1,0-2.1-0.4-2.8-1.2s-1.1-1.9-1.1-3.2V282
		z M260.9,282.2c0,0.9,0.2,1.7,0.7,2.3c0.4,0.6,1,0.9,1.7,0.9c0.7,0,1.3-0.3,1.8-0.9c0.4-0.6,0.6-1.4,0.6-2.4c0-0.9-0.2-1.7-0.7-2.3
		c-0.4-0.6-1-0.9-1.8-0.9c-0.7,0-1.3,0.3-1.7,0.9S260.9,281.1,260.9,282.2z"/>
	<path class="st3" d="M277.8,284.1c0-0.4-0.1-0.7-0.4-0.9c-0.3-0.2-0.8-0.4-1.5-0.6c-0.7-0.2-1.3-0.3-1.7-0.6s-0.7-0.5-1-0.8
		c-0.2-0.3-0.3-0.7-0.3-1.1c0-0.7,0.3-1.3,0.9-1.8s1.3-0.7,2.2-0.7c1,0,1.7,0.2,2.3,0.7c0.6,0.5,0.9,1.1,0.9,1.9h-1.5
		c0-0.4-0.2-0.7-0.5-1s-0.8-0.4-1.3-0.4c-0.5,0-0.9,0.1-1.2,0.3s-0.4,0.5-0.4,0.9c0,0.3,0.1,0.6,0.4,0.8c0.3,0.2,0.8,0.3,1.5,0.5
		c0.7,0.2,1.3,0.4,1.8,0.6c0.4,0.2,0.8,0.5,1,0.8c0.2,0.3,0.3,0.7,0.3,1.2c0,0.8-0.3,1.4-0.9,1.8c-0.6,0.5-1.4,0.7-2.4,0.7
		c-0.7,0-1.3-0.1-1.8-0.4c-0.5-0.2-0.9-0.6-1.2-1c-0.3-0.4-0.4-0.9-0.4-1.4h1.4c0,0.5,0.2,0.9,0.6,1.2c0.4,0.3,0.8,0.4,1.4,0.4
		c0.5,0,1-0.1,1.3-0.3C277.6,284.7,277.8,284.4,277.8,284.1z"/>
	<path class="st3" d="M284.6,286.5c-1.1,0-2.1-0.4-2.8-1.1s-1.1-1.8-1.1-3V282c0-0.8,0.2-1.6,0.5-2.2s0.8-1.2,1.3-1.5
		c0.6-0.4,1.2-0.6,1.9-0.6c1.1,0,2,0.4,2.6,1.1s0.9,1.8,0.9,3.1v0.6h-5.7c0,0.8,0.3,1.5,0.7,2c0.5,0.5,1.1,0.8,1.8,0.8
		c0.5,0,0.9-0.1,1.3-0.3c0.4-0.2,0.7-0.5,0.9-0.8l0.9,0.7C287.1,285.9,286.1,286.5,284.6,286.5z M284.5,278.9
		c-0.6,0-1.1,0.2-1.5,0.6c-0.4,0.4-0.6,1-0.7,1.8h4.2v-0.1c0-0.7-0.2-1.3-0.6-1.7C285.5,279.1,285.1,278.9,284.5,278.9z"/>
	<path class="st3" d="M290.6,275.4l-0.2,2.8h-0.9l0-3.9h1.1V275.4z M292.7,275.4l-0.2,2.8h-0.9l0-3.9h1.1V275.4z"/>
</g>
<text transform="matrix(1 0 0 1 470.358 369.839)" class="st3 st4 st5">Beneficios de</text>
<text transform="matrix(1 0 0 1 458.585 391.839)" class="st3 st4 st5">tener un manual</text>
<text transform="matrix(1 0 0 1 447.892 413.839)" class="st3 st4 st5">de procedimientos</text>
<path id="Trazado_719148" class="st6" d="M353.5,237.5l-1.9-0.7c21.8-56,70.1-97.4,128.7-110.4l0.4,2
	C422.8,141.2,375,182.1,353.5,237.5z"/>
<path id="Trazado_719149" d="M333.2,256.4l-5.3,5l-1.7-7.1L333.2,256.4z"/>
<path id="Trazado_719150" class="st6" d="M481,130.6l5.5-4.9l-6.9-2.3L481,130.6z"/>
<g>
	<path id="Trazado_719148_00000039125370350469992680000011795031345057962910_" class="st7" d="M560.4,122.7l0.2-2
		c59.7,6.4,112.3,42.2,140.2,95.4l-1.8,0.9C671.5,164.4,619.5,129,560.4,122.7z"/>
	<path id="Trazado_719150_00000010999028915167783240000015265946746777402260_" class="st7" d="M696.9,217.9l6.1,4l0.4-7.3
		L696.9,217.9z"/>
</g>
<g>
	<path id="Trazado_719151" class="st8" d="M394.6,462.3c-18.3-16.5-33.1-36.7-43.3-59.2c-5.2-11.4-9.2-23.4-11.9-35.7
		c-4.2-19.5-5.2-39.6-2.9-59.5c0-0.3,0.1-0.6,0.1-1l2,0.2c0,0.3-0.1,0.6-0.1,0.9c-2.3,19.6-1.3,39.5,2.9,58.8
		c5.3,24.1,15.6,46.9,30.2,66.8c7.2,9.8,15.3,18.8,24.4,27L394.6,462.3z"/>
	<path id="Trazado_719153" class="st8" d="M341.2,307.7l-2.8-6.8l-4.5,5.8L341.2,307.7z"/>
</g>
<g>
	<path id="Trazado_719154" class="st9" d="M524,519c-11.9-0.6-23.7-2.4-35.3-5.3c-11.2-2.8-22.1-6.8-32.6-11.7l0.9-1.8
		c10.3,4.9,21.1,8.8,32.2,11.6c23.1,5.8,47.1,7,70.7,3.5c22.8-3.5,44.8-11.4,64.6-23.3c9.7-5.8,18.9-12.6,27.3-20.2l1.3,1.5
		c-17.2,15.4-37.1,27.4-58.8,35.3c-11.1,4-22.5,6.9-34.1,8.7C548.2,519,536,519.6,524,519z"/>
	<path id="Trazado_719156" class="st9" d="M458.2,497.7l-7.3,0.6l4.1,6L458.2,497.7z"/>
</g>
<path id="Trazado_719157" class="st2" d="M682.8,449.8l-1.4-1.4c21.4-22.3,36.6-49.7,44.1-79.7c3.2-12.5,5-25.4,5.3-38.3
	c0.4-12.5-0.6-25.1-2.9-37.4l2-0.4c2.3,12.5,3.3,25.1,2.9,37.8c-0.9,29-8.7,57.3-22.8,82.7C702.5,426.4,693.4,438.7,682.8,449.8z"/>
<path id="Trazado_719158" d="M715.2,235.6l0.7-7.3l6,4.2L715.2,235.6z"/>
<path id="Trazado_719159" class="st2" d="M679.5,446.5l-1.8,7.1l7.1-1.9L679.5,446.5z"/>
<path id="Trazado_719161" d="M535.2,124.3l-6.2-3.8l6.4-3.5L535.2,124.3z"/>
<g>
	<path id="Trazado_719163" class="st9" d="M649.5,444.4c18.2,0,33,14.8,33,33s-14.8,33-33,33c-18.2,0-33-14.8-33-33
		S631.3,444.4,649.5,444.4L649.5,444.4"/>
	<path id="Trazado_719164" class="st10" d="M664.7,463.4c-4.1-4.1-10.8-4.1-14.9,0l-1,1l-1.1-1.1c-4.1-4.1-10.8-4.1-14.9,0
		c-4.1,4.1-4.1,10.8,0,14.9l15.2,15.2c0.2,0.2,0.5,0.3,0.8,0.3c0.3,0,0.6-0.1,0.8-0.3l15.2-15.2c2-2,3.1-4.7,3.1-7.5
		C667.8,468.1,666.7,465.4,664.7,463.4L664.7,463.4z M663.1,476.8l-14.4,14.4l-14.4-14.4c-3.3-3.2-3.4-8.5-0.2-11.8
		s8.5-3.4,11.8-0.2c0,0,0.1,0.1,0.1,0.1l0.1,0.1l1.8,1.8c0.4,0.4,1.1,0.4,1.5,0c0,0,0,0,0,0l0,0l1.8-1.8c3.3-3.2,8.6-3.1,11.8,0.2
		C666.3,468.4,666.3,473.6,663.1,476.8L663.1,476.8z"/>
</g>
<g>
	<path id="Trazado_719165" class="st2" d="M717.1,228.7c18.2,0,33,14.8,33,33s-14.8,33-33,33c-18.2,0-33-14.8-33-33l0,0
		C684.1,243.5,698.9,228.7,717.1,228.7"/>
	<path id="Trazado_719166" class="st10" d="M726.8,267c-2.1,0-4.1,1-5.4,2.6l-10.4-5.8c0.3-0.7,0.4-1.5,0.4-2.2
		c0-0.8-0.1-1.5-0.4-2.2l10.4-5.8c2.3,3,6.5,3.5,9.5,1.3c3-2.3,3.5-6.5,1.3-9.5c-2.3-3-6.5-3.5-9.5-1.3c-1.7,1.3-2.7,3.3-2.7,5.4
		c0,0.8,0.1,1.5,0.4,2.2l-10.4,5.8c-2.3-3-6.5-3.5-9.5-1.3c-3,2.3-3.5,6.5-1.3,9.5s6.5,3.5,9.5,1.3c0.5-0.4,0.9-0.8,1.3-1.3
		l10.4,5.8c-1.2,3.5,0.6,7.4,4.1,8.7c3.5,1.2,7.4-0.6,8.7-4.1c1.2-3.5-0.6-7.4-4.1-8.7C728.4,267.2,727.6,267,726.8,267L726.8,267z
		 M726.8,244.8c2.6,0,4.7,2.1,4.7,4.7s-2.1,4.7-4.7,4.7s-4.7-2.1-4.7-4.7c0,0,0,0,0,0C722.2,246.9,724.3,244.8,726.8,244.8
		 M704.6,266.3c-2.6,0-4.7-2.1-4.7-4.7c0-2.6,2.1-4.7,4.7-4.7c2.6,0,4.7,2.1,4.7,4.7c0,0,0,0,0,0
		C709.3,264.2,707.2,266.3,704.6,266.3 M726.8,278.5c-2.6,0-4.7-2.1-4.7-4.7c0-2.6,2.1-4.7,4.7-4.7s4.7,2.1,4.7,4.7
		C731.5,276.4,729.4,278.5,726.8,278.5L726.8,278.5"/>
</g>
<g>
	<path id="Trazado_719167" class="st8" d="M388.5,478.4c0.4-17.8,15.2-31.8,32.9-31.4c17.8,0.4,31.8,15.2,31.4,32.9
		c-0.4,17.8-15.2,31.8-32.9,31.4h-0.1C402.1,510.9,388.1,496.2,388.5,478.4"/>
	<g>
		<path id="Trazado_719168" class="st10" d="M434.8,465.8h-28.2c-2.5,0-4.6,2-4.6,4.6v19.3c0,2.5,2,4.6,4.6,4.6h28.2
			c2.5,0,4.6-2,4.6-4.6v-19.3C439.4,467.8,437.3,465.8,434.8,465.8L434.8,465.8z M437.3,489.6c0,1.4-1.1,2.5-2.5,2.5h-28.2
			c-1.4,0-2.5-1.1-2.5-2.5c0,0,0,0,0,0v-19.3c0-1.4,1.1-2.5,2.5-2.5h28.2c1.4,0,2.5,1.1,2.5,2.5l0,0l0,0L437.3,489.6L437.3,489.6z"
			/>
		<path id="Trazado_719169" class="st10" d="M425.8,479.5l9.1-8.2c0.4-0.4,0.5-1,0.1-1.5s-1-0.5-1.5-0.1l0,0l-12.6,11.3l-2.5-2.2
			c0,0,0,0,0,0c-0.1-0.1-0.1-0.1-0.2-0.2l-10-8.9c-0.4-0.4-1.1-0.4-1.5,0c-0.4,0.4-0.4,1.1,0,1.5c0,0,0,0,0.1,0l9.2,8.3l-9.2,8.6
			c-0.4,0.4-0.4,1.1,0,1.5c0,0,0,0,0,0l0,0c0.2,0.2,0.5,0.3,0.8,0.3c0.3,0,0.5-0.1,0.7-0.3l9.3-8.7l2.5,2.3c0.4,0.4,1,0.3,1.4,0
			l2.6-2.3l9.3,8.8c0.2,0.2,0.4,0.3,0.7,0.3c0.6,0,1-0.5,1-1c0-0.3-0.1-0.6-0.3-0.8L425.8,479.5z"/>
	</g>
</g>
<g>
	<path id="Trazado_719170" class="st6" d="M346.9,228.7c18.2,0,33,14.8,33,33s-14.8,33-33,33s-33-14.8-33-33l0,0
		C313.9,243.5,328.6,228.7,346.9,228.7"/>
	<path id="Trazado_719171" class="st10" d="M360,250c-6.9-7-18.2-7-25.1,0c-6.5,6.5-7,16.9-1.1,23.9c-0.6,1.3-1.6,2.4-2.9,3.2
		c-0.8,0.4-1.2,1.4-0.8,2.2c0.2,0.5,0.7,0.8,1.2,0.9c0.5,0.1,0.9,0.1,1.4,0.1c2.3,0,4.4-0.7,6.3-2.1c8.7,4.6,19.4,1.4,24.1-7.3
		C366.8,264,365.5,255.5,360,250L360,250z M358.5,273.7c-5.1,5.1-12.9,6.1-19.1,2.5c-0.4-0.2-0.9-0.2-1.2,0.2c0,0-0.1,0-0.1,0.1
		c-1.5,1.2-3.4,1.9-5.4,1.9h0c1.4-1.1,2.4-2.5,3-4.1c0.1-0.2,0.1-0.4,0.1-0.7c0-0.2-0.1-0.4-0.2-0.6c-5.8-6.5-5.1-16.5,1.4-22.2
		c6.5-5.8,16.5-5.1,22.2,1.4C364.7,258.3,364.4,267.8,358.5,273.7L358.5,273.7z"/>
	<path id="Trazado_719172" class="st10" d="M349.7,262.8c0,0.7-0.6,1.2-1.2,1.3c-0.7,0-1.2-0.6-1.3-1.2s0.6-1.2,1.2-1.3c0,0,0,0,0,0
		C349.1,261.5,349.7,262.1,349.7,262.8z"/>
	<path id="Trazado_719173" class="st10" d="M357.2,262.8c0,0.7-0.6,1.2-1.2,1.2c-0.7,0-1.2-0.6-1.2-1.2c0-0.7,0.6-1.2,1.2-1.2l0,0
		C356.6,261.5,357.2,262.1,357.2,262.8z"/>
	<path id="Trazado_719174" class="st10" d="M342.2,262.8c0,0.7-0.6,1.2-1.2,1.2s-1.2-0.6-1.2-1.2c0-0.7,0.6-1.2,1.2-1.2l0,0
		C341.6,261.5,342.2,262.1,342.2,262.8z"/>
</g>
<g>
	<path id="Trazado_719175" class="st7" d="M497.6,119.7c0.5-17.8,15.2-31.8,33-31.3c17.8,0.5,31.8,15.2,31.3,33
		c-0.5,17.8-15.2,31.8-33,31.3C511.2,152.2,497.1,137.5,497.6,119.7C497.6,119.7,497.6,119.7,497.6,119.7"/>
	<path id="Trazado_719176" class="st10" d="M550,116.6l-3.1-0.5c-0.3-1.1-0.8-2.1-1.3-3l1.9-2.6c0.8-1.1,0.7-2.6-0.3-3.6l-2.8-2.8
		c-0.5-0.5-1.2-0.8-2-0.8c-0.6,0-1.1,0.2-1.6,0.5l-2.6,1.8c-1-0.5-2.1-1-3.2-1.3l-0.5-3.1c-0.2-1.3-1.4-2.3-2.7-2.3h-3.9
		c-1.4,0-2.5,1-2.7,2.3l-0.5,3.2c-1,0.3-2.1,0.8-3,1.3l-2.6-1.8c-0.5-0.3-1-0.5-1.6-0.5c-0.7,0-1.4,0.3-2,0.8l-2.8,2.8
		c-1,1-1.1,2.5-0.3,3.6l1.9,2.6c-0.5,1-0.9,2-1.2,3.1l-3.1,0.5c-1.3,0.2-2.3,1.4-2.3,2.7v3.9c0,1.4,1,2.5,2.3,2.7l3.2,0.5
		c0.3,1,0.8,2.1,1.3,3l-1.8,2.6c-0.8,1.1-0.7,2.6,0.3,3.6l2.8,2.8c0.5,0.5,1.2,0.8,2,0.8c0.6,0,1.1-0.2,1.6-0.5l2.6-1.9
		c0.9,0.5,1.9,0.9,3,1.2l0.5,3.1c0.2,1.3,1.4,2.3,2.7,2.3h3.9c1.4,0,2.5-1,2.7-2.3l0.5-3.1c1.1-0.3,2.1-0.7,3-1.3l2.6,1.9
		c0.5,0.3,1,0.5,1.6,0.5c0.7,0,1.4-0.3,2-0.8l2.8-2.8c1-1,1.1-2.5,0.3-3.6l-1.8-2.6c0.5-1,0.9-2,1.3-3l3.1-0.5
		c1.3-0.2,2.3-1.4,2.3-2.7v-3.9C552.3,118,551.4,116.8,550,116.6L550,116.6z M549.8,123.3c0,0.1-0.1,0.2-0.2,0.2l-3.9,0.7
		c-0.5,0.1-0.9,0.4-1,0.9c-0.4,1.4-0.9,2.7-1.6,3.9c-0.3,0.4-0.2,1,0.1,1.4l2.3,3.2c0.1,0.1,0.1,0.2,0,0.3l-2.8,2.8
		c0,0-0.1,0.1-0.2,0.1c-0.1,0-0.1,0-0.1,0l-3.2-2.3c-0.4-0.3-0.9-0.3-1.4-0.1c-1.2,0.7-2.5,1.3-3.9,1.6c-0.5,0.1-0.8,0.5-0.9,1
		l-0.7,3.9c0,0.1-0.1,0.2-0.2,0.2H528c-0.1,0-0.2-0.1-0.2-0.2l-0.7-3.9c-0.1-0.5-0.4-0.9-0.9-1c-1.3-0.3-2.6-0.9-3.8-1.6
		c-0.2-0.1-0.4-0.2-0.6-0.2c-0.3,0-0.5,0.1-0.7,0.2l-3.3,2.3c0,0-0.1,0-0.1,0c-0.1,0-0.1,0-0.2-0.1l-2.8-2.8c-0.1-0.1-0.1-0.2,0-0.3
		l2.3-3.2c0.3-0.4,0.3-0.9,0.1-1.4c-0.7-1.2-1.3-2.5-1.6-3.9c-0.1-0.5-0.5-0.8-1-0.9l-3.9-0.7c-0.1,0-0.2-0.1-0.2-0.2v-3.9
		c0-0.1,0.1-0.2,0.2-0.2l3.9-0.7c0.5-0.1,0.9-0.5,1-0.9c0.3-1.4,0.9-2.7,1.6-3.9c0.3-0.4,0.2-1-0.1-1.4l-2.3-3.3
		c-0.1-0.1-0.1-0.2,0-0.3l2.8-2.8c0,0,0.1-0.1,0.2-0.1c0.1,0,0.1,0,0.1,0l3.2,2.3c0.4,0.3,0.9,0.3,1.4,0.1c1.2-0.7,2.5-1.3,3.9-1.6
		c0.5-0.1,0.8-0.5,0.9-1l0.7-3.9c0-0.1,0.1-0.2,0.2-0.2h3.9c0.1,0,0.2,0.1,0.2,0.2l0.7,3.9c0.1,0.5,0.5,0.9,0.9,1
		c1.4,0.4,2.8,0.9,4,1.6c0.4,0.3,1,0.2,1.4-0.1l3.2-2.3c0,0,0.1,0,0.1,0c0.1,0,0.1,0,0.2,0.1l2.8,2.8c0.1,0.1,0.1,0.2,0,0.3
		l-2.3,3.2c-0.3,0.4-0.3,0.9-0.1,1.4c0.7,1.2,1.3,2.5,1.6,3.9c0.1,0.5,0.5,0.8,1,0.9l3.9,0.7c0.1,0,0.2,0.1,0.2,0.2L549.8,123.3
		L549.8,123.3z"/>
	<path id="Trazado_719177" class="st10" d="M530,112.3c-5.3,0-9.6,4.3-9.6,9.6s4.3,9.6,9.6,9.6c5.3,0,9.6-4.3,9.6-9.6c0,0,0,0,0,0
		C539.7,116.6,535.3,112.3,530,112.3 M530,129.1c-3.9,0-7.1-3.2-7.1-7.1s3.2-7.1,7.1-7.1c3.9,0,7.1,3.2,7.1,7.1l0,0
		C537.1,125.9,533.9,129.1,530,129.1"/>
</g>
<rect id="Rectángulo_362077" x="332.2" y="123.4" class="st11" width="398" height="388.4"/>
<g id="Grupo_1005313" transform="translate(0 461.893)">
	<g>
		<defs>
			<rect id="SVGID_1_" y="0" width="69.7" height="71.8"/>
		</defs>
		<clipPath id="SVGID_00000095312790567431164980000014848265678448022169_">
			<use xlink:href="#SVGID_1_"  style="overflow:visible;"/>
		</clipPath>
		<g id="Grupo_1005312" style="clip-path:url(#SVGID_00000095312790567431164980000014848265678448022169_);">
			<path id="Trazado_643894" class="st13" d="M16.5,0.1c-4.4,0.9-5.4,6.3-4.8,11.4c0.6,4.4,3,8.5,2.9,12.9c0,3.2-2.6,2.4-4.3,1.9
				c-2.1-0.6-4.4-1.5-6.6-1.2c-2,0.3-3.5,1.8-3.8,3.7c-0.3,1.8,0.4,3.6,1.6,4.9c3.2,3.5,8.1,4.9,11.9,6.7c1.4,0.6,5.9,1.2,6.3,3.4
				c0.3,1.5-2.3,1.7-3,1.8c-2.8,0.4-5.6,0-8.4,0.2C6.7,46,2,46.5,2.6,50.2c0.4,2.5,2.5,4.4,4.1,5.5c2.3,1.6,4.8,3,7.4,4.1
				c3.2,1.3,6.5,2.3,9.9,3c3.2,0.8,6.4,1.3,9.7,1.5c1.5,0.1,3,0,4.5,0.1c0,0.4,0.2,0.7,0.6,0.8c2.8,1.1,5.8,1.9,8.8,2.4
				c2.3,0.3,4.9,0.2,6.8-1.8c2.1-2.2,3.3-5.9,4.8-8.9c1.3-2.7,3-5.3,3.9-8.3c1-3.1,1.8-8.5-1.1-10.4c-3.7-2.5-7.7,2.4-11.3,3
				c-0.9,0.1-2.3,0.1-2.8-1.2c-0.1-0.9,0-1.9,0.5-2.7c1-2.1,2.3-4,3.9-5.8c2.4-3.1,5.3-6.5,3.6-11.3c-1.9-5.6-7.7-5.7-10.9-2.4
				c-1.8,2.1-3.1,4.6-3.7,7.3c-0.3,1.2-0.6,2.4-0.8,3.7c-0.4,2.1-1.4,3.2-3,1.9c-2.5-2-3.5-6.8-4.6-10c-1.1-3.7-2.5-7.3-4.3-10.8
				C25.7,4.5,21.9-0.9,16.5,0.1"/>
			<path id="Trazado_643895" class="st14" d="M16.3,7.8c0.4,3.4,1.1,6.8,2,10.1c1,3,2.1,6,3.4,8.9c2.5,5.7,5.5,11.2,8.9,16.5
				c3.3,5,7.1,9.8,11.2,14.2c1.9,2,3.8,3.9,5.8,5.8c2.1,1.9,4.4,4.3,6.9,4.9c0.3,0.1,0.6-0.5,0.3-0.8c-1.8-2.1-4.1-3.4-6.1-5.2
				c-2.1-1.9-4.1-3.8-6.1-5.9c-3.9-4.2-7.4-8.7-10.5-13.5c-3.3-5.1-6.2-10.5-8.7-16c-2.9-6.1-5-12.5-6.3-19.1
				C17.2,6.8,16.2,7,16.3,7.8"/>
			<path id="Trazado_643896" class="st14" d="M48.9,61.2c1.4-2.3,2.6-4.6,4-6.9c0.7-1.1,1.4-2.2,2.1-3.2c0.8-1.1,1.7-2.2,2.4-3.3
				c0.1-0.2-0.1-0.4-0.3-0.3c-1,0.8-1.8,1.8-2.6,2.9c-0.8,1.1-1.5,2.2-2.2,3.4c-1.4,2.3-2.7,4.7-4.1,7.1
				C48,61.3,48.7,61.6,48.9,61.2L48.9,61.2z"/>
			<path id="Trazado_643897" class="st14" d="M28.9,27.2c1.2-3.6,0.8-7.6,0-11.2c-0.4-2-1-4-1.7-6C26.7,8.3,26,6.6,25,5.1
				c-0.1-0.2-0.5-0.1-0.4,0.2c0.5,1.6,1.4,3,2,4.6c0.7,1.9,1.3,3.8,1.7,5.8c0.8,3.6,1.5,7.8,0.4,11.4C28.7,27.2,28.8,27.3,28.9,27.2
				L28.9,27.2z"/>
			<path id="Trazado_643898" class="st14" d="M25.3,34.5c-2.1-0.1-4.2-0.1-6.3-0.3c-2-0.2-4.1-0.2-6.1-0.5c-2.1-0.2-4.1-0.6-6.1-1.1
				c-1.7-0.4-3.3-1.5-5-1.5c-0.1,0-0.2,0.1-0.2,0.2c0,0.1,0,0.1,0.1,0.2c3.4,2,7.6,2.6,11.5,3c1.9,0.2,3.8,0.3,5.7,0.4
				c2.1,0.1,4.2-0.1,6.4-0.1C25.5,34.8,25.5,34.5,25.3,34.5L25.3,34.5z"/>
			<path id="Trazado_643899" class="st14" d="M6.4,51.7c4.6,1.8,9.5,2.8,14.4,3c2.6,0.1,5.3,0.1,7.9-0.2c1.3-0.1,2.6-0.2,3.8-0.3
				c1.2-0.1,2.5,0.1,3.5-0.5c0.2-0.1,0.2-0.3,0.1-0.5c0,0-0.1-0.1-0.1-0.1c-1-0.3-2-0.3-2.9-0.1c-1.3,0.1-2.6,0.2-3.8,0.3
				c-2.6,0.2-5.1,0.3-7.7,0.2c-5-0.2-10.1-1-14.9-2.3C6.3,51,6.1,51.5,6.4,51.7"/>
			<path id="Trazado_643900" class="st14" d="M37.6,44.3c0.9-2.4,1.8-4.7,2.9-6.9c1.1-2.2,2.4-4.3,3.8-6.2c1.4-1.9,3.1-3.6,5-5.1
				c0.8-0.7,1.6-1.5,2.4-2.2c0.9-0.5,1.7-1.1,2.5-1.8c0.1-0.1,0.1-0.3,0-0.4c0,0,0,0,0,0c0,0-0.1-0.1-0.1-0.1
				c-1.8-0.2-3.6,2.4-4.7,3.4c-0.9,0.8-1.9,1.5-2.7,2.4c-0.9,1-1.8,2-2.6,3.1c-1.7,1.9-3.1,4-4.1,6.4c-1,2.4-1.8,4.9-2.5,7.5
				C37.2,44.4,37.5,44.5,37.6,44.3L37.6,44.3z"/>
			<path id="Trazado_643901" class="st15" d="M15.9,62.7c-0.2,1.6,0.3,3.2,1.3,4.4c1.2,1.4,2.9,2.3,4.7,2.5c0.8,0.2,1.5,0.2,2.3,0.3
				l0,0c0.7,0,1.4,0,2,0l0,0c0.7-0.1,1.5-0.1,2.2-0.3c1.2-0.2,2.4-0.4,3.5-0.6c1.1-0.3,2.3-0.2,3.4,0.3c1,0.5,1.9,1.2,2.9,1.7
				l0.4,0.2c0.7,0.4,1.5,0.6,2.3,0.6c2.1,0,3.7-1.2,5.3-2.4c1-0.8,2.1-1.4,3.4-1.8c1.1-0.2,2.2-0.2,3.2,0c0.1,0,0.2,0,0.3,0
				c0.1,0,0.2,0.1,0.4,0.1c0.9,0.2,1.8,0.4,2.6,0.5c1.1,0,2.1-0.2,3-0.7c2.1-1.2,4-2.6,5.8-4.2c0.4-0.3,0.9-0.7,1.3-1
				c0.1,0.1,0.3,0.1,0.4,0c0.7-0.5,1.1-1.3,1.2-2.1c0.1-0.6,0.2-1.2,0.3-1.8c0-0.3,0-0.6,0-0.9l0,0c-0.1-2-0.8-3.8-1.9-5.4
				c-2.1-3.1-5.9-4.6-9.5-3.7c-0.1,0-0.3,0.1-0.4,0.1l0,0c-0.2,0.1-0.3,0.1-0.5,0.2c-1,0.5-2,1.1-3,1.7c-1.1,0.7-2.3,1.1-3.6,1.4
				c-0.4,0.1-0.8,0.1-1.2,0.1c-0.4,0-0.7-0.1-1.1-0.2c0,0,0,0,0,0c-1.2-0.4-2.4-0.8-3.6-1.4c-1.7-0.8-3.4-1.5-5.3-1
				c-2.1,0.6-3.8,2.4-5.4,3.8c-0.2,0.1-0.3,0.3-0.5,0.4c-0.1,0.1-0.3,0.2-0.4,0.3c-0.7,0.5-1.4,1-2.1,1.4c-1.1,0.5-2.3,0.9-3.6,1
				c-1.6,0.2-3.3,0.5-4.9,1c-0.2,0.1-0.3,0.1-0.5,0.2c-0.4,0.2-0.9,0.4-1.3,0.6C17.5,58.9,16.2,60.7,15.9,62.7"/>
			<path id="Trazado_643902" class="st14" d="M16.8,64.2c0.8,0,1.6,0.1,2.3,0.2c1.7,0.1,3.4,0,5.1,0c5.3-0.1,10.6-0.3,16-0.6
				c2-0.1,4-0.3,6-0.6c1.6-0.3,3.2-0.6,4.9-0.9c3.8-0.8,7.5-1.6,11.2-2.5c1.6-0.4,3.3-0.8,4.9-1.2c0.5-0.2,1.1-0.3,1.6-0.5
				c0.2-0.1,0.4-0.1,0.5-0.2c0.1-0.1,0.4-0.2,0.2-0.1c0.3-0.1,0.2-0.7-0.1-0.6c0,0-0.2,0-0.2,0c-0.1,0-0.3,0-0.4,0.1
				c-0.5,0.1-0.9,0.2-1.3,0.3c-1.4,0.3-2.7,0.7-4.1,1c-3.7,0.9-7.4,1.8-11.1,2.6c-3.3,0.7-6.6,1.3-10,1.7c-5.5,0.5-11.1,0.9-16.6,1
				c-2.9-0.1-5.9,0.1-8.8,0.4C16.7,64.1,16.8,64.2,16.8,64.2L16.8,64.2z"/>
			<path id="Trazado_643903" class="st14" d="M36.6,63.9c0.1-0.1,0.3-0.3,0.5-0.3c0.1,0,0.1,0,0.2,0.1c0,0,0,0.1,0,0.1
				c0,0,0,0.1-0.1,0.1c-0.4,0.6-1,1-1.6,1.4c-0.7,0.5-1.4,1-2.1,1.4c-1.5,0.9-3.1,1.7-4.7,2.3c-0.8,0.3-1.7,0.6-2.6,0.9l0,0
				c-0.7,0.1-1.4,0.1-2,0c1.5-0.4,3-0.9,4.5-1.5c1.6-0.6,3.2-1.4,4.7-2.2c0.7-0.4,1.4-0.8,2-1.3c0.4-0.3,0.7-0.5,1-0.8
				C36.4,64.1,36.5,64,36.6,63.9"/>
			<path id="Trazado_643904" class="st14" d="M32,53.2c0.2,0.1,0.3,0.1,0.5,0.2c1.8,0.5,3.5,1.3,5.1,2.1c3,1.7,6.2,3.8,8,6.8
				c0.1,0.1,0.1,0.2,0.2,0.3c0.1,0.1,0,0.2-0.1,0.3c-0.1,0.1-0.2,0-0.3-0.1c-0.1-0.1-0.2-0.3-0.3-0.4c-1.9-2.8-5-4.8-7.8-6.4
				c-1.6-0.9-3.3-1.6-5.1-2.1c-0.2-0.1-0.5-0.2-0.7-0.2C31.7,53.4,31.9,53.3,32,53.2"/>
			<path id="Trazado_643905" class="st14" d="M20.5,57.2c0.2-0.1,0.3-0.1,0.5-0.2c1.1,0.4,2.2,0.9,3.3,1.5c1.2,0.6,2.4,1.4,3.4,2.3
				c1.1,0.9,2.1,1.9,3.3,2.8c0,0,0.1,0.1,0.1,0.1c0.1,0.1,0,0.4-0.1,0.2s-0.3-0.2-0.4-0.3c-1.9-1.6-3.8-3.1-5.9-4.5
				c-1.2-0.7-2.5-1.3-3.7-1.7C20.8,57.3,20.7,57.2,20.5,57.2"/>
			<path id="Trazado_643906" class="st14" d="M38.3,71c1.6-1,3.1-2.1,4.6-3.4c0.8-0.7,1.6-1.5,2.4-2.3c0.4-0.4,0.8-0.9,1.2-1.4
				c0.2-0.3,0.4-0.6,0.6-0.9c0.1-0.1,0.2-0.2,0.2-0.3c0.1-0.2,0.3,0,0.3,0.2l0,0.1c-0.4,1-1,1.9-1.7,2.6c-0.8,0.9-1.7,1.7-2.6,2.4
				c-1.4,1.2-3,2.3-4.5,3.2L38.3,71z"/>
			<path id="Trazado_643907" class="st14" d="M46.8,51.4c0.4,0.1,0.7,0.1,1.1,0.2c1.4,1.1,2.6,2.3,3.8,3.6c1.4,1.5,2.6,3.3,3.4,5.2
				c0.1,0.1,0.1,0.3,0.2,0.4c0.1,0.2-0.2,0.3-0.3,0.1s-0.1-0.3-0.2-0.5c-0.4-0.8-0.8-1.5-1.3-2.2c-1.6-2.4-3.6-4.5-5.8-6.3
				C47.3,51.8,47,51.6,46.8,51.4"/>
			<path id="Trazado_643908" class="st15" d="M60.1,60.1c0,0.1,0,0.1,0,0.2c0,0.9-1,2-1.5,2.7c-0.7,0.9-1.4,1.7-2.2,2.4
				c-0.9,0.9-1.9,1.7-3,2.4c-0.1,0-0.2-0.1-0.4-0.1c-0.1,0-0.2,0-0.3,0c0,0,0,0,0,0c1.2-0.8,2.3-1.6,3.3-2.6
				c0.8-0.8,1.5-1.6,2.2-2.5c0.3-0.4,0.6-0.9,0.9-1.3c0.1-0.2,0.2-0.5,0.4-0.7l0,0c0.1-0.1,0.2-0.3,0.3-0.4
				C59.9,59.9,60.1,60,60.1,60.1"/>
			<path id="Trazado_643909" class="st15" d="M56.1,48.3c0.2,0,0.3-0.1,0.4-0.1c0.7,0.6,1.3,1.2,1.9,1.9c1.2,1.2,2.3,2.5,3.3,3.8
				c1.1,1.3,2,2.8,2.6,4.4c0,0,0,0.1,0,0.1c0.1,0.2-0.3,0.3-0.3,0.1c0,0,0-0.1,0-0.1c-0.3-0.8-0.7-1.6-1.2-2.3
				c-0.5-0.8-1.1-1.6-1.7-2.3c-0.9-1.2-2-2.3-3-3.4C57.5,49.6,56.8,48.9,56.1,48.3"/>
		</g>
	</g>
</g>
<g id="Book_Information" transform="translate(-9108.244 -9658.352)">
	<path id="Trazado_719178" class="st2" d="M9572.5,9881.6v73.1c0,4.9,4,8.9,8.9,8.9l0,0h46.8c2.5,0,4.8,1.4,5.9,3.7l0.8,1.5
		c1.1,2.2,3.4,3.7,5.9,3.7h5.1c2.5,0,4.8-1.4,5.9-3.7l0.8-1.5c1.1-2.2,3.4-3.7,5.9-3.7h46.8c4.9,0,8.9-4,8.9-8.9l0,0v-73.1
		c0-4.9-4-8.9-8.9-8.9l0,0h-124C9576.5,9872.8,9572.5,9876.7,9572.5,9881.6C9572.5,9881.6,9572.5,9881.6,9572.5,9881.6z"/>
	<path id="Trazado_719179" class="st16" d="M9698.8,9859.5h-34c-7.9,0-15.5,2.8-21.4,8c-5.9-5.2-13.5-8.1-21.4-8h-34
		c-3.7,0-6.6,3-6.6,6.6l0,0v77.5c0,3.7,3,6.6,6.6,6.6h34c7.5,0,14.7,2.9,19.9,8.2c0.9,0.9,2.3,0.9,3.1,0c0,0,0,0,0,0
		c5.2-5.2,12.3-8.2,19.7-8.2h34c3.7,0,6.6-3,6.6-6.6l0,0v-77.5C9705.4,9862.4,9702.5,9859.5,9698.8,9859.5z"/>
	<path id="Trazado_719180" class="st17" d="M9647.8,9892.7h48.7v4.4h-48.7V9892.7z"/>
	<path id="Trazado_719181" class="st17" d="M9647.8,9883.8h48.7v4.4h-48.7V9883.8z"/>
	<path id="Trazado_719182" class="st17" d="M9647.8,9875h48.7v4.4h-48.7V9875z"/>
	<path id="Trazado_719183" class="st17" d="M9647.8,9866.1h48.7v4.4h-48.7V9866.1z"/>
	<path id="Trazado_719184" class="st17" d="M9590.2,9892.7h48.7v4.4h-48.7V9892.7z"/>
	<path id="Trazado_719185" class="st17" d="M9590.2,9883.8h48.7v4.4h-48.7V9883.8z"/>
	<path id="Trazado_719186" class="st17" d="M9590.2,9875h48.7v4.4h-48.7V9875z"/>
	<path id="Trazado_719187" class="st17" d="M9590.2,9866.1h48.7v4.4h-48.7V9866.1z"/>
	<path id="Trazado_719188" class="st17" d="M9647.8,9866.1v4.4h26.9c-0.5,1.5-1.2,3-1.9,4.4h-24.9v4.4h22.1c-1.2,1.6-2.6,3.1-4,4.4
		h-18.1v4.4h12.1c-10.2,5.9-22.8,5.9-33.1,0h12.1v-4.4h-18.1c-1.5-1.4-2.8-2.8-4-4.4h22.2v-4.4H9614c-0.8-1.4-1.4-2.9-1.9-4.4h26.9
		v-4.4h-28.1c-0.4-2.2-0.7-4.4-0.7-6.6h11.8c7.9,0,15.5,2.8,21.4,8c5.9-5.2,13.5-8.1,21.4-8h11.8c0,2.2-0.2,4.5-0.7,6.6H9647.8z"/>
	<path id="Trazado_719189" class="st18" d="M9610.8,9866.1h28.1v4.4h-26.9C9611.6,9869.1,9611.2,9867.6,9610.8,9866.1z"/>
	<path id="Trazado_719190" class="st18" d="M9614,9875h24.9v4.4h-22.2C9615.8,9878,9614.9,9876.5,9614,9875z"/>
	<path id="Trazado_719191" class="st18" d="M9620.9,9883.8h18.1v4.4h-12.1C9624.7,9887,9622.7,9885.5,9620.9,9883.8L9620.9,9883.8z"
		/>
	<path id="Trazado_719192" class="st18" d="M9647.8,9883.8h18.1c-1.8,1.7-3.8,3.2-6,4.4h-12.1V9883.8z"/>
	<path id="Trazado_719193" class="st18" d="M9647.8,9875h24.9c-0.8,1.5-1.7,3-2.8,4.4h-22.2V9875z"/>
	<path id="Trazado_719194" class="st18" d="M9676,9866.1c-0.3,1.5-0.7,3-1.2,4.4h-26.9v-4.4H9676z"/>
	<circle id="Elipse_5306" class="st10" cx="9643.4" cy="9859.6" r="29"/>
	<circle id="Elipse_5307" class="st8" cx="9643.4" cy="9859.6" r="22"/>
	<g id="Grupo_1084317" transform="translate(17.72 71)">
		<path id="Trazado_719195" class="st17" d="M9572.5,9830.6h48.7v4.4h-48.7V9830.6z"/>
		<path id="Trazado_719196" class="st17" d="M9572.5,9839.4h48.7v4.4h-48.7V9839.4z"/>
		<path id="Trazado_719197" class="st17" d="M9630.1,9866h48.7v4.4h-48.7V9866z"/>
		<path id="Trazado_719198" class="st17" d="M9572.5,9848.3h48.7v4.4h-48.7V9848.3z"/>
		<path id="Trazado_719199" class="st17" d="M9572.5,9857.1h48.7v4.4h-48.7V9857.1z"/>
		<path id="Trazado_719200" class="st17" d="M9572.5,9866h48.7v4.4h-48.7V9866z"/>
		<path id="Trazado_719201" class="st17" d="M9630.1,9830.6h19.9v4.4h-19.9V9830.6z"/>
		<path id="Trazado_719202" class="st17" d="M9630.1,9839.4h19.9v4.4h-19.9V9839.4z"/>
		<path id="Trazado_719203" class="st17" d="M9630.1,9848.3h19.9v4.4h-19.9V9848.3z"/>
		<path id="Trazado_719204" class="st17" d="M9630.1,9857.1h19.9v4.4h-19.9V9857.1z"/>
	</g>
	<path id="Rectángulo_362078" class="st9" d="M9676.4,9901.6h18c1.1,0,2,0.9,2,2v27c0,1.1-0.9,2-2,2h-18c-1.1,0-2-0.9-2-2v-27
		C9674.4,9902.5,9675.3,9901.6,9676.4,9901.6z"/>
	<path id="Trazado_719205" class="st10" d="M9636.8,9855v4.4h2.2v13.3h8.9V9855H9636.8z"/>
	<ellipse id="Elipse_5308" class="st10" cx="9643.4" cy="9846.1" rx="4" ry="4.5"/>
</g>
<g>
	
		<radialGradient id="SVGID_00000030447529340906449690000014024886578027934096_" cx="974.3313" cy="38.3797" r="35.8412" gradientUnits="userSpaceOnUse">
		<stop  offset="0.3379" style="stop-color:#FFFFFF"/>
		<stop  offset="1" style="stop-color:#E7DBE5"/>
	</radialGradient>
	<circle style="fill:url(#SVGID_00000030447529340906449690000014024886578027934096_);" cx="968.9" cy="59.4" r="18"/>
	
		<radialGradient id="SVGID_00000061432263367024929570000008234752413493440906_" cx="956.4407" cy="60.5193" r="30.8196" gradientUnits="userSpaceOnUse">
		<stop  offset="0" style="stop-color:#FFFFFF"/>
		<stop  offset="1" style="stop-color:#E7DBE5"/>
	</radialGradient>
	<circle style="fill:url(#SVGID_00000061432263367024929570000008234752413493440906_);" cx="951.8" cy="78.6" r="15.5"/>
	
		<radialGradient id="SVGID_00000100348662596429042310000017152574460313431963_" cx="982.0107" cy="64.1135" r="37.5125" gradientUnits="userSpaceOnUse">
		<stop  offset="0" style="stop-color:#FFFFFF"/>
		<stop  offset="1" style="stop-color:#E7DBE5"/>
	</radialGradient>
	<circle style="fill:url(#SVGID_00000100348662596429042310000017152574460313431963_);" cx="977.3" cy="82.2" r="15.5"/>
	
		<radialGradient id="SVGID_00000177468656355938193290000016891874428382242976_" cx="946.0748" cy="8.796" r="30.8196" gradientTransform="matrix(1.1591 0 0 1.1201 -74.4767 16.3037)" gradientUnits="userSpaceOnUse">
		<stop  offset="0.514" style="stop-color:#FFFFFF"/>
		<stop  offset="1" style="stop-color:#E7DBE5"/>
	</radialGradient>
	
		<ellipse style="fill:url(#SVGID_00000177468656355938193290000016891874428382242976_);" cx="1016.8" cy="46.4" rx="18" ry="17.4"/>
	
		<radialGradient id="SVGID_00000131354334377387858580000011718259499773263291_" cx="966.2786" cy="25.6584" r="38.0459" gradientTransform="matrix(1.1591 0 0 1.1201 -74.4767 16.3037)" gradientUnits="userSpaceOnUse">
		<stop  offset="0.2446" style="stop-color:#FFFFFF"/>
		<stop  offset="1" style="stop-color:#E7DBE5"/>
	</radialGradient>
	
		<ellipse style="fill:url(#SVGID_00000131354334377387858580000011718259499773263291_);" cx="1038.9" cy="70" rx="22.2" ry="21.4"/>
	
		<radialGradient id="SVGID_00000121249839796320202010000004792651420639471033_" cx="954.8121" cy="28.8226" r="38.0459" gradientTransform="matrix(1.1591 0 0 1.1201 -74.4767 16.3037)" gradientUnits="userSpaceOnUse">
		<stop  offset="0" style="stop-color:#FFFFFF"/>
		<stop  offset="1" style="stop-color:#E7DBE5"/>
	</radialGradient>
	
		<ellipse style="fill:url(#SVGID_00000121249839796320202010000004792651420639471033_);" cx="1025.6" cy="73.5" rx="22.2" ry="21.4"/>
	
		<radialGradient id="SVGID_00000019639753972936713000000004545576868554127287_" cx="1011.8959" cy="33.8999" r="79.1538" gradientUnits="userSpaceOnUse">
		<stop  offset="0.4394" style="stop-color:#FFFFFF"/>
		<stop  offset="1" style="stop-color:#E7DBE5"/>
	</radialGradient>
	<circle style="fill:url(#SVGID_00000019639753972936713000000004545576868554127287_);" cx="1002.9" cy="68.8" r="30"/>
</g>
</svg>
