<svg xmlns="http://www.w3.org/2000/svg" width="751.815" height="447.952" viewBox="0 0 751.815 447.952">
  <g id="OBJECTS" transform="translate(-52.88 -53.36)">
    <g id="Grupo_1083515" data-name="Grupo 1083515" transform="translate(235.12 87.23)">
      <ellipse id="Elipse_4903" data-name="Elipse 4903" cx="195.5" cy="200.5" rx="195.5" ry="200.5" transform="translate(0 -0.001)" fill="#ffa686"/>
      <ellipse id="Elipse_4904" data-name="Elipse 4904" cx="186.5" cy="187.5" rx="186.5" ry="187.5" transform="translate(9 12.999)" fill="#fff"/>
      <g id="Grupo_1083514" data-name="Grupo 1083514" transform="translate(88.555 101.487)">
        <g id="Grupo_1083513" data-name="Grupo 1083513" transform="translate(43.446 53.262)">
          <rect id="Rectángulo_34605" data-name="Rectángulo 34605" width="128.62" height="72.203" transform="translate(0 4.751)" fill="none"/>
          <g id="Grupo" transform="translate(1.881)">
            <text id="Beneficios_de_" data-name="Beneficios de " transform="translate(17.381 15)" fill="#142a3f" font-size="14" font-family="Roboto-BoldItalic, Roboto" font-weight="700" font-style="italic"><tspan x="0" y="0">Beneficios de </tspan></text>
            <text id="tener_un_manual_" data-name="tener un manual " transform="translate(8.178 33.236)" fill="#142a3f" font-size="14" font-family="Roboto-BoldItalic, Roboto" font-weight="700" font-style="italic"><tspan x="0" y="0">tener un manual </tspan></text>
            <text id="de_procedimientos" data-name="de procedimientos" transform="translate(0 51.472)" fill="#142a3f" font-size="14" font-family="Roboto-BoldItalic, Roboto" font-weight="700" font-style="italic"><tspan x="0" y="0">de procedimientos</tspan></text>
          </g>
        </g>
      </g>
    </g>
    <g id="Grupo_1083585" data-name="Grupo 1083585" transform="translate(17.12 16.623)">
      <g id="Grupo_1083527" data-name="Grupo 1083527" transform="translate(458.629 385.842)">
        <g id="Grupo_1083526" data-name="Grupo 1083526" transform="translate(20.766 18.961)">
          <g id="Grupo_1083523" data-name="Grupo 1083523">
            <g id="Grupo_1083522" data-name="Grupo 1083522" transform="translate(11.534 11.27)">
              <g id="Grupo_1083521" data-name="Grupo 1083521" transform="translate(5.804 5.878)">
                <circle id="Elipse_4731" data-name="Elipse 4731" cx="30.541" cy="30.541" r="30.541" fill="#fdb70a"/>
              </g>
            </g>
          </g>
          <g id="Grupo_1083525" data-name="Grupo 1083525" transform="translate(19.157 24.276)">
            <g id="Grupo_1083524" data-name="Grupo 1083524" transform="translate(9.258 8.385)">
              <path id="Trazado_124247" data-name="Trazado 124247" d="M496.064,392.521a10.725,10.725,0,0,0-15.16,0l-1.057,1.057-1.079-1.079a10.708,10.708,0,1,0-15.138,15.149l15.414,15.414a1.12,1.12,0,0,0,.782.33,1.148,1.148,0,0,0,.782-.319l15.436-15.392a10.66,10.66,0,0,0,3.138-7.586,10.523,10.523,0,0,0-3.116-7.575Zm-1.574,13.6-14.665,14.61L465.192,406.1A8.494,8.494,0,1,1,477.2,394.084l1.85,1.85a1.09,1.09,0,0,0,1.563,0l1.839-1.839a8.505,8.505,0,0,1,12.034,12.023Zm0,0" transform="translate(-460.48 -389.35)" fill="#fff"/>
            </g>
          </g>
        </g>
      </g>
      <g id="Grupo_1083540" data-name="Grupo 1083540" transform="translate(550.846 180.564)">
        <g id="Grupo_1083539" data-name="Grupo 1083539" transform="translate(20.766 18.653)">
          <g id="Grupo_1083535" data-name="Grupo 1083535">
            <g id="Grupo_1083534" data-name="Grupo 1083534" transform="translate(11.534 11.534)">
              <g id="Grupo_1083533" data-name="Grupo 1083533" transform="translate(5.837 5.856)">
                <circle id="Elipse_4733" data-name="Elipse 4733" cx="30.541" cy="30.541" r="30.541" fill="#ffb90b"/>
              </g>
            </g>
          </g>
          <g id="Grupo_1083538" data-name="Grupo 1083538" transform="translate(17.89 20.268)">
            <g id="Grupo_1083537" data-name="Grupo 1083537" transform="translate(9.445 8.396)">
              <g id="Grupo_1083536" data-name="Grupo 1083536">
                <path id="Trazado_124249" data-name="Trazado 124249" d="M572.41,240.321a6.918,6.918,0,0,0-5.461,2.686L556.358,237.1a6.815,6.815,0,0,0,.385-2.268,6.527,6.527,0,0,0-.4-2.279l10.58-5.912a6.887,6.887,0,1,0-1.42-4.184,6.527,6.527,0,0,0,.4,2.279l-10.569,5.912a6.885,6.885,0,1,0,.011,8.367l10.58,5.912a6.889,6.889,0,1,0,6.485-4.6Zm0-22.6a4.734,4.734,0,1,1-4.734,4.734,4.741,4.741,0,0,1,4.734-4.734ZM549.862,239.55a4.734,4.734,0,1,1,4.734-4.734,4.741,4.741,0,0,1-4.734,4.734Zm22.548,12.386a4.734,4.734,0,1,1,4.734-4.734,4.741,4.741,0,0,1-4.734,4.734Zm0,0" transform="translate(-542.97 -215.56)" fill="#fff"/>
              </g>
            </g>
          </g>
        </g>
      </g>
      <g id="Grupo_1083553" data-name="Grupo 1083553" transform="translate(75.835 385.842)">
        <g id="Grupo_1083552" data-name="Grupo 1083552" transform="translate(177.193 18.917)">
          <g id="Grupo_1083548" data-name="Grupo 1083548">
            <g id="Grupo_1083547" data-name="Grupo 1083547" transform="translate(11.534 11.27)">
              <g id="Grupo_1083546" data-name="Grupo 1083546" transform="translate(4.997 5.137)">
                <circle id="Elipse_4735" data-name="Elipse 4735" cx="30.541" cy="30.541" r="30.541" transform="matrix(0.026, -1, 1, 0.026, 0, 61.058)" fill="#fdb70a"/>
              </g>
            </g>
          </g>
          <g id="Grupo_1083551" data-name="Grupo 1083551" transform="translate(21.369 25.377)">
            <g id="Grupo_1083550" data-name="Grupo 1083550" transform="translate(9.335 8.451)">
              <g id="Grupo_1083549" data-name="Grupo 1083549">
                <path id="Trazado_124251" data-name="Trazado 124251" d="M307.079,389.37H278.465a4.642,4.642,0,0,0-4.635,4.635v19.553a4.633,4.633,0,0,0,4.635,4.624h28.6a4.64,4.64,0,0,0,4.635-4.624V394.016a4.635,4.635,0,0,0-4.624-4.646Zm2.51,24.177a2.509,2.509,0,0,1-2.51,2.51H278.465a2.509,2.509,0,0,1-2.51-2.51V394.005a2.509,2.509,0,0,1,2.51-2.51h28.6a2.509,2.509,0,0,1,2.51,2.51l.011,19.542Zm0,0" transform="translate(-273.83 -389.37)" fill="#fff"/>
                <path id="Trazado_124252" data-name="Trazado 124252" d="M297.32,403.162l9.259-8.3a1.06,1.06,0,1,0-1.42-1.574l-12.771,11.461-2.488-2.224c-.011-.011-.011-.011-.011-.022-.055-.055-.11-.1-.176-.154l-10.14-9.072a1.061,1.061,0,1,0-1.409,1.585l9.369,8.378-9.325,8.731a1.06,1.06,0,0,0-.044,1.5,1.08,1.08,0,0,0,.771.341,1.056,1.056,0,0,0,.716-.286l9.468-8.863,2.565,2.29a1.055,1.055,0,0,0,1.409-.011l2.642-2.367,9.413,8.951a1.032,1.032,0,0,0,.727.286,1.057,1.057,0,0,0,.727-1.828Zm0,0" transform="translate(-273.429 -389.003)" fill="#fff"/>
              </g>
            </g>
          </g>
        </g>
      </g>
      <g id="Grupo_1083566" data-name="Grupo 1083566" transform="translate(0 194.881)">
        <g id="Grupo_1083565" data-name="Grupo 1083565" transform="translate(177.457 18.917)">
          <g id="Grupo_1083561" data-name="Grupo 1083561">
            <g id="Grupo_1083560" data-name="Grupo 1083560" transform="translate(11.27 11.27)">
              <g id="Grupo_1083559" data-name="Grupo 1083559" transform="translate(5.893 5.966)">
                <circle id="Elipse_4737" data-name="Elipse 4737" cx="30.541" cy="30.541" r="30.541" fill="#fdb70a"/>
              </g>
            </g>
          </g>
          <g id="Grupo_1083564" data-name="Grupo 1083564" transform="translate(22.56 20.182)">
            <g id="Grupo_1083563" data-name="Grupo 1083563" transform="translate(8.627 7.8)">
              <g id="Grupo_1083562" data-name="Grupo 1083562">
                <path id="Trazado_124254" data-name="Trazado 124254" d="M237.425,229.585A18.042,18.042,0,0,0,210.77,253.85a6.915,6.915,0,0,1-2.9,3.2,1.695,1.695,0,0,0,.484,3.193,9.1,9.1,0,0,0,1.431.11,10.814,10.814,0,0,0,6.353-2.1,18.045,18.045,0,0,0,21.282-28.669Zm-1.464,24.067a15.978,15.978,0,0,1-19.4,2.488,1.033,1.033,0,0,0-1.255.165.171.171,0,0,0-.088.066,8.776,8.776,0,0,1-5.439,1.938h-.011a10.069,10.069,0,0,0,3.094-4.118,1.059,1.059,0,0,0,.055-.661,1.109,1.109,0,0,0-.253-.584,15.986,15.986,0,1,1,23.3.7Zm0,0" transform="translate(-206.628 -224.3)" fill="#fff"/>
                <path id="Trazado_124255" data-name="Trazado 124255" d="M224.392,240.806a1.266,1.266,0,1,1-1.266-1.266,1.266,1.266,0,0,1,1.266,1.266Zm0,0" transform="translate(-205.09 -222.761)" fill="#fff"/>
                <path id="Trazado_124256" data-name="Trazado 124256" d="M230.322,240.806a1.266,1.266,0,1,1-1.266-1.266,1.266,1.266,0,0,1,1.266,1.266Zm0,0" transform="translate(-204.491 -222.761)" fill="#fff"/>
                <path id="Trazado_124257" data-name="Trazado 124257" d="M218.452,240.806a1.266,1.266,0,1,1-1.266-1.266,1.266,1.266,0,0,1,1.266,1.266Zm0,0" transform="translate(-205.69 -222.761)" fill="#fff"/>
              </g>
            </g>
          </g>
        </g>
      </g>
      <g id="Grupo_1083584" data-name="Grupo 1083584" transform="translate(35.76)">
        <g id="Grupo_1083574" data-name="Grupo 1083574">
          <g id="Grupo_1083572" data-name="Grupo 1083572" transform="translate(0 240.011)">
            <g id="Grupo_1083571" data-name="Grupo 1083571" transform="translate(69.24 -2)">
              <g id="Grupo_1083570" data-name="Grupo 1083570" transform="translate(467.238 -5)">
                <g id="Grupo_1083569" data-name="Grupo 1083569" transform="translate(-6 195.525)">
                  <rect id="Rectángulo_34623" data-name="Rectángulo 34623" width="142.389" height="49.181" transform="translate(0 4.952)" fill="none"/>
                  <g id="Grupo-2" data-name="Grupo" transform="translate(9.696 2)">
                    <text id="Mejorar_y_optimizar_" data-name="Mejorar y optimizar " transform="translate(0 16)" fill="#12263f" font-size="15" font-family="Roboto-BoldItalic, Roboto" font-weight="700" font-style="italic"><tspan x="0" y="0">Mejorar y optimizar </tspan></text>
                    <text id="los_procesos" data-name="los procesos" transform="translate(45.944 33.01)" fill="#12263f" font-size="15" font-family="Roboto-BoldItalic, Roboto" font-weight="700" font-style="italic"><tspan x="0" y="0">los procesos</tspan></text>
                  </g>
                </g>
                <rect id="Rectángulo_34624" data-name="Rectángulo 34624" width="142.389" height="49.181" transform="translate(70.98 4.958)" fill="none"/>
                <g id="Grupo-3" data-name="Grupo" transform="translate(90.844)">
                  <text id="Facilitar_la_" data-name="Facilitar la " transform="translate(51.493 9)" fill="#12263f" font-size="15" font-family="Roboto-BoldItalic, Roboto" font-weight="700" font-style="italic"><tspan x="0" y="0">Facilitar la </tspan></text>
                  <text id="comunicación_y_la_" data-name="comunicación y la " transform="translate(0 24.01)" fill="#12263f" font-size="15" font-family="Roboto-BoldItalic, Roboto" font-weight="700" font-style="italic"><tspan x="0" y="0">comunicación y la </tspan></text>
                  <text id="unificación_de_" data-name="unificación de " transform="translate(26.798 39.02)" fill="#12263f" font-size="15" font-family="Roboto-BoldItalic, Roboto" font-weight="700" font-style="italic"><tspan x="0" y="0">unificación de </tspan></text>
                  <text id="criterios" transform="translate(65.937 52.029)" fill="#12263f" font-size="15" font-family="Roboto-BoldItalic, Roboto" font-weight="700" font-style="italic"><tspan x="0" y="0">criterios</tspan></text>
                </g>
              </g>
              <rect id="Rectángulo_34625" data-name="Rectángulo 34625" width="142.389" height="49.181" transform="translate(0 197.497)" fill="none"/>
              <g id="Grupo-4" data-name="Grupo" transform="translate(24.351 192.54)">
                <text id="Disminuir_tiempos_" data-name="Disminuir tiempos " transform="translate(0 16)" fill="#12263f" font-size="15" font-family="Roboto-BoldItalic, Roboto" font-weight="700" font-style="italic"><tspan x="0" y="0">Disminuir tiempos </tspan></text>
                <text id="de_formación_" data-name="de formación " transform="translate(34.097 32.01)" fill="#12263f" font-size="15" font-family="Roboto-BoldItalic, Roboto" font-weight="700" font-style="italic"><tspan x="0" y="0">de formación </tspan></text>
                <text id="_capacitación" data-name="/capacitación" transform="translate(31.717 46.02)" fill="#12263f" font-size="15" font-family="Roboto-BoldItalic, Roboto" font-weight="700" font-style="italic"><tspan x="0" y="0">/capacitación</tspan></text>
              </g>
            </g>
            <rect id="Rectángulo_34626" data-name="Rectángulo 34626" width="142.389" height="49.181" transform="translate(0 15.01)" fill="none"/>
            <g id="Grupo-5" data-name="Grupo" transform="translate(24.961 10.053)">
              <text id="Eliminación_de_" data-name="Eliminación de " transform="translate(20.368 9)" fill="#12263f" font-size="15" font-family="Roboto-BoldItalic, Roboto" font-weight="700" font-style="italic"><tspan x="0" y="0">Eliminación de </tspan></text>
              <text id="concentración_de_" data-name="concentración de " transform="translate(0 23.01)" fill="#12263f" font-size="15" font-family="Roboto-BoldItalic, Roboto" font-weight="700" font-style="italic"><tspan x="0" y="0">concentración de </tspan></text>
              <text id="_Yo_se_" data-name="“Yo se”" transform="translate(67.545 22.02)" fill="#12263f" font-size="15" font-family="Roboto-BoldItalic, Roboto" font-weight="700" font-style="italic"><tspan x="0" y="14">“Yo se”</tspan></text>
            </g>
          </g>
          <g id="Grupo_1083573" data-name="Grupo 1083573" transform="translate(251.539 38.736)">
            <rect id="Rectángulo_34627" data-name="Rectángulo 34627" width="142.389" height="49.181" transform="translate(0 4.958)" fill="none"/>
            <g id="Grupo-6" data-name="Grupo" transform="translate(25.077)">
              <text id="Dejar_por_escrito_" data-name="Dejar por escrito " transform="translate(4.624 12)" fill="#12263f" font-size="15" font-family="Roboto-BoldItalic, Roboto" font-weight="700" font-style="italic"><tspan x="0" y="0">Dejar por escrito </tspan></text>
              <text id="procesos_críticos" data-name="procesos críticos" transform="translate(1 27.01)" fill="#12263f" font-size="15" font-family="Roboto-BoldItalic, Roboto" font-weight="700" font-style="italic"><tspan x="0" y="0">procesos críticos</tspan></text>
            </g>
          </g>
        </g>
        <g id="Grupo_1083583" data-name="Grupo 1083583" transform="translate(393.756 21.308)">
          <g id="Grupo_1083579" data-name="Grupo 1083579">
            <g id="Grupo_1083578" data-name="Grupo 1083578" transform="translate(11.27 11.27)">
              <g id="Grupo_1083577" data-name="Grupo 1083577" transform="translate(5.067 5.107)">
                <circle id="Elipse_4739" data-name="Elipse 4739" cx="30.541" cy="30.541" r="30.541" transform="matrix(0.026, -1, 1, 0.026, 0, 61.058)" fill="#edab0a"/>
              </g>
            </g>
          </g>
          <g id="Grupo_1083582" data-name="Grupo 1083582" transform="translate(19.157 17.307)">
            <g id="Grupo_1083581" data-name="Grupo 1083581" transform="translate(9.434 8.374)">
              <g id="Grupo_1083580" data-name="Grupo 1083580">
                <path id="Trazado_124259" data-name="Trazado 124259" d="M461.124,79.052l-2.951-.5a16.7,16.7,0,0,0-1.189-2.863l1.74-2.433a2.593,2.593,0,0,0-.275-3.347L455.84,67.3a2.573,2.573,0,0,0-1.839-.76,2.532,2.532,0,0,0-1.5.484l-2.433,1.74a16.941,16.941,0,0,0-2.962-1.222l-.5-2.918a2.592,2.592,0,0,0-2.565-2.169H440.36a2.592,2.592,0,0,0-2.565,2.169l-.506,2.984a17.006,17.006,0,0,0-2.852,1.2l-2.411-1.74a2.565,2.565,0,0,0-1.508-.484,2.6,2.6,0,0,0-1.839.76l-2.62,2.609a2.6,2.6,0,0,0-.275,3.347l1.751,2.466a15.877,15.877,0,0,0-1.167,2.874l-2.918.5a2.592,2.592,0,0,0-2.169,2.565v3.688a2.592,2.592,0,0,0,2.169,2.565l2.984.506a17.007,17.007,0,0,0,1.2,2.852l-1.729,2.4a2.593,2.593,0,0,0,.275,3.347l2.609,2.609a2.573,2.573,0,0,0,1.839.76,2.532,2.532,0,0,0,1.5-.484l2.466-1.751a17.5,17.5,0,0,0,2.774,1.145l.5,2.951a2.592,2.592,0,0,0,2.565,2.169h3.7a2.592,2.592,0,0,0,2.565-2.169l.5-2.951a16.7,16.7,0,0,0,2.863-1.189l2.433,1.74a2.565,2.565,0,0,0,1.508.484,2.619,2.619,0,0,0,1.839-.76l2.609-2.609a2.6,2.6,0,0,0,.275-3.347l-1.74-2.444a17.069,17.069,0,0,0,1.189-2.863l2.951-.5a2.592,2.592,0,0,0,2.169-2.565V81.606a2.569,2.569,0,0,0-2.158-2.554Zm-.2,6.254a.236.236,0,0,1-.187.231l-3.688.617a1.168,1.168,0,0,0-.947.87,13.763,13.763,0,0,1-1.53,3.677,1.167,1.167,0,0,0,.055,1.288l2.169,3.05a.233.233,0,0,1-.022.3l-2.609,2.609a.2.2,0,0,1-.165.066.236.236,0,0,1-.132-.044L450.83,95.8a1.187,1.187,0,0,0-1.288-.055,14.358,14.358,0,0,1-3.677,1.53,1.167,1.167,0,0,0-.87.947l-.628,3.688a.236.236,0,0,1-.231.2h-3.688a.235.235,0,0,1-.231-.2L439.6,98.22a1.168,1.168,0,0,0-.87-.947,14.419,14.419,0,0,1-3.6-1.475,1.17,1.17,0,0,0-.595-.154,1.1,1.1,0,0,0-.683.22l-3.072,2.18a.313.313,0,0,1-.132.044.247.247,0,0,1-.165-.066l-2.609-2.609a.232.232,0,0,1-.022-.3l2.158-3.028a1.207,1.207,0,0,0,.055-1.3,13.937,13.937,0,0,1-1.541-3.666,1.2,1.2,0,0,0-.947-.87l-3.71-.628a.236.236,0,0,1-.2-.231V81.705a.235.235,0,0,1,.2-.231l3.655-.617a1.193,1.193,0,0,0,.958-.881,14.114,14.114,0,0,1,1.5-3.688,1.149,1.149,0,0,0-.066-1.277l-2.18-3.072a.233.233,0,0,1,.022-.3l2.609-2.609a.2.2,0,0,1,.165-.066.236.236,0,0,1,.132.044l3.028,2.158a1.207,1.207,0,0,0,1.3.055,13.937,13.937,0,0,1,3.666-1.541,1.2,1.2,0,0,0,.87-.947l.628-3.71a.236.236,0,0,1,.231-.2h3.688a.235.235,0,0,1,.231.2l.617,3.655a1.193,1.193,0,0,0,.881.958,14.2,14.2,0,0,1,3.765,1.541,1.167,1.167,0,0,0,1.288-.055l3.028-2.18a.313.313,0,0,1,.132-.044.247.247,0,0,1,.165.066l2.609,2.609a.232.232,0,0,1,.022.3l-2.169,3.039a1.187,1.187,0,0,0-.055,1.288,14.36,14.36,0,0,1,1.53,3.677,1.183,1.183,0,0,0,.947.87l3.688.628a.236.236,0,0,1,.2.231l-.022,3.7Zm0,0" transform="translate(-421.28 -62.46)" fill="#fff"/>
                <path id="Trazado_124260" data-name="Trazado 124260" d="M441.191,73.29a9.061,9.061,0,1,0,9.061,9.061,9.069,9.069,0,0,0-9.061-9.061Zm0,15.755a6.694,6.694,0,1,1,6.694-6.694,6.7,6.7,0,0,1-6.694,6.694Zm0,0" transform="translate(-420.184 -61.366)" fill="#fff"/>
              </g>
            </g>
          </g>
        </g>
      </g>
    </g>
  </g>
</svg>
