<svg xmlns="http://www.w3.org/2000/svg" xmlns:xlink="http://www.w3.org/1999/xlink" width="41.998" height="99.747" viewBox="0 0 41.998 99.747">
  <defs>
    <clipPath id="clip-path">
      <rect id="Rectángulo_347796" data-name="Rectángulo 347796" width="41.998" height="99.747" fill="none"/>
    </clipPath>
  </defs>
  <g id="Grupo_1005318" data-name="Grupo 1005318" clip-path="url(#clip-path)">
    <path id="Trazado_643915" data-name="Trazado 643915" d="M18.619,124.411c.779-7.876,2.316-15.713,1.426-23.661a48.933,48.933,0,0,0-2.511-11.007,32.889,32.889,0,0,0-4.77-9.335c-1.719-2.17-4.329-4.9-7.395-4.415C2.8,76.4,1.121,78.785.409,81.118c-2.171,7.085,4.826,12.251,8.9,16.95,4.944,5.711,7.356,12.725,8.067,20.054a12.586,12.586,0,0,0,.1,6.391.6.6,0,0,0,1.142-.1" transform="translate(0 -26.775)" fill="#add031"/>
    <path id="Trazado_643916" data-name="Trazado 643916" d="M36.123,41.967q.042,5.592.354,11.171a102.3,102.3,0,0,0,1.27,10.5c.332,2.109.576,4.22.964,6.32.164.887.343,1.773.543,2.652.069.312.1.945.4,1.157a.5.5,0,0,0,.484.059.407.407,0,0,0,.1.008l.133-.03a.537.537,0,0,0,.222-.153l-.085.076c.075-.067.164-.128.233-.2.041-.044.077-.093.117-.139a3.019,3.019,0,0,1,.249-.258l.065-.054c.464.205,1.116-.025.994-.658-2.358-12.314-.106-24.829,2.51-36.9a90.3,90.3,0,0,1,2.787-10.171c1.1-3.232,2.728-6.212,3.985-9.387,1.371-3.462,3.154-6.986,3.273-10.787.1-3.042-1.91-5.8-5.241-5.035-3.238.741-5.676,4.125-7.133,6.893-2.575,4.891-3.939,10.659-4.832,16.072a111.056,111.056,0,0,0-1.4,18.874" transform="translate(-12.734 0)" fill="#add031"/>
    <path id="Trazado_643917" data-name="Trazado 643917" d="M9.786,83.221c5.433,6.307,10.31,13.755,11.506,22.152a59.754,59.754,0,0,1,.27,11.96c-.116,1.964-.377,3.906-.615,5.856a15.75,15.75,0,0,0-.1,5.623c.063.26.452.19.493-.043.373-2.112.453-4.279.754-6.4.295-2.077.469-4.149.559-6.245a56,56,0,0,0-.488-12.014c-1.4-8.051-6.336-15.509-12.086-21.153-.161-.157-.445.093-.3.268" transform="translate(-3.436 -29.231)" fill="#4f9638"/>
    <path id="Trazado_643918" data-name="Trazado 643918" d="M51.4,3.336a11.993,11.993,0,0,0-3.152,4.7c-1.036,2.215-2.265,4.323-3.267,6.556a71.223,71.223,0,0,0-4.367,14.62,124.7,124.7,0,0,0-2.664,29.97c.166,5.066.515,10.669,2.882,15.236.185.358.662.031.581-.3a61.9,61.9,0,0,1-2.224-13.495c-.118-4.777-.154-9.538.181-14.31C39.7,41.616,40.408,37,41.2,32.362A91.914,91.914,0,0,1,44.51,17.81a43.752,43.752,0,0,1,3.472-7.463c1.219-2.133,1.846-4.854,3.807-6.456.334-.273-.039-.825-.384-.555Z" transform="translate(-13.359 -1.151)" fill="#4f9638"/>
  </g>
</svg>
