<svg xmlns="http://www.w3.org/2000/svg" xmlns:xlink="http://www.w3.org/1999/xlink" width="130" height="130" viewBox="0 0 130 130">
  <defs>
    <clipPath id="clip-path">
      <rect id="Rect치ngulo_361647" data-name="Rect치ngulo 361647" width="70.219" height="75.06" fill="none"/>
    </clipPath>
  </defs>
  <g id="img99" transform="translate(-995 -1986.633)">
    <g id="Grupo_86327" data-name="Grupo 86327" transform="translate(0 -5519.367)">
      <circle id="Elipse_4924" data-name="Elipse 4924" cx="53" cy="53" r="53" transform="translate(1007 7521)" fill="#eff5d6"/>
      <g id="Grupo_86323" data-name="Grupo 86323" transform="translate(675 -27)">
        <rect id="Rect치ngulo_34475" data-name="Rect치ngulo 34475" width="130" height="130" transform="translate(320 7533)" fill="none"/>
      </g>
    </g>
    <g id="Grupo_1084176" data-name="Grupo 1084176" transform="translate(1027.781 2015.103)">
      <g id="Grupo_1083990" data-name="Grupo 1083990" clip-path="url(#clip-path)">
        <path id="Trazado_716737" data-name="Trazado 716737" d="M2.818,75.061c-.1-.27-.384-.2-.575-.3A3.623,3.623,0,0,1,.012,71.38q-.025-11.337,0-22.674a3.689,3.689,0,0,1,3.681-3.67c2.71-.013,5.42-.026,8.13.013.607.009.708-.171.707-.733q-.026-17.084-.013-34.167a3.6,3.6,0,0,1,3.868-3.9c2.736,0,5.472-.009,8.208.008a.853.853,0,0,0,.9-.516,3.6,3.6,0,0,1,3.675-1.983,1.163,1.163,0,0,0,1.365-.845A4.618,4.618,0,0,1,35.177,0,4.675,4.675,0,0,1,39.6,3.034c.224.518.429.778,1.046.725A3.768,3.768,0,0,1,44.714,6c.18.379.482.243.738.244,2.788.01,5.576,0,8.364.008a3.574,3.574,0,0,1,3.729,3.729q.007,4.691,0,9.382v.736l.131.026c.486-1.016.976-2.029,1.456-3.047A2.652,2.652,0,0,1,60.959,15.5c.351-.081.454-.29.577-.547.492-1.029.976-2.063,1.48-3.086a3.77,3.77,0,1,1,6.8,3.248c-.281.613-.573,1.221-.867,1.828-.419.865-1,1.656-.492,2.74a1.943,1.943,0,0,1-.232,1.654c-.243.458-.448.936-.67,1.405a5.518,5.518,0,0,0-.665,1.48c-.081.617.7.67,1.024,1.078a3.689,3.689,0,0,1,.629,4.014c-1.51,3.3-3.1,6.566-4.679,9.837a1.225,1.225,0,0,1-1.725.715,1.268,1.268,0,0,1-.527-1.856q2.215-4.675,4.459-9.337a1.583,1.583,0,0,0,.18-1.269c-.088-.243-.226-.535-.486-.573-.291-.043-.3.306-.4.5Q62.926,32.417,60.5,37.511c-.894,1.872-1.78,3.749-2.69,5.613a2.612,2.612,0,0,0-.27,1.194q.012,10.946.005,21.892A3.594,3.594,0,0,1,53.7,70.056q-11.413,0-22.826-.013c-.631,0-.918.068-.862.814.163,2.179-.962,3.51-2.954,4.2ZM45.66,55.978q1.839-1.484,3.679-2.968c.4-.323.475-.558-.095-.8-.858-.364-1.69-.787-2.532-1.187-.255-.121-.544-.231-.562.19-.071,1.6-.567,3.156-.485,4.77l-.041.061.036-.066m4.373-.239c-.293.233-.488.385-.679.542Q47.092,58.141,44.833,60a1.317,1.317,0,0,1-1.579.223,1.24,1.24,0,0,1-.6-1.4c.292-2.3.537-4.6.877-6.887.09-.608-.053-.667-.584-.664-3.361.021-6.723.012-10.084.01-1.009,0-1.559-.427-1.582-1.215-.024-.821.545-1.286,1.586-1.287,3.492,0,6.984-.011,10.476.011a.872.872,0,0,0,.935-.588c1.84-3.889,3.708-7.764,5.566-11.644a1.837,1.837,0,0,0,.207-.816q-.012-10.282-.01-20.564a1.277,1.277,0,0,0-1.455-1.429c-1.329-.011-2.658.008-3.987-.01a1.189,1.189,0,0,0-.9.341A3.46,3.46,0,0,1,41.278,15q-6.254,0-12.508,0a2.558,2.558,0,0,1-1.834-.527c-.833-.838-1.814-.729-2.811-.726-.86,0-1.72,0-2.58,0-1.06.008-1.524.462-1.524,1.518q0,14.583-.013,29.165c0,.471.1.617.593.608,1.823-.033,3.648-.015,5.472-.013A3.745,3.745,0,0,1,30.025,49c0,4.248.015,8.5-.014,12.745,0,.622.1.825.783.818,3.986-.038,7.974-.019,11.961-.019,1.954,0,3.909.007,5.863,0,.83,0,1.386-.42,1.4-1.154.04-1.838.013-3.679.013-5.653m-22.51,4.387q0-5.473,0-10.945c0-1.194-.456-1.64-1.658-1.644-1.277,0-2.554.03-3.83-.015-.6-.021-.788.134-.781.764.034,3.205.018,6.411.015,9.616,0,2.173-1.766,3.437-3.694,2.429a5.14,5.14,0,0,0-5.16.02c-1.9.959-3.652-.293-3.654-2.416,0-3.205-.022-6.411.016-9.616.008-.672-.193-.825-.827-.8-1.249.051-2.5.013-3.751.016s-1.691.437-1.692,1.688q0,10.828,0,21.656c0,1.241.444,1.677,1.7,1.678q10.787,0,21.573,0c1.308,0,1.738-.426,1.739-1.721q0-5.355,0-10.711m23.8-9.706c.31.07.312-.229.384-.379Q57.449,38.07,63.177,26.093c.188-.391.151-.577-.246-.769q-1.752-.845-3.472-1.754c-.373-.2-.551-.209-.756.221Q52.978,35.815,47.213,47.82c-.22.459-.088.618.316.8,1.155.523,2.295,1.081,3.44,1.625.117.055.232.113.357.174M15.015,27.289V43.467c0,1.566,0,1.525,1.577,1.584.728.027.947-.128.945-.91Q17.49,29.6,17.519,15.068a3.725,3.725,0,0,1,3.79-3.816c.625,0,1.25,0,1.875,0,1.863,0,1.835,0,1.854-1.852.006-.583-.2-.666-.712-.661-2.578.025-5.157.011-7.736.012-1.211,0-1.574.365-1.575,1.581q0,8.48,0,16.959M55.044,49.217l-.114-.025c-.115.217-.238.431-.343.652a27.142,27.142,0,0,1-1.537,3.142,3.4,3.4,0,0,0-.511,2.031c.013,1.953,0,3.906,0,5.859,0,2.659-1.5,4.175-4.137,4.175H31.768c-1.747,0-1.713,0-1.759,1.712-.018.655.16.808.808.806,7.551-.025,15.1-.016,22.652-.016,1.206,0,1.574-.37,1.575-1.582q0-8.047,0-16.094ZM35.029,6.247c-1.98,0-3.961-.007-5.941,0a1.378,1.378,0,0,0-1.561,1.522q-.02,1.6,0,3.205A1.377,1.377,0,0,0,29.089,12.5q5.941.01,11.881,0c1.053,0,1.554-.526,1.563-1.6.008-.99,0-1.981,0-2.971,0-1.2-.49-1.678-1.72-1.68q-2.892,0-5.784,0M18.767,58.139c0-3.464-.008-6.794.01-10.124,0-.462-.214-.487-.57-.485-2.107.01-4.215.024-6.322-.008-.536-.008-.635.179-.632.666.019,3.175.009,6.35.013,9.524,0,.115-.053.259.156.37.844-.357,1.74-.7,2.6-1.113a2.177,2.177,0,0,1,2.005,0c.865.4,1.755.75,2.742,1.166M52.542,30.547l.155.018c.738-1.547,1.471-3.1,2.219-4.638a1.643,1.643,0,0,0,.128-.756q0-7.507,0-15.014c0-1-.422-1.4-1.436-1.406q-3.323-.007-6.645,0c-2.02,0-2,0-1.936,2,.014.434.164.514.548.506.99-.022,1.98-.008,2.971-.007a3.748,3.748,0,0,1,4,4.005q0,7.272,0,14.544v.745M65.975,20.212c.041-.213-.15-.272-.31-.35-1.235-.6-2.475-1.19-3.7-1.8-.311-.155-.473-.08-.609.212-.383.821-.761,1.644-1.17,2.451-.155.305-.115.44.2.59,1.264.6,2.514,1.23,3.768,1.85.134.066.3.222.4.025.484-.975.942-1.962,1.424-2.974m.269-8.026a1.121,1.121,0,0,0-.9.689c-.267.563-.516,1.134-.784,1.7-.852,1.789-1.045,1.368.874,2.349.421.215.667.117.857-.306.416-.923.873-1.828,1.282-2.754.367-.831-.2-1.666-1.329-1.674M37.113,3.708a2.422,2.422,0,0,0-4.163,0Z" transform="translate(0 0)" fill="#070707"/>
        <path id="Trazado_716738" data-name="Trazado 716738" d="M157.64,129.668c0,1.974.027,3.814-.013,5.653-.016.734-.573,1.149-1.4,1.154-1.954.011-3.909,0-5.863,0-3.987,0-7.974-.019-11.96.019-.679.006-.788-.2-.783-.818.029-4.248.017-8.5.014-12.745a3.745,3.745,0,0,0-3.952-3.971c-1.824,0-3.648-.021-5.472.013-.5.009-.594-.137-.593-.608q.022-14.583.013-29.165c0-1.055.465-1.51,1.524-1.518.86-.007,1.72,0,2.58,0,1,0,1.978-.111,2.811.726a2.559,2.559,0,0,0,1.834.527q6.254-.006,12.508,0a3.461,3.461,0,0,0,2.418-.917,1.188,1.188,0,0,1,.9-.341c1.329.018,2.658,0,3.987.01a1.277,1.277,0,0,1,1.455,1.429q.01,10.282.01,20.564a1.837,1.837,0,0,1-.206.817c-1.858,3.88-3.726,7.755-5.566,11.644a.873.873,0,0,1-.935.587c-3.492-.022-6.984-.013-10.475-.011-1.042,0-1.61.465-1.586,1.287.023.788.574,1.214,1.582,1.215,3.361,0,6.723.011,10.085-.01.531,0,.675.056.584.664-.34,2.289-.585,4.591-.877,6.887a1.241,1.241,0,0,0,.6,1.4,1.317,1.317,0,0,0,1.579-.223q2.258-1.865,4.522-3.723c.191-.157.386-.309.679-.542m-15-33.227h8.363a3.326,3.326,0,0,0,.623-.02,1.268,1.268,0,0,0,1.007-1.379,1.282,1.282,0,0,0-1.455-1.1q-8.48,0-16.961,0c-1.045,0-1.613.459-1.594,1.279.019.789.57,1.221,1.574,1.222q4.221,0,8.442,0m-8.716,5c-.782,0-1.563-.006-2.345,0-.978.009-1.449.459-1.454,1.415q-.015,2.345,0,4.69a1.25,1.25,0,0,0,1.394,1.4q2.344.017,4.689,0a1.254,1.254,0,0,0,1.417-1.376q.019-2.384,0-4.768a1.24,1.24,0,0,0-1.355-1.357c-.781-.014-1.563,0-2.345,0m-.013,8.758c-.834,0-1.668-.016-2.5,0a1.2,1.2,0,0,0-1.282,1.268q-.03,2.462,0,4.924a1.218,1.218,0,0,0,1.326,1.305q2.423.023,4.845,0a1.22,1.22,0,0,0,1.324-1.309q.026-2.423,0-4.846a1.238,1.238,0,0,0-1.368-1.344c-.781-.013-1.563,0-2.344,0m13.093-3.753q3.321,0,6.643,0c.93,0,1.477-.46,1.493-1.226.016-.795-.547-1.274-1.522-1.274q-6.6,0-13.209,0c-.981,0-1.539.468-1.53,1.264s.564,1.236,1.559,1.237q3.283,0,6.565,0m-.035,8.758q3.322,0,6.644,0c.976,0,1.54-.476,1.528-1.269-.011-.768-.559-1.23-1.486-1.231q-6.643,0-13.287,0c-.931,0-1.474.458-1.488,1.228-.014.795.549,1.271,1.523,1.272q3.283.005,6.565,0" transform="translate(-107.606 -73.93)" fill="#f2f3f3"/>
        <path id="Trazado_716739" data-name="Trazado 716739" d="M41,315.679q0,5.355,0,10.711c0,1.3-.432,1.721-1.739,1.721q-10.787,0-21.573,0c-1.259,0-1.7-.436-1.7-1.677q0-10.828,0-21.656c0-1.251.439-1.685,1.691-1.688s2.5.035,3.751-.016c.634-.026.836.127.827.8-.038,3.2-.02,6.411-.016,9.616,0,2.123,1.757,3.375,3.654,2.416a5.14,5.14,0,0,1,5.16-.02c1.928,1.008,3.692-.256,3.694-2.429,0-3.205.019-6.411-.015-9.616-.007-.63.18-.785.781-.764,1.275.045,2.553.011,3.83.015,1.2,0,1.656.451,1.658,1.644q.006,5.473,0,10.945m-17.471,3.674c-1.221,0-2.443-.008-3.664,0a1.254,1.254,0,1,0-.006,2.5q3.625.014,7.25,0a1.255,1.255,0,1,0,.006-2.5c-1.2-.011-2.391,0-3.586,0m-.044,3.753c-1.2,0-2.391-.006-3.586,0-.873.006-1.393.462-1.414,1.212-.021.783.516,1.284,1.418,1.286q3.586.011,7.172,0a1.243,1.243,0,0,0,1.415-1.213c.021-.781-.518-1.279-1.419-1.286-1.2-.008-2.391,0-3.586,0" transform="translate(-13.476 -255.554)" fill="#afafaf"/>
        <path id="Trazado_716740" data-name="Trazado 716740" d="M304.673,176.47c-.125-.061-.241-.119-.357-.175-1.146-.544-2.285-1.1-3.44-1.625-.4-.183-.537-.341-.316-.8q5.766-12,11.49-24.028c.205-.431.383-.42.756-.221q1.717.913,3.472,1.754c.4.191.433.377.246.769q-5.742,11.969-11.466,23.948c-.072.15-.074.449-.384.379" transform="translate(-253.347 -126.051)" fill="#ffa686"/>
        <path id="Trazado_716741" data-name="Trazado 716741" d="M95.768,74.279q0-8.48,0-16.959c0-1.216.364-1.58,1.574-1.581,2.579,0,5.157.013,7.736-.012.513,0,.718.079.712.661-.019,1.851.008,1.852-1.854,1.852-.625,0-1.25,0-1.875,0a3.725,3.725,0,0,0-3.79,3.816q-.007,14.536.019,29.073c0,.782-.217.937-.945.91-1.576-.058-1.577-.018-1.577-1.584V74.279" transform="translate(-80.753 -46.99)" fill="#ffd947"/>
        <path id="Trazado_716742" data-name="Trazado 716742" d="M216.429,313.774v.661q0,8.047,0,16.094c0,1.212-.369,1.582-1.575,1.582-7.551,0-15.1-.008-22.652.016-.648,0-.826-.151-.808-.805.047-1.712.013-1.713,1.759-1.713H209.79c2.635,0,4.136-1.516,4.137-4.175,0-1.953.008-3.906,0-5.859a3.4,3.4,0,0,1,.511-2.031,27.126,27.126,0,0,0,1.537-3.142c.106-.222.228-.435.343-.652l.114.025" transform="translate(-161.385 -264.557)" fill="#ffd947"/>
        <path id="Trazado_716743" data-name="Trazado 716743" d="M183.023,39.83q2.892,0,5.784,0c1.23,0,1.715.476,1.72,1.68,0,.99.007,1.981,0,2.971-.008,1.074-.51,1.6-1.563,1.6q-5.941.011-11.881,0a1.377,1.377,0,0,1-1.561-1.522q-.02-1.6,0-3.205a1.377,1.377,0,0,1,1.561-1.522c1.98-.009,3.961,0,5.941,0" transform="translate(-147.994 -33.583)" fill="#343333"/>
        <path id="Trazado_716744" data-name="Trazado 716744" d="M79.284,313.716c-.986-.416-1.877-.764-2.742-1.166a2.177,2.177,0,0,0-2.005,0c-.859.416-1.755.756-2.6,1.114-.209-.112-.156-.255-.156-.37,0-3.175.006-6.35-.013-9.524,0-.487.1-.674.632-.666,2.107.032,4.215.018,6.322.008.355,0,.572.023.57.485-.018,3.329-.01,6.659-.01,10.124" transform="translate(-60.517 -255.577)" fill="#ffa686"/>
        <path id="Trazado_716745" data-name="Trazado 716745" d="M294.58,77.593v-.745q0-7.272,0-14.544a3.747,3.747,0,0,0-4-4.005c-.99,0-1.981-.015-2.971.007-.384.009-.534-.072-.548-.505-.067-2-.083-2,1.936-2q3.323,0,6.645,0c1.013,0,1.435.409,1.436,1.406q.007,7.507,0,15.014a1.643,1.643,0,0,1-.128.756c-.748,1.542-1.481,3.091-2.219,4.638l-.155-.018" transform="translate(-242.038 -47.047)" fill="#ffd947"/>
        <path id="Trazado_716746" data-name="Trazado 716746" d="M389.166,116.906c-.482,1.012-.94,2-1.424,2.974-.1.2-.267.042-.4-.024-1.254-.62-2.5-1.25-3.768-1.85-.316-.15-.356-.285-.2-.59.409-.807.788-1.631,1.17-2.451.136-.292.3-.367.609-.212,1.229.613,2.469,1.2,3.7,1.8.16.078.351.137.31.35" transform="translate(-323.191 -96.695)" fill="#ffa686"/>
        <path id="Trazado_716747" data-name="Trazado 716747" d="M410.126,77.724c1.131.008,1.7.843,1.329,1.674-.409.926-.866,1.831-1.282,2.754-.191.423-.437.521-.857.306-1.919-.981-1.726-.56-.874-2.349.268-.562.518-1.133.784-1.7a1.12,1.12,0,0,1,.9-.689" transform="translate(-343.882 -65.538)" fill="#333"/>
        <path id="Trazado_716748" data-name="Trazado 716748" d="M291.209,329.8c-.082-1.614.414-3.17.485-4.77.018-.421.307-.312.562-.19.842.4,1.675.823,2.532,1.187.57.242.5.477.095.8q-1.842,1.48-3.679,2.968Z" transform="translate(-245.544 -273.813)" fill="#333"/>
        <path id="Trazado_716749" data-name="Trazado 716749" d="M214.323,17.28H210.16a2.422,2.422,0,0,1,4.163,0" transform="translate(-177.21 -13.573)" fill="#f4f3f3"/>
        <path id="Trazado_716750" data-name="Trazado 716750" d="M291.034,357.031,291,357.1l.041-.061,0,0" transform="translate(-245.374 -301.053)" fill="#333"/>
        <path id="Trazado_716751" data-name="Trazado 716751" d="M169.611,130.12q-4.221,0-8.442,0c-1,0-1.556-.433-1.574-1.222-.019-.82.548-1.279,1.594-1.279q8.481,0,16.961,0a1.281,1.281,0,0,1,1.455,1.1A1.268,1.268,0,0,1,178.6,130.1a3.343,3.343,0,0,1-.624.02h-8.363" transform="translate(-134.573 -107.608)" fill="#070707"/>
        <path id="Trazado_716752" data-name="Trazado 716752" d="M147.413,175.478c.781,0,1.563-.011,2.344,0a1.24,1.24,0,0,1,1.355,1.357q.02,2.384,0,4.768a1.254,1.254,0,0,1-1.417,1.376q-2.345.014-4.689,0a1.25,1.25,0,0,1-1.394-1.4q-.016-2.345,0-4.69c.006-.956.477-1.406,1.455-1.415.781-.007,1.563,0,2.345,0m1.2,3.747c0-1.243,0-1.243-.886-1.244-1.614,0-1.614,0-1.615.906,0,1.6,0,1.6,1,1.6,1.5,0,1.5,0,1.5-1.257" transform="translate(-121.091 -147.962)" fill="#070707"/>
        <path id="Trazado_716753" data-name="Trazado 716753" d="M147.383,231.33c.782,0,1.563-.01,2.345,0a1.238,1.238,0,0,1,1.368,1.344q.022,2.423,0,4.846a1.22,1.22,0,0,1-1.324,1.309q-2.423.024-4.845,0a1.218,1.218,0,0,1-1.326-1.305q-.025-2.462,0-4.924a1.2,1.2,0,0,1,1.282-1.268c.833-.021,1.667,0,2.5,0m0,2.5c-1.289,0-1.289,0-1.289,1.232,0,1.27,0,1.27,1.251,1.27s1.25,0,1.25-1.271c0-1.231,0-1.231-1.212-1.231" transform="translate(-121.074 -195.056)" fill="#070707"/>
        <path id="Trazado_716754" data-name="Trazado 716754" d="M207.614,193.958q-3.283,0-6.565,0c-.994,0-1.55-.447-1.559-1.237s.549-1.263,1.53-1.264q6.6,0,13.209,0c.974,0,1.538.479,1.522,1.274-.016.767-.563,1.224-1.493,1.226q-3.322.007-6.643,0" transform="translate(-168.212 -161.437)" fill="#070808"/>
        <path id="Trazado_716755" data-name="Trazado 716755" d="M207.579,249.817q-3.283,0-6.565,0c-.975,0-1.538-.478-1.523-1.272.013-.77.557-1.227,1.488-1.228q6.643,0,13.287,0c.927,0,1.475.463,1.486,1.231.012.794-.552,1.268-1.528,1.269q-3.322.005-6.643,0" transform="translate(-168.212 -208.538)" fill="#070808"/>
        <path id="Trazado_716756" data-name="Trazado 716756" d="M36.991,406.9c1.2,0,2.391-.008,3.586,0a1.255,1.255,0,1,1-.006,2.5q-3.625.013-7.25,0a1.254,1.254,0,1,1,.006-2.5c1.221-.011,2.443,0,3.664,0" transform="translate(-26.938 -343.105)" fill="#070807"/>
        <path id="Trazado_716757" data-name="Trazado 716757" d="M36.942,430.848c1.2,0,2.391-.006,3.586,0,.9.007,1.441.5,1.419,1.286a1.243,1.243,0,0,1-1.415,1.213q-3.586.011-7.172,0c-.9,0-1.44-.5-1.418-1.286.021-.75.541-1.206,1.414-1.212,1.2-.009,2.391,0,3.586,0" transform="translate(-26.934 -363.295)" fill="#070807"/>
        <path id="Trazado_716758" data-name="Trazado 716758" d="M162.1,192.707c0,1.258,0,1.258-1.5,1.257-1,0-1,0-1-1.6,0-.907,0-.907,1.615-.906.886,0,.886,0,.886,1.244" transform="translate(-134.574 -161.444)" fill="#adce32"/>
        <path id="Trazado_716759" data-name="Trazado 716759" d="M160.887,247.324c1.212,0,1.212,0,1.212,1.231,0,1.271,0,1.271-1.25,1.271s-1.251,0-1.251-1.27c0-1.232,0-1.232,1.289-1.232" transform="translate(-134.575 -208.547)" fill="#adce32"/>
      </g>
    </g>
  </g>
</svg>
