<svg xmlns="http://www.w3.org/2000/svg" xmlns:xlink="http://www.w3.org/1999/xlink" width="130" height="130" viewBox="0 0 130 130">
  <defs>
    <clipPath id="clip-path">
      <rect id="Rect치ngulo_361648" data-name="Rect치ngulo 361648" width="70" height="68.811" fill="none"/>
    </clipPath>
  </defs>
  <g id="img98" transform="translate(-473 -1986.633)">
    <g id="Grupo_86326" data-name="Grupo 86326" transform="translate(0 -5519.367)">
      <circle id="Elipse_4923" data-name="Elipse 4923" cx="53" cy="53" r="53" transform="translate(485 7521)" fill="#ffe9e1"/>
      <g id="Grupo_86320" data-name="Grupo 86320" transform="translate(153 -27)">
        <rect id="Rect치ngulo_34475" data-name="Rect치ngulo 34475" width="130" height="130" transform="translate(320 7533)" fill="none"/>
      </g>
    </g>
    <g id="Grupo_1083992" data-name="Grupo 1083992" transform="translate(509 2022)">
      <g id="Grupo_1083991" data-name="Grupo 1083991" clip-path="url(#clip-path)">
        <path id="Trazado_716760" data-name="Trazado 716760" d="M163.536,247.1q5.246.012,10.491.023c4.129,0,8.258.02,12.387-.015a1.832,1.832,0,0,1,1.726.937c1.5,2.283,3.034,4.538,4.556,6.8v.874a1.615,1.615,0,0,1-1.6.74c-.774-.051-1.558.033-2.331-.026-.607-.046-.752.133-.749.742q.038,9.727,0,19.454c0,.652.146.848.816.824,1.532-.055,1.5-.016,1.55,1.512.023.665-.164.819-.821.818q-21.357-.031-42.713-.016c-.17,0-.341-.008-.51,0-.213.013-.306-.067-.3-.29.017-.653-.176-1.412.1-1.922.2-.368,1.031-.077,1.578-.121a.947.947,0,0,1,.218,0c.349.053.457-.088.447-.44-.029-1.019-.023-2.039-.031-3.058.008-1.651.021-3.3.023-4.953,0-3.959-.011-7.918.015-11.877,0-.554-.145-.7-.686-.674-.823.047-1.652,0-2.478.017a1.24,1.24,0,0,1-1.148-2.1c1.419-2.113,2.841-4.225,4.226-6.36a1.78,1.78,0,0,1,1.68-.892c4.519.022,9.038,0,13.557-.009m1.165,5.055v.566q0,12.057-.013,24.115c0,.544.187.616.663.615q9.8-.022,19.605,0c.6,0,.758-.135.756-.747q-.037-9.762,0-19.525c0-.616-.161-.748-.759-.745-5.442.025-10.884,0-16.326.029a1.755,1.755,0,0,1-1.672-.907c-.679-1.089-1.415-2.143-2.256-3.4m-2.333.009c-.868,1.3-1.622,2.4-2.342,3.52a1.542,1.542,0,0,1-1.444.778c-2.4-.025-4.808.008-7.212-.023-.544-.007-.682.13-.68.677q.031,9.831,0,19.662c0,.55.141.68.682.676,3.424-.026,6.848-.032,10.272,0,.631.007.74-.185.738-.768q-.03-11.87-.013-23.74v-.785m26.963,1.956c-.96-1.444-1.869-2.779-2.739-4.138a1.02,1.02,0,0,0-.989-.538c-6.407.018-12.814.012-19.221.016a.769.769,0,0,0-.582.1c.9,1.346,1.8,2.661,2.654,4.006a1.077,1.077,0,0,0,1.047.566q9.538-.025,19.076-.011Zm-27.994-4.664H150.574c-.19,0-.384-.027-.517.174-.972,1.465-1.948,2.927-2.988,4.49,3.712,0,7.294,0,10.875,0a.512.512,0,0,0,.47-.267c.945-1.43,1.9-2.855,2.924-4.4" transform="translate(-122.696 -210.982)" fill="#050606"/>
        <path id="Trazado_716761" data-name="Trazado 716761" d="M41.276,0a1.674,1.674,0,0,1,.741,1.594Q41.99,17.087,42,32.58c0,1.2,0,1.2-1.165,1.258-1.168-.06-1.168-.06-1.168-1.276q0-14.715.018-29.431c0-.689-.2-.814-.842-.813q-17.818.028-35.636,0c-.67,0-.886.111-.885.845q.036,28.921,0,57.841c0,.7.215.812.845.809,5.9-.023,11.806-.013,17.709-.013,1.209,0,1.209,0,1.295,1.172-.077,1.16-.077,1.16-1.287,1.16H1.644c-1.316,0-1.632-.314-1.632-1.617Q.012,32.055,0,1.6A1.67,1.67,0,0,1,.741,0Z" transform="translate(0)" fill="#050605"/>
        <path id="Trazado_716762" data-name="Trazado 716762" d="M39.236,76.5l-3.474,0c-.086-1.172-.086-1.172-1.295-1.172-5.9,0-11.806-.009-17.709.013-.63,0-.846-.113-.845-.809q.033-28.921,0-57.841c0-.735.216-.846.885-.845q17.818.032,35.636,0c.637,0,.843.124.842.813q-.039,14.715-.018,29.431c0,1.217,0,1.217,1.168,1.276v2.285c-4.519.008-9.038.031-13.557.009a1.779,1.779,0,0,0-1.68.892c-1.386,2.135-2.807,4.247-4.226,6.36a1.24,1.24,0,0,0,1.148,2.1c.826-.019,1.654.03,2.478-.017.54-.031.689.119.686.674-.026,3.959-.012,7.918-.015,11.877,0,1.651-.015,3.3-.023,4.953m-15.2-46.642c1.14,0,2.281.008,3.421,0a1.156,1.156,0,0,0,1.3-1.3,25.911,25.911,0,0,0-.027-3.635,4.8,4.8,0,0,1,1.953-4.7c1.361-1.121,1.264-1.213.023-2.463-.326-.328-.514-.386-.854-.014-.671.733-1.425,1.39-2.09,2.128a1.854,1.854,0,0,1-1.571.668c-1.819-.05-3.639-.023-5.459-.014a1.149,1.149,0,0,0-1.3,1.291q-.013,3.347,0,6.695a1.169,1.169,0,0,0,1.331,1.338c1.092.008,2.184,0,3.276,0m.029,41.977c1.116,0,2.233.006,3.349,0A1.173,1.173,0,0,0,28.76,70.5a28.062,28.062,0,0,0-.025-3.635,4.783,4.783,0,0,1,1.918-4.639c1.426-1.177,1.326-1.271-.015-2.565-.319-.307-.479-.245-.747.032-.791.821-1.62,1.605-2.408,2.429a1.182,1.182,0,0,1-.954.384c-1.917-.017-3.834-.012-5.751-.006-.917,0-1.343.419-1.346,1.321q-.011,3.347,0,6.695c0,.892.438,1.3,1.359,1.31,1.092.007,2.184,0,3.276,0M19.43,39.144c0,1.092,0,2.183,0,3.275,0,1.012.4,1.425,1.389,1.427q3.276.007,6.552,0c.987,0,1.387-.416,1.39-1.427a26.322,26.322,0,0,0-.026-3.489,4.8,4.8,0,0,1,1.938-4.7c1.391-1.139,1.288-1.234,0-2.514-.332-.329-.5-.3-.8.018-.785.826-1.614,1.611-2.406,2.431a1.108,1.108,0,0,1-.889.366c-1.893-.019-3.785-.01-5.678-.008-1.088,0-1.464.387-1.466,1.5q0,1.565,0,3.129m0,14c0,1.092,0,2.183,0,3.275,0,1.01.4,1.421,1.393,1.423q3.276.007,6.552,0c.961,0,1.379-.414,1.385-1.359a26.43,26.43,0,0,0-.026-3.562,4.8,4.8,0,0,1,1.942-4.7c1.388-1.138,1.285-1.232-.01-2.514-.338-.334-.507-.283-.8.025-.787.825-1.615,1.61-2.406,2.431a1.108,1.108,0,0,1-.891.362c-1.868-.018-3.737-.009-5.605-.008-1.162,0-1.532.363-1.534,1.5q0,1.565,0,3.129M41.624,40.349h-6.56c-1.648,0-1.623,0-1.65,1.663-.009.542.127.685.678.682,4.665-.024,9.33-.014,13.994-.014,1.69,0,1.669,0,1.686-1.7,0-.508-.124-.651-.64-.645-2.5.028-5,.013-7.507.013m.017-13.992H35.009c-1.584,0-1.542,0-1.6,1.573-.025.682.207.776.812.773,4.616-.025,9.232-.014,13.849-.014,1.723,0,1.7,0,1.7-1.756,0-.5-.174-.589-.624-.585-2.5.019-5,.009-7.507.009m2.286,11.66h4.154c1.694,0,1.662,0,1.695-1.695.012-.6-.219-.65-.713-.647-3.085.019-6.171.01-9.256.01-1.74,0-1.723,0-1.725,1.731,0,.463.107.621.6.613,1.749-.03,3.5-.012,5.247-.012m.052-16.324H39.752c-1.679,0-1.655,0-1.673,1.714-.005.528.161.633.655.63,3.085-.022,6.171-.011,9.256-.011,1.833,0,1.816,0,1.78-1.823-.009-.428-.145-.521-.544-.517-1.749.019-3.5.008-5.247.008M35.212,68.333c-1.839,0-1.826,0-1.794,1.806.007.4.1.553.524.536.8-.033,1.6-.041,2.4,0,.5.027.594-.158.593-.615,0-1.728.014-1.728-1.726-1.728M34.63,49.677c-1.2,0-1.2,0-1.2,1.148,0,1.184,0,1.184,1.167,1.184s1.166,0,1.166-1.185c0-1.147,0-1.147-1.13-1.147m1.13-12.784c0-1.207,0-1.207-.852-1.208-1.481,0-1.481,0-1.481.87,0,1.462,0,1.462.888,1.463,1.445,0,1.445,0,1.445-1.124m-1.118-15.2c-1.215,0-1.215,0-1.215,1.208,0,1.124,0,1.124,1.154,1.124,1.179,0,1.179,0,1.179-1.172s0-1.16-1.118-1.16m1.118,43.182c0-1.205,0-1.205-1.146-1.205-1.187,0-1.187,0-1.187,1.163S33.428,66,34.61,66c1.151,0,1.151,0,1.151-1.127" transform="translate(-13.586 -13.53)" fill="#afafaf"/>
        <path id="Trazado_716763" data-name="Trazado 716763" d="M314.916,31.5c.75,0,1.7-.272,2.189.087.461.341.135,1.357.137,2.075q.02,6.74-.007,13.48c0,.543.121.7.671.672.872-.052,1.749-.017,2.623-.013.972,0,1.378.4,1.384,1.353.006,1.044-.016,2.089.009,3.133a1.436,1.436,0,0,1-.544,1.2q-3.961,3.382-7.917,6.769a1.164,1.164,0,0,1-1.756,0q-3.965-3.378-7.918-6.77a1.431,1.431,0,0,1-.544-1.2c.025-1.044,0-2.089.009-3.133.005-.954.409-1.347,1.384-1.352.875,0,1.752-.039,2.623.013.55.033.674-.129.671-.672-.023-4.955,0-9.91-.031-14.864,0-.662.16-.892.822-.812a14.722,14.722,0,0,0,1.528.035q0,8.6,0,17.191c0,1.046-.4,1.437-1.454,1.441-.9,0-1.8,0-2.7.006-.173,0-.389-.093-.5.159a2.507,2.507,0,0,0,.44,1.994c2.045,1.755,4.1,3.5,6.131,5.27.329.287.506.288.833,0,1.885-1.644,3.766-3.293,5.707-4.869a2.1,2.1,0,0,0,.891-2.037c-.043-.394-.111-.549-.534-.534-.873.031-1.749.011-2.623.009-1.156,0-1.526-.367-1.526-1.514q0-8.559,0-17.119" transform="translate(-258.914 -26.81)" fill="#070807"/>
        <path id="Trazado_716764" data-name="Trazado 716764" d="M328.279,32.07q0,8.559,0,17.119c0,1.146.37,1.512,1.526,1.514.874,0,1.75.022,2.623-.009.424-.015.491.14.534.534a2.1,2.1,0,0,1-.891,2.037c-1.941,1.575-3.823,3.225-5.707,4.869-.327.286-.5.285-.833,0-2.03-1.772-4.085-3.516-6.131-5.27a2.507,2.507,0,0,1-.44-1.994c.112-.252.329-.157.5-.159.9-.011,1.8,0,2.7-.006,1.056,0,1.454-.394,1.454-1.441q0-8.6,0-17.191h4.666" transform="translate(-272.276 -27.382)" fill="#adce32"/>
        <path id="Trazado_716765" data-name="Trazado 716765" d="M287.264,281.682c.841,1.262,1.577,2.315,2.256,3.4a1.756,1.756,0,0,0,1.672.907c5.442-.026,10.884,0,16.326-.029.6,0,.761.129.758.745q-.038,9.762,0,19.525c0,.613-.155.75-.756.747q-9.8-.035-19.605,0c-.476,0-.664-.071-.663-.615q.029-12.058.013-24.115Zm14,21.79c0-1.168,0-1.168-1.164-1.168s-1.169,0-1.169,1.164,0,1.168,1.164,1.168,1.169,0,1.169-1.164m2.333-.069c0,1.233,0,1.233,1.244,1.233,1.089,0,1.089,0,1.089-1.1,0-1.233,0-1.233-1.245-1.233-1.088,0-1.088,0-1.088,1.1" transform="translate(-245.259 -240.504)" fill="#fbac00"/>
        <path id="Trazado_716766" data-name="Trazado 716766" d="M203.175,281.743v.785q0,11.87.013,23.74c0,.583-.108.775-.738.768-3.424-.035-6.848-.03-10.272,0-.541,0-.683-.126-.682-.676q.031-9.831,0-19.662c0-.547.137-.685.68-.677,2.4.032,4.808,0,7.212.024a1.542,1.542,0,0,0,1.444-.778c.72-1.121,1.474-2.22,2.342-3.52" transform="translate(-163.503 -240.556)" fill="#ffd947"/>
        <path id="Trazado_716767" data-name="Trazado 716767" d="M318.388,267.812h-.755q-9.538,0-19.076.011a1.077,1.077,0,0,1-1.047-.566c-.854-1.346-1.757-2.661-2.654-4.006a.769.769,0,0,1,.582-.1c6.407,0,12.814,0,19.221-.016a1.02,1.02,0,0,1,.989.538c.87,1.359,1.779,2.694,2.739,4.138" transform="translate(-251.753 -224.669)" fill="#c7a72a"/>
        <path id="Trazado_716768" data-name="Trazado 716768" d="M180.993,263.215c-1.028,1.545-1.979,2.97-2.924,4.4a.512.512,0,0,1-.47.267c-3.581,0-7.163,0-10.875,0,1.041-1.562,2.017-3.024,2.988-4.49.133-.2.327-.174.517-.174h10.763" transform="translate(-142.351 -224.736)" fill="#c7a72a"/>
        <path id="Trazado_716769" data-name="Trazado 716769" d="M44.569,39.455c-1.092,0-2.184.006-3.276,0a1.17,1.17,0,0,1-1.331-1.338q-.009-3.347,0-6.695a1.149,1.149,0,0,1,1.3-1.291c1.82-.009,3.641-.036,5.459.014a1.853,1.853,0,0,0,1.571-.668c.665-.738,1.419-1.4,2.09-2.128.34-.372.528-.314.854.014,1.241,1.25,1.338,1.342-.023,2.463a4.8,4.8,0,0,0-1.953,4.7,25.91,25.91,0,0,1,.027,3.635,1.156,1.156,0,0,1-1.3,1.3c-1.14.01-2.281,0-3.421,0m.684-7c-.946,0-1.764.015-2.582-.007-.355-.01-.383.166-.381.444q.013,1.895,0,3.789c0,.28.029.448.382.444,1.312-.018,2.624-.01,3.936,0,.233,0,.358-.054.354-.321-.011-.839,0-1.678,0-2.517l-.169-.1c-.352.388-.706.774-1.053,1.165-.171.193-.3.229-.536.039-1.52-1.22-1.53-1.268-.19-2.646.051-.052.095-.111.243-.285" transform="translate(-34.116 -23.13)" fill="#060708"/>
        <path id="Trazado_716770" data-name="Trazado 716770" d="M44.6,326.562c-1.092,0-2.184,0-3.276,0-.921-.006-1.356-.417-1.359-1.31q-.012-3.347,0-6.695c0-.9.43-1.318,1.346-1.321,1.917-.006,3.834-.011,5.751.006a1.183,1.183,0,0,0,.954-.384c.788-.824,1.617-1.608,2.408-2.429.267-.277.428-.34.747-.032,1.341,1.294,1.442,1.388.015,2.565a4.783,4.783,0,0,0-1.918,4.639,28.063,28.063,0,0,1,.025,3.635,1.172,1.172,0,0,1-1.344,1.326c-1.116.008-2.232,0-3.349,0m.648-7c-.921,0-1.716.016-2.511-.007-.354-.01-.453.109-.448.454.018,1.263.013,2.526,0,3.789,0,.29.049.439.392.435,1.287-.017,2.575-.015,3.863,0,.308,0,.43-.078.421-.406-.02-.812-.007-1.626-.007-2.439a5.147,5.147,0,0,0-1.229,1.075c-.18.2-.308.211-.536.025-1.526-1.243-1.532-1.245-.179-2.645.05-.051.092-.11.231-.278" transform="translate(-34.115 -268.261)" fill="#060708"/>
        <path id="Trazado_716771" data-name="Trazado 716771" d="M39.972,130.45q0-1.565,0-3.129c0-1.109.378-1.494,1.466-1.5,1.893,0,3.786-.011,5.678.008a1.108,1.108,0,0,0,.889-.366c.791-.821,1.621-1.6,2.406-2.431.3-.314.468-.347.8-.018,1.291,1.279,1.394,1.374,0,2.513a4.8,4.8,0,0,0-1.938,4.7,26.319,26.319,0,0,1,.026,3.489c0,1.011-.4,1.425-1.39,1.427q-3.276.007-6.552,0c-.988,0-1.385-.415-1.389-1.427,0-1.092,0-2.183,0-3.275m5.4-2.292c-1.067,0-1.907.007-2.747,0-.269,0-.319.126-.318.357.006,1.312.008,2.623,0,3.935,0,.278.084.383.371.38,1.312-.011,2.624,0,3.936-.006.167,0,.358.024.358-.233,0-.874,0-1.747,0-2.729-.558.531-.96,1.228-1.446,1.292-.568.075-.9-.757-1.379-1.142-.019-.015-.033-.037-.052-.051-.259-.191-.245-.37-.009-.582.389-.349.76-.716,1.286-1.216" transform="translate(-34.128 -104.837)" fill="#060708"/>
        <path id="Trazado_716772" data-name="Trazado 716772" d="M39.971,226.17q0-1.565,0-3.129c0-1.138.372-1.5,1.534-1.5,1.868,0,3.737-.01,5.605.008a1.108,1.108,0,0,0,.891-.362c.791-.821,1.619-1.606,2.406-2.431.293-.307.463-.359.8-.025,1.295,1.282,1.4,1.376.01,2.514a4.8,4.8,0,0,0-1.942,4.7,26.455,26.455,0,0,1,.026,3.562c-.006.946-.424,1.357-1.385,1.359q-3.276.007-6.552,0c-.992,0-1.39-.412-1.393-1.423,0-1.092,0-2.183,0-3.275m5.389-2.3c-1.038,0-1.854.015-2.67-.007-.346-.009-.392.15-.389.437.01,1.263.016,2.526,0,3.789,0,.349.1.457.451.452,1.263-.019,2.527-.013,3.79,0,.286,0,.447-.041.438-.388-.021-.816-.007-1.632-.007-2.573-.545.513-.955,1.216-1.454,1.286-.56.079-.9-.758-1.377-1.146-.019-.015-.033-.037-.052-.051-.264-.194-.234-.373,0-.582.378-.341.74-.7,1.276-1.213" transform="translate(-34.127 -186.56)" fill="#060708"/>
        <path id="Trazado_716773" data-name="Trazado 716773" d="M143.844,183.382c2.5,0,5.005.015,7.507-.013.516-.006.645.137.64.645-.017,1.7,0,1.7-1.686,1.7-4.665,0-9.33-.01-13.994.014-.551,0-.686-.141-.678-.683.027-1.663,0-1.663,1.65-1.663h6.56" transform="translate(-115.806 -156.563)" fill="#050605"/>
        <path id="Trazado_716774" data-name="Trazado 716774" d="M143.82,87.687c2.5,0,5.005.01,7.507-.009.449,0,.625.081.624.586,0,1.755.02,1.755-1.7,1.755-4.616,0-9.233-.011-13.849.014-.6,0-.837-.092-.812-.773.059-1.571.016-1.573,1.6-1.573h6.633" transform="translate(-115.765 -74.86)" fill="#050605"/>
        <path id="Trazado_716775" data-name="Trazado 716775" d="M173.417,153.825c-1.749,0-3.5-.018-5.247.012-.49.008-.6-.149-.6-.613,0-1.731-.015-1.731,1.725-1.731,3.085,0,6.171.01,9.256-.01.494,0,.724.048.713.647-.033,1.694,0,1.695-1.695,1.695h-4.154" transform="translate(-143.076 -129.339)" fill="#050605"/>
        <path id="Trazado_716776" data-name="Trazado 716776" d="M173.453,55.786c1.749,0,3.5.011,5.247-.008.4,0,.535.088.544.517.037,1.824.053,1.823-1.78,1.823-3.085,0-6.171-.011-9.256.011-.494,0-.66-.1-.655-.63.017-1.713-.007-1.714,1.672-1.714h4.227" transform="translate(-143.059 -47.624)" fill="#050605"/>
        <path id="Trazado_716777" data-name="Trazado 716777" d="M137.413,374.888c1.741,0,1.725,0,1.726,1.728,0,.457-.095.642-.593.615-.8-.043-1.6-.035-2.4,0-.425.017-.517-.133-.524-.536-.032-1.806-.045-1.806,1.794-1.806" transform="translate(-115.788 -320.085)" fill="#050605"/>
        <path id="Trazado_716778" data-name="Trazado 716778" d="M136.936,247.267c1.13,0,1.13,0,1.13,1.147,0,1.185,0,1.185-1.166,1.185s-1.167,0-1.167-1.184c0-1.148,0-1.148,1.2-1.148" transform="translate(-115.891 -211.12)" fill="#050605"/>
        <path id="Trazado_716779" data-name="Trazado 716779" d="M138.066,152.757c0,1.125,0,1.125-1.445,1.124-.889,0-.889,0-.888-1.463,0-.87,0-.87,1.481-.87.852,0,.852,0,.852,1.208" transform="translate(-115.891 -129.395)" fill="#050605"/>
        <path id="Trazado_716780" data-name="Trazado 716780" d="M136.948,55.835c1.118,0,1.118,0,1.118,1.16s0,1.172-1.179,1.172c-1.154,0-1.154,0-1.154-1.124,0-1.208,0-1.208,1.215-1.208" transform="translate(-115.891 -47.673)" fill="#050605"/>
        <path id="Trazado_716781" data-name="Trazado 716781" d="M138.065,344.187c0,1.127,0,1.127-1.151,1.127-1.182,0-1.182,0-1.182-1.169s0-1.163,1.187-1.163c1.146,0,1.146,0,1.146,1.205" transform="translate(-115.89 -292.843)" fill="#050605"/>
        <path id="Trazado_716782" data-name="Trazado 716782" d="M369.468,423.914c0,1.164,0,1.164-1.169,1.164s-1.164,0-1.164-1.168,0-1.164,1.169-1.164,1.164,0,1.164,1.168" transform="translate(-313.465 -360.947)" fill="#050605"/>
        <path id="Trazado_716783" data-name="Trazado 716783" d="M399.052,423.845c0-1.1,0-1.1,1.088-1.1,1.245,0,1.245,0,1.245,1.233,0,1.1,0,1.1-1.089,1.1-1.244,0-1.244,0-1.244-1.233" transform="translate(-340.717 -360.947)" fill="#050605"/>
        <path id="Trazado_716784" data-name="Trazado 716784" d="M58.877,63.772c-.149.174-.193.233-.243.285-1.34,1.377-1.33,1.426.19,2.646.237.19.365.154.536-.039.348-.391.7-.777,1.053-1.165l.169.1c0,.839-.007,1.678,0,2.517,0,.267-.121.322-.354.321-1.312-.006-2.624-.013-3.936,0-.353,0-.384-.164-.382-.444q.013-1.894,0-3.789c0-.278.026-.454.381-.444.817.022,1.636.007,2.582.007" transform="translate(-47.74 -54.443)" fill="#ffa686"/>
        <path id="Trazado_716785" data-name="Trazado 716785" d="M58.851,350.915c-.139.168-.181.227-.231.278-1.353,1.4-1.347,1.4.179,2.645.228.186.356.175.536-.025a5.148,5.148,0,0,1,1.229-1.075c0,.813-.014,1.626.007,2.439.008.328-.114.409-.421.406-1.288-.014-2.576-.016-3.863,0-.343,0-.395-.144-.392-.435.011-1.263.015-2.526,0-3.789,0-.346.095-.465.448-.454.795.023,1.59.007,2.511.007" transform="translate(-47.721 -299.609)" fill="#ffa686"/>
        <path id="Trazado_716786" data-name="Trazado 716786" d="M58.978,159.512c-.526.5-.9.867-1.286,1.216-.236.212-.251.391.009.582.019.014.033.036.052.051.48.386.81,1.217,1.379,1.142.485-.064.887-.761,1.446-1.292,0,.981,0,1.855,0,2.729,0,.258-.191.233-.358.233-1.312,0-2.624-.006-3.936.006-.288,0-.374-.1-.371-.38.011-1.311.008-2.623,0-3.935,0-.23.049-.36.318-.357.84.011,1.68,0,2.747,0" transform="translate(-47.737 -136.19)" fill="#ffa686"/>
        <path id="Trazado_716787" data-name="Trazado 716787" d="M58.953,255.2c-.536.512-.9.872-1.276,1.214-.231.209-.262.389,0,.582.019.014.033.036.052.051.479.388.817,1.224,1.377,1.146.5-.07.909-.772,1.454-1.286,0,.941-.015,1.757.007,2.573.009.347-.152.391-.438.388-1.263-.01-2.527-.016-3.79,0-.35.005-.456-.1-.451-.452.018-1.263.013-2.526,0-3.789,0-.287.043-.446.389-.437.816.021,1.633.007,2.67.007" transform="translate(-47.72 -217.891)" fill="#ffa686"/>
      </g>
    </g>
  </g>
</svg>
