<svg xmlns="http://www.w3.org/2000/svg" width="159.516" height="155.667" viewBox="0 0 159.516 155.667">
  <g id="img27" transform="translate(-51.91 -129.504)">
    <path id="Trazado_123892" data-name="Trazado 123892" d="M51.91,210.183V198.348c1.177-.668.8-1.986,1.131-2.973,1.056-3.157,2.383-6.018,5.513-7.649,4.315-1.523,8.727-2.651,13.34-2.287a56.424,56.424,0,0,1,35.527,15.922c10.532,10.108,12.217,22.334,4.98,34.979a2.391,2.391,0,0,0,.424,3.437,83.529,83.529,0,0,1,12.536,17.348c.3.548.349,1.487,1.414,1.321a3.87,3.87,0,0,0,.223-.9c.018-17.631,0-35.262.069-52.89,0-1.878-1.089-2.149-2.456-2.519-13.481-3.659-21.08-13.241-20.887-27.224.22-16.265,5.814-30.366,18.2-41.38,6.554-5.528,13.108-5.2,19.662,0,12.359,11.149,17.953,25.277,18.055,41.681.087,13.364-7.719,23.523-20.583,26.8-2.3.584-2.874,1.571-2.862,3.795.084,16.385.036,32.773.063,49.159,0,.96-.361,2.037.454,2.892.22-.1.463-.135.536-.262a86.183,86.183,0,0,1,13.541-18.522c1.153-1.162.484-1.965-.108-2.964a28.176,28.176,0,0,1-4.084-12.591c-.689-9.762,3.644-17.369,10.8-23.334,13.761-11.474,29.006-17.98,47.323-12.449,3.009,1.5,4.366,4.231,5.362,7.222,1.6,4.815,1.556,9.747.948,14.712-.794,6.512-3.31,12.476-5.9,18.416-2.925,4.634-5.835,9.271-9.723,13.207-10.006,10.135-23.009,12.037-34.769,4.767-2.179-1.348-3.151-.818-4.574.779a76.772,76.772,0,0,0-18.486,38.07,72.278,72.278,0,0,1-12.106.024c-.2-.8-.439-1.6-.6-2.407A77.386,77.386,0,0,0,107.1,247.061c-1.559-1.781-2.6-2.137-4.815-.794-10.653,6.473-22.232,5.368-31.7-2.732a52.7,52.7,0,0,1-10.656-12.9c-.536-.882-.623-2.275-2.073-2.422Z" transform="translate(0 0)" fill="#ffd947"/>
    <path id="Trazado_123894" data-name="Trazado 123894" d="M74,197.11c2.428-10.31,7.583-19.259,14.243-27.3a75.034,75.034,0,0,1,45.1-26.5c1.312-.25,2.672-.265,4.008-.388-12.38,11.014-17.974,25.115-18.194,41.38-.193,13.99,7.406,23.565,20.887,27.224,1.366.37,2.465.641,2.456,2.519-.066,17.628-.051,35.259-.069,52.89a3.868,3.868,0,0,1-.223.9c-1.065.165-1.113-.773-1.414-1.321a83.53,83.53,0,0,0-12.527-17.345,2.391,2.391,0,0,1-.424-3.437c7.237-12.639,5.564-24.871-4.98-34.979a56.394,56.394,0,0,0-35.527-15.937C82.727,194.453,78.312,195.581,74,197.11Z" transform="translate(-15.443 -9.379)" fill="#ffa686"/>
    <path id="Trazado_123895" data-name="Trazado 123895" d="M337.283,142.89c11.435.954,21.769,5.1,31.3,11.218a75.616,75.616,0,0,1,30.393,37.916c.623,1.637.963,3.382,1.435,5.077-18.314-5.528-33.559.978-47.32,12.452-7.159,5.964-11.492,13.572-10.8,23.333a28.175,28.175,0,0,0,4.083,12.591c.6,1,1.261,1.806.108,2.964a86.591,86.591,0,0,0-13.542,18.522c-.072.126-.316.159-.536.262-.815-.855-.454-1.932-.454-2.892-.027-16.385.021-32.773-.063-49.159,0-2.224.566-3.211,2.862-3.795,12.864-3.274,20.67-13.433,20.583-26.8C355.236,168.152,349.642,154.039,337.283,142.89Z" transform="translate(-195.711 -9.358)" fill="#ffa686"/>
    <path id="Trazado_123896" data-name="Trazado 123896" d="M404.141,457.1c-.617,5.459-2.85,10.388-5.371,15.133q-19.352,36.412-60.314,41.633a18.318,18.318,0,0,1-1.866.057,76.772,76.772,0,0,1,18.486-38.07c1.423-1.6,2.407-2.128,4.574-.779,11.76,7.273,24.763,5.368,34.769-4.764C398.306,466.371,401.216,461.734,404.141,457.1Z" transform="translate(-199.013 -229.015)" fill="#ffa686"/>
    <path id="Trazado_123897" data-name="Trazado 123897" d="M139.256,514.252A76.232,76.232,0,0,1,71.63,457.54c1.447.147,1.535,1.541,2.07,2.422a52.816,52.816,0,0,0,10.656,12.9c9.467,8.1,21.046,9.205,31.7,2.732,2.212-1.342,3.253-.987,4.815.794a77.386,77.386,0,0,1,17.778,35.461C138.817,512.654,139.052,513.451,139.256,514.252Z" transform="translate(-13.786 -229.322)" fill="#ffa686"/>
  </g>
</svg>
