<svg xmlns="http://www.w3.org/2000/svg" width="164.092" height="164.203" viewBox="0 0 164.092 164.203">
  <g id="img28" transform="translate(-82.218 -177)">
    <path id="Trazado_123900" data-name="Trazado 123900" d="M154.644,177h18.572c.414.9,1.277.6,1.962.7,35.162,5.057,62.327,30.593,69.585,65.387.491,2.321.267,4.844,1.548,7.015V268.69c-1.2,2.174-.693,4.767-1.706,6.988-1.281-.039-2.561-.1-3.842-.112-37.8-.29-75.594.46-113.4-.3-14.412-.29-28.836,0-43.252,0-1.548-3.943-1.66-8.125-1.826-12.246-1.687-42.065,27.122-77.676,68.514-84.9C152.095,177.867,153.615,178.18,154.644,177Zm14.544,38.641c1.443,1.346,2.294,2.093,3.1,2.89,5.339,5.3,5.289,5.266,10.447-.046,1.227-1.265,1.393-2,.058-3.3-5.653-5.513-11.259-11.081-16.742-16.761-1.486-1.548-2.263-1.161-3.536.139-4.384,4.519-8.876,8.93-13.329,13.383-5.107,5.107-5.03,5.03.108,10.06,1.517,1.478,2.287,1.122,3.575-.159,1.977-1.965,3.645-4.322,6.229-5.749a8.415,8.415,0,0,1,.414,3.993q.035,20.506,0,40.97c0,7.278,0,7.227,7.44,6.914,1.625-.07,2.29-.5,2.244-2.194-.1-3.2-.027-6.4-.027-9.6Zm25.474,22.247a6.922,6.922,0,0,1,.847,4.306c.027,6.407,0,12.818,0,19.225,0,6.577,0,6.461,6.558,6.516,2.3.023,2.879-.735,2.848-2.917-.112-7.688-.062-15.38-.023-23.071,0-1.095-.387-2.321.557-3.347,1.42.511,2.19,1.718,3.149,2.65,4.972,4.848,4.91,4.821,9.885-.251,1.223-1.246,1.432-1.962.077-3.277-5.583-5.44-11.12-10.934-16.525-16.548-1.617-1.679-2.511-1.161-3.83.2-4.31,4.449-8.7,8.818-13.074,13.205-5.08,5.1-5.03,5.03.321,10.005,1.261,1.161,2.031,1.11,3.1-.093,1.919-2.136,3.881-4.194,6.117-6.6Zm-61.193.716c1.474.36,2.182,1.64,3.122,2.565,5.092,5.03,5,4.96,10.106-.135,1.524-1.521,1.122-2.24-.155-3.482q-8.23-8.063-16.285-16.3c-1.435-1.474-2.321-1.606-3.823-.046-4.256,4.469-8.713,8.783-13.089,13.155-5.274,5.274-5.235,5.231.193,10.261,1.211,1.118,2.012,1.285,3.1,0,1.88-2.279,3.827-4.5,5.827-6.844a4.7,4.7,0,0,1,1.161,3.931c0,6.612-.093,13.225-.116,19.833-.023,6.508,0,6.415,6.663,6.442,2.221,0,2.941-.635,2.906-2.879-.116-7.676-.062-15.356-.023-23.037-.012-1.145-.371-2.352.422-3.467Z" transform="translate(0)" fill="#a3be3c"/>
    <path id="Trazado_123903" data-name="Trazado 123903" d="M247.677,431.121c-4.821,23.04-17.341,40.827-37.194,53.254-47.153,29.486-110.315,3.3-122.987-50.844a23.04,23.04,0,0,1-.317-2.836c14.416,0,28.84-.29,43.252,0,37.8.774,75.6,0,113.4.3C245.1,431.009,246.377,431.071,247.677,431.121Zm-80.136,46.154c8.736.248,15.96-9.189,13.047-17.411-2.565-7.243-7.417-13.155-12.191-19.036-.936-1.161-1.548-.681-2.236.186a101.328,101.328,0,0,0-11.12,16.4C150.285,466.465,156.971,477.016,167.541,477.276Zm35.82-14.815a9.537,9.537,0,0,0,8.632-13.387c-1.873-4.225-4.689-7.866-7.541-11.472-.9-1.134-1.486-1.219-2.407-.043-2.9,3.7-5.823,7.4-7.672,11.758A9.531,9.531,0,0,0,203.361,462.461Zm-62.292-9.866a7.084,7.084,0,0,0-.263-1.757c-1.826-5.216-5.2-9.468-8.6-13.7-.932-1.161-1.432-.263-1.935.387-3.006,3.73-5.935,7.529-7.812,11.994-1.579,3.749-.7,7.115,2.024,9.994a9.5,9.5,0,0,0,10.578,2.232,9.947,9.947,0,0,0,6-9.135Z" transform="translate(-3.042 -155.46)" fill="#f0d04f"/>
    <path id="Trazado_123904" data-name="Trazado 123904" d="M269.324,248v40.54c0,3.2-.07,6.4.027,9.6.046,1.691-.619,2.124-2.244,2.194-7.444.313-7.44.364-7.44-6.914v-40.97a8.414,8.414,0,0,0-.414-3.993c-2.585,1.428-4.256,3.784-6.229,5.749-1.288,1.281-2.058,1.637-3.575.159-5.15-5.03-5.216-4.956-.108-10.06,4.453-4.453,8.945-8.864,13.329-13.383,1.273-1.3,2.051-1.679,3.536-.139,5.483,5.68,11.089,11.247,16.742,16.761,1.335,1.3,1.161,2.035-.058,3.3-5.165,5.312-5.115,5.351-10.447.046C271.623,250.094,270.771,249.347,269.324,248Z" transform="translate(-100.136 -32.36)" fill="#fefefd"/>
    <path id="Trazado_123905" data-name="Trazado 123905" d="M351.8,306.212c-2.236,2.41-4.213,4.469-6.1,6.6-1.064,1.2-1.834,1.261-3.1.093-5.366-4.96-5.417-4.91-.321-10.005,4.372-4.388,8.763-8.756,13.074-13.205,1.319-1.362,2.213-1.88,3.83-.2,5.417,5.614,10.942,11.108,16.525,16.548,1.354,1.315,1.161,2.031-.077,3.277-4.976,5.072-4.914,5.1-9.885.251-.96-.932-1.729-2.14-3.149-2.65-.948,1.029-.549,2.252-.557,3.347-.039,7.692-.089,15.383.023,23.071.031,2.182-.549,2.94-2.848,2.917-6.558-.054-6.558.05-6.558-6.516V310.518A7.115,7.115,0,0,0,351.8,306.212Z" transform="translate(-157.138 -68.324)" fill="#fefefd"/>
    <path id="Trazado_123906" data-name="Trazado 123906" d="M176.572,306.858c-.793,1.114-.433,2.321-.437,3.443-.039,7.68-.093,15.36.023,23.036.035,2.244-.685,2.89-2.906,2.879-6.666-.027-6.686.066-6.663-6.442.023-6.608.1-13.221.116-19.833a4.665,4.665,0,0,0-1.161-3.931c-2,2.341-3.946,4.566-5.827,6.844-1.076,1.3-1.877,1.138-3.1,0-5.417-5.03-5.467-4.987-.193-10.261,4.376-4.376,8.814-8.69,13.089-13.155,1.493-1.548,2.387-1.428,3.823.046q8.032,8.257,16.285,16.3c1.277,1.25,1.679,1.969.155,3.482-5.107,5.1-5.03,5.154-10.106.135C178.755,308.5,178.047,307.218,176.572,306.858Z" transform="translate(-43.1 -68.255)" fill="#fefefd"/>
    <path id="Trazado_123907" data-name="Trazado 123907" d="M272.6,492.45c-10.57-.259-17.256-10.81-12.5-19.864a102.009,102.009,0,0,1,11.12-16.4c.7-.867,1.3-1.343,2.236-.186,4.774,5.9,9.626,11.793,12.191,19.036C288.562,483.261,281.338,492.7,272.6,492.45Z" transform="translate(-108.103 -170.634)" fill="#fefefd"/>
    <path id="Trazado_123908" data-name="Trazado 123908" d="M372.039,472.193a9.543,9.543,0,0,1-8.988-13.155c1.849-4.357,4.774-8.055,7.672-11.758.921-1.161,1.509-1.091,2.407.043,2.852,3.606,5.668,7.247,7.541,11.472a9.537,9.537,0,0,1-8.632,13.4Z" transform="translate(-171.72 -165.191)" fill="#fefefd"/>
    <path id="Trazado_123909" data-name="Trazado 123909" d="M195.682,462.115a9.947,9.947,0,0,1-6.024,9.127,9.5,9.5,0,0,1-10.578-2.232c-2.708-2.879-3.6-6.245-2.024-9.994,1.877-4.457,4.805-8.257,7.812-11.994.515-.638,1.014-1.548,1.935-.387,3.413,4.256,6.779,8.508,8.616,13.727A7.085,7.085,0,0,1,195.682,462.115Z" transform="translate(-57.667 -164.969)" fill="#fefefd"/>
  </g>
</svg>
