<svg xmlns="http://www.w3.org/2000/svg" width="158.142" height="157.339" viewBox="0 0 158.142 157.339">
  <g id="img29" transform="matrix(1, -0.017, 0.017, 1, -1456.378, 929.385)">
    <path id="Trazado_123910" data-name="Trazado 123910" d="M160.468,229.89H162.9a226.974,226.974,0,0,1,21.245,24.851,212.351,212.351,0,0,1,22.529,37.937,11.78,11.78,0,0,1-2.257,3.521q-9.051,12.409-18.142,24.794c-.284,1.442.405,2.731.693,4.072.754,3.452.381,3.829-2.941,2.836q-10.533-3.115-21.038-6.215c-2.236-.211-1.122,1.507-1.13,2.257q-.073,12.093.085,24.19c.028,2.4-.377,4.829.405,7.191-.024,1.54,1.4,1.872,2.273,2.569q12.462,9.885,25.009,19.681c-17.242,11.21-41.323,10.643-58.209-2.066-19.783-14.9-26.253-35.048-21.666-59.06,2.763-14.467,8.686-27.707,15.861-40.448,2.629,2.7,3.573,6.231,4.764,9.65.405,1.155.166,3.034,1.9,3.059,1.937.028,1.71-1.945,2.09-3.2,2.406-7.953,6.612-14.488,14.265-18.352,1.07-.539,2.382-.9,2.366-2.431s-1.329-1.864-2.382-2.431c-3.585-1.932-6.964-4.1-8.913-7.892C146.159,245.848,153.261,237.822,160.468,229.89Z" transform="translate(1364 -1132)" fill="#004624"/>
    <path id="Trazado_123913" data-name="Trazado 123913" d="M425.1,500.473l-24.644,28.25c-.6.685-1.179,1.382-1.774,2.066-7.515,8.637-7.515,8.637-19.142,7.839q.365-1.722.721-3.448c1.106-.591,1.276-1.722,1.621-2.767q3.768-11.437,7.568-22.874a.576.576,0,0,0,.259-.348,1.03,1.03,0,0,0,.227-.3,27.544,27.544,0,0,0,4.947-4.862q7.6-8.2,15.14-16.44c2.69,1.621,4.772,3.95,7.2,5.866,2.662,2.095,4.776,4.862,7.892,6.393Z" transform="translate(1202.676 -1285.297)" fill="#db9b85"/>
    <path id="Trazado_123914" data-name="Trazado 123914" d="M469.835,479.747c-3.116-1.531-5.23-4.3-7.892-6.393-2.431-1.916-4.513-4.262-7.2-5.866,3.833-4.728,8.406-8.808,12.032-13.718,1.621.831,1,2.431,1.126,3.683.539,5.182.912,10.384,1.349,15.577.04.49,0,1.013.587,1.248Z" transform="translate(1157.942 -1265.179)" fill="#f0d04f"/>
    <path id="Trazado_123915" data-name="Trazado 123915" d="M299.163,515.663q-.357,1.726-.721,3.448c-4.862.045-9.747.077-14.625.134a2.86,2.86,0,0,1-2.431-.883c-1.823-7.426-3.695-14.84-5.461-22.282-2.07-8.727-4.1-17.461-6.032-26.22-.519-2.35-1.276-2.868-3.387-1.438-2.747,1.868-5.672,3.48-8.508,5.2a21.039,21.039,0,0,0-3.038-4.112c-3.966-4.643-7.847-9.354-11.749-14.038q10.533,3.107,21.039,6.215c3.322.984,3.695.608,2.941-2.836-.292-1.341-.976-2.629-.693-4.072l33.6.085c1.3,0,2.629-.154,3.816.591-.644,8.135-1.248,16.27-1.945,24.4-.5,5.818-1.361,11.615-1.621,17.441C300.086,503.424,298.867,509.5,299.163,515.663Z" transform="translate(1283.774 -1265.78)" fill="#db9b85"/>
    <path id="Trazado_123916" data-name="Trazado 123916" d="M257.049,492.487c2.836-1.722,5.761-3.334,8.508-5.2,2.111-1.43,2.868-.912,3.387,1.438,1.932,8.759,3.962,17.494,6.032,26.22,1.766,7.442,3.646,14.856,5.461,22.282l-11.567-7q-12.531-9.828-25.009-19.681c-.875-.7-2.3-1.029-2.273-2.569Z" transform="translate(1284.738 -1284.645)" fill="#db9b85"/>
    <path id="Trazado_123917" data-name="Trazado 123917" d="M133.678,292.388c-1.924-4.015-5.3-6.482-9.055-8.569-1.114-.616-2.625-.96-2.686-2.564s1.418-2.062,2.544-2.658c7.56-3.991,11.66-10.578,14.022-18.506.32-1.086.243-2.706,1.9-2.662,1.556.045,1.621,1.576,1.965,2.694,1.215,3.869,2.564,7.645,5.417,10.675,1.932,3.8,5.311,5.96,8.913,7.892,1.053.567,2.37.916,2.382,2.431s-1.3,1.884-2.366,2.431c-7.653,3.865-11.858,10.4-14.265,18.352-.381,1.256-.154,3.241-2.09,3.2-1.738-.024-1.5-1.9-1.9-3.059C137.251,298.618,136.307,295.09,133.678,292.388Z" transform="translate(1355.916 -1148.381)" fill="#f0d04f"/>
    <path id="Trazado_123918" data-name="Trazado 123918" d="M338.114,403.344c-1.187-.745-2.516-.587-3.816-.591l-33.6-.085q9.075-12.4,18.142-24.794c.81-1.126,1.868-2.115,2.257-3.521,1.965-1.718,3.18-4.051,4.829-6.012,1.1-1.321,2.026-1.888,2.455.425q4.481,15.241,8.945,30.478c.405,1.333,1.13,2.621.782,4.1Z" transform="translate(1249.575 -1213.675)" fill="#dce7ed"/>
    <path id="Trazado_123919" data-name="Trazado 123919" d="M255.928,474.614,240.469,490.1c-.762-2.362-.357-4.793-.405-7.191q-.15-12.093-.085-24.19c0-.749-1.106-2.467,1.13-2.257,3.914,4.683,7.795,9.395,11.749,14.038A20.106,20.106,0,0,1,255.928,474.614Z" transform="translate(1285.859 -1266.771)" fill="#dce7ed"/>
    <path id="Trazado_123920" data-name="Trazado 123920" d="M381.253,516.53c-.3-6.166.924-12.239,1.191-18.377.255-5.826,1.118-11.623,1.621-17.441.7-8.127,1.3-16.262,1.945-24.4h0c5.165-.405,10.266.908,15.427.612.551,1.377-.405,2.479-.668,3.711-.438,1-.952,1.985-1.3,3.018q-3.379,9.978-6.693,19.973c-.717,2.172-2.026,4.185-1.851,6.608a.959.959,0,0,1-.227.3.458.458,0,0,0-.259.353q-3.78,11.437-7.552,22.874C382.529,514.808,382.359,515.938,381.253,516.53Z" transform="translate(1201.684 -1266.646)" fill="#f0d04f"/>
    <path id="Trazado_123921" data-name="Trazado 123921" d="M405.139,488.773c-.166-2.431,1.134-4.436,1.851-6.608q3.31-9.995,6.693-19.973c.352-1.033.867-2.026,1.3-3.018,7.454-1.677,14.739-4.051,22.282-5.4-3.626,4.91-8.2,8.99-12.032,13.718q-7.564,8.224-15.14,16.44A28.776,28.776,0,0,1,405.139,488.773Z" transform="translate(1187.456 -1265.179)" fill="#dce7ed"/>
    <path id="Trazado_123922" data-name="Trazado 123922" d="M394.185,406.324c-5.161.3-10.262-1-15.427-.612.348-1.483-.405-2.771-.782-4.1q-4.456-15.245-8.945-30.478,10.2,14.107,20.386,28.209C391.061,401.608,392.6,403.974,394.185,406.324Z" transform="translate(1208.928 -1216.019)" fill="#f0d04f"/>
    <path id="Trazado_123923" data-name="Trazado 123923" d="M404,541.252a.458.458,0,0,1,.259-.352A.571.571,0,0,1,404,541.252Z" transform="translate(1188.125 -1317.01)" fill="#efc319"/>
  </g>
</svg>
