<svg xmlns="http://www.w3.org/2000/svg" xmlns:xlink="http://www.w3.org/1999/xlink" width="167" height="171" viewBox="0 0 167 171">
  <defs>
    <clipPath id="clip-path">
      <ellipse id="Elipse_4906" data-name="Elipse 4906" cx="83.5" cy="85.5" rx="83.5" ry="85.5" transform="translate(-0.452 0.287)" fill="#fff" stroke="#707070" stroke-width="1"/>
    </clipPath>
  </defs>
  <g id="img36" transform="translate(0.452 -0.287)" clip-path="url(#clip-path)">
    <g id="Humificacion-01" transform="translate(-12.724 -16.453)">
      <path id="Trazado_124000" data-name="Trazado 124000" d="M264.366,313.21c.445-2.16,1.711-2.936,3.593-2.784q9.817.771,19.644,1.5c6.152.389,10.973,6.09,11.008,13.016.06,9.978,0,19.957,0,29.941v75.479c0,9.033-4.784,14.45-12.784,14.45H160.94c-2.907,0-3.463-.433-4.233-3.268.726-2.638,1.311-3.111,3.948-3.111H280.162c2.252,0,4.5.039,6.755-.045,3.5-.141,5.939-2.953,6-6.89.045-2.177-.06-4.365.035-6.536.055-1.277-.235-1.687-1.431-1.687-3.062.1-6.129,0-9.192,0H114.621a10.19,10.19,0,0,1-1.311,0c-.906-.124-1.186.287-1.156,1.294.065,1.969,0,3.937,0,5.906,0,5.315,2.3,7.931,7.005,7.931,8.882,0,17.763.034,26.645,0,2,0,3.2.894,3.558,3.133-.7,2.694-1.351,3.268-3.833,3.268H119.344c-6.39,0-10.007-2.812-12.409-9.528-.09-.264-.14-.529-.435-.562V322.063c.62-.3.535-1.035.741-1.581,1.961-5.209,5.434-8.088,10.443-8.527,3.808-.326,3.813-.27,3.813-4.5V252.771c-1.241,1.389-2.217,2.5-3.212,3.589-1.541,1.687-3.227,1.817-4.433.377s-1-3.184.465-4.832q3.828-4.348,7.691-8.645c1.586-1.749,2.977-1.772,4.558-.034q3.963,4.342,7.831,8.792a3.511,3.511,0,0,1,.24,4.837c-1.206,1.3-2.807,1.125-4.3-.467-.5-.534-1-1.069-1.456-1.642s-.856-1.181-1.356-1.89a3.1,3.1,0,0,0-.39,2.109q0,27.092-.045,54.184c0,1.687.39,2.07,1.841,1.957,15.837-1.232,31.693-2.1,47.535-2.745,3.623-.146,7.245-.214,10.873-.321.656,0,1.451.208,1.331-1.1-.335-3.729.941-7.031,2.347-10.248a102,102,0,0,1,9.007-15.974c1.5-2.216,3.412-2.368,4.829-.276a90.325,90.325,0,0,1,10.378,19.181,15.028,15.028,0,0,1,1.2,6.75c-.14,1.361.315,1.626,1.426,1.659q12.469.416,24.923.951c3.5.141,7.005.388,10.508.506a3.454,3.454,0,0,1,3.688,3.324c-.856,2.739-1.361,3.133-4,3-12.369-.6-24.733-1.294-37.112-1.564a2.533,2.533,0,0,0-2.5,1.215,13.159,13.159,0,0,1-21.516.1,2.543,2.543,0,0,0-2.5-1.254c-9.747.4-19.514.63-29.241,1.125-10.558.563-21.1,1.322-31.648,1.986-.7.045-1.351-.067-1.336,1.153.05,4.14,0,8.28,0,12.56.9-.174,1.631-.3,2.362-.461,8.977-1.935,17.968-3.735,27.165-2.554,8.942,1.125,17.728,3.347,26.574,5.13,7.931,1.6,15.842,3.532,23.983,2.582,6.965-.81,13.825-2.385,20.7-3.831,7.3-1.536,14.576-3.33,21.991-4,10.773-.973,21.311.956,31.768,3.583,3.758.945,7.475,2.1,11.333,3.195v-9.174c-.025-4.393-2.3-7.087-6.175-7.38-6.425-.484-12.849-.962-19.269-1.507C265.291,316.528,264.7,315.78,264.366,313.21Zm-5.769,103.6c-.665-.872-1.131-1.434-1.551-2.03a11.166,11.166,0,0,1-.155-13.19,14.886,14.886,0,0,1,5.819-5.18c9.9-4.877,19.729-4.787,29.422.8.27.158.5.439.861.118q0-27.143.04-54.364c0-1.372-.626-1.592-1.5-1.884a142.614,142.614,0,0,0-20.58-5.411A72.788,72.788,0,0,0,256.64,334.2c-.065.928.5,1.356.851,1.9a91.26,91.26,0,0,1,7.556,14.506,18.993,18.993,0,0,1,1.616,7.312c-.244,7.684-5.409,14.035-12.2,14.995s-13.19-3.754-15.12-11.131c-1.256-4.916.15-9.258,2.057-13.533a121.913,121.913,0,0,1,7.546-13.724c-1.3.157-2.267.247-3.227.4-9.212,1.474-18.293,3.78-27.465,5.529-7.155,1.361-14.305,2.554-21.616,1.592-9.377-1.232-18.584-3.566-27.865-5.377-7.385-1.446-14.741-3.1-22.321-2.391a158.583,158.583,0,0,0-17.588,2.981c-1.331.281-1.766.833-1.756,2.419.065,12.442.04,24.884.035,37.326,0,2.655-1,4.112-2.787,4.146s-2.837-1.434-2.842-4.055V339.112c-2.632.709-5.094,1.446-7.586,2.019-1.386.321-1.831.973-1.826,2.649.075,17.291.045,34.587.045,51.878v2.121a29.3,29.3,0,0,1,21.125-4.4c5.234.793,10.132,2.571,13.965,6.907a11.349,11.349,0,0,1,.816,14.625c-.405.562-1.051.967-1.221,1.862h12.859c-.5-.658-.881-1.125-1.231-1.581a11.429,11.429,0,0,1,.365-14.664,17.313,17.313,0,0,1,5.3-4.264,29.653,29.653,0,0,1,20.14-2.616c4.688.928,9.047,2.756,12.459,6.694,3.948,4.545,4.043,10.333.34,15.125-.29.371-.9.591-.7,1.316h12.509c-.045-.832-.62-1.125-.961-1.569a11.377,11.377,0,0,1,0-14.2,16.7,16.7,0,0,1,5.669-4.736,29.709,29.709,0,0,1,20.135-2.638c4.758.945,9.167,2.812,12.6,6.834a11.425,11.425,0,0,1,.36,14.827c-.33.444-.946.709-.906,1.524ZM129,399.314c-5.749,0-10.758,1.479-13.845,3.892-3.948,3.088-3.968,6.6-.06,9.7a6.2,6.2,0,0,0,.786.562c8.346,4.573,16.777,4.719,25.018-.09,5.094-2.981,4.919-7.481-.08-10.76a22.918,22.918,0,0,0-11.809-3.3Zm148.534,0c-5.439-.034-9.972,1.125-13.235,3.3-5.059,3.336-5.164,7.875.055,10.884,8.006,4.612,16.217,4.534,24.333.248,2.107-1.125,4.218-2.739,4.188-5.7s-2.252-4.5-4.378-5.794a22.56,22.56,0,0,0-10.953-2.931Zm-50.157,0c-4.258.129-8.391.742-12.144,3.1-2.026,1.277-4.153,2.717-4.1,5.76s2.187,4.421,4.218,5.687a21.04,21.04,0,0,0,10.438,2.931c4.869.208,9.617-.478,13.92-3.274,5-3.251,5-7.532.05-10.816a17.724,17.724,0,0,0-2.352-1.283,26.126,26.126,0,0,0-10.017-2.126Zm-49.576,0c-4.218.163-8.411.771-12.2,3.234-1.966,1.282-4,2.717-3.923,5.664.065,2.812,1.966,4.342,3.943,5.434,8.006,4.41,16.132,4.331,24.173.141,2.087-1.086,4.173-2.655,4.168-5.692s-2.152-4.494-4.153-5.743c-3.708-2.284-7.786-2.885-12.009-3.066Zm24.788-111.4c-3.057,4.837-5.9,9.512-7.691,14.866a9.221,9.221,0,0,0,2.6,10.125,8.173,8.173,0,0,0,10.177-.169,9.151,9.151,0,0,0,2.417-9.973c-1.746-5.332-4.583-9.95-7.5-14.878Zm50.162,51.878c-3.082,5.062-6.109,9.8-7.791,15.373a9.241,9.241,0,0,0,2.957,9.832,7.509,7.509,0,0,0,9.617-.112,9.073,9.073,0,0,0,2.852-9.815C258.657,349.529,255.7,344.77,252.752,339.787Zm-140.6-4.68c2.842-.765,5.5-1.519,8.166-2.171,1-.242,1.251-.759,1.221-1.862-.075-3.015-.025-6.035-.025-9.056,0-4.179,0-4.179-3.733-3.735-3.136.254-5.575,3.165-5.614,6.7-.085,3.291-.03,6.592-.03,10.125Z" transform="translate(-106.5 -241.491)" fill="#030202"/>
      <path id="Trazado_124001" data-name="Trazado 124001" d="M155.015,582.577c-.355-2.25-1.551-3.144-3.558-3.133-8.881.051-17.763,0-26.645,0-4.693,0-7.005-2.616-7.005-7.931,0-1.969.045-3.937,0-5.906-.03-1.007.25-1.417,1.156-1.294a10.168,10.168,0,0,0,1.311,0H288c3.062,0,6.13.09,9.192,0,1.2-.034,1.5.383,1.431,1.688-.1,2.171,0,4.359-.035,6.536-.08,3.937-2.5,6.75-6,6.89-2.252.084-4.5.045-6.755.045H166.3c-2.637,0-3.222.472-3.948,3.111Z" transform="translate(-112.149 -382.528)" fill="#a3be3c"/>
      <path id="Trazado_124002" data-name="Trazado 124002" d="M284.946,368.339c.315,2.571.911,3.319,3.177,3.51,6.42.563,12.844,1.024,19.269,1.507,3.873.292,6.15,2.987,6.175,7.38v9.174c-3.858-1.091-7.576-2.25-11.333-3.195-10.458-2.627-21.015-4.556-31.768-3.583-7.415.669-14.691,2.464-21.991,4-6.875,1.446-13.735,3.021-20.7,3.83-8.141.951-16.052-.979-23.983-2.582-8.846-1.783-17.633-3.982-26.574-5.13-9.2-1.181-18.188.619-27.165,2.554-.731.158-1.466.287-2.362.461,0-4.28.03-8.437,0-12.56,0-1.221.64-1.125,1.336-1.153,10.548-.664,21.09-1.446,31.648-1.986,9.742-.5,19.514-.731,29.241-1.125a2.543,2.543,0,0,1,2.5,1.254,13.159,13.159,0,0,0,21.516-.1,2.518,2.518,0,0,1,2.5-1.215c12.379.27,24.743.962,37.112,1.564,2.632.129,3.137-.264,4-3C280.007,368.536,282.489,368.3,284.946,368.339Z" transform="translate(-127.08 -296.621)" fill="#db9b85"/>
      <path id="Trazado_124003" data-name="Trazado 124003" d="M183.509,253.32c-.931,1.125-1.826,2.25-2.792,3.3-1.5,1.659-3.047,1.789-4.293.433s-1.171-3.167.265-4.809q3.878-4.427,7.816-8.792c1.556-1.721,3-1.727,4.563,0q3.948,4.354,7.816,8.792c1.436,1.642,1.5,3.476.23,4.82s-2.737,1.226-4.148-.326c-1-1.125-1.911-2.34-2.942-3.617a4.018,4.018,0,0,0-.42,2.576v39.818a12.73,12.73,0,0,1-.16,2.514,2.686,2.686,0,0,1-5.309-.045,12.283,12.283,0,0,1-.155-2.509V253.562Z" transform="translate(-140.998 -241.59)" fill="#030202"/>
      <path id="Trazado_124004" data-name="Trazado 124004" d="M361.69,262.146a36.546,36.546,0,0,1,6.325-19.4c1.151-1.738,2.752-2.053,4.083-.979s1.556,2.959.37,4.82a37.01,37.01,0,0,0-3.077,6,24.521,24.521,0,0,0,.155,19.872c1.831,4.134,3.783,8.229,4.588,12.819a33.638,33.638,0,0,1,.55,5,3.234,3.234,0,0,1-.729,2.221,2.548,2.548,0,0,1-1.932.94,2.656,2.656,0,0,1-2.852-2.694c-.23-5.507-2.377-10.243-4.463-15.024A32.78,32.78,0,0,1,361.69,262.146Z" transform="translate(-234.001 -241.146)" fill="#030202"/>
      <path id="Trazado_124005" data-name="Trazado 124005" d="M433.948,241.19a2.842,2.842,0,0,1,2.443,1.836,3.505,3.505,0,0,1-.327,3.283,33.026,33.026,0,0,0-3.307,6.328c-2.572,6.575-2.772,13.106.125,19.687,2,4.5,4.133,9,4.834,14.062a28.675,28.675,0,0,1,.345,3.977,3.108,3.108,0,0,1-.659,2.152,2.45,2.45,0,0,1-1.843.942,2.5,2.5,0,0,1-2.932-2.514c-.33-6.08-2.917-11.216-5.089-16.559-4.643-11.441-2.3-21.852,3.9-31.623A2.843,2.843,0,0,1,433.948,241.19Z" transform="translate(-265.68 -241.165)" fill="#030202"/>
      <path id="Trazado_124006" data-name="Trazado 124006" d="M393.477,278.547c0-.489-.03-.984,0-1.468.125-1.687.941-2.767,2.437-2.947a2.472,2.472,0,0,1,2.977,2.413c.18,6.277,3.032,11.452,5.179,16.931a31.112,31.112,0,0,1,2.327,10.749c.04,2.126-1,3.527-2.612,3.628s-2.887-1.164-3-3.29a31.323,31.323,0,0,0-2.887-10.991C395.868,288.8,393.617,284.076,393.477,278.547Z" transform="translate(-249.876 -255.567)" fill="#030202"/>
      <path id="Trazado_124007" data-name="Trazado 124007" d="M264.187,488.492H251.318c-.04-.816.575-1.08.906-1.524a11.443,11.443,0,0,0-.36-14.827c-3.432-4.033-7.841-5.889-12.6-6.834a29.58,29.58,0,0,0-20.135,2.638,16.706,16.706,0,0,0-5.669,4.736,11.431,11.431,0,0,0,0,14.2c.34.45.916.737.961,1.569H201.912c-.205-.726.405-.945.7-1.316,3.7-4.792,3.608-10.58-.34-15.125-3.413-3.937-7.771-5.765-12.459-6.694a29.653,29.653,0,0,0-20.14,2.616,17.312,17.312,0,0,0-5.3,4.264A11.429,11.429,0,0,0,164,486.855c.35.472.716.922,1.231,1.581H152.37c.17-.894.816-1.288,1.221-1.862a11.313,11.313,0,0,0-.816-14.624c-3.863-4.359-8.7-6.125-13.915-6.918a29.246,29.246,0,0,0-21.125,4.4v-2.092c0-17.291.03-34.587-.045-51.878,0-1.687.44-2.329,1.826-2.649,2.5-.562,4.954-1.311,7.586-2.019v37.962c0,2.621,1.041,4.084,2.842,4.055s2.782-1.491,2.787-4.145c0-12.442.03-24.884-.035-37.326,0-1.586.425-2.137,1.756-2.419a157.262,157.262,0,0,1,17.588-2.981c7.581-.714,14.936.945,22.321,2.391,9.282,1.811,18.514,4.146,27.865,5.377,7.31.962,14.461-.231,21.616-1.592,9.172-1.749,18.253-4.055,27.465-5.529.961-.152,1.926-.242,3.227-.4a121.908,121.908,0,0,0-7.546,13.724c-1.906,4.275-3.312,8.617-2.056,13.533,1.875,7.458,8.317,12.256,15.158,11.29s12.026-7.406,12.2-15.154a19.133,19.133,0,0,0-1.616-7.312,90.44,90.44,0,0,0-7.556-14.506c-.33-.562-.916-.973-.851-1.9a72.782,72.782,0,0,1,14.31,1.479,142.62,142.62,0,0,1,20.58,5.411c.851.292,1.5.512,1.5,1.884q-.083,27.2-.04,54.364c-.365.321-.59.039-.861-.118-9.692-5.591-19.514-5.681-29.422-.8a14.886,14.886,0,0,0-5.819,5.18,11.165,11.165,0,0,0,.155,13.19C263.057,487.058,263.522,487.62,264.187,488.492ZM143.934,447.431c.365,6.519,3.082,11.4,8.441,13.983s10.613,1.642,14.936-2.908,5.644-10.052,3.578-16.312c-2.5-7.509-6.545-14.011-10.793-20.35-1.246-1.856-3.317-1.687-4.618.236a96.634,96.634,0,0,0-9.827,17.853,19.232,19.232,0,0,0-1.716,7.5Zm64.322,15.839a20.242,20.242,0,0,0,10.943-2.891c6.325-4.269,6.425-12.077-.04-16.025-6.88-4.207-14.075-4.207-20.945.056-6.34,3.937-6.24,11.756,0,15.913A18.688,18.688,0,0,0,208.256,463.27Z" transform="translate(-112.091 -313.17)" fill="#dce7ed"/>
      <path id="Trazado_124008" data-name="Trazado 124008" d="M134.674,521.73a22.94,22.94,0,0,1,11.8,3.319c5,3.279,5.174,7.779.08,10.76-8.221,4.809-16.652,4.663-25.018.09a6.2,6.2,0,0,1-.786-.562c-3.908-3.094-3.888-6.609.06-9.7C123.921,523.209,128.924,521.73,134.674,521.73Z" transform="translate(-112.162 -363.907)" fill="#db9b85"/>
      <path id="Trazado_124009" data-name="Trazado 124009" d="M431.3,521.739a22.53,22.53,0,0,1,10.963,2.936c2.127,1.266,4.348,2.751,4.378,5.794s-2.081,4.59-4.188,5.7c-8.116,4.275-16.327,4.365-24.333-.225-5.219-3.009-5.114-7.549-.055-10.884C421.331,522.892,425.865,521.706,431.3,521.739Z" transform="translate(-260.258 -363.911)" fill="#db9b85"/>
      <path id="Trazado_124010" data-name="Trazado 124010" d="M331.856,521.69a26.012,26.012,0,0,1,10.007,2.1,17.723,17.723,0,0,1,2.352,1.283c4.949,3.285,4.954,7.565-.05,10.816-4.3,2.812-9.052,3.482-13.92,3.274a21.038,21.038,0,0,1-10.438-2.93c-2.031-1.266-4.173-2.677-4.218-5.687s2.077-4.5,4.1-5.76C323.465,522.427,327.6,521.819,331.856,521.69Z" transform="translate(-210.968 -363.889)" fill="#db9b85"/>
      <path id="Trazado_124011" data-name="Trazado 124011" d="M232.92,521.68c4.213.169,8.291.782,12.009,3.066,2,1.249,4.168,2.677,4.173,5.715s-2.082,4.607-4.168,5.692c-8.041,4.19-16.162,4.269-24.173-.141-2-1.091-3.878-2.616-3.943-5.434-.065-2.947,1.956-4.382,3.923-5.664C224.519,522.451,228.712,521.86,232.92,521.68Z" transform="translate(-161.618 -363.885)" fill="#db9b85"/>
      <path id="Trazado_124012" data-name="Trazado 124012" d="M290.335,323.62c2.912,4.927,5.749,9.562,7.505,14.849a9.151,9.151,0,0,1-2.417,9.973,8.173,8.173,0,0,1-10.177.169,9.221,9.221,0,0,1-2.6-10.125C284.435,333.132,287.277,328.457,290.335,323.62Z" transform="translate(-194.234 -277.23)" fill="#dce7ed"/>
      <path id="Trazado_124013" data-name="Trazado 124013" d="M390.626,415.9c2.947,4.984,5.9,9.742,7.636,15.277a9.064,9.064,0,0,1-2.852,9.815,7.508,7.508,0,0,1-9.617.113,9.241,9.241,0,0,1-2.957-9.832C384.516,425.7,387.543,420.974,390.626,415.9Z" transform="translate(-244.373 -317.604)" fill="#db9b85"/>
      <path id="Trazado_124014" data-name="Trazado 124014" d="M117.736,394.345c0-3.532-.055-6.834,0-10.125.039-3.538,2.485-6.451,5.624-6.7,3.733-.444,3.733-.444,3.733,3.735,0,3.021-.05,6.041.025,9.056.03,1.125-.24,1.62-1.221,1.862C123.23,392.826,120.578,393.58,117.736,394.345Z" transform="translate(-112.101 -300.729)" fill="#db9b85"/>
      <path id="Trazado_124015" data-name="Trazado 124015" d="M170.138,458.927a19.182,19.182,0,0,1,1.716-7.5,96.093,96.093,0,0,1,9.827-17.853c1.3-1.946,3.372-2.092,4.618-.236,4.248,6.339,8.311,12.841,10.793,20.351A15.417,15.417,0,0,1,193.515,470c-4.253,4.5-9.507,5.523-14.936,2.908S170.5,465.446,170.138,458.927Zm13.96-18c-3.052,4.877-5.909,9.562-7.691,14.894a9.341,9.341,0,0,0,2.8,10.254,7.673,7.673,0,0,0,9.632-.056,9.17,9.17,0,0,0,2.767-10.215c-1.751-5.321-4.568-9.95-7.531-14.9Z" transform="translate(-138.295 -324.661)" fill="#030202"/>
      <path id="Trazado_124016" data-name="Trazado 124016" d="M283.947,490.837a18.9,18.9,0,0,1-10.062-2.947c-6.22-4.157-6.32-11.981,0-15.913,6.87-4.264,14.065-4.264,20.945-.056,6.465,3.937,6.365,11.756.04,16.025A19.878,19.878,0,0,1,283.947,490.837Zm.55-15.513a14.043,14.043,0,0,0-7.926,2.25c-2.217,1.558-2.227,2.97-.115,4.6,4,3.082,12.134,3.043,16.052-.079,1.916-1.536,1.931-2.88-.05-4.376-2.417-1.839-5.184-2.272-7.961-2.391Z" transform="translate(-187.782 -340.737)" fill="#030202"/>
      <path id="Trazado_124017" data-name="Trazado 124017" d="M189.8,447.81c2.942,4.95,5.759,9.562,7.506,14.878a9.17,9.17,0,0,1-2.767,10.215,7.673,7.673,0,0,1-9.632.056,9.341,9.341,0,0,1-2.8-10.254C183.914,457.35,186.772,452.687,189.8,447.81Z" transform="translate(-144.02 -331.565)" fill="#db9b85"/>
      <path id="Trazado_124018" data-name="Trazado 124018" d="M290.2,480.43a13.653,13.653,0,0,1,7.961,2.374c2,1.5,1.966,2.841.05,4.376-3.918,3.122-12.049,3.161-16.052.079-2.112-1.631-2.1-3.043.115-4.6A13.978,13.978,0,0,1,290.2,480.43Z" transform="translate(-193.481 -345.837)" fill="#db9b85"/>
    </g>
  </g>
</svg>
