<svg xmlns="http://www.w3.org/2000/svg" xmlns:xlink="http://www.w3.org/1999/xlink" width="176.708" height="174.138" viewBox="0 0 176.708 174.138">
  <defs>
    <clipPath id="clip-path">
      <path id="Elipse_4905" data-name="Elipse 4905" d="M88.079,0a87.884,87.884,0,0,1,80.637,52.618A86.505,86.505,0,0,1,150.649,148.3,87.993,87.993,0,0,1,7.237,120.4,86.512,86.512,0,0,1,26.449,25.173,87.587,87.587,0,0,1,88.079,0Z" transform="translate(-0.008 -0.007)" fill="#fff" stroke="#707070" stroke-width="1"/>
    </clipPath>
  </defs>
  <g id="img35" transform="translate(0.008 0.007)" clip-path="url(#clip-path)">
    <g id="materia_organica-01" data-name="materia organica-01" transform="translate(-13.743 -35.261)">
      <path id="Trazado_124020" data-name="Trazado 124020" d="M341.868,410.294a49.389,49.389,0,0,1,9.765,23.286c.959,6.135.162,12.549.258,18.864.052,3.494-.435,6.686-3.806,8.451-3.5,1.834-6.461.3-8.607-2.392-3.238-4.075-5.686-4.814-9.875-.649-5.627,5.584-12.4,5.365-18.379.143-3.252-2.837-5.229-4.414-9.189-.407-5.856,5.923-12.921,5.788-19.109.068-3.024-2.792-4.72-4.082-8.349-.43-6.2,6.225-13.467,6.429-19.832.106-3.474-3.448-5.531-3.124-8.43.4-2.3,2.792-5.222,5.282-9.278,3.192-3.806-1.939-4.137-5.508-4.02-9.326a74.8,74.8,0,0,0-.066-10.911c-.738-6.587-9.75-10.624-14.75-6.738-6.232,4.829-12.781,5.561-18.475,0-4.019-3.924-6.269-3.245-10,.143-5.9,5.4-12.73,5.086-18.32-.483-3.784-3.773-6.033-3.313-9.138.415-2.08,2.5-4.705,4.731-8.445,3.139-3.99-1.705-4.676-5.139-4.425-9.01.738-10.964-2.729-22.637,5.472-32.447,1.158-1.388.479-4.475.479-6.791,0-13.243.192-26.493-.037-39.728-.17-10.006,1.224-19.875-4.632-29.579-3.724-6.172-1.763-14.956-.841-22.464.649-5.282,5.362-8.61,9.949-6.708,5.782,2.392,9.2.385,14.382-1.826,7.043-3.018,12.471-4.633,10.51-14.1a3.31,3.31,0,0,1,1.377-3.548,3.143,3.143,0,0,1,3.726.2c4.152,3.464,7.161.573,10.613-.551a10.188,10.188,0,0,0,1.807-.717c32.126-17.159,64.245-17.031,96.43-.128a85.266,85.266,0,0,0,8.909,3.607c6.3-24.441-5.635-35.5-24.272-34.461-22.907,1.275-45.933.362-68.906.468-13.054.06-18.866,4.724-21.845,17.536-.686,2.965-.915,6.572-4.86,5.878s-3.393-4.384-2.95-7.3c1.586-10.692,7.375-18.374,17.2-22.094,4.226-1.592,6.121-3.245,6.4-8.089.494-8.662,7.869-12.654,13.209-17.944h58.264c7.014,5.682,13.755,11.477,13.718,21.883,0,3.139,3.016,2.935,4.993,3.728,12.235,4.867,18.268,14.1,18.327,27.436.059,14.556.118,29.111-.044,43.667-.044,4.12.162,7.168,5.45,6.512a6.265,6.265,0,0,1,4.506,1.358c5.052,4.656,9,5.931,14.868,0,4.137-4.143,10.111-1.509,9.986,5-.221,11.243,3.688,23.279-4.469,33.488-2.05,2.558-1.128,5.735-1.151,8.632-.1,11.907-.066,23.814,0,35.729,0,3.652.561,7.478-4.064,8.866-1-1.268-2.9-2.55-2.869-3.773.42-19.106-3.525-38.483,2.862-57.347-3.732-2.015-9.411,1.305-11.94-4.293.524-2.6,2.072-4.3,4.661-3.9,11.985,1.841,10.6-5.214,8.7-14.737-6.092,9.651-11.358,8.738-17.169,1.509-3.887-4.844-8.378-3.418-12.361.717-2.832,2.95-5.31,6.972-10.443,4.777-4.713-5.976-9.588-13.643-17.464-4.784-5.738,6.459-9.684,5.863-14.677-.287-3.3-4.052-8.032-5.546-11.7-1.124-6.011,7.221-11.527,8.889-17.634-.5-2.574,14.51-2.574,14.51,9.691,14.51,6.129,0,12.272-.181,18.394.075,3.2.136,8.577-1.788,8.636,3.305.059,5.75-5.605,4.022-9.145,4.1-8.754.2-17.516.068-24.847.068a431.157,431.157,0,0,1,.243,87.7c.885.038,3.688.143,6.475.3,3.075.166,7.611-.988,7.884,3.38.347,5.471-4.6,4.173-7.914,4.286-12.014.385-12.014.34-9.462,14.337,5.841-8.942,11.247-8.436,17.361-.641,3.96,5.056,8.85,3.018,12.339-1.358,4.72-5.886,8.85-6.625,13.821-.2,4.646,6.037,9.743,5.433,14.632-.091,1.711-1.939,3.636-3.682,5.465-5.516,4.322.392,6.4,4.045,9.1,6.708,3.975,3.924,8.408,4.437,11.594,0,6.011-8.429,11.52-6.98,17.324.928,1.63-13.9,1.63-13.9-9.654-13.9H318.415c-3.23,0-6.579.385-7.9-3.773,1.475-4.6,5.258-4.022,8.762-4.022H343.41C339.567,422.647,334.973,416.685,341.868,410.294ZM260.336,295.109c-7.021,9.877-12.494,8.678-18.593,1.328-4.115-4.958-8.946-2.377-12.376,1.856-4.477,5.523-8.54,6.316-13.275.347s-9.875-5.916-14.566,0c-4.58,5.757-8.673,5.8-13.275.053-3.407-4.21-8.113-6.882-12.39-2.007-5.576,6.338-10.8,8.813-17.7,1.064-2.006,8.3-1.859,13.582,7.737,12.352a49.257,49.257,0,0,1,10.65,0c3.112.279,8.3-1.7,8.024,3.939-.251,5.154-5.273,3.652-8.533,3.773-5.443.242-10.9.068-14.691.068,1.962,29.858,3.688,58.857-1.195,88.149,6.085,0,12.862.038,19.647,0,2.751,0,5.672.279,5.863,3.6.236,4.1-3.09,4.346-6.114,4.369H166.937c-11.269,0-11.269,0-8.164,12.76,5.229-7.448,10.266-8.119,15.975-.634,4.713,6.188,9.669,3.675,13.681-1.305,4.145-5.161,7.995-6.127,12.412-.37,5.163,6.731,10.561,6.791,15.871,0,3.894-4.95,7.891-5.342,11.756,0,3.592,4.935,5.605,3.064,8.275-1.177,1.925-3.056,2.286-5.991,2.294-9.3,0-18.864.074-37.729.081-56.593,0-1.969.472-4.6-.538-5.8-8.2-9.772-4.617-21.437-5.362-32.386-.236-3.448.3-6.791,3.879-8.3a6.941,6.941,0,0,1,8.681,2.5c3.518,4.663,6.062,2.9,10.207.2C262.961,309.061,260.284,303.213,260.336,295.109Zm-66.318-2.558c12.752-8.806,12.862-9.055,26.344-1.509,3.525,1.969,4.573-.355,6.439-1.819,6.549-5.131,13.327-5.35,19.279.415,3.894,3.773,6.313,3.162,9.352-.566a7.274,7.274,0,0,1,8.747-2.422c4.145,1.592,4.314,5.282,4.27,9.055-.037,3.305-.177,6.625.037,9.915.487,7.546,8.931,11.854,14.868,7.651,6.763-4.792,13.275-4.482,19.426,1.1,4.285,3.894,6.158,2.618,6.2-2.837.052-7.274-.3-14.571.133-21.822.295-5.176-1.954-7.168-6.239-9.485-31.949-17.227-64.053-20.9-96.858-2.656a33.9,33.9,0,0,1-7.088,3.116c-6.062,1.751-7.574,5.433-4.912,11.862ZM250.645,231.1v.091c9.012,0,18.025.143,27.03-.091,2.6-.075,6.335,1.834,7.678-1.592,1.409-3.607-.656-7.078-3.1-9.809a12.134,12.134,0,0,0-9.315-4.467c-14.8,0-29.6,0-44.4.113-5.332,0-9.219,2.769-11.513,7.546s-3,8.678,4.661,8.3C231.337,230.767,241.005,231.1,250.645,231.1Z" transform="translate(-148.495 -207.36)" fill="#0e0e0d"/>
      <path id="Trazado_124021" data-name="Trazado 124021" d="M362.627,374.084c2.53,5.6,8.209,2.264,11.94,4.294-6.387,18.91-2.441,38.272-2.862,57.347,0,1.245,1.866,2.528,2.869,3.773v6.6c-6.9,6.391-2.3,12.352,1.541,19.762H352.006c-3.5,0-7.265-.581-8.762,4.022H329.232c2.013,4.958,3.643,9.176,8.946,10.043-1.829,1.834-3.754,3.577-5.465,5.516-4.89,5.524-9.986,6.112-14.632.091-4.956-6.421-9.1-5.682-13.821.2-3.481,4.346-8.378,6.414-12.339,1.358-6.114-7.795-11.52-8.3-17.361.641-2.552-13.96-2.552-13.914,9.462-14.337,3.311-.113,8.26,1.185,7.914-4.286-.273-4.369-4.809-3.214-7.884-3.38-2.8-.159-5.59-.264-6.475-.3a431.152,431.152,0,0,0-.3-87.711c7.331,0,16.093.136,24.847-.068,3.54-.083,9.2,1.645,9.145-4.1-.059-5.093-5.436-3.169-8.636-3.305-6.121-.257-12.265-.068-18.394-.075-12.265,0-12.265,0-9.691-14.51,6.107,9.387,11.623,7.719,17.634.5,3.688-4.422,8.408-2.928,11.7,1.124,4.993,6.15,8.939,6.746,14.677.287,7.877-8.859,12.752-1.192,17.464,4.784-1.556,4.029-7.228,5.818-6.011,11.651Zm-27.185,34.19c.044-12.647-9.219-24.2-19.507-24.327a16.444,16.444,0,0,0-12.235,4.9A17.236,17.236,0,0,0,298.75,401.3c0,10.715,10.842,19.913,23.6,20.079a13.252,13.252,0,0,0,13.091-13.107Zm30.282,23.482a17.045,17.045,0,0,0-16.115-17.627c-10.642-.46-19.64,10.111-20.1,23.626-.273,7.712,4.9,13.582,12.147,13.824C353.437,451.963,365.54,442.025,365.724,431.756Zm-44.546,7.508c-.044-10.617-11.1-19.951-23.6-19.966-7.434,0-12.752,5.373-12.8,12.971-.088,12.881,8.85,24.191,19.212,24.365a16.614,16.614,0,0,0,12.193-4.959A17.408,17.408,0,0,0,321.178,439.264Z" transform="translate(-181.223 -243.218)" fill="#dce7ed"/>
      <path id="Trazado_124022" data-name="Trazado 124022" d="M263.337,323.228c-.052,8.1,2.626,13.952-4.425,18.547-4.145,2.7-6.689,4.467-10.207-.2a6.941,6.941,0,0,0-8.681-2.5c-3.584,1.509-4.115,4.837-3.879,8.3.738,10.949-2.839,22.637,5.362,32.386,1.01,1.207.538,3.833.538,5.8,0,18.864-.074,37.729-.081,56.593,0,3.313-.369,6.248-2.294,9.3-2.67,4.241-4.683,6.112-8.275,1.177-3.865-5.282-7.862-4.912-11.756,0-5.31,6.791-10.694,6.693-15.871,0-4.425-5.757-8.268-4.792-12.412.37-4.012,4.98-8.968,7.493-13.681,1.305-5.708-7.485-10.746-6.791-15.975.634-3.1-12.73-3.1-12.73,8.164-12.76h12.612c3.024,0,6.35-.272,6.114-4.369-.192-3.32-3.112-3.622-5.863-3.6-6.785.053-13.563,0-19.647,0,4.9-29.285,3.157-58.291,1.195-88.149,3.791,0,9.248.174,14.691-.068,3.26-.143,8.282,1.358,8.533-3.773.273-5.637-4.912-3.66-8.024-3.939a49.249,49.249,0,0,0-10.65,0c-9.588,1.222-9.743-4.029-7.737-12.352,6.9,7.749,12.125,5.282,17.7-1.064,4.285-4.875,8.983-2.2,12.39,2.007,4.632,5.742,8.725,5.7,13.275-.053,4.691-5.908,9.883-5.863,14.566,0s8.85,5.176,13.275-.347c3.429-4.233,8.26-6.791,12.376-1.856C250.844,331.906,256.316,333.106,263.337,323.228ZM222.59,422.575c12.884,0,16.034-2.777,16.727-14.888,1.387-24.32-21.654-45.735-44.657-41.8-7.242,1.245-10.569,5.161-11.218,12.5C181.289,402.5,198.923,422.515,222.59,422.575Z" transform="translate(-151.497 -235.479)" fill="#a3be3c"/>
      <path id="Trazado_124023" data-name="Trazado 124023" d="M209.771,311.469c-2.662-6.429-1.151-10.111,4.912-11.832a33.908,33.908,0,0,0,7.088-3.116c32.8-18.245,64.9-14.571,96.858,2.656,4.285,2.317,6.534,4.309,6.239,9.485-.428,7.251-.081,14.548-.133,21.822-.044,5.456-1.918,6.731-6.2,2.837-6.144-5.584-12.663-5.893-19.426-1.1-5.937,4.2-14.382-.083-14.868-7.651-.214-3.29-.074-6.61-.037-9.915.044-3.773-.125-7.47-4.27-9.055a7.274,7.274,0,0,0-8.747,2.422c-3.039,3.728-5.458,4.331-9.352.566-5.952-5.765-12.73-5.546-19.279-.415-1.866,1.464-2.913,3.773-6.438,1.818C222.633,302.437,222.523,302.663,209.771,311.469Z" transform="translate(-164.248 -226.278)" fill="#f0d04f"/>
      <path id="Trazado_124024" data-name="Trazado 124024" d="M274.476,233.664c-9.654,0-19.323-.332-28.955.106-7.663.347-6.992-3.479-4.661-8.3s6.18-7.546,11.513-7.546c14.795-.091,29.6-.083,44.4-.113a12.134,12.134,0,0,1,9.315,4.467c2.441,2.762,4.506,6.233,3.1,9.809-1.342,3.426-5.074,1.509-7.678,1.592-9.005.234-18.018.09-27.03.09Z" transform="translate(-172.326 -209.925)" fill="#fcfcfc"/>
      <path id="Trazado_124025" data-name="Trazado 124025" d="M382.787,374.22H350.159c-1.217-5.833,4.425-7.621,6.011-11.651,5.163,2.2,7.611-1.826,10.443-4.776,3.983-4.135,8.474-5.561,12.361-.717,5.812,7.244,11.063,8.157,17.169-1.509,1.9,9.523,3.289,16.6-8.7,14.737C384.86,369.919,383.311,371.624,382.787,374.22Z" transform="translate(-201.384 -243.355)" fill="#fcfcfc"/>
      <path id="Trazado_124026" data-name="Trazado 124026" d="M358.106,517.853c-5.3-.868-6.933-5.086-8.946-10.043h14.013c1.32,4.143,4.669,3.773,7.9,3.773h15.385c11.284,0,11.284,0,9.654,13.9-5.8-7.908-11.314-9.357-17.324-.928-3.186,4.46-7.619,3.946-11.594,0C364.53,521.9,362.428,518.246,358.106,517.853Z" transform="translate(-201.166 -281.099)" fill="#fcfcfc"/>
      <path id="Trazado_124027" data-name="Trazado 124027" d="M344.538,418.175a13.251,13.251,0,0,1-13.1,13.077c-12.752-.166-23.564-9.364-23.6-20.079a17.236,17.236,0,0,1,4.949-12.454,16.444,16.444,0,0,1,12.235-4.9C335.319,393.953,344.582,405.528,344.538,418.175Zm-7.471.9c-.288-9.666-6.254-17.416-12.088-17.25-6.21.189-9.477,3.554-9.249,9.983.184,5.282,9.455,12.209,15.709,11.869C335.348,423.464,337.1,421.117,337.067,419.073Z" transform="translate(-190.319 -253.12)" fill="#0e0e0d"/>
      <path id="Trazado_124028" data-name="Trazado 124028" d="M385.761,451.482c-.184,10.27-12.287,20.207-24.087,19.823-7.25-.234-12.42-6.112-12.147-13.824.465-13.514,9.462-24.086,20.1-23.626A17.044,17.044,0,0,1,385.761,451.482Zm-7.124-1.019c-.966-4.407-3.171-8.972-9.588-8.866-9.684.166-10.038,8.693-12.1,15.227-1.136,3.607.856,6.3,4.86,6.753C368.4,464.325,378.26,457.3,378.636,450.463Z" transform="translate(-201.259 -262.945)" fill="#0e0e0d"/>
      <path id="Trazado_124029" data-name="Trazado 124029" d="M325.3,460.676a17.408,17.408,0,0,1-5.012,12.41,16.614,16.614,0,0,1-12.2,4.945c-10.384-.128-19.3-11.447-19.212-24.35.052-7.6,5.369-12.979,12.8-12.971C314.2,440.725,325.252,450.059,325.3,460.676Zm-7.419.4c.111-5.946-7.884-12.36-15.488-12.586-3.99-.128-5.967,1.917-5.9,5.976.059,7.583,6.394,16.238,11.948,15.846S317.095,466.5,317.876,461.076Z" transform="translate(-185.341 -264.631)" fill="#0e0e0d"/>
      <path id="Trazado_124030" data-name="Trazado 124030" d="M230.894,436.72c-23.667-.06-41.3-20.079-39.147-44.188.649-7.334,3.975-11.251,11.218-12.5,23-3.939,46.043,17.476,44.657,41.8C246.928,433.944,243.778,436.743,230.894,436.72Zm1.932-8.979c-7.375-7.3-14.013-13.839-20.555-20.441-2.3-2.309-5.3-5.131-2.028-8.247s5.9.083,8.113,2.445c6.638,7.033,13.238,14.141,20.651,22.086,3.171-17.5-12.235-36.974-31.433-35.895-5.583.324-7.818,2.664-7.906,8.5C199.424,414.37,213.12,428.277,232.826,427.741Z" transform="translate(-159.801 -249.625)" fill="#0e0e0d"/>
      <path id="Trazado_124031" data-name="Trazado 124031" d="M339.872,421.679c0,2.045-1.718,4.392-5.627,4.6-6.254.34-15.488-6.618-15.709-11.869-.229-6.429,3.039-9.809,9.248-9.983C333.626,404.263,339.585,412.013,339.872,421.679Z" transform="translate(-193.125 -255.726)" fill="#db9b85"/>
      <path id="Trazado_124032" data-name="Trazado 124032" d="M381.17,452.986c-.406,6.836-10.266,13.861-16.823,13.114-4-.453-6-3.147-4.86-6.753,2.058-6.535,2.412-15.091,12.1-15.227C378.029,444.029,380.234,448.556,381.17,452.986Z" transform="translate(-203.794 -265.467)" fill="#db9b85"/>
      <path id="Trazado_124033" data-name="Trazado 124033" d="M320.585,463.612c-.782,5.425-3.879,8.889-9.448,9.259s-11.889-8.3-11.948-15.846c-.037-4.06,1.94-6.1,5.9-5.976C312.7,451.252,320.7,457.666,320.585,463.612Z" transform="translate(-188.05 -267.167)" fill="#db9b85"/>
      <path id="Trazado_124034" data-name="Trazado 124034" d="M235.726,430.368c-19.706.536-33.4-13.371-33.107-31.556.088-5.833,2.323-8.172,7.906-8.5,19.175-1.109,34.6,18.4,31.433,35.895-7.434-7.946-14.013-15.054-20.65-22.086-2.213-2.362-4.978-5.463-8.113-2.445s-.273,5.938,2.028,8.247C221.742,416.529,228.372,423.064,235.726,430.368Z" transform="translate(-162.7 -252.251)" fill="#db9b85"/>
    </g>
  </g>
</svg>
