<svg xmlns="http://www.w3.org/2000/svg" width="180.028" height="179.772" viewBox="0 0 180.028 179.772">
  <g id="img30" transform="translate(-107.954 -229.89)">
    <path id="Trazado_123925" data-name="Trazado 123925" d="M414.706,498.994a5.538,5.538,0,0,1-4.646,1.875c-19.552-.047-39.1,0-58.652-.038-4.219,0-4.908-.7-4.908-4.875V406.422c0-4.219.577-4.8,4.927-4.8q29.321,0,58.647-.037a10.143,10.143,0,0,1,4.631,1.106Zm-63.223-41.125c0,11.353.075,22.707-.052,34.061-.028,2.653.553,3.638,3.459,3.614q25.637-.211,51.264,0c2.625,0,3.652-.516,3.633-3.441q-.183-34.22,0-68.468c0-2.531-.558-3.455-3.281-3.431q-25.806.178-51.616,0c-2.944-.023-3.464,1.022-3.441,3.638C351.553,435.162,351.483,446.516,351.483,457.869Zm29.12-50.983H357.4c-6.263,0-6.2,0-5.906,6.239.075,1.65.53,2.222,2.217,2.217q26.888-.07,53.782,0c1.688,0,2.344-.553,2.189-2.222a13.692,13.692,0,0,1,0-3.159c.347-2.466-.6-3.178-3.08-3.136C397.942,406.975,389.27,406.886,380.6,406.886Z" transform="translate(-126.724 -91.208)" fill="#db9b85"/>
    <path id="Trazado_123926" data-name="Trazado 123926" d="M191.65,229.89a15.043,15.043,0,0,1,3.684,4.444q14.166,24.845,28.482,49.6c2.447,4.256,2.344,4.688-1.791,7.069q-38.462,22.154-76.934,44.294c-3.83,2.208-4.313,2.091-6.563-1.767q-14.583-25.21-29.139-50.439c-2.208-3.825-2.086-4.219,1.875-6.511q37.754-21.98,75.495-43.989c1.247-.727,2.93-1.031,3.483-2.7Zm15.811,62.552c-.333-.642-.633-1.28-.984-1.875-8.639-14.757-17.344-29.462-25.857-44.3-1.467-2.564-2.761-2.7-4.95-1.35-2.48,1.533-5,3-7.533,4.449-17.283,9.933-34.557,19.89-51.892,29.729-1.875,1.073-2.213,1.973-1.153,3.792q13.125,22.529,26.087,45.128c1.28,2.231,2.438,2.438,4.6,1.134,7.163-4.317,14.424-8.475,21.676-12.657q19.219-11.025,38.439-22C206.665,294.041,207.513,293.581,207.462,292.442Zm-17.855-55.516c-1.683,1.022-4.036,1.875-5.508,3.544-.938,1.031.938,2.649,1.645,3.91q11.841,20.663,23.785,41.251c3.15,5.447,3.127,5.41,8.367,1.875,1.252-.839,1.406-1.519.661-2.813q-13.449-23.171-26.832-46.408C191.336,237.643,191.06,236.771,189.606,236.926Z" transform="translate(0 0)" fill="#db9b85"/>
    <path id="Trazado_123927" data-name="Trazado 123927" d="M397.452,370.395a7.346,7.346,0,0,1-7.378,7.317,7.158,7.158,0,0,1-7.224-7.031,7.659,7.659,0,0,1,7.453-7.341A7.158,7.158,0,0,1,397.452,370.395Zm-5.156-.187a2.094,2.094,0,0,0-2.452-1.95,1.864,1.864,0,0,0-1.875,2.077c0,1.317.5,2.344,2.081,2.1a2.428,2.428,0,0,0,2.245-2.227Z" transform="translate(-146.034 -70.893)" fill="#004624"/>
    <path id="Trazado_123928" data-name="Trazado 123928" d="M357.049,478.938c0-11.354.07-22.707-.052-34.061,0-2.616.5-3.661,3.441-3.638q25.782.22,51.616,0c2.728,0,3.281.9,3.281,3.431q-.131,34.22,0,68.468c0,2.925-1.008,3.455-3.633,3.441q-25.63-.148-51.264,0c-2.906.023-3.488-.938-3.459-3.614C357.124,501.645,357.049,490.291,357.049,478.938Zm4.158,2c-.047,4.261,3.563,8.232,7.439,8.185,3.549-.042,7.261-3.9,7.327-7.617.075-4.036-3.216-7.749-6.933-7.824A7.637,7.637,0,0,0,361.207,480.935Zm22.135.469c-4.486,0-7.346,2.724-7.369,7,0,3.984,3.6,7.791,7.392,7.767,3.863,0,7.435-3.816,7.374-7.828-.066-4.336-2.864-6.956-7.4-6.956Zm20.452,14.063c-4.589,0-7.444,2.878-7.364,7.449.056,3.253,4.06,7.285,7.271,7.317,3.886.038,7.444-3.68,7.43-7.767-.009-4.416-2.728-7-7.336-7.017Zm-.642-21.094c-4.631-.023-7.228,2.545-7.556,6.821-.3,3.97,3.75,7.571,6.957,7.885,3.656.356,7.65-3.6,7.824-7.472.188-4.144-2.888-7.224-7.224-7.252Zm-26.874-30.235c-4.153,0-7.252,2.691-7.308,6.319-.056,3.525,3.961,8.377,6.98,8.438,3.722.061,7.782-3.83,7.758-7.439-.028-4.613-2.813-7.341-7.43-7.336Zm1.106,63.349c0-4.589-2.32-7.083-6.6-7.1-4.66,0-7.4,2.5-7.449,6.853-.047,3.886,3.314,7.744,6.881,7.894,4.181.155,7.163-3.028,7.167-7.669Zm9.652-10.613c-4.688,0-7.4,2.634-7.5,7.317-.061,3.441,3.53,6.75,7.317,6.75,4.528,0,7.35-2.667,7.388-6.989.056-4.463-2.6-7.069-7.2-7.1Z" transform="translate(-132.29 -112.276)" fill="#a3be3c"/>
    <path id="Trazado_123929" data-name="Trazado 123929" d="M386.158,412.829c8.667,0,17.344.089,26.007-.061,2.48-.042,3.427.67,3.08,3.136a13.693,13.693,0,0,0,0,3.159c.15,1.669-.5,2.227-2.189,2.222q-26.893-.07-53.782,0c-1.688,0-2.142-.567-2.217-2.217-.291-6.244-.356-6.239,5.906-6.239Z" transform="translate(-132.279 -97.15)" fill="#fdfefe"/>
    <path id="Trazado_123930" data-name="Trazado 123930" d="M214.849,308.522c.052,1.139-.8,1.6-1.584,2.053q-19.219,11.011-38.439,22c-7.252,4.167-14.532,8.325-21.676,12.657-2.166,1.3-3.324,1.1-4.6-1.134Q135.6,321.478,122.46,298.973c-1.059-1.819-.741-2.719,1.153-3.792q26.017-14.766,51.892-29.729c2.531-1.453,5.053-2.916,7.533-4.449,2.189-1.345,3.483-1.214,4.95,1.35,8.494,14.841,17.218,29.532,25.857,44.3C214.216,307.242,214.516,307.9,214.849,308.522Zm-62.205,1.444c-2.344.3-4.219-1.875-6.717-1.228a7.134,7.134,0,0,0-5.447,9.249c1.242,4.542,4.617,6.731,8.4,5.452,4.974-1.678,6.806-5.306,5.091-9.971-.436-1.181-1.486-2.128-1.355-3.53.375.272.783.511,1.13.816,3.324,2.906,7.458,2.625,10.4-.717a6.892,6.892,0,0,0-.689-9.989c-2.5-2.306-6.656-2.738-8.972-.572-2.967,2.77-4.875,5.33-1.847,10.491Zm3.75,13.35c-4.435,0-7.317,2.836-7.271,7.107.042,3.675,3.7,7.542,7.242,7.65s7.566-4.046,7.524-7.8c-.056-4.046-3.22-6.98-7.5-6.961Zm17.682,2.813c4.308,0,8.133-3.361,8.1-7.088-.047-4.149-3.591-7.744-7.538-7.65a7.73,7.73,0,0,0-7.163,7.252c-.1,4.008,2.963,7.477,6.6,7.472Zm-16.922-44.284c-4.285-.08-7.289,2.634-7.327,6.614-.042,3.867,3.084,7.346,6.694,7.449,4.219.127,8.016-3.131,8.072-6.957.047-3.952-3.2-7.046-7.449-7.121ZM142.8,304a7.025,7.025,0,0,0-7.453-7.4c-4.1.037-6.661,3.038-6.614,7.753.028,3.178,3.506,6.9,6.539,7.008a7.516,7.516,0,0,0,7.519-7.378Z" transform="translate(-7.387 -16.08)" fill="#a3be3c"/>
    <path id="Trazado_123931" data-name="Trazado 123931" d="M275.611,244.88c1.453-.155,1.73.717,2.119,1.406l26.832,46.408c.755,1.3.591,1.978-.661,2.813-5.241,3.525-5.217,3.563-8.367-1.875q-11.9-20.626-23.785-41.251c-.727-1.261-2.569-2.878-1.645-3.91C271.575,246.769,273.928,245.9,275.611,244.88Z" transform="translate(-86.004 -7.953)" fill="#fdfefe"/>
    <path id="Trazado_123932" data-name="Trazado 123932" d="M398.075,375.779a2.428,2.428,0,0,1-2.264,2.231c-1.58.225-2.086-.788-2.081-2.1a1.875,1.875,0,0,1,1.875-2.077A2.112,2.112,0,0,1,398.075,375.779Z" transform="translate(-151.814 -76.46)" fill="#fdfefe"/>
    <path id="Trazado_123933" data-name="Trazado 123933" d="M365.619,517.345a7.633,7.633,0,0,1,7.824-7.247c3.708.075,6.994,3.783,6.919,7.814-.066,3.708-3.774,7.561-7.313,7.6C369.177,525.563,365.573,521.6,365.619,517.345Zm9.8.188c-.122-1.369-.872-2.288-2.147-2.283a2.217,2.217,0,0,0-2.316,2.438,2.063,2.063,0,0,0,2.156,2.194c1.622.037,2.152-.994,2.306-2.33Z" transform="translate(-136.88 -148.855)" fill="#004624"/>
    <path id="Trazado_123934" data-name="Trazado 123934" d="M404.869,526.88c4.533,0,7.332,2.62,7.4,6.938.061,4.013-3.511,7.8-7.374,7.828-3.792,0-7.411-3.783-7.392-7.768C397.523,529.6,400.383,526.885,404.869,526.88Zm-.178,4.941a2.053,2.053,0,0,0-1.847,2.217,2.217,2.217,0,0,0,2.391,2.414c1.453-.056,2.222-1.083,2.1-2.625C407.208,532.416,406.4,531.793,404.691,531.821Z" transform="translate(-153.817 -157.771)" fill="#004624"/>
    <path id="Trazado_123935" data-name="Trazado 123935" d="M448.5,556.88c4.608,0,7.327,2.6,7.336,7,0,4.088-3.544,7.8-7.43,7.767-3.211-.033-7.214-4.064-7.271-7.317C441.073,559.749,443.914,556.871,448.5,556.88Zm2.489,7.031c-.089-1.355-.741-2.147-2.184-2.1a1.944,1.944,0,0,0-2.091,2.222c0,1.566.891,2.517,2.344,2.377a2.113,2.113,0,0,0,1.931-2.48Z" transform="translate(-176.998 -173.708)" fill="#004624"/>
    <path id="Trazado_123936" data-name="Trazado 123936" d="M446.9,511.88c4.336.028,7.411,3.108,7.224,7.233-.173,3.872-4.167,7.828-7.824,7.472-3.206-.314-7.257-3.914-6.956-7.885C439.67,514.425,442.267,511.856,446.9,511.88Zm0,9.671c1.219-.37,2.255-1.106,2.2-2.592a2.052,2.052,0,0,0-2.222-2.133,2.128,2.128,0,0,0-2.3,2.419,2.428,2.428,0,0,0,2.334,2.306Z" transform="translate(-176.036 -149.802)" fill="#004624"/>
    <path id="Trazado_123937" data-name="Trazado 123937" d="M389.448,447.15c4.617,0,7.392,2.719,7.421,7.294.023,3.6-4.031,7.5-7.749,7.425-3.014-.052-7.031-4.889-6.971-8.41C382.205,449.836,385.3,447.159,389.448,447.15Zm.1,4.927a2.264,2.264,0,0,0-2.245,2.4,2.012,2.012,0,0,0,2.344,2.006c1.341-.084,2.419-.769,2.344-2.391C391.871,452.7,391.056,452.067,389.546,452.077Z" transform="translate(-145.661 -115.416)" fill="#004624"/>
    <path id="Trazado_123938" data-name="Trazado 123938" d="M384.588,574.477c0,4.641-2.986,7.824-7.167,7.65-3.567-.15-6.928-4.008-6.882-7.894.052-4.35,2.789-6.867,7.449-6.853C382.268,567.394,384.588,569.888,384.588,574.477Zm-4.425-.173c-.417-1.106-.938-2.091-2.4-1.983a2.085,2.085,0,0,0-2.175,2.194,2.014,2.014,0,0,0,2.306,2C379.357,576.507,379.859,575.565,380.163,574.3Z" transform="translate(-139.494 -179.286)" fill="#004624"/>
    <path id="Trazado_123939" data-name="Trazado 123939" d="M412.615,559.88c4.6.028,7.261,2.634,7.219,7.078-.037,4.322-2.859,6.994-7.388,6.989-3.788,0-7.378-3.309-7.317-6.75C405.214,562.514,407.932,559.856,412.615,559.88Zm2.344,6.858a2.109,2.109,0,0,0-2.067-2.344c-1.467-.033-2.274.984-2.2,2.531A1.955,1.955,0,0,0,412.934,569c1.509-.023,2.039-.909,2.044-2.259Z" transform="translate(-157.869 -175.302)" fill="#004624"/>
    <path id="Trazado_123940" data-name="Trazado 123940" d="M173.358,364.861c-.131,1.406.938,2.344,1.355,3.53,1.716,4.664-.117,8.292-5.091,9.971-3.788,1.28-7.163-.909-8.4-5.452a7.134,7.134,0,0,1,5.447-9.249c2.489-.623,4.355,1.533,6.717,1.228ZM168.75,373.3a1.983,1.983,0,0,0,1.758-2.124,2.332,2.332,0,0,0-2.653-2.517A2.02,2.02,0,0,0,165.815,371c.169,1.3.839,2.424,2.934,2.311Z" transform="translate(-28.125 -71.003)" fill="#004624"/>
    <path id="Trazado_123941" data-name="Trazado 123941" d="M187.217,394.74c4.28,0,7.435,2.916,7.5,6.952.047,3.75-3.961,7.894-7.5,7.786s-7.186-3.975-7.228-7.641C179.913,397.571,182.806,394.759,187.217,394.74Zm.389,4.435c-1.369.244-2.166.886-2.077,2.344s.708,2.5,2.274,2.5c1.406,0,2.058-.82,2.02-2.241a2.543,2.543,0,0,0-2.217-2.606Z" transform="translate(-38.266 -87.574)" fill="#004624"/>
    <path id="Trazado_123942" data-name="Trazado 123942" d="M225.6,384.028c-3.628,0-6.685-3.455-6.591-7.472a7.339,7.339,0,1,1,14.672.394C233.717,380.676,229.9,384.018,225.6,384.028Zm2.513-7.177a1.938,1.938,0,0,0-1.974-2.367,2.058,2.058,0,0,0-2.3,2.109,2.195,2.195,0,0,0,2.124,2.344C227.441,379.2,228,378.173,228.111,376.851Z" transform="translate(-58.994 -74.068)" fill="#004624"/>
    <path id="Trazado_123943" data-name="Trazado 123943" d="M185.793,352.921c-3.028-5.156-1.12-7.721,1.847-10.491,2.316-2.166,6.474-1.734,8.972.572a6.892,6.892,0,0,1,.689,9.989c-2.944,3.342-7.078,3.624-10.4.717-.347-.3-.755-.544-1.13-.816Zm6.028-2.119c1.519-.206,1.833-1.364,1.791-2.738-.033-1.228-.713-2.03-1.931-1.9a2.367,2.367,0,0,0-2.25,2.592A2.018,2.018,0,0,0,191.822,350.8Z" transform="translate(-40.537 -59.035)" fill="#004624"/>
    <path id="Trazado_123944" data-name="Trazado 123944" d="M188.7,306.388c4.242.075,7.5,3.164,7.421,7.092-.052,3.82-3.825,7.074-8.058,6.947-3.6-.1-6.722-3.577-6.685-7.439C181.441,309.018,184.441,306.308,188.7,306.388Zm.4,9.563c1.3-.366,2.311-.97,2.128-2.6a2.033,2.033,0,0,0-2.264-2.039,1.958,1.958,0,0,0-2.156,2.119,2.345,2.345,0,0,0,2.311,2.517Z" transform="translate(-39.006 -40.637)" fill="#004624"/>
    <path id="Trazado_123945" data-name="Trazado 123945" d="M150.565,345.207a7.473,7.473,0,0,1-7.5,7.355c-3.024-.1-6.5-3.825-6.525-6.994-.047-4.711,2.508-7.707,6.6-7.749A7.011,7.011,0,0,1,150.565,345.207Zm-6.9,2.344c1.317-.347,2.47-1.045,2.513-2.461a2.155,2.155,0,0,0-2.4-2.344,2.016,2.016,0,0,0-2.259,2.067,2.547,2.547,0,0,0,2.147,2.742Z" transform="translate(-15.185 -57.336)" fill="#004624"/>
    <path id="Trazado_123946" data-name="Trazado 123946" d="M381.865,523.709c-.15,1.359-.684,2.4-2.311,2.344a2.062,2.062,0,0,1-2.156-2.2,2.227,2.227,0,0,1,2.32-2.447C380.993,521.421,381.743,522.34,381.865,523.709Z" transform="translate(-143.131 -154.863)" fill="#fdfefe"/>
    <path id="Trazado_123947" data-name="Trazado 123947" d="M410.736,537.419c1.711-.028,2.517.6,2.634,2.006.127,1.542-.642,2.569-2.1,2.625a2.217,2.217,0,0,1-2.386-2.414A2.075,2.075,0,0,1,410.736,537.419Z" transform="translate(-159.862 -163.369)" fill="#004624"/>
    <path id="Trazado_123948" data-name="Trazado 123948" d="M457.315,569.538a2.147,2.147,0,0,1-1.931,2.5c-1.453.141-2.344-.811-2.344-2.377a2.139,2.139,0,1,1,4.275-.122Z" transform="translate(-183.321 -179.316)" fill="#004624"/>
    <path id="Trazado_123949" data-name="Trazado 123949" d="M452.9,527.155a2.383,2.383,0,0,1-2.316-2.306,2.137,2.137,0,0,1,2.3-2.419,2.038,2.038,0,0,1,2.222,2.133C455.151,526.048,454.114,526.784,452.9,527.155Z" transform="translate(-182.015 -155.407)" fill="#fdfefe"/>
    <path id="Trazado_123950" data-name="Trazado 123950" d="M395.773,457.91c1.514,0,2.344.614,2.409,2.02.094,1.622-.938,2.3-2.344,2.391a2.036,2.036,0,0,1-2.344-2.006,2.259,2.259,0,0,1,2.278-2.4Z" transform="translate(-151.686 -121.132)" fill="#004624"/>
    <path id="Trazado_123951" data-name="Trazado 123951" d="M385.89,579.894c-.3,1.261-.806,2.2-2.264,2.213-1.383,0-2.288-.666-2.306-2a2.058,2.058,0,0,1,2.175-2.194C384.971,577.8,385.473,578.787,385.89,579.894Z" transform="translate(-145.221 -184.876)" fill="#fdfefe"/>
    <path id="Trazado_123952" data-name="Trazado 123952" d="M421.305,571.858c0,1.35-.558,2.236-2.03,2.264a1.949,1.949,0,0,1-2.241-2.072c-.075-1.547.731-2.564,2.2-2.531A2.1,2.1,0,0,1,421.305,571.858Z" transform="translate(-164.192 -180.422)" fill="#fdfefe"/>
    <path id="Trazado_123953" data-name="Trazado 123953" d="M174.233,379c-2.091.112-2.761-1.008-2.93-2.311a2.011,2.011,0,0,1,2.034-2.32,2.34,2.34,0,0,1,2.653,2.513A1.978,1.978,0,0,1,174.233,379Z" transform="translate(-33.64 -76.748)" fill="#fdfefe"/>
    <path id="Trazado_123954" data-name="Trazado 123954" d="M193.969,404.36a2.544,2.544,0,0,1,2.227,2.6c.037,1.406-.628,2.245-2.025,2.241-1.57,0-2.189-1.041-2.278-2.5S192.6,404.6,193.969,404.36Z" transform="translate(-44.587 -92.684)" fill="#fdfefe"/>
    <path id="Trazado_123955" data-name="Trazado 123955" d="M233.751,382.857c-.108,1.322-.68,2.344-2.152,2.1a2.212,2.212,0,0,1-2.123-2.344,2.06,2.06,0,0,1,2.3-2.109A1.921,1.921,0,0,1,233.751,382.857Z" transform="translate(-64.555 -80.013)" fill="#fdfefe"/>
    <path id="Trazado_123956" data-name="Trazado 123956" d="M197.569,356.532c-1.538.033-2.344-.736-2.391-2.048a2.372,2.372,0,0,1,2.25-2.588c1.214-.122,1.875.675,1.927,1.9C199.4,355.173,199.083,356.326,197.569,356.532Z" transform="translate(-46.331 -64.807)" fill="#fdfefe"/>
    <path id="Trazado_123957" data-name="Trazado 123957" d="M195.4,321.56a2.311,2.311,0,0,1-2.292-2.522,1.935,1.935,0,0,1,2.156-2.128,2.018,2.018,0,0,1,2.269,2.049C197.713,320.585,196.7,321.171,195.4,321.56Z" transform="translate(-45.238 -46.228)" fill="#fdfefe"/>
    <path id="Trazado_123958" data-name="Trazado 123958" d="M149.314,353.229a2.548,2.548,0,0,1-2.152-2.742,2.025,2.025,0,0,1,2.264-2.067,2.159,2.159,0,0,1,2.4,2.344C151.784,352.17,150.631,352.883,149.314,353.229Z" transform="translate(-20.825 -62.967)" fill="#fdfefe"/>
  </g>
</svg>
