<?xml version="1.0" encoding="utf-8"?>
<!-- Generator: Adobe Illustrator 28.3.0, SVG Export Plug-In . SVG Version: 6.00 Build 0)  -->
<svg version="1.1" id="Capa_1" xmlns="http://www.w3.org/2000/svg" xmlns:xlink="http://www.w3.org/1999/xlink" x="0px" y="0px"
	 viewBox="0 0 755 480.9" style="enable-background:new 0 0 755 480.9;" xml:space="preserve">
<style type="text/css">
	.st0{fill:#FFD947;}
	.st1{fill:none;}
	.st2{fill:#020202;}
	.st3{font-family:'Roboto-BoldItalic';}
	.st4{font-size:15px;}
	.st5{font-size:16px;}
	.st6{fill:none;stroke:#B0B1B5;stroke-miterlimit:10;}
	.st7{fill:#B0B1B5;}
	.st8{fill:#ADCE32;}
	.st9{fill:#FFA686;}
	.st10{fill:#070707;}
	.st11{fill:#0B481E;}
	.st12{fill:#DFCCC5;}
</style>
<g id="img67" transform="translate(0 -2)">
	<g id="OBJECTS" transform="translate(0 0)">
		<g id="Grupo_1084146">
			<g id="Grupo_1084145">
				<g id="Grupo_1084105" transform="translate(397.247 107.044)">
					<g id="Grupo_1084100">
						<g id="Grupo_1084099">
							<g id="Grupo_1084096">
								<g id="Grupo_1084095">
									<path id="Trazado_717085" class="st0" d="M0,45.7C8.8,40.2,18.2,36,28.1,33c0.8-11,0.3-22.1-1.7-33
										c37.9,21.9,63.8,59.8,70.5,103c-7.3,8.3-15.6,15.7-24.7,22c-8.5-5.8-17.7-10.6-27.4-14C40.5,83.6,24,59.5,0,45.7z"/>
								</g>
								<path id="Trazado_717086" class="st0" d="M68.5,65.1l-5.3,3.9l2,6.2c0.1,0.3,0,0.7-0.3,0.9c-0.3,0.2-0.7,0.2-1,0l-5.3-3.9
									l-5.3,3.9c-0.3,0.2-0.7,0.2-1,0c-0.3-0.2-0.4-0.6-0.3-0.9l2-6.2l-5.3-3.9c-0.4-0.3-0.4-0.8-0.2-1.1c0.2-0.2,0.4-0.3,0.7-0.3
									h6.6l2-6.2c0.1-0.4,0.6-0.7,1-0.5c0.2,0.1,0.4,0.3,0.5,0.5l2,6.2h6.6c0.4,0,0.7,0.2,0.8,0.6C68.9,64.5,68.8,64.9,68.5,65.1z
									"/>
							</g>
							<g id="Grupo_1084098" transform="translate(130.765 6.312)">
								<g id="Grupo_1084097">
									<rect id="Rectángulo_361681" x="0" y="5.4" class="st1" width="174.9" height="59.6"/>
									<g id="Grupo" transform="translate(3.499)">
										<text transform="matrix(1 0 0 1 -2.167187e-05 16)" class="st2 st3 st4">Solubilidad de Fósforo</text>
										<text transform="matrix(1 0 0 1 73.131 37.192)" class="st2 st3 st5">(7)</text>
									</g>
								</g>
							</g>
						</g>
					</g>
					<g id="Grupo_1084104" transform="translate(74.084 17.872)">
						<g id="Grupo_1084103">
							<path id="Trazado_717087" class="st6" d="M2.7,20.4L20.4,2.7h27.1"/>
							<g id="Grupo_1084101" transform="translate(0 17.728)">
								<path id="Trazado_717088" class="st7" d="M4.6,4.6c-1.1,1.1-2.8,1.1-3.8,0c-1.1-1.1-1.1-2.8,0-3.8c1.1-1.1,2.8-1.1,3.8,0
									C5.7,1.9,5.7,3.6,4.6,4.6z"/>
							</g>
							<g id="Grupo_1084102" transform="translate(44.854)">
								<ellipse id="Elipse_5292" class="st7" cx="2.7" cy="2.7" rx="2.7" ry="2.7"/>
							</g>
						</g>
					</g>
				</g>
				<g id="Grupo_1084113" transform="translate(408.845 232.088)">
					<g id="Grupo_1084112">
						<g id="Grupo_1084111">
							<g id="Grupo_1084108">
								<g id="Grupo_1084106">
									<path id="Trazado_717089" class="st8" d="M34.3,0c9.1,4.9,17.5,11,25,18C69.2,13.2,78.5,7.1,87,0
										c0.1,32.6-11,64.2-31.3,89.7c-6.7,8.4-14.3,16.1-22.7,22.8c-10.9-2.1-21.4-5.6-31.4-10.3C2.4,91.9,1.9,81.6,0,71.5
										c5.3-4.3,10.2-9.2,14.4-14.5C27.3,40.8,34.3,20.7,34.3,0L34.3,0z"/>
								</g>
								<g id="Grupo_1084107" transform="translate(31.778 51.164)">
									<path id="Trazado_717090" class="st8" d="M17.6,15.2l-4.2-4.1c-0.6,1-1.4,1.8-2.4,2.4l4.1,4.1c0.7,0.7,1.7,0.7,2.4,0
										S18.3,15.9,17.6,15.2L17.6,15.2z"/>
									<path id="Trazado_717091" class="st8" d="M13.6,6.8c0-3.8-3-6.8-6.8-6.8S0,3,0,6.8s3,6.8,6.8,6.8h0
										C10.5,13.6,13.6,10.5,13.6,6.8z M6.8,11.9c-2.8,0-5.1-2.3-5.1-5.1S4,1.7,6.8,1.7c2.8,0,5.1,2.3,5.1,5.1
										C11.9,9.6,9.6,11.9,6.8,11.9L6.8,11.9z"/>
									<path id="Trazado_717092" class="st8" d="M2.8,6.8H4C4,5.2,5.2,4,6.8,4V2.8C4.6,2.8,2.8,4.6,2.8,6.8
										C2.8,6.8,2.8,6.8,2.8,6.8z"/>
								</g>
							</g>
							<g id="Grupo_1084110" transform="translate(119.163 35.521)">
								<g id="Grupo_1084109">
									<rect id="Rectángulo_361682" x="0" y="5.4" class="st1" width="227" height="59.6"/>
									<text transform="matrix(1 0 0 1 -7.394531e-06 16)" class="st2 st3 st4">Promeción de crecimiento (2)</text>
								</g>
							</g>
						</g>
						<path id="Trazado_717093" class="st8" d="M87.6,30.9l10.4,10.4h15.8"/>
					</g>
				</g>
				<g id="Grupo_1084124" transform="translate(242.288 311.473)">
					<g id="Grupo_1084119">
						<g id="Grupo_1084118">
							<g id="Grupo_1084115" transform="translate(50.167)">
								<g id="Grupo_1084114">
									<path id="Trazado_717094" class="st9" d="M104.8,0c0.2,5.1,0,10.1-0.5,15.2c-0.3,2.5-0.6,5.1-1,7.7c-0.4,2.6-1,5.1-1.6,7.8
										c2.2,1.5,4.5,3,6.8,4.3c2.3,1.4,4.7,2.7,7.2,4c5,2.5,10.2,4.8,15.5,6.7C112.5,56.5,91.6,63,70,64.6
										c-10.7,0.8-21.5,0.4-32.1-1.1c-10.7-1.6-21.1-4.3-31.2-8.2c-0.9-2.7-1.8-5.4-2.5-8.1c-0.7-2.7-1.4-5.4-2-8.1
										C1.2,33.6,0.4,28.2,0,22.8c4.7-2.2,9.3-4.8,13.7-7.6c2.2-1.4,4.3-2.9,6.3-4.4c2-1.5,4-3.1,5.9-4.7c12.8,5,26.5,7,40.2,5.9
										C79.7,11,93,6.9,104.8,0L104.8,0z"/>
								</g>
								<path id="Trazado_717095" class="st9" d="M62.3,34.3c2-1.3,2.6-3.9,1.3-5.9c-1.3-2-3.9-2.6-5.9-1.3S55.1,31,56.4,33
									c0.3,0.5,0.8,1,1.3,1.3c-2.8,0.3-5,2.6-5,5.5v4.5l0,0.1l0.3,0.1c2.4,0.8,4.9,1.2,7.5,1.2c2.2,0.1,4.5-0.3,6.5-1.2l0.3-0.1h0
									v-4.5C67.3,37,65.1,34.6,62.3,34.3z"/>
							</g>
							<g id="Grupo_1084117" transform="translate(0 105.458)">
								<g id="Grupo_1084116">
									<rect id="Rectángulo_361683" x="0" y="5.4" class="st1" width="231.9" height="60.6"/>
									<text transform="matrix(1 0 0 1 26.415 16)" class="st10 st3 st4">Inoculante del suelo (8)</text>
								</g>
							</g>
						</g>
					</g>
					<g id="Grupo_1084123" transform="translate(106.439 69.733)">
						<g id="Grupo_1084122">
							<line id="Línea_286" class="st6" x1="2.7" y1="2.7" x2="2.7" y2="14.7"/>
							<g id="Grupo_1084120">
								<path id="Trazado_717096" class="st7" d="M0,2.7C0,1.2,1.2,0,2.7,0s2.7,1.2,2.7,2.7S4.2,5.4,2.7,5.4C1.2,5.4,0,4.2,0,2.7
									C0,2.7,0,2.7,0,2.7z"/>
							</g>
							<g id="Grupo_1084121" transform="translate(0 12.019)">
								<ellipse id="Elipse_5293" class="st7" cx="2.7" cy="2.7" rx="2.7" ry="2.7"/>
							</g>
						</g>
					</g>
				</g>
				<g id="Grupo_1084129" transform="translate(180.175 232.088)">
					<g id="Grupo_1084128">
						<g id="Grupo_1084127" transform="translate(28.533)">
							<g id="Grupo_1084126">
								<g id="Grupo_1084125">
									<path id="Trazado_717097" class="st11" d="M96.9,79.4c-8.8,5.4-18.2,9.7-28.1,12.6c-0.8,11-0.3,22.1,1.7,33
										C32.6,103.2,6.7,65.3,0,22C7.3,13.7,15.6,6.3,24.7,0c8.5,5.8,17.7,10.6,27.4,14C56.4,41.5,72.9,65.5,96.9,79.4L96.9,79.4z"
										/>
								</g>
								<path id="Trazado_717098" class="st11" d="M38.4,51.5c-3,0-5.4,2.4-5.4,5.4c0,5.4,5.4,12,5.4,12s5.4-6.5,5.4-12
									C43.9,53.9,41.4,51.5,38.4,51.5z M38.4,60.3c-1.8,0-3.3-1.5-3.3-3.3s1.5-3.3,3.3-3.3s3.3,1.5,3.3,3.3
									C41.8,58.8,40.3,60.3,38.4,60.3C38.4,60.3,38.4,60.3,38.4,60.3L38.4,60.3z M36.3,56.9c0,1.2,0.9,2.1,2.1,2.1
									c1.2,0,2.1-0.9,2.1-2.1c0-1.2-0.9-2.1-2.1-2.1c0,0,0,0,0,0C37.3,54.8,36.3,55.8,36.3,56.9L36.3,56.9z"/>
							</g>
						</g>
						<path id="Trazado_717099" class="st11" d="M34.3,60.2H15.6L0,38.1"/>
					</g>
				</g>
				<g id="Grupo_1084137" transform="translate(0 119.34)">
					<g id="Grupo_1084136">
						<g id="Grupo_1084135">
							<g id="Grupo_1084132" transform="translate(207.025)">
								<g id="Grupo_1084130">
									<path id="Trazado_717100" class="st0" d="M52.8,112.6c-9.1-4.9-17.5-11-25-18c-9.9,4.9-19.3,10.9-27.7,18
										C-0.1,80,11,48.3,31.3,22.8C38,14.4,45.6,6.7,54,0c10.9,2.1,21.4,5.6,31.4,10.3C84.6,20.6,85.1,31,87,41.1
										c-5.3,4.3-10.2,9.2-14.4,14.5C59.7,71.8,52.7,91.9,52.8,112.6L52.8,112.6z"/>
								</g>
								<g id="Grupo_1084131" transform="translate(32.535 46.2)">
									<path id="Trazado_717101" class="st0" d="M11,11L8.3,8.6l-7.8,6.7c0.3,0.3,0.7,0.4,1.1,0.4h18.8c0.4,0,0.8-0.2,1.1-0.4
										l-7.8-6.7L11,11z"/>
									<path id="Trazado_717102" class="st0" d="M21.5,0.4C21.2,0.1,20.8,0,20.4,0H1.6C1.2,0,0.8,0.2,0.5,0.4l10.5,9L21.5,0.4z"/>
									<path id="Trazado_717103" class="st0" d="M0,1.4v13L7.6,8L0,1.4z"/>
									<path id="Trazado_717104" class="st0" d="M14.4,8l7.6,6.4v-13L14.4,8z"/>
								</g>
							</g>
							<g id="Grupo_1084134" transform="translate(0 12.082)">
								<g id="Grupo_1084133">
									<rect id="Rectángulo_361684" x="0" y="5.4" class="st1" width="174.9" height="67.7"/>
									<text transform="matrix(1 0 0 1 18.83 16)" class="st2 st3 st4">Nutrición vegetal (4)</text>
								</g>
							</g>
							<text transform="matrix(1 0 0 1 88.922 155.549)" class="st2 st3 st5">Otros (16)</text>
						</g>
						<path id="Trazado_717105" class="st0" d="M227.9,27L204.8,3.9h-21.6"/>
					</g>
				</g>
				<g id="Grupo_1084144" transform="translate(264.006)">
					<g id="Grupo_1084143">
						<g id="Grupo_1084142">
							<g id="Grupo_1084139" transform="translate(15.204 87.71)">
								<g id="Grupo_1084138">
									<path id="Trazado_717106" class="st12" d="M26.4,65c-0.2-5.1,0-10.1,0.5-15.2c0.3-2.5,0.6-5.1,1-7.7c0.4-2.6,1-5.1,1.6-7.8
										c-2.2-1.5-4.5-3-6.8-4.3c-2.3-1.4-4.7-2.7-7.2-4c-5-2.5-10.2-4.8-15.5-6.7C18.7,8.5,39.6,2,61.2,0.4
										C71.9-0.4,82.7,0,93.3,1.5c10.7,1.6,21.1,4.3,31.2,8.2c0.9,2.7,1.8,5.4,2.5,8.1c0.7,2.7,1.4,5.4,2,8.1
										c1.1,5.3,1.8,10.7,2.3,16.1c-4.7,2.2-9.3,4.8-13.7,7.6c-2.2,1.4-4.3,2.9-6.3,4.4c-2,1.5-4,3.1-5.9,4.7
										c-12.8-5-26.5-7-40.2-5.9C51.5,54,38.3,58.1,26.4,65L26.4,65z"/>
								</g>
								<path id="Trazado_717107" class="st12" d="M73.2,19.8c-5.1,0-9.3,4.1-9.3,9.3s4.1,9.3,9.3,9.3s9.3-4.1,9.3-9.3l0,0
									C82.5,24,78.3,19.8,73.2,19.8C73.2,19.8,73.2,19.8,73.2,19.8z M73.2,36c-3.8,0-6.9-3.1-6.9-6.9c0-3.8,3.1-6.9,6.9-6.9
									c3.8,0,6.9,3.1,6.9,6.9l0,0C80.2,32.9,77.1,36,73.2,36z M79,29.1c0,0.6-0.5,1.2-1.2,1.2h-4.6c-0.6,0-1.2-0.5-1.2-1.2v-4.6
									c0-0.6,0.5-1.2,1.2-1.2c0.6,0,1.2,0.5,1.2,1.2v3.5h3.5C78.5,27.9,79,28.4,79,29.1C79,29.1,79,29.1,79,29.1L79,29.1z"/>
							</g>
							<g id="Grupo_1084141">
								<g id="Grupo_1084140">
									<rect id="Rectángulo_361685" x="0" y="5.4" class="st1" width="174.9" height="60.6"/>
									<g id="Grupo-2" transform="translate(9.223)">
										<text transform="matrix(1 0 0 1 -8.093750e-06 16)" class="st2 st3 st4">Fijación biológica de</text>
										<text transform="matrix(1 0 0 1 23.81 36.192)" class="st2 st3 st4">Nitrógeno (18)</text>
									</g>
								</g>
							</g>
						</g>
					</g>
				</g>
			</g>
		</g>
	</g>
</g>
</svg>
