<svg xmlns="http://www.w3.org/2000/svg" width="755" height="480.935" viewBox="0 0 755 480.935">
  <g id="Grupo_1084198" data-name="Grupo 1084198" transform="translate(-500 -3820)">
    <g id="Grupo_1084105" data-name="Grupo 1084105" transform="translate(897.247 3925.044)">
      <g id="Grupo_1084100" data-name="Grupo 1084100">
        <g id="Grupo_1084099" data-name="Grupo 1084099">
          <g id="Grupo_1084096" data-name="Grupo 1084096">
            <g id="Grupo_1084095" data-name="Grupo 1084095">
              <path id="Trazado_717085" data-name="Trazado 717085" d="M413.11,197.49a116.114,116.114,0,0,1,28.112-12.62,131.9,131.9,0,0,0-1.695-33.04,144.455,144.455,0,0,1,70.515,103.026,136.083,136.083,0,0,1-24.7,22.019A119.5,119.5,0,0,0,457.9,262.848,91.8,91.8,0,0,0,413.11,197.49Z" transform="translate(-413.11 -151.83)" fill="#ffd947"/>
            </g>
            <path id="Trazado_717086" data-name="Trazado 717086" d="M473.46,207.371l-5.3,3.858,2.031,6.238a.816.816,0,0,1-.3.913.818.818,0,0,1-.961,0l-5.3-3.858-5.3,3.858a.831.831,0,0,1-.961,0,.816.816,0,0,1-.3-.913l2.031-6.238-5.3-3.858a.816.816,0,0,1,.481-1.478h6.562l2.031-6.238a.823.823,0,0,1,1.562,0l2.031,6.238h6.562a.815.815,0,0,1,.781.565A.924.924,0,0,1,473.46,207.371Z" transform="translate(-404.964 -142.289)" fill="#ffd947"/>
          </g>
          <g id="Grupo_1084098" data-name="Grupo 1084098" transform="translate(130.765 6.312)">
            <g id="Grupo_1084097" data-name="Grupo 1084097">
              <rect id="Rectángulo_361681" data-name="Rectángulo 361681" width="174.886" height="59.577" transform="translate(0 5.406)" fill="none"/>
              <g id="Grupo" transform="translate(3.499)">
                <text id="Solubilidad_de_fósforo_" data-name="Solubilidad de fósforo " transform="translate(0 16)" fill="#020202" font-size="15" font-family="Roboto-BoldItalic, Roboto" font-weight="700" font-style="italic"><tspan x="0" y="0">Solubilidad de fósforo </tspan></text>
                <text id="_7_" data-name="(7)" transform="translate(73.131 37.192)" fill="#020202" font-size="16" font-family="Roboto-BoldItalic, Roboto" font-weight="700" font-style="italic"><tspan x="0" y="0">(7)</tspan></text>
              </g>
            </g>
          </g>
        </g>
      </g>
      <g id="Grupo_1084104" data-name="Grupo 1084104" transform="translate(74.084 17.872)">
        <g id="Grupo_1084103" data-name="Grupo 1084103">
          <path id="Trazado_717087" data-name="Trazado 717087" d="M477.353,187.029l-.707-.707,17.874-17.862h27.346v1H494.935Z" transform="translate(-474.296 -166.244)" fill="#b0b1b5"/>
          <g id="Grupo_1084101" data-name="Grupo 1084101" transform="translate(0 17.728)">
            <path id="Trazado_717088" data-name="Trazado 717088" d="M479.377,186.077a2.711,2.711,0,1,1,0-3.834A2.713,2.713,0,0,1,479.377,186.077Z" transform="translate(-474.75 -181.45)" fill="#b0b1b5"/>
          </g>
          <g id="Grupo_1084102" data-name="Grupo 1084102" transform="translate(44.854)">
            <ellipse id="Elipse_5292" data-name="Elipse 5292" cx="2.716" cy="2.716" rx="2.716" ry="2.716" fill="#b0b1b5"/>
          </g>
        </g>
      </g>
    </g>
    <g id="Grupo_1084113" data-name="Grupo 1084113" transform="translate(908.845 4050.088)">
      <g id="Grupo_1084112" data-name="Grupo 1084112">
        <g id="Grupo_1084111" data-name="Grupo 1084111">
          <g id="Grupo_1084108" data-name="Grupo 1084108">
            <g id="Grupo_1084106" data-name="Grupo 1084106">
              <path id="Trazado_717089" data-name="Trazado 717089" d="M457.026,255.87A120.47,120.47,0,0,1,482.037,273.9a137.061,137.061,0,0,0,27.74-18.028A143.645,143.645,0,0,1,478.491,345.6a141.866,141.866,0,0,1-22.668,22.824,132.054,132.054,0,0,1-31.441-10.336,116.356,116.356,0,0,0-1.623-30.768,89.639,89.639,0,0,0,14.423-14.531,90.763,90.763,0,0,0,19.843-56.921Z" transform="translate(-422.76 -255.87)" fill="#adce32"/>
            </g>
            <g id="Grupo_1084107" data-name="Grupo 1084107" transform="translate(31.778 51.164)">
              <path id="Trazado_717090" data-name="Trazado 717090" d="M464.952,311.786l-4.159-4.147a8.043,8.043,0,0,1-2.4,2.4l4.147,4.146a1.7,1.7,0,0,0,2.416-2.4Z" transform="translate(-447.345 -296.583)" fill="#adce32"/>
              <path id="Trazado_717091" data-name="Trazado 717091" d="M462.781,305.231a6.791,6.791,0,1,0-6.791,6.791A6.791,6.791,0,0,0,462.781,305.231Zm-6.791,5.084a5.09,5.09,0,1,1,5.1-5.084A5.1,5.1,0,0,1,455.991,310.315Z" transform="translate(-449.2 -298.44)" fill="#adce32"/>
              <path id="Trazado_717092" data-name="Trazado 717092" d="M451.56,304.754h1.13a2.829,2.829,0,0,1,2.824-2.824V300.8A3.95,3.95,0,0,0,451.56,304.754Z" transform="translate(-448.724 -297.964)" fill="#adce32"/>
            </g>
          </g>
          <g id="Grupo_1084110" data-name="Grupo 1084110" transform="translate(119.163 35.521)">
            <g id="Grupo_1084109" data-name="Grupo 1084109">
              <rect id="Rectángulo_361682" data-name="Rectángulo 361682" width="226.988" height="59.577" transform="translate(0.004 5.403)" fill="none"/>
              <text id="Promeción_de_crecimiento_2_" data-name="Promeción de crecimiento (2)" transform="translate(0 16)" fill="#020202" font-size="15" font-family="Roboto-BoldItalic, Roboto" font-weight="700" font-style="italic"><tspan x="0" y="0">Promeción de crecimiento (2)</tspan></text>
            </g>
          </g>
        </g>
        <path id="Trazado_717093" data-name="Trazado 717093" d="M495.67,281.62,506.1,292.052h15.8" transform="translate(-408.041 -250.671)" fill="#adce32"/>
      </g>
    </g>
    <g id="Grupo_1084124" data-name="Grupo 1084124" transform="translate(742.288 4129.473)">
      <g id="Grupo_1084119" data-name="Grupo 1084119">
        <g id="Grupo_1084118" data-name="Grupo 1084118">
          <g id="Grupo_1084115" data-name="Grupo 1084115" transform="translate(50.167)">
            <g id="Grupo_1084114" data-name="Grupo 1084114">
              <path id="Trazado_717094" data-name="Trazado 717094" d="M430.712,321.92a113.4,113.4,0,0,1-.481,15.192q-.4,3.786-1.034,7.7c-.409,2.632-.962,5.132-1.562,7.752,2.187,1.478,4.5,3,6.815,4.339,2.332,1.358,4.723,2.692,7.211,3.978a138.083,138.083,0,0,0,15.48,6.695,142.506,142.506,0,0,1-61.2,18.918,147.358,147.358,0,0,1-32.126-1.094,141.257,141.257,0,0,1-31.165-8.245c-.913-2.74-1.779-5.372-2.5-8.149q-1.1-4.11-1.959-8.125a131.6,131.6,0,0,1-2.272-16.141,121.2,121.2,0,0,0,13.689-7.632q3.263-2.145,6.286-4.4c2.007-1.466,4-3.137,5.865-4.735a91.168,91.168,0,0,0,40.215,5.913,89.711,89.711,0,0,0,38.737-11.971Z" transform="translate(-325.92 -321.92)" fill="#ffa686"/>
            </g>
            <path id="Trazado_717095" data-name="Trazado 717095" d="M379.371,351.82a4.3,4.3,0,1,0-4.639,0,5.513,5.513,0,0,0-5.012,5.481v4.459l.012.072.313.1a25.13,25.13,0,0,0,7.488,1.2,15.4,15.4,0,0,0,6.538-1.226l.288-.144h.036V357.3A5.542,5.542,0,0,0,379.371,351.82Z" transform="translate(-317.077 -317.483)" fill="#ffa686"/>
          </g>
          <g id="Grupo_1084117" data-name="Grupo 1084117" transform="translate(0 105.458)">
            <g id="Grupo_1084116" data-name="Grupo 1084116">
              <rect id="Rectángulo_361683" data-name="Rectángulo 361683" width="231.856" height="60.599" transform="translate(0 5.404)" fill="none"/>
              <text id="Inoculante_del_suelo_8_" data-name="Inoculante del suelo (8)" transform="translate(26.415 16)" fill="#070707" font-size="15" font-family="Roboto-BoldItalic, Roboto" font-weight="700" font-style="italic"><tspan x="0" y="0">Inoculante del suelo (8)</tspan></text>
            </g>
          </g>
        </g>
      </g>
      <g id="Grupo_1084123" data-name="Grupo 1084123" transform="translate(106.439 69.733)">
        <g id="Grupo_1084122" data-name="Grupo 1084122">
          <path id="Línea_286" data-name="Línea 286" d="M.5,12.019h-1V0h1Z" transform="translate(2.716 2.716)" fill="#b0b1b5"/>
          <g id="Grupo_1084120" data-name="Grupo 1084120">
            <path id="Trazado_717096" data-name="Trazado 717096" d="M372.74,382.656a2.716,2.716,0,1,1,2.716,2.716A2.713,2.713,0,0,1,372.74,382.656Z" transform="translate(-372.74 -379.94)" fill="#b0b1b5"/>
          </g>
          <g id="Grupo_1084121" data-name="Grupo 1084121" transform="translate(0 12.019)">
            <ellipse id="Elipse_5293" data-name="Elipse 5293" cx="2.716" cy="2.716" rx="2.716" ry="2.716" fill="#b0b1b5"/>
          </g>
        </g>
      </g>
    </g>
    <g id="Grupo_1084129" data-name="Grupo 1084129" transform="translate(680.175 4050.088)">
      <g id="Grupo_1084128" data-name="Grupo 1084128">
        <g id="Grupo_1084127" data-name="Grupo 1084127" transform="translate(28.533)">
          <g id="Grupo_1084126" data-name="Grupo 1084126">
            <g id="Grupo_1084125" data-name="Grupo 1084125">
              <path id="Trazado_717097" data-name="Trazado 717097" d="M353.172,335.255a116.115,116.115,0,0,1-28.112,12.62,131.9,131.9,0,0,0,1.695,33.04A144.455,144.455,0,0,1,256.24,277.889a136.089,136.089,0,0,1,24.7-22.019A119.5,119.5,0,0,0,308.378,269.9a91.8,91.8,0,0,0,44.794,65.359Z" transform="translate(-256.24 -255.87)" fill="#0b481e"/>
            </g>
            <path id="Trazado_717098" data-name="Trazado 717098" d="M289.135,298.71a5.447,5.447,0,0,0-5.445,5.445c0,5.445,5.445,11.983,5.445,11.983s5.445-6.538,5.445-11.983A5.447,5.447,0,0,0,289.135,298.71Zm0,8.786a3.341,3.341,0,1,1,3.341-3.341A3.342,3.342,0,0,1,289.135,307.5Zm-2.115-3.329a2.115,2.115,0,1,0,2.115-2.115A2.118,2.118,0,0,0,287.019,304.167Z" transform="translate(-250.698 -247.221)" fill="#0b481e"/>
          </g>
        </g>
        <path id="Trazado_717099" data-name="Trazado 717099" d="M266.754,309.693H248.124L232.5,287.53" transform="translate(-232.5 -249.478)" fill="#0b481e"/>
      </g>
    </g>
    <path id="Trazado_717100" data-name="Trazado 717100" d="M307.591,274.617a120.468,120.468,0,0,1-25.011-18.028,137.063,137.063,0,0,0-27.74,18.028,143.644,143.644,0,0,1,31.285-89.733,141.869,141.869,0,0,1,22.667-22.824A132.053,132.053,0,0,1,340.234,172.4a116.355,116.355,0,0,0,1.623,30.768A89.64,89.64,0,0,0,327.434,217.7a90.763,90.763,0,0,0-19.843,56.921Z" transform="translate(452.185 3775.28)" fill="#ffd947"/>
    <path id="Trazado_717101" data-name="Trazado 717101" d="M292.81,210.03l-2.716-2.38-7.764,6.658a1.558,1.558,0,0,0,1.082.421h18.8a1.638,1.638,0,0,0,1.082-.421l-7.764-6.658Z" transform="translate(457.734 3784.483)" fill="#ffd947"/>
    <path id="Trazado_717102" data-name="Trazado 717102" d="M303.291,200.921a1.558,1.558,0,0,0-1.082-.421h-18.8a1.59,1.59,0,0,0-1.082.433l10.48,8.978Z" transform="translate(457.734 3783.04)" fill="#ffd947"/>
    <path id="Trazado_717103" data-name="Trazado 717103" d="M281.91,201.64v13.028l7.584-6.442Z" transform="translate(457.65 3783.271)" fill="#ffd947"/>
    <path id="Trazado_717104" data-name="Trazado 717104" d="M293.88,208.226l7.572,6.442V201.64Z" transform="translate(460.066 3783.271)" fill="#ffd947"/>
    <rect id="Rectángulo_361684" data-name="Rectángulo 361684" width="174.886" height="67.69" transform="translate(500 3954.828)" fill="none"/>
    <text id="Nutrición_vegetal_4_" data-name="Nutrición vegetal (4)" transform="translate(518.83 3965.422)" fill="#020202" font-size="15" font-family="Roboto-BoldItalic, Roboto" font-weight="700" font-style="italic"><tspan x="0" y="0">Nutrición vegetal (4)</tspan></text>
    <text id="Otros_16_" data-name="Otros (16)" transform="translate(588.922 4092.889)" fill="#020202" font-size="16" font-family="Roboto-BoldItalic, Roboto" font-weight="700" font-style="italic"><tspan x="0" y="0">Otros (16)</tspan></text>
    <path id="Trazado_717105" data-name="Trazado 717105" d="M279.77,188.382,256.646,165.27H235" transform="translate(448.179 3775.928)" fill="#ffd947"/>
    <g id="Grupo_1084144" data-name="Grupo 1084144" transform="translate(764.006 3818)">
      <g id="Grupo_1084143" data-name="Grupo 1084143">
        <g id="Grupo_1084142" data-name="Grupo 1084142">
          <g id="Grupo_1084139" data-name="Grupo 1084139" transform="translate(15.204 87.71)">
            <g id="Grupo_1084138" data-name="Grupo 1084138">
              <path id="Trazado_717106" data-name="Trazado 717106" d="M341.329,200.737a113.4,113.4,0,0,1,.481-15.192q.4-3.786,1.034-7.7c.409-2.632.962-5.132,1.562-7.752-2.187-1.478-4.5-3-6.815-4.339-2.332-1.358-4.723-2.692-7.211-3.978a138.086,138.086,0,0,0-15.48-6.695,142.506,142.506,0,0,1,61.2-18.918,147.36,147.36,0,0,1,32.126,1.094,141.253,141.253,0,0,1,31.165,8.245c.913,2.74,1.779,5.372,2.5,8.149q1.1,4.11,1.959,8.125a131.611,131.611,0,0,1,2.272,16.141,121.205,121.205,0,0,0-13.689,7.632q-3.263,2.145-6.286,4.4c-2.007,1.466-4,3.137-5.865,4.735a91.168,91.168,0,0,0-40.215-5.913,89.711,89.711,0,0,0-38.737,11.971Z" transform="translate(-314.9 -135.743)" fill="#dfccc5"/>
            </g>
            <path id="Trazado_717107" data-name="Trazado 717107" d="M377.377,152.23a9.267,9.267,0,1,0,9.267,9.267A9.264,9.264,0,0,0,377.377,152.23Zm0,16.213a6.947,6.947,0,1,1,6.947-6.947A6.95,6.95,0,0,1,377.377,168.443Zm5.793-6.947a1.154,1.154,0,0,1-1.154,1.154h-4.639a1.154,1.154,0,0,1-1.154-1.154v-4.639a1.154,1.154,0,1,1,2.308,0v3.473H382A1.159,1.159,0,0,1,383.17,161.5Z" transform="translate(-304.158 -132.415)" fill="#dfccc5"/>
          </g>
          <g id="Grupo_1084141" data-name="Grupo 1084141">
            <g id="Grupo_1084140" data-name="Grupo 1084140">
              <rect id="Rectángulo_361685" data-name="Rectángulo 361685" width="174.886" height="60.599" transform="translate(0 5.413)" fill="none"/>
              <g id="Grupo-2" data-name="Grupo" transform="translate(9.223)">
                <text id="Fijación_biológica_de_" data-name="Fijación biológica de " transform="translate(0 16)" fill="#020202" font-size="15" font-family="Roboto-BoldItalic, Roboto" font-weight="700" font-style="italic"><tspan x="0" y="0">Fijación biológica de </tspan></text>
                <text id="nitrógeno_18_" data-name="nitrógeno (18)" transform="translate(23.81 36.192)" fill="#020202" font-size="15" font-family="Roboto-BoldItalic, Roboto" font-weight="700" font-style="italic"><tspan x="0" y="0">nitrógeno (18)</tspan></text>
              </g>
            </g>
          </g>
        </g>
      </g>
    </g>
    <path id="Trazado_717108" data-name="Trazado 717108" d="M279.77,188.382,256.646,165.27H235" transform="translate(587.853 3706.792)" fill="#dfccc5"/>
  </g>
</svg>
