<?xml version="1.0" encoding="utf-8"?>
<!-- Generator: Adobe Illustrator 28.3.0, SVG Export Plug-In . SVG Version: 6.00 Build 0)  -->
<svg version="1.1" id="Capa_1" xmlns="http://www.w3.org/2000/svg" xmlns:xlink="http://www.w3.org/1999/xlink" x="0px" y="0px"
	 viewBox="0 0 610 480" style="enable-background:new 0 0 610 480;" xml:space="preserve">
<style type="text/css">
	.st0{opacity:0.2;fill:#0B481E;enable-background:new    ;}
	.st1{fill:#0B481E;}
	.st2{font-family:'Roboto-Regular';}
	.st3{font-size:16px;}
	.st4{opacity:0.2;fill:#FFA686;enable-background:new    ;}
	.st5{fill:#12263F;}
	.st6{opacity:0.2;fill:#FFD947;enable-background:new    ;}
	.st7{opacity:0.2;fill:#ADCE32;enable-background:new    ;}
	.st8{fill:none;stroke:#707070;}
	.st9{fill:#FFFFFF;}
	.st10{clip-path:url(#SVGID_00000166648703905360155660000012018264240080990362_);}
</style>
<g id="img65" transform="translate(-495 -3002.878)">
	<g id="Grupo_86574" transform="translate(513 3183.878)">
		<path id="Rectángulo_4911" class="st0" d="M3-54h253c11.6,0,21,9.4,21,21v59c0,11.6-9.4,21-21,21H3c-11.6,0-21-9.4-21-21v-59
			C-18-44.6-8.6-54,3-54z"/>
		<g id="Grupo_20709" transform="translate(32.391 -29.878)">
			<g id="Grupo_20708" transform="translate(0 0)">
				<text transform="matrix(1 0 0 1 -8 27.9999)" class="st1 st2 st3">Tipos de biofertilizantes</text>
			</g>
		</g>
	</g>
	<g id="Grupo_86586" transform="translate(848 3056.878)">
		<path id="Rectángulo_4911-2" class="st4" d="M3-54h233c11.6,0,21,9.4,21,21v59c0,11.6-9.4,21-21,21H3c-11.6,0-21-9.4-21-21v-59
			C-18-44.6-8.6-54,3-54z"/>
		<g id="Grupo_20709-2" transform="translate(24.391 -16.878)">
			<g id="Grupo_20708-2" transform="translate(0 0)">
				<text transform="matrix(1 0 0 1 -9.789062e-06 14.9999)" class="st5 st2 st3">Fijadores de Nitrógeno</text>
			</g>
		</g>
	</g>
	<g id="Grupo_86587" transform="translate(848 3190.878)">
		<path id="Rectángulo_4911-3" class="st6" d="M3-54h233c11.6,0,21,9.4,21,21v59c0,11.6-9.4,21-21,21H3c-11.6,0-21-9.4-21-21v-59
			C-18-44.6-8.6-54,3-54z"/>
		<g id="Grupo_20709-3" transform="translate(24.391 -16.878)">
			<g id="Grupo_20708-3" transform="translate(0 0)">
				<text transform="matrix(1 0 0 1 -9.789062e-06 14.9999)" class="st5 st2 st3">Solubilizadores de Fósforo</text>
			</g>
		</g>
	</g>
	<g id="Grupo_86588" transform="translate(848 3312.878)">
		<path id="Rectángulo_4911-4" class="st0" d="M3-54h233c11.6,0,21,9.4,21,21v59c0,11.6-9.4,21-21,21H3c-11.6,0-21-9.4-21-21v-59
			C-18-44.6-8.6-54,3-54z"/>
		<g id="Grupo_20709-4" transform="translate(24.391 -16.878)">
			<g id="Grupo_20708-4" transform="translate(0 0)">
				<text transform="matrix(1 0 0 1 -9.789062e-06 14.9999)" class="st5 st2 st3">Captadores de Fósforo</text>
			</g>
		</g>
	</g>
	<g id="Grupo_86589" transform="translate(848 3435.878)">
		<path id="Rectángulo_4911-5" class="st7" d="M3-54h233c11.6,0,21,9.4,21,21v59c0,11.6-9.4,21-21,21H3c-11.6,0-21-9.4-21-21v-59
			C-18-44.6-8.6-54,3-54z"/>
		<g id="Grupo_20709-5" transform="translate(24.391 -16.878)">
			<g id="Grupo_20708-5" transform="translate(0 0)">
				<text transform="matrix(1 0 0 1 -9.789062e-06 14.9999)" class="st5 st2 st3">Promotores de Crecimiento </text>
				<text transform="matrix(1 0 0 1 -9.789062e-06 36.9999)" class="st5 st2 st3">Vegetal</text>
			</g>
		</g>
	</g>
	<line id="Línea_262" class="st8" x1="810" y1="3042.9" x2="810" y2="3453.9"/>
	<line id="Línea_263" class="st8" x1="790.5" y1="3180.4" x2="810.5" y2="3180.4"/>
	<line id="Línea_282" class="st8" x1="810" y1="3042.9" x2="830" y2="3042.9"/>
	<line id="Línea_283" class="st8" x1="810" y1="3192.9" x2="830" y2="3192.9"/>
	<line id="Línea_284" class="st8" x1="810" y1="3309.9" x2="830" y2="3309.9"/>
	<line id="Línea_285" class="st8" x1="810" y1="3453.9" x2="830" y2="3453.9"/>
	<g id="Weed_control" transform="translate(230.947 2917.873)">
		<g id="Grupo_1084033" transform="translate(295.412 381.012)">
			<g id="Grupo_1084032" transform="translate(78.28)">
				<g id="Grupo_1084031">
					<path id="Trazado_716968" class="st9" d="M24.5,38.2c4.8-4.6,6.2-12.5,3.5-17.2c-1.1-2-2.3-2.1-3.3-4.6
						c-1.3-3.2-0.2-4.9-0.8-7.9c-0.9-3.9-4.4-8.1-7.9-8.3C11.4,0,8,6.5,4.8,12.3C3,15.9,0.1,21.4,0.3,28.9c0.1,3.6,0.2,6.8,2.5,9.5
						c3.6,4.4,10.3,4.7,14.6,3.6C20,41.4,22.5,40.1,24.5,38.2z"/>
					<path id="Trazado_716969" d="M13,42.8c-3.9,0-8-1.2-10.5-4.2c-2.3-2.8-2.4-6.2-2.5-9.7c-0.2-7.7,2.8-13.3,4.6-16.7
						C7.7,6.3,11.2-0.3,15.9,0c3.8,0.2,7.3,4.7,8.2,8.5c0.2,1.1,0.3,2.2,0.2,3.3c-0.2,1.5,0,3.1,0.6,4.5c0.4,1,1,1.9,1.8,2.6
						c0.6,0.6,1.1,1.2,1.5,1.9c2.8,4.9,1.2,12.9-3.6,17.6l-0.2-0.2l0.2,0.2c-2,1.9-4.5,3.3-7.3,3.9C16,42.6,14.5,42.8,13,42.8z
						 M15.7,0.6c-4.2,0-7.6,6.3-10.6,11.9c-1.8,3.3-4.7,8.9-4.5,16.4c0.1,3.6,0.2,6.7,2.4,9.3c3.3,4,9.6,4.7,14.3,3.6
						c2.6-0.6,5.1-1.9,7-3.7c4.6-4.5,6.2-12.2,3.5-16.9c-0.4-0.7-0.9-1.3-1.4-1.8c-0.8-0.8-1.5-1.7-1.9-2.8
						c-0.6-1.5-0.8-3.1-0.7-4.7c0.1-1.1,0-2.1-0.2-3.2c-0.8-3.7-4.3-7.9-7.7-8.1C15.8,0.6,15.7,0.6,15.7,0.6z"/>
				</g>
				<path id="Trazado_716970" d="M14.7,56.3c-0.2,0-0.3-0.1-0.3-0.3l-0.6-41.6c0-0.2,0.1-0.3,0.3-0.3l0,0l0,0c0.2,0,0.3,0.1,0.3,0.3
					L15,56C15,56.2,14.9,56.3,14.7,56.3L14.7,56.3z"/>
			</g>
			<path id="Trazado_716971" class="st9" d="M186.3,51.7c-19.3,1.4-38.6,5.2-58.3,4.1c-9.9-0.5-19.7-2.6-29.7-3.1
				C74,51.5,50.6,59.8,28.8,69.9c-5.5,2.5-10.9,5.9-16.5,8c-2.8,1-7.3,0.7-9.6,2.6c-6.5,5.5,0.5,17.6,2.9,23.5
				c3.3,8.3,7.6,16.1,13,23.1c28.2,36.5,88.5,59,142.4,35.3c46.7-20.6,68.6-67.1,65.3-107.6C212.9,51,199.6,50.8,186.3,51.7z"/>
			<path id="Trazado_716972" d="M0.3,84.7C0.3,84.7,0.2,84.7,0.3,84.7c-0.2,0-0.3-0.2-0.3-0.3c0.4-1.6,1.3-3,2.5-4
				c1.5-1.2,3.8-1.6,6.1-1.9c1.2-0.1,2.4-0.4,3.6-0.8c3.6-1.4,7.1-3,10.4-4.9c2-1,4.1-2.1,6.1-3.1C47.5,61,72.4,51.1,98.3,52.4
				c5,0.3,10.1,0.9,15.1,1.6c4.8,0.6,9.7,1.3,14.6,1.6c13.1,0.7,26.2-0.8,38.9-2.2c6.3-0.7,12.9-1.5,19.4-1.9
				c16.2-1.1,28.5-0.1,40.2,3.2c0.1,0,0.2,0.2,0.2,0.3c0,0.1-0.2,0.2-0.3,0.2c-11.6-3.3-23.9-4.3-40-3.2c-6.4,0.5-13,1.2-19.3,1.9
				c-12.7,1.4-25.8,2.9-39,2.2c-4.9-0.3-9.9-0.9-14.6-1.6c-4.9-0.7-10-1.3-15-1.6c-25.8-1.3-50.7,8.5-69.4,17.2
				c-2,0.9-4.1,2-6.1,3.1c-3.4,1.9-6.9,3.5-10.5,4.9c-1.2,0.4-2.4,0.6-3.7,0.8c-2.2,0.3-4.4,0.7-5.8,1.8c-1.2,1-2,2.3-2.3,3.7
				C0.5,84.6,0.4,84.7,0.3,84.7z"/>
			<path id="Trazado_716973" d="M3.5,98.5c-0.2,0-0.3-0.1-0.3-0.3c0-0.1,0.1-0.2,0.2-0.3c4.1-0.8,8.3-1.5,12.4-2.1
				c5.8-0.7,11.6-1.8,17.3-3.2c8.1-2.1,16.3-4.7,24.2-7.1c1.7-0.5,3.4-1.1,5.1-1.6l3.5-1.1c14.2-4.4,27.6-8.6,41.8-11.1
				c6.6-1.2,13.3-1.9,20-2.1c14.8-0.5,30.4,0.5,50.8,3.1c4.4,0.6,44.8,5.1,46.9,5.1h0c0.1,0,0.3,0,0.3,0.2c0,0,0,0.1,0,0.1
				c-0.1,0.4-0.1,0.4-7.1-0.4c-3.7-0.4-9-0.9-15.2-1.6c-11.4-1.3-23.1-2.6-25-2.8c-20.3-2.6-36-3.6-50.7-3.1
				c-6.7,0.2-13.3,0.9-19.9,2.1C93.6,74.8,80.2,79,66,83.4l-3.5,1.1c-1.7,0.5-3.4,1.1-5.1,1.6c-7.9,2.5-16,5-24.2,7.1
				c-5.7,1.4-11.5,2.4-17.3,3.2C11.8,97,7.6,97.6,3.5,98.5C3.5,98.5,3.5,98.5,3.5,98.5z M225.2,78.2L225.2,78.2z M225.2,78.2
				L225.2,78.2z M225.2,78.2L225.2,78.2z M225.2,78.2L225.2,78.2z M225.2,78.2L225.2,78.2z M225.2,78.2L225.2,78.2z"/>
		</g>
		<g id="Grupo_1084053" transform="translate(369.056 439.269)">
			<g id="Grupo_1084039" transform="translate(40.32)">
				<g id="Grupo_1084035" transform="translate(22.603 27.115)">
					<g id="Grupo_1084034">
						<path id="Trazado_716974" class="st9" d="M1.4,13.6C0,11,0.2,9.7,0.6,9.1C1.3,8,3,8.5,3.7,7.2c0.8-1.3-0.6-2.4-0.1-4
							c0.6-1.9,3.6-3.7,5.5-2.6c1.6,0.9,2.1,3.7,1.1,5.2C9.1,7.4,6.7,6.7,6.1,8.1c-0.6,1.4,1.1,2.7,0.5,3.9
							C6.3,12.8,5.2,13.6,1.4,13.6z"/>
						<path id="Trazado_716975" d="M1.7,13.8H1.4c-0.1,0-0.2-0.1-0.2-0.1C0,11.5-0.3,10,0.3,9c0.4-0.5,1-0.9,1.7-1
							c0.6-0.1,1.1-0.4,1.4-0.9c0.3-0.5,0.3-1.2,0-1.7C3.2,4.7,3.1,3.9,3.3,3.1c0.5-1.3,1.6-2.3,2.9-2.8c1-0.4,2.1-0.4,3,0
							c0.8,0.5,1.4,1.4,1.6,2.4C11.1,3.8,11,5,10.4,5.9C9.8,6.7,9,7.1,8,7.3c-0.8,0.2-1.4,0.4-1.7,1c-0.2,0.6-0.1,1.3,0.3,1.8
							c0.4,0.6,0.5,1.4,0.3,2.1C6.4,13.3,4.7,13.8,1.7,13.8z M1.6,13.3c2.7,0,4.4-0.4,4.7-1.3c0.1-0.6,0-1.2-0.3-1.7
							C5.6,9.6,5.5,8.8,5.8,8c0.4-0.9,1.3-1.1,2.1-1.3c0.8-0.1,1.5-0.5,2.1-1.1c0.5-0.8,0.6-1.8,0.4-2.7c-0.2-0.8-0.6-1.6-1.4-2
							c-0.8-0.4-1.7-0.4-2.5,0C5.3,1.3,4.3,2.2,3.9,3.3C3.7,3.9,3.7,4.6,4,5.2c0.3,0.7,0.3,1.5,0,2.2C3.5,8,2.9,8.4,2.2,8.5
							c-0.5,0.1-1,0.4-1.4,0.8C0.3,10,0.6,11.4,1.6,13.3L1.6,13.3z"/>
					</g>
					<path id="Trazado_716976" d="M1.2,14.9c-0.2,0-0.3-0.1-0.3-0.3c0,0,0-0.1,0-0.1C3.6,6.8,7.1,4.3,7.2,4.2c0.1-0.1,0.3,0,0.4,0.1
						c0.1,0.1,0.1,0.3-0.1,0.4c0,0-3.5,2.5-6.1,10.1C1.4,14.8,1.3,14.9,1.2,14.9z"/>
				</g>
				<g id="Grupo_1084036" transform="translate(12.828)">
					<path id="Trazado_716977" d="M9,39.8c-0.1-1.7,0.4-3.4,1.3-4.8c1.2-1.6,2.5-1.8,2.9-3.4c0.4-1.5-0.6-2-0.2-3.6
						c0.4-2,1.9-2.2,2.3-3.8c0.5-2-1.5-3-2.5-5.9c-1.3-3.7,0.9-5.3,0.4-8.7C12.3,4,5.3-1.2,2.3,0.2c-2.8,1.3-3,8.9-0.7,14.3
						c2.4,5.8,6.2,5.8,6.8,10.6c0.4,3.4-1.2,5.4-0.4,10.5C8.1,37.1,8.5,38.5,9,39.8z"/>
					<path id="Trazado_716978" class="st9" d="M9.7,42.1c-0.1,0-0.2-0.1-0.3-0.2C8,38.8,8.6,35.3,9.3,30.8c0.5-2.6,0.8-5.2,1-7.8
						c0.5-8-6.2-17.8-6.3-17.9C3.9,5,4,4.8,4.1,4.7c0.1-0.1,0.3-0.1,0.4,0.1c0.1,0.1,6.9,10,6.4,18.2c-0.2,2.7-0.5,5.3-1,7.9
						c-0.7,4.3-1.3,7.8,0.1,10.8c0.1,0.1,0,0.3-0.1,0.4C9.8,42.1,9.7,42.1,9.7,42.1L9.7,42.1z"/>
				</g>
				<g id="Grupo_1084038" transform="translate(0 17.28)">
					<g id="Grupo_1084037">
						<path id="Trazado_716979" class="st9" d="M20,23.1c-0.5-2.2-0.6-4.4-0.6-6.6c0.2-4.5,1.4-6.4,0.2-8.1
							c-1.4-1.8-3.7-0.6-5.3-2.8c-1.1-1.5-0.6-2.8-2.1-4.2c-0.7-0.7-1.6-1.1-2.6-1.2C8.3,0.2,7.9,0.8,6.3,1.4
							c-2.9,1-4.2-0.1-5.2,0.9C0.1,3.5,0,5.2,0.9,6.5C2.5,8.6,7,6.1,8.7,8.2c1.4,1.7-1,4.5,0.5,6.5c1.4,1.8,4.2,0.5,5.4,2.3
							c0.9,1.4-0.4,2.8,0.5,4.2C15.9,22.8,18.3,23.1,20,23.1z"/>
						<path id="Trazado_716980" d="M20,23.4L20,23.4c-2.7,0-4.5-0.7-5.2-2c-0.3-0.7-0.4-1.5-0.2-2.3c0.2-0.7,0.1-1.3-0.2-1.9
							c-0.5-0.8-1.5-0.9-2.5-1.1c-1.1,0-2.1-0.4-2.9-1.2c-0.9-1.1-0.6-2.4-0.4-3.6c0.2-1.1,0.4-2.1-0.2-2.9C7.7,7.4,6.3,7.5,4.9,7.6
							c-1.6,0.1-3.3,0.2-4.2-1c-0.9-1.4-0.8-3.2,0.3-4.5C1.5,1.6,2.3,1.4,3,1.6c1.1,0.1,2.2-0.1,3.2-0.4C6.7,1,7.1,0.8,7.6,0.5
							C8.2,0.1,8.9,0,9.6,0c1,0.1,2,0.6,2.8,1.3c0.7,0.6,1.2,1.5,1.4,2.4c0.1,0.6,0.4,1.2,0.8,1.8c0.7,0.8,1.7,1.4,2.7,1.5
							c1,0.1,2,0.6,2.6,1.3c0.8,1.1,0.6,2.3,0.3,4.2c-0.2,1.3-0.4,2.7-0.5,4.1c-0.1,2.2,0.1,4.4,0.6,6.5
							C20.3,23.2,20.2,23.3,20,23.4C20,23.4,20,23.4,20,23.4L20,23.4z M6.2,7c1-0.1,2,0.2,2.7,1c0.8,1,0.5,2.2,0.3,3.3
							s-0.5,2.3,0.2,3.2c0.7,0.7,1.6,1,2.6,1c1.1,0.1,2.2,0.3,2.9,1.3c0.4,0.7,0.5,1.5,0.3,2.3c-0.2,0.7-0.1,1.3,0.2,1.9
							c0.6,1,2,1.6,4.3,1.7c-0.4-2.1-0.6-4.2-0.5-6.3c0.1-1.4,0.2-2.8,0.5-4.1c0.3-1.7,0.5-2.8-0.2-3.7C18.8,8,18,7.6,17.1,7.5
							c-1.2-0.1-2.3-0.7-3.1-1.7c-0.4-0.6-0.7-1.3-0.9-2C13,3,12.6,2.3,12,1.7c-0.7-0.6-1.5-1.1-2.4-1.2C9,0.5,8.3,0.7,7.8,1
							C7.4,1.3,6.9,1.5,6.4,1.6C5.3,2,4.2,2.2,3,2.1c-0.8,0-1.3,0-1.7,0.4c-0.9,1.1-1,2.6-0.2,3.8c0.8,1,2.2,0.9,3.7,0.8
							C5.3,7,5.7,7,6.2,7L6.2,7z"/>
					</g>
					<path id="Trazado_716981" d="M21.1,24.8c-0.1,0-0.1,0-0.2-0.1c-1.5-1.2-2-3-2.8-5.9c-0.7-2.8-1.6-5.5-2.7-8.1
						C12.3,3.4,3.9,4.2,3.8,4.3C3.6,4.3,3.5,4.2,3.5,4c0-0.2,0.1-0.3,0.2-0.3l0,0c0.1,0,8.9-0.9,12.2,6.8c1.1,2.7,2,5.4,2.7,8.2
						c0.7,2.8,1.2,4.6,2.6,5.6c0.1,0.1,0.1,0.3,0.1,0.4C21.2,24.7,21.1,24.8,21.1,24.8L21.1,24.8z"/>
				</g>
				<path id="Trazado_716982" d="M25,44.5l-5.5,0l-0.6-1.7c-0.2-0.6,0.5-1.2,1.8-1.4c1.6-0.3,3.3-0.2,4.9,0.2
					c0.7,0.2,1.2,0.5,1.1,0.9l-0.2,0.7C26.3,44,25.7,44.5,25,44.5z"/>
			</g>
			<g id="Grupo_1084045" transform="translate(76.453 5.609)">
				<g id="Grupo_1084041" transform="translate(0 38.212)">
					<g id="Grupo_1084040">
						<path id="Trazado_716983" class="st9" d="M21.6,31.6c3.4-6.1,2.9-9,2-10.5c-1.7-2.7-5.5-1.5-7.2-4.4c-1.7-3,1.4-5.7,0.2-9.5
							C15.3,2.7,8.4-1.5,4,1C0.2,3.2-0.8,9.8,1.5,13.2c2.5,3.8,8,2.1,9.5,5.6c1.4,3.2-2.5,6.3-1.2,9.3C10.5,29.8,13,31.7,21.6,31.6z
							"/>
						<path id="Trazado_716984" d="M20.9,31.9c-6.6,0-10.4-1.2-11.4-3.7c-0.7-1.6,0-3.1,0.6-4.6c0.7-1.6,1.3-3.1,0.6-4.6
							c-0.7-1.6-2.3-2.1-4.2-2.6c-1.9-0.5-4-1.1-5.3-3C0,11.1-0.4,8.5,0.3,6.1C0.7,3.9,2,2,3.8,0.8c2-1,4.4-1.1,6.5-0.1
							c3.1,1.2,5.8,3.8,6.6,6.5c0.4,1.7,0.3,3.4-0.3,5c-0.4,1.6-0.8,2.9,0,4.4c0.8,1.4,2.1,1.8,3.5,2.2c1.5,0.2,2.8,1,3.7,2.2
							c1.4,2.2,0.7,5.8-2,10.8c0,0.1-0.1,0.1-0.2,0.1C21.4,31.9,21.1,31.9,20.9,31.9z M21.6,31.6L21.6,31.6z M7,0.6
							c-1,0-2,0.2-2.9,0.7C2.4,2.4,1.2,4.2,0.8,6.2C0.2,8.5,0.5,11,1.7,13c1.2,1.8,3.1,2.3,5,2.8c1.9,0.5,3.8,1,4.6,2.9
							c0.8,1.8,0.1,3.4-0.6,5.1C10,25.2,9.4,26.6,10,28c1,2.3,4.8,3.4,11.5,3.3c2.5-4.7,3.2-8.1,1.9-10.1c-0.8-1.2-2-1.6-3.3-2
							c-1.4-0.4-2.9-0.9-3.9-2.4c-1-1.6-0.5-3.2-0.1-4.8c0.6-1.5,0.7-3.2,0.3-4.7c-0.8-2.5-3.3-5-6.2-6.1C9.1,0.8,8.1,0.6,7,0.6z"/>
					</g>
					<path id="Trazado_716985" d="M22.2,34.4c-0.1,0-0.2-0.1-0.3-0.2C15.9,16.3,7.8,10.3,7.7,10.2C7.6,10.2,7.6,10,7.6,9.9
						C7.7,9.7,7.9,9.7,8,9.8l0,0c0.1,0.1,8.3,6.1,14.5,24.2C22.6,34.1,22.5,34.3,22.2,34.4C22.3,34.3,22.3,34.3,22.2,34.4
						C22.3,34.4,22.3,34.4,22.2,34.4z"/>
				</g>
				<g id="Grupo_1084043" transform="translate(14.871)">
					<g id="Grupo_1084042">
						<path id="Trazado_716986" class="st9" d="M11.3,68.9c0.2-2.9-0.6-5.9-2.3-8.3c-2-2.8-4.2-3.1-5-5.9c-0.7-2.6,1-3.4,0.4-6.3
							c-0.7-3.5-3.3-3.7-4-6.6c-0.8-3.5,2.6-5.2,4.3-10.1c2.2-6.3-1.5-9.2-0.6-15.1c1.4-9.6,13.5-18.4,18.7-16
							C27.6,2.9,28,16,24.1,25.4c-4.2,10.1-3.7,11.9-4.7,20.3c-0.7,5.8-2.2,7.3-3.6,16.3C15.3,65.1,11.8,67.4,11.3,68.9z"/>
						<path id="Trazado_716987" d="M11.3,69.2c-0.2,0-0.3-0.1-0.3-0.3c0,0,0,0,0,0c0.1-2.9-0.6-5.7-2.2-8.1c-0.7-1-1.6-1.8-2.5-2.6
							c-1.2-0.8-2.1-2-2.5-3.4c-0.3-1.1-0.2-2.2,0.2-3.2c0.4-1,0.4-2.1,0.2-3.1c-0.3-1.4-1-2.6-2.1-3.5c-0.9-0.8-1.6-1.8-1.9-3
							c-0.5-2.2,0.5-3.7,1.8-5.5c1.1-1.5,1.9-3,2.6-4.7c1.2-3.5,0.6-5.8,0-8.4c-0.7-2.2-0.9-4.4-0.6-6.7c0.9-6.5,6.6-12.3,11.4-15
							C18.3,0,21-0.4,22.9,0.4c5.3,2.5,5.2,16.1,1.4,25.1C20.8,33.9,20.6,36.5,20,42c-0.1,1.1-0.2,2.3-0.4,3.7
							c-0.3,2.3-0.8,4.6-1.5,6.8c-0.9,3.1-1.7,6.3-2.2,9.5c-0.3,2-1.8,3.6-3,5c-0.6,0.6-1.1,1.2-1.5,2
							C11.5,69.1,11.4,69.2,11.3,69.2z M20.8,0.6c-1.9,0.1-3.6,0.6-5.2,1.6C10.8,4.7,5.3,10.4,4.4,16.7c-0.2,2.2,0,4.4,0.6,6.4
							c0.6,2.5,1.3,5.1,0,8.7c-0.7,1.7-1.5,3.4-2.6,4.9c-1.3,1.8-2.2,3.2-1.7,5.1c0.3,1.1,0.9,2,1.8,2.8c1.2,1,1.9,2.3,2.2,3.8
							c0.2,1.1,0.1,2.3-0.3,3.4c-0.4,0.9-0.4,1.9-0.2,2.9c0.4,1.3,1.2,2.4,2.4,3.1c1,0.8,1.9,1.7,2.6,2.7c1.5,2.2,2.3,4.8,2.3,7.5
							c0.3-0.4,0.7-0.8,1.1-1.2c1.1-1.3,2.6-2.9,2.9-4.7c0.5-3.2,1.2-6.4,2.2-9.6c0.7-2.2,1.2-4.4,1.4-6.7c0.2-1.4,0.3-2.6,0.4-3.7
							c0.5-5.5,0.8-8.2,4.3-16.7c1.9-4.7,2.8-9.8,2.6-14.9c-0.2-5-1.6-8.4-3.8-9.4C22.1,0.7,21.4,0.5,20.8,0.6L20.8,0.6z"/>
					</g>
					<path id="Trazado_716988" d="M10,72.8c-0.2,0-0.3-0.1-0.3-0.3c0,0,0-0.1,0-0.1c2.4-5.3,1.4-11.3,0.2-18.8
						c-0.8-4.5-1.4-9-1.8-13.6C7.3,25.9,19.1,8.8,19.2,8.7c0.1-0.1,0.3-0.2,0.4-0.1s0.2,0.3,0.1,0.4l0,0C19.5,9.2,7.9,26,8.7,40
						c0.3,4.5,0.9,9.1,1.7,13.5c1.3,7.6,2.3,13.6-0.2,19.1C10.2,72.7,10.1,72.8,10,72.8z"/>
				</g>
				<g id="Grupo_1084044" transform="translate(27.139 30.571)">
					<path id="Trazado_716989" d="M1.7,39.4c0.6-3.7,0.9-7.5,0.8-11.3c-0.3-7.7-1.9-11-0.2-13.9c1.9-3.2,5-1.1,7.3-4.8
						c1.5-2.6,0.8-4.8,2.9-7.2C13.2,1,14.5,0.3,15.9,0c1.7-0.2,2.3,0.9,4.5,1.9c3.9,1.7,5.7-0.2,7.1,1.6c1.4,2.2,1.5,4.9,0.3,7.2
						c-2.3,3.7-8.4-0.6-10.7,2.9c-1.9,3,1.4,7.8-0.7,11.2c-1.9,3-5.8,0.9-7.3,4c-1.2,2.4,0.5,4.8-0.6,7.3
						C7.3,38.8,4.1,39.3,1.7,39.4z"/>
					<path id="Trazado_716990" class="st9" d="M0.3,42.1C0.1,42.1,0,42,0,41.8c0-0.1,0-0.1,0.1-0.2c1.9-1.8,2.5-5,3.6-9.8
						c0.9-4.8,2.2-9.5,3.7-14.1C11.7,4.6,23.8,6.1,23.9,6.1c0.2,0,0.3,0.2,0.2,0.3S24,6.7,23.8,6.7c-2.2-0.2-4.3,0.1-6.4,0.8
						c-4.6,1.6-7.8,5.1-9.6,10.4c-1.5,4.6-2.7,9.3-3.7,14C3.1,36.8,2.5,40,0.5,42C0.4,42,0.3,42.1,0.3,42.1z"/>
				</g>
				<path id="Trazado_716991" d="M29.8,77.4L22,77.5c-1.7,0-3.2-1-3.8-2.6L18,74.2c-0.4-1.2,1-2.3,3.4-2.7c3.1-0.6,6.4-0.4,9.4,0.3
					c1.4,0.4,2.3,1.1,2.2,1.8L32.7,75C32.4,76.4,31.2,77.4,29.8,77.4z"/>
			</g>
			<g id="Grupo_1084052" transform="translate(0 35.326)">
				<g id="Grupo_1084047" transform="translate(0 30.595)">
					<g id="Grupo_1084046">
						<path id="Trazado_716992" class="st9" d="M17.4,25.3c2.7-4.9,2.3-7.2,1.6-8.4c-1.4-2.1-4.4-1.2-5.8-3.5
							c-1.4-2.4,1.1-4.5,0.2-7.6c-1.1-3.6-6.6-7-10.1-5c-3,1.7-3.8,7-2,9.7c2,3,6.4,1.7,7.6,4.5c1.1,2.6-2,5-1,7.4
							C8.4,23.9,10.4,25.4,17.4,25.3z"/>
						<path id="Trazado_716993" d="M16.8,25.6c-5.3,0-8.3-1-9.2-3c-0.5-1.3,0-2.5,0.5-3.8c0.5-1.3,1-2.4,0.5-3.7
							c-0.6-1.3-1.9-1.6-3.3-2S2,12.4,1,10.8C0,9-0.3,6.9,0.2,4.9c0.3-1.8,1.4-3.3,2.9-4.3c1.6-0.8,3.6-0.9,5.2-0.1
							c2.4,0.9,4.4,2.8,5.3,5.2c0.3,1.3,0.3,2.8-0.2,4.1c-0.3,1.2-0.6,2.3,0,3.4c0.7,0.9,1.7,1.6,2.8,1.7c1.2,0.2,2.2,0.8,3,1.8
							c1.1,1.8,0.6,4.7-1.6,8.7c0,0.1-0.1,0.1-0.2,0.1C17.2,25.6,17,25.6,16.8,25.6z M17.4,25.3L17.4,25.3z M5.7,0.6
							c-0.8,0-1.6,0.2-2.3,0.6C2,2,1.1,3.4,0.8,5.1c-0.5,1.8-0.3,3.8,0.7,5.4c0.9,1.4,2.5,1.8,3.9,2.2c1.6,0.4,3,0.8,3.7,2.3
							c0.6,1.4,0.1,2.8-0.5,4.1c-0.5,1.2-0.9,2.3-0.5,3.3c0.8,1.8,3.8,2.7,9.1,2.6c2-3.7,2.5-6.4,1.5-8c-0.7-0.8-1.6-1.4-2.6-1.6
							c-1.3-0.2-2.4-0.9-3.1-2c-0.8-1.3-0.4-2.6-0.1-3.9c0.5-1.2,0.5-2.5,0.2-3.8c-0.9-2.2-2.7-4-5-4.9C7.4,0.7,6.5,0.6,5.7,0.6
							L5.7,0.6z"/>
					</g>
					<path id="Trazado_716994" d="M17.9,27.6c-0.1,0-0.2-0.1-0.3-0.2C12.7,13.1,6.3,8.4,6.2,8.3C6.1,8.2,6,8,6.1,7.9
						c0.1-0.1,0.3-0.2,0.4-0.1c0.3,0.2,6.7,4.9,11.6,19.4C18.2,27.4,18.1,27.6,17.9,27.6L17.9,27.6C17.9,27.6,17.9,27.6,17.9,27.6z"
						/>
				</g>
				<g id="Grupo_1084049" transform="translate(11.91)">
					<g id="Grupo_1084048">
						<path id="Trazado_716995" class="st9" d="M9.1,55.2c0.1-2.4-0.5-4.7-1.8-6.6c-1.6-2.3-3.4-2.5-4-4.7c-0.6-2.1,0.8-2.7,0.3-5
							c-0.5-2.8-2.7-3-3.2-5.3c-0.7-2.8,2.1-4.2,3.5-8.1c1.8-5.1-1.2-7.3-0.5-12.1C4.5,5.7,14.1-1.3,18.3,0.6
							c3.9,1.8,4.2,12.2,1,19.8c-3.4,8.1-3,9.5-3.8,16.3c-0.5,4.7-1.8,5.9-2.9,13C12.3,52.1,9.5,54,9.1,55.2z"/>
						<path id="Trazado_716996" d="M9.1,55.5c-0.2,0-0.3-0.1-0.3-0.3c0,0,0,0,0,0c0.1-2.3-0.5-4.6-1.8-6.5c-0.6-0.8-1.2-1.5-2-2.1
							c-1-0.7-1.7-1.6-2-2.7c-0.2-0.9-0.2-1.8,0.1-2.6c0.3-0.8,0.4-1.6,0.2-2.5c-0.2-1.1-0.8-2.1-1.7-2.8c-0.8-0.6-1.3-1.5-1.6-2.4
							c-0.4-1.8,0.4-3,1.4-4.5c0.8-1.2,1.5-2.4,2-3.8c0.7-2.2,0.7-4.5,0-6.7C3,17,2.9,15.2,3.1,13.4c0.8-5.3,5.3-9.9,9.2-12
							c2.5-1.3,4.6-1.7,6.1-1c4.2,2,4.2,12.9,1.2,20.2c-2.8,6.7-3,8.7-3.4,13.2c-0.1,0.9-0.2,1.9-0.3,3c-0.2,1.8-0.6,3.7-1.2,5.4
							c-0.8,2.5-1.3,5-1.7,7.6c-0.4,1.5-1.2,2.9-2.4,4c-0.5,0.5-0.9,1-1.2,1.5C9.3,55.4,9.2,55.5,9.1,55.5z M16.7,0.6
							c-1.5,0.1-2.9,0.5-4.2,1.3c-3.8,2-8.2,6.6-8.9,11.6c-0.2,1.7,0,3.5,0.5,5.1c0.8,2.3,0.8,4.7,0,7C3.6,27,2.9,28.3,2,29.5
							c-1,1.5-1.7,2.5-1.3,4c0.2,0.9,0.7,1.6,1.4,2.2c0.9,0.8,1.6,1.9,1.8,3.1c0.2,0.9,0.1,1.9-0.2,2.7c-0.3,0.7-0.3,1.5-0.1,2.3
							c0.3,1,1,1.9,1.9,2.5c2.5,1.9,4,4.9,3.9,8c0.2-0.3,0.5-0.6,0.8-0.9c1.1-1,1.9-2.3,2.3-3.7c0.4-2.6,1-5.2,1.7-7.7
							c0.6-1.7,0.9-3.5,1.2-5.3c0.1-1.1,0.2-2.1,0.3-3c0.4-4.4,0.6-6.6,3.5-13.4c3.2-7.6,2.7-17.8-0.9-19.5
							C17.7,0.6,17.2,0.5,16.7,0.6z"/>
					</g>
					<path id="Trazado_716997" d="M8.1,58.4c-0.2,0-0.3-0.1-0.3-0.3c0,0,0-0.1,0-0.1c1.9-4.2,1.1-9,0.1-15
						c-0.7-3.6-1.1-7.2-1.4-10.9C5.9,20.7,15.3,7.1,15.4,7c0.1-0.1,0.3-0.2,0.4-0.1s0.2,0.3,0.1,0.4C15.7,7.4,6.4,20.9,7.1,32
						c0.3,3.6,0.7,7.3,1.4,10.8c1,6.1,1.9,10.9-0.2,15.3C8.3,58.3,8.2,58.4,8.1,58.4z"/>
				</g>
				<g id="Grupo_1084051" transform="translate(21.73 24.256)">
					<g id="Grupo_1084050" transform="translate(0.981)">
						<path id="Trazado_716998" class="st9" d="M0.5,31.8c0.5-3,0.7-6,0.6-9.1c-0.2-6.2-1.6-8.8-0.2-11.1c1.5-2.5,4-0.8,5.8-3.9
							C7.9,5.7,7.3,3.9,9,2c0.7-0.9,1.7-1.5,2.8-1.7c1.4-0.1,1.8,0.7,3.6,1.5c3.1,1.4,4.5-0.2,5.7,1.3c1.1,1.7,1.2,3.9,0.3,5.7
							c-1.8,3-6.7-0.5-8.5,2.3c-1.6,2.4,1.1,6.3-0.6,9c-1.5,2.4-4.6,0.7-5.9,3.2c-1,1.9,0.4,3.8-0.5,5.9C4.9,31.4,2.3,31.8,0.5,31.8
							z"/>
						<path id="Trazado_716999" d="M0.5,32.1c-0.2,0-0.3-0.1-0.3-0.3c0,0,0,0,0,0c0.5-3,0.7-6,0.6-9c-0.1-1.9-0.2-3.8-0.5-5.6
							C0,14.6-0.3,13,0.6,11.5c0.6-1,1.7-1.7,2.8-1.8c1.3-0.2,2.4-0.9,3-2C6.9,6.8,7.2,6,7.3,5.1C7.5,3.9,8,2.7,8.8,1.8
							c0.7-1,1.8-1.6,3-1.8C12.6,0,13.4,0.2,14,0.7c0.5,0.3,1,0.6,1.5,0.8C16.6,2,17.8,2.2,19,2.1c0.9-0.2,1.8,0.1,2.3,0.8
							c1.2,1.8,1.3,4.1,0.3,6.1c-1,1.7-2.8,1.5-4.6,1.3c-1.6-0.1-3.1-0.3-3.9,1c-0.7,1.1-0.5,2.5-0.2,4.1c0.3,1.7,0.6,3.4-0.4,4.9
							c-0.7,1-1.9,1.6-3.2,1.7c-1.1,0.2-2.1,0.4-2.7,1.5c-0.4,0.9-0.4,1.9-0.2,2.8c0.2,1,0.1,2.1-0.3,3.1C5.3,31.1,3.4,32,0.5,32.1
							L0.5,32.1z M12.1,0.6c-0.1,0-0.2,0-0.2,0c-1.1,0.2-2,0.7-2.6,1.6C8.5,3,8,4.1,7.9,5.2C7.7,6.1,7.4,7,6.9,7.9
							C6.2,9.1,5,9.9,3.6,10.2c-1,0.1-2,0.7-2.5,1.6c-0.8,1.4-0.6,2.8-0.3,5.3c0.3,1.9,0.4,3.8,0.5,5.7c0.1,2.9-0.1,5.9-0.6,8.8
							c2.5-0.1,4.2-0.9,4.8-2.4c0.3-0.9,0.4-1.9,0.2-2.8c-0.2-1-0.1-2.1,0.3-3.1c0.7-1.4,1.9-1.6,3.1-1.8c1.1,0,2.1-0.5,2.8-1.4
							c0.8-1.3,0.5-2.9,0.3-4.5s-0.5-3.2,0.3-4.5c1-1.5,2.8-1.4,4.5-1.2c1.7,0.1,3.2,0.3,4.1-1.1C22,7,21.9,4.9,20.9,3.3
							c-0.5-0.6-1-0.6-1.9-0.6c-1.3,0.1-2.6-0.1-3.7-0.6c-0.5-0.2-1-0.5-1.5-0.8C13.3,0.8,12.7,0.6,12.1,0.6L12.1,0.6z"/>
					</g>
					<path id="Trazado_717000" d="M0.3,34C0.1,34,0,33.9,0,33.7c0-0.1,0-0.1,0.1-0.2c1.5-1.5,2-4,2.8-7.8c0.8-3.8,1.7-7.6,3-11.3
						C9.4,3.9,19.1,5.1,19.2,5.1c0.2,0,0.3,0.2,0.2,0.3s-0.2,0.3-0.3,0.2c-0.4-0.1-9.3-1.2-12.7,9C5.2,18.3,4.2,22,3.5,25.8
						c-0.8,3.9-1.4,6.5-3,8.1C0.4,34,0.3,34,0.3,34z"/>
				</g>
				<path id="Trazado_717001" d="M24.5,64L15,64.1c-0.5,0-0.9-0.3-1.1-0.7l-0.9-2.2c-0.4-1.1,1-2.1,3.3-2.5c3.1-0.5,6.2-0.4,9.2,0.3
					c1.4,0.3,2.2,1,2.1,1.6l-0.3,1.3C27,63.1,25.9,64,24.5,64z"/>
			</g>
		</g>
		<g id="Grupo_1084076" transform="translate(294.053 352.313)">
			<g id="Grupo_1084056" transform="translate(15.887 101.028)">
				<g id="Grupo_1084054" transform="translate(0 81.787)">
					<path id="Trazado_717002" class="st9" d="M12.1,17.3c-3.3,0.4-6.6,0.4-9.9-0.1c-1.3-0.2-2.1-1.5-1.9-2.7c0-0.1,0-0.2,0.1-0.2
						c1.1-3.7,3-10.7,5.9-13.8l6.6-0.1l0.4,8.2c0.1,1.5,0.2,2.9,0.5,4.4l0.4,1.9C14.3,16.1,13.3,17.2,12.1,17.3z"/>
					<path id="Trazado_717003" d="M7.2,17.9c-1.7,0-3.4-0.1-5-0.5c-1.4-0.3-2.3-1.6-2.1-3c0-0.1,0-0.2,0.1-0.3l0.2-0.8
						c1.1-3.8,3-10.2,5.8-13.2c0.1-0.1,0.1-0.1,0.2-0.1L12.9,0l0,0c0.1,0,0.3,0.1,0.3,0.3l0.4,8.2c0.1,1.5,0.2,2.9,0.5,4.4l0.4,1.9
						c0,0,0,0,0,0c0.1,1.4-0.9,2.7-2.4,2.8l-0.6,0.1C10.3,17.7,8.9,17.9,7.2,17.9z M6.4,0.6C3.8,3.5,2,9.8,0.9,13.5l-0.2,0.8
						c-0.3,1.1,0.3,2.2,1.4,2.6c0.1,0,0.1,0,0.2,0c3.1,0.5,6.2,0.6,9.2,0.2L12,17c1.1-0.1,1.9-1.1,1.9-2.2l-0.4-1.9
						c-0.3-1.5-0.5-2.9-0.5-4.4l-0.3-7.9L6.4,0.6z M12.1,17.3L12.1,17.3z"/>
				</g>
				<path id="Trazado_717004" d="M8.4,96.7c-1.9,0-3.7-0.3-5.5-0.8c-0.1,0-0.2-0.2-0.2-0.3c0-0.1,0.2-0.2,0.3-0.2
					c5,1.4,8.1,0.5,8.2,0.5c0.1,0,0.3,0,0.3,0.2c0,0.1,0,0.3-0.2,0.3l0,0C10.4,96.6,9.4,96.7,8.4,96.7z"/>
				<g id="Grupo_1084055" transform="translate(28.891 80.863)">
					<path id="Trazado_717005" class="st9" d="M0.3,11.2c-0.1,1.1,0.6,2,1.6,2.3c3.6,1,11.6,3.3,13.9,3.8c3,0.6,6.7-0.1,8.4-1.8
						s-3.3-6.1-5.6-7.8c-3.5-2.4-6.8-7.1-8.2-7.4C9.4,0.1,6.1,0.9,3.8,1.4C2.4,1.8,1.4,2.9,1.1,4.3C0.7,6.6,0.4,8.9,0.3,11.2z"/>
					<path id="Trazado_717006" d="M17.9,17.7c-0.7,0-1.5-0.1-2.2-0.2c-2.3-0.5-10.5-2.8-13.9-3.8c-1.1-0.3-1.9-1.4-1.8-2.6
						c0.2-2.3,0.4-4.6,0.8-6.9c0.3-1.5,1.4-2.7,2.9-3.1C7.4,0.3,9.6-0.1,10.4,0c0.8,0.2,2,1.4,3.5,3c1.5,1.6,3.1,3.1,4.8,4.5
						c1.9,1.3,5.9,4.8,6.1,7c0.1,0.4-0.1,0.9-0.4,1.2C23.1,17,20.5,17.7,17.9,17.7z M10,0.5C7.9,0.8,5.9,1.1,3.9,1.7
						C2.6,2,1.6,3.1,1.4,4.4C1,6.6,0.7,8.9,0.6,11.2c-0.1,0.9,0.5,1.8,1.4,2c3.4,1,11.5,3.3,13.8,3.7c3,0.6,6.6-0.2,8.1-1.7
						c0.2-0.2,0.3-0.5,0.3-0.8c-0.2-1.9-3.9-5.2-5.8-6.6C16.6,6.6,15,5,13.5,3.4c-1.3-1.4-2.6-2.7-3.2-2.8C10.2,0.6,10.1,0.6,10,0.5
						L10,0.5z M0.3,11.2L0.3,11.2z"/>
				</g>
				<path id="Trazado_717007" d="M46.3,94.8c-5.3,0-13.3-2.9-13.7-3.1c-0.1-0.1-0.2-0.2-0.2-0.4c0.1-0.1,0.2-0.2,0.4-0.2
					c0.1,0,12.8,4.7,16.7,2.4c0.1-0.1,0.3,0,0.4,0.1c0.1,0.1,0,0.3-0.1,0.4l0,0C48.7,94.6,47.5,94.8,46.3,94.8z"/>
				<path id="Trazado_717008" d="M8.5,0c0,0-3.7,35-5.3,47.1s1.4,35,1.4,35l9.7,0c0,0,0.8-20.7,1.8-29.8c0.3-2.2,0.9-4.4,1.8-6.4
					c2.1-4.4,3.7-9.1,4.8-13.9c1.2-5.3,2.8-10.6,4.7-15.7c0.2-0.5,0.7-0.7,1.1-0.5c0.3,0.1,0.6,0.4,0.6,0.8
					c0,14.8,1.4,61.2,1.5,65.3c0,0,7.2,1.4,10-0.1c0,0,5.1-25.6,5-38.1s2.3-43.3,2.3-43.3L8.5,0z"/>
				<path id="Trazado_717009" class="st9" d="M11.8,49c-0.9,0-1.8-0.3-2.6-0.8C9.1,48.2,9,48,9.1,47.9c0.1-0.1,0.2-0.2,0.4-0.1
					c1.1,0.7,2.5,0.9,3.7,0.4c0.1-0.1,0.3,0,0.4,0.2c0.1,0.1,0,0.3-0.2,0.4c0,0,0,0,0,0C12.9,48.9,12.4,49,11.8,49z"/>
				<path id="Trazado_717010" class="st9" d="M9.9,13.2c-0.2,0-0.3-0.1-0.3-0.3c0-0.1,0.1-0.3,0.3-0.3c2.1-0.3,3.7-1.9,4-3.9
					c0-0.2,0.2-0.2,0.3-0.2c0.1,0,0.2,0.2,0.2,0.3c0,0,0,0,0,0C14.1,11.2,12.3,13,9.9,13.2L9.9,13.2z"/>
				<path id="Trazado_717011" class="st9" d="M34.8,68.1L34.8,68.1c-0.2,0-0.3-0.1-0.3-0.3c0.4-5.8,7.3-15.8,7.6-16.3
					c0.1-0.1,0.3-0.2,0.4-0.1c0.1,0.1,0.2,0.3,0.1,0.4c-0.1,0.1-7.1,10.4-7.5,16C35.1,67.9,35,68.1,34.8,68.1z"/>
			</g>
			<g id="Grupo_1084057" transform="translate(3.945 18.285)">
				<path id="Rectángulo_361676" d="M18.3,1.6L18.3,1.6c10.1-0.9,19,6.6,19.9,16.7l4.5,51.5c0.4,4.1-2.7,7.7-6.7,8h0l-21.9,1.9
					C10,80.1,6.4,77.1,6,73c0,0,0,0,0,0L1.6,21.5C0.7,11.4,8.2,2.5,18.3,1.6z"/>
				<path id="Trazado_717012" class="st9" d="M10.4,66.5c-0.1,0-0.3-0.1-0.3-0.3l-4-47.5c-0.3-3.8,0.4-6.6,2.2-8.6
					c2-2.2,5.4-3.4,10.3-3.4c0.1,0,0.3,0.1,0.3,0.3c0,0,0,0,0,0c0,0.2-0.1,0.3-0.3,0.3c0,0,0,0,0,0c-4.7,0.1-8,1.1-9.9,3.2
					c-1.7,1.8-2.3,4.5-2,8.2l4,47.5C10.7,66.3,10.6,66.4,10.4,66.5C10.4,66.5,10.4,66.5,10.4,66.5L10.4,66.5z"/>
			</g>
			<g id="Grupo_1084069" transform="translate(0 31.501)">
				<g id="Grupo_1084058" transform="translate(62.156 67.276)">
					<path id="Trazado_717013" class="st9" d="M3.4,0.3l2.8,3c0,0,7.4-0.6,8.6,1.5C15,5.2,15,5.6,14.8,6c-0.7,1.4-3.2,3.1-2.3,4.1
						c1.4,1.5,2.9,3.2,3.2,3.5c0.5,0.3,0.6,0.9,0.3,1.4c-0.1,0.2-0.4,0.4-0.6,0.4c-1.8,0.8-3.8,0.8-5.5,0.1c-3.6-1.7-6.2-7.1-7.6-9
						C1.7,6.1,1,5.6,0.3,5.1L3.4,0.3z"/>
					<path id="Trazado_717014" d="M12.3,16.4c-0.9,0-1.7-0.2-2.5-0.5c-2.9-1.4-5.2-5.1-6.7-7.5c-0.4-0.6-0.7-1.2-1-1.6
						c-0.6-0.5-1.3-1-2-1.5C0,5.2,0,5.1,0,4.9l3.1-4.8C3.2,0,3.4,0,3.5,0c0,0,0,0,0.1,0L6.3,3c1.2-0.1,7.5-0.4,8.7,1.6
						c0.2,0.5,0.3,1,0.1,1.5c-0.3,0.6-0.8,1.2-1.2,1.7c-0.7,0.8-1.5,1.7-1.1,2.1c2.3,2.6,3,3.3,3.2,3.5c0.4,0.3,0.6,0.8,0.5,1.3
						c-0.1,0.5-0.5,0.9-0.9,1C14.5,16.2,13.5,16.4,12.3,16.4z M0.6,5C1.3,5.4,2,5.9,2.6,6.5c0.3,0.4,0.6,1,1,1.6
						c1.5,2.4,3.7,6,6.4,7.3c1.7,0.7,3.6,0.6,5.3-0.1c0.3-0.1,0.5-0.3,0.6-0.6c0-0.3-0.1-0.6-0.4-0.8c-0.3-0.2-1.3-1.4-3.2-3.5
						c-0.7-0.8,0.2-1.9,1.1-2.9c0.4-0.5,0.8-1,1.2-1.6c0.1-0.3,0.1-0.7-0.1-1c-0.9-1.6-6.3-1.5-8.3-1.4c-0.1,0-0.2,0-0.2-0.1
						L3.4,0.7L0.6,5z"/>
				</g>
				<g id="Grupo_1084059" transform="translate(18.166 0.044)">
					<path id="Trazado_717015" class="st9" d="M51.4,18c0-1.9-0.3-3.8-1-5.6c-1.3-3.7-2.4-6.6-4-7.7C38-0.9,23.1-1,11.2,3.3
						C-1,7.8,0.3,28.4,0.3,28.4l7.2-0.6L3.8,74.6c20.9,5,42.7,1.6,42.7,1.6c0.3-1.2,0.5-2.4,0.6-3.6l2.6-3.5
						C50.5,57.2,52.4,28.4,51.4,18z"/>
					<path id="Trazado_717016" d="M29.2,77.6c-8.6,0.1-17.1-0.8-25.4-2.7c-0.1,0-0.2-0.2-0.2-0.3l3.7-46.5l-6.9,0.6
						c-0.2,0-0.3-0.1-0.3-0.3c0,0,0,0,0,0c-0.2-3.7,0.1-7.4,0.9-11C2.5,9.9,6,4.9,11.1,3c12.4-4.5,27.3-3.9,35.4,1.5
						c1.8,1.2,2.9,4.1,4.2,7.9c0.6,1.8,1,3.7,1,5.7c0.9,9.7-0.7,36.1-1.5,48.8l-0.1,2.4c0,0.1,0,0.1-0.1,0.2l-2.6,3.4
						c-0.2,1.4-0.4,2.6-0.6,3.5c0,0.1-0.1,0.2-0.2,0.2C40.8,77.3,35,77.6,29.2,77.6z M4.1,74.4C23.6,79,44.2,76.3,46.3,76
						c0.2-0.9,0.4-2,0.6-3.3c0,0,0-0.1,0.1-0.1l2.6-3.4l0.1-2.3c0.8-12.7,2.4-39,1.5-48.7c0,0,0,0,0,0c0-1.9-0.3-3.7-0.9-5.5
						C49,9,47.9,6,46.3,5c-8-5.3-22.7-5.9-34.9-1.4C0.2,7.6,0.5,25.7,0.6,28.1l6.9-0.6c0.2,0,0.3,0.1,0.3,0.2c0,0,0,0,0,0.1
						L4.1,74.4z M49.8,69.2L49.8,69.2z"/>
				</g>
				<path id="Trazado_717017" d="M47.4,77.7c-8.6,0.1-17.1-0.8-25.4-2.7c-0.1,0-0.2-0.2-0.2-0.3l3.7-46.5l-6.9,0.6
					c-0.2,0-0.3-0.1-0.3-0.3c0,0,0,0,0,0c-0.2-3.7,0.1-7.4,0.9-11c1.6-7.6,5.1-12.6,10.2-14.5c11.7-4.3,29-4.6,36.6,2.3
					c0.9,0.8,3,6.8,3.8,10.7c1.4,6.5-1.5,50.5-1.6,52.4c0,0.2-0.1,0.3-0.3,0.3c-0.2,0-0.3-0.1-0.3-0.3c0,0,0,0,0,0
					c0-0.5,3-45.8,1.7-52.2c-0.9-4.2-3-9.8-3.6-10.4C58.1-1,41-0.6,29.5,3.6C18.3,7.7,18.6,25.7,18.7,28.2l6.9-0.6
					c0.2,0,0.3,0.1,0.3,0.2c0,0,0,0,0,0.1l-3.7,46.5C41.8,79,62.3,76.3,64.5,76c2-8.8,1.9-37.2,1.9-42.9c0-0.3-0.1-8,0.7-11.8
					c0-0.1,0.2-0.2,0.3-0.2c0.1,0,0.2,0.2,0.2,0.3l0,0c-0.9,3.7-0.7,11.5-0.7,11.6c0,8,0.1,34.8-1.9,43.2c0,0.1-0.1,0.2-0.2,0.2
					C59,77.3,53.2,77.7,47.4,77.7z"/>
				<path id="Trazado_717018" d="M22.9,49.6c-0.2,0-0.3-0.1-0.3-0.3c0-0.1,0.1-0.2,0.2-0.3c7.3-3.1,10.9-12.3,12.3-17.5
					c2.1-7.6,2.5-16,0.9-20.9c-3.1-9.4-10.7-7.3-11-7.2c-0.1,0-0.3,0-0.3-0.2c0-0.1,0-0.3,0.2-0.3c0.1,0,8.4-2.4,11.7,7.5
					c1.6,5,1.3,13.5-0.9,21.2C34.2,37,30.5,46.3,23,49.6C23,49.6,22.9,49.6,22.9,49.6z"/>
				<path id="Trazado_717019" d="M65.2,27.1c-0.2,0-0.3-0.1-0.3-0.3l0,0V26c0-4.1,0-9.3-2.9-15.2c-4.6-9.5-7.9-9.5-7.9-9.5
					c-0.2,0-0.3-0.1-0.3-0.3s0.1-0.3,0.3-0.3l0,0c0.2,0,3.7-0.1,8.4,9.8c2.9,6.1,2.9,11.3,2.9,15.5v0.8C65.5,27,65.4,27.1,65.2,27.1
					L65.2,27.1z"/>
				<path id="Trazado_717020" d="M8.5,79.9c-1.8,0.1-3.7-0.5-5.1-1.7C-0.1,75.1,0,68.5,0,63.2c0.1-6.8,3.5-12.5,8.9-14.8
					c0.1-0.1,0.3,0,0.4,0.1c0.1,0.1,0,0.3-0.1,0.4l0,0c-5.2,2.2-8.5,7.7-8.6,14.3c0,5.2-0.1,11.6,3.2,14.5c1.5,1.3,3.6,1.8,6.4,1.4
					c7.9-1.1,6.7-12.3,6.7-12.5c0-0.2,0.1-0.3,0.2-0.3c0.2,0,0.3,0.1,0.3,0.2l0,0c0,0.1,1.3,11.9-7.1,13.1
					C9.7,79.8,9.1,79.9,8.5,79.9z"/>
				<path id="Trazado_717021" class="st9" d="M9,49c-0.2,0-0.3-0.1-0.3-0.3c0-0.1,0.1-0.2,0.2-0.3c0.2-0.1,0.5-0.2,0.7-0.3l7-2.5
					c0.1-0.1,0.3,0,0.4,0.2c0.1,0.1,0,0.3-0.2,0.4l-7,2.5c-0.2,0.1-0.4,0.2-0.6,0.3C9.1,49,9.1,49,9,49z"/>
				<g id="Grupo_1084060" transform="translate(44.194 58.728)">
					<path id="Trazado_717022" class="st9" d="M2.2,0.3c-0.8,0-1.7,0.3-1.8,1C0.1,2,0.7,2.6,1.2,3.1C2.5,4.3,8.5,8.6,8,4.3
						C7.6,1.8,4.5,0.2,2.2,0.3z"/>
					<path id="Trazado_717023" d="M6.9,6.5C5,6.5,1.6,3.9,1,3.3C0.2,2.6-0.1,1.9,0,1.2C0.3,0.4,1.3,0,2.2,0h0.1c2.6,0,5.6,1.7,6,4.3
						c0.1,1-0.1,1.7-0.6,2C7.4,6.4,7.1,6.5,6.9,6.5z M2.2,0.6c-0.6,0-1.4,0.2-1.6,0.8C0.5,1.8,0.7,2.3,1.4,2.9c1.2,1.1,4.8,3.6,6,3
						c0.3-0.2,0.5-0.7,0.4-1.4C7.4,1.9,4.2,0.5,2.2,0.6L2.2,0.6z M2.2,0.3L2.2,0.3z"/>
				</g>
				<g id="Grupo_1084067" transform="translate(19.163 43.149)">
					<g id="Grupo_1084066" transform="translate(105.149 68.384)">
						<g id="Grupo_1084061" transform="translate(3.242)">
							<path id="Trazado_717024" d="M1.7,1.4c0,0-0.1,0-0.1,0L0.1,0.5C0,0.4,0,0.3,0,0.1C0.1,0,0.3,0,0.4,0l0,0l1.4,0.8
								C2,0.9,2,1.1,2,1.2C1.9,1.3,1.8,1.4,1.7,1.4L1.7,1.4z"/>
							<path id="Trazado_717025" d="M34.8,20.3c0,0-0.1,0-0.1,0l-2.8-1.6c-0.1-0.1-0.2-0.2-0.1-0.4c0.1-0.1,0.2-0.2,0.4-0.1l2.8,1.6
								c0.1,0.1,0.2,0.2,0.1,0.4C35,20.3,34.9,20.3,34.8,20.3L34.8,20.3z M29.3,17.2c0,0-0.1,0-0.1,0l-2.8-1.6
								c-0.1-0.1-0.2-0.2-0.1-0.4c0.1-0.1,0.2-0.2,0.4-0.1l0,0l2.8,1.6c0.1,0.1,0.2,0.2,0.1,0.4C29.5,17.1,29.4,17.2,29.3,17.2
								L29.3,17.2z M23.8,14c0,0-0.1,0-0.1,0l-2.8-1.6c-0.1-0.1-0.2-0.2-0.1-0.4c0.1-0.1,0.2-0.2,0.4-0.1l2.8,1.6
								c0.1,0.1,0.2,0.2,0.1,0.4C23.9,14,23.9,14,23.8,14L23.8,14z M18.2,10.8c0,0-0.1,0-0.1,0l-2.8-1.6c-0.1-0.1-0.2-0.2-0.1-0.4
								c0.1-0.1,0.2-0.2,0.4-0.1l0,0l2.8,1.6c0.1,0.1,0.2,0.2,0.1,0.4C18.4,10.8,18.3,10.8,18.2,10.8L18.2,10.8z M12.7,7.7
								c0,0-0.1,0-0.1,0L9.8,6.1C9.7,6,9.7,5.8,9.7,5.7c0.1-0.1,0.2-0.2,0.4-0.1l0,0l2.8,1.6C13,7.3,13,7.4,13,7.6
								C12.9,7.6,12.8,7.7,12.7,7.7L12.7,7.7z M7.2,4.5c0,0-0.1,0-0.1,0L4.3,2.9C4.2,2.8,4.2,2.7,4.2,2.5c0.1-0.1,0.2-0.2,0.4-0.1
								L7.4,4c0.1,0.1,0.2,0.2,0.1,0.4C7.4,4.5,7.3,4.5,7.2,4.5L7.2,4.5z"/>
							<path id="Trazado_717026" d="M39,22.7c0,0-0.1,0-0.1,0l-1.4-0.8c-0.1-0.1-0.2-0.2-0.1-0.4c0.1-0.1,0.2-0.2,0.4-0.1l1.4,0.8
								c0.1,0.1,0.2,0.2,0.1,0.4C39.2,22.7,39.1,22.7,39,22.7L39,22.7z"/>
						</g>
						<g id="Grupo_1084062" transform="translate(2.279 2.291)">
							<path id="Trazado_717027" d="M1.7,1.4c-0.1,0-0.1,0-0.1,0L0.1,0.5C0,0.4,0,0.3,0,0.1S0.3,0,0.4,0l1.4,0.9C2,1,2,1.2,1.9,1.3
								C1.9,1.4,1.8,1.4,1.7,1.4z"/>
							<path id="Trazado_717028" d="M36.4,23.1c-0.1,0-0.1,0-0.1,0l-2.9-1.8c-0.1-0.1-0.2-0.3-0.1-0.4s0.3-0.2,0.4-0.1l0,0l2.9,1.8
								c0.1,0.1,0.2,0.3,0.1,0.4C36.5,23,36.5,23.1,36.4,23.1L36.4,23.1z M30.6,19.5c-0.1,0-0.1,0-0.1,0l-2.9-1.8
								c-0.1-0.1-0.2-0.3-0.1-0.4s0.3-0.2,0.4-0.1l2.9,1.8c0.1,0.1,0.2,0.2,0.1,0.4C30.8,19.4,30.7,19.5,30.6,19.5z M24.8,15.9
								c-0.1,0-0.1,0-0.1,0L21.8,14c-0.1-0.1-0.2-0.3-0.1-0.4s0.3-0.2,0.4-0.1l2.9,1.8c0.1,0.1,0.2,0.2,0.1,0.4
								C25,15.8,24.9,15.9,24.8,15.9z M19,12.3c-0.1,0-0.1,0-0.1,0L16,10.4c-0.1-0.1-0.2-0.3-0.1-0.4s0.3-0.2,0.4-0.1l2.9,1.8
								c0.1,0.1,0.2,0.3,0.1,0.4C19.2,12.2,19.1,12.3,19,12.3L19,12.3z M13.2,8.6c-0.1,0-0.1,0-0.1,0l-2.9-1.8
								c-0.1-0.1-0.2-0.3-0.1-0.4s0.3-0.2,0.4-0.1l2.9,1.8c0.1,0.1,0.2,0.3,0.1,0.4C13.4,8.6,13.3,8.6,13.2,8.6L13.2,8.6z M7.5,5
								C7.4,5,7.4,5,7.3,5L4.4,3.2C4.3,3.1,4.3,2.9,4.3,2.8s0.3-0.2,0.4-0.1l2.9,1.8c0.1,0.1,0.2,0.2,0.1,0.4C7.6,5,7.6,5,7.5,5z"/>
							<path id="Trazado_717029" d="M40.7,25.8c-0.1,0-0.1,0-0.1,0l-1.4-0.9c-0.1-0.1-0.2-0.3-0.1-0.4s0.3-0.2,0.4-0.1l1.4,0.9
								c0.1,0.1,0.2,0.3,0.1,0.4C40.8,25.7,40.8,25.8,40.7,25.8L40.7,25.8z"/>
						</g>
						<g id="Grupo_1084063" transform="translate(0.814 5.225)">
							<path id="Trazado_717030" d="M1.6,1.6c-0.1,0-0.1,0-0.2-0.1l-1.3-1C0,0.4,0,0.2,0.1,0.1C0.2,0,0.3,0,0.5,0.1l1.3,1
								c0.1,0.1,0.1,0.3,0,0.4C1.7,1.6,1.6,1.6,1.6,1.6L1.6,1.6z"/>
							<path id="Trazado_717031" d="M33.2,27.5c-0.1,0-0.1,0-0.2-0.1l-2.6-2.2c-0.1-0.1-0.1-0.3,0-0.4c0.1-0.1,0.3-0.1,0.4,0l0,0
								l2.6,2.2c0.1,0.1,0.1,0.3,0,0.4C33.4,27.5,33.3,27.5,33.2,27.5L33.2,27.5z M28,23.2c-0.1,0-0.1,0-0.2-0.1L25.1,21
								c-0.1-0.1-0.1-0.3,0-0.4c0.1-0.1,0.3-0.1,0.4,0l0,0l2.6,2.2c0.1,0.1,0.1,0.3,0,0.4C28.1,23.2,28,23.2,28,23.2L28,23.2z
								 M22.7,18.9c-0.1,0-0.1,0-0.2-0.1l-2.6-2.2c-0.1-0.1-0.1-0.3,0-0.4c0.1-0.1,0.3-0.1,0.4,0l2.6,2.2c0.1,0.1,0.1,0.3,0,0.4
								C22.8,18.8,22.8,18.9,22.7,18.9L22.7,18.9z M17.4,14.6c-0.1,0-0.1,0-0.2-0.1l-2.6-2.2c-0.1-0.1-0.1-0.3,0-0.4
								c0.1-0.1,0.3-0.1,0.4,0l2.6,2.2c0.1,0.1,0.1,0.3,0,0.4C17.6,14.5,17.5,14.6,17.4,14.6L17.4,14.6z M12.1,10.2
								c-0.1,0-0.1,0-0.2-0.1L9.3,8C9.2,7.9,9.2,7.8,9.2,7.6c0.1-0.1,0.3-0.1,0.4-0.1c0,0,0,0,0,0l2.6,2.2c0.1,0.1,0.1,0.3,0,0.4
								C12.3,10.2,12.2,10.2,12.1,10.2L12.1,10.2z M6.8,5.9c-0.1,0-0.1,0-0.2-0.1L4,3.7C3.9,3.6,3.9,3.4,4,3.3
								c0.1-0.1,0.3-0.1,0.4,0l0,0L7,5.4c0.1,0.1,0.1,0.3,0,0.4C7,5.9,6.9,5.9,6.8,5.9z"/>
							<path id="Trazado_717032" d="M37.2,30.7c-0.1,0-0.1,0-0.2-0.1l-1.3-1c-0.1-0.1-0.1-0.3,0-0.4c0.1-0.1,0.3-0.1,0.4,0l1.3,1
								c0.1,0.1,0.1,0.3,0,0.4C37.3,30.7,37.2,30.7,37.2,30.7L37.2,30.7z"/>
						</g>
						<g id="Grupo_1084064" transform="translate(0.419 5.439)">
							<path id="Trazado_717033" d="M1.5,1.7c-0.1,0-0.1,0-0.2-0.1L0.1,0.5C0,0.4,0,0.2,0.1,0.1C0.2,0,0.4,0,0.5,0.1l1.2,1.2
								c0.1,0.1,0.1,0.3,0,0.4C1.6,1.7,1.5,1.7,1.5,1.7L1.5,1.7z"/>
							<path id="Trazado_717034" d="M30.6,29.8c-0.1,0-0.1,0-0.2-0.1L28,27.4c-0.1-0.1-0.1-0.3,0-0.4c0.1-0.1,0.3-0.1,0.4,0l0,0
								l2.4,2.3c0.1,0.1,0.1,0.3,0,0.4C30.8,29.8,30.7,29.8,30.6,29.8L30.6,29.8z M25.8,25.1c-0.1,0-0.1,0-0.2-0.1l-2.4-2.3
								c-0.1-0.1-0.1-0.3,0-0.4c0.1-0.1,0.3-0.1,0.4,0l0,0l2.4,2.3c0.1,0.1,0.1,0.3,0,0.4C25.9,25.1,25.8,25.1,25.8,25.1L25.8,25.1z
								 M20.9,20.4c-0.1,0-0.1,0-0.2-0.1L18.3,18c-0.1-0.1-0.1-0.3,0-0.4c0.1-0.1,0.3-0.1,0.4,0l2.4,2.3c0.1,0.1,0.1,0.3,0,0.4
								C21.1,20.4,21,20.4,20.9,20.4L20.9,20.4z M16,15.7c-0.1,0-0.1,0-0.2-0.1l-2.4-2.3c-0.1-0.1-0.1-0.3,0-0.4
								c0.1-0.1,0.3-0.1,0.4,0l0,0l2.4,2.3c0.1,0.1,0.1,0.3,0,0.4C16.2,15.7,16.1,15.7,16,15.7L16,15.7z M11.2,11.1
								c-0.1,0-0.1,0-0.2-0.1L8.6,8.6c-0.1-0.1-0.1-0.3,0-0.4c0.1-0.1,0.3-0.1,0.4,0l0,0l2.4,2.3c0.1,0.1,0.1,0.3,0,0.4
								C11.3,11,11.3,11.1,11.2,11.1L11.2,11.1z M6.3,6.4c-0.1,0-0.1,0-0.2-0.1L3.7,4c-0.1-0.1-0.1-0.3,0-0.4c0.1-0.1,0.3-0.1,0.4,0
								l0,0l2.4,2.3c0.1,0.1,0.1,0.3,0,0.4C6.5,6.4,6.4,6.4,6.3,6.4L6.3,6.4z"/>
							<path id="Trazado_717035" d="M34.2,33.3c-0.1,0-0.1,0-0.2-0.1l-1.2-1.2c-0.1-0.1-0.1-0.3,0-0.4c0.1-0.1,0.3-0.1,0.4,0l0,0
								l1.2,1.2c0.1,0.1,0.1,0.3,0,0.4C34.4,33.3,34.3,33.3,34.2,33.3L34.2,33.3z"/>
						</g>
						<g id="Grupo_1084065" transform="translate(0 6.262)">
							<path id="Trazado_717036" d="M29.5,35.4c-0.1,0-0.2,0-0.2-0.1L28.2,34c-0.1-0.1-0.1-0.3,0-0.4c0.1-0.1,0.3-0.1,0.4,0l1.1,1.3
								c0.1,0.1,0.1,0.3,0,0.4C29.6,35.4,29.6,35.4,29.5,35.4L29.5,35.4z"/>
							<path id="Trazado_717037" d="M26.4,31.6c-0.1,0-0.2,0-0.2-0.1l-2.1-2.5c-0.1-0.1-0.1-0.3,0-0.4c0.1-0.1,0.3-0.1,0.4,0
								l2.1,2.5c0.1,0.1,0.1,0.3,0,0.4C26.5,31.6,26.4,31.6,26.4,31.6L26.4,31.6z M22.2,26.7c-0.1,0-0.2,0-0.2-0.1l-2.1-2.5
								c-0.1-0.1-0.1-0.3,0-0.4c0.1-0.1,0.3-0.1,0.4,0l2.1,2.5c0.1,0.1,0.1,0.3,0,0.4C22.3,26.6,22.3,26.7,22.2,26.7L22.2,26.7z
								 M18,21.7c-0.1,0-0.2,0-0.2-0.1l-2.1-2.5c-0.1-0.1-0.1-0.3,0-0.4c0.1-0.1,0.3-0.1,0.4,0l2.1,2.5c0.1,0.1,0.1,0.3,0,0.4
								C18.2,21.7,18.1,21.7,18,21.7L18,21.7z M13.9,16.7c-0.1,0-0.2,0-0.2-0.1l-2.1-2.5c-0.1-0.1-0.1-0.3,0-0.4
								c0.1-0.1,0.3-0.1,0.4,0l2.1,2.5c0.1,0.1,0.1,0.3,0,0.4C14,16.7,13.9,16.7,13.9,16.7L13.9,16.7z M9.7,11.8
								c-0.1,0-0.2,0-0.2-0.1L7.4,9.2c-0.1-0.1-0.1-0.3,0-0.4c0.1-0.1,0.3-0.1,0.4,0l2.1,2.5c0.1,0.1,0.1,0.3,0,0.4
								C9.8,11.7,9.7,11.8,9.7,11.8L9.7,11.8z M5.5,6.8c-0.1,0-0.2,0-0.2-0.1L3.2,4.2c-0.1-0.1-0.1-0.3,0-0.4c0.1-0.1,0.3-0.1,0.4,0
								l2.1,2.5c0.1,0.1,0.1,0.3,0,0.4C5.6,6.8,5.6,6.8,5.5,6.8L5.5,6.8z"/>
							<path id="Trazado_717038" d="M1.2,1.9c-0.1,0-0.2,0-0.2-0.1L0,0.4C0,0.3,0,0.1,0.1,0C0.2,0,0.4,0,0.5,0.1l1.1,1.3
								c0.1,0.1,0.1,0.3,0,0.4c0,0-0.1,0-0.1,0.1C1.4,1.9,1.3,1.9,1.2,1.9L1.2,1.9z"/>
							<path id="Trazado_717039" d="M20.9,32.9c-0.1,0-0.2,0-0.2-0.1L19,30.2c-0.1-0.1,0-0.3,0.1-0.4c0.1-0.1,0.3,0,0.4,0.1l0,0
								l1.6,2.6c0.1,0.1,0,0.3-0.1,0.4C21,32.9,21,32.9,20.9,32.9L20.9,32.9z M17.6,27.7c-0.1,0-0.2,0-0.2-0.1L15.7,25
								c-0.1-0.1,0-0.3,0.1-0.4c0.1-0.1,0.3,0,0.4,0.1l1.6,2.6c0.1,0.1,0,0.3-0.1,0.4C17.7,27.7,17.7,27.7,17.6,27.7L17.6,27.7z
								 M14.3,22.6c-0.1,0-0.2,0-0.2-0.1l-1.6-2.6c-0.1-0.1,0-0.3,0.1-0.4c0.1-0.1,0.3,0,0.4,0.1l1.6,2.6c0.1,0.1,0,0.3-0.1,0.4
								C14.4,22.6,14.4,22.6,14.3,22.6L14.3,22.6z M11,17.4c-0.1,0-0.2,0-0.2-0.1l-1.6-2.6c-0.1-0.1,0-0.3,0.1-0.4
								c0.1-0.1,0.3,0,0.4,0.1l0,0l1.6,2.6c0.1,0.1,0,0.3-0.1,0.4C11.1,17.4,11.1,17.4,11,17.4L11,17.4z M7.7,12.3
								c-0.1,0-0.2,0-0.2-0.1L5.9,9.6C5.8,9.4,5.8,9.3,6,9.2c0.1-0.1,0.3,0,0.4,0.1L8,11.8c0.1,0.1,0,0.3-0.1,0.4
								C7.9,12.2,7.8,12.3,7.7,12.3L7.7,12.3z M4.5,7.1c-0.1,0-0.2,0-0.2-0.1L2.6,4.4C2.5,4.3,2.5,4.1,2.7,4C2.8,3.9,3,4,3,4.1l0,0
								l1.6,2.6c0.1,0.1,0,0.3-0.1,0.4C4.6,7.1,4.5,7.1,4.5,7.1L4.5,7.1z"/>
							<path id="Trazado_717040" d="M23.4,36.9c-0.1,0-0.2,0-0.2-0.1l-0.9-1.4c-0.1-0.1,0-0.3,0.1-0.4c0.1-0.1,0.3,0,0.4,0.1l0,0
								l0.9,1.4c0.1,0.1,0,0.3-0.1,0.4C23.6,36.9,23.5,36.9,23.4,36.9L23.4,36.9z"/>
						</g>
						<path id="Trazado_717041" d="M41.5,31.9c-0.1,0-0.1,0-0.2-0.1L38.6,30c-0.1-0.1-0.2-0.3-0.1-0.4s0.3-0.2,0.4-0.1l2.7,1.9
							c0.1,0.1,0.2,0.3,0.1,0.4C41.6,31.9,41.6,31.9,41.5,31.9L41.5,31.9z M36,28.1c-0.1,0-0.1,0-0.2-0.1l-2.7-1.9
							c-0.1-0.1-0.2-0.3-0.1-0.4s0.3-0.2,0.4-0.1l0,0l2.7,1.9c0.1,0.1,0.2,0.3,0.1,0.4C36.2,28.1,36.1,28.1,36,28.1L36,28.1z
							 M30.6,24.3c-0.1,0-0.1,0-0.2-0.1l-2.7-1.9c-0.1-0.1-0.2-0.3-0.1-0.4s0.3-0.2,0.4-0.1l0,0l2.7,1.9c0.1,0.1,0.2,0.3,0.1,0.4
							C30.8,24.3,30.7,24.3,30.6,24.3L30.6,24.3z M25.2,20.5c-0.1,0-0.1,0-0.2-0.1l-2.7-1.9c-0.1-0.1-0.2-0.3-0.1-0.4
							s0.3-0.2,0.4-0.1l0,0l2.7,1.9c0.1,0.1,0.2,0.3,0.1,0.4C25.4,20.5,25.3,20.5,25.2,20.5L25.2,20.5z M19.8,16.7
							c-0.1,0-0.1,0-0.2-0.1l-2.7-1.9c-0.1-0.1-0.2-0.3-0.1-0.4s0.3-0.2,0.4-0.1l2.7,1.9c0.1,0.1,0.2,0.3,0.1,0.4
							C19.9,16.6,19.9,16.7,19.8,16.7L19.8,16.7z M14.3,12.9c-0.1,0-0.1,0-0.2-0.1l-2.7-1.9c-0.1-0.1-0.2-0.3-0.1-0.4
							s0.3-0.2,0.4-0.1l0,0l2.7,1.9c0.1,0.1,0.2,0.3,0.1,0.4C14.5,12.8,14.4,12.9,14.3,12.9L14.3,12.9z M8.9,9.1
							c-0.1,0-0.1,0-0.2-0.1L6,7.1C5.9,7,5.9,6.9,6,6.7s0.3-0.2,0.4-0.1l0,0l2.7,1.9C9.2,8.7,9.2,8.8,9.1,9C9.1,9,9,9.1,8.9,9.1
							L8.9,9.1z M3.5,5.3c-0.1,0-0.1,0-0.2-0.1L0.8,3.4C0.7,3.4,0.6,3.2,0.7,3.1S1,2.9,1.1,3l2.5,1.8C3.8,4.9,3.8,5,3.7,5.2
							C3.7,5.2,3.6,5.3,3.5,5.3L3.5,5.3z"/>
					</g>
					
						<rect id="Rectángulo_361677" x="49.2" y="-25.5" transform="matrix(0.5518 -0.834 0.834 0.5518 -5.8709 57.7341)" width="3.1" height="119.7"/>
					<path id="Trazado_717042" d="M112.6,68.5l-11.3-2.6l-1.7,2.6l6.6,8.8L112.6,68.5z"/>
					<path id="Trazado_717043" class="st9" d="M108.7,70.8c0,0-0.1,0-0.1,0l-5.9-2.4c-0.1-0.1-0.2-0.2-0.2-0.4s0.2-0.2,0.4-0.2
						l5.9,2.4c0.1,0.1,0.2,0.2,0.1,0.4C108.9,70.7,108.8,70.8,108.7,70.8L108.7,70.8z"/>
				</g>
				<g id="Grupo_1084068" transform="translate(34.906 55.438)">
					<path id="Trazado_717044" class="st9" d="M1.7,3.2C3.1,3.7,6,3.7,6.9,2.5c0.8-1.2,2.1-2,3.6-2.2c0.2,0,0.4,0,0.6,0.1
						C11,2,9.8,3.5,9.9,5.3c0,1.1,0.4,2.1,1,3c0.5,0.6,4.3,2,4.4,2.5c0.1,2.4-7.8-0.2-8.7-0.4C6,10.3,2.7,8.7,0.3,8.1L1.7,3.2z"/>
					<path id="Trazado_717045" d="M13.5,12.1c-2.1-0.2-4.2-0.6-6.2-1.2c-0.4-0.1-0.7-0.2-0.8-0.2C6,10.5,5.4,10.3,4.8,10
						C3.3,9.4,1.8,8.8,0.2,8.4C0.1,8.3,0,8.2,0,8c0,0,0,0,0,0l1.4-4.8C1.5,3,1.6,2.9,1.8,3c0,0,0,0,0,0c1.5,0.4,4.2,0.4,4.9-0.7
						C7.5,1.1,8.9,0.2,10.4,0c0.2,0,0.5,0,0.7,0.1c0.1,0,0.2,0.1,0.2,0.3C11.2,1.2,11,2,10.7,2.7c-0.3,0.8-0.5,1.7-0.5,2.6
						c0,1,0.4,2,1,2.8c0.6,0.4,1.3,0.8,1.9,1.1c1.8,0.8,2.5,1.2,2.5,1.6c0,0.4-0.1,0.7-0.4,0.9C14.7,12,14.1,12.1,13.5,12.1z
						 M0.6,7.9c1.5,0.5,3,1,4.4,1.6c0.5,0.2,1.1,0.4,1.6,0.6c0.1,0,0.4,0.1,0.8,0.2c1.7,0.5,6.3,1.7,7.4,0.9C15,11.1,15,11,15,10.8
						c-0.7-0.5-1.4-0.9-2.2-1.2c-0.8-0.3-1.5-0.7-2.1-1.2c-0.7-0.9-1.1-2-1.1-3.1c0-1,0.2-1.9,0.6-2.8c0.3-0.6,0.4-1.3,0.5-2
						c-0.1,0-0.2,0-0.2,0C9.1,0.7,7.9,1.5,7.1,2.6C6.2,4,3.3,3.9,1.9,3.6L0.6,7.9z"/>
				</g>
				<path id="Trazado_717046" class="st9" d="M35.8,64.3c-7.5,1.1-18.6-14.5-19.1-18.4c-0.4-3,2.1-23.6,2.1-23.6l13.2-2.2
					c0,0-4.3,20.6-3.7,21.3c2.2,2.6,4,12.1,9.4,16.7L35.8,64.3z"/>
				<path id="Trazado_717047" d="M35,64.6c-2,0-4.2-1-6.7-2.9c-5.8-4.4-11.5-13-11.8-15.8c-0.3-2.6,1.9-22.9,2.4-27.1
					c0-0.2,0.2-0.3,0.3-0.2c0.2,0,0.3,0.2,0.2,0.3c0,0,0,0,0,0c-0.5,4.1-2.7,24.4-2.4,26.9c0.3,2.7,5.9,11.1,11.6,15.4
					c2.7,2,5,2.9,7,2.7l1.9-5.7c-3.3-3-5.3-7.8-6.8-11.7c-0.6-1.8-1.4-3.4-2.4-5c-0.2-0.2-0.5-0.6,2.5-15.9c0-0.1,0.2-0.2,0.3-0.2
					c0.1,0,0.2,0.2,0.2,0.3c-2.6,13.2-2.6,15.1-2.6,15.4c1.1,1.6,1.9,3.3,2.5,5.1c1.6,3.9,3.5,8.7,6.8,11.6c0.1,0.1,0.1,0.2,0.1,0.3
					l-2,6.1c0,0.1-0.1,0.2-0.2,0.2C35.5,64.6,35.3,64.6,35,64.6z M28.6,41.3L28.6,41.3z"/>
			</g>
			<g id="Grupo_1084072" transform="translate(32.547 3.919)">
				<g id="Grupo_1084070" transform="translate(2.088)">
					<path id="Trazado_717048" d="M7.9,18.6c-1,0.3-2,0.3-3,0c-1.7-0.6-3.1-1.9-3.8-3.5c-1.2-2.4-1.2-6,0.6-7.6
						c1.3-1.2,2.5-0.4,4-1.7c1.7-1.5,0.7-3.3,2.3-4.6c1.8-1.5,4.8-0.7,5.4-0.5c1.9,0.5,1.9,1.5,3.7,1.8c1.8,0.4,0.2,1.6,1.8,2
						c1.3,0.3,4.9,0.6,5.4,2.3c0.7,2.2-0.7,3-2.3,4.1c-1.9,1.3-2.8,0.2-5.3,1C12.4,13.2,12.4,17.5,7.9,18.6z"/>
					<path id="Trazado_717049" class="st9" d="M6.2,19.1c-0.5,0-1-0.1-1.4-0.2c-1.8-0.6-3.2-1.9-4-3.6c-1.2-2.4-1.3-6.2,0.7-8
						c0.6-0.5,1.3-0.8,2-0.9c0.7-0.1,1.4-0.4,2-0.9c0.6-0.6,1-1.4,1.1-2.3C6.7,2.4,7.1,1.6,7.7,1c1.7-1.4,4.2-1,5.6-0.6
						c0.7,0.2,1.4,0.5,1.9,1c0.5,0.4,1.1,0.7,1.7,0.8c1.1,0.2,1.2,0.7,1.2,1.3c0,0.4,0,0.6,0.6,0.7c0.2,0,0.5,0.1,0.7,0.1
						c1.7,0.3,4.4,0.8,4.9,2.4c0.7,2.4-0.8,3.3-2.3,4.4c-0.8,0.6-1.8,0.8-2.8,0.7c-0.9-0.1-1.7,0-2.5,0.3c-1.7,0.6-3.1,1.8-4,3.3
						c-1.1,1.4-2.3,2.9-4.7,3.5C7.4,19,6.8,19.1,6.2,19.1z M7.9,18.6L7.9,18.6z M10.8,0.6c-1-0.1-1.9,0.2-2.7,0.8
						c-0.6,0.5-0.9,1.2-1,2C7,4.4,6.6,5.3,5.8,6C5.2,6.6,4.4,6.9,3.6,7C3,7,2.4,7.3,1.9,7.7c-1.8,1.6-1.7,5-0.6,7.3
						c0.7,1.6,2,2.8,3.6,3.4c1,0.2,1.9,0.2,2.9,0c2.2-0.6,3.3-1.9,4.4-3.3c1-1.6,2.5-2.8,4.3-3.5c0.9-0.3,1.8-0.4,2.7-0.3
						c0.9,0.1,1.8-0.1,2.5-0.6c1.6-1.1,2.7-1.8,2.1-3.8c-0.4-1.3-2.9-1.7-4.4-2c-0.3-0.1-0.6-0.1-0.8-0.1c-1-0.2-1.1-0.8-1.1-1.2
						c0-0.4,0-0.6-0.8-0.7c-0.7-0.1-1.4-0.5-2-0.9c-0.5-0.4-1.1-0.7-1.7-0.9C12.4,0.7,11.6,0.6,10.8,0.6z"/>
				</g>
				<g id="Grupo_1084071" transform="translate(0 8.614)">
					<path id="Trazado_717050" class="st9" d="M15.3,16.7L15.3,16.7l0.2-3.1c0.8,0.1,1.6,0.1,2.4,0.1c1.9-0.5,2.4-4.9,2.4-4.9
						l1.2-0.9l-1.4-7.1c-3.6,1.9-4.2-0.9-7.5-0.3s-2.4,4.3-2.4,4.3S8,3,8,5.5c-0.1,1.2,0.8,2.3,2,2.4c0.1,0,0.1,0,0.2,0l-1.5,4.9
						l0,0L8.6,13l-1.4,4.5l0,0l-0.6,1.9c0,0-5.3,1.5-6.3,1.8c1.3-0.1,10.6,4,21.1-0.4l-5.6-1.7L15.3,16.7z"/>
					<path id="Trazado_717051" d="M11,23.1c-3.1,0-6.2-0.5-9.1-1.3c-0.5-0.2-1-0.3-1.5-0.3c-0.2,0-0.3-0.1-0.3-0.3
						C0,21.1,0.1,21,0.2,21c0.9-0.2,5.3-1.5,6.2-1.7l0.5-1.7c0,0,0-0.1,0-0.1l1.5-4.7c0,0,0,0,0,0l1.4-4.5C8.5,8,7.6,6.8,7.7,5.5
						C7.7,4.7,8,4.2,8.4,4c0.5-0.2,1-0.1,1.5,0.2C9.8,3.2,10,2.2,10.4,1.4c0.5-0.7,1.3-1.2,2.2-1.3c1.1-0.2,2.3,0,3.3,0.5
						c1.3,0.7,2.8,0.6,4-0.2c0.1-0.1,0.3,0,0.4,0.1c0,0,0,0,0,0.1l1.4,7.1c0,0.1,0,0.2-0.1,0.3l-1.1,0.9c-0.1,0.7-0.7,4.6-2.6,5.1
						c-0.7,0-1.5,0-2.2,0l-0.2,2.7c0,0,0,0,0,0l0.4,2.3l5.5,1.6c0.1,0,0.2,0.2,0.2,0.3c0,0.1-0.1,0.1-0.2,0.2
						C18.1,22.4,14.6,23.1,11,23.1z M1.5,21.2L2,21.3c3.2,0.8,10.5,2.6,18.6-0.5l-4.9-1.4c-0.1,0-0.2-0.1-0.2-0.2l-0.4-2.4
						c0,0,0-0.1,0-0.1l0.2-3.1c0-0.1,0-0.1,0.1-0.2c0.1,0,0.1-0.1,0.2-0.1c0.3,0,2.1,0.1,2.3,0.1c1.4-0.4,2.1-3.5,2.2-4.7
						c0-0.1,0-0.1,0.1-0.2l1.1-0.8l-1.3-6.6c-1.3,0.7-2.9,0.7-4.2,0c-0.9-0.5-2-0.6-3-0.5c-0.7,0.1-1.4,0.5-1.8,1.1
						c-0.5,0.9-0.6,1.9-0.4,2.9c0,0.1-0.1,0.3-0.2,0.3c-0.1,0-0.2,0-0.2,0c-0.2-0.2-1-0.6-1.4-0.4C8.3,4.6,8.3,5.1,8.3,5.5
						c-0.1,1.1,0.6,2,1.7,2.1c0.1,0,0.1,0,0.2,0c0.2,0,0.3,0.2,0.2,0.3c0,0,0,0,0,0l-1.5,4.9c0,0,0,0,0,0l0,0.2l-1.4,4.4
						c0,0,0,0.1,0,0.1l-0.6,1.9c0,0.1-0.1,0.2-0.2,0.2C6.6,19.7,3.4,20.6,1.5,21.2L1.5,21.2z"/>
				</g>
				<path id="Trazado_717052" d="M15.5,22.4L15.5,22.4c-1.9-0.1-3.5-1.3-4.1-3c0-0.1,0-0.3,0.2-0.3c0.1,0,0.3,0,0.3,0.2
					c0.6,1.5,2,2.5,3.6,2.6c0.2,0,0.3,0.1,0.3,0.3C15.8,22.3,15.6,22.4,15.5,22.4L15.5,22.4z"/>
			</g>
			<g id="Grupo_1084075" transform="translate(29.697 0)">
				<g id="Grupo_1084073" transform="translate(0 5.749)">
					<path id="Trazado_717053" class="st9" d="M4.6,8.6c0,0,12.7,3.5,24.5,0.4C39.5,6.3,26.9,0.7,17,0.3C2.3-0.2-5,5,4.6,8.6z"/>
					<path id="Trazado_717054" d="M18.5,10.5c-4.7,0-9.4-0.6-13.9-1.7l0,0C0.4,7.3-0.2,5.7,0,4.6c0.6-3,7.7-4.9,17-4.6
						c6.9,0.3,16,3.2,16.3,6.2c0.1,1.3-1.2,2.3-4.1,3C25.7,10.1,22.1,10.6,18.5,10.5z M4.7,8.3c0.4,0.1,12.9,3.4,24.4,0.4
						c2.5-0.6,3.8-1.5,3.7-2.5C32.5,3.8,24.2,0.9,17,0.6C7.3,0.2,1,2.4,0.6,4.7C0.3,5.9,1.8,7.2,4.7,8.3z"/>
				</g>
				<g id="Grupo_1084074" transform="translate(7.765)">
					<path id="Trazado_717055" class="st9" d="M2.6,12.9c-1.5-0.3-2.5-1.8-2.3-3.3c0.5-3.1,2.1-7.3,4.4-8.4c2.5-1.3,6.7-1,9,0
						c2.5,1.1,3.6,5.2,3.3,8.9C16.7,13.3,9.6,15,2.6,12.9z"/>
					<path id="Trazado_717056" d="M8.9,14.1c-2.1,0-4.3-0.3-6.3-0.9C0.9,12.7-0.2,11.2,0,9.5C0.6,6.2,2.3,2,4.6,0.9
						c2.6-1.3,6.9-1,9.2,0c2.6,1.2,3.7,5.5,3.4,9.1c-0.1,1-0.7,1.9-1.6,2.4C13.6,13.6,11.3,14.2,8.9,14.1z M9,0.6
						c-1.4,0-2.8,0.2-4.1,0.8c-2.1,1-3.7,4.9-4.3,8.2c-0.1,1.4,0.8,2.7,2.1,3c5.3,1.6,10.4,0.9,12.6-0.6c0.7-0.4,1.2-1.2,1.4-2
						C17,6.6,16,2.5,13.6,1.4C12.1,0.8,10.6,0.5,9,0.6L9,0.6z"/>
				</g>
				<path id="Trazado_717057" d="M17.8,4.4c-1.7,0-3.3-0.4-4.7-1.3C13,3.1,13,2.9,13,2.8c0.1-0.1,0.2-0.2,0.4-0.1
					c2.4,1.4,5.3,1.5,7.8,0.5c0.1-0.1,0.3,0,0.4,0.1s0,0.3-0.1,0.4l0,0C20.3,4.2,19.1,4.4,17.8,4.4z"/>
			</g>
		</g>
		<g id="Grupo_1084080" transform="translate(424.078 335.666)">
			<g id="Grupo_1084077" transform="translate(33.533 152.789)">
				<path id="Trazado_717058" d="M7.4,61.5c-0.2,0-0.3-0.1-0.3-0.3c0-0.1,0.1-0.2,0.2-0.3c21.2-8.6,38.5-23.6,48.6-42.1
					c0.1-0.1,0.2-0.2,0.4-0.1c0.1,0.1,0.2,0.2,0.1,0.4c0,0,0,0,0,0c-5.3,9.6-12.2,18.1-20.5,25.2c-8.5,7.2-18,13-28.4,17.2
					C7.5,61.5,7.4,61.5,7.4,61.5z"/>
				<path id="Trazado_717059" d="M0.3,57.9c-0.2,0-0.3-0.1-0.3-0.3c0-0.1,0.1-0.2,0.2-0.3C29,47.7,50,26.9,57.9,0.2
					C58,0.1,58.1,0,58.3,0s0.2,0.2,0.2,0.3l0,0C50.5,27.2,29.3,48.1,0.3,57.9C0.3,57.9,0.3,57.9,0.3,57.9z"/>
			</g>
			<g id="Grupo_1084078" transform="translate(12.114 5.147)">
				<path id="Trazado_717060" d="M3.7,2.8c-0.2,0-0.3-0.1-0.3-0.3l0,0V0.3C3.5,0.1,3.6,0,3.7,0S4,0.1,4,0.3v2.2
					C4,2.6,3.9,2.8,3.7,2.8C3.7,2.8,3.7,2.8,3.7,2.8z"/>
				<path id="Trazado_717061" d="M3.7,7.7c-0.2,0-0.3-0.1-0.3-0.3l0,0V5.2C3.5,5.1,3.6,5,3.7,5S4,5.1,4,5.2v2.2
					C4,7.6,3.9,7.7,3.7,7.7L3.7,7.7z"/>
				<path id="Trazado_717062" d="M2.5,4H0.3C0.1,4,0,3.9,0,3.7s0.1-0.3,0.3-0.3l0,0h2.2c0.2,0,0.3,0.1,0.3,0.3S2.6,4,2.5,4z"/>
				<path id="Trazado_717063" d="M7.5,4H5.2C5.1,4,5,3.9,5,3.7s0.1-0.3,0.3-0.3l0,0h2.2c0.2,0,0.3,0.1,0.3,0.3S7.6,4,7.5,4z"/>
			</g>
			<g id="Grupo_1084079" transform="translate(74.806 64.248)">
				<path id="Trazado_717064" d="M3.7,2.8c-0.2,0-0.3-0.1-0.3-0.3l0,0V0.3C3.5,0.1,3.6,0,3.7,0S4,0.1,4,0.3v2.2
					C4,2.6,3.9,2.8,3.7,2.8L3.7,2.8z"/>
				<path id="Trazado_717065" d="M3.7,7.7c-0.2,0-0.3-0.1-0.3-0.3l0,0V5.2C3.5,5.1,3.6,5,3.7,5S4,5.1,4,5.2l0,0v2.2
					C4,7.6,3.9,7.7,3.7,7.7z"/>
				<path id="Trazado_717066" d="M2.5,4H0.3C0.1,4,0,3.9,0,3.7s0.1-0.3,0.3-0.3h2.2c0.2,0,0.3,0.1,0.3,0.3S2.6,4,2.5,4z"/>
				<path id="Trazado_717067" d="M7.5,4H5.2C5.1,4,5,3.9,5,3.7s0.1-0.3,0.3-0.3l0,0h2.2c0.2,0,0.3,0.1,0.3,0.3S7.6,4,7.5,4z"/>
			</g>
			<path id="Trazado_717068" d="M2.3,4.6C1,4.6,0,3.6,0,2.3C0,1,1,0,2.3,0c1.3,0,2.3,1,2.3,2.3v0C4.6,3.6,3.6,4.6,2.3,4.6z M2.3,0.6
				c-1,0-1.7,0.8-1.7,1.7S1.3,4,2.3,4C3.2,4,4,3.2,4,2.3v0C4,1.3,3.2,0.6,2.3,0.6L2.3,0.6z"/>
		</g>
		<g id="Grupo_1084089" transform="translate(448.156 335)">
			<g id="Grupo_1084088" transform="translate(0 0)">
				<path id="Trazado_717069" d="M63.4,31.9c0,0.7,0,1.4-0.1,2.1c-1.1,17.4-16.2,30.6-33.6,29.5C12.4,62.3-0.8,47.2,0.3,29.8
					S16.5-0.8,33.9,0.3C50.5,1.4,63.4,15.2,63.4,31.9z"/>
				<path id="Trazado_717070" class="st9" d="M31.9,63.7C14.3,63.7,0,49.5,0,31.9S14.3,0,31.9,0c17.6,0,31.9,14.3,31.9,31.9
					c0,0.7,0,1.4-0.1,2.1C62.6,50.7,48.6,63.7,31.9,63.7L31.9,63.7z M31.9,0.6c-17.3,0-31.4,14-31.4,31.3c0,17.3,14,31.4,31.3,31.4
					c16.5,0,30.2-12.8,31.3-29.3c0-0.7,0.1-1.4,0.1-2.1C63.1,14.6,49.1,0.6,31.9,0.6L31.9,0.6z"/>
				<g>
					<defs>
						<path id="SVGID_1_" d="M0.3,31.9c0-17.4,14.1-31.6,31.6-31.6s31.6,14.1,31.6,31.6c0,0.7,0,1.4-0.1,2.1
							c-1.1,17.4-16.2,30.6-33.6,29.4C13.2,62.3,0.3,48.5,0.3,31.9z M0.6,31.9c0,17.3,14,31.3,31.3,31.3c16.5,0,30.2-12.8,31.3-29.3
							c0-0.7,0.1-1.4,0.1-2.1C63.1,14.6,49,0.6,31.7,0.7C14.5,0.8,0.6,14.7,0.6,31.9L0.6,31.9z"/>
					</defs>
					<clipPath id="SVGID_00000109011172452906969200000018343780392533996171_">
						<use xlink:href="#SVGID_1_"  style="overflow:visible;"/>
					</clipPath>
					
						<g id="Grupo_1084087" transform="translate(0.276 0.276)" style="clip-path:url(#SVGID_00000109011172452906969200000018343780392533996171_);">
						<g id="Grupo_1084086" transform="translate(10.087 9.71)">
							<g id="Grupo_1084082">
								<path id="Trazado_717071" class="st9" d="M0,3.2c8.5-1.4,13.7,3,15.4,13.6C5.2,15.8,0.2,11.2,0,3.2z"/>
								<path id="Trazado_717072" class="st9" d="M32.3,10.1c-8.2-2.9-14.2,1.1-17.7,11.3C24.8,22.2,30.7,18,32.3,10.1z"/>
								<path id="Trazado_717073" class="st9" d="M26.9,0.5c-5.1-1.6-8.8,1-10.8,7.4C22.5,8.2,26.1,5.4,26.9,0.5z"/>
								<path id="Trazado_717074" class="st9" d="M14.7,32.7L14.7,32.7c-0.2,0-0.3-0.1-0.3-0.3l0.4-17c-0.1-8.2,3.2-11.2,8.4-13.2
									c0.1-0.1,0.3,0,0.4,0.2c0.1,0.1,0,0.3-0.2,0.4c-5.1,2-8.2,4.8-8,12.7l-0.4,17C15,32.6,14.9,32.7,14.7,32.7z"/>
								<g id="Grupo_1084081" transform="translate(1.644 30.426)">
									<path id="Trazado_717075" class="st9" d="M0.5,8.8c8.8-12.1,20.1-11.2,24,2L1.2,10.5c-0.6-0.1-1-0.6-0.9-1.2
										C0.3,9.1,0.4,9,0.5,8.8z"/>
									<path id="Trazado_717076" d="M24.5,11.1L24.5,11.1L1.2,10.8c-0.4,0-0.8-0.3-1-0.7c-0.2-0.5-0.2-1,0.1-1.5
										c4.5-6.3,9.9-9.4,14.9-8.5c4.4,0.8,7.8,4.5,9.6,10.6C24.8,10.9,24.7,11.1,24.5,11.1C24.6,11.1,24.5,11.1,24.5,11.1
										L24.5,11.1z M13.5,0.6c-4.3,0-8.9,3-12.8,8.4C0.5,9.2,0.5,9.6,0.6,9.9c0.1,0.2,0.3,0.4,0.5,0.4l22.9,0.3
										c-1.7-5.7-5-9.2-9.1-9.9C14.5,0.6,14,0.6,13.5,0.6z M0.5,8.8L0.5,8.8z"/>
								</g>
								<path id="Trazado_717077" d="M17.1,20.1c-0.2,0-0.3-0.1-0.3-0.3c0-0.1,0-0.1,0.1-0.2c2.9-3.1,7-5.8,12.4-8.2
									c0.1,0,0.3,0,0.3,0.2c0,0.1,0,0.3-0.1,0.3c-5.4,2.4-9.4,5.1-12.3,8.1C17.2,20,17.2,20.1,17.1,20.1z"/>
								<path id="Trazado_717078" d="M11.7,13.9c-0.1,0-0.2,0-0.2-0.1c-2.1-3.1-5-5.5-8.4-6.9C2.9,6.8,2.8,6.6,2.9,6.5
									C3,6.3,3.1,6.3,3.3,6.3c3.5,1.5,6.5,4,8.7,7.1c0.1,0.1,0.1,0.3-0.1,0.4C11.8,13.9,11.8,13.9,11.7,13.9L11.7,13.9z"/>
							</g>
							<g id="Grupo_1084085" transform="translate(0.893 22.587)">
								<path id="Trazado_717079" class="st9" d="M0.6,19.1c0.9-1.5,2.5-2.3,4.2-2.2l8.1,0.4l0.1-1.9c0.1-2,1.4-3.8,3.3-4.5l7.5-2.8
									l5.2-4.8c2.2-2,5.1-3.1,8.1-3l25.4,1.2c-2.4,2.6-4.8,5-6.8,7.3c-1.6,1.7-3.2,3.4-4.8,5.1L40,13.3c-0.9,0-1.8,0.3-2.5,0.8
									l-8.8,7.5c-1.1,0.9-2.5,1.4-4,1.4L2.1,22c-1-0.1-1.8-0.9-1.8-2C0.3,19.7,0.4,19.4,0.6,19.1z"/>
								<g id="Grupo_1084083" transform="translate(14.823 13.824)">
									<path id="Trazado_717080" class="st9" d="M10.5,0L0,3.9L10.5,0z"/>
								</g>
								<g id="Grupo_1084084">
									<path id="Trazado_717081" d="M25.1,23.3c-0.1,0-0.2,0-0.3,0L2.1,22.3C0.9,22.2-0.1,21.2,0,20c0-0.4,0.1-0.7,0.3-1
										c0.9-1.6,2.6-2.5,4.5-2.4l7.8,0.4l0.1-1.6c0.1-2.1,1.5-4,3.5-4.8l7.5-2.7l5.2-4.8C31,1,34-0.1,37.1,0l25.4,1.2
										c0.2,0,0.3,0.1,0.3,0.3c0,0.2-0.1,0.3-0.3,0.3L37.1,0.6c-2.9-0.1-5.8,0.9-7.9,2.9l-5.2,4.8c0,0-0.1,0-0.1,0.1l-7.5,2.8
										c-1.8,0.7-3,2.3-3.1,4.3l-0.1,1.9c0,0.1-0.1,0.3-0.3,0.3c0,0,0,0,0,0l-8.1-0.4c-1.6-0.1-3.1,0.7-4,2.1
										C0.3,20,0.6,21,1.3,21.5c0.2,0.1,0.5,0.2,0.8,0.2l22.7,1.1c1.4,0.1,2.7-0.4,3.8-1.3l8.8-7.5c0.7-0.6,1.7-1,2.6-0.9
										l10.9,0.5c0.2,0,0.3,0.1,0.3,0.3c0,0.2-0.1,0.3-0.3,0.3L40,13.6c-0.8,0-1.6,0.2-2.3,0.8l-8.8,7.5
										C27.9,22.8,26.5,23.4,25.1,23.3z"/>
									<path id="Trazado_717082" d="M14.8,18c-0.2,0-0.3-0.1-0.3-0.3c0-0.1,0.1-0.2,0.2-0.3l10.5-3.9c0.1-0.1,0.3,0,0.4,0.2
										c0.1,0.1,0,0.3-0.2,0.4l0,0L14.8,18C14.9,18,14.9,18,14.8,18z"/>
								</g>
							</g>
						</g>
					</g>
				</g>
			</g>
		</g>
	</g>
</g>
</svg>
