<svg xmlns="http://www.w3.org/2000/svg" xmlns:xlink="http://www.w3.org/1999/xlink" width="610" height="480" viewBox="0 0 610 480">
  <defs>
    <clipPath id="clip-path">
      <path id="Intersección_1" data-name="Intersección 1" d="M0,31.584a31.584,31.584,0,1,1,63.168,0q0,1.052-.068,2.087A31.584,31.584,0,0,1,0,31.584Zm.276,0a31.307,31.307,0,0,0,62.548,2.068c.045-.685.068-1.38.068-2.068a31.308,31.308,0,0,0-62.615,0Z" fill="none"/>
    </clipPath>
  </defs>
  <g id="img65" transform="translate(-495 -3002.878)">
    <g id="Grupo_86574" data-name="Grupo 86574" transform="translate(513 3183.878)">
      <rect id="Rectángulo_4911" data-name="Rectángulo 4911" width="295" height="101" rx="21" transform="translate(-18 -54)" fill="#0b481e" opacity="0.2"/>
      <g id="Grupo_20709" data-name="Grupo 20709" transform="translate(32.391 -29.878)">
        <g id="Grupo_20708" data-name="Grupo 20708" transform="translate(0 0)">
          <text id="Tipos_de_biofertilizantes_" data-name="Tipos de biofertilizantes
" transform="translate(-8 13)" fill="#0b481e" font-size="16" font-family="Roboto-Regular, Roboto"><tspan x="0" y="15">Tipos de biofertilizantes</tspan><tspan x="0" y="37"></tspan></text>
        </g>
      </g>
    </g>
    <g id="Grupo_86586" data-name="Grupo 86586" transform="translate(848 3056.878)">
      <rect id="Rectángulo_4911-2" data-name="Rectángulo 4911" width="275" height="101" rx="21" transform="translate(-18 -54)" fill="#ffa686" opacity="0.2"/>
      <g id="Grupo_20709-2" data-name="Grupo 20709" transform="translate(24.391 -16.878)">
        <g id="Grupo_20708-2" data-name="Grupo 20708" transform="translate(0 0)">
          <text id="Fijadores_de_Nitrógeno_" data-name="Fijadores de Nitrógeno
" fill="#12263f" font-size="16" font-family="Roboto-Regular, Roboto"><tspan x="0" y="15">Fijadores de Nitrógeno</tspan><tspan x="0" y="37"></tspan></text>
        </g>
      </g>
    </g>
    <g id="Grupo_86587" data-name="Grupo 86587" transform="translate(848 3190.878)">
      <rect id="Rectángulo_4911-3" data-name="Rectángulo 4911" width="275" height="101" rx="21" transform="translate(-18 -54)" fill="#ffd947" opacity="0.2"/>
      <g id="Grupo_20709-3" data-name="Grupo 20709" transform="translate(24.391 -16.878)">
        <g id="Grupo_20708-3" data-name="Grupo 20708" transform="translate(0 0)">
          <text id="Solubilizadores_de_fósforo_" data-name="Solubilizadores de fósforo
" fill="#12263f" font-size="16" font-family="Roboto-Regular, Roboto"><tspan x="0" y="15">Solubilizadores de fósforo</tspan><tspan x="0" y="37"></tspan></text>
        </g>
      </g>
    </g>
    <g id="Grupo_86588" data-name="Grupo 86588" transform="translate(848 3312.878)">
      <rect id="Rectángulo_4911-4" data-name="Rectángulo 4911" width="275" height="101" rx="21" transform="translate(-18 -54)" fill="#0b481e" opacity="0.2"/>
      <g id="Grupo_20709-4" data-name="Grupo 20709" transform="translate(24.391 -16.878)">
        <g id="Grupo_20708-4" data-name="Grupo 20708" transform="translate(0 0)">
          <text id="Captadores_de_fósforo_" data-name="Captadores de fósforo
" fill="#12263f" font-size="16" font-family="Roboto-Regular, Roboto"><tspan x="0" y="15">Captadores de fósforo</tspan><tspan x="0" y="37"></tspan></text>
        </g>
      </g>
    </g>
    <g id="Grupo_86589" data-name="Grupo 86589" transform="translate(848 3435.878)">
      <rect id="Rectángulo_4911-5" data-name="Rectángulo 4911" width="275" height="101" rx="21" transform="translate(-18 -54)" fill="#adce32" opacity="0.2"/>
      <g id="Grupo_20709-5" data-name="Grupo 20709" transform="translate(24.391 -16.878)">
        <g id="Grupo_20708-5" data-name="Grupo 20708" transform="translate(0 0)">
          <text id="Promotores_de_Crecimiento_vegetal_" data-name="Promotores de Crecimiento vegetal
" fill="#12263f" font-size="16" font-family="Roboto-Regular, Roboto"><tspan x="0" y="15">Promotores de Crecimiento </tspan><tspan x="0" y="37">vegetal</tspan><tspan x="0" y="59"></tspan></text>
        </g>
      </g>
    </g>
    <line id="Línea_262" data-name="Línea 262" y2="411" transform="translate(810 3042.878)" fill="none" stroke="#707070" stroke-width="1"/>
    <line id="Línea_263" data-name="Línea 263" x2="20" transform="translate(790.5 3180.378)" fill="none" stroke="#707070" stroke-width="1"/>
    <line id="Línea_282" data-name="Línea 282" x2="20" transform="translate(810 3042.878)" fill="none" stroke="#707070" stroke-width="1"/>
    <line id="Línea_283" data-name="Línea 283" x2="20" transform="translate(810 3192.878)" fill="none" stroke="#707070" stroke-width="1"/>
    <line id="Línea_284" data-name="Línea 284" x2="20" transform="translate(810 3309.878)" fill="none" stroke="#707070" stroke-width="1"/>
    <line id="Línea_285" data-name="Línea 285" x2="20" transform="translate(810 3453.878)" fill="none" stroke="#707070" stroke-width="1"/>
    <g id="Weed_control" data-name="Weed control" transform="translate(230.947 2917.873)">
      <g id="Grupo_1084033" data-name="Grupo 1084033" transform="translate(295.412 381.012)">
        <g id="Grupo_1084032" data-name="Grupo 1084032" transform="translate(78.28)">
          <g id="Grupo_1084031" data-name="Grupo 1084031">
            <path id="Trazado_716968" data-name="Trazado 716968" d="M988.388,761.1c4.79-4.632,6.244-12.542,3.526-17.216-1.149-1.976-2.283-2.066-3.31-4.551-1.334-3.229-.173-4.9-.827-7.861-.858-3.878-4.423-8.105-7.938-8.312-4.528-.267-7.976,6.194-11.094,12.036-1.889,3.539-4.772,9.1-4.551,16.55.106,3.569.2,6.756,2.483,9.516,3.63,4.391,10.288,4.664,14.553,3.647A15.162,15.162,0,0,0,988.388,761.1Z" transform="translate(-963.905 -722.872)" fill="#fff"/>
            <path id="Trazado_716969" data-name="Trazado 716969" d="M974.914,763.639c-3.909,0-7.984-1.21-10.491-4.242-2.342-2.833-2.441-6.161-2.546-9.684-.228-7.673,2.784-13.316,4.584-16.688,3.117-5.84,6.643-12.454,11.354-12.181,3.766.222,7.339,4.672,8.192,8.528a11.888,11.888,0,0,1,.188,3.345,9.213,9.213,0,0,0,.625,4.47,7.258,7.258,0,0,0,1.794,2.629,8.908,8.908,0,0,1,1.5,1.889c2.845,4.892,1.208,12.931-3.573,17.554l-.192-.2.192.2a15.35,15.35,0,0,1-7.287,3.879A18.853,18.853,0,0,1,974.914,763.639Zm2.616-42.251c-4.233,0-7.6,6.313-10.582,11.9-1.774,3.324-4.743,8.886-4.519,16.412.106,3.574.2,6.661,2.419,9.348,3.32,4.015,9.562,4.678,14.276,3.555a14.815,14.815,0,0,0,7.031-3.738c4.613-4.46,6.206-12.189,3.479-16.879a8.428,8.428,0,0,0-1.417-1.781,7.823,7.823,0,0,1-1.909-2.8,9.8,9.8,0,0,1-.666-4.707,11.425,11.425,0,0,0-.176-3.2c-.808-3.656-4.266-7.895-7.685-8.1C977.7,721.39,977.614,721.388,977.53,721.388Z" transform="translate(-961.865 -720.835)"/>
          </g>
          <path id="Trazado_716970" data-name="Trazado 716970" d="M1078.93,881.625a.276.276,0,0,1-.276-.272l-.57-41.612a.276.276,0,0,1,.272-.28h0a.276.276,0,0,1,.276.272l.57,41.612a.276.276,0,0,1-.272.28Z" transform="translate(-1064.224 -825.314)"/>
        </g>
        <path id="Trazado_716971" data-name="Trazado 716971" d="M491.7,1151.106c-19.3,1.355-38.582,5.2-58.257,4.124-9.931-.545-19.731-2.634-29.664-3.133-24.327-1.224-47.767,7.135-69.51,17.227-5.471,2.54-10.867,5.935-16.54,7.961-2.752.982-7.28.728-9.57,2.643-6.525,5.456.493,17.562,2.879,23.526a96.285,96.285,0,0,0,13.047,23.142c28.2,36.492,88.459,58.973,142.35,35.251,46.707-20.558,68.56-67.062,65.349-107.553C518.326,1150.422,505.008,1150.172,491.7,1151.106Z" transform="translate(-305.449 -1099.394)" fill="#fff"/>
        <path id="Trazado_716972" data-name="Trazado 716972" d="M305.856,1182.09a.281.281,0,0,1-.068-.008.276.276,0,0,1-.2-.335,7.537,7.537,0,0,1,2.505-4.031c1.49-1.246,3.819-1.6,6.071-1.941a20.293,20.293,0,0,0,3.583-.75,83.181,83.181,0,0,0,10.423-4.876c1.994-1.047,4.056-2.129,6.094-3.075,18.784-8.719,43.675-18.557,69.64-17.253,5.049.254,10.141.928,15.066,1.58,4.776.633,9.716,1.286,14.6,1.554,13.08.717,26.185-.769,38.86-2.206,6.347-.719,12.91-1.464,19.362-1.917,16.159-1.135,28.55-.148,40.18,3.2a.276.276,0,0,1-.153.531c-11.565-3.328-23.9-4.308-39.989-3.178-6.441.452-13,1.2-19.339,1.915-12.7,1.44-25.826,2.928-38.952,2.209-4.906-.269-9.855-.924-14.642-1.558-4.914-.65-10-1.323-15.021-1.576-25.842-1.3-50.653,8.51-69.38,17.2-2.026.94-4.081,2.02-6.07,3.063a83.606,83.606,0,0,1-10.494,4.907,20.635,20.635,0,0,1-3.686.776c-2.177.33-4.428.671-5.8,1.818a7,7,0,0,0-2.324,3.742A.277.277,0,0,1,305.856,1182.09Z" transform="translate(-305.564 -1097.393)"/>
        <path id="Trazado_716973" data-name="Trazado 716973" d="M332.535,1333.558a.276.276,0,0,1-.055-.547c4.1-.837,8.307-1.454,12.373-2.05a164.038,164.038,0,0,0,17.282-3.175c8.13-2.1,16.279-4.657,24.16-7.127q2.556-.8,5.113-1.6l3.5-1.091c14.2-4.429,27.613-8.613,41.815-11.06a143.844,143.844,0,0,1,20.009-2.088c14.75-.474,30.414.486,50.792,3.11,4.423.57,44.811,5.08,46.9,5.08h.036a.276.276,0,0,1,.352.306c-.054.355-.053.355-7.1-.37-3.724-.383-8.986-.948-15.218-1.632-11.445-1.258-23.062-2.58-25.049-2.835-20.347-2.62-35.983-3.578-50.7-3.106a143.326,143.326,0,0,0-19.933,2.08c-14.166,2.442-27.562,6.62-41.744,11.044l-3.5,1.091q-2.557.795-5.112,1.6c-7.888,2.473-16.044,5.029-24.187,7.135a164.351,164.351,0,0,1-17.341,3.187c-4.059.6-8.256,1.211-12.343,2.045A.278.278,0,0,1,332.535,1333.558Zm221.735-20.325Zm0,0h0Zm0,0h0Zm0,0h0Zm0,0h0Zm0,0h0Zm0,0h0Zm0,0Z" transform="translate(-329.062 -1235.076)"/>
      </g>
      <g id="Grupo_1084053" data-name="Grupo 1084053" transform="translate(369.056 439.269)">
        <g id="Grupo_1084039" data-name="Grupo 1084039" transform="translate(40.32)">
          <g id="Grupo_1084035" data-name="Grupo 1084035" transform="translate(22.603 27.115)">
            <g id="Grupo_1084034" data-name="Grupo 1084034">
              <path id="Trazado_716974" data-name="Trazado 716974" d="M1454.126,1452.324c-1.454-2.6-1.274-3.819-.859-4.451.739-1.126,2.391-.651,3.123-1.874.753-1.258-.612-2.4-.1-4.012.6-1.907,3.58-3.705,5.492-2.625,1.635.924,2.066,3.713,1.093,5.153-1.079,1.6-3.458.9-4.128,2.39-.616,1.371,1.078,2.669.536,3.934C1458.968,1451.567,1457.882,1452.371,1454.126,1452.324Z" transform="translate(-1452.693 -1438.761)" fill="#fff"/>
              <path id="Trazado_716975" data-name="Trazado 716975" d="M1452.38,1450.56l-.317,0a.276.276,0,0,1-.238-.141c-1.225-2.19-1.5-3.74-.849-4.737a2.663,2.663,0,0,1,1.672-1,2.2,2.2,0,0,0,1.446-.863,2.012,2.012,0,0,0-.008-1.722,3.651,3.651,0,0,1-.123-2.231,5,5,0,0,1,2.9-2.829,3.449,3.449,0,0,1,2.99.046,3.622,3.622,0,0,1,1.617,2.373,4.159,4.159,0,0,1-.431,3.176,3.694,3.694,0,0,1-2.378,1.349c-.776.2-1.446.376-1.727,1a2.269,2.269,0,0,0,.264,1.836,2.589,2.589,0,0,1,.274,2.094C1457,1450.019,1455.329,1450.56,1452.38,1450.56Zm-.15-.553c2.732.012,4.359-.438,4.736-1.318a2.168,2.168,0,0,0-.274-1.659,2.747,2.747,0,0,1-.26-2.279c.389-.865,1.255-1.09,2.092-1.308a3.22,3.22,0,0,0,2.059-1.123,3.6,3.6,0,0,0,.352-2.74,3.075,3.075,0,0,0-1.352-2.018,2.915,2.915,0,0,0-2.515-.014,4.485,4.485,0,0,0-2.577,2.481,3.159,3.159,0,0,0,.127,1.913,2.52,2.52,0,0,1-.049,2.158,2.7,2.7,0,0,1-1.765,1.11,2.178,2.178,0,0,0-1.365.774C1450.928,1446.762,1451.194,1448.115,1452.23,1450.008Z" transform="translate(-1450.633 -1436.719)"/>
            </g>
            <path id="Trazado_716976" data-name="Trazado 716976" d="M1458.319,1482.173a.276.276,0,0,1-.261-.367c2.678-7.735,6.192-10.244,6.34-10.347a.276.276,0,0,1,.315.453c-.035.025-3.523,2.53-6.134,10.074A.277.277,0,0,1,1458.319,1482.173Z" transform="translate(-1457.159 -1467.273)"/>
          </g>
          <g id="Grupo_1084036" data-name="Grupo 1084036" transform="translate(12.828)">
            <path id="Trazado_716977" data-name="Trazado 716977" d="M1377.614,1249.127a7.914,7.914,0,0,1,1.318-4.808c1.164-1.644,2.454-1.814,2.9-3.4.42-1.5-.562-1.955-.233-3.645.391-2.012,1.936-2.151,2.334-3.808.484-2.017-1.509-3.037-2.51-5.869-1.295-3.663.852-5.321.361-8.742-.8-5.552-7.812-10.669-10.812-9.275-2.829,1.315-3.035,8.861-.749,14.343,2.437,5.844,6.212,5.76,6.761,10.644.379,3.375-1.206,5.354-.39,10.541A22.45,22.45,0,0,0,1377.614,1249.127Z" transform="translate(-1368.661 -1209.346)"/>
            <path id="Trazado_716978" data-name="Trazado 716978" d="M1407.671,1285.986a.276.276,0,0,1-.251-.161c-1.47-3.209-.876-6.71-.124-11.142a70.973,70.973,0,0,0,1.011-7.838c.479-8.041-6.246-17.78-6.314-17.877a.276.276,0,1,1,.453-.316c.069.1,6.9,10,6.412,18.227a71.628,71.628,0,0,1-1.018,7.9c-.736,4.339-1.317,7.766.082,10.82a.276.276,0,0,1-.251.391Z" transform="translate(-1397.974 -1243.86)" fill="#fff"/>
          </g>
          <g id="Grupo_1084038" data-name="Grupo 1084038" transform="translate(0 17.28)">
            <g id="Grupo_1084037" data-name="Grupo 1084037">
              <path id="Trazado_716979" data-name="Trazado 716979" d="M1283.108,1379.382a26.409,26.409,0,0,1-.556-6.566c.186-4.475,1.429-6.379.18-8.052-1.376-1.843-3.693-.609-5.334-2.8-1.119-1.5-.558-2.759-2.094-4.166a4.46,4.46,0,0,0-2.59-1.222c-1.248-.1-1.689.537-3.281,1.092-2.884,1.006-4.17-.121-5.231.938a3.48,3.48,0,0,0-.23,4.157c1.687,2.156,6.147-.354,7.821,1.69,1.429,1.746-1.035,4.543.53,6.489,1.409,1.754,4.231.506,5.388,2.342.884,1.4-.354,2.786.466,4.249C1279.032,1379.06,1281.384,1379.352,1283.108,1379.382Z" transform="translate(-1263.117 -1356.289)" fill="#fff"/>
              <path id="Trazado_716980" data-name="Trazado 716980" d="M1281.083,1377.619h0c-2.715-.047-4.454-.717-5.167-1.99a3.421,3.421,0,0,1-.245-2.291,2.7,2.7,0,0,0-.213-1.946c-.519-.825-1.461-.95-2.457-1.083a4.048,4.048,0,0,1-2.913-1.233c-.882-1.1-.6-2.444-.354-3.631.226-1.083.439-2.106-.175-2.856-.736-.9-2.135-.806-3.615-.707-1.6.106-3.266.219-4.21-.988a3.757,3.757,0,0,1,.253-4.523,2.525,2.525,0,0,1,2.134-.569,8.061,8.061,0,0,0,3.2-.434,10.921,10.921,0,0,0,1.347-.587,3.492,3.492,0,0,1,2.046-.52,4.6,4.6,0,0,1,2.756,1.294,4.443,4.443,0,0,1,1.352,2.426,4.764,4.764,0,0,0,.777,1.778,3.882,3.882,0,0,0,2.724,1.452,3.8,3.8,0,0,1,2.61,1.35c.848,1.136.647,2.343.342,4.171a31.127,31.127,0,0,0-.468,4.057,26.179,26.179,0,0,0,.55,6.5.276.276,0,0,1-.27.333Zm-13.815-16.35a3.28,3.28,0,0,1,2.714.969c.782.955.531,2.157.288,3.32s-.475,2.278.243,3.172a3.58,3.58,0,0,0,2.555,1.032c1.078.144,2.194.292,2.851,1.336a3.165,3.165,0,0,1,.293,2.315,2.9,2.9,0,0,0,.18,1.946c.582,1.038,2.044,1.609,4.35,1.7a26.7,26.7,0,0,1-.491-6.292,31.558,31.558,0,0,1,.475-4.125c.292-1.747.467-2.8-.24-3.749a3.276,3.276,0,0,0-2.277-1.139,4.438,4.438,0,0,1-3.056-1.663,5.277,5.277,0,0,1-.868-1.963,3.932,3.932,0,0,0-1.192-2.164,4.051,4.051,0,0,0-2.425-1.15,2.972,2.972,0,0,0-1.757.463,11.277,11.277,0,0,1-1.411.614,8.662,8.662,0,0,1-3.4.464c-.8-.023-1.281-.037-1.728.408a3.2,3.2,0,0,0-.208,3.792c.764.977,2.208.881,3.738.777C1266.359,1361.3,1266.821,1361.27,1267.268,1361.27Z" transform="translate(-1261.092 -1354.251)"/>
            </g>
            <path id="Trazado_716981" data-name="Trazado 716981" d="M1307.95,1406.107a.276.276,0,0,1-.169-.058c-1.492-1.153-2-3.049-2.774-5.919a57.618,57.618,0,0,0-2.688-8.1c-3.094-7.29-11.549-6.459-11.635-6.45a.276.276,0,0,1-.06-.549c.089-.011,8.947-.888,12.2,6.783a58.108,58.108,0,0,1,2.713,8.174c.743,2.762,1.233,4.586,2.578,5.626a.276.276,0,0,1-.169.495Z" transform="translate(-1286.887 -1381.328)"/>
          </g>
          <path id="Trazado_716982" data-name="Trazado 716982" d="M1425.051,1558.719l-5.494.041-.628-1.691c-.22-.593.51-1.182,1.764-1.393a12.162,12.162,0,0,1,4.926.16c.748.181,1.18.546,1.128.927l-.178.714A1.6,1.6,0,0,1,1425.051,1558.719Z" transform="translate(-1400.072 -1514.219)"/>
        </g>
        <g id="Grupo_1084045" data-name="Grupo 1084045" transform="translate(76.453 5.609)">
          <g id="Grupo_1084041" data-name="Grupo 1084041" transform="translate(0 38.212)">
            <g id="Grupo_1084040" data-name="Grupo 1084040">
              <path id="Trazado_716983" data-name="Trazado 716983" d="M1587.744,1610.425c3.352-6.126,2.935-9,1.979-10.487-1.7-2.653-5.511-1.534-7.2-4.415-1.736-2.963,1.41-5.655.24-9.453-1.384-4.493-8.25-8.73-12.657-6.185-3.769,2.177-4.761,8.748-2.52,12.142,2.488,3.767,7.969,2.122,9.513,5.632,1.42,3.229-2.486,6.288-1.235,9.27C1576.584,1608.641,1579.087,1610.536,1587.744,1610.425Z" transform="translate(-1566.126 -1578.842)" fill="#fff"/>
              <path id="Trazado_716984" data-name="Trazado 716984" d="M1584.964,1608.667c-6.632,0-10.362-1.2-11.4-3.67-.654-1.559,0-3.123.631-4.635.662-1.585,1.287-3.082.606-4.63-.718-1.633-2.34-2.064-4.218-2.563-1.861-.495-3.97-1.056-5.273-3.028a9.6,9.6,0,0,1-.928-7.241,8.151,8.151,0,0,1,3.539-5.293,7.42,7.42,0,0,1,6.489-.126c3.115,1.223,5.755,3.823,6.57,6.468a8.469,8.469,0,0,1-.286,5.037c-.439,1.57-.819,2.926.02,4.357.81,1.384,2.137,1.78,3.54,2.2a5.83,5.83,0,0,1,3.652,2.206c1.4,2.188.742,5.811-1.969,10.768a.276.276,0,0,1-.239.144C1585.454,1608.665,1585.206,1608.667,1584.964,1608.667Zm.735-.281h0Zm-14.622-31.03a5.691,5.691,0,0,0-2.875.729,7.6,7.6,0,0,0-3.278,4.942,9.038,9.038,0,0,0,.85,6.809c1.187,1.8,3.1,2.306,4.954,2.8,1.932.514,3.757,1,4.582,2.875.776,1.765.076,3.443-.6,5.065-.615,1.472-1.2,2.863-.632,4.209.954,2.275,4.8,3.389,11.458,3.328,2.543-4.692,3.187-8.077,1.912-10.063-.774-1.206-2.023-1.579-3.345-1.975-1.444-.432-2.938-.879-3.859-2.45-.957-1.634-.528-3.165-.075-4.786a7.908,7.908,0,0,0,.29-4.726c-.756-2.454-3.324-4.97-6.244-6.117A8.623,8.623,0,0,0,1571.077,1577.356Z" transform="translate(-1564.082 -1576.803)"/>
            </g>
            <path id="Trazado_716985" data-name="Trazado 716985" d="M1642.438,1683.149a.276.276,0,0,1-.262-.188c-6.068-17.919-14.192-23.863-14.273-23.921a.276.276,0,0,1,.32-.45c.083.059,8.344,6.084,14.476,24.194a.276.276,0,0,1-.173.35A.271.271,0,0,1,1642.438,1683.149Z" transform="translate(-1620.19 -1648.792)"/>
          </g>
          <g id="Grupo_1084043" data-name="Grupo 1084043" transform="translate(14.871)">
            <g id="Grupo_1084042" data-name="Grupo 1084042">
              <path id="Trazado_716986" data-name="Trazado 716986" d="M1702.15,1327.362a13.653,13.653,0,0,0-2.274-8.3c-2.009-2.837-4.234-3.129-5-5.87-.724-2.59.97-3.374.4-6.29-.676-3.472-3.341-3.711-4.028-6.571-.836-3.48,2.6-5.24,4.33-10.125,2.234-6.32-1.469-9.18-.623-15.082,1.374-9.579,13.478-18.408,18.655-16,4.881,2.269,5.237,15.288,1.292,24.745-4.2,10.082-3.737,11.88-4.684,20.306-.654,5.823-2.214,7.342-3.62,16.292C1706.123,1323.5,1702.682,1325.862,1702.15,1327.362Z" transform="translate(-1690.843 -1258.447)" fill="#fff"/>
              <path id="Trazado_716987" data-name="Trazado 716987" d="M1700.093,1325.569a.276.276,0,0,1-.276-.278,13.648,13.648,0,0,0-2.223-8.134,13,13,0,0,0-2.51-2.576,6.393,6.393,0,0,1-2.531-3.379,5.148,5.148,0,0,1,.152-3.2,5.817,5.817,0,0,0,.246-3.109,6.364,6.364,0,0,0-2.094-3.535,6.174,6.174,0,0,1-1.932-3.024c-.519-2.161.494-3.656,1.775-5.549a20.028,20.028,0,0,0,2.563-4.733c1.227-3.471.629-5.849,0-8.366a16.093,16.093,0,0,1-.632-6.663c.939-6.543,6.583-12.35,11.43-14.977,3.059-1.658,5.764-2.1,7.615-1.237,5.275,2.452,5.194,16.08,1.431,25.1-3.491,8.369-3.738,10.919-4.281,16.508-.106,1.088-.226,2.321-.383,3.723a36.2,36.2,0,0,1-1.469,6.786,67.528,67.528,0,0,0-2.153,9.518c-.31,1.973-1.8,3.645-3,4.988a7.829,7.829,0,0,0-1.465,1.952A.276.276,0,0,1,1700.093,1325.569Zm9.47-68.632a11.5,11.5,0,0,0-5.243,1.593c-4.729,2.562-10.234,8.215-11.146,14.569a15.627,15.627,0,0,0,.621,6.45c.625,2.486,1.271,5.057-.011,8.684a20.472,20.472,0,0,1-2.626,4.859c-1.253,1.85-2.158,3.186-1.7,5.11a5.646,5.646,0,0,0,1.787,2.765,6.827,6.827,0,0,1,2.243,3.818,6.363,6.363,0,0,1-.258,3.371,4.571,4.571,0,0,0-.15,2.9,5.878,5.878,0,0,0,2.353,3.1,13.468,13.468,0,0,1,2.607,2.681,13.668,13.668,0,0,1,2.308,7.471c.288-.383.656-.8,1.054-1.243,1.149-1.289,2.579-2.894,2.864-4.706a68.03,68.03,0,0,1,2.168-9.587,35.737,35.737,0,0,0,1.45-6.693c.157-1.4.277-2.629.382-3.715.532-5.474.8-8.221,4.321-16.667a36.651,36.651,0,0,0,2.643-14.95c-.217-4.978-1.6-8.418-3.8-9.438A4.428,4.428,0,0,0,1709.563,1256.936Z" transform="translate(-1688.785 -1256.377)"/>
            </g>
            <path id="Trazado_716988" data-name="Trazado 716988" d="M1758.875,1392.231a.276.276,0,0,1-.251-.391c2.439-5.326,1.432-11.265.156-18.784a123.171,123.171,0,0,1-1.754-13.6c-.842-14.131,10.908-31.149,11.027-31.319a.276.276,0,0,1,.453.316c-.118.168-11.76,17.032-10.929,30.971a122.869,122.869,0,0,0,1.747,13.545c1.291,7.613,2.312,13.626-.2,19.106A.277.277,0,0,1,1758.875,1392.231Z" transform="translate(-1748.851 -1319.471)"/>
          </g>
          <g id="Grupo_1084044" data-name="Grupo 1084044" transform="translate(27.139 30.571)">
            <path id="Trazado_716989" data-name="Trazado 716989" d="M1804.478,1552.093a57.367,57.367,0,0,0,.757-11.328c-.254-7.72-1.947-11.006-.246-13.891,1.875-3.18,5.032-1.051,7.267-4.834,1.524-2.579.76-4.759,2.854-7.187a5.733,5.733,0,0,1,3.53-2.108c1.7-.167,2.3.927,4.469,1.885,3.93,1.736,5.682-.208,7.127,1.618a7.307,7.307,0,0,1,.314,7.173c-2.3,3.72-8.376-.612-10.656,2.916-1.948,3.013,1.41,7.837-.722,11.2-1.92,3.026-5.765.875-7.341,4.042-1.2,2.422.482,4.807-.634,7.331C1810.032,1551.536,1806.826,1552.041,1804.478,1552.093Z" transform="translate(-1802.74 -1512.727)"/>
            <path id="Trazado_716990" data-name="Trazado 716990" d="M1791.935,1599.486a.276.276,0,0,1-.193-.474c1.872-1.833,2.547-5.01,3.569-9.82a119.687,119.687,0,0,1,3.688-14.07c4.4-13.128,16.417-11.618,16.539-11.6a.276.276,0,0,1-.076.547,15.2,15.2,0,0,0-6.372.8c-4.564,1.6-7.784,5.1-9.568,10.425a119.28,119.28,0,0,0-3.672,14.009c-1.042,4.907-1.731,8.149-3.723,10.1A.276.276,0,0,1,1791.935,1599.486Z" transform="translate(-1791.659 -1557.411)" fill="#fff"/>
          </g>
          <path id="Trazado_716991" data-name="Trazado 716991" d="M1726.493,1859.484l-7.75.059a3.964,3.964,0,0,1-3.751-2.6l-.244-.663c-.423-1.151.977-2.3,3.384-2.7a23.064,23.064,0,0,1,9.45.309c1.434.352,2.264,1.061,2.164,1.8l-.342,1.386A3.076,3.076,0,0,1,1726.493,1859.484Z" transform="translate(-1696.715 -1782.054)"/>
        </g>
        <g id="Grupo_1084052" data-name="Grupo 1084052" transform="translate(0 35.326)">
          <g id="Grupo_1084047" data-name="Grupo 1084047" transform="translate(0 30.595)">
            <g id="Grupo_1084046" data-name="Grupo 1084046">
              <path id="Trazado_716992" data-name="Trazado 716992" d="M942.394,1789.51c2.684-4.905,2.35-7.2,1.585-8.4-1.363-2.124-4.412-1.228-5.764-3.535-1.39-2.373,1.129-4.527.192-7.569-1.108-3.6-6.605-6.99-10.134-4.952-3.018,1.743-3.812,7-2.017,9.722,1.992,3.016,6.381,1.7,7.617,4.51,1.137,2.586-1.99,5.034-.989,7.422C933.459,1788.081,935.464,1789.6,942.394,1789.51Z" transform="translate(-925.031 -1764.167)" fill="#fff"/>
              <path id="Trazado_716993" data-name="Trazado 716993" d="M939.766,1787.75c-5.335,0-8.34-.974-9.178-2.972-.532-1.269,0-2.532.505-3.754.525-1.257,1.021-2.446.486-3.664-.564-1.283-1.851-1.625-3.341-2.021s-3.2-.851-4.254-2.447a7.743,7.743,0,0,1-.75-5.84,6.579,6.579,0,0,1,2.86-4.273,5.994,5.994,0,0,1,5.243-.1,9.065,9.065,0,0,1,5.293,5.214,6.822,6.822,0,0,1-.229,4.064c-.348,1.245-.649,2.32.011,3.446a4.224,4.224,0,0,0,2.8,1.737,4.712,4.712,0,0,1,2.955,1.789c1.137,1.771.607,4.691-1.575,8.678a.276.276,0,0,1-.239.143Q940.056,1787.75,939.766,1787.75Zm.587-.28h0Zm-11.708-24.79a4.5,4.5,0,0,0-2.275.577,6.032,6.032,0,0,0-2.6,3.921,7.18,7.18,0,0,0,.673,5.41c.938,1.421,2.462,1.826,3.935,2.218,1.56.415,3.034.807,3.705,2.333.631,1.435.065,2.789-.482,4.1-.488,1.168-.949,2.271-.506,3.327.753,1.8,3.81,2.677,9.09,2.631,2.013-3.723,2.524-6.405,1.518-7.973a4.228,4.228,0,0,0-2.648-1.558,4.713,4.713,0,0,1-3.121-1.986c-.778-1.329-.432-2.566-.066-3.875a6.288,6.288,0,0,0,.233-3.753,8.614,8.614,0,0,0-4.967-4.862A6.849,6.849,0,0,0,928.644,1762.68Z" transform="translate(-922.989 -1762.127)"/>
            </g>
            <path id="Trazado_716994" data-name="Trazado 716994" d="M985.78,1847.387a.276.276,0,0,1-.262-.188c-4.859-14.349-11.343-19.08-11.408-19.126a.276.276,0,0,1,.32-.45c.271.193,6.7,4.881,11.611,19.4a.276.276,0,0,1-.173.35A.271.271,0,0,1,985.78,1847.387Z" transform="translate(-967.912 -1819.767)"/>
          </g>
          <g id="Grupo_1084049" data-name="Grupo 1084049" transform="translate(11.91)">
            <g id="Grupo_1084048" data-name="Grupo 1084048">
              <path id="Trazado_716995" data-name="Trazado 716995" d="M1034,1562.867a10.932,10.932,0,0,0-1.821-6.642c-1.608-2.272-3.39-2.505-4-4.7-.58-2.073.777-2.7.323-5.036-.541-2.78-2.675-2.972-3.225-5.261-.669-2.786,2.084-4.2,3.467-8.107,1.789-5.06-1.177-7.35-.5-12.076,1.1-7.67,10.791-14.739,14.936-12.812,3.908,1.817,4.193,12.241,1.034,19.813-3.367,8.073-2.992,9.512-3.75,16.259-.524,4.663-1.772,5.879-2.9,13.045C1037.179,1559.776,1034.424,1561.665,1034,1562.867Z" transform="translate(-1024.891 -1507.633)" fill="#fff"/>
              <path id="Trazado_716996" data-name="Trazado 716996" d="M1031.965,1561.083a.275.275,0,0,1-.276-.278,10.875,10.875,0,0,0-1.77-6.48,10.369,10.369,0,0,0-2-2.052,5.161,5.161,0,0,1-2.044-2.733,4.168,4.168,0,0,1,.122-2.595,4.606,4.606,0,0,0,.2-2.463,4.987,4.987,0,0,0-1.662-2.8,4.987,4.987,0,0,1-1.561-2.448c-.421-1.754.437-3.02,1.429-4.486a15.973,15.973,0,0,0,2.046-3.777,10.208,10.208,0,0,0,0-6.667,12.92,12.92,0,0,1-.507-5.356c.754-5.258,5.287-9.922,9.179-12.032,2.466-1.336,4.649-1.688,6.147-.992,4.249,1.975,4.2,12.925,1.173,20.17-2.791,6.693-2.99,8.732-3.424,13.2-.085.872-.181,1.86-.307,2.983a29.03,29.03,0,0,1-1.178,5.443,53.988,53.988,0,0,0-1.722,7.614,8.536,8.536,0,0,1-2.414,4.022,6.272,6.272,0,0,0-1.162,1.545A.276.276,0,0,1,1031.965,1561.083Zm7.581-54.953a9.158,9.158,0,0,0-4.171,1.27c-3.775,2.045-8.168,6.556-8.9,11.624a12.477,12.477,0,0,0,.5,5.144,10.794,10.794,0,0,1-.01,6.985,16.436,16.436,0,0,1-2.109,3.9c-.995,1.47-1.714,2.531-1.35,4.048a4.48,4.48,0,0,0,1.417,2.188,5.582,5.582,0,0,1,1.811,3.085,5.143,5.143,0,0,1-.208,2.725,3.614,3.614,0,0,0-.119,2.289,4.662,4.662,0,0,0,1.866,2.458,9.957,9.957,0,0,1,3.948,8.018c.216-.275.476-.567.755-.879a8.129,8.129,0,0,0,2.28-3.74,54.471,54.471,0,0,1,1.738-7.683,28.578,28.578,0,0,0,1.16-5.35c.126-1.119.221-2.105.306-2.975.427-4.388.64-6.59,3.464-13.359,3.17-7.6,2.7-17.784-.9-19.456A3.493,3.493,0,0,0,1039.546,1506.13Z" transform="translate(-1022.859 -1505.573)"/>
            </g>
            <path id="Trazado_716997" data-name="Trazado 716997" d="M1079.01,1614.46a.276.276,0,0,1-.251-.391c1.946-4.249,1.141-9,.121-15.008a98.649,98.649,0,0,1-1.405-10.9c-.675-11.333,8.744-24.975,8.839-25.112a.276.276,0,1,1,.453.316c-.094.135-9.4,13.622-8.741,24.763a98.322,98.322,0,0,0,1.4,10.839c1.035,6.105,1.853,10.927-.163,15.331A.276.276,0,0,1,1079.01,1614.46Z" transform="translate(-1070.931 -1556.092)"/>
          </g>
          <g id="Grupo_1084051" data-name="Grupo 1084051" transform="translate(21.73 24.256)">
            <g id="Grupo_1084050" data-name="Grupo 1084050" transform="translate(0.981)">
              <path id="Trazado_716998" data-name="Trazado 716998" d="M1115.93,1742.8a45.916,45.916,0,0,0,.606-9.07c-.2-6.181-1.559-8.812-.2-11.123,1.5-2.546,4.029-.841,5.819-3.871,1.22-2.065.609-3.811,2.285-5.755a4.591,4.591,0,0,1,2.826-1.688c1.361-.133,1.842.742,3.579,1.509,3.146,1.39,4.549-.167,5.706,1.3a5.85,5.85,0,0,1,.251,5.743c-1.84,2.979-6.706-.49-8.532,2.335-1.559,2.413,1.129,6.275-.578,8.964-1.538,2.423-4.616.7-5.877,3.236-.965,1.939.386,3.849-.508,5.87C1120.377,1742.359,1117.81,1742.763,1115.93,1742.8Z" transform="translate(-1115.464 -1711.008)" fill="#fff"/>
              <path id="Trazado_716999" data-name="Trazado 716999" d="M1113.9,1741.041a.276.276,0,0,1-.272-.322,45.736,45.736,0,0,0,.6-9.016,54.211,54.211,0,0,0-.512-5.625c-.327-2.484-.543-4.126.353-5.646a3.93,3.93,0,0,1,2.835-1.847,4.066,4.066,0,0,0,2.984-2.025,7.813,7.813,0,0,0,.865-2.5,6.628,6.628,0,0,1,1.448-3.293,4.6,4.6,0,0,1,3.008-1.782,3.23,3.23,0,0,1,2.249.72,10.651,10.651,0,0,0,1.469.811,7.067,7.067,0,0,0,3.478.6,2.4,2.4,0,0,1,2.333.779,6.12,6.12,0,0,1,.27,6.059c-1.021,1.653-2.838,1.5-4.594,1.35-1.61-.137-3.13-.265-3.942.99-.7,1.089-.465,2.537-.212,4.071.277,1.685.565,3.426-.365,4.892a4.073,4.073,0,0,1-3.17,1.69c-1.135.191-2.115.357-2.694,1.521a4.772,4.772,0,0,0-.249,2.791,5.651,5.651,0,0,1-.254,3.068c-.769,1.738-2.662,2.652-5.626,2.718Zm11.606-31.52c-.077,0-.157,0-.24.012a4.074,4.074,0,0,0-2.644,1.593,6.094,6.094,0,0,0-1.327,3.049,8.255,8.255,0,0,1-.93,2.666,4.63,4.63,0,0,1-3.322,2.279,3.392,3.392,0,0,0-2.5,1.592c-.8,1.357-.6,2.839-.281,5.294a54.7,54.7,0,0,1,.516,5.679,46.309,46.309,0,0,1-.555,8.792c2.539-.117,4.153-.916,4.8-2.378a5.147,5.147,0,0,0,.21-2.785,5.27,5.27,0,0,1,.3-3.1c.7-1.417,1.921-1.622,3.1-1.82a3.535,3.535,0,0,0,2.795-1.441c.817-1.287.547-2.923.286-4.506s-.526-3.193.293-4.461c.991-1.534,2.751-1.385,4.452-1.24,1.663.141,3.234.274,4.077-1.09a5.571,5.571,0,0,0-.233-5.427c-.491-.622-1.015-.6-1.88-.57a7.631,7.631,0,0,1-3.722-.644,11.184,11.184,0,0,1-1.54-.849A2.96,2.96,0,0,0,1125.5,1709.521Z" transform="translate(-1113.431 -1708.969)"/>
            </g>
            <path id="Trazado_717000" data-name="Trazado 717000" d="M1105.479,1780.4a.276.276,0,0,1-.193-.473c1.487-1.456,2.026-3.994,2.842-7.835a95.917,95.917,0,0,1,2.955-11.272c3.538-10.555,13.2-9.34,13.3-9.326a.276.276,0,1,1-.076.547c-.379-.052-9.313-1.158-12.7,8.954a95.4,95.4,0,0,0-2.938,11.211c-.837,3.939-1.39,6.542-3,8.115A.275.275,0,0,1,1105.479,1780.4Z" transform="translate(-1105.203 -1746.379)"/>
          </g>
          <path id="Trazado_717001" data-name="Trazado 717001" d="M1043.47,1999.954l-9.471.067a1.175,1.175,0,0,1-1.1-.746l-.88-2.249c-.412-1.053.953-2.1,3.3-2.472a23.958,23.958,0,0,1,9.216.283c1.4.321,2.208.97,2.11,1.646l-.333,1.267A2.959,2.959,0,0,1,1043.47,1999.954Z" transform="translate(-1018.95 -1935.962)"/>
        </g>
      </g>
      <g id="Grupo_1084076" data-name="Grupo 1084076" transform="translate(294.053 352.313)">
        <g id="Grupo_1084056" data-name="Grupo 1084056" transform="translate(15.887 101.028)">
          <g id="Grupo_1084054" data-name="Grupo 1084054" transform="translate(0 81.787)">
            <path id="Trazado_717002" data-name="Trazado 717002" d="M441.38,2032.506a33.649,33.649,0,0,1-9.9-.148,2.328,2.328,0,0,1-1.8-2.953c1.107-3.689,3.049-10.7,5.933-13.845l6.613-.073.351,8.178a29,29,0,0,0,.542,4.393l.362,1.942A2.323,2.323,0,0,1,441.38,2032.506Z" transform="translate(-429.306 -2015.211)" fill="#fff"/>
            <path id="Trazado_717003" data-name="Trazado 717003" d="M434.428,2031.045a26.866,26.866,0,0,1-5.033-.456,2.6,2.6,0,0,1-2.011-3.3l.238-.8c1.132-3.805,3.025-10.174,5.756-13.154a.274.274,0,0,1,.2-.09l6.613-.073h0a.276.276,0,0,1,.276.264l.351,8.179a28.621,28.621,0,0,0,.538,4.354l.362,1.942a.25.25,0,0,1,0,.028,2.607,2.607,0,0,1-2.353,2.8l-.582.054C437.621,2030.905,436.135,2031.045,434.428,2031.045Zm-.723-17.25c-2.6,2.925-4.447,9.128-5.554,12.85l-.238.8a2.051,2.051,0,0,0,1.585,2.6,31.742,31.742,0,0,0,9.241.2l.585-.054a2.053,2.053,0,0,0,1.853-2.194l-.36-1.927a29.11,29.11,0,0,1-.547-4.432l-.34-7.911Zm5.643,16.671h0Z" transform="translate(-427.275 -2013.171)"/>
          </g>
          <path id="Trazado_717004" data-name="Trazado 717004" d="M455.334,2127.969a20.517,20.517,0,0,1-5.544-.82.276.276,0,0,1,.15-.532c5.023,1.415,8.131.5,8.162.495a.276.276,0,0,1,.162.528A10.794,10.794,0,0,1,455.334,2127.969Z" transform="translate(-446.928 -2031.292)"/>
          <g id="Grupo_1084055" data-name="Grupo 1084055" transform="translate(28.891 80.863)">
            <path id="Trazado_717005" data-name="Trazado 717005" d="M671.864,2018.644a2.263,2.263,0,0,0,1.632,2.323c3.557,1.02,11.571,3.293,13.867,3.754,2.979.6,6.715-.135,8.389-1.811s-3.252-6.127-5.613-7.775c-3.508-2.448-6.762-7.1-8.211-7.377-.926-.176-4.242.578-6.513,1.146a3.657,3.657,0,0,0-2.715,2.894A61.017,61.017,0,0,0,671.864,2018.644Z" transform="translate(-671.583 -2007.457)" fill="#fff"/>
            <path id="Trazado_717006" data-name="Trazado 717006" d="M687.486,2023.173a11.3,11.3,0,0,1-2.217-.212c-2.319-.466-10.485-2.784-13.888-3.76a2.553,2.553,0,0,1-1.831-2.607,61.549,61.549,0,0,1,.84-6.877,3.942,3.942,0,0,1,2.92-3.113c3.635-.908,5.867-1.294,6.632-1.149.813.154,2,1.4,3.493,2.966a34.32,34.32,0,0,0,4.824,4.456c1.894,1.322,5.868,4.766,6.064,6.975a1.466,1.466,0,0,1-.413,1.222C692.6,2022.381,690.039,2023.173,687.486,2023.173Zm-7.945-17.2a34.589,34.589,0,0,0-6.1,1.164,3.389,3.389,0,0,0-2.51,2.676,60.966,60.966,0,0,0-.832,6.815,2,2,0,0,0,1.432,2.041c3.4.973,11.546,3.287,13.845,3.749,2.991.6,6.567-.162,8.14-1.736a.927.927,0,0,0,.254-.783c-.167-1.884-3.879-5.209-5.83-6.57a34.728,34.728,0,0,1-4.908-4.528c-1.315-1.38-2.557-2.683-3.2-2.8A1.64,1.64,0,0,0,679.541,2005.976Zm-9.715,10.636h0Z" transform="translate(-669.544 -2005.425)"/>
          </g>
          <path id="Trazado_717007" data-name="Trazado 717007" d="M713.217,2095.461c-5.309,0-13.29-2.916-13.712-3.072a.276.276,0,0,1,.191-.518c.127.047,12.8,4.681,16.655,2.426a.276.276,0,0,1,.279.477A6.932,6.932,0,0,1,713.217,2095.461Z" transform="translate(-666.882 -2000.684)"/>
          <path id="Trazado_717008" data-name="Trazado 717008" d="M455.248,1327.345s-3.71,35.007-5.336,47.074,1.388,35,1.388,35l9.69-.021s.761-20.721,1.813-29.791a21.267,21.267,0,0,1,1.807-6.422,68.986,68.986,0,0,0,4.821-13.862,133.421,133.421,0,0,1,4.7-15.7.866.866,0,0,1,1.682.29c.045,14.819,1.414,61.164,1.476,65.268,0,0,7.2,1.433,10.007-.139,0,0,5.093-25.628,5.029-38.1s2.253-43.336,2.253-43.336Z" transform="translate(-446.788 -1327.345)"/>
          <path id="Trazado_717009" data-name="Trazado 717009" d="M506.157,1729.032a4.8,4.8,0,0,1-2.613-.77.276.276,0,0,1,.3-.463,4.256,4.256,0,0,0,3.742.433.276.276,0,1,1,.187.519A4.765,4.765,0,0,1,506.157,1729.032Z" transform="translate(-494.338 -1680.004)" fill="#fff"/>
          <path id="Trazado_717010" data-name="Trazado 717010" d="M508.618,1403.889a.276.276,0,0,1-.028-.551,4.558,4.558,0,0,0,3.963-3.9.276.276,0,1,1,.541.109,5.094,5.094,0,0,1-4.446,4.341Z" transform="translate(-498.675 -1390.645)" fill="#fff"/>
          <path id="Trazado_717011" data-name="Trazado 717011" d="M717.415,1774.786H717.4a.276.276,0,0,1-.256-.294c.4-5.784,7.28-15.849,7.572-16.274a.276.276,0,1,1,.455.313c-.071.1-7.089,10.366-7.477,16A.276.276,0,0,1,717.415,1774.786Z" transform="translate(-682.571 -1706.729)" fill="#fff"/>
        </g>
        <g id="Grupo_1084057" data-name="Grupo 1084057" transform="translate(3.945 18.285)">
          <path id="Rectángulo_361676" data-name="Rectángulo 361676" d="M18.4,0h0a18.4,18.4,0,0,1,18.4,18.4V70.08a7.412,7.412,0,0,1-7.412,7.412H7.412A7.412,7.412,0,0,1,0,70.08V18.4A18.4,18.4,0,0,1,18.4,0Z" transform="translate(0 3.175) rotate(-4.951)"/>
          <path id="Trazado_717012" data-name="Trazado 717012" d="M381.716,749.614a.276.276,0,0,1-.275-.253l-4.046-47.5c-.329-3.8.378-6.606,2.161-8.576,2.023-2.234,5.384-3.351,10.274-3.413a.271.271,0,0,1,.28.273.276.276,0,0,1-.273.28c-4.728.06-7.957,1.116-9.872,3.231-1.675,1.849-2.335,4.518-2.02,8.158l4.046,47.5a.276.276,0,0,1-.252.3Z" transform="translate(-371.332 -683.152)" fill="#fff"/>
        </g>
        <g id="Grupo_1084069" data-name="Grupo 1084069" transform="translate(0 31.501)">
          <g id="Grupo_1084058" data-name="Grupo 1084058" transform="translate(62.156 67.276)">
            <path id="Trazado_717013" data-name="Trazado 717013" d="M820.687,1310.786l2.821,3.034s7.418-.575,8.576,1.5a1.58,1.58,0,0,1,.06,1.235c-.7,1.44-3.168,3.145-2.28,4.125,1.386,1.53,2.918,3.208,3.216,3.486a1.028,1.028,0,0,1-.31,1.862,7.088,7.088,0,0,1-5.541.124c-3.558-1.692-6.249-7.142-7.579-8.993a24.182,24.182,0,0,0-2.071-1.57Z" transform="translate(-817.302 -1310.51)" fill="#fff"/>
            <path id="Trazado_717014" data-name="Trazado 717014" d="M827.611,1324.9a5.879,5.879,0,0,1-2.541-.545c-2.872-1.366-5.153-5.052-6.662-7.491-.4-.645-.744-1.2-1.022-1.589a22.219,22.219,0,0,0-2.005-1.505.276.276,0,0,1-.074-.377l3.109-4.8a.276.276,0,0,1,.434-.038l2.731,2.937c1.224-.086,7.548-.423,8.7,1.649a1.839,1.839,0,0,1,.068,1.491,8.549,8.549,0,0,1-1.247,1.675c-.728.835-1.48,1.7-1.077,2.144,2.346,2.59,3.035,3.316,3.2,3.469a1.45,1.45,0,0,1,.535,1.312,1.4,1.4,0,0,1-.929,1.008A8.819,8.819,0,0,1,827.611,1324.9Zm-11.7-11.431a16.6,16.6,0,0,1,1.919,1.483c.289.4.639.967,1.043,1.621,1.475,2.384,3.705,5.987,6.43,7.283a6.876,6.876,0,0,0,5.318-.13.877.877,0,0,0,.6-.6.928.928,0,0,0-.369-.809c-.251-.233-1.338-1.412-3.232-3.5-.733-.809.184-1.861,1.07-2.878a8.223,8.223,0,0,0,1.167-1.553,1.319,1.319,0,0,0-.053-.98c-.879-1.574-6.3-1.514-8.313-1.358a.271.271,0,0,1-.224-.087l-2.58-2.775Z" transform="translate(-815.262 -1308.468)"/>
          </g>
          <g id="Grupo_1084059" data-name="Grupo 1084059" transform="translate(18.166 0.044)">
            <path id="Trazado_717015" data-name="Trazado 717015" d="M499.845,764.712a17.64,17.64,0,0,0-.964-5.585c-1.266-3.715-2.375-6.63-4.043-7.736-8.433-5.587-23.375-5.756-35.187-1.435-12.269,4.489-10.923,25.137-10.923,25.137l7.186-.578-3.689,46.773c20.877,4.974,42.734,1.608,42.734,1.608a35.674,35.674,0,0,0,.6-3.552l2.636-3.475C498.923,803.882,500.794,775.048,499.845,764.712Z" transform="translate(-448.411 -746.667)" fill="#fff"/>
            <path id="Trazado_717016" data-name="Trazado 717016" d="M475.577,822.3a111.736,111.736,0,0,1-25.439-2.715.276.276,0,0,1-.211-.29l3.663-46.45-6.863.552a.276.276,0,0,1-.3-.257,45.963,45.963,0,0,1,.866-10.96c1.587-7.586,5.127-12.585,10.238-14.455,12.4-4.538,27.3-3.922,35.435,1.464,1.756,1.164,2.873,4.126,4.152,7.877a17.928,17.928,0,0,1,.979,5.66c.89,9.732-.727,36.112-1.5,48.793l-.146,2.4a.275.275,0,0,1-.056.15l-2.592,3.416c-.18,1.417-.38,2.6-.593,3.507a.276.276,0,0,1-.227.21A128.585,128.585,0,0,1,475.577,822.3ZM450.5,819.1c19.506,4.588,40.052,1.882,42.213,1.576.2-.881.382-2,.551-3.34a.277.277,0,0,1,.054-.132L495.9,813.8l.141-2.312c.777-12.672,2.393-39.041,1.505-48.72a.219.219,0,0,1,0-.024,17.37,17.37,0,0,0-.949-5.5c-1.2-3.524-2.326-6.529-3.934-7.594-7.995-5.3-22.689-5.888-34.94-1.406-11.168,4.085-10.853,22.106-10.755,24.579l6.9-.555a.276.276,0,0,1,.3.3ZM496.17,813.9h0Z" transform="translate(-446.387 -744.697)"/>
          </g>
          <path id="Trazado_717017" data-name="Trazado 717017" d="M475.577,821.974a111.76,111.76,0,0,1-25.439-2.715.276.276,0,0,1-.211-.291l3.663-46.45-6.863.552a.276.276,0,0,1-.3-.257,45.963,45.963,0,0,1,.866-10.96c1.587-7.586,5.127-12.585,10.238-14.455,11.689-4.276,28.995-4.606,36.572,2.318.859.785,2.994,6.758,3.808,10.652,1.363,6.525-1.526,50.523-1.65,52.393a.28.28,0,0,1-.294.257.276.276,0,0,1-.257-.294c.03-.457,3.008-45.791,1.66-52.243-.882-4.223-3-9.774-3.64-10.357-7.424-6.785-24.472-6.429-36.009-2.207C446.554,752,446.869,770.024,446.967,772.5l6.9-.555a.276.276,0,0,1,.3.3l-3.67,46.537c19.506,4.588,40.052,1.882,42.213,1.576,1.959-8.752,1.885-37.216,1.85-42.869-.006-.32-.133-7.971.744-11.753a.276.276,0,1,1,.538.125c-.862,3.715-.731,11.543-.729,11.621.05,8.016.059,34.809-1.906,43.185a.276.276,0,0,1-.227.21A128.58,128.58,0,0,1,475.577,821.974Z" transform="translate(-428.221 -744.324)"/>
          <path id="Trazado_717018" data-name="Trazado 717018" d="M484.074,814.215a.276.276,0,0,1-.109-.53c7.307-3.124,10.862-12.281,12.33-17.461,2.143-7.559,2.5-15.951.888-20.883-3.074-9.4-10.667-7.264-10.989-7.169a.276.276,0,0,1-.158-.529c.084-.025,8.428-2.4,11.672,7.527,1.643,5.027,1.289,13.548-.881,21.2-1.5,5.275-5.126,14.6-12.644,17.819A.277.277,0,0,1,484.074,814.215Z" transform="translate(-461.17 -764.627)"/>
          <path id="Trazado_717019" data-name="Trazado 717019" d="M757.21,776.957a.276.276,0,0,1-.276-.276l0-.825c.013-4.122.029-9.251-2.851-15.246-4.577-9.528-7.89-9.471-7.92-9.479a.276.276,0,0,1-.027-.552c.151-.007,3.709-.065,8.444,9.792,2.935,6.108,2.919,11.308,2.906,15.486l0,.824A.276.276,0,0,1,757.21,776.957Z" transform="translate(-691.994 -749.833)"/>
          <path id="Trazado_717020" data-name="Trazado 717020" d="M302.522,1181.983a7.409,7.409,0,0,1-5.072-1.7c-3.479-3.065-3.429-9.654-3.388-14.948.052-6.806,3.469-12.465,8.918-14.768a.276.276,0,0,1,.215.509c-5.242,2.215-8.53,7.68-8.581,14.263-.04,5.182-.089,11.63,3.2,14.529,1.529,1.348,3.625,1.821,6.407,1.445,7.875-1.061,6.684-12.342,6.671-12.455a.276.276,0,0,1,.549-.062c.013.119,1.259,11.932-7.146,13.065A13.3,13.3,0,0,1,302.522,1181.983Z" transform="translate(-294.053 -1102.1)"/>
          <path id="Trazado_717021" data-name="Trazado 717021" d="M367.773,1130.381a.276.276,0,0,1-.108-.53c.224-.095.45-.183.673-.264l7.011-2.546a.276.276,0,0,1,.189.519l-7.011,2.546q-.329.119-.647.254A.275.275,0,0,1,367.773,1130.381Z" transform="translate(-358.738 -1081.386)" fill="#fff"/>
          <g id="Grupo_1084060" data-name="Grupo 1084060" transform="translate(44.194 58.728)">
            <path id="Trazado_717022" data-name="Trazado 717022" d="M668.836,1239.107c-.76.015-1.664.3-1.849,1.033-.166.663.35,1.291.858,1.749,1.338,1.206,7.361,5.585,6.8,1.283C674.309,1240.639,671.15,1239.063,668.836,1239.107Z" transform="translate(-666.679 -1238.83)" fill="#fff"/>
            <path id="Trazado_717023" data-name="Trazado 717023" d="M671.537,1243.255c-1.93,0-5.253-2.6-5.916-3.2-.783-.706-1.1-1.386-.941-2.021.223-.89,1.237-1.225,2.112-1.242h.11c2.582,0,5.638,1.743,5.975,4.307.136,1.034-.082,1.71-.648,2.007A1.481,1.481,0,0,1,671.537,1243.255Zm-4.734-5.912c-.64.012-1.439.235-1.587.824-.106.421.155.918.775,1.477,1.219,1.1,4.788,3.6,5.98,2.97.339-.178.46-.665.357-1.446-.319-2.43-3.439-3.872-5.526-3.825Zm-.005-.276h0Z" transform="translate(-664.64 -1236.79)"/>
          </g>
          <g id="Grupo_1084067" data-name="Grupo 1084067" transform="translate(19.163 43.149)">
            <g id="Grupo_1084066" data-name="Grupo 1084066" transform="translate(105.149 68.384)">
              <g id="Grupo_1084061" data-name="Grupo 1084061" transform="translate(3.242)">
                <path id="Trazado_717024" data-name="Trazado 717024" d="M1365.375,1680.958a.274.274,0,0,1-.137-.037l-1.437-.823a.276.276,0,0,1,.275-.479l1.438.824a.276.276,0,0,1-.138.516Z" transform="translate(-1363.661 -1679.582)"/>
                <path id="Trazado_717025" data-name="Trazado 717025" d="M1429.393,1717.643a.276.276,0,0,1-.137-.037l-2.755-1.578a.276.276,0,0,1,.275-.479l2.755,1.579a.276.276,0,0,1-.137.516Zm-5.51-3.157a.274.274,0,0,1-.137-.037l-2.754-1.578a.276.276,0,1,1,.275-.479l2.754,1.578a.276.276,0,0,1-.138.516Zm-5.509-3.157a.274.274,0,0,1-.137-.037l-2.755-1.579a.276.276,0,1,1,.275-.479l2.755,1.579a.276.276,0,0,1-.138.516Zm-5.509-3.157a.274.274,0,0,1-.137-.037l-2.755-1.578a.276.276,0,1,1,.275-.479l2.755,1.578a.276.276,0,0,1-.137.516Zm-5.51-3.157a.273.273,0,0,1-.137-.037l-2.754-1.578a.276.276,0,0,1,.275-.479l2.754,1.578a.276.276,0,0,1-.138.516Zm-5.509-3.157a.273.273,0,0,1-.137-.037l-2.755-1.578a.276.276,0,0,1,.275-.479l2.755,1.579a.276.276,0,0,1-.138.516Z" transform="translate(-1394.623 -1697.324)"/>
                <path id="Trazado_717026" data-name="Trazado 717026" d="M1677.721,1859.942a.276.276,0,0,1-.137-.036l-1.438-.824a.276.276,0,1,1,.275-.479l1.438.824a.276.276,0,0,1-.137.516Z" transform="translate(-1638.759 -1837.221)"/>
              </g>
              <g id="Grupo_1084062" data-name="Grupo 1084062" transform="translate(2.279 2.291)">
                <path id="Trazado_717027" data-name="Trazado 717027" d="M1357.269,1700.227a.275.275,0,0,1-.146-.042l-1.406-.877a.276.276,0,0,1,.292-.469l1.406.877a.276.276,0,0,1-.146.511Z" transform="translate(-1355.587 -1698.797)"/>
                <path id="Trazado_717028" data-name="Trazado 717028" d="M1423.679,1741.684a.275.275,0,0,1-.146-.042l-2.89-1.8a.276.276,0,1,1,.292-.469l2.89,1.8a.276.276,0,0,1-.146.51Zm-5.781-3.608a.277.277,0,0,1-.146-.042l-2.89-1.8a.276.276,0,0,1,.292-.469l2.89,1.8a.276.276,0,0,1-.146.511Zm-5.78-3.609a.276.276,0,0,1-.146-.042l-2.89-1.8a.276.276,0,0,1,.292-.469l2.89,1.8a.276.276,0,0,1-.146.511Zm-5.781-3.608a.275.275,0,0,1-.146-.042l-2.89-1.8a.276.276,0,0,1,.292-.469l2.89,1.8a.276.276,0,0,1-.146.51Zm-5.78-3.609a.273.273,0,0,1-.146-.042l-2.89-1.8a.276.276,0,1,1,.292-.469l2.89,1.8a.276.276,0,0,1-.146.51Zm-5.781-3.608a.275.275,0,0,1-.146-.042l-2.89-1.8a.276.276,0,0,1,.292-.469l2.89,1.8a.276.276,0,0,1-.146.511Z" transform="translate(-1387.314 -1718.603)"/>
                <path id="Trazado_717029" data-name="Trazado 717029" d="M1684.126,1904.266a.276.276,0,0,1-.146-.042l-1.406-.878a.276.276,0,0,1,.292-.469l1.406.878a.276.276,0,0,1-.146.51Z" transform="translate(-1643.465 -1878.504)"/>
              </g>
              <g id="Grupo_1084063" data-name="Grupo 1084063" transform="translate(0.814 5.225)">
                <path id="Trazado_717030" data-name="Trazado 717030" d="M1344.859,1725a.276.276,0,0,1-.175-.063l-1.282-1.049a.276.276,0,1,1,.35-.427l1.282,1.049a.276.276,0,0,1-.175.49Z" transform="translate(-1343.301 -1723.396)"/>
                <path id="Trazado_717031" data-name="Trazado 717031" d="M1405.507,1774.629a.274.274,0,0,1-.175-.062l-2.64-2.16a.276.276,0,0,1,.349-.428l2.64,2.161a.276.276,0,0,1-.175.49Zm-5.28-4.321a.276.276,0,0,1-.175-.062l-2.64-2.161a.276.276,0,0,1,.35-.427l2.64,2.161a.276.276,0,0,1-.175.49Zm-5.28-4.321a.276.276,0,0,1-.175-.063l-2.64-2.16a.276.276,0,0,1,.35-.427l2.64,2.16a.276.276,0,0,1-.175.49Zm-5.28-4.321a.277.277,0,0,1-.175-.062l-2.64-2.16a.276.276,0,1,1,.35-.427l2.64,2.16a.276.276,0,0,1-.175.49Zm-5.28-4.321a.275.275,0,0,1-.174-.062l-2.64-2.16a.276.276,0,1,1,.349-.427l2.64,2.16a.276.276,0,0,1-.175.49Zm-5.28-4.321a.273.273,0,0,1-.174-.063l-2.64-2.16a.276.276,0,0,1,.349-.428l2.64,2.161a.276.276,0,0,1-.175.49Z" transform="translate(-1372.269 -1747.103)"/>
                <path id="Trazado_717032" data-name="Trazado 717032" d="M1643.4,1969.306a.276.276,0,0,1-.175-.062l-1.282-1.049a.276.276,0,0,1,.35-.427l1.282,1.049a.276.276,0,0,1-.175.49Z" transform="translate(-1606.242 -1938.569)"/>
              </g>
              <g id="Grupo_1084064" data-name="Grupo 1084064" transform="translate(0.419 5.439)">
                <path id="Trazado_717033" data-name="Trazado 717033" d="M1341.457,1726.894a.274.274,0,0,1-.192-.077l-1.193-1.15a.276.276,0,0,1,.384-.4l1.193,1.15a.276.276,0,0,1-.192.475Z" transform="translate(-1339.987 -1725.192)"/>
                <path id="Trazado_717034" data-name="Trazado 717034" d="M1397.365,1780.76a.273.273,0,0,1-.192-.077l-2.429-2.341a.276.276,0,1,1,.383-.4l2.429,2.341a.276.276,0,0,1-.192.475Zm-4.859-4.681a.274.274,0,0,1-.192-.077l-2.429-2.341a.276.276,0,0,1,.383-.4l2.429,2.341a.276.276,0,0,1-.191.475Zm-4.859-4.681a.275.275,0,0,1-.192-.077l-2.429-2.341a.276.276,0,1,1,.383-.4l2.429,2.341a.276.276,0,0,1-.191.475Zm-4.859-4.682a.274.274,0,0,1-.192-.077l-2.429-2.341a.276.276,0,1,1,.383-.4l2.429,2.341a.276.276,0,0,1-.191.475Zm-4.859-4.682a.274.274,0,0,1-.192-.077l-2.429-2.34a.276.276,0,1,1,.383-.4l2.429,2.34a.276.276,0,0,1-.191.475Zm-4.859-4.681a.274.274,0,0,1-.192-.077l-2.429-2.341a.276.276,0,0,1,.383-.4l2.429,2.341a.276.276,0,0,1-.191.475Z" transform="translate(-1366.742 -1750.969)"/>
                <path id="Trazado_717035" data-name="Trazado 717035" d="M1616.3,1991.7a.275.275,0,0,1-.191-.077l-1.193-1.15a.276.276,0,1,1,.383-.4l1.193,1.15a.276.276,0,0,1-.191.475Z" transform="translate(-1582.058 -1958.415)"/>
              </g>
              <g id="Grupo_1084065" data-name="Grupo 1084065" transform="translate(0 6.262)">
                <path id="Trazado_717036" data-name="Trazado 717036" d="M1574.073,2015.484a.275.275,0,0,1-.212-.1l-1.065-1.27a.276.276,0,0,1,.423-.355l1.065,1.27a.276.276,0,0,1-.211.454Z" transform="translate(-1544.557 -1980.084)"/>
                <path id="Trazado_717037" data-name="Trazado 717037" d="M1386.11,1791.466a.275.275,0,0,1-.212-.1l-2.085-2.485a.276.276,0,1,1,.423-.355l2.085,2.485a.276.276,0,0,1-.211.454Zm-4.171-4.971a.275.275,0,0,1-.212-.1l-2.085-2.485a.276.276,0,0,1,.423-.355l2.085,2.485a.276.276,0,0,1-.211.454Zm-4.171-4.971a.276.276,0,0,1-.212-.1l-2.085-2.486a.276.276,0,0,1,.423-.355l2.085,2.485a.276.276,0,0,1-.211.454Zm-4.17-4.971a.275.275,0,0,1-.212-.1l-2.085-2.485a.276.276,0,0,1,.423-.355l2.085,2.485a.276.276,0,0,1-.211.454Zm-4.171-4.971a.275.275,0,0,1-.212-.1l-2.085-2.485a.276.276,0,1,1,.423-.355l2.085,2.485a.276.276,0,0,1-.211.453Zm-4.171-4.971a.275.275,0,0,1-.212-.1l-2.085-2.485a.276.276,0,0,1,.423-.355l2.085,2.485a.276.276,0,0,1-.211.454Z" transform="translate(-1359.745 -1759.821)"/>
                <path id="Trazado_717038" data-name="Trazado 717038" d="M1337.645,1734.038a.276.276,0,0,1-.233-.128l-.891-1.4a.276.276,0,0,1,.444-.326l1.065,1.269a.276.276,0,0,1-.148.446.276.276,0,0,1-.237.135Z" transform="translate(-1336.477 -1732.089)"/>
                <path id="Trazado_717039" data-name="Trazado 717039" d="M1376.124,1794.346a.276.276,0,0,1-.233-.128l-1.645-2.579a.276.276,0,1,1,.465-.3l1.645,2.579a.276.276,0,0,1-.233.425Zm-3.29-5.158a.276.276,0,0,1-.233-.127l-1.645-2.579a.276.276,0,1,1,.465-.3l1.645,2.579a.276.276,0,0,1-.233.425Zm-3.291-5.158a.276.276,0,0,1-.233-.127l-1.645-2.579a.276.276,0,1,1,.465-.3l1.645,2.579a.276.276,0,0,1-.232.425Zm-3.29-5.158a.276.276,0,0,1-.233-.128l-1.645-2.579a.276.276,0,1,1,.465-.3l1.645,2.579a.276.276,0,0,1-.233.425Zm-3.29-5.158a.275.275,0,0,1-.233-.128l-1.646-2.579a.276.276,0,1,1,.465-.3l1.646,2.579a.276.276,0,0,1-.233.425Zm-3.291-5.158a.276.276,0,0,1-.233-.127l-1.645-2.579a.276.276,0,1,1,.466-.3l1.645,2.579a.276.276,0,0,1-.232.425Z" transform="translate(-1355.213 -1761.45)"/>
                <path id="Trazado_717040" data-name="Trazado 717040" d="M1524.47,2026.876a.275.275,0,0,1-.233-.128l-.891-1.4a.276.276,0,0,1,.465-.3l.891,1.4a.276.276,0,0,1-.233.425Z" transform="translate(-1501.022 -1990.005)"/>
              </g>
              <path id="Trazado_717041" data-name="Trazado 717041" d="M1382.874,1733.188a.273.273,0,0,1-.158-.05l-2.713-1.9a.276.276,0,0,1,.317-.452l2.713,1.9a.276.276,0,0,1-.159.5Zm-5.427-3.806a.274.274,0,0,1-.158-.05l-2.713-1.9a.276.276,0,1,1,.317-.452l2.713,1.9a.276.276,0,0,1-.159.5Zm-5.426-3.806a.276.276,0,0,1-.159-.05l-2.713-1.9a.276.276,0,1,1,.317-.452l2.713,1.9a.276.276,0,0,1-.159.5Zm-5.426-3.806a.274.274,0,0,1-.158-.05l-2.713-1.9a.276.276,0,0,1,.317-.452l2.713,1.9a.276.276,0,0,1-.159.5Zm-5.427-3.806a.274.274,0,0,1-.158-.05l-2.713-1.9a.276.276,0,1,1,.317-.452l2.713,1.9a.276.276,0,0,1-.159.5Zm-5.427-3.806a.275.275,0,0,1-.158-.05l-2.713-1.9a.276.276,0,1,1,.317-.452l2.713,1.9a.276.276,0,0,1-.159.5Zm-5.426-3.806a.275.275,0,0,1-.158-.05l-2.713-1.9a.276.276,0,1,1,.317-.452l2.713,1.9a.276.276,0,0,1-.159.5Zm-5.426-3.806a.273.273,0,0,1-.158-.05l-2.541-1.782a.276.276,0,0,1,.317-.452l2.541,1.782a.276.276,0,0,1-.159.5Z" transform="translate(-1341.405 -1701.272)"/>
            </g>
            <rect id="Rectángulo_361677" data-name="Rectángulo 361677" width="3.126" height="119.703" transform="translate(0 2.607) rotate(-56.51)"/>
            <path id="Trazado_717042" data-name="Trazado 717042" d="M1302.916,1661.316l-11.264-2.578-1.725,2.607,6.552,8.79Z" transform="translate(-1190.329 -1592.84)"/>
            <path id="Trazado_717043" data-name="Trazado 717043" d="M1320.806,1677.409a.277.277,0,0,1-.105-.021l-5.916-2.44a.276.276,0,0,1,.21-.511l5.915,2.44a.276.276,0,0,1-.105.531Z" transform="translate(-1212.073 -1606.649)" fill="#fff"/>
          </g>
          <g id="Grupo_1084068" data-name="Grupo 1084068" transform="translate(34.906 55.438)">
            <path id="Trazado_717044" data-name="Trazado 717044" d="M590.466,1214.487c1.465.437,4.333.5,5.194-.764a5.007,5.007,0,0,1,3.555-2.189.927.927,0,0,1,.559.059c-.03,1.668-1.2,3.141-1.095,4.929a5.283,5.283,0,0,0,1.05,2.983c.463.579,4.335,1.967,4.363,2.51.124,2.438-7.771-.162-8.7-.353-.631-.129-3.877-1.679-6.318-2.333Z" transform="translate(-588.793 -1211.24)" fill="#fff"/>
            <path id="Trazado_717045" data-name="Trazado 717045" d="M600.24,1221.287a26.658,26.658,0,0,1-6.172-1.188c-.363-.1-.65-.181-.775-.206a15.152,15.152,0,0,1-1.71-.649,41.547,41.547,0,0,0-4.624-1.688.277.277,0,0,1-.194-.344l1.4-4.842a.276.276,0,0,1,.344-.188c1.5.449,4.156.417,4.887-.655a5.319,5.319,0,0,1,3.744-2.308,1.213,1.213,0,0,1,.717.084.276.276,0,0,1,.157.254,7.462,7.462,0,0,1-.555,2.346,6.591,6.591,0,0,0-.54,2.563,4.994,4.994,0,0,0,.99,2.826,10.222,10.222,0,0,0,1.949,1.051c1.778.838,2.452,1.195,2.473,1.618a1.057,1.057,0,0,1-.4.917A2.753,2.753,0,0,1,600.24,1221.287Zm-12.867-4.189a45.118,45.118,0,0,1,4.42,1.635,16.806,16.806,0,0,0,1.61.618c.144.029.424.107.812.215,1.72.478,6.288,1.746,7.371.88a.5.5,0,0,0,.192-.426,10.768,10.768,0,0,0-2.158-1.178,7.935,7.935,0,0,1-2.145-1.205,5.548,5.548,0,0,1-1.111-3.14,7.014,7.014,0,0,1,.571-2.779,7.734,7.734,0,0,0,.514-1.963.916.916,0,0,0-.234.011,4.717,4.717,0,0,0-3.366,2.072c-.933,1.371-3.752,1.3-5.232.945Zm14.415,2.939Z" transform="translate(-586.754 -1209.201)"/>
          </g>
          <path id="Trazado_717046" data-name="Trazado 717046" d="M452.91,957.4c-7.5,1.078-18.573-14.527-19.063-18.367-.383-3,2.144-23.56,2.144-23.56l13.24-2.207s-4.27,20.641-3.678,21.332c2.207,2.575,4.046,12.137,9.379,16.734Z" transform="translate(-417.142 -893.121)" fill="#fff"/>
          <path id="Trazado_717047" data-name="Trazado 717047" d="M450.157,946.524c-1.963,0-4.223-.965-6.734-2.876-5.795-4.411-11.476-12.959-11.836-15.786-.336-2.633,1.875-22.925,2.374-27.076a.276.276,0,1,1,.548.066c-.5,4.139-2.7,24.358-2.374,26.941.349,2.741,5.926,11.08,11.623,15.416,2.663,2.027,5,2.946,6.959,2.734l1.91-5.73c-3.341-2.965-5.281-7.776-6.843-11.652a21.485,21.485,0,0,0-2.425-4.99c-.176-.206-.542-.633,2.469-15.873a.276.276,0,1,1,.542.107c-2.6,13.171-2.636,15.147-2.569,15.433a22,22,0,0,1,2.5,5.115c1.562,3.874,3.506,8.7,6.831,11.562a.276.276,0,0,1,.082.3l-2.023,6.069a.277.277,0,0,1-.223.186A5.707,5.707,0,0,1,450.157,946.524ZM443.8,923.256h0Z" transform="translate(-415.154 -881.912)"/>
        </g>
        <g id="Grupo_1084072" data-name="Grupo 1084072" transform="translate(32.547 3.919)">
          <g id="Grupo_1084070" data-name="Grupo 1084070" transform="translate(2.088)">
            <path id="Trazado_717048" data-name="Trazado 717048" d="M594.383,533.7a5.676,5.676,0,0,1-3.036.041,6.522,6.522,0,0,1-3.8-3.5c-1.176-2.418-1.211-5.965.616-7.636,1.315-1.2,2.45-.386,3.954-1.724,1.707-1.519.7-3.294,2.256-4.61,1.791-1.515,4.811-.7,5.353-.548,1.863.506,1.879,1.489,3.669,1.838,1.827.356.157,1.588,1.827,1.951,1.326.288,4.89.613,5.413,2.338.657,2.165-.664,3.027-2.251,4.076-1.905,1.26-2.8.156-5.261.979C598.865,528.337,598.863,532.572,594.383,533.7Z" transform="translate(-586.454 -515.095)"/>
            <path id="Trazado_717049" data-name="Trazado 717049" d="M590.735,532.149a5.2,5.2,0,0,1-1.433-.195,6.57,6.57,0,0,1-3.97-3.643c-1.188-2.443-1.267-6.182.677-7.961a3.51,3.51,0,0,1,2-.871,3.457,3.457,0,0,0,1.96-.855,3.555,3.555,0,0,0,1.107-2.277,3.59,3.59,0,0,1,1.154-2.338c1.654-1.4,4.221-.979,5.6-.6a5,5,0,0,1,1.922,1,3.623,3.623,0,0,0,1.728.836c1.059.206,1.171.713,1.2,1.258.017.362.027.562.635.694.2.044.459.089.748.14,1.744.306,4.38.768,4.871,2.388.714,2.353-.771,3.334-2.343,4.373a4.2,4.2,0,0,1-2.828.707,6.5,6.5,0,0,0-2.517.318,8.377,8.377,0,0,0-4.05,3.277c-1.134,1.433-2.307,2.914-4.714,3.522A7.135,7.135,0,0,1,590.735,532.149Zm1.679-.5h0ZM595.3,513.6a4.155,4.155,0,0,0-2.717.832,3.06,3.06,0,0,0-.969,2.021,4.108,4.108,0,0,1-1.282,2.584,4.016,4.016,0,0,1-2.23.987,2.974,2.974,0,0,0-1.721.735c-1.757,1.608-1.655,5.047-.554,7.312a6.03,6.03,0,0,0,3.625,3.353,5.488,5.488,0,0,0,2.893-.043c2.225-.561,3.289-1.906,4.416-3.329a8.937,8.937,0,0,1,4.307-3.458,7.063,7.063,0,0,1,2.708-.346,3.63,3.63,0,0,0,2.489-.6c1.595-1.055,2.733-1.807,2.139-3.766-.393-1.294-2.925-1.739-4.438-2-.3-.052-.561-.1-.77-.144-1.023-.222-1.051-.815-1.07-1.207-.018-.375-.029-.6-.751-.742a4.181,4.181,0,0,1-1.958-.94,4.416,4.416,0,0,0-1.73-.9A9.464,9.464,0,0,0,595.3,513.6Z" transform="translate(-584.485 -513.039)" fill="#fff"/>
          </g>
          <g id="Grupo_1084071" data-name="Grupo 1084071" transform="translate(0 8.614)">
            <path id="Trazado_717050" data-name="Trazado 717050" d="M584.339,603.971l-.015-.005.187-3.109a23.067,23.067,0,0,0,2.413.057c1.927-.477,2.415-4.936,2.415-4.936l1.221-.936-1.44-7.076c-3.621,1.864-4.153-.878-7.454-.3s-2.412,4.308-2.412,4.308-2.227-1.639-2.232.868a2.217,2.217,0,0,0,2.167,2.419l-1.528,4.866h0l-.054.176-1.417,4.513.028.021-.588,1.918s-5.312,1.51-6.34,1.781c1.337-.063,10.581,3.957,21.065-.436l-5.62-1.674Z" transform="translate(-569.012 -587.308)" fill="#fff"/>
            <path id="Trazado_717051" data-name="Trazado 717051" d="M577.932,608.395a36.081,36.081,0,0,1-9.145-1.3,8.577,8.577,0,0,0-1.526-.321.276.276,0,0,1-.084-.543c.918-.243,5.332-1.5,6.19-1.739l.509-1.661a.278.278,0,0,1,.008-.136l1.471-4.687c0-.009.006-.018.01-.027l1.425-4.539a2.416,2.416,0,0,1-2.085-2.638c0-.81.227-1.333.67-1.557a1.725,1.725,0,0,1,1.478.153,4.306,4.306,0,0,1,.55-2.715,3.115,3.115,0,0,1,2.175-1.329,5.519,5.519,0,0,1,3.348.485,3.988,3.988,0,0,0,4.028-.158.276.276,0,0,1,.4.191l1.44,7.076a.276.276,0,0,1-.1.274l-1.128.866c-.1.744-.682,4.579-2.609,5.056a18.126,18.126,0,0,1-2.22-.032l-.165,2.746a.218.218,0,0,1,.007.031l.367,2.282,5.454,1.625a.276.276,0,0,1,.028.519A26.94,26.94,0,0,1,577.932,608.395Zm-9.457-1.945.447.112c3.168.8,10.464,2.647,18.554-.459l-4.861-1.448a.276.276,0,0,1-.194-.221l-.383-2.382a.266.266,0,0,1-.03-.138l.187-3.109a.276.276,0,0,1,.1-.195.273.273,0,0,1,.208-.063c.259.028,2.1.106,2.319.063,1.422-.352,2.073-3.51,2.2-4.7a.276.276,0,0,1,.106-.189l1.083-.831-1.334-6.557a4.45,4.45,0,0,1-4.162.02,4.98,4.98,0,0,0-3.045-.453,2.585,2.585,0,0,0-1.807,1.086,4.231,4.231,0,0,0-.384,2.887.276.276,0,0,1-.432.286c-.239-.175-1.014-.628-1.427-.419-.3.152-.365.663-.366,1.065a1.933,1.933,0,0,0,1.928,2.145.276.276,0,0,1,.226.357l-1.528,4.866c0,.008-.005.016-.009.023l-.046.15-1.382,4.4a.276.276,0,0,1-.007.132l-.588,1.918a.276.276,0,0,1-.188.185C573.621,605,570.367,605.922,568.475,606.45Z" transform="translate(-566.972 -585.274)"/>
          </g>
          <path id="Trazado_717052" data-name="Trazado 717052" d="M666.273,676.293h-.023a4.743,4.743,0,0,1-4.115-3.01.276.276,0,0,1,.526-.17,4.115,4.115,0,0,0,3.636,2.63.276.276,0,0,1-.023.551Z" transform="translate(-650.774 -653.854)"/>
        </g>
        <g id="Grupo_1084075" data-name="Grupo 1084075" transform="translate(29.697 0)">
          <g id="Grupo_1084073" data-name="Grupo 1084073" transform="translate(0 5.749)">
            <path id="Trazado_717053" data-name="Trazado 717053" d="M549.763,538.987s12.667,3.529,24.537.415c10.338-2.713-2.223-8.307-12.155-8.67C547.448,530.2,540.126,535.4,549.763,538.987Z" transform="translate(-545.127 -530.418)" fill="#fff"/>
            <path id="Trazado_717054" data-name="Trazado 717054" d="M561.556,538.915a58.2,58.2,0,0,1-13.914-1.7l-.022-.007c-4.112-1.531-4.718-3.147-4.5-4.234.593-2.979,7.737-4.894,16.991-4.556,6.9.252,15.954,3.205,16.281,6.164.141,1.278-1.227,2.3-4.066,3.049A42.731,42.731,0,0,1,561.556,538.915ZM547.8,536.686c.436.119,12.872,3.431,24.382.411,2.462-.646,3.761-1.518,3.657-2.454-.27-2.44-8.514-5.409-15.752-5.673-9.7-.352-15.971,1.813-16.429,4.112C543.414,534.319,544.884,535.6,547.8,536.686Z" transform="translate(-543.08 -528.38)"/>
          </g>
          <g id="Grupo_1084074" data-name="Grupo 1084074" transform="translate(7.765)">
            <path id="Trazado_717055" data-name="Trazado 717055" d="M612.884,495.089a3.046,3.046,0,0,1-2.337-3.3c.517-3.11,2.128-7.315,4.417-8.442,2.545-1.253,6.732-.982,8.975.045,2.45,1.122,3.567,5.165,3.281,8.859C626.966,495.528,619.834,497.205,612.884,495.089Z" transform="translate(-610.235 -482.233)" fill="#fff"/>
            <path id="Trazado_717056" data-name="Trazado 717056" d="M617.093,494.237a22.064,22.064,0,0,1-6.329-.942,3.322,3.322,0,0,1-2.529-3.608c.558-3.355,2.225-7.491,4.567-8.645,2.629-1.294,6.886-1.023,9.212.042,2.63,1.2,3.722,5.505,3.441,9.132a3.275,3.275,0,0,1-1.594,2.4A12.451,12.451,0,0,1,617.093,494.237Zm.09-13.5a9.662,9.662,0,0,0-4.136.8c-2.071,1.02-3.714,4.917-4.266,8.24a2.778,2.778,0,0,0,2.145,2.989c5.331,1.623,10.386.925,12.625-.6a2.749,2.749,0,0,0,1.355-1.989c.266-3.435-.721-7.488-3.12-8.587A11.742,11.742,0,0,0,617.183,480.733Z" transform="translate(-608.196 -480.174)"/>
          </g>
          <path id="Trazado_717057" data-name="Trazado 717057" d="M656.823,504.142a9.222,9.222,0,0,1-4.7-1.277.276.276,0,0,1,.3-.463,8.842,8.842,0,0,0,7.781.486.276.276,0,0,1,.217.508A9.115,9.115,0,0,1,656.823,504.142Z" transform="translate(-639.01 -499.712)"/>
        </g>
      </g>
      <g id="Grupo_1084080" data-name="Grupo 1084080" transform="translate(424.078 335.666)">
        <g id="Grupo_1084077" data-name="Grupo 1084077" transform="translate(33.533 152.789)">
          <path id="Trazado_717058" data-name="Trazado 717058" d="M1725.5,1821.158a.276.276,0,0,1-.1-.532c21.187-8.625,38.454-23.585,48.62-42.123a.276.276,0,1,1,.484.265,90.689,90.689,0,0,1-20.539,25.19,102.781,102.781,0,0,1-28.357,17.179A.273.273,0,0,1,1725.5,1821.158Z" transform="translate(-1718.106 -1759.689)"/>
          <path id="Trazado_717059" data-name="Trazado 717059" d="M1665.842,1679.655a.276.276,0,0,1-.088-.538c28.793-9.643,49.836-30.464,57.736-57.122a.276.276,0,1,1,.53.157c-7.951,26.834-29.124,47.788-58.09,57.489A.273.273,0,0,1,1665.842,1679.655Z" transform="translate(-1665.565 -1621.797)"/>
        </g>
        <g id="Grupo_1084078" data-name="Grupo 1084078" transform="translate(12.114 5.147)">
          <path id="Trazado_717060" data-name="Trazado 717060" d="M1515.187,386.506a.276.276,0,0,1-.276-.276V384.02a.276.276,0,0,1,.552,0v2.209A.276.276,0,0,1,1515.187,386.506Z" transform="translate(-1511.459 -383.744)"/>
          <path id="Trazado_717061" data-name="Trazado 717061" d="M1515.187,428.191a.276.276,0,0,1-.276-.276v-2.209a.276.276,0,0,1,.552,0v2.209A.276.276,0,0,1,1515.187,428.191Z" transform="translate(-1511.459 -420.458)"/>
          <path id="Trazado_717062" data-name="Trazado 717062" d="M1488.449,413.244h-2.209a.276.276,0,1,1,0-.552h2.209a.276.276,0,0,1,0,.552Z" transform="translate(-1485.963 -409.24)"/>
          <path id="Trazado_717063" data-name="Trazado 717063" d="M1530.135,413.244h-2.209a.276.276,0,0,1,0-.552h2.209a.276.276,0,1,1,0,.552Z" transform="translate(-1522.678 -409.24)"/>
        </g>
        <g id="Grupo_1084079" data-name="Grupo 1084079" transform="translate(74.806 64.248)">
          <path id="Trazado_717064" data-name="Trazado 717064" d="M2040.886,882.1a.276.276,0,0,1-.276-.276v-2.209a.276.276,0,0,1,.552,0v2.209A.276.276,0,0,1,2040.886,882.1Z" transform="translate(-2037.158 -879.336)"/>
          <path id="Trazado_717065" data-name="Trazado 717065" d="M2040.886,923.784a.276.276,0,0,1-.276-.276V921.3a.276.276,0,1,1,.552,0v2.209A.276.276,0,0,1,2040.886,923.784Z" transform="translate(-2037.158 -916.051)"/>
          <path id="Trazado_717066" data-name="Trazado 717066" d="M2014.147,908.836h-2.209a.276.276,0,0,1,0-.552h2.209a.276.276,0,0,1,0,.552Z" transform="translate(-2011.662 -904.832)"/>
          <path id="Trazado_717067" data-name="Trazado 717067" d="M2055.833,908.836h-2.209a.276.276,0,1,1,0-.552h2.209a.276.276,0,0,1,0,.552Z" transform="translate(-2048.376 -904.832)"/>
        </g>
        <path id="Trazado_717068" data-name="Trazado 717068" d="M1386.666,345.162a2.288,2.288,0,1,1,2.288-2.288A2.29,2.29,0,0,1,1386.666,345.162Zm0-4.023a1.735,1.735,0,1,0,1.735,1.735A1.737,1.737,0,0,0,1386.666,341.138Z" transform="translate(-1384.378 -340.586)"/>
      </g>
      <g id="Grupo_1084089" data-name="Grupo 1084089" transform="translate(448.156 335)">
        <g id="Grupo_1084088" data-name="Grupo 1084088" transform="translate(0 0)">
          <path id="Trazado_717069" data-name="Trazado 717069" d="M1651.773,368.9q0,1.052-.068,2.087a31.6,31.6,0,1,1,.068-2.087Z" transform="translate(-1588.329 -337.039)"/>
          <path id="Trazado_717070" data-name="Trazado 717070" d="M1618.149,398.72a31.86,31.86,0,1,1,31.86-31.86c0,.7-.023,1.408-.068,2.1a31.839,31.839,0,0,1-31.792,29.755Zm0-63.167a31.338,31.338,0,1,0,31.24,33.376c.045-.685.068-1.38.068-2.068A31.343,31.343,0,0,0,1618.149,335.552Z" transform="translate(-1586.289 -335)" fill="#fff"/>
          <g id="Grupo_1084087" data-name="Grupo 1084087" transform="translate(0.276 0.276)" clip-path="url(#clip-path)">
            <g id="Grupo_1084086" data-name="Grupo 1084086" transform="translate(10.087 9.71)">
              <g id="Grupo_1084082" data-name="Grupo 1084082">
                <path id="Trazado_717071" data-name="Trazado 717071" d="M1673.194,443.664c8.531-1.407,13.742,3,15.4,13.619C1678.375,456.286,1673.4,451.634,1673.194,443.664Z" transform="translate(-1673.194 -440.466)" fill="#fff"/>
                <path id="Trazado_717072" data-name="Trazado 717072" d="M1813.279,497.2c-8.161-2.858-14.191,1.131-17.654,11.31C1805.859,509.3,1811.7,505.019,1813.279,497.2Z" transform="translate(-1781.025 -487.053)" fill="#fff"/>
                <path id="Trazado_717073" data-name="Trazado 717073" d="M1818.936,419.214c-5.149-1.641-8.846.957-10.829,7.378C1814.515,426.9,1818.086,424.124,1818.936,419.214Z" transform="translate(-1792.018 -418.735)" fill="#fff"/>
                <path id="Trazado_717074" data-name="Trazado 717074" d="M1794.741,467.3h-.007a.277.277,0,0,1-.27-.283l.414-17.01c-.148-8.217,3.244-11.227,8.383-13.215a.276.276,0,1,1,.2.515c-5.063,1.959-8.173,4.767-8.03,12.7l-.414,17.022A.276.276,0,0,1,1794.741,467.3Z" transform="translate(-1780.002 -434.622)" fill="#fff"/>
                <g id="Grupo_1084081" data-name="Grupo 1084081" transform="translate(1.644 30.426)">
                  <path id="Trazado_717075" data-name="Trazado 717075" d="M1689.5,684.74c8.768-12.149,20.143-11.2,24.01,2.038l-23.306-.323A1.071,1.071,0,0,1,1689.5,684.74Z" transform="translate(-1689.015 -675.929)" fill="#fff"/>
                  <path id="Trazado_717076" data-name="Trazado 717076" d="M1711.479,685h0l-23.306-.323a1.175,1.175,0,0,1-1.032-.68,1.437,1.437,0,0,1,.108-1.472c4.518-6.26,9.947-9.36,14.889-8.511,4.415.76,7.828,4.536,9.61,10.633a.276.276,0,0,1-.265.354ZM1700.5,674.428c-4.3,0-8.892,2.991-12.811,8.42a.878.878,0,0,0-.062.9.638.638,0,0,0,.546.376l22.93.318c-1.746-5.673-4.956-9.178-9.066-9.885A9.037,9.037,0,0,0,1700.5,674.428Zm-13.035,8.259h0Z" transform="translate(-1686.984 -673.876)"/>
                </g>
                <path id="Trazado_717077" data-name="Trazado 717077" d="M1814.4,522.948a.276.276,0,0,1-.2-.466c2.895-3.075,6.961-5.757,12.432-8.2a.276.276,0,0,1,.226.5c-5.4,2.413-9.412,5.054-12.255,8.075A.276.276,0,0,1,1814.4,522.948Z" transform="translate(-1797.32 -502.867)"/>
                <path id="Trazado_717078" data-name="Trazado 717078" d="M1706.144,479.055a.276.276,0,0,1-.225-.115,19.63,19.63,0,0,0-8.436-6.942.276.276,0,0,1,.218-.507,20.16,20.16,0,0,1,8.666,7.127.276.276,0,0,1-.224.437Z" transform="translate(-1694.44 -465.18)"/>
              </g>
              <g id="Grupo_1084085" data-name="Grupo 1084085" transform="translate(0.893 22.587)">
                <path id="Trazado_717079" data-name="Trazado 717079" d="M1683.269,629.293a4.648,4.648,0,0,1,4.2-2.246l8.078.386.089-1.868a5.071,5.071,0,0,1,3.315-4.517l7.507-2.761,5.207-4.847a11.144,11.144,0,0,1,8.126-2.975l25.432,1.216c-2.449,2.575-4.757,5.044-6.84,7.271q-2.446,2.616-4.755,5.066l-10.916-.522a3.506,3.506,0,0,0-2.452.842l-8.786,7.546a5.659,5.659,0,0,1-3.957,1.359l-22.724-1.086A1.89,1.89,0,0,1,1683.269,629.293Z" transform="translate(-1682.719 -610.175)" fill="#fff"/>
                <g id="Grupo_1084083" data-name="Grupo 1084083" transform="translate(14.823 13.824)">
                  <path id="Trazado_717080" data-name="Trazado 717080" d="M1815.437,724.059l-10.46,3.931Z" transform="translate(-1804.977 -724.059)" fill="#fff"/>
                </g>
                <g id="Grupo_1084084" data-name="Grupo 1084084">
                  <path id="Trazado_717081" data-name="Trazado 717081" d="M1705.755,631.487q-.144,0-.288-.007l-22.724-1.086a2.166,2.166,0,0,1-1.752-3.281,4.92,4.92,0,0,1,4.455-2.38l7.8.373.076-1.592a5.338,5.338,0,0,1,3.5-4.764l7.455-2.742,5.166-4.809a11.479,11.479,0,0,1,8.327-3.049l25.432,1.216a.276.276,0,1,1-.026.552l-25.432-1.216a10.925,10.925,0,0,0-7.924,2.9l-5.207,4.847a.275.275,0,0,1-.093.057l-7.507,2.761a4.786,4.786,0,0,0-3.134,4.272l-.09,1.868a.27.27,0,0,1-.289.263l-8.078-.386a4.352,4.352,0,0,0-3.956,2.113,1.614,1.614,0,0,0,1.306,2.444l22.724,1.086a5.359,5.359,0,0,0,3.764-1.293l8.786-7.546a3.754,3.754,0,0,1,2.645-.909l10.915.522a.276.276,0,1,1-.026.552l-10.915-.522a3.234,3.234,0,0,0-2.259.776l-8.786,7.546A5.909,5.909,0,0,1,1705.755,631.487Z" transform="translate(-1680.678 -608.138)"/>
                  <path id="Trazado_717082" data-name="Trazado 717082" d="M1802.937,726.226a.276.276,0,0,1-.1-.535l10.46-3.931a.276.276,0,0,1,.194.517l-10.46,3.931A.276.276,0,0,1,1802.937,726.226Z" transform="translate(-1788.114 -708.194)"/>
                </g>
              </g>
            </g>
          </g>
        </g>
      </g>
    </g>
  </g>
</svg>
