<svg xmlns="http://www.w3.org/2000/svg" width="593.484" height="2383.737" viewBox="0 0 593.484 2383.737">
  <g id="Grupo_1084290" data-name="Grupo 1084290" transform="translate(-412.183 342.587)">
    <rect id="Rectángulo_1" data-name="Rectángulo 1" width="511" height="2138" transform="translate(455 -142)" fill="#adce32"/>
    <g id="Grupo_1" data-name="Grupo 1" transform="translate(415.667 -170.349)">
      <rect id="Rectángulo_4911" data-name="Rectángulo 4911" width="590" height="156.697" rx="21" fill="#ffd947"/>
      <g id="Grupo_20709" data-name="Grupo 20709" transform="translate(41 72.274)">
        <g id="Grupo_20708" data-name="Grupo 20708">
          <text id="Este_es_el_ingrediente_que_nunca_debe_faltar_en_la_formulación_de_este_abono_orgánico_provee_los_microorganismos_necesarios_para_la_transformación_de_los_desechos._" data-name="Este es el ingrediente que nunca debe faltar en la formulación de este abono orgánico, provee los microorganismos necesarios para la transformación de los desechos.
" fill="#12263f" font-size="16" font-family="Roboto-Regular, Roboto"><tspan x="0" y="15">Este es el ingrediente que nunca debe faltar en la formulación de este </tspan><tspan x="0" y="37">abono orgánico, provee los microorganismos necesarios para la </tspan><tspan x="0" y="59">transformación de los desechos.</tspan><tspan x="0" y="81"></tspan></text>
        </g>
      </g>
      <rect id="Rectángulo_361781" data-name="Rectángulo 361781" width="590" height="156.697" rx="21" transform="translate(0 -7.363)" fill="#ffd947"/>
      <g id="Grupo_1084289" data-name="Grupo 1084289" transform="translate(41 64.912)">
        <g id="Grupo_20708-2" data-name="Grupo 20708">
          <text id="Este_es_el_ingrediente_que_nunca_debe_faltar_en_la_formulación_de_este_abono_orgánico_provee_los_microorganismos_necesarios_para_la_transformación_de_los_desechos._2" data-name="Este es el ingrediente que nunca debe faltar en la formulación de este abono orgánico, provee los microorganismos necesarios para la transformación de los desechos.
" fill="#12263f" font-size="16" font-family="Roboto-Regular, Roboto"><tspan x="0" y="15">Este es el ingrediente que nunca debe faltar en la formulación de este </tspan><tspan x="0" y="37">abono orgánico, provee los microorganismos necesarios para la </tspan><tspan x="0" y="59">transformación de los desechos.</tspan><tspan x="0" y="81"></tspan></text>
        </g>
      </g>
    </g>
    <rect id="Rectángulo_2" data-name="Rectángulo 2" width="155" height="46" transform="translate(625 -159.863)" fill="#0b481e"/>
    <text id="Suelo_" data-name="Suelo " transform="translate(652 -149.863)" fill="#fff" font-size="20" font-family="Roboto-Regular, Roboto"><tspan x="25.127" y="19">Suelo </tspan></text>
    <path id="Trazado_1" data-name="Trazado 1" d="M123.768,314.478c0-.357-.064,12.281-.069,11.923q0-29.476-.06-58.956a2.327,2.327,0,0,1,1.462-2.337q38.154-21.993,76.267-44.024a5.674,5.674,0,0,0,2.034-1.375h.724c.431.71,1.223.916,1.879,1.3q37.975,21.943,75.946,43.891c.6.344,1.622.367,1.567,1.457a5.082,5.082,0,0,0-.825.307q-16.6,9.54-33.187,19.162-22.126,12.793-44.271,25.531a2.513,2.513,0,0,0-1.425,2.552q0,28.779-.069,57.55v1.6h-.371v-1.778q0-13.354.027-26.7c0-1.214-.247-1.9-1.526-2.14-7.042-1.315-14.08-2.667-21.114-4.009q-16.367-3.116-32.724-6.241C139.943,330.627,131.854,316.057,123.768,314.478Z" transform="translate(503.281 -562.297)" fill="#adce32"/>
    <path id="Trazado_2" data-name="Trazado 2" d="M123.768,382.564q12.119,2.349,24.265,4.7,16.345,3.132,32.7,6.236c7.028,1.341,14.06,2.692,21.1,4.006,1.277.238,1.534.916,1.525,2.138-.05,8.891-.027,17.782-.027,26.678V428.1h.371v-1.6q.041-28.757.069-57.5a2.5,2.5,0,0,1,1.424-2.55q22.136-12.682,44.218-25.5,16.587-9.578,33.161-19.165a5.072,5.072,0,0,1,.824-.307q.032,16.024.069,32.049,0,29.015.06,58.031a2.635,2.635,0,0,1-1.552,2.651q-38.394,22.168-76.729,44.451a2.8,2.8,0,0,1-3.251-.064q-38.5-22.347-77.058-44.625c-.746-.43-1.3-.8-1.291-1.877.06-9.615.032-19.229.041-28.844a5.459,5.459,0,0,1,.087-.678Z" transform="translate(503.281 -620.505)" fill="#0b481e"/>
    <g id="Grupo_2" data-name="Grupo 2" transform="translate(415.183 188.217)">
      <rect id="Rectángulo_4911-2" data-name="Rectángulo 4911" width="590" height="145.783" rx="21" fill="#ffd947"/>
      <g id="Grupo_20709-2" data-name="Grupo 20709" transform="translate(43 84.361)">
        <g id="Grupo_20708-3" data-name="Grupo 20708">
          <text id="Son_las_fuentes_principales_de_nutrimentos_como_el_nitrógeno_fósforo_potasio_calcio_y_micro_nutrimentos._" data-name="Son las fuentes principales de nutrimentos como el nitrógeno, fósforo, potasio, calcio y micro nutrimentos.
" fill="#12263f" font-size="16" font-family="Roboto-Regular, Roboto"><tspan x="0" y="15">Son las fuentes principales de nutrimentos como el nitrógeno, fósforo, </tspan><tspan x="0" y="37">potasio, calcio y micro nutrimentos.</tspan><tspan x="0" y="59"></tspan></text>
        </g>
      </g>
    </g>
    <g id="fertilizante-01" transform="translate(502.874 -224.6)">
      <path id="Trazado_124116" data-name="Trazado 124116" d="M163.141,246.47c.662-2.507,1.283-3.008,3.93-3.008h83.464c3.008,0,3.98.8,3.775,3.75-.752,10.618,1.414,20.9,3.148,31.272,3.8,22.72,6.051,45.57,4.662,68.65-.451,7.52-1.043,14.989-2.08,22.439-.326,2.331,0,2.812,2.391,3.334a16.629,16.629,0,0,1,13.355,14.814,2.91,2.91,0,0,0,2.226,2.822,16.313,16.313,0,0,1,10.528,13.114,2.126,2.126,0,0,0,1.333,1.795c5.419,2.592,8.342,6.983,9.024,12.9.326,2.787-.732,3.98-3.544,3.985H273.546a4.2,4.2,0,0,1-2.191-.391,2.727,2.727,0,0,1-1.374-3.038,2.436,2.436,0,0,1,2.6-2.005h10.337c2.822,0,5.645-.08,8.462.03,1.765.07,1.709-.562,1.058-1.825a9.906,9.906,0,0,0-6.287-5.264c-2.005-.561-2.777-1.679-2.852-3.76-.206-5.941-3.875-10.026-9.716-11.134-2.8-.5-3.509-1.359-3.2-4.231a11.3,11.3,0,0,0-11.565-12.678c-2.251.175-3.193-.8-3.509-2.978a12.785,12.785,0,0,0-25.327-.216c-.416,2.507-1.188,3.188-3.69,3.228a11.15,11.15,0,0,0-11.41,11.726c0,.311,0,.627.03.938.115,3.063-.406,3.72-3.419,4.246a11.072,11.072,0,0,0-8.733,7.114,10.883,10.883,0,0,0-.732,3.655c-.17,2.958-.361,3.208-3.088,4.136a10.2,10.2,0,0,0-6.322,5.77c-.421.943-.231,1.213.767,1.208,6.893,0,13.786-.035,20.679,0,1.118,0,1.273-.617,1.574-1.424a12.332,12.332,0,0,1,11.575-8.277,2.772,2.772,0,1,1,.185,5.529,7.214,7.214,0,0,0-6.292,4.146h18.634c2.211.025,3.479,1.053,3.409,2.627-.08,1.795-1.313,2.817-3.509,2.817H131.754c-2.532,0-3.584-.9-3.414-3.349.747-10.8-1.359-21.286-3.153-31.839-3.334-19.662-5.449-39.459-5.013-59.446a344.875,344.875,0,0,1,4.587-46.7c1-6.367,2.351-12.678,3.339-19.05.556-3.615.16-7.374.191-11.069,0-1.5-.03-3.008,0-4.512.05-1.81.973-2.868,2.767-2.878,7.46-.055,14.914-.03,22.374,0,1.84,0,2.607,1.213,3.008,2.777-.436,1.845-1.5,2.617-3.509,2.587-5.89-.09-11.781,0-17.666-.065-1.318,0-1.755.361-1.684,1.684.1,2.06,0,4.131.03,6.2,0,2.727-.331,2.436,2.366,2.436H246.561a10.568,10.568,0,0,1,1.128,0c1,.11,1.3-.341,1.278-1.3-.05-2.191,0-4.381,0-6.577-.025-2.7.326-2.416-2.391-2.416H166.866C165.041,248.807,163.673,248.421,163.141,246.47Zm92.242,117.083a237.487,237.487,0,0,0,1.84-25.261,274.7,274.7,0,0,0-2.471-41.925q-1.92-15.25-4.813-30.35c-.236-1.223-.622-1.629-1.89-1.629q-56.649.055-113.328,0c-1.223,0-1.694.336-1.945,1.619-2.005,10.247-3.579,20.554-4.893,30.906a302.44,302.44,0,0,0-2.446,32.345,270.178,270.178,0,0,0,2.091,36.506c1.328,11.365,3.048,22.659,5.234,33.889.261,1.359.732,1.72,2.05,1.714q30.35-.055,60.7,0a2.127,2.127,0,0,0,2.361-1.544,15.831,15.831,0,0,1,9.836-9.44,2.372,2.372,0,0,0,1.82-2.4A16.367,16.367,0,0,1,223,372.943a2.86,2.86,0,0,0,2.547-2.351,18.077,18.077,0,0,1,19.9-11.826,19.79,19.79,0,0,1,9.906,4.788ZM192.97,406.7H159.928c-8.2,0-16.4.03-24.61-.03-1.328,0-1.725.386-1.669,1.694.1,2.311.1,4.637,0,6.948-.055,1.293.321,1.724,1.664,1.7,4.758-.075,9.525-.03,14.278-.03h35.127c.737,0,1.629.351,1.955-.862A16.107,16.107,0,0,1,192.97,406.7Z" transform="translate(2.596 2.598)" fill="#0b481e"/>
      <path id="Trazado_124117" data-name="Trazado 124117" d="M177.062,249.244c.509,1.981,1.93,2.373,3.784,2.368q40.48-.046,80.969,0c2.76,0,2.4-.285,2.429,2.455,0,2.23-.036,4.456,0,6.681.025.978-.285,1.436-1.3,1.324a10.765,10.765,0,0,0-1.146,0H149.537c-2.74,0-2.383.3-2.4-2.475,0-2.1.071-4.206-.031-6.3-.071-1.344.372-1.726,1.711-1.711,5.978.071,11.962-.025,17.946.066,1.991.031,3.1-.754,3.565-2.628C172.555,249.137,174.826,248.709,177.062,249.244Z" transform="translate(-13.471 -2.956)" fill="#ffa686"/>
      <path id="Trazado_124118" data-name="Trazado 124118" d="M349.879,519.9c1.956,0,3.193,1.018,3.269,2.684.066,1.579-1.018,2.694-2.847,2.918-3.845.463-5.673,2.3-6.2,6.2-.255,1.9-1.446,3.055-3.091,2.943a2.863,2.863,0,0,1-2.674-3.117A11.963,11.963,0,0,1,349.879,519.9Z" transform="translate(-107.325 -135.918)" fill="#0b481e"/>
      <path id="Trazado_124119" data-name="Trazado 124119" d="M390.326,544.639c5.749.087,11.015,5.342,11.178,11.168.051,1.91-.927,3.239-2.546,3.468s-2.8-.912-3.137-2.852c-.744-4.206-2.19-5.6-6.432-6.2a2.872,2.872,0,0,1-2.592-2.989C386.9,545.551,388.192,544.609,390.326,544.639Z" transform="translate(-131.105 -148.059)" fill="#0b481e"/>
      <path id="Trazado_124120" data-name="Trazado 124120" d="M386.852,589.495c1.207,0,2.414-.036,3.616,0a2.469,2.469,0,0,1,2.643,2.439,2.624,2.624,0,0,1-2.414,2.943,56.443,56.443,0,0,1-7.6,0,2.582,2.582,0,0,1-2.332-2.979,2.432,2.432,0,0,1,2.658-2.393C384.566,589.459,385.711,589.495,386.852,589.495Z" transform="translate(-128.145 -170.064)" fill="#0b481e"/>
      <path id="Trazado_124121" data-name="Trazado 124121" d="M262.644,385.968a20.234,20.234,0,0,0-10.088-4.879A18.363,18.363,0,0,0,232.339,393.1a2.916,2.916,0,0,1-2.587,2.388,16.674,16.674,0,0,0-13.688,15.277,2.409,2.409,0,0,1-1.849,2.439,16.082,16.082,0,0,0-9.991,9.589,2.161,2.161,0,0,1-2.4,1.568q-30.829-.061-61.659,0c-1.339,0-1.818-.362-2.083-1.742-2.22-11.407-3.967-22.88-5.316-34.425a274.446,274.446,0,0,1-2.124-37.083,307.242,307.242,0,0,1,2.485-32.856c1.334-10.521,2.954-20.986,4.97-31.395.255-1.3.733-1.645,1.976-1.645q57.544.041,115.119,0c1.288,0,1.68.413,1.92,1.655Q260.047,302.213,262,317.7a279.05,279.05,0,0,1,2.511,42.588,241.235,241.235,0,0,1-1.869,25.676ZM154.176,355.037a40.694,40.694,0,1,1,.01,0Zm6.539-62.168H149.857c-1.9,0-2.882.9-2.918,2.505a2.638,2.638,0,0,0,2.74,2.8q10.954.092,21.9,0a2.7,2.7,0,0,0,2.862-2.9c-.112-1.543-1.151-2.383-3.055-2.4-3.544-.025-7.1-.01-10.658-.01Zm24.876,5.4v-.087a23.538,23.538,0,0,0,3.229-.031,2.577,2.577,0,0,0,2.409-2.546,2.312,2.312,0,0,0-1.93-2.658,21.985,21.985,0,0,0-7.19-.071,2.424,2.424,0,0,0-2.251,2.617,2.5,2.5,0,0,0,2.322,2.582,30.845,30.845,0,0,0,3.422.194Z" transform="translate(-5.378 -20.747)" fill="#adce32"/>
      <path id="Trazado_124122" data-name="Trazado 124122" d="M207.364,569.081a16.362,16.362,0,0,0-6.4,9.558c-.331,1.232-1.237.876-1.986.876H163.3c-4.838,0-9.676-.046-14.5.031-1.365,0-1.747-.413-1.691-1.726.1-2.348.1-4.71,0-7.058-.056-1.329.346-1.731,1.7-1.721,8.336.061,16.667.031,25,.031h33.564Z" transform="translate(-13.473 -160.034)" fill="#2eb64d"/>
      <path id="Trazado_124123" data-name="Trazado 124123" d="M176.9,382.448A40.882,40.882,0,1,1,189.1,411.593,40.992,40.992,0,0,1,176.9,382.448Zm41.06,35.54c19.209.153,35.535-15.883,35.723-35.1a35.65,35.65,0,1,0-35.723,35.1Z" transform="translate(-28.097 -48.158)" fill="#0b481e"/>
      <path id="Trazado_124124" data-name="Trazado 124124" d="M176.494,300.227h10.694c1.91,0,2.949.861,3.055,2.4a2.706,2.706,0,0,1-2.862,2.9q-10.954.117-21.9,0a2.638,2.638,0,0,1-2.74-2.8c.036-1.6,1.018-2.49,2.918-2.505C169.258,300.207,172.879,300.227,176.494,300.227Z" transform="translate(-21.148 -28.106)" fill="#0b481e"/>
      <path id="Trazado_124125" data-name="Trazado 124125" d="M233.071,305.406a30.345,30.345,0,0,1-3.407-.178,2.5,2.5,0,0,1-2.322-2.582,2.424,2.424,0,0,1,2.251-2.617,21.983,21.983,0,0,1,7.191.071,2.312,2.312,0,0,1,1.93,2.658A2.577,2.577,0,0,1,236.3,305.3a23.533,23.533,0,0,1-3.229.031Z" transform="translate(-52.848 -27.886)" fill="#0b481e"/>
      <path id="Trazado_124126" data-name="Trazado 124126" d="M223.26,423.187a35.76,35.76,0,1,1,35.723-35.1C258.795,407.3,242.469,423.34,223.26,423.187Zm-2.852-31.415c-4.115-4.1-8.713-6.422-14.233-6.768-3.269-.2-4.242.769-4.074,4.074a21.191,21.191,0,0,0,17.024,19.27c1.171.239,1.431.662,1.38,1.716a43,43,0,0,0,0,4.583,2.64,2.64,0,0,0,2.821,2.719,2.513,2.513,0,0,0,2.546-2.745c.041-1.528.076-3.055,0-4.583-.061-1.11.311-1.456,1.436-1.691A21.169,21.169,0,0,0,244.363,388.7c.178-2.74-.932-3.875-3.692-3.738a20.879,20.879,0,0,0-13.556,5.775c-.331.306-.509.922-1.105.774a8.471,8.471,0,0,1,1.7-6.732,20.808,20.808,0,0,0-2.073-26c-1.711-1.793-3.152-1.8-4.833,0a20.808,20.808,0,0,0-1.9,26.323C220.439,387.184,220.612,389.17,220.408,391.772Z" transform="translate(-33.392 -53.357)" fill="#fefefe"/>
      <path id="Trazado_124127" data-name="Trazado 124127" d="M234.326,397.336c.2-2.6.031-4.583-1.456-6.676a20.808,20.808,0,0,1,1.9-26.323c1.68-1.777,3.122-1.772,4.833,0a20.808,20.808,0,0,1,2.073,26,8.423,8.423,0,0,0-1.7,6.732c.586.148.774-.469,1.105-.774a20.879,20.879,0,0,1,13.556-5.775c2.76-.137,3.87,1.018,3.692,3.738a21.169,21.169,0,0,1-17.054,19.667c-1.125.234-1.5.581-1.436,1.691.081,1.528.046,3.055,0,4.583a2.542,2.542,0,0,1-2.546,2.745,2.646,2.646,0,0,1-2.821-2.719,43,43,0,0,1,0-4.583c.051-1.054-.209-1.477-1.38-1.716a21.2,21.2,0,0,1-17.024-19.27c-.183-3.315.789-4.283,4.074-4.074C225.613,390.915,230.211,393.237,234.326,397.336Zm6.045,11.137c5.3-.509,11.234-6.075,12.064-11.2.2-1.227-.509-.952-1.075-.81C245.86,397.835,240.752,403.437,240.37,408.473Zm-3.055-38.432c-3.356,4-3.743,11.264-1.019,16.143.209.367.311.957.81.968.606,0,.728-.637.937-1.054C240.763,380.689,240.467,375.408,237.315,370.041ZM223.056,396.45c-1.4-.117-1.288.423-1.09,1.049a15.762,15.762,0,0,0,10.648,10.816c1.37.448,1.579.041,1.192-1.2a15.67,15.67,0,0,0-7.98-9.528,27.373,27.373,0,0,0-2.765-1.136Z" transform="translate(-47.31 -58.921)" fill="#0b481e"/>
      <path id="Trazado_124128" data-name="Trazado 124128" d="M263.81,440.612c.382-5.036,5.49-10.638,10.989-11.988.56-.143,1.273-.418,1.074.81C275.044,434.537,269.106,440.093,263.81,440.612Z" transform="translate(-70.749 -91.06)" fill="#adce32"/>
      <path id="Trazado_124129" data-name="Trazado 124129" d="M255.094,376.82c3.152,5.367,3.448,10.648.738,16.056-.209.418-.331,1.074-.937,1.054-.509,0-.6-.6-.81-.968C251.351,388.084,251.738,380.823,255.094,376.82Z" transform="translate(-65.089 -65.7)" fill="#adce32"/>
      <path id="Trazado_124130" data-name="Trazado 124130" d="M228.658,428.664a27.373,27.373,0,0,1,2.77,1.136,15.669,15.669,0,0,1,7.98,9.528c.387,1.243.178,1.65-1.192,1.2a15.762,15.762,0,0,1-10.648-10.816C227.369,429.087,227.262,428.547,228.658,428.664Z" transform="translate(-52.906 -91.136)" fill="#adce32"/>
    </g>
    <rect id="Rectángulo_3" data-name="Rectángulo 3" width="155" height="46" transform="translate(632 210.217)" fill="#0b481e"/>
    <text id="Gallinaza" transform="translate(659 220.217)" fill="#fff" font-size="20" font-family="Roboto-Regular, Roboto"><tspan x="9.116" y="19">Gallinaza</tspan></text>
    <g id="Grupo_3" data-name="Grupo 3" transform="translate(412.183 512.281)">
      <rect id="Rectángulo_4911-3" data-name="Rectángulo 4911" width="590" height="145.783" rx="21" fill="#ffd947"/>
      <g id="Grupo_20709-3" data-name="Grupo 20709" transform="translate(43 84.361)">
        <g id="Grupo_20708-4" data-name="Grupo 20708">
          <text id="Proveen_altas_cantidades_de_potasio_esta_puede_ser_obtenida_de_los_fogones_o_estufas_caseras_que_funcionan_con_leña._" data-name="Proveen altas cantidades de potasio, esta puede ser obtenida de los fogones o estufas caseras que funcionan con leña.
" fill="#12263f" font-size="16" font-family="Roboto-Regular, Roboto"><tspan x="0" y="15">Proveen altas cantidades de potasio, esta puede ser obtenida de los </tspan><tspan x="0" y="37">fogones o estufas caseras que funcionan con leña.</tspan><tspan x="0" y="59"></tspan></text>
        </g>
      </g>
    </g>
    <rect id="Rectángulo_4" data-name="Rectángulo 4" width="155" height="46" transform="translate(629 534.281)" fill="#0b481e"/>
    <text id="Ceniza" transform="translate(656 544.281)" fill="#fff" font-size="20" font-family="Roboto-Regular, Roboto"><tspan x="19.854" y="19">Ceniza</tspan></text>
    <g id="contaminacion-atmosferica-01" transform="translate(684.065 -132.225)">
      <path id="Trazado_124191" data-name="Trazado 124191" d="M43,291.394V281.065c.734-.513.532-1.373.658-2.05a39.084,39.084,0,0,1,9.8-19.712c1.067-1.148,1.247-1.859.348-3.275a30.691,30.691,0,0,1-4.564-21.4,32.205,32.205,0,0,1,42.344-25.913c.983.325,1.435.306,2.035-.731a25.017,25.017,0,0,1,30.248-11.362c1.148.383,1.565.237,2.188-.807,8.994-14.977,22.21-22.012,39.651-20.344,17.088,1.633,31.453,15.091,34.513,31.95.264,1.469.765,1.913,2.265,1.947,16.866.559,30.581,11.2,35.083,27.061.49,1.737.493,3.584,1.3,5.233v9.181c-.5.161-.356.608-.413.953a36.453,36.453,0,0,1-5.91,14.957,2.307,2.307,0,0,0-.184,2.72,27.907,27.907,0,0,1,2.1,19.51c-3.558,14.154-15.967,23.079-30.856,22.321-.677-.034-1.97-.8-2.024.463-.046,1.109,1.22.428,1.832.451a20.653,20.653,0,1,1-4.87,40.837c-.834-.176-1.572-.428-2.421.363-5.019,4.682-10.945,5.949-17.333,3.653s-10.038-7.18-10.964-13.932c-.161-1.148-.566-1.255-1.53-1.205a31.792,31.792,0,0,1-9.862-.857c-1.251-.337-1.714.065-2.3,1.109a33.974,33.974,0,0,1-46.1,13.343,1.739,1.739,0,0,0-2.418.237,32.377,32.377,0,0,1-20.558,8.584c-12.984.57-23.435-4.5-30.554-15.39s-7.44-22.444-1.691-34.108a2.014,2.014,0,0,0-.321-2.643,39.4,39.4,0,0,1-8.473-16.882C43.708,294.015,43.845,292.584,43,291.394Zm124.564,45.079c-.524-.727-.876-1.171-1.182-1.645-3.539-5.474-4.021-11.208-1.086-17.038a16.6,16.6,0,0,1,26.56-4.166c.428.421.639,1.347,1.641.907,1.243-.547,2.414-1.052,2.521-2.7.073-1.148.363-2.261.547-3.393.474-2.9,1.389-3.473,4.3-2.957,9.988,1.779,18.423-1.037,24.445-9.288,5.807-7.957,6.27-16.667,1.63-25.37-1.3-2.441-1.029-3.986.474-6.155,7.406-10.688,8.416-22.1,2.127-33.5s-16.354-16.748-29.372-16.373c-3.825.111-4.365-.218-4.843-4.074a32.133,32.133,0,0,0-5.4-14.537c-7.521-10.9-17.98-16.381-31.116-15.516-13.473.88-23.232,7.911-29.192,20.064-1.488,3.034-2.391,3.4-5.486,1.913a19.709,19.709,0,0,0-26.744,9.9c-1.354,3.145-2.3,3.516-5.413,2.15a26.464,26.464,0,0,0-14.755-1.974c-19.934,2.984-29.517,26.353-17.436,42.462,2.024,2.7,1.962,3.561-.421,5.811a34.884,34.884,0,0,0-1.492,49.172c2.261,2.414,2.3,2.858.528,5.788a26.9,26.9,0,0,0-3.726,18.538c1.832,11.4,8.339,19.3,19.311,22.991,11.17,3.745,21.078,1.021,29.529-7.1,2.188-2.1,2.758-2.219,5.26-.623a28.714,28.714,0,0,0,41.72-12.192c1.282-2.762,1.966-3.079,4.9-2.238a32.284,32.284,0,0,0,12.169,1.14Zm43.878-4.613a6.229,6.229,0,0,0-3.867-5.8,2.567,2.567,0,0,0-3.63,2.131,6.436,6.436,0,0,0,3.118,6.274C209.406,335.758,211.415,334.56,211.442,331.86ZM181.6,318.566a3.06,3.06,0,1,0,2.774,3.047A3.06,3.06,0,0,0,181.6,318.566Z" transform="translate(-116 305.327)" fill="#030303"/>
      <path id="Trazado_124194" data-name="Trazado 124194" d="M176.376,345.078a32.281,32.281,0,0,1-12.184-1.148c-2.934-.842-3.619-.524-4.9,2.238a28.714,28.714,0,0,1-41.7,12.192c-2.5-1.6-3.06-1.477-5.26.624-8.45,8.118-18.362,10.841-29.529,7.1-10.979-3.684-17.486-11.587-19.318-23a26.893,26.893,0,0,1,3.726-18.538c1.771-2.93,1.733-3.374-.528-5.788a34.884,34.884,0,0,1,1.492-49.172c2.383-2.249,2.444-3.114.421-5.811-12.081-16.105-2.5-39.475,17.436-42.462a26.464,26.464,0,0,1,14.743,1.978c3.125,1.366,4.059.995,5.413-2.15a19.709,19.709,0,0,1,26.744-9.9c3.095,1.5,4,1.148,5.486-1.913,5.96-12.153,15.719-19.185,29.192-20.064,13.152-.865,23.6,4.613,31.116,15.516a32.134,32.134,0,0,1,5.4,14.537c.478,3.856,1,4.185,4.843,4.074,13.007-.383,23.113,5,29.372,16.373s5.291,22.8-2.115,33.507c-1.5,2.169-1.775,3.715-.474,6.155,4.64,8.7,4.177,17.413-1.63,25.37-6.021,8.251-14.456,11.067-24.445,9.288-2.915-.516-3.825.061-4.3,2.957-.184,1.148-.474,2.253-.547,3.393-.107,1.649-1.278,2.154-2.521,2.7-1,.44-1.213-.486-1.641-.907a16.607,16.607,0,0,0-26.56,4.174c-2.934,5.83-2.452,11.564,1.086,17.038C175.5,343.908,175.852,344.351,176.376,345.078Zm-57.592-34.326c-.138,2.261,1.19,3.493,3.416,3.221a29.18,29.18,0,0,1,8.749.383c2,.383,3.06-.191,3.669-2.1a32.376,32.376,0,0,1,18.955-20.948c1.855-.8,2.349-1.955,1.668-3.848a19.874,19.874,0,0,1,1.664-17.788c1.274-2.131.5-3.933-1.913-4.468a34.728,34.728,0,0,1-20.776-13.29c-1.37-1.813-2.827-1.966-4.556-.5a19.857,19.857,0,0,1-17.069,4.656c-2.379-.421-3.485.467-3.787,2.85a26.808,26.808,0,0,1-3.665,10.554c-1.855,3.083-1.718,3.554,1.109,5.826a34.358,34.358,0,0,1,13.335,25.63,33.185,33.185,0,0,1-.8,9.82Z" transform="translate(-124.812 296.721)" fill="#dee9f0"/>
      <path id="Trazado_124195" data-name="Trazado 124195" d="M471.124,574.982c-.027,2.7-2.035,3.9-4.38,2.609a6.459,6.459,0,0,1-3.118-6.274,2.567,2.567,0,0,1,3.63-2.131A6.221,6.221,0,0,1,471.124,574.982Z" transform="translate(-375.682 62.204)" fill="#fdfdfd"/>
      <path id="Trazado_124196" data-name="Trazado 124196" d="M400.642,549.914a3.06,3.06,0,1,1-2.915,3.137A3.061,3.061,0,0,1,400.642,549.914Z" transform="translate(-335.027 73.979)" fill="#fdfdfd"/>
      <path id="Trazado_124197" data-name="Trazado 124197" d="M469.38,175.48c5.172,0,9.127,2.6,10.918,7.326a1.733,1.733,0,0,0,1.121,1.148c.356.138.719.256,1.067.413,3.871,1.767,6.526,4.548,6.584,8.986.057,4.372-2.521,7.192-6.262,9.009a4.384,4.384,0,0,0-2.2,2.115,10.43,10.43,0,0,1-10.176,6.121,10.606,10.606,0,0,1-9.885-6.886,2.517,2.517,0,0,0-2.188-1.863,12.284,12.284,0,0,1-6.174-2.835c-4.262-3.581-4.342-8.86-.18-12.536,1.7-1.507,4.078-1.882,5.811-3.06,1.6-1.094,1.878-3.737,3.638-5.138A12.4,12.4,0,0,1,469.38,175.48Zm.62,29.792c2.6-.042,4.636-.635,5.206-2.345,1.1-3.286,3.4-4.69,6.312-6.094,3.11-1.5,2.942-4.973.054-6.909a8.511,8.511,0,0,0-3.539-1.335c-1.729-.268-2.777-1.194-2.678-3.083a3.809,3.809,0,0,0-1.5-3.16,7.267,7.267,0,0,0-8.852,0,4.005,4.005,0,0,0-1.53,2.953c-.122,2.322-.765,3-3.095,3.294a9.418,9.418,0,0,0-4.273,1.492c-2.437,1.676-2.4,3.684.084,5.256a11.381,11.381,0,0,0,5.447,1.53c2.555.2,3.034.673,3.4,3.183C465.482,203.072,467.869,205.276,470,205.272Z" transform="translate(-366.647 305.174)" fill="#030303"/>
      <path id="Trazado_124198" data-name="Trazado 124198" d="M194.087,409.6a33.185,33.185,0,0,0,.819-9.843,34.4,34.4,0,0,0-13.335-25.63c-2.827-2.272-2.965-2.743-1.109-5.826a26.808,26.808,0,0,0,3.653-10.547c.3-2.383,1.408-3.271,3.787-2.85a19.81,19.81,0,0,0,17.069-4.656c1.729-1.465,3.187-1.312,4.556.5a34.75,34.75,0,0,0,20.776,13.29c2.4.536,3.167,2.337,1.913,4.468a19.874,19.874,0,0,0-1.664,17.788c.681,1.894.187,3.06-1.668,3.848a32.376,32.376,0,0,0-18.955,20.948c-.6,1.913-1.672,2.46-3.669,2.1a29.18,29.18,0,0,0-8.749-.383C195.276,413.091,193.949,411.859,194.087,409.6Z" transform="translate(-200.115 197.872)" fill="#030303"/>
      <path id="Trazado_124199" data-name="Trazado 124199" d="M478.645,213.937c-2.131,0-4.518-2.2-4.973-5.222-.383-2.509-.845-2.988-3.4-3.183a11.6,11.6,0,0,1-5.447-1.53c-2.483-1.572-2.521-3.581-.084-5.256a9.418,9.418,0,0,1,4.273-1.492c2.333-.295,2.972-.972,3.095-3.294a4.005,4.005,0,0,1,1.53-2.953,7.3,7.3,0,0,1,8.852,0,3.809,3.809,0,0,1,1.5,3.16c-.088,1.89.96,2.816,2.678,3.083a8.511,8.511,0,0,1,3.539,1.335c2.888,1.955,3.06,5.405-.054,6.909-2.911,1.4-5.214,2.808-6.312,6.094C483.282,213.3,481.246,213.895,478.645,213.937Zm5.019-10.049c1.614,0,2.211-.765,2.192-1.809a1.686,1.686,0,0,0-2-1.775,1.654,1.654,0,0,0-1.775,1.806A1.584,1.584,0,0,0,483.664,203.888Z" transform="translate(-375.293 296.509)" fill="#ffd947"/>
      <path id="Trazado_124200" data-name="Trazado 124200" d="M514.57,221.294a1.6,1.6,0,0,1-1.58-1.779,1.665,1.665,0,0,1,1.775-1.806,1.688,1.688,0,0,1,2,1.775C516.781,220.513,516.184,221.286,514.57,221.294Z" transform="translate(-406.198 279.103)" fill="#fdfdfd"/>
    </g>
    <g id="Grupo_4" data-name="Grupo 4" transform="translate(414.183 842.281)">
      <rect id="Rectángulo_4911-4" data-name="Rectángulo 4911" width="590" height="172.206" rx="21" fill="#ffd947"/>
      <g id="Grupo_20709-4" data-name="Grupo 20709" transform="translate(43 88.783)">
        <g id="Grupo_20708-5" data-name="Grupo 20708">
          <text id="Se_emplea_como_enmienda_para_neutralizar_la_acidez_de_los_estiércoles_y_materiales_verdes_que_se_usan_y_constituye_una_fuente_de_calcio_y_magnesio._" data-name="Se emplea como enmienda para neutralizar la acidez de los estiércoles y materiales verdes que se usan y constituye una fuente de calcio y magnesio.
" fill="#12263f" font-size="16" font-family="Roboto-Regular, Roboto"><tspan x="0" y="15">Se emplea como enmienda para neutralizar la acidez de los estiércoles y </tspan><tspan x="0" y="37">materiales verdes que se usan y constituye una fuente de calcio y </tspan><tspan x="0" y="59">magnesio.</tspan><tspan x="0" y="81"></tspan></text>
        </g>
      </g>
    </g>
    <rect id="Rectángulo_5" data-name="Rectángulo 5" width="155" height="46" transform="translate(626 871.281)" fill="#0b481e"/>
    <text id="Cal" transform="translate(653 881.281)" fill="#fff" font-size="20" font-family="Roboto-Regular, Roboto"><tspan x="35.625" y="19">Cal</tspan></text>
    <g id="cemento-01" transform="translate(488.529 452.959)">
      <path id="Trazado_124102" data-name="Trazado 124102" d="M153.588,414.882c-.251-.636-.906-.516-1.368-.646a18.73,18.73,0,0,1-8.893-31.054,12.518,12.518,0,0,0,3.372-10.045c-1.334-20.865-1.648-41.754-1.412-62.628.145-12.641.482-25.287,1.378-37.9a14.391,14.391,0,0,0-3.883-11.658c-6.614-7.169-6.1-18.307.766-25.355a18.541,18.541,0,0,1,25.359-1.315,12.761,12.761,0,0,0,9.9,3.3c14.708-1.171,29.45-1.662,44.211-1.387,9.809.178,19.617.6,29.387,1.4a11.721,11.721,0,0,0,9.086-3.049,18.711,18.711,0,0,1,29.185,6,18.339,18.339,0,0,1-2.891,20.658,12.626,12.626,0,0,0-3.69,10.815,28.731,28.731,0,0,1,.241,4.683,2.463,2.463,0,0,1-2.577,2.486,2.314,2.314,0,0,1-2.693-2.139c-.26-3.372-.78-6.745-.308-10.088A16.345,16.345,0,0,1,283.435,258a13.1,13.1,0,0,0,1.31-16.885c-4.36-6.229-13.181-7.944-18.894-3.025-5.015,4.336-10.43,5.3-16.727,4.779a410.413,410.413,0,0,0-55.4-.771c-5.049.265-10.117.482-15.142.9a16.579,16.579,0,0,1-12.762-4.283A13.271,13.271,0,0,0,144.8,243.32c-2.293,5.155-1.638,10.17,2.226,14.25,4.09,4.336,5.444,9.182,5.087,14.983a832.188,832.188,0,0,0-.766,84.138c.231,5.714.482,11.427.809,17.136a16.55,16.55,0,0,1-4.76,12.945,13.372,13.372,0,0,0,18.538,19.251,16.3,16.3,0,0,1,12.429-4.211,457.719,457.719,0,0,0,53.056,1.151c6.918-.284,13.836-.636,20.715-1.151a16.936,16.936,0,0,1,12.921,4.365,13.3,13.3,0,0,0,21.578-6.475,12.244,12.244,0,0,0-2.943-12.554c-4.023-4.172-5.391-8.965-5.034-14.645,1.546-24.594,1.792-49.211,1.142-73.843-.092-3.493-.222-6.981-.332-10.473-.067-2.182.964-3.551,2.664-3.57s2.645,1.132,2.736,3.315c.771,18.841.848,37.683.4,56.529-.236,9.813-.568,19.622-1.228,29.411a11.882,11.882,0,0,0,3.372,9.322c5.015,5.439,6.557,11.89,4.124,18.894s-7.385,11.191-14.732,12.463c-.125,0-.226.217-.337.332h-5.781c-.12-.116-.226-.3-.366-.332a19.877,19.877,0,0,1-9.635-4.967,9.761,9.761,0,0,0-7.506-2.409c-6.484.424-12.969.877-19.463,1.137a477.224,477.224,0,0,1-55.744-1.118,10.444,10.444,0,0,0-8.281,2.751,18.375,18.375,0,0,1-6.109,3.743c-1.248.482-2.544.8-3.815,1.2Z" transform="translate(0 0)" fill="#0b481e"/>
      <path id="Trazado_124103" data-name="Trazado 124103" d="M183,605.545c1.272-.4,2.568-.737,3.815-1.2a18.375,18.375,0,0,0,6.109-3.743,10.445,10.445,0,0,1,8.281-2.751,477.225,477.225,0,0,0,55.744,1.118c6.494-.26,12.978-.713,19.463-1.137a9.8,9.8,0,0,1,7.506,2.409,19.877,19.877,0,0,0,9.635,4.967c.14.029.246.217.366.332Z" transform="translate(-23.27 -190.663)" fill="#0b481e"/>
      <path id="Trazado_124104" data-name="Trazado 124104" d="M223.054,421.657l-5.2-.347c-.482-2.264-1.1-2.765-3.589-2.891a8.715,8.715,0,0,1-8.488-7.843,217.885,217.885,0,0,1,0-45.767A8.672,8.672,0,0,1,214.1,357c1.744-.087,3.483-.207,5.227-.3a582.821,582.821,0,0,1,66.217.3,8.7,8.7,0,0,1,8.315,7.824,217.889,217.889,0,0,1,0,45.767,8.6,8.6,0,0,1-7.963,7.78c-5.164.337-10.334.554-15.508.761-14.559.583-29.117.448-43.681-.048C224.316,418.988,223.8,419.388,223.054,421.657Zm26.8-43.5h33.207c2.891,0,4.263-.886,4.278-2.727s-1.344-2.722-4.249-2.722h-66.6c-2.862,0-4.249.93-4.186,2.789s1.407,2.659,4.162,2.659Zm0,12.246h33.207c2.919,0,4.268-.853,4.283-2.693s-1.373-2.756-4.239-2.756H216.5a10.8,10.8,0,0,0-1.975.13,2.65,2.65,0,0,0,.135,5.241,14.253,14.253,0,0,0,1.98.072Zm-.029,12.28h24.748c2.765,0,4.09-.867,4.119-2.674s-1.349-2.775-4.22-2.775h-49.3a10.779,10.779,0,0,0-1.975.12,2.654,2.654,0,0,0,.087,5.246,11.844,11.844,0,0,0,1.8.077Z" transform="translate(-34.448 -65.307)" fill="#0b481e"/>
      <path id="Trazado_124105" data-name="Trazado 124105" d="M217.238,415.817c.747-2.269,1.262-2.669,3.656-2.587,14.563.482,29.122.631,43.681.048,5.174-.207,10.343-.424,15.508-.761a8.594,8.594,0,0,0,7.963-7.78,217.887,217.887,0,0,0,0-45.767,8.7,8.7,0,0,0-8.315-7.824,582.8,582.8,0,0,0-66.217-.3c-1.744.092-3.483.212-5.227.3a8.672,8.672,0,0,0-8.325,7.809,217.89,217.89,0,0,0,0,45.767,8.726,8.726,0,0,0,8.489,7.843c2.491.14,3.117.641,3.589,2.891-.65,2.129-1.272,2.568-3.5,2.524a14.246,14.246,0,0,1-14.048-13.224,231.111,231.111,0,0,1-.7-37.3,89.605,89.605,0,0,1,1.026-10.411,14.027,14.027,0,0,1,13.118-11.307c19.063-1.113,38.136-1.445,57.223-.7,5.588.217,11.22.135,16.746,1.007A13.775,13.775,0,0,1,293.466,358.6a226.675,226.675,0,0,1,0,46.508,14.212,14.212,0,0,1-13.33,12.877q-29.488,1.744-59.015.674C218.486,418.563,217.859,418.119,217.238,415.817Z" transform="translate(-28.632 -59.467)" fill="#0b481e"/>
      <path id="Trazado_124106" data-name="Trazado 124106" d="M207.343,556.23a2.809,2.809,0,1,1-2.794,2.734,2.809,2.809,0,0,1,2.794-2.734Z" transform="translate(-34.437 -169.126)" fill="#0b481e"/>
      <path id="Trazado_124107" data-name="Trazado 124107" d="M229.374,558.792a2.683,2.683,0,0,1-2.63,2.838,2.606,2.606,0,0,1-2.751-2.693,2.659,2.659,0,0,1,2.6-2.847,2.707,2.707,0,0,1,2.785,2.7Z" transform="translate(-44.511 -169.052)" fill="#0b481e"/>
      <path id="Trazado_124108" data-name="Trazado 124108" d="M383.021,294.237a2.741,2.741,0,0,1-2.606,2.891,2.813,2.813,0,0,1-.144-5.617,2.732,2.732,0,0,1,2.751,2.727Z" transform="translate(-124.16 -31.935)" fill="#0b481e"/>
      <path id="Trazado_124109" data-name="Trazado 124109" d="M389.932,274.91a2.688,2.688,0,0,1,2.7,2.77,2.63,2.63,0,0,1-2.654,2.789,2.732,2.732,0,0,1-2.746-2.751A2.77,2.77,0,0,1,389.932,274.91Z" transform="translate(-129.111 -23.332)" fill="#0b481e"/>
      <path id="Trazado_124110" data-name="Trazado 124110" d="M216.958,545.2a2.616,2.616,0,0,1-2.645-2.794,2.674,2.674,0,0,1,2.707-2.756,2.765,2.765,0,0,1,2.693,2.813,2.722,2.722,0,0,1-2.756,2.736Z" transform="translate(-39.495 -160.533)" fill="#0b481e"/>
      <path id="Trazado_124111" data-name="Trazado 124111" d="M399.722,291.38a2.659,2.659,0,0,1,2.659,2.794,2.616,2.616,0,0,1-2.7,2.741,2.77,2.77,0,0,1,.039-5.535Z" transform="translate(-134.199 -31.868)" fill="#0b481e"/>
      <path id="Trazado_124112" data-name="Trazado 124112" d="M258.166,396.229H224.78c-2.756,0-4.1-.867-4.162-2.659s1.325-2.789,4.186-2.789h66.6c2.891,0,4.259.872,4.249,2.722s-1.392,2.727-4.278,2.727Z" transform="translate(-42.764 -83.382)" fill="#0b481e"/>
      <path id="Trazado_124113" data-name="Trazado 124113" d="M258.188,421.65H224.981a14.244,14.244,0,0,1-1.98-.072,2.65,2.65,0,0,1-.135-5.241,10.807,10.807,0,0,1,1.975-.13h66.6c2.866,0,4.254.911,4.239,2.756s-1.363,2.693-4.283,2.693Z" transform="translate(-42.791 -96.557)" fill="#0b481e"/>
      <path id="Trazado_124114" data-name="Trazado 124114" d="M267.477,447.138H242.734a11.848,11.848,0,0,1-1.8-.077,2.654,2.654,0,0,1-.087-5.246,10.777,10.777,0,0,1,1.975-.12h49.3c2.891,0,4.254.915,4.22,2.775s-1.354,2.669-4.119,2.674Z" transform="translate(-52.105 -109.765)" fill="#0b481e"/>
    </g>
    <g id="Grupo_5" data-name="Grupo 5" transform="translate(412.183 1193.831)">
      <rect id="Rectángulo_4911-5" data-name="Rectángulo 4911" width="590" height="172.206" rx="21" fill="#ffd947"/>
      <g id="Grupo_20709-5" data-name="Grupo 20709" transform="translate(43 89.783)">
        <g id="Grupo_20708-6" data-name="Grupo 20708">
          <text id="Sirve_como_fuente_de_energía_para_los_microorganismos_que_descomponen_los_materiales_orgánicos._Además_provee_cierta_cantidad_de_boro_calcio_y_otros_nutrimentos." data-name="Sirve como fuente de energía para los microorganismos que descomponen los materiales orgánicos. Además provee cierta cantidad de boro, calcio y otros nutrimentos." fill="#12263f" font-size="16" font-family="Roboto-Regular, Roboto"><tspan x="0" y="15">Sirve como fuente de energía para los microorganismos que </tspan><tspan x="0" y="37">descomponen los materiales orgánicos. Además provee cierta cantidad </tspan><tspan x="0" y="59">de boro, calcio y otros nutrimentos.</tspan></text>
        </g>
      </g>
    </g>
    <rect id="Rectángulo_6" data-name="Rectángulo 6" width="155" height="46" transform="translate(624 1222.614)" fill="#0b481e"/>
    <text id="Melaza" transform="translate(652 1232.831)" fill="#fff" font-size="20" font-family="Roboto-Regular, Roboto"><tspan x="17.71" y="19">Melaza</tspan></text>
    <g id="melaza-01" transform="translate(472.783 793.953)">
      <path id="Trazado_124146" data-name="Trazado 124146" d="M277.53,248.9c4.87,4.017,9.866,7.466,1.506,13.527-3.575,2.586-.663,9.61,3.781,11.443,10.434,4.308,18.221,8.169,17.915,25.8-.547,31.266-.793,62.568.126,93.819.437,14.7-2.375,26.079-16.876,32.175H175.507c-1.506-5.2-7.908-5.383-10.183-10.394-1.8-3.962-3.439-7.532-3.424-11.965.1-35.65.04-71.3.055-106.949,0-10.8,5.523-18.252,15.982-21.817,7.607-2.586,9.239-8.415,3.56-13.918-3.239-3.138-4.017-5.965-.07-8.536,3.153-2.059,2.847-4.84,3.083-7.843.547-6.889,4.77-11.373,11.584-11.4,20.827-.105,41.675.161,62.487.286,3.013,2.511,6.186,4.835,7.1,9.038C267.744,251.675,267.855,251.705,277.53,248.9ZM231.271,413.866c14.059,0,28.118.045,42.147,0,12.638-.055,16.188-3.545,16.208-16.022q.085-40.671,0-81.306c0-9.415-.467-9.756-9.851-7.1-2.164.613-4.313,1.31-6.417,2.109a34.841,34.841,0,0,1-26.406-.151,39.858,39.858,0,0,0-31.432,0c-9.008,3.69-18.076,3.409-27.114-.035a81.287,81.287,0,0,0-9.334-2.832c-4.152-1.034-6.306-.206-6.261,5.021.246,28.856.03,57.742.166,86.573.05,9.686,4.238,13.672,13.873,13.733C201.657,413.946,216.464,413.876,231.271,413.866Z" transform="translate(0 0)" fill="#0b481e"/>
      <path id="Trazado_124147" data-name="Trazado 124147" d="M373.4,249.211c-9.676,2.807-9.786,2.777-11.85-6.733-.914-4.208-4.077-6.527-7.1-9.038,2.977.141,6.025-.1,8.927.5C371.682,235.629,373.3,241.986,373.4,249.211Z" transform="translate(-95.869 -0.313)" fill="#adce32"/>
      <path id="Trazado_124148" data-name="Trazado 124148" d="M242.11,488.418c-14.807,0-29.624.075-44.421,0-9.635-.085-13.823-4.072-13.853-13.763-.136-28.856.08-57.717-.166-86.573-.045-5.242,2.109-6.07,6.261-5.021a81.287,81.287,0,0,1,9.334,2.832c9.063,3.444,18.126,3.726,27.114.035a39.944,39.944,0,0,1,31.432,0,34.818,34.818,0,0,0,26.406.151c2.1-.8,4.253-1.506,6.417-2.109,9.384-2.656,9.851-2.315,9.851,7.1v81.306c0,12.477-3.57,15.967-16.208,16.022C270.2,488.459,256.138,488.413,242.11,488.418Z" transform="translate(-10.839 -74.548)" fill="#adce32"/>
    </g>
    <g id="Grupo_6" data-name="Grupo 6" transform="translate(413.183 1552.317)">
      <rect id="Rectángulo_4911-6" data-name="Rectángulo 4911" width="590" height="123.683" rx="21" fill="#ffd947"/>
      <g id="Grupo_20709-6" data-name="Grupo 20709" transform="translate(42 82.836)">
        <g id="Grupo_20708-7" data-name="Grupo 20708">
          <text id="Constituyen_una_fuente_rica_de_nutrimentos_para_los_microorganismos." data-name="Constituyen una fuente rica de nutrimentos para los microorganismos." fill="#12263f" font-size="16" font-family="Roboto-Regular, Roboto"><tspan x="0" y="15">Constituyen una fuente rica de nutrimentos para los microorganismos.</tspan></text>
        </g>
      </g>
    </g>
    <rect id="Rectángulo_7" data-name="Rectángulo 7" width="193.329" height="46" transform="translate(610 1571.317)" fill="#0b481e"/>
    <text id="Residuos_vegetales" data-name="Residuos vegetales" transform="translate(601 1584.317)" fill="#fff" font-size="20" font-family="Helvetica"><tspan x="18.725" y="15">Residuos vegetales</tspan></text>
    <g id="residuos_vegetales-01" data-name="residuos vegetales-01" transform="translate(443.317 1091.785)">
      <path id="Trazado_124150" data-name="Trazado 124150" d="M250.285,482.761c-4.232,0-8.464.056-12.7,0A8.717,8.717,0,0,1,228.8,474.3c-.1-11.363,0-22.732,0-34.1a5.889,5.889,0,0,1,.2-1.03c1.128,5.424,2.6,10.8,3.3,16.279,1.058,8.252,5.374,16.152,2.892,24.827a1.234,1.234,0,0,0,1.15,1.5,1.3,1.3,0,0,0,1.629-.995c.494-2.363,1.594-4.549,1.044-7.187-2.666-12.745-5.114-25.532-7.758-38.277-.367-1.77.226-1.834,1.622-1.848,1.531,0,1.622,1.178,2,2.067Q241,449.7,247.013,463.915c1.538,3.632,4.048,7.173,1.7,11.412a1.269,1.269,0,0,0-.085.522,1.411,1.411,0,0,0,1.15,1.545,1.22,1.22,0,0,0,1.488-.825c.705-2.821,2.25-5.332.8-8.57-4.937-11.073-9.557-22.316-14.48-33.4-.889-2-.2-3.089,1.171-3.886s1.622.945,2.116,1.622c5.748,7.582,11.348,15.27,17.125,22.831,2.285,2.991,4.655,5.791,2.5,9.874a1.96,1.96,0,0,0-.042,1.037,1.312,1.312,0,0,0,1.03,1.079,1.262,1.262,0,0,0,1.411-.466c1.467-1.545,1.756-7.363.458-9.106q-9.945-13.359-19.9-26.7c-1.206-1.615-2.56-3.082-1.982-5.417.289-1.164-.614-2.151-1.255-3.1-2.857-4.232-5.7-8.464-8.612-12.7a6.877,6.877,0,0,1-1.248-4.161q.074-26.978,0-53.942c0-2.454.437-3.23,3.1-3.223,26.527.12,53.054.078,79.587.085,6.03,0,7.758,1.707,7.758,7.639v117.4c0,6.1-1.6,7.758-7.61,7.758H253.692C252.38,481.217,250.793,480.765,250.285,482.761ZM295,406.722a66.68,66.68,0,0,0-14.29-38.038c-4.937-6.383-7.37-6.348-12.336,0-8.146,10.453-13.133,22.323-14.057,35.555-.924,13.641,4.232,24.961,14.946,33.531,4.232,3.393,6.291,3.343,10.544,0C289.741,429.99,294.48,419.608,295,406.722ZM234.571,364.84v6.348c0,1.679.381,3.04,2.356,3.1s2.821-1.192,2.864-3.012c.049-2.462,0-4.937,0-7.385a54.065,54.065,0,0,0-.148-6.052,2.531,2.531,0,0,0-2.821-2.532c-1.777.148-2.285,1.354-2.271,2.955C234.571,360.439,234.571,362.64,234.571,364.84Zm5.226,17.823c0-2,0-4.2-2.525-4.5-1.918-.226-2.821,1.27-2.68,3.117.141,2.116-.959,4.9,2.349,5.593a2.389,2.389,0,0,0,2.469-1.629,5.7,5.7,0,0,0,.388-2.581Z" transform="translate(-19.065 -13.355)" fill="#adce32"/>
      <path id="Trazado_124151" data-name="Trazado 124151" d="M231.22,469.406c.473-2,2.116-1.545,3.428-1.545h59.493c6.009,0,7.61-1.629,7.61-7.758V342.718c0-5.932-1.735-7.639-7.758-7.639q-39.8,0-79.587-.085c-2.659,0-3.11.769-3.1,3.223q.159,26.968,0,53.942a6.877,6.877,0,0,0,1.248,4.161c2.913,4.19,5.755,8.464,8.612,12.7.642.945,1.545,1.933,1.255,3.1-.578,2.335.776,3.8,1.982,5.417q9.973,13.33,19.9,26.7c1.3,1.742,1.009,7.561-.458,9.106a1.262,1.262,0,0,1-1.411.465,1.312,1.312,0,0,1-1.03-1.079,1.961,1.961,0,0,1,.042-1.037c2.151-4.056-.219-6.856-2.5-9.874-5.777-7.561-11.377-15.249-17.125-22.831-.515-.705-.755-2.426-2.116-1.622s-2.06,1.883-1.171,3.886c4.937,11.087,9.508,22.33,14.48,33.4,1.453,3.237-.071,5.777-.8,8.57a1.22,1.22,0,0,1-1.488.825,1.411,1.411,0,0,1-1.15-1.545,1.27,1.27,0,0,1,.085-.522c2.349-4.232-.162-7.758-1.7-11.412q-5.981-14.247-12.124-28.354c-.381-.889-.473-2.116-2-2.067-1.411,0-1.989.078-1.622,1.848,2.638,12.745,5.085,25.532,7.758,38.277.55,2.638-.55,4.824-1.044,7.187a1.3,1.3,0,0,1-1.629.994,1.234,1.234,0,0,1-1.15-1.5c2.483-8.675-1.834-16.575-2.892-24.827-.705-5.48-2.172-10.855-3.3-16.279a39.224,39.224,0,0,1-.705-3.893c-.113-1.3-.564-1.855-1.954-1.792-1.657.071-1.185,1.22-1.185,2.067v46.544c0,1.079-.24,2.052-1.5,2.024-1.079,0-1.411-.91-1.354-1.9V422.6c0-.832.811-2.194-1.037-2.44s-1.9.882-2.158,2.179q-3.8,19.043-7.7,38.03c-.416,2.024.261,3.837.705,5.7.268,1.044.36,2-.882,2.356s-1.693-.571-1.982-1.566a16.406,16.406,0,0,1-.543-8.273c2.532-11.786,4.881-23.607,7.187-35.442.169-.875,1.411-2.257-.176-2.878-1.763-.705-2.574.487-3.237,2.067-4.4,10.453-8.831,20.891-13.4,31.281-1.1,2.511-1.834,4.824-.585,7.5.444.959.868,2.44-.705,2.878s-1.672-1.079-2.116-2.116a10.343,10.343,0,0,1,.36-8.781c4.761-10.58,9.169-21.307,13.775-31.972.416-.959.973-1.763-.049-2.821-1.136-1.171-1.707-1.516-2.878.1-6.595,9.035-13.309,17.993-20.038,26.929a3.259,3.259,0,0,0-.705,3.378,21.991,21.991,0,0,1,.79,3.329,1.411,1.411,0,0,1-1.15,1.777,1.3,1.3,0,0,1-1.587-1.051c-.875-3.392-2.229-6.411.705-10.008,6.947-8.527,13.274-17.562,19.876-26.372.8-1.079,1.509-2.067,1.114-3.576-.353-1.361.395-2.539,1.157-3.661,2.885-4.232,5.685-8.464,8.612-12.7a7.18,7.18,0,0,0,1.347-4.4q-.049-42.721,0-85.427c0-1.319-.861-3.576,1.411-3.59,2.116,0,1.538,2.193,1.538,3.569q.056,41.79,0,83.579c0,2.454.444,3.407,3.117,3.266,4.352-.233,4.366-.056,4.366-4.345q0-40.993.035-81.993c0-1.488-.846-4.077,1.545-4.034s1.34,2.645,1.368,4.091c.127,5.9.056,11.793.056,18.021,2.222-1.263,4.091-2.553,6.348-2.934,1.411-.233.494-1.241.423-1.876-.882-7.928,3.78-14.459,11.461-15.806a13.013,13.013,0,0,1,11.652,3.639c1.009.952,1.446,1.411,2.821.233,4.493-3.809,9.747-3.068,14.607,1.834a16.732,16.732,0,0,1,8.189-4.979,14.939,14.939,0,0,1,18.479,13.267c.134,1.566.6,2.215,2.158,2.567,5.1,1.157,8.266,4.429,9.67,9.43.254.9.346,1.679,1.552,2.116,4.479,1.523,6.023,5.008,6.009,9.493q-.042,22.746,0,45.493v3.054c2.3-.889,4.324-1.657,6.348-2.462,1.143-.451.705-1.488.705-2.3,0-7.843-.1-15.693-.141-23.536,0-4.937,2.024-6.531,6.813-5.3,4.175,1.079,8.344,2.151,12.512,3.266,3.414.91,4.486,2.342,3.922,5.692a2.165,2.165,0,0,0,.832,2.229c1.143,1.1,2.306,2.179,3.414,3.315,2.469,2.532,2.44,4.937-.2,7.286-4,3.583-8.076,7.1-12.131,10.622-.451.395-.959.705-1.375,1.044,14.572,11.095,23.8,25.229,27.775,42.749a35.794,35.794,0,0,1,.148,15.736c-2.038,9.268-8.019,15.016-16.695,18.218-8.231,3.04-16.836,3.527-25.5,3.6-1.136,0-2.257-.2-2.264-1.615,0-1.664,1.34-1.608,2.49-1.587a73.328,73.328,0,0,0,20.927-2.215c9.522-2.624,16.511-7.977,18.211-18.275a39.847,39.847,0,0,0-2.377-20.454c-4.754-12.914-11.99-24.115-23.141-32.374-5.6-4.14-11.715-4.754-18.021-1.107a3.66,3.66,0,0,0-2.165,3.675q.134,31.605.12,63.21c0,7.561-3.209,10.791-10.763,10.791H234.69C233.385,470.873,231.763,471.353,231.22,469.406Zm21.667-137.24H291.75c2.821,0,3.1-.487,1.728-2.969-1.735-3.125-4.324-5.135-8-5.233-2.179-.056-3.125-.656-3-3.1a11.849,11.849,0,0,0-8.125-12.251c-5.226-1.827-10.5,0-13.958,4.69-1.672,2.257-2.342,2.236-3.675-.12-2.878-5.071-8.668-5.494-12.1-.882-1.693,2.278-2.116,2.278-3.773,0-3.378-4.641-8.95-6.15-13.768-3.731-5.078,2.553-7.187,7.956-5.191,13.648.705,2.052.367,2.955-1.961,2.962a8.273,8.273,0,0,0-7.617,4.387c-1.319,2.342-1.157,2.631,1.446,2.631Zm63.661,27.564c-1.8-.233-1.918,1.065-1.9,2.483l.3,19.791c.035,1.756-.5,3.886.3,5.17s3.259.663,4.824,1.326c1.94.818,3.216.2,4.641-1.129,3.012-2.821,6.207-5.459,9.3-8.21,5.008-4.45,5.248-3.1-.113-8.421-.917-.91-1.361-.656-1.982.254-1.411,2.031-2.821,4.027-4.3,6.009-.663.9-1.368,2.116-2.715,1.157s-.578-2,.12-2.976c2.151-3,4.3-6,6.461-8.993.938-1.291.9-2.292-.8-2.744-4.634-1.248-9.3-2.447-14.156-3.717ZM204.566,416.91a61.4,61.4,0,0,1,7.385.056c2.885.353,4.768-.86,6.538-2.892.995-1.136,1.114-1.94.233-3.174a70.429,70.429,0,0,1-5.981-8.979c-2.236-4.387-5.382-6.115-10.241-5.431-1.65.233-2.659.6-3.527,2.024-2.25,3.527-4.747,6.968-7.053,10.5-2.708,4.175-3.026,2.821.656,6.8a3.357,3.357,0,0,0,2.772,1.107C198.416,416.874,201.491,416.91,204.566,416.91Z" transform="translate(0)" fill="#0b481e"/>
      <path id="Trazado_124152" data-name="Trazado 124152" d="M407.308,491.017a29.341,29.341,0,0,0-1.806-9.874c-.388-1.213-.635-2.349.776-2.871,1.523-.564,1.989.705,2.349,1.806,1.827,5.494,2.821,11.088,1.488,16.843-2.186,9.585-10.008,13.7-17.633,15.256-.994.2-2.116.19-2.405-.98-.353-1.291.522-1.883,1.7-2.158,1.023-.24,2.024-.564,3.033-.875C403.4,505.5,407.357,500.137,407.308,491.017Z" transform="translate(-66.581 -51.601)" fill="#0b481e"/>
      <path id="Trazado_124153" data-name="Trazado 124153" d="M305.64,413.223c-.522,12.886-5.262,23.275-15.171,31.034-4.232,3.343-6.277,3.393-10.544,0-10.735-8.541-15.87-19.876-14.967-33.516.9-13.232,5.889-25.1,14.036-35.555,4.937-6.348,7.385-6.383,12.336,0A66.68,66.68,0,0,1,305.64,413.223Zm-22.048-39c-1.185,1.411-1.975,2.208-2.645,3.125a67.428,67.428,0,0,0-12.23,27.507c-2.56,13.33.473,25.151,10.446,34.779a11.149,11.149,0,0,0,4.535,3.181c0-8.386-.049-16.575.042-24.764a5.184,5.184,0,0,0-1.813-4.338,45.02,45.02,0,0,1-9.289-11.758c-.508-.924-.846-1.862.268-2.518s1.813.042,2.363.952c.409.705.783,1.411,1.22,2.038a35.7,35.7,0,0,0,7.1,8.464Zm3.132,20.454a18.841,18.841,0,0,0,4.641-4.937c.578-.776,1.333-1.227,2.257-.564a1.5,1.5,0,0,1,.247,2.32c-.705,1.009-1.3,2.278-2.292,2.864-5.276,3.125-5.417,8.034-4.937,13.239v17.125a30.935,30.935,0,0,0,9.8-7.639c.705-.818,1.467-2.116,2.779-1.065s.416,2.151-.423,3.117a35.428,35.428,0,0,1-10.255,8.2c-.818.437-1.876.642-1.869,1.926v14.106c10.58-7.871,15.989-17.837,15.771-30.378-.226-12.978-5.29-24.432-12.611-34.955a11.454,11.454,0,0,0-3.124-3.343Z" transform="translate(-29.703 -19.856)" fill="#0b481e"/>
      <path id="Trazado_124154" data-name="Trazado 124154" d="M237,367.736v-6.595c0-1.6.5-2.821,2.271-2.955a2.545,2.545,0,0,1,2.821,2.532,54.048,54.048,0,0,1,.148,6.052c0,2.462.035,4.937,0,7.385-.042,1.82-.853,3.075-2.864,3.012s-2.377-1.411-2.356-3.1C237,371.953,237,369.845,237,367.736Z" transform="translate(-21.494 -16.251)" fill="#fefefe"/>
      <path id="Trazado_124155" data-name="Trazado 124155" d="M242.207,395.11a5.7,5.7,0,0,1-.388,2.581,2.39,2.39,0,0,1-2.469,1.629c-3.308-.705-2.208-3.47-2.349-5.593-.12-1.848.762-3.343,2.68-3.117C242.2,390.879,242.221,393.079,242.207,395.11Z" transform="translate(-21.475 -25.802)" fill="#fefefe"/>
      <path id="Trazado_124156" data-name="Trazado 124156" d="M272.7,333.991H233.547c-2.6,0-2.765-.289-1.446-2.631a8.273,8.273,0,0,1,7.617-4.387c2.328,0,2.687-.91,1.961-2.962-2-5.692.113-11.095,5.191-13.648,4.817-2.419,10.389-.91,13.768,3.731,1.658,2.285,2.116,2.285,3.773,0,3.435-4.613,9.225-4.19,12.1.882,1.333,2.356,2,2.377,3.675.12,3.456-4.7,8.809-6.489,13.958-4.69a11.916,11.916,0,0,1,8.125,12.251c-.12,2.447.825,3.047,3,3.1,3.675.1,6.263,2.116,8,5.233,1.411,2.483,1.065,2.969-1.728,2.969H272.7Zm-6.961-13.69a11.482,11.482,0,0,0-9.627,5.008c-.55.755-.861,1.672,0,2.363a1.5,1.5,0,0,0,2.3-.346c3.188-4.161,7.11-5.092,11.821-2.765a1.411,1.411,0,0,0,2.052-.522,1.508,1.508,0,0,0-.762-2.2,10.474,10.474,0,0,0-5.8-1.538Zm34.878,6.545a2.722,2.722,0,0,0-.317-.945,9.035,9.035,0,0,0-7.145-3.315,8.837,8.837,0,0,0-6.834,2.821,1.3,1.3,0,0,0,.141,1.89,1.333,1.333,0,0,0,1.9.155c3.393-2.511,6.588-2.215,9.769.487,1.171,1.023,2.081.381,2.476-1.093Z" transform="translate(-19.812 -1.824)" fill="#ffd947"/>
      <path id="Trazado_124157" data-name="Trazado 124157" d="M379.446,383.409c4.853,1.27,9.522,2.469,14.177,3.717,1.693.451,1.735,1.453.8,2.744-2.165,2.991-4.309,6-6.461,8.993-.705.973-1.411,2.06-.12,2.976s2.052-.254,2.715-1.157c1.46-1.982,2.913-3.978,4.3-6.009.621-.91,1.065-1.164,1.982-.254,5.36,5.318,5.121,3.971.113,8.421-3.089,2.751-6.284,5.382-9.3,8.21-1.411,1.333-2.7,1.947-4.641,1.129-1.566-.663-4.006,0-4.824-1.326s-.268-3.414-.3-5.17l-.339-19.791C377.528,384.474,377.648,383.176,379.446,383.409Z" transform="translate(-62.912 -23.679)" fill="#fefefe"/>
      <path id="Trazado_124158" data-name="Trazado 124158" d="M215.335,455.89c-3.075,0-6.15-.035-9.233,0a3.357,3.357,0,0,1-2.772-1.107c-3.682-4-3.364-2.624-.656-6.8,2.292-3.527,4.789-6.94,7.053-10.5a4.244,4.244,0,0,1,3.527-2.024c4.86-.705,8.005,1.044,10.241,5.431a73.556,73.556,0,0,0,5.981,8.979c.882,1.234.762,2.038-.233,3.174-1.77,2.031-3.654,3.244-6.538,2.892A64.16,64.16,0,0,0,215.335,455.89Z" transform="translate(-10.769 -38.98)" fill="#fefefe"/>
      <path id="Trazado_124159" data-name="Trazado 124159" d="M284.844,375.82v36.613a35.694,35.694,0,0,1-7.1-8.464c-.437-.656-.811-1.361-1.22-2.038-.55-.91-1.277-1.587-2.363-.952s-.776,1.594-.268,2.518a45.019,45.019,0,0,0,9.289,11.758,5.184,5.184,0,0,1,1.813,4.338c-.092,8.189-.042,16.377-.042,24.764a11.148,11.148,0,0,1-4.535-3.181c-9.973-9.628-13.006-21.449-10.446-34.779a67.429,67.429,0,0,1,12.23-27.507C282.869,378.063,283.659,377.2,284.844,375.82Z" transform="translate(-30.955 -21.45)" fill="#ffa686"/>
      <path id="Trazado_124160" data-name="Trazado 124160" d="M295.756,396.446v-20a11.454,11.454,0,0,1,3.125,3.343c7.321,10.523,12.385,21.978,12.611,34.955.219,12.54-5.205,22.507-15.771,30.378V431.02c0-1.284,1.051-1.488,1.869-1.926a35.427,35.427,0,0,0,10.255-8.182c.839-.966,1.8-2.01.423-3.117s-2.067.247-2.779,1.065a30.935,30.935,0,0,1-9.8,7.639V409.374c-.494-5.205-.353-10.114,4.937-13.239.987-.585,1.594-1.855,2.292-2.864a1.512,1.512,0,0,0-.247-2.32c-.91-.642-1.679-.212-2.257.564A19.771,19.771,0,0,1,295.756,396.446Z" transform="translate(-38.736 -21.636)" fill="#ffa686"/>
      <path id="Trazado_124161" data-name="Trazado 124161" d="M275.862,324.928a10.474,10.474,0,0,1,5.769,1.538,1.508,1.508,0,0,1,.762,2.2,1.411,1.411,0,0,1-2.052.522c-4.711-2.328-8.633-1.411-11.821,2.765a1.5,1.5,0,0,1-2.3.346c-.846-.705-.536-1.608,0-2.363A11.483,11.483,0,0,1,275.862,324.928Z" transform="translate(-29.951 -6.452)" fill="#63261b"/>
      <path id="Trazado_124162" data-name="Trazado 124162" d="M323.443,332.433c-.409,1.474-1.3,2.116-2.49,1.107-3.181-2.7-6.348-3-9.769-.487a1.333,1.333,0,0,1-1.9-.155,1.3,1.3,0,0,1-.141-1.89,8.838,8.838,0,0,1,6.834-2.821,9.035,9.035,0,0,1,7.145,3.315,2.721,2.721,0,0,1,.317.931Z" transform="translate(-42.654 -7.411)" fill="#63261b"/>
    </g>
    <g id="Grupo_7" data-name="Grupo 7" transform="translate(414 1868.945)">
      <rect id="Rectángulo_4911-7" data-name="Rectángulo 4911" width="590" height="172.206" rx="21" fill="#ffd947"/>
      <g id="Grupo_20709-7" data-name="Grupo 20709" transform="translate(48 98.783)">
        <g id="Grupo_20708-8" data-name="Grupo 20708" transform="translate(-4)">
          <text id="Es_un_derivado_de_la_leche_es_un_fuerte_esterilizante_y_supresor_de_microorganismos_nocivos._Además_posee_propiedades_hormonales_y_fungistáticas_es_buen_descomponedor_de_materia_orgánica." data-name="Es un derivado de la leche, es un fuerte esterilizante y supresor de microorganismos nocivos. Además posee propiedades hormonales y fungistáticas, es buen descomponedor de materia orgánica." transform="translate(0 -11)" fill="#12263f" font-size="16" font-family="Roboto-Regular, Roboto"><tspan x="0" y="15">Es un derivado de la leche, es un fuerte esterilizante y supresor de </tspan><tspan x="0" y="37">microorganismos nocivos. Además posee propiedades hormonales y </tspan><tspan x="0" y="59">fungistáticas, es buen descomponedor de materia orgánica.</tspan></text>
        </g>
      </g>
    </g>
    <rect id="Rectángulo_8" data-name="Rectángulo 8" width="155" height="46" transform="translate(618 1893.728)" fill="#0b481e"/>
    <text id="Suero" transform="translate(645 1903.945)" fill="#fff" font-size="20" font-family="Roboto-Regular, Roboto"><tspan x="24.268" y="19">Suero</tspan></text>
    <g id="acido-lactico-01" transform="translate(469.654 1448.922)">
      <path id="Trazado_124164" data-name="Trazado 124164" d="M225.671,264.336c-21.184.132-39.856,7.043-55.8,21.035-15.583,13.684-25.071,30.837-27.99,51.365-3.3,23.265,1.944,44.493,16.013,63.419a80.731,80.731,0,0,0,14.769,15.192c.1.088.215.171.325.253,1.178.925,1.729,2.1.738,3.381-1.068,1.371-2.335.782-3.436-.1A89.838,89.838,0,0,1,157.991,407a86.667,86.667,0,0,1-19.064-37.946c-5.275-24.091-1.558-46.75,11.7-67.576,12.7-19.956,30.715-32.868,53.639-38.8a82.886,82.886,0,0,1,24.7-2.649c20.209.953,38.259,7.709,53.8,20.749a87.945,87.945,0,0,1,29.443,46.883,83.983,83.983,0,0,1,2.632,24.7c-.958,19.972-7.472,37.874-20.33,53.325-2.021,2.423-4.224,4.7-6.349,7.043a6.843,6.843,0,0,1-1.046.991c-1.1.809-2.28,1.178-3.3,0s-.468-2.164.441-3.084c2.2-2.2,4.372-4.378,6.371-6.751a82.241,82.241,0,0,0,19.009-41.85c3.045-21.1-.859-40.847-12.483-58.76-13.188-20.325-31.894-32.8-55.671-37.588a69.97,69.97,0,0,0-15.809-1.36Z" transform="translate(0 0)" fill="#ffa686"/>
      <path id="Trazado_124165" data-name="Trazado 124165" d="M312.567,369.9a2.036,2.036,0,0,1-1.31,2.379,1.922,1.922,0,0,1-2.34-.826,5.311,5.311,0,0,1-.551-1.1c-9.2-23.777-21.024-46.282-33.3-68.567-2.985-5.418-6.1-10.76-9.091-16.178-.76-1.377-1.1-1.366-1.9,0-12.72,22.2-24.917,44.658-35.429,68.006-.666,1.481-1.151,3.342-3.447,2.627-1.459-.457-1.525-1.751-.314-4.405,11.244-24.878,24.273-48.76,37.956-72.3,1.4-2.406,3.018-2.4,4.433.055,15.418,26.679,30.22,53.667,42.147,82.13.986,2.346,1.878,4.725,2.8,7.092A11.366,11.366,0,0,1,312.567,369.9Z" transform="translate(-39.281 -7.992)" fill="#0b481e"/>
      <path id="Trazado_124166" data-name="Trazado 124166" d="M258.021,538.568c-30.044-.088-52.659-19.691-56.475-46.013a40.314,40.314,0,0,1-.187-12.114c.237-1.525.4-3.1,2.362-2.94,2.2.176,1.911,1.944,1.779,3.475-1.355,15.3,3.568,28.469,14.449,39.036,14.317,13.887,31.563,17.973,50.451,11.767,18.172-5.98,29.03-19.124,33-37.879.072-.336.072-.688.16-1.019.347-1.311,1.156-2.076,2.555-1.768a1.965,1.965,0,0,1,1.52,2.522,45,45,0,0,1-3.855,12.99C293.863,527.241,277.228,537.561,258.021,538.568Z" transform="translate(-28.925 -97.748)" fill="#0b481e"/>
      <path id="Trazado_124167" data-name="Trazado 124167" d="M305.979,402.709c0-1.305-.1-2.621,0-3.915a10.548,10.548,0,0,0-2.753-8.651c-4.405-4.994-3.3-12.874,1.773-17.131s13.039-3.816,17.351.975c4.681,5.209,4.625,12.637-.3,17.417a4.917,4.917,0,0,0-1.652,4.124c.1,2.4,0,4.8,0,7.208l-4.113-1.905v-4.51c.028-1.013-.149-1.564-1.382-1.2a6.168,6.168,0,0,1-3.447,0c-1.228-.358-1.421.187-1.393,1.2.044,1.5.028,3.007.039,4.51a19.152,19.152,0,0,0-4.124,1.878Zm-1.233-19.956a8.464,8.464,0,1,0,8.414-8.519,8.26,8.26,0,0,0-8.414,8.519Z" transform="translate(-73.628 -49.486)" fill="#f8b189"/>
      <path id="Trazado_124168" data-name="Trazado 124168" d="M342.97,456.705c1.586.964,3.21,1.872,4.741,2.913a1.692,1.692,0,0,0,2.45-.154c4.906-4,10.859-4.35,15.611-1.068a12.665,12.665,0,0,1-7.671,23.05,12.984,12.984,0,0,1-11.718-9.455,11.74,11.74,0,0,1,.116-6.7,1.445,1.445,0,0,0-.76-2,39.127,39.127,0,0,0-5.16-2.974Zm24.042,12.2a8.183,8.183,0,0,0-8.166-8.513,8.563,8.563,0,0,0-8.755,8.5,8.859,8.859,0,0,0,8.519,8.414,8.557,8.557,0,0,0,8.4-8.4Z" transform="translate(-91.649 -88.169)" fill="#f8b189"/>
      <path id="Trazado_124169" data-name="Trazado 124169" d="M227.783,451.542a19.467,19.467,0,0,1-2.974-1.812c-1.4-1.222-2.445-1.035-3.855.088a12.494,12.494,0,0,1-17.858-2.753,12.715,12.715,0,0,1-.352-14c2.561-4.1,7.709-6.575,12.158-5.853a12.978,12.978,0,0,1,10.782,9.537,11.244,11.244,0,0,1-.149,6.5,1.95,1.95,0,0,0,1.03,2.676c1.156.721,2.241,1.564,3.359,2.357Q228.84,449.917,227.783,451.542ZM205,439.747a8.188,8.188,0,0,0,8.221,8.458,8.546,8.546,0,0,0,8.695-8.359c.11-4.405-4.042-8.552-8.579-8.557A8.523,8.523,0,0,0,205,439.747Z" transform="translate(-28.846 -75.098)" fill="#f8b189"/>
      <path id="Trazado_124170" data-name="Trazado 124170" d="M249.03,465.508q1.057-1.652,2.12-3.254c3.409-2.951,7.159-4.758,11.845-3.855a13.557,13.557,0,0,1,7.076,3.915l2.362,3.568c1.916,6.112.606,11.272-4.537,15.286L263.49,483.2H257.7l-4.042-1.779C248.314,477.237,246.943,471.874,249.03,465.508Zm11.564-3.117a8.408,8.408,0,1,0,7.485,4.084,8.409,8.409,0,0,0-7.485-4.084Z" transform="translate(-50.093 -89.065)" fill="#ffa686"/>
      <path id="Trazado_124171" data-name="Trazado 124171" d="M267.905,518.379c8.386,6.3,6.465,17.692-1.569,21.707a12.593,12.593,0,0,1-14.4-20.269c.589-.551,1.206-1.1,1.812-1.685l4.031-1.751a34.144,34.144,0,0,1,5.765,0,21.637,21.637,0,0,1,4.361,2ZM252.3,528.842a8.519,8.519,0,0,0,8.552,8.486,8.684,8.684,0,0,0,8.364-8.546,8.508,8.508,0,0,0-8.623-8.392,8.26,8.26,0,0,0-8.3,8.436Z" transform="translate(-50.13 -115.169)" fill="#ffa686"/>
      <path id="Trazado_124172" data-name="Trazado 124172" d="M325.048,442.925l-2.39,3.612c-6.129,5.633-12.307,5.611-18.937-.061l-2.2-3.265c-.551-2.539-1.162-5.072-.6-7.709a13.583,13.583,0,0,1,5.182-7.9,19.152,19.152,0,0,1,4.152-1.872,21.432,21.432,0,0,1,6.167,0l4.113,1.905C325.521,431.692,326.991,436.791,325.048,442.925Zm-20.214-4.791a8.524,8.524,0,0,0,8.4,8.436A8.645,8.645,0,0,0,321.755,438a8.436,8.436,0,0,0-8.662-8.364,8.326,8.326,0,0,0-8.26,8.5Z" transform="translate(-73.727 -74.389)" fill="#0b481e"/>
      <path id="Trazado_124173" data-name="Trazado 124173" d="M280.405,511.047A21.638,21.638,0,0,0,276,509.07v-7.1l4.405-2.032Z" transform="translate(-62.63 -107.836)" fill="#f8b189"/>
      <path id="Trazado_124174" data-name="Trazado 124174" d="M295.792,457.66l2.2,3.265-7.649,4.73L288,462.087C290.753,460.914,292.956,458.712,295.792,457.66Z" transform="translate(-68.022 -88.837)" fill="#f8b189"/>
      <path id="Trazado_124175" data-name="Trazado 124175" d="M262.271,509.268l-4.031,1.751V500.43l4.042,1.779Q262.265,505.738,262.271,509.268Z" transform="translate(-54.65 -108.056)" fill="#f8b189"/>
      <path id="Trazado_124176" data-name="Trazado 124176" d="M308.227,386.137a8.26,8.26,0,0,1,8.414-8.519,8.464,8.464,0,1,1-8.414,8.519Z" transform="translate(-77.109 -52.87)" fill="#fefefe"/>
      <path id="Trazado_124177" data-name="Trazado 124177" d="M324.144,421.169a21.432,21.432,0,0,0-6.167,0c0-1.5,0-3.007-.039-4.51-.027-1.013.165-1.558,1.393-1.2a6.168,6.168,0,0,0,3.447,0c1.233-.363,1.41.187,1.382,1.2C324.122,418.162,324.144,419.665,324.144,421.169Z" transform="translate(-81.474 -69.824)" fill="#fefefe"/>
      <path id="Trazado_124178" data-name="Trazado 124178" d="M374.772,472.351a8.572,8.572,0,0,1-8.4,8.4,8.88,8.88,0,0,1-8.519-8.414,8.563,8.563,0,0,1,8.755-8.5A8.183,8.183,0,0,1,374.772,472.351Z" transform="translate(-99.409 -91.613)" fill="#fefefe"/>
      <path id="Trazado_124179" data-name="Trazado 124179" d="M208.42,443.178a8.545,8.545,0,0,1,8.337-8.458c4.482.011,8.689,4.146,8.579,8.557a8.546,8.546,0,0,1-8.695,8.359A8.181,8.181,0,0,1,208.42,443.178Z" transform="translate(-32.263 -78.529)" fill="#fefefe"/>
      <path id="Trazado_124180" data-name="Trazado 124180" d="M263.855,465.836a8.408,8.408,0,1,1-7.419,4.2A8.408,8.408,0,0,1,263.855,465.836Z" transform="translate(-53.332 -92.509)" fill="#0b481e"/>
      <path id="Trazado_124181" data-name="Trazado 124181" d="M265.56,510.719V503.66h5.793v7.1a34.149,34.149,0,0,0-5.793-.039Z" transform="translate(-57.939 -109.507)" fill="#fefefe"/>
      <path id="Trazado_124182" data-name="Trazado 124182" d="M255.649,532.2a8.26,8.26,0,0,1,8.3-8.43,8.508,8.508,0,0,1,8.623,8.386,8.684,8.684,0,0,1-8.37,8.524A8.519,8.519,0,0,1,255.649,532.2Z" transform="translate(-53.485 -118.543)" fill="#0b481e"/>
      <path id="Trazado_124183" data-name="Trazado 124183" d="M308.209,441.518a8.326,8.326,0,0,1,8.26-8.48,8.436,8.436,0,0,1,8.662,8.342,8.645,8.645,0,0,1-8.519,8.574A8.524,8.524,0,0,1,308.209,441.518Z" transform="translate(-77.102 -77.772)" fill="#fefefe"/>
    </g>
  </g>
</svg>
