<svg xmlns="http://www.w3.org/2000/svg" xmlns:xlink="http://www.w3.org/1999/xlink" width="154" height="160" viewBox="0 0 154 160">
  <defs>
    <clipPath id="clip-path">
      <ellipse id="Elipse_4912" data-name="Elipse 4912" cx="77" cy="80" rx="77" ry="80" transform="translate(1210.077 936.188)" fill="#fff" stroke="#707070" stroke-width="1"/>
    </clipPath>
  </defs>
  <g id="Enmascarar_grupo_1083815" data-name="Enmascarar grupo 1083815" transform="translate(-1210.077 -936.188)" clip-path="url(#clip-path)">
    <g id="granja-01" transform="translate(1188.533 906.434)">
      <path id="Trazado_124274" data-name="Trazado 124274" d="M463.757,590.938c-.861.322-.626,1.208-.871,1.814a11.183,11.183,0,0,1-10.371,7.219c-13.735.039-27.475,0-41.211,0a4.879,4.879,0,0,0-.732-.423c-6.425-2.435-9.38-7.975-7.662-14.27a11.324,11.324,0,0,1,13.7-7.628c1.559.4,1.843-.308,2.334-1.362,1.973-4.269,5.294-6.834,10.044-6.526,3.1.2,5.539.216,6.579-3.3.188-.635.857-1.131,1.3-1.689,2.96-1.954,6.021-3.369,9.75-2.594a11.222,11.222,0,0,1,8.995,13.75c-.318,1.347-.092,1.887,1.189,2.406a11.039,11.039,0,0,1,6.343,7.012c.154.433-.082,1.078.616,1.246Z" transform="translate(-220.634 -396.13)" fill="#0b481e"/>
      <path id="Trazado_124275" data-name="Trazado 124275" d="M283.177,409.623c-.489.566-1.227,1.068-1.434,1.711-1.147,3.564-3.841,3.545-7.261,3.345-5.222-.312-8.908,2.287-11.086,6.611-.531,1.068-.855,1.784-2.576,1.38-6.481-1.56-13.15,1.849-15.118,7.728-1.9,6.377,1.36,11.979,8.457,14.49a5.525,5.525,0,0,1,.807.429l-24.2.146c-3.038,0-6.082-.093-9.11.039-1.737.073-2.125-.488-2.1-1.989q.08-24.314,0-48.629c0-6.45-.053-12.906-.085-19.356,3.591-.054,7.187-.18,10.773-.132,1.594,0,2.056-.488,2.024-1.892-.085-3.9-.1-7.8,0-11.667.037-1.5-.393-2.058-2.125-2.009-3.756.112-7.511.034-11.272.034q-34.406,0-68.817-.039c-1.939,0-2.656.38-2.56,2.277.165,3.808.117,7.625,0,11.438-.037,1.463.5,1.877,2.05,1.858,3.586-.044,7.182.083,10.773.137q-.058,17.181-.106,34.353c0,11.155-.058,22.315.042,33.476,0,1.819-.648,2.14-2.444,2.135q-29.274-.083-58.543,0c-2.268,0-2.975-.609-2.656-2.555a18.454,18.454,0,0,0,0-2.438c-1.062.766-1.854,1.346-2.656,1.887a18.264,18.264,0,0,1-18.921.79c-5.556-3.15-8.961-9.615-7.883-15.231,1.3-6.787,5.509-11.272,12.855-13.013a20.052,20.052,0,0,1,9.7.332c.2,0,.5.117.579.039.186-.2,0-.351-.228-.439-4.961-4.486-7.272-9.751-5.466-16.148,1.45-5.124,5.046-8.571,10.369-10.507.946-.341,1.594-.561,1.594-1.76-.048-14.027,0-28.054,0-42.081,5.312-14.671,10.709-29.331,15.973-44.026a7,7,0,0,1,3.777-4.193q35.8-18.127,71.5-36.445a4.032,4.032,0,0,1,4.17,0q36.334,18.615,72.737,37.118a3.588,3.588,0,0,1,1.981,2.053q8.212,22.754,16.467,45.494c.531,6.879-.159,13.759.09,20.653.282,7.679-.085,15.382-.122,23.071C283.177,395.26,283.177,402.442,283.177,409.623Zm-93.209-73.187c14.018-.038,25.348-10.5,25.3-23.369s-11.452-23.261-25.471-23.212-25.338,10.521-25.28,23.388C164.62,326.078,175.984,336.434,189.968,336.436ZM143.339,312.98c0,4.027,0,4.027,4.3,4.027h.239c3.862,0,3.862,0,3.862-3.579,0-4.144,0-4.144-4.446-4.144C143.339,309.284,143.339,309.284,143.339,312.98Zm84.886.034c0,3.993,0,3.993,4.17,3.993,4.085,0,4.085,0,4.085-3.832s0-3.9-4.25-3.9C228.225,309.284,228.225,309.284,228.225,313.014Z" transform="translate(-66.956 -241.445)" fill="#ffa686"/>
      <path id="Trazado_124276" data-name="Trazado 124276" d="M285.447,324.194q-8.187-22.451-16.333-44.907a3.55,3.55,0,0,0-1.965-2.026q-36.1-18.288-72.143-36.639a4.015,4.015,0,0,0-4.136,0q-35.416,18.052-70.915,35.974a6.919,6.919,0,0,0-3.746,4.139c-5.221,14.505-10.537,28.977-15.843,43.458-6.138,1.1-12.3,2.137-18.414,3.34-1.876.366-2.819.217-3.261-1.733-.89-3.966-2.018-7.893-3.161-11.8-.342-1.16-.126-1.473,1.17-1.617,2.829-.318,5.627-.861,8.43-1.2a3.187,3.187,0,0,0,3.119-2.32c4.694-13.191,9.589-26.344,14.331-39.5a4.5,4.5,0,0,1,2.392-2.738q43.15-21.825,86.226-43.756a3.274,3.274,0,0,1,3.425,0Q237.7,244.8,280.847,266.611a4.747,4.747,0,0,1,2.45,2.974c4.742,13.1,9.589,26.185,14.267,39.314a3.172,3.172,0,0,0,3.119,2.32c2.829.327,5.632.837,8.456,1.169,1.291.149,1.507.563,1.175,1.689-1.191,4.047-2.339,8.114-3.335,12.21-.348,1.444-.98,1.656-2.434,1.381C298.2,326.441,291.816,325.335,285.447,324.194Z" transform="translate(-71.328 -222.386)" fill="#adce32"/>
      <path id="Trazado_124277" data-name="Trazado 124277" d="M230.272,481.166c-3.253-.053-6.511-.178-9.76-.135-1.405,0-1.891-.39-1.858-1.834.087-3.763.13-7.532,0-11.29-.072-1.872.563-2.252,2.32-2.247,20.781.063,41.567.039,62.348.039,3.407,0,6.81.077,10.212-.034,1.564-.048,1.954.505,1.925,1.983-.091,3.85-.082,7.676,0,11.517.029,1.4-.385,1.891-1.834,1.867-3.249-.048-6.507.077-9.76.13l-8.355.1a12.1,12.1,0,0,0-1.7-.231H240.345a12.838,12.838,0,0,0-1.7.226Z" transform="translate(-135.438 -347.044)" fill="#0b481e"/>
      <path id="Trazado_124278" data-name="Trazado 124278" d="M260.14,497.826a12.849,12.849,0,0,1,1.7-.226h33.467a12.093,12.093,0,0,1,1.7.231C291.3,506.378,285.551,514.9,279.92,523.5c-1.121,1.713-1.612,1.612-2.685,0C271.589,514.892,265.848,506.374,260.14,497.826Z" transform="translate(-156.969 -363.333)" fill="#adce32"/>
      <path id="Trazado_124279" data-name="Trazado 124279" d="M297.17,612h-36.3c-.347-.65.159-.991.409-1.372q8.254-12.4,16.522-24.8c.63-.963,1.059-1.752,2.06-.231,5.621,8.528,11.3,17.017,16.964,25.507A6,6,0,0,1,297.17,612Z" transform="translate(-157.28 -407.95)" fill="#ffd947"/>
      <path id="Trazado_124280" data-name="Trazado 124280" d="M258.59,568.066V525.2c.8.043.91.727,1.2,1.15,4.187,6.256,8.34,12.513,12.513,18.769.558.833.938,1.487.245,2.507-4.457,6.589-8.85,13.22-13.273,19.833A5.608,5.608,0,0,1,258.59,568.066Z" transform="translate(-157.337 -377.061)" fill="#0b481e"/>
      <path id="Trazado_124281" data-name="Trazado 124281" d="M322.844,524.72v42.746c-.751.106-.847-.525-1.092-.89-4.225-6.309-8.422-12.638-12.657-18.938a1.889,1.889,0,0,1-.173-2.493c4.38-6.463,8.663-12.994,13.023-19.472A11.631,11.631,0,0,1,322.844,524.72Z" transform="translate(-180.9 -376.812)" fill="#ffd947"/>
      <path id="Trazado_124282" data-name="Trazado 124282" d="M273.7,368.13a22.99,22.99,0,1,1,22.947-22.98A22.99,22.99,0,0,1,273.7,368.13Zm3.715-13.9c0,1.718.039,3.094,0,4.471-.043,1.208.424,1.3,1.444.919a15.3,15.3,0,0,0,9.25-9.178c.428-1.092.347-1.617-.987-1.554s-2.613-.039-3.913.029c-1.853.1-4.206-.809-5.429.414C276.629,350.472,277.587,352.778,277.419,354.226ZM269.9,336a34.961,34.961,0,0,1,.024-3.691c.221-2.122-.7-2.05-2.214-1.367a15.607,15.607,0,0,0-8.042,7.849c-1.179,2.556-1.155,2.589,1.554,2.594h3.258C269.9,341.381,269.9,341.381,269.9,336Zm13.023,5.381h4.331c.991,0,1.285-.289.91-1.295a15.362,15.362,0,0,0-9.5-9.481c-1.049-.385-1.285-.039-1.266.924.029,1.444,0,2.888,0,4.331C277.414,341.381,277.414,341.381,282.924,341.377ZM264.208,348.9h-4.124c-.89,0-1.372.135-.963,1.237a15.4,15.4,0,0,0,9.466,9.515c.962.356,1.343.193,1.323-.857-.029-1.376,0-2.753,0-4.129C269.9,348.9,269.9,348.9,264.208,348.9Z" transform="translate(-152.055 -273.274)" fill="#fefefe"/>
      <path id="Trazado_124283" data-name="Trazado 124283" d="M210.75,365.648c0-3.648,0-3.648,3.581-3.648,4.033,0,4.033,0,4.028,4.091,0,3.533,0,3.533-3.5,3.533h-.217C210.75,369.623,210.75,369.623,210.75,365.648Z" transform="translate(-134.973 -293.885)" fill="#fefefe"/>
      <path id="Trazado_124284" data-name="Trazado 124284" d="M370.55,365.682c0-3.682,0-3.682,3.614-3.682,3.85,0,3.85,0,3.85,3.85s0,3.783-3.7,3.783C370.55,369.623,370.55,369.623,370.55,365.682Z" transform="translate(-210.624 -293.885)" fill="#fefefe"/>
      <path id="Trazado_124285" data-name="Trazado 124285" d="M110.188,578.55c.2.087.375.236.207.433-.072.077-.342-.024-.525-.038Z" transform="translate(-89.217 -404.735)" fill="#fefefe"/>
      <path id="Trazado_124286" data-name="Trazado 124286" d="M306.015,382.823c.168-1.444-.789-3.763.346-4.9,1.222-1.222,3.576-.318,5.429-.414,1.3-.067,2.608.034,3.913-.029s1.415.481.987,1.554a15.3,15.3,0,0,1-9.25,9.178c-1.015.38-1.482.289-1.444-.919C306.053,385.917,306.015,384.541,306.015,382.823Z" transform="translate(-179.784 -301.711)" fill="#0b481e"/>
      <path id="Trazado_124287" data-name="Trazado 124287" d="M278.8,345.007c0,5.385,0,5.385-5.419,5.385h-3.258c-2.71,0-2.734-.039-1.554-2.594a15.607,15.607,0,0,1,8.042-7.849c1.511-.683,2.435-.756,2.214,1.367A34.945,34.945,0,0,0,278.8,345.007Z" transform="translate(-161.843 -282.333)" fill="#0b481e"/>
      <path id="Trazado_124288" data-name="Trazado 124288" d="M311.75,350.34c-5.51,0-5.51,0-5.51-5.5,0-1.444.024-2.888,0-4.331,0-.963.217-1.309,1.266-.924a15.362,15.362,0,0,1,9.5,9.481c.375,1.006.082,1.314-.91,1.295C314.652,350.321,313.2,350.34,311.75,350.34Z" transform="translate(-180.003 -282.286)" fill="#0b481e"/>
      <path id="Trazado_124289" data-name="Trazado 124289" d="M273.151,377.73c5.693,0,5.693,0,5.693,5.775,0,1.376-.024,2.753,0,4.129,0,1.049-.375,1.213-1.323.857a15.4,15.4,0,0,1-9.466-9.515c-.4-1.1.077-1.246.962-1.237C270.4,377.744,271.8,377.73,273.151,377.73Z" transform="translate(-161.886 -301.945)" fill="#0b481e"/>
    </g>
  </g>
</svg>
