<svg xmlns="http://www.w3.org/2000/svg" xmlns:xlink="http://www.w3.org/1999/xlink" width="160" height="166" viewBox="0 0 160 166">
  <defs>
    <clipPath id="clip-path">
      <ellipse id="Elipse_4909" data-name="Elipse 4909" cx="80" cy="83" rx="80" ry="83" transform="translate(560.077 918.188)" fill="#fff" stroke="#707070" stroke-width="1"/>
    </clipPath>
  </defs>
  <g id="Enmascarar_grupo_1083812" data-name="Enmascarar grupo 1083812" transform="translate(-560.077 -918.188)" clip-path="url(#clip-path)">
    <g id="manzana_residuo-01" data-name="manzana residuo-01" transform="translate(579.273 913.314)">
      <path id="Trazado_124051" data-name="Trazado 124051" d="M174.53,393.884c4.453-4.334,10.64-5.977,15.33-10.073,10.136-8.843,19.224-18.385,24.7-30.947,4.46-10.234,4.593-19.867-4.076-29.3,4.117.818,6.942,1.776,9.235,4.1a54.732,54.732,0,0,0,4.551,4.194c5.383,4.376,10.612,7.3,17.155,1.328,5.208-4.754,11.094.6,16.708.2.4,0,.972,1.14,1.314,1.832.587,1.209.419,3.216,2.4,3,1.776-.2,1.671-2.1,2.1-3.39a32.959,32.959,0,0,0,.818-3.859c5.166,3.237,10.213,2.992,15.023-.552,1.4-1.014,2.866-1.811,4.4-1.2,6.04,2.4,10.367.077,14.072-4.6.7-.867,1.4-2.258,3.453-1.482-1.894,3.293-4.376,6.082-6,9.43-3.663,7.529-3.887,15.379-1.957,23.153,2.279,9.186,9.92,14.757,19.881,15.75.056,2.1,1.943,1.846,3.1,2.2A20.168,20.168,0,0,1,328.61,382.9c.818,1.727,2.167,3.265,1.922,5.369.035,2.314.238,4.642.084,6.942-.371,5.669-2.265,10.745-7.571,13.485-3.712,1.915-8.389,2.16-9.955,7.165-.245.783-1.755,1.272-2.761,1.72-16.456,7.319-33.485,9.549-51.15,5.355a8.263,8.263,0,0,0-6.655,1.125c-8.612,5.075-17.826,6.851-27.41,3.335-8.354-3.069-16.694-6.292-24.467-10.661-5.7-3.23-11.332-6.823-14.757-12.527C183.059,399.491,180.339,395.129,174.53,393.884Z" transform="translate(-172.788 -237.376)" fill="#ffd947"/>
      <path id="Trazado_124052" data-name="Trazado 124052" d="M339.262,264.411c-4.418.412-8.626.7-12.814,1.2-8.934,1.021-17.015,3.915-23.2,10.863-.7.755-1.335,2.237-2.642,1.349-7.494-5.11-15.449-2.559-23.069-1.063-14.68,2.866-28.4,8.242-40.546,17.134-2.538,1.867-3.852,1.321-5.837-.776-15.254-16.078-33.415-22.643-55.3-16.386-2.992.86-4.027.112-3.775-3.062,1.293-16.225,6.774-29.424,23.069-36.407,15.477-6.627,31.178-11.884,48.109-12.653,2.538-.112,3.754-.825,3.789-3.5.063-4.768.538-9.535.531-14.3q0-4.855,4.334-6a8.689,8.689,0,0,1,7.962,2.209c1.468,1.279.147,2.216-.7,3.118-3.775,3.971-5.159,8.948-6.417,14.128-.937,3.845.629,4.194,3.761,4.236a110.7,110.7,0,0,1,39.252,6.7c17.365,6.5,30.982,17.9,42.894,31.688A6.051,6.051,0,0,1,339.262,264.411Z" transform="translate(-172.038 -200.556)" fill="#adce32"/>
      <path id="Trazado_124053" data-name="Trazado 124053" d="M174.137,422.017c5.809,1.244,8.529,5.593,11.353,10.332,3.425,5.7,9.053,9.3,14.757,12.527,7.781,4.4,16.12,7.592,24.467,10.661,9.584,3.5,18.8,1.741,27.41-3.335a8.263,8.263,0,0,1,6.655-1.125c17.665,4.194,34.694,1.957,51.164-5.376,1.007-.447,2.517-.937,2.761-1.72,1.559-5.005,6.243-5.25,9.955-7.165,5.306-2.74,7.2-7.815,7.571-13.485.154-2.3-.049-4.628-.084-6.942,5.257,8.57,5.369,13.66-1.07,21.671-14.1,17.49-32.395,29.088-54.555,32.429-35.282,5.334-66.145-4.334-90.822-31a56.376,56.376,0,0,1-9.367-13.779C173.767,424.583,172.264,423.346,174.137,422.017Z" transform="translate(-172.395 -265.509)" fill="#0b481e"/>
      <path id="Trazado_124054" data-name="Trazado 124054" d="M388.551,403.787a20.168,20.168,0,0,0-11.884-9.242c-1.153-.35-3.041-.119-3.1-2.2,2.8.51,5.523,1.084,8.3,1.524C388.551,394.937,389.62,396.5,388.551,403.787Z" transform="translate(-232.687 -258.274)" fill="#82c55b"/>
    </g>
  </g>
</svg>
