<?xml version="1.0" encoding="utf-8"?>
<!-- Generator: Adobe Illustrator 28.3.0, SVG Export Plug-In . SVG Version: 6.00 Build 0)  -->
<svg version="1.1" id="Capa_1" xmlns="http://www.w3.org/2000/svg" xmlns:xlink="http://www.w3.org/1999/xlink" x="0px" y="0px"
	 viewBox="0 0 342.1 645.7" style="enable-background:new 0 0 342.1 645.7;" xml:space="preserve">
<style type="text/css">
	.st0{fill:#F6F6F6;}
	.st1{fill:url(#Rectángulo_347846_00000044175401951905232390000013976866879356517016_);}
	.st2{fill:#FFFFFF;}
	.st3{fill:#12263F;}
	.st4{font-family:'Roboto-Regular';}
	.st5{font-size:16px;}
	.st6{fill:url(#Rectángulo_352683_00000176725834201215032310000017953873293876937139_);}
	.st7{enable-background:new    ;}
	.st8{font-family:'Roboto-Italic';}
	.st9{fill:url(#Rectángulo_362522_00000136406174942580853900000000531960863157383344_);}
	.st10{fill:url(#Rectángulo_362524_00000141445713730239332470000005694058633213348519_);}
</style>
<path id="Rectángulo_351329" class="st0" d="M33.9,24.4h273c11,0,20,9,20,20v551.1c0,11-9,20-20,20h-273c-11,0-20-9-20-20V44.4
	C13.9,33.4,22.9,24.4,33.9,24.4z"/>
<linearGradient id="Rectángulo_347846_00000048467012485262245730000018430805320072257689_" gradientUnits="userSpaceOnUse" x1="-3120.0039" y1="10523.9248" x2="-3118.9141" y2="10524.7324" gradientTransform="matrix(246.166 0 0 140.419 768091.0625 -1477685.375)">
	<stop  offset="0" style="stop-color:#ADCE32"/>
	<stop  offset="1" style="stop-color:#0B481E"/>
</linearGradient>
<path id="Rectángulo_347846" style="fill:url(#Rectángulo_347846_00000048467012485262245730000018430805320072257689_);" d="
	M89.5,54.3h166.2c22.1,0,40,17.9,40,40v60.4c0,22.1-17.9,40-40,40H89.5c-22.1,0-40-17.9-40-40V94.3C49.5,72.3,67.4,54.3,89.5,54.3z"
	/>
<path id="Rectángulo_347847" class="st2" d="M90.8,60.2h162.5c19.9,0,36,16.1,36,36v56.9c0,19.9-16.1,36-36,36H90.8
	c-19.9,0-36-16.1-36-36V96.2C54.8,76.3,71,60.2,90.8,60.2z"/>
<g id="Grupo_20710" transform="translate(-1474.333 -10387.743)">
	<g id="Grupo_20708" transform="translate(0 -35.196)">
		<text transform="matrix(1 0 0 1 1559.271 10509.9121)" class="st3 st4 st5">Reducción de los costos </text>
		<text transform="matrix(1 0 0 1 1589.677 10531.9121)" class="st3 st4 st5">de producción y </text>
		<text transform="matrix(1 0 0 1 1576.9551 10553.9121)" class="st3 st4 st5">preservación de los </text>
		<text transform="matrix(1 0 0 1 1554.584 10575.9121)" class="st3 st4 st5">recursos naturales que se </text>
		<text transform="matrix(1 0 0 1 1567.9661 10597.9121)" class="st3 st4 st5">encuentran en la finca.</text>
	</g>
</g>
<g id="Grupo_1085714" transform="translate(-2014.166 -11428.593)">
	<g id="Grupo_1085712" transform="translate(513.25 1122.654)">
		
			<linearGradient id="Rectángulo_352683_00000083070725306618518220000018273649488141933710_" gradientUnits="userSpaceOnUse" x1="-118.1722" y1="10524.5049" x2="-117.0822" y2="10525.3135" gradientTransform="matrix(246.166 0 0 118.123 30642.998 -1232649.25)">
			<stop  offset="0" style="stop-color:#FFA686"/>
			<stop  offset="1" style="stop-color:#BF6B4C"/>
		</linearGradient>
		<path id="Rectángulo_352683" style="fill:url(#Rectángulo_352683_00000083070725306618518220000018273649488141933710_);" d="
			M1590.4,10520.7h166.2c22.1,0,40,17.9,40,40v38.1c0,22.1-17.9,40-40,40h-166.2c-22.1,0-40-17.9-40-40v-38.1
			C1550.4,10538.6,1568.3,10520.7,1590.4,10520.7z"/>
		<path id="Rectángulo_352684" class="st2" d="M1589.8,10526.5h166.5c18.8,0,34,15.2,34,34v38.6c0,18.8-15.2,34-34,34h-166.5
			c-18.8,0-34-15.2-34-34v-38.6C1555.8,10541.7,1571,10526.5,1589.8,10526.5z"/>
		<g id="Grupo_20708-2" transform="translate(23.75 18.787)">
			<text transform="matrix(1 0 0 1 1546.116 10535.7109)" class="st3 st4 st5">Reutilización de los residuos </text>
			<text transform="matrix(1 0 0 1 1554.944 10557.7109)" class="st3 st4 st5">orgánicos producto de los </text>
			<text transform="matrix(1 0 0 1 1561.4761 10579.7109)" class="st3 st4 st5">procesos agropecuarios </text>
			<text transform="matrix(1 0 0 1 1588.511 10601.7109)" class="st7"><tspan x="0" y="0" class="st3 st4 st5">generados </tspan><tspan x="79.2" y="0" class="st3 st8 st5">In situ</tspan></text>
		</g>
	</g>
</g>
<g id="Grupo_1085715" transform="translate(-2309.167 -11289.74)">
	<g id="Grupo_1085711" transform="translate(808.25 1121.925)">
		
			<linearGradient id="Rectángulo_362522_00000144336933318205826360000005422970208053902502_" gradientUnits="userSpaceOnUse" x1="-118.1704" y1="10523.9531" x2="-117.0803" y2="10524.7617" gradientTransform="matrix(246.166 0 0 139.118 30642.5234 -1453531.5)">
			<stop  offset="0" style="stop-color:#ADCE32"/>
			<stop  offset="1" style="stop-color:#0B481E"/>
		</linearGradient>
		<path id="Rectángulo_362522" style="fill:url(#Rectángulo_362522_00000144336933318205826360000005422970208053902502_);" d="
			M1590.4,10520.7h166.2c22.1,0,40,17.9,40,40v59.1c0,22.1-17.9,40-40,40h-166.2c-22.1,0-40-17.9-40-40v-59.1
			C1550.4,10538.6,1568.3,10520.7,1590.4,10520.7z"/>
		<path id="Rectángulo_362523" class="st2" d="M1589.8,10526.5h166.5c18.8,0,34,15.2,34,34v59.6c0,18.8-15.2,34-34,34h-166.5
			c-18.8,0-34-15.2-34-34v-59.6C1555.8,10541.7,1571,10526.5,1589.8,10526.5z"/>
		<g id="Grupo_20708-3" transform="translate(16.079 14.837)">
			<text transform="matrix(1 0 0 1 1567.491 10535.7109)" class="st3 st4 st5">Disminución del impacto </text>
			<text transform="matrix(1 0 0 1 1587.6589 10557.7109)" class="st3 st4 st5">ambiental negativo </text>
			<text transform="matrix(1 0 0 1 1551.901 10579.7109)" class="st3 st4 st5">ocasionado por la agricultura </text>
			<text transform="matrix(1 0 0 1 1568.026 10601.7109)" class="st3 st4 st5">industrial sobre el medio </text>
			<text transform="matrix(1 0 0 1 1555.835 10623.7109)" class="st3 st4 st5">ambiente y la salud humana.</text>
		</g>
	</g>
</g>
<g id="Grupo_1085716" transform="translate(-2600.087 -11122.67)">
	<g id="Grupo_1085710" transform="translate(1094.25 1113.973)">
		
			<linearGradient id="Rectángulo_362524_00000123430529149400890150000013173961616244093831_" gradientUnits="userSpaceOnUse" x1="-108.5765" y1="10526.5732" x2="-107.4866" y2="10527.3809" gradientTransform="matrix(256.006 0 0 75.456 29349.3516 -783762.0625)">
			<stop  offset="0" style="stop-color:#FFA686"/>
			<stop  offset="1" style="stop-color:#BF6B4C"/>
		</linearGradient>
		<path id="Rectángulo_362524" style="fill:url(#Rectángulo_362524_00000123430529149400890150000013173961616244093831_);" d="
			M1588.1,10520.7h180.6c20.8,0,37.7,16.9,37.7,37.7l0,0c0,20.8-16.9,37.7-37.7,37.7h-180.6c-20.8,0.1-37.7-16.8-37.7-37.7l0,0
			C1550.4,10537.6,1567.3,10520.7,1588.1,10520.7z"/>
		<path id="Rectángulo_362525" class="st2" d="M1587.7,10526.5h180.4c17.6,0,31.9,14.3,31.9,32l0,0c0,17.6-14.3,32-31.9,32h-180.4
			c-17.6,0-32-14.3-32-32l0,0C1555.8,10540.8,1570.1,10526.5,1587.7,10526.5z"/>
		<g id="Grupo_20708-4" transform="translate(23.507 13.623)">
			<text transform="matrix(1 0 0 1 1579.132 10537.4219)" class="st3 st4 st5">Fortalecimiento de la </text>
			<text transform="matrix(1 0 0 1 1575.562 10559.4219)" class="st3 st4 st5">economía de la granja.</text>
		</g>
	</g>
</g>
</svg>
