<svg xmlns="http://www.w3.org/2000/svg" xmlns:xlink="http://www.w3.org/1999/xlink" width="163" height="170" viewBox="0 0 163 170">
  <defs>
    <clipPath id="clip-path">
      <ellipse id="Elipse_4911" data-name="Elipse 4911" cx="81.5" cy="85" rx="81.5" ry="85" transform="translate(895.077 914.188)" fill="#c1d1c6" stroke="#707070" stroke-width="1"/>
    </clipPath>
  </defs>
  <g id="Enmascarar_grupo_1083813" data-name="Enmascarar grupo 1083813" transform="translate(-895.077 -914.188)" clip-path="url(#clip-path)">
    <g id="robot-01" transform="translate(871.582 890.648)">
      <path id="Trazado_124056" data-name="Trazado 124056" d="M106.5,415.376c1.433-2.38,2.323-5.371,4.986-6.583,3-1.357,3.156-3.4,3.156-6.274.044-10.137,4.835-17.522,13.842-22.167.53-.278,1.092-.511,1.938-.9l-8.458-8.439c-.631-.631-1.262-1.218-1.837-1.843-1.894-2-2.064-4.362-.423-6.085s4.185-1.692,6.255.309c2.209,2.14,4.38,4.324,6.527,6.526a14.022,14.022,0,0,1,1.3,1.793c1.212-.631.877-1.376.884-1.894.032-3.787,0-7.574.038-11.361.05-3.036,1.572-4.664,4.147-4.646s4.065,1.755,4.077,4.715v13.59l6.129-6.123c.947-.953,1.894-1.938,2.853-2.84a4.155,4.155,0,0,1,5.921-.114,4.066,4.066,0,0,1-.095,5.914c-3.112,3.244-6.312,6.375-9.512,9.563-.271.265-.5.574-.9,1.048a24.741,24.741,0,0,1,10.5,7.814c.568.751,1,.448,1.559.076,3.73-2.525,7.454-5.005,11.216-7.454.852-.555.94-1.395,1.174-2.209a16.013,16.013,0,0,1,25.02-8.66,3.207,3.207,0,0,0,2.083.89c3.705-.076,7.416-.1,11.122-.032,1.262,0,1.666-.36,1.559-1.6-.189-2.1.858-4.81-.423-6.135-1.174-1.224-3.882-.335-5.914-.341-8.073-.038-12.106-3.156-13.829-10.951-.227-1.016-.562-1.262-1.509-1.262a21.027,21.027,0,0,1-5.416-.278A12.037,12.037,0,0,1,175.18,338q-.164-8.4,0-16.8a12.075,12.075,0,0,1,11.8-11.847,7.861,7.861,0,0,1,1.894,0c1.925.41,2.455-.486,2.777-2.266,1.092-6.1,5.921-9.929,12.542-9.847,2.569,0,3.844-.429,4.772-3.238,2.613-7.89,10.68-13.122,19.018-12.99a19.792,19.792,0,0,1,18.639,13.52c.745,2.316,1.786,2.815,3.97,2.689,4.816-.265,8.8,1.439,11.544,5.573a11.361,11.361,0,0,1,1.849,5.3c.095,1.035.48,1.262,1.452,1.262a21.635,21.635,0,0,1,5.409.309,12,12,0,0,1,9.348,11.361c.126,5.681.139,11.361,0,17.042a11.9,11.9,0,0,1-11.469,11.595,9.049,9.049,0,0,1-1.894,0c-1.995-.316-2.771.417-3.156,2.493a11.765,11.765,0,0,1-11.273,9.67c-2.2.095-4.418.107-6.621,0-1.458-.069-2.2.221-1.995,1.894.246,2.007-.852,4.7.454,5.864,1.117.991,3.743.3,5.681.335.707,0,1.42-.032,2.127,0a14.46,14.46,0,0,0,8.622-2.039c8.792-5.087,20.072-.126,22.818,9.733a4.62,4.62,0,0,0,2.108,2.916c3.383,2.165,6.7,4.418,10.03,6.672.77.518,1.307.921,2.1-.12a24.439,24.439,0,0,1,10.509-7.65l-8.376-8.237c-.675-.663-1.363-1.326-2.007-2.014-1.988-2.1-2.1-4.538-.29-6.261,1.685-1.6,4.153-1.477,6.085.423,2.809,2.765,5.554,5.586,8.755,8.837V358.386c.038-2.815,1.515-4.532,3.945-4.608,2.613-.076,4.21,1.521,4.279,4.513.076,3.787,0,7.574,0,11.361,0,.587.076,1.18.158,2.38,3.017-3.055,5.681-5.719,8.288-8.37a4.908,4.908,0,0,1,2.72-1.761,4.111,4.111,0,0,1,3.674,6.994c-2.878,2.922-5.788,5.813-8.7,8.7-.555.549-1.187,1.01-1.692,1.433.208.448.234.631.335.694,10.478,4.709,15.78,13.223,15.275,24.781-.069,1.685.2,2.582,1.894,3.421a11.715,11.715,0,0,1,5.984,12.965,11.867,11.867,0,0,1-11.141,9.563,2.33,2.33,0,0,0-2.594,1.963,170.736,170.736,0,0,1-5.914,16.411c-.631,1.584-.442,2.02,1.319,1.957,3.307-.114,6.628-.057,9.941,0,5.434.051,8.666,3.276,8.679,8.691,0,7.1-.189,14.208.076,21.3.183,5-1.572,8.458-6.224,10.364H290.176c-4.753-2.1-6.2-5.851-6.015-10.85.259-6.855.038-13.722.076-20.583.032-5.775,3.156-8.887,8.944-8.919h11.627c-.183-.555-.259-.852-.379-1.13a189.943,189.943,0,0,1-10.471-33.5,3.277,3.277,0,0,0-1.7-2.115q-11.008-7.335-22.029-14.663c-.568-.379-1.174-1.2-1.805-.9-.821.385-.353,1.4-.353,2.127q-.038,18.816,0,37.625c0,5.453-2.594,9.2-7.416,11.639-1.5.757-3.882-.189-4.5,1.692-.543,1.635-.12,3.592-.12,5.4a1.447,1.447,0,0,1,0,.233c-.227,1.521.259,2.266,1.894,2.866a15.778,15.778,0,0,1,10.1,15.78,16.07,16.07,0,0,1-11.039,14.486c-.751.252-1.761-.126-2.285.789H199.784c-.4-.858-1.3-.713-1.982-1-5.914-2.525-9.613-6.848-10.3-13.3-.72-6.722,1.7-12.5,7.757-15.439,3.875-1.893,4.57-4.166,4.147-7.713a5.628,5.628,0,0,1,0-1.42c.145-1.079-.3-1.433-1.376-1.66-7.341-1.54-10.667-5.681-10.673-13.255V400.184c0-.574.391-1.357-.316-1.7-.549-.265-.991.354-1.426.631-7.574,5.005-15.067,10.042-22.622,15.041a3.548,3.548,0,0,0-1.6,2.443,188.3,188.3,0,0,1-7.145,24.686c-1.142,3.156-2.4,6.249-3.661,9.506h11.393c6.085,0,9.184,3.074,9.209,9.14,0,7.1-.126,14.2.051,21.3.12,4.93-1.761,8.281-6.47,9.922H112.181a14.517,14.517,0,0,1-5.681-5.681v-28.9c2.152-4.7,5.9-6.274,10.882-5.845,2.651.234,5.34,0,8.01.069,1.553.051,1.666-.4,1.117-1.742-2.247-5.517-4.343-11.1-6.047-16.8-.429-1.439-1.117-1.692-2.468-1.774a11.861,11.861,0,0,1-10.49-7.208c-.29-.593-.215-1.42-1-1.73ZM227.436,353.8v-.1h22.931c4.223,0,5.529-1.262,5.529-5.491V310.839c0-4.1-1.262-5.441-5.321-5.454q-22.818-.082-45.635-.12c-4.2,0-5.567,1.357-5.573,5.485v37.6c0,4.046,1.382,5.441,5.371,5.447,7.562.013,15.13,0,22.7,0Zm32.4,56.561V382.908c0-3.333-1.414-4.8-4.7-4.81q-27.45-.076-54.914-.095c-3.333,0-4.816,1.445-4.816,4.715v55.135c0,3.32,1.414,4.822,4.74,4.816q27.444,0,54.914-.12c3.535,0,4.766-1.414,4.772-4.98Q259.854,423.961,259.835,410.358Zm72.827-7.435a16.257,16.257,0,0,0-14.517-16.708,16.022,16.022,0,0,0-17.269,12.592,27.69,27.69,0,0,0,0,9.651c1.894,14.17,6.861,27.432,12.119,40.611.972,2.43,2.809,1.357,4.355,1.616,1.445.246,2.228-.3,2.8-1.755,2.1-5.346,4.166-10.73,6.047-16.133.593-1.7.524-2.266-1.54-2.266a7.9,7.9,0,0,1-8.1-8.054c-.063-2.758-.076-5.523,0-8.281a7.928,7.928,0,0,1,7.789-7.9c1.654-.082,3.314-.038,4.967-.044C332.63,406.243,332.63,406.249,332.662,402.923ZM154.837,404a29.261,29.261,0,0,0-.423-5.51A16.051,16.051,0,0,0,135.478,386.5a16.482,16.482,0,0,0-12.769,18.355c.164,1.1.593,1.464,1.66,1.433,1.969-.063,3.945-.038,5.914,0,5.176.063,8.42,3.244,8.508,8.363.038,2.525.044,5.05,0,7.574-.088,4.98-3.289,8.206-8.325,8.306-1.641,0-2.014.341-1.445,1.969,1.957,5.567,4.077,11.065,6.217,16.562.915,2.342,2.6,1.439,4.084,1.629s2.493-.095,3.08-1.729c1.748-4.885,3.787-9.664,5.479-14.568C151.3,424.4,154.37,414.316,154.837,404Zm72.9,63.031v-.114H203.861c-4.961,0-8.395,3.307-8.426,7.953s3.49,8.155,8.508,8.155q23.764,0,47.529-.095c4.936,0,8.376-3.4,8.363-8.029s-3.427-7.852-8.477-7.865C243.5,467.014,235.616,467.033,227.739,467.033Zm84.939,15.874h14.89c5.27,0,5.226,0,5.277-5.3,0-1.464-.151-2.424-1.812-2.929a3.825,3.825,0,0,1-2.525-3.882,3.648,3.648,0,0,1,2.525-3.648c1.818-.5,1.856-1.578,1.793-2.979a16.344,16.344,0,0,1,0-2.834c.246-1.894-.511-2.367-2.354-2.348-10.793.082-21.593.038-32.386.038-5.542,0-5.441,0-5.548,5.5-.044,2,.7,2.291,2.436,2.272,6.943-.088,13.886,0,20.829-.044,1.559,0,3,.208,4.021,1.534a4.141,4.141,0,0,1,.486,4.456,4.071,4.071,0,0,1-4.014,2.392H298.331c-5.971,0-5.851,0-5.756,5.977,0,1.5.511,1.83,1.894,1.811C300.541,482.87,306.606,482.908,312.678,482.908Zm-178.071,0h14.663c5.681,0,5.643,0,5.643-5.681,0-1.628-.436-2.171-2.108-2.133-4.57.107-9.146.095-13.716,0-3.44-.063-5.416-3.124-4.014-6.04,1-2.1,2.948-2.468,4.967-2.525,3.232-.057,6.463,0,9.7,0,5.195,0,5.1,0,5.188-5.258.032-1.938-.631-2.329-2.424-2.316-10.642.076-21.284.038-31.919.038-6.312,0-6.261,0-5.9,6.312.063,1.149.423,1.49,1.521,1.464,2.2-.057,4.418-.069,6.621,0a4.248,4.248,0,0,1,4.1,4.077,4.418,4.418,0,0,1-3.989,4.242c-.865.082-1.736,0-2.6,0-5.719,0-5.681,0-5.681,5.82,0,1.54.4,2.007,1.969,1.982,6.009-.031,12,.019,17.97.019Zm93.107-31.913H212.856c-5.239,0-5.163,0-5.239,5.308,0,1.83.448,2.424,2.361,2.4,10.73-.095,21.416-.044,32.121-.044,5.845,0,5.788,0,5.681-5.857,0-1.464-.436-1.894-1.894-1.843-6.047.076-12.113.032-18.172.032ZM191.1,329.642V319.265c0-.631.347-1.389-.72-1.7-3.9-1.155-6.943,1.073-6.943,5.2V335.5c0,4.955,1.262,6.1,6.173,5.939,1.262-.044,1.584-.467,1.559-1.654C191.061,336.4,191.1,333.025,191.1,329.642Zm73.168-.215V339.8c0,.555-.284,1.224.593,1.572a4.989,4.989,0,0,0,7.088-4.728c.038-4.418,0-8.837,0-13.2,0-4.778-1.527-6.154-6.312-5.914-1.161.057-1.458.436-1.445,1.521C264.31,322.509,264.272,325.968,264.272,329.427ZM227.663,297.06c3.156,0,6.312-.032,9.468,0,1.37,0,1.736-.372,1-1.629a11.939,11.939,0,0,0-20.937,0c-.739,1.262-.347,1.647,1.01,1.629,3.169-.032,6.325,0,9.48,0Zm0,72.713h2.127c5.9,0,5.826,0,5.82-5.87,0-1.647-.581-1.95-2.032-1.894-2.834.1-5.681.032-8.5.032-5.321,0-5.258,0-5.34,5.4,0,1.742.278,2.582,2.266,2.38a54.6,54.6,0,0,1,5.681-.051ZM123.94,422.446c7.145,0,7.12,0,6.785-6.552-.057-1.079-.284-1.54-1.452-1.521-3.547.063-7.095,0-10.636.051a4,4,0,0,0-4.059,4.04,4.065,4.065,0,0,0,3.926,3.958C120.31,422.534,122.128,422.446,123.94,422.446Zm207.435,0h0c1.894,0,3.787.114,5.681,0a4.027,4.027,0,0,0,3.749-4.122,3.92,3.92,0,0,0-3.787-3.838c-3.7-.114-7.4-.038-11.1-.057-.682,0-1.262.063-1.262.972.063,2.266-.549,4.885.391,6.691.631,1.262,3.5.24,5.359.4.341-.013.663-.038.972-.038Zm-53.19-27.64,14.05,9.348a31.419,31.419,0,0,1,.688-7.618,1.6,1.6,0,0,0-.915-1.925q-3.964-2.569-7.852-5.239c-.827-.568-1.37-.587-1.837.391A18.518,18.518,0,0,1,278.184,394.806ZM163.13,404.192c4.311-2.872,8.237-5.6,12.283-8.136,1.635-1.016,1.647-1.609.234-2.815a11.992,11.992,0,0,1-2.411-3.156c-.587-1.01-1.01-1.414-2.127-.631-2.569,1.812-5.2,3.541-7.852,5.239a1.591,1.591,0,0,0-.783,1.982A29.887,29.887,0,0,1,163.13,404.192Z" transform="translate(-106.226 -248.65)" fill="#020202"/>
      <path id="Trazado_124057" data-name="Trazado 124057" d="M341.25,559.721c.524-.915,1.534-.537,2.285-.789a16.07,16.07,0,0,0,11.04-14.486c.271-7.088-3.642-13.4-10.1-15.78-1.616-.6-2.1-1.345-1.894-2.866a1.441,1.441,0,0,0,0-.234c0-1.812-.423-3.787.12-5.4.631-1.893,3-.934,4.5-1.692,4.822-2.443,7.416-6.186,7.416-11.639V469.209c0-.726-.467-1.742.353-2.127.631-.3,1.262.518,1.805.9q11.033,7.309,22.029,14.663a3.278,3.278,0,0,1,1.7,2.115,189.933,189.933,0,0,0,10.471,33.5c.12.278.2.574.379,1.13H379.734c-5.763,0-8.912,3.156-8.944,8.919-.038,6.861.183,13.728-.076,20.583-.189,5,1.262,8.755,6.015,10.85Z" transform="translate(-192.804 -317.252)" fill="#fdfdfd"/>
      <path id="Trazado_124058" data-name="Trazado 124058" d="M190.463,559.7c4.709-1.641,6.59-4.993,6.47-9.922-.177-7.095,0-14.2-.05-21.3,0-6.066-3.124-9.121-9.209-9.14H176.28c1.262-3.257,2.525-6.356,3.661-9.506a188.3,188.3,0,0,0,7.145-24.686,3.547,3.547,0,0,1,1.6-2.443c7.574-5,15.079-10.036,22.622-15.041.436-.29.877-.909,1.426-.631.707.347.316,1.13.316,1.7q.038,18.576,0,37.152c0,7.574,3.333,11.746,10.673,13.255,1.073.227,1.521.581,1.376,1.66a5.632,5.632,0,0,0,0,1.42c.423,3.547-.271,5.832-4.147,7.713-6.059,2.935-8.477,8.717-7.757,15.439.688,6.451,4.418,10.781,10.3,13.3.682.29,1.584.145,1.982,1Z" transform="translate(-131.961 -317.235)" fill="#fdfdfd"/>
      <path id="Trazado_124059" data-name="Trazado 124059" d="M106.5,503.64c.789.309.713,1.136,1,1.729a11.83,11.83,0,0,0,10.49,7.208c1.351.082,2.039.335,2.468,1.774,1.7,5.681,3.787,11.286,6.047,16.8.549,1.344.436,1.793-1.117,1.742-2.67-.088-5.359.164-8.01-.069-4.98-.429-8.729,1.149-10.882,5.845Z" transform="translate(-106.226 -330.759)" fill="#fdfdfd"/>
      <path id="Trazado_124060" data-name="Trazado 124060" d="M106.34,604.89a14.516,14.516,0,0,0,5.681,5.681c-1.894,0-4.526.738-5.472-.208S106.34,606.784,106.34,604.89Z" transform="translate(-106.066 -368.101)" fill="#fdfdfd"/>
      <path id="Trazado_124061" data-name="Trazado 124061" d="M273.716,229.754c14.9-.057,27.375,3.876,38.553,11.873,1.149.827,2.449,1.591,2.834,3.055a4.109,4.109,0,0,1-6.545,4.437,49.654,49.654,0,0,0-13.362-7.454c-19.062-6.716-37-4.639-53.607,7.158-1.673,1.187-3.314,1.824-5.214.631a4.007,4.007,0,0,1-1.837-4.279,4.215,4.215,0,0,1,1.976-2.815A62.361,62.361,0,0,1,265.9,230.29,43.457,43.457,0,0,1,273.716,229.754Z" transform="translate(-153.427 -229.744)" fill="#9c9c9c"/>
      <path id="Trazado_124062" data-name="Trazado 124062" d="M310.353,267.594a4.118,4.118,0,0,1-6.646,3.156,40.372,40.372,0,0,0-12.283-5.876,35.683,35.683,0,0,0-30.152,5.245c-3.055,2.064-5.744,1.793-7.082-.783a3.913,3.913,0,0,1,1.332-5.22,44.765,44.765,0,0,1,52.534-.322A4.936,4.936,0,0,1,310.353,267.594Z" transform="translate(-160.512 -239.212)" fill="#9c9c9c"/>
      <path id="Trazado_124063" data-name="Trazado 124063" d="M281.684,367.972H258.961c-3.989,0-5.365-1.4-5.371-5.447v-37.6c0-4.128,1.376-5.491,5.573-5.485q22.818.038,45.635.12c4.033,0,5.321,1.357,5.321,5.453V362.38c0,4.2-1.307,5.491-5.529,5.491H281.684Zm.252-16.14H266.561c-2.973,0-4.835,1.578-4.829,4s1.894,4.046,4.835,4.052q15.37.038,30.745,0c2.96,0,4.81-1.628,4.822-4.059s-1.856-3.983-4.829-4C292.187,351.82,287.062,351.833,281.937,351.833Zm-8.073-16.259c0-1.338.069-2.683,0-4.014a3.916,3.916,0,0,0-4.134-3.939,3.825,3.825,0,0,0-3.876,3.92c-.082,2.683-.076,5.365,0,8.041a4.04,4.04,0,0,0,3.989,4.134,4.125,4.125,0,0,0,4.033-4.122C273.927,338.268,273.864,336.924,273.864,335.573Zm24.187,0h0c0-1.338.057-2.683,0-4.021a4,4,0,0,0-7.985-.29c-.139,2.9-.139,5.832,0,8.742a4,4,0,0,0,3.951,3.692,4.046,4.046,0,0,0,4.014-3.869c.095-1.376,0-2.8,0-4.223Z" transform="translate(-160.474 -262.824)" fill="#ffa686"/>
      <path id="Trazado_124064" data-name="Trazado 124064" d="M311.786,467.035v27.211c0,3.566-1.262,4.961-4.772,4.98q-27.45.133-54.914.12c-3.326,0-4.74-1.5-4.74-4.816V439.4c0-3.27,1.483-4.715,4.816-4.715q27.444,0,54.914.095c3.282,0,4.69,1.477,4.7,4.81Q311.8,453.313,311.786,467.035Zm-7.871.114V451.533c-.032-5.359-3.364-8.767-8.666-8.786q-15.622-.044-31.231,0c-5.245,0-8.546,3.339-8.565,8.6q-.038,15.616,0,31.225c0,5.289,3.194,8.635,8.49,8.679q15.736.126,31.471,0c5.233-.044,8.471-3.484,8.5-8.717q.038-7.7.025-15.388Z" transform="translate(-158.176 -305.326)" fill="#ffa686"/>
      <path id="Trazado_124065" data-name="Trazado 124065" d="M445.984,464.332c-.032,3.326-.032,3.32-3.352,3.326-1.654,0-3.314-.038-4.967.044a7.928,7.928,0,0,0-7.789,7.89c-.082,2.758-.069,5.523,0,8.281a7.9,7.9,0,0,0,8.1,8.054c2.064,0,2.133.562,1.54,2.266-1.894,5.428-3.945,10.787-6.047,16.133-.568,1.458-1.351,2-2.8,1.755-1.546-.259-3.383.814-4.355-1.616-5.258-13.179-10.206-26.441-12.119-40.611a27.092,27.092,0,0,1,0-9.651,16.022,16.022,0,0,1,17.269-12.592A16.277,16.277,0,0,1,445.984,464.332Z" transform="translate(-219.547 -310.059)" fill="#ffd947"/>
      <path id="Trazado_124066" data-name="Trazado 124066" d="M164.213,465.435c-.467,10.314-3.535,20.4-6.943,30.386-1.673,4.9-3.73,9.683-5.479,14.568-.587,1.635-1.641,1.893-3.08,1.729s-3.156.713-4.084-1.629c-2.14-5.5-4.261-11-6.217-16.562-.568-1.628-.2-1.944,1.445-1.969,5.05-.076,8.205-3.326,8.325-8.306.05-2.525.044-5.05,0-7.574-.088-5.119-3.333-8.3-8.508-8.363-1.969,0-3.945-.051-5.914,0-1.067.032-1.5-.328-1.66-1.433a16.455,16.455,0,0,1,12.769-18.355A16.051,16.051,0,0,1,163.8,459.918,28.86,28.86,0,0,1,164.213,465.435Z" transform="translate(-115.603 -310.082)" fill="#ffd947"/>
      <path id="Trazado_124067" data-name="Trazado 124067" d="M279.7,575.657h23.638c5.049,0,8.439,3.232,8.452,7.877s-3.427,8.01-8.363,8.029q-23.764.1-47.529.095c-5.05,0-8.534-3.434-8.508-8.155s3.465-7.934,8.426-7.953c7.959-.038,15.919,0,23.878,0Z" transform="translate(-158.187 -357.274)" fill="#ffa686"/>
      <path id="Trazado_124068" data-name="Trazado 124068" d="M421.384,586.895c-6.072,0-12.138-.038-18.2,0-1.4,0-1.894-.309-1.894-1.812-.095-5.984-.151-5.977,5.756-5.977h17.964a4.062,4.062,0,0,0,4.014-2.392,4.141,4.141,0,0,0-.486-4.456c-1.016-1.325-2.462-1.54-4.021-1.534-6.943,0-13.886-.044-20.829.044-1.736,0-2.481-.271-2.436-2.272.107-5.491,0-5.5,5.548-5.5,10.793,0,21.593.044,32.386-.038,1.843,0,2.6.461,2.354,2.348a16.337,16.337,0,0,0,0,2.834c.063,1.4,0,2.481-1.793,2.979a3.648,3.648,0,0,0-2.525,3.648,3.762,3.762,0,0,0,2.525,3.882c1.73.53,1.83,1.464,1.812,2.929-.051,5.3,0,5.3-5.277,5.3Z" transform="translate(-214.931 -352.637)" fill="#adce32"/>
      <path id="Trazado_124069" data-name="Trazado 124069" d="M139.292,586.917c-5.99,0-11.993-.05-17.97.038-1.565,0-1.963-.442-1.969-1.982,0-5.813-.057-5.813,5.681-5.82.865,0,1.736.057,2.6,0a4.418,4.418,0,0,0,3.989-4.242,4.248,4.248,0,0,0-4.1-4.078c-2.2-.088-4.418-.076-6.621,0-1.1,0-1.458-.316-1.521-1.464-.36-6.312-.4-6.312,5.9-6.312,10.636,0,21.277.038,31.919-.038,1.793,0,2.455.379,2.424,2.316-.088,5.258,0,5.258-5.188,5.258-3.232,0-6.463-.038-9.7,0-2.02.031-3.964.4-4.967,2.525-1.4,2.916.574,5.977,4.014,6.04,4.57.082,9.146.095,13.716,0,1.673-.038,2.108.505,2.108,2.133,0,5.681.063,5.681-5.643,5.681Z" transform="translate(-110.93 -352.659)" fill="#adce32"/>
      <path id="Trazado_124070" data-name="Trazado 124070" d="M286.8,550.3c6.059,0,12.125.044,18.185-.031,1.445,0,1.862.379,1.894,1.843.082,5.857.139,5.857-5.681,5.857-10.73,0-21.416-.05-32.121.044-1.894,0-2.386-.574-2.361-2.4.076-5.308,0-5.308,5.239-5.308Z" transform="translate(-165.316 -347.957)" fill="#9c9c9c"/>
      <path id="Trazado_124071" data-name="Trazado 124071" d="M236.022,350.824c0,3.383-.044,6.76,0,10.143,0,1.187-.284,1.609-1.559,1.654-4.911.164-6.167-.985-6.173-5.94V343.944c0-4.128,3.068-6.356,6.943-5.2,1.067.316.713,1.086.72,1.7C236.041,343.906,236.022,347.365,236.022,350.824Z" transform="translate(-151.143 -269.832)" fill="#9c9c9c"/>
      <path id="Trazado_124072" data-name="Trazado 124072" d="M356.46,350.753c0-3.459.038-6.943,0-10.377,0-1.086.284-1.464,1.445-1.521,4.759-.24,6.28,1.136,6.312,5.914v13.2a4.989,4.989,0,0,1-7.088,4.728c-.877-.347-.593-1.016-.593-1.572C356.447,357.671,356.46,354.212,356.46,350.753Z" transform="translate(-198.413 -269.975)" fill="#9c9c9c"/>
      <path id="Trazado_124073" data-name="Trazado 124073" d="M292.163,301.867c-3.156,0-6.312-.032-9.468,0-1.357,0-1.748-.366-1.01-1.628a11.939,11.939,0,0,1,20.937,0c.732,1.262.366,1.647-1,1.628C298.475,301.835,295.319,301.867,292.163,301.867Z" transform="translate(-170.7 -253.457)" fill="#9c9c9c"/>
      <path id="Trazado_124074" data-name="Trazado 124074" d="M293.846,417.1a54.585,54.585,0,0,0-5.681.044c-1.988.2-2.291-.631-2.266-2.38.082-5.4,0-5.4,5.34-5.4,2.834,0,5.681.069,8.5-.032,1.452-.051,2.032.252,2.032,1.894,0,5.87.076,5.87-5.82,5.87Z" transform="translate(-172.389 -295.974)" fill="#9c9c9c"/>
      <path id="Trazado_124075" data-name="Trazado 124075" d="M128.66,500.388c-1.812,0-3.629.088-5.435,0a4.065,4.065,0,0,1-3.926-3.958,4,4,0,0,1,4.059-4.04c3.541-.076,7.088,0,10.636-.051,1.168,0,1.395.442,1.452,1.521C135.78,500.4,135.806,500.4,128.66,500.388Z" transform="translate(-110.946 -326.592)" fill="#9c9c9c"/>
      <path id="Trazado_124076" data-name="Trazado 124076" d="M458.78,500.388h-.94c-1.862-.164-4.7.852-5.359-.4-.94-1.805-.328-4.418-.391-6.691,0-.909.562-.972,1.262-.972,3.705,0,7.4-.057,11.1.057a3.92,3.92,0,0,1,3.787,3.838,4.027,4.027,0,0,1-3.749,4.122c-1.894.139-3.787,0-5.681,0Z" transform="translate(-233.631 -326.58)" fill="#9c9c9c"/>
      <path id="Trazado_124077" data-name="Trazado 124077" d="M378.5,457.891a18.445,18.445,0,0,0,4.134-5.05c.467-.978,1.01-.959,1.837-.391q3.894,2.67,7.852,5.239a1.6,1.6,0,0,1,.915,1.925,31.736,31.736,0,0,0-.688,7.618Z" transform="translate(-206.542 -311.735)" fill="#9c9c9c"/>
      <path id="Trazado_124078" data-name="Trazado 124078" d="M195.792,467.309a30.635,30.635,0,0,0-.631-7.524,1.591,1.591,0,0,1,.783-1.982c2.651-1.7,5.283-3.427,7.852-5.239,1.117-.8,1.54-.391,2.127.631a11.992,11.992,0,0,0,2.411,3.156c1.414,1.206,1.4,1.8-.234,2.815C204.029,461.7,200.1,464.437,195.792,467.309Z" transform="translate(-138.887 -311.767)" fill="#9c9c9c"/>
      <path id="Trazado_124079" data-name="Trazado 124079" d="M286.694,370.757h15.37c2.973,0,4.835,1.584,4.829,4s-1.862,4.052-4.822,4.059q-15.376.038-30.745,0c-2.948,0-4.835-1.647-4.835-4.052s1.856-3.989,4.829-4C276.444,370.744,281.569,370.757,286.694,370.757Z" transform="translate(-165.232 -281.748)" fill="#020202"/>
      <path id="Trazado_124080" data-name="Trazado 124080" d="M280.991,340.352c0,1.344.063,2.689,0,4.021a4.137,4.137,0,0,1-4.033,4.122,4.04,4.04,0,0,1-3.989-4.134c-.069-2.676-.076-5.359,0-8.041a3.825,3.825,0,0,1,3.875-3.92,3.916,3.916,0,0,1,4.134,3.939C281.06,337.676,280.991,339.021,280.991,340.352Z" transform="translate(-167.601 -267.604)" fill="#020202"/>
      <path id="Trazado_124081" data-name="Trazado 124081" d="M319.282,340.384c0,1.42.076,2.847,0,4.254a4.046,4.046,0,0,1-4.014,3.869,4,4,0,0,1-3.951-3.693c-.145-2.91-.145-5.838,0-8.742a4,4,0,0,1,7.985.29c.069,1.338,0,2.682,0,4.021Z" transform="translate(-181.724 -267.604)" fill="#020202"/>
      <path id="Trazado_124082" data-name="Trazado 124082" d="M308.672,471.845v15.382c-.032,5.233-3.27,8.673-8.5,8.717q-15.736.145-31.471,0c-5.3-.044-8.477-3.389-8.49-8.679q-.038-15.616,0-31.225c0-5.264,3.32-8.584,8.565-8.6q15.616-.044,31.231,0c5.3,0,8.635,3.427,8.666,8.786Zm-40.4-.3c0,4.816.063,9.626-.038,14.435-.032,1.5.429,1.824,1.849,1.812q14.315-.095,28.637,0c1.307,0,1.748-.29,1.736-1.673q-.082-14.435,0-28.877c0-1.357-.4-1.7-1.723-1.7q-14.322.076-28.637,0c-1.439,0-1.894.322-1.862,1.818C268.358,462.074,268.276,466.808,268.276,471.542Z" transform="translate(-162.908 -310.023)" fill="#020202"/>
      <path id="Trazado_124083" data-name="Trazado 124083" d="M272.976,476.283c0-4.734.063-9.468-.038-14.2-.032-1.5.423-1.824,1.862-1.818q14.315.095,28.637,0c1.319,0,1.729.341,1.723,1.7q-.082,14.442,0,28.877c0,1.382-.429,1.685-1.736,1.673q-14.315-.076-28.637,0c-1.42,0-1.894-.316-1.849-1.812C273.058,485.909,272.976,481.1,272.976,476.283Zm11.993,8.237a3.244,3.244,0,0,0,2.424-.757c3.036-2.967,6.135-5.889,8.957-9.045,1.42-1.591,1.041-3.566-.436-5.132a3.787,3.787,0,0,0-5.334-.335c-3.042,2.84-5.971,5.813-8.837,8.837a3.536,3.536,0,0,0-.379,4.191A3.857,3.857,0,0,0,284.969,484.52Z" transform="translate(-167.609 -314.764)" fill="#fdfdfd"/>
      <path id="Trazado_124084" data-name="Trazado 124084" d="M289.6,489.226a3.857,3.857,0,0,1-3.6-2.228,3.536,3.536,0,0,1,.379-4.191c2.859-3.036,5.788-6.009,8.837-8.837a3.787,3.787,0,0,1,5.334.335c1.477,1.565,1.856,3.541.435,5.132-2.821,3.156-5.921,6.078-8.957,9.045A3.245,3.245,0,0,1,289.6,489.226Z" transform="translate(-172.243 -319.469)" fill="#020202"/>
    </g>
  </g>
</svg>
