<?xml version="1.0" encoding="utf-8"?>
<!-- Generator: Adobe Illustrator 28.3.0, SVG Export Plug-In . SVG Version: 6.00 Build 0)  -->
<svg version="1.1" id="Capa_1" xmlns="http://www.w3.org/2000/svg" xmlns:xlink="http://www.w3.org/1999/xlink" x="0px" y="0px"
	 viewBox="0 0 1240 278.2" style="enable-background:new 0 0 1240 278.2;" xml:space="preserve">
<style type="text/css">
	.st0{fill:none;}
	.st1{fill:#F6F6F6;}
	.st2{fill:url(#Rectángulo_347846_00000099629080272545515370000007291011599401616540_);}
	.st3{fill:#FFFFFF;}
	.st4{fill:#12263F;}
	.st5{font-family:'Roboto-Regular';}
	.st6{font-size:16px;}
	.st7{fill:url(#Rectángulo_352683_00000098915795728369460810000015536110942486787991_);}
	.st8{fill:url(#Rectángulo_362522_00000005265972809530374250000006305177335859781809_);}
	.st9{fill:url(#Rectángulo_362524_00000011718020745320575630000000545381631725814431_);}
	.st10{fill:#E8E8E8;}
	.st11{clip-path:url(#SVGID_00000113339428027535222060000014070177551721858980_);}
	.st12{clip-path:url(#SVGID_00000141422701539960105250000000708746016938301844_);}
	.st13{clip-path:url(#SVGID_00000152244687305227411690000006835853493922054320_);}
	.st14{clip-path:url(#SVGID_00000106145595795785405670000001870574254245239736_);}
	.st15{clip-path:url(#SVGID_00000049213307318051316930000015579568705385986223_);}
	.st16{clip-path:url(#SVGID_00000134931656732648087480000006639820428442375566_);}
	.st17{clip-path:url(#SVGID_00000028298984294345604440000002587331240284398483_);}
	.st18{clip-path:url(#SVGID_00000033362099406919837200000013124788296154379164_);}
	.st19{clip-path:url(#SVGID_00000177462660212637922470000007636102590118325636_);}
	.st20{fill:url(#tr_vi_2_Convertido_Recuperado_-03-2_00000177483547054180781820000011735504172404746372_);}
	.st21{fill:url(#tr_vi_2_Convertido_Recuperado_-03-2_00000075845588088080084830000010126711115180603314_);}
</style>
<pattern  y="278.2" width="105" height="105" patternUnits="userSpaceOnUse" id="pattern-2_3" viewBox="0 -105 105 105" style="overflow:visible;">
	<g>
		<rect y="-105" class="st0" width="105" height="105"/>
		<g transform="scale(1.235 1.235)">
			
				<image style="overflow:visible;enable-background:new    ;" width="200" height="115" id="image_00000029733251320795071800000016057792487117803171_" xlink:href="31F974882981B144.png"  transform="matrix(0.5249 0 0 -0.5249 10.504 -22.3125)">
			</image>
		</g>
	</g>
</pattern>
<g>
	<g id="Grupo_1099230" transform="translate(-180 -930)">
		<g id="Grupo_1099229">
			<path id="Rectángulo_351329_00000005238674684554220440000013649320051627868568_" class="st1" d="M228.9,929.3h1155
				c11,0,20,9,20,20v238.2c0,11-9,20-20,20h-1155c-11,0-20-9-20-20V949.3C208.9,938.2,217.9,929.3,228.9,929.3z"/>
			
				<linearGradient id="Rectángulo_347846_00000181766813055626584850000016003271348148337066_" gradientUnits="userSpaceOnUse" x1="-159.8774" y1="1608.8484" x2="-158.7874" y2="1608.0404" gradientTransform="matrix(246.166 0 0 -162.94 39695.4766 263149.4062)">
				<stop  offset="0" style="stop-color:#ADCE32"/>
				<stop  offset="1" style="stop-color:#0B481E"/>
			</linearGradient>
			
				<path id="Rectángulo_347846_00000145746298761389287550000004024298051453380791_" style="fill:url(#Rectángulo_347846_00000181766813055626584850000016003271348148337066_);" d="
				M376.5,981.3h166.2c22.1,0,40,17.9,40,40v82.9c0,22.1-17.9,40-40,40H376.5c-22.1,0-40-17.9-40-40v-82.9
				C336.5,999.2,354.4,981.3,376.5,981.3z"/>
			<path id="Rectángulo_347847_00000086682365739982547550000004606630788162319518_" class="st3" d="M375.9,987.1h166.5
				c18.8,0,34,15.2,34,34v83.4c0,18.8-15.2,34-34,34H375.9c-18.8,0-34-15.2-34-34v-83.4C341.9,1002.3,357.1,987.1,375.9,987.1z"/>
			<g id="Grupo_20710_00000156552627964576163540000007005646339718360982_" transform="translate(356.667 1015.94)">
				<g id="Grupo_20708_00000147908428213763088810000006563653610026337944_">
					<text transform="matrix(1 0 0 1 16.6361 14.294)" class="st4 st5 st6">Reducción de los costos </text>
					<text transform="matrix(1 0 0 1 47.0421 36.294)" class="st4 st5 st6">de producción y </text>
					<text transform="matrix(1 0 0 1 34.3201 58.294)" class="st4 st5 st6">preservación de los </text>
					<text transform="matrix(1 0 0 1 11.9491 80.294)" class="st4 st5 st6">recursos naturales que se </text>
					<text transform="matrix(1 0 0 1 25.3311 102.294)" class="st4 st5 st6">encuentran en la finca</text>
				</g>
			</g>
			
				<linearGradient id="Rectángulo_352683_00000024002819307350027080000017247639725852853921_" gradientUnits="userSpaceOnUse" x1="-160.0299" y1="1608.8484" x2="-158.9399" y2="1608.0404" gradientTransform="matrix(210.084 0 0 -162.94 34222.8555 263145.4062)">
				<stop  offset="0" style="stop-color:#FFA686"/>
				<stop  offset="1" style="stop-color:#BF6B4C"/>
			</linearGradient>
			
				<path id="Rectángulo_352683_00000020362903106536637360000007972316616081034897_" style="fill:url(#Rectángulo_352683_00000024002819307350027080000017247639725852853921_);" d="
				M640.9,977.3H771c22.1,0,40,17.9,40,40v82.9c0,22.1-17.9,40-40,40H640.9c-22.1,0-40-17.9-40-40v-82.9
				C600.9,995.2,618.8,977.3,640.9,977.3z"/>
			<path id="Rectángulo_352684_00000112629126602014188330000012356525492767245713_" class="st3" d="M640.3,983.1h130.4
				c18.8,0,34,15.2,34,34v83.4c0,18.8-15.2,34-34,34H640.3c-18.8,0-34-15.2-34-34v-83.4C606.3,998.3,621.5,983.1,640.3,983.1z"/>
			<g id="Grupo_20708-2_00000051355149309469337170000011424459905460915881_" transform="translate(618.25 998.787)">
				<text transform="matrix(1 0 0 1 17.6601 14.294)" class="st4 st5 st6">Reutilización de los </text>
				<text transform="matrix(1 0 0 1 18.6401 36.294)" class="st4 st5 st6">residuos orgánicos </text>
				<text transform="matrix(1 0 0 1 31.2061 58.294)" class="st4 st5 st6">producto de los </text>
				<text transform="matrix(1 0 0 1 53.5151 80.294)" class="st4 st5 st6">procesos </text>
				<text transform="matrix(1 0 0 1 35.3901 102.294)" class="st4 st5 st6">agropecuarios </text>
				<text transform="matrix(1 0 0 1 27.5271 124.294)" class="st4 st5 st6">generados insitu</text>
			</g>
			
				<linearGradient id="Rectángulo_362522_00000163037017856065184470000000345926409841630344_" gradientUnits="userSpaceOnUse" x1="-159.801" y1="1608.8484" x2="-158.711" y2="1608.0404" gradientTransform="matrix(269.333 0 0 -162.94 43880.8672 263149.4062)">
				<stop  offset="0" style="stop-color:#ADCE32"/>
				<stop  offset="1" style="stop-color:#0B481E"/>
			</linearGradient>
			
				<path id="Rectángulo_362522_00000076585048783557624290000002076305416461072532_" style="fill:url(#Rectángulo_362522_00000163037017856065184470000000345926409841630344_);" d="
				M878.4,981.3h189.3c22.1,0,40,17.9,40,40v82.9c0,22.1-17.9,40-40,40H878.4c-22.1,0-40-17.9-40-40v-82.9
				C838.4,999.2,856.3,981.3,878.4,981.3z"/>
			<path id="Rectángulo_362523_00000078742980266795404400000012745823103034291860_" class="st3" d="M877.7,987.1h189.6
				c18.8,0,34,15.2,34,34v83.4c0,18.8-15.2,34-34,34H877.7c-18.8,0-34-15.2-34-34v-83.4C843.7,1002.3,858.9,987.1,877.7,987.1z"/>
			<g id="Grupo_20708-3_00000131337631931914469050000003500331565745850262_" transform="translate(861.583 1004.748)">
				<text transform="matrix(1 0 0 1 24.5071 14.294)" class="st4 st5 st6">Disminución del impacto </text>
				<text transform="matrix(1 0 0 1 44.675 36.294)" class="st4 st5 st6">ambiental negativo </text>
				<text transform="matrix(1 0 0 1 8.9171 58.294)" class="st4 st5 st6">ocasionado por la agricultura </text>
				<text transform="matrix(1 0 0 1 25.0421 80.294)" class="st4 st5 st6">industrial sobre el medio </text>
				<text transform="matrix(1 0 0 1 12.8511 102.294)" class="st4 st5 st6">ambiente y la salud humana</text>
			</g>
			
				<linearGradient id="Rectángulo_362524_00000175282329121450383160000011716729144833623466_" gradientUnits="userSpaceOnUse" x1="-160.4426" y1="1608.8484" x2="-159.3526" y2="1608.0404" gradientTransform="matrix(150.417 0 0 -162.94 25260.8047 263149.4062)">
				<stop  offset="0" style="stop-color:#FFA686"/>
				<stop  offset="1" style="stop-color:#BF6B4C"/>
			</linearGradient>
			
				<path id="Rectángulo_362524_00000181051191659155491500000015780696226865361837_" style="fill:url(#Rectángulo_362524_00000175282329121450383160000011716729144833623466_);" d="
				M1165.9,981.3h70.4c22.1,0,40,17.9,40,40v82.9c0,22.1-17.9,40-40,40h-70.4c-22.1,0-40-17.9-40-40v-82.9
				C1125.9,999.2,1143.8,981.3,1165.9,981.3z"/>
			<path id="Rectángulo_362525_00000025435026576073576620000004495593514875963546_" class="st3" d="M1165.3,987.1h70.7
				c18.8,0,34,15.2,34,34v83.4c0,18.8-15.2,34-34,34h-70.7c-18.8,0-34-15.2-34-34v-83.4C1131.3,1002.3,1146.5,987.1,1165.3,987.1z"
				/>
			<g id="Grupo_20708-4_00000052796156987485083390000000919595327485009044_" transform="translate(1151.181 1024.468)">
				<text transform="matrix(1 0 0 1 9.4021 14.294)" class="st4 st5 st6">Fortalecimi</text>
				<text transform="matrix(1 0 0 1 14.6791 36.294)" class="st4 st5 st6">ento de la </text>
				<text transform="matrix(1 0 0 1 14.1281 58.294)" class="st4 st5 st6">economía </text>
				<text transform="matrix(1 0 0 1 8.3632 80.294)" class="st4 st5 st6">de la granja</text>
			</g>
			<path id="Trazado_719920_00000120518397025525404060000010862202916996130445_" class="st10" d="M243.3,1043.6
				c-1.8,1.4-2.7,3.6-2.3,5.9c0.7,3.2,1.5,5.6,4.1,6.8c0,0-18.8,20-7.6,41.6c0,0-7.7,5.6-6.1,8.3c1.6,2.7,24.5,4.1,57.6,4.6
				c33.2,0.5,37.7-3.4,37.7-3.4s-4.5-8.5-8-10c1.4-0.6,2.7-1.3,3.9-2.2c1.6-1.2,1-12.4,0.6-19.7c-0.3-7.3-1.5-9.2-3.1-12.8
				c-2.3-5.1-4.7-5.3-4.7-5.3c1.6,0.1,3.2-0.7,4-2.1c2-3.5,1.4-10.2-0.2-11s-7.2,0.1-11.4-0.4c-4.2-0.5-14.8-0.5-18.3-0.5
				c-3.5,0-25.7-1.5-29.6-1.5C248.4,1041.9,243.3,1043.6,243.3,1043.6"/>
			<g id="Grupo_1085719_00000064352486021125889240000012009292786451213234_" transform="translate(224.745 1076.075)">
				<g>
					<defs>
						<rect id="SVGID_1_" x="6.4" y="-0.7" width="95.5" height="35.4"/>
					</defs>
					<clipPath id="SVGID_00000035512720864101422250000008439172478899528324_">
						<use xlink:href="#SVGID_1_"  style="overflow:visible;"/>
					</clipPath>
					
						<g id="Grupo_1085718_00000152230637984238763580000011714179741234212996_" style="clip-path:url(#SVGID_00000035512720864101422250000008439172478899528324_);">
						<path id="Trazado_719921_00000148642604715314294650000007354311644779235507_" class="st10" d="M33.4,25.8c0.4,0,0.9,0,1.3,0
							C34.7,25.8,34.2,25.8,33.4,25.8"/>
						<path id="Trazado_719922_00000027569268985182448570000012246595045462387135_" class="st10" d="M12.8,21.8
							c0,0-7.7,5.6-6.1,8.3s24.5,4.1,57.6,4.6s37.7-3.4,37.7-3.4s-0.1-0.2-0.3-0.5c-17.1,5.7-91.1,2-90.3-1.5
							c0.7-3.2,17.3-3.4,22.1-3.5c-14.6-0.1-17.8-3.3-17.8-3.3l-1-3.1c3.4,2.7,13.4,5.8,10.1,3.7s-5.4-3.5-5.4-3.5
							c9.5,5.3,16.6,2.3,19.2,2.1c2.6-0.2-3.4-0.2-15.9-4C14.3,15.1,11.3,5.5,10.2-0.7C8.2,6.9,9.1,14.9,12.8,21.8"/>
					</g>
				</g>
			</g>
			<g id="Grupo_1085722_00000075877576722152936920000006795826567735164345_" transform="translate(234.856 1051.037)">
				<g>
					<defs>
						<rect id="SVGID_00000181075194786690767210000005043532805468471973_" x="6.4" y="-0.7" width="64.8" height="7.2"/>
					</defs>
					<clipPath id="SVGID_00000121958752502420922100000016132380790194716063_">
						<use xlink:href="#SVGID_00000181075194786690767210000005043532805468471973_"  style="overflow:visible;"/>
					</clipPath>
					
						<g id="Grupo_1085721_00000026130371742035213380000011141708109411884453_" style="clip-path:url(#SVGID_00000121958752502420922100000016132380790194716063_);">
						<path id="Trazado_719923_00000109011097729443999290000008464649602301424538_" class="st10" d="M71.2,2.5
							c0-0.4-8.1-0.1-10.6,0c-7.1,0.2-7.7,0.7-14.2,1c-6.7,0.3-12.7,0.6-20-0.7c-5.9-1-8.5-1.7-8.5-1.7c-4.1-1.4-5.6-1.8-8.4-1.7
							c-1,0-2,0.2-3,0.4C7.1,2.3,8,4.2,10.2,5.2c0,0-0.4,0.5-1.1,1.3C12,5.9,15.6,5,19.4,4.4c11-1.8,11.4,1.2,28,0.8
							C60.2,5,71.3,2.9,71.2,2.5"/>
					</g>
				</g>
			</g>
			<g id="Grupo_1085725_00000003075317920642447630000018407710895382313372_" transform="translate(259.271 1058.053)">
				<g>
					<defs>
						<rect id="SVGID_00000041270975553444329780000000958504634403607707_" x="6.4" y="-0.7" width="49.8" height="11.2"/>
					</defs>
					<clipPath id="SVGID_00000183930120282030450450000017256288146041850797_">
						<use xlink:href="#SVGID_00000041270975553444329780000000958504634403607707_"  style="overflow:visible;"/>
					</clipPath>
					
						<g id="Grupo_1085724_00000010290140337334256550000015341650575166746257_" style="clip-path:url(#SVGID_00000183930120282030450450000017256288146041850797_);">
						<path id="Trazado_719924_00000083806722633053990770000017782431812634868145_" class="st10" d="M56.1-0.7c0,0-14.1,1.9-23,1
							S14,0,17.8,1.5s12.1,3.4,12.1,3.4S21,8.5,16.6,6.6S5.8,2.5,6.5,3.7s8.7,6.3,13.3,6.8S36.7,7.8,40,4.9s4.3-5.1,6.8-3.6
							s9.4,2.7,9.4,2.7L56.1-0.7z"/>
					</g>
				</g>
			</g>
			<g id="Grupo_1085728_00000076587925502326802170000013663226156717807512_" transform="translate(276.697 1078.637)">
				<g>
					<defs>
						<rect id="SVGID_00000037686044153419774450000014015547643111354517_" x="6.4" y="-0.7" width="40.4" height="24.5"/>
					</defs>
					<clipPath id="SVGID_00000051370833834325004490000014914263823641915814_">
						<use xlink:href="#SVGID_00000037686044153419774450000014015547643111354517_"  style="overflow:visible;"/>
					</clipPath>
					
						<g id="Grupo_1085727_00000155852596751934149900000013560802852056499858_" style="clip-path:url(#SVGID_00000051370833834325004490000014914263823641915814_);">
						<path id="Trazado_719925_00000127726081805119349340000010123797775104045722_" class="st10" d="M41.9,18.7
							c1.4-0.6,2.7-1.3,3.9-2.2c1.4-1.1,1.1-10.1,0.8-17.3c-0.9,4.5-3.1,8.6-8,9.8c-12.3,3.1-5.6,3.4-1.7,2.9s4.7-1.4,4.7-1.4
							s-3,8.1-11.9,8.6c-19.8,1.2-30.8,1.2-17.1,1.7s27.3-0.5,27.3-0.5s-17.1,2.3-12.3,3.2s13.7-3.9,13.7-3.9s2.2,1.2,4.9,2.8
							C44.8,20.9,43.3,19.3,41.9,18.7"/>
					</g>
				</g>
			</g>
			<g id="Grupo_1085731_00000171711357391244603870000002514631236747064481_" transform="translate(245.324 1074.533)">
				<g>
					<defs>
						<rect id="SVGID_00000177458296805045859390000003752686552026943897_" x="6.4" y="-0.7" width="15.7" height="6.7"/>
					</defs>
					<clipPath id="SVGID_00000137814474159045328390000004824202218782161291_">
						<use xlink:href="#SVGID_00000177458296805045859390000003752686552026943897_"  style="overflow:visible;"/>
					</clipPath>
					
						<g id="Grupo_1085730_00000019671207525772634410000012189608597874568638_" style="clip-path:url(#SVGID_00000137814474159045328390000004824202218782161291_);">
						<path id="Trazado_719926_00000134218455014770457750000015223209996982598576_" class="st10" d="M6.4-0.5
							c2.2-0.5,4.5,0,6.3,1.4C15.8,3.3,22.1,6,22.1,6S14.6,6.2,6.4-0.5"/>
					</g>
				</g>
			</g>
			<path id="Trazado_719927_00000014591914472465565980000005916268876706609298_" class="st10" d="M318.8,1047.7
				c-0.2-0.1-0.4-0.2-0.6-0.1c-1.7-2-6.8-7.7-10.3-10.2c-2.6-1.9-5.6-3.9-7.5-5.3c0.3-0.3,0.4-0.8,0.4-1.2c-0.1-1.2-2-2.1-3.4-2.2
				c-1.6-2.9-4.9-8.5-9.1-11.9c-6.3-5.1-11-2.5-13.5-0.6c-1.2-0.4-2.5-0.5-2.9,0c-0.2,0.4-0.3,0.9-0.2,1.3c-2.1-0.3-4.2,0.4-5.7,1.8
				c-2.9,2.7-3.1,7.6-3.1,7.6s-4,2.6-4.5,3.4c-0.3,0.5-5,2.3-8.7,6.2c-0.3-0.3-0.8-0.4-1.2-0.4c-1,0.2-1.4,2.3-1,3.1
				c-1.2,1.9-2,4.1-2.3,6.3c-0.6,0.4-1.1,1-1.1,1.4c0.1,0.6,1.6,1.2,2.6,0.9c-0.1,0.1-0.1,0.3-0.1,0.4c0.2,0.8,2.4,1.5,3.3,0.5
				c0.1-0.1,0.1-0.1,0.1-0.2c0.1,0.1,0.2,0.1,0.3,0.2c1.2,1,9.2,3.6,12.3,3.6s6-0.2,9.2,0.5s11.1,0,18.8-0.7
				c2.9-0.3,5.2-0.5,7.1-0.7v0c0.2,0.8,2.4,1.5,3.3,0.5c0.2-0.2,0.3-0.5,0.3-0.8c1.3-0.1,2.3-0.2,3.1-0.2c1.3,0,3.9,0.2,5.9,0.4
				c1.7,0.2,3.4-0.2,4.8-1.1l0.8-0.5c0.7,0.6,2.3,0.9,3,0.1C319.6,1049.3,319.5,1048.3,318.8,1047.7"/>
			<path id="Trazado_719928_00000030447084362377283960000004837099098916658609_" class="st10" d="M303.4,1054c-1-0.6-3.2,1-3,1.8
				c0.2,0.8,2.4,1.5,3.3,0.5C304.1,1055.6,304,1054.6,303.4,1054"/>
			<path id="Trazado_719929_00000128464405304752368720000011655694883410889642_" class="st10" d="M305.8,1051.4
				c-0.7-0.2-2.2,0.3-2.1,0.6c0.7,0.3,1.5,0.4,2.3,0.1C306.4,1051.9,306.3,1051.6,305.8,1051.4"/>
			<g id="Grupo_1085734_00000055686140754385969990000013143585838927701646_" transform="translate(237.771 1018.236)">
				<g>
					<defs>
						<rect id="SVGID_00000140720094936406005200000004425876067668761785_" x="6.4" y="-0.7" width="75.2" height="35.8"/>
					</defs>
					<clipPath id="SVGID_00000129195971783300531090000006559464300542135738_">
						<use xlink:href="#SVGID_00000140720094936406005200000004425876067668761785_"  style="overflow:visible;"/>
					</clipPath>
					
						<g id="Grupo_1085733_00000176005094752769109470000002852542810416643463_" style="clip-path:url(#SVGID_00000129195971783300531090000006559464300542135738_);">
						<path id="Trazado_719930_00000047058604056105414800000007353820687974804893_" class="st10" d="M81,29.5
							c-0.2-0.1-0.4-0.2-0.6-0.1c-1.7-2-6.8-7.7-10.3-10.2c-1.3-0.9-2.6-1.8-3.8-2.7c2.1,2.1,5.4,4.6,4.6,6.4
							c-0.2,0.5-0.8,0.7-2.1,1.2c-4,1.6-7.5-0.5-12.1-1.4c-3.3-0.7-2.4,0.2-11.3,0.1c-1.8,0-3.4-0.1-4.7-0.2c-0.2,1.5-2.8,2.7-6,2.7
							c-3.3,0-6-1.3-6-2.9c0-0.5,0.3-1.1,0.7-1.4c-2.5-0.6-4.4-2.4-4.4-4.6c0.1-1.9,1.4-3.6,3.2-4.3c-0.3-1.3-0.5-2.6-0.5-3.9
							c0.1-4.4,3.3-7.2,4.6-8.8c-1.6,0.1-3,0.8-4.2,1.8c-2.9,2.7-3.1,7.6-3.1,7.6s-4,2.6-4.5,3.4c-0.3,0.5-5,2.3-8.7,6.2
							c-0.3-0.3-0.8-0.4-1.2-0.4c-1,0.2-1.4,2.3-1,3.1c-1.2,1.9-2,4.1-2.3,6.3c-0.6,0.4-1.1,1-1.1,1.4c0.1,0.6,1.6,1.2,2.6,0.9
							C9,29.9,9,30,9,30.2c0.2,0.8,2.4,1.5,3.3,0.5c0.1-0.1,0.1-0.1,0.1-0.2c0.1,0.1,0.2,0.1,0.3,0.2c1.2,1,9.2,3.6,12.3,3.6
							s6-0.2,9.2,0.5s11.1,0,18.8-0.7c2.9-0.3,5.2-0.5,7.1-0.7v0c0.2,0.8,2.4,1.5,3.3,0.5c0.2-0.2,0.3-0.5,0.3-0.8
							c1.3-0.1,2.3-0.2,3.1-0.2c1.3,0,3.9,0.2,5.9,0.4c1.7,0.2,3.4-0.2,4.8-1.1l0.8-0.5c0.7,0.6,2.3,0.9,3,0.1
							C81.8,31.1,81.7,30.1,81,29.5"/>
					</g>
				</g>
			</g>
			<path id="Trazado_719931_00000016790060787033746060000002848188792099638945_" class="st10" d="M1310.1,1007.6l-0.1-3.3
				c0-0.8,0.5-1.5,1.2-1.7c3.3-1,6.8-1.1,10.1-0.2c0.8,0.2,1.3,0.9,1.3,1.8l0,3.4L1310.1,1007.6z"/>
			<path id="Trazado_719932_00000132064082944657245110000000553435007325435790_" class="st10" d="M1322.7,1004.5
				c-6.3,0.3-10.3-0.7-12.2-1.4c-0.3,0.3-0.4,0.7-0.4,1.1l0.1,3.3l12.5,0L1322.7,1004.5z"/>
			<path id="Trazado_719933_00000125583684964888174230000018404930612851698612_" class="st10" d="M1375.1,1088.5
				c0,0-1.5-35.5-1.5-37.3c0-17.5,1.1-45.3-6.1-47.7c-11.5-3.8-21.5,3.6-26.4,3.8c-4.9,0.2-17.6,0.6-17.6,0.6s-0.2-1.8-0.6-1.9
				c-4.1-1.1-8.4-1-12.4,0.1c-0.3,0.1-0.5,0.4-0.6,0.7l-0.4,1.3c-1.1,0.7-2,1.8-2.4,3.1c-0.8,2.4-0.1,70.7-0.1,70.7
				c0.1,11,5.8,12.1,9.7,12.4c6.1,0.5,37.4-0.9,48.8-1.9C1376.8,1091.7,1375.1,1088.5,1375.1,1088.5 M1363.4,1039.4
				c-0.1,0.3-0.3,0.4-0.6,0.4c-0.1,0-0.3-0.1-0.3-0.3c-1.4-3.5-5.6-12.7-12-16.7c0,0,0.1-7.8,1.2-9.2c2.3-3,7.1-3.8,9.7-1.2
				C1366,1017.1,1367.3,1024.3,1363.4,1039.4"/>
			<g id="Grupo_1085737_00000178177384379532575700000016268085624031252906_" transform="translate(1339.102 1007.416)">
				<g>
					<defs>
						<rect id="SVGID_00000049911388959976842070000010985757684861571764_" x="6.4" y="-0.7" width="26.8" height="46.2"/>
					</defs>
					<clipPath id="SVGID_00000147937099414661958850000012015861186525333131_">
						<use xlink:href="#SVGID_00000049911388959976842070000010985757684861571764_"  style="overflow:visible;"/>
					</clipPath>
					
						<g id="Grupo_1085736_00000175305405490149723310000010090543351437084309_" style="clip-path:url(#SVGID_00000147937099414661958850000012015861186525333131_);">
						<path id="Trazado_719934_00000154409183393593746910000015198203780997927311_" class="st10" d="M33.1,43.5
							c-0.8-0.3-5.9,0.3-8.4-0.5s-2.2-4.5,3.6-17.7c2.2-5,1-20.5-1.1-23.9S11.9-0.9,8.1,2.1s0,12.3,0,12.3
							c5.8,5.4,8.6,8.6,11.7,12.9s-1.2,17,2.7,17.8c2.6,0.4,5.2,0.5,7.8,0.2C31.8,45.1,33.9,43.8,33.1,43.5 M23.4,32.1
							c-1.4-3.5-5.6-12.7-12-16.7c0,0,0.1-7.9,1.2-9.2c2.4-2.9,6.6-3.5,9.7-1.2c4.7,3.6,6,11.9,2.1,27c-0.1,0.3-0.3,0.4-0.6,0.4
							C23.6,32.3,23.5,32.2,23.4,32.1"/>
					</g>
				</g>
			</g>
			<g id="Grupo_1085740_00000142166073725673399390000014867900171995411629_" transform="translate(1349.595 1055.369)">
				<g>
					<defs>
						<rect id="SVGID_00000124126025803584810650000017313336814561622447_" x="6.4" y="-0.7" width="10.8" height="36.9"/>
					</defs>
					<clipPath id="SVGID_00000082347262485576696900000001176285727633819813_">
						<use xlink:href="#SVGID_00000124126025803584810650000017313336814561622447_"  style="overflow:visible;"/>
					</clipPath>
					
						<g id="Grupo_1085739_00000034077079150144150620000012773943284429444994_" style="clip-path:url(#SVGID_00000082347262485576696900000001176285727633819813_);">
						<path id="Trazado_719935_00000136388696109597971890000015648198732462434968_" class="st10" d="M7.8-0.7c0,0-3,35.2,0,35.9
							c3.1,0.5,6.3,0.9,9.5,1C17.3,36.2,8.4,24.4,7.8-0.7"/>
					</g>
				</g>
			</g>
			<path id="Trazado_719936_00000182490273838174451160000003059625350880564665_" class="st10" d="M1312.3,1021.1
				c0,0,0,54.9,1,64.4c0,0,28.5,2.7,38.8-0.5C1352.1,1085,1356.6,1019.6,1312.3,1021.1"/>
			<g id="Grupo_1085743_00000145047211842460904040000009934654424179825336_" transform="translate(1305.193 1023.132)">
				<g>
					<defs>
						<rect id="SVGID_00000129911886679049455440000008123220253589994393_" x="6.4" y="-0.7" width="39.9" height="64.3"/>
					</defs>
					<clipPath id="SVGID_00000163030406080280553480000014185544870363362953_">
						<use xlink:href="#SVGID_00000129911886679049455440000008123220253589994393_"  style="overflow:visible;"/>
					</clipPath>
					
						<g id="Grupo_1085742_00000079466500161551211850000013167203317818582189_" style="clip-path:url(#SVGID_00000163030406080280553480000014185544870363362953_);">
						<path id="Trazado_719937_00000022545852869748646720000004367138146909756334_" class="st10" d="M6.4-0.7c0,0,0,53.9,0.9,63.2
							c0,0,28.5,2.7,38.8-0.5C46.2,62,50.7-2.2,6.4-0.7"/>
					</g>
				</g>
			</g>
			<path id="Trazado_719938_00000129887134528910699260000003505711607939122834_" class="st10" d="M1328.5,1054.7
				c0,0-2.2-4.6-9-5.9C1319.4,1048.8,1316.4,1059.6,1328.5,1054.7"/>
			<path id="Trazado_719939_00000181797093437465509170000010977490547032771219_" class="st10" d="M1329.1,1054.2c0,0-4.8-5.2-6-8
				c-1.3-2.8,1.1-9.4,5-10.2c0,0,6,1.9,6.9,7.3C1335.9,1048.7,1329.1,1054.2,1329.1,1054.2"/>
			<path id="Trazado_719940_00000085946901189681795380000006082534245614984874_" class="st10" d="M1329.9,1054.5
				c0,0,5.4-5.8,9.1-4.8c2.2,0.5,3.9,2.2,4.6,4.3C1343.6,1054,1336.2,1060.9,1329.9,1054.5"/>
			<path id="Trazado_719941_00000176006534363972658710000001516487419318978984_" class="st10" d="M1329,1055.2
				c0,0,1.8,6.9,0.1,9.3l1,0.1c0,0,0.4-7.7-0.7-9.4L1329,1055.2z"/>
			<path id="Trazado_719942_00000016782150142066560520000010099421328869872041_" class="st10" d="M1319.8,1063
				c0,0,11.7-4.7,21.1,0l-0.5,5c0,0-13-2.7-19.6,0.6L1319.8,1063z"/>
			<path id="Trazado_719943_00000145744008317942134900000002434022026419859881_" class="st10" d="M1323,1064.8
				c-2.3,0.6-4.4,1.9-6.1,3.6l2.5,0.7l-1,3.7c0,0,4.7-3.1,6.7-3.1L1323,1064.8z"/>
			<path id="Trazado_719944_00000090273096401395873190000002579264098416502454_" class="st10" d="M1338.2,1064.2
				c2.3,0.6,4.4,1.9,6.1,3.6l-2.5,0.7l1,3.7c0,0-4.7-3.1-6.7-3.1L1338.2,1064.2z"/>
			<path id="Trazado_719945_00000174560391203781931040000001098817339445139602_" class="st10" d="M1322,1074.4
				c0,0,14.7-0.6,18-0.1l-0.1,1.3l-18,0.2L1322,1074.4z"/>
			<path id="Trazado_719946_00000168801789722830553880000010692783413144602284_" class="st10" d="M1322.4,1076.9
				c0,0,14.7-0.6,18-0.1l-0.1,1.3l-18,0.2L1322.4,1076.9z"/>
			<path id="Trazado_719947_00000018202628176374810460000006578474927242677658_" class="st10" d="M1340.2,1080.7
				c0,0-14.7,0.6-18,0.1l0.1-1.3l18-0.2L1340.2,1080.7z"/>
		</g>
	</g>
	
		<pattern  id="tr_vi_2_Convertido_Recuperado_-03-2_00000102523557125632306810000007378643949076467636_" xlink:href="#pattern-2_3" patternTransform="matrix(0.8608 0 0 -0.8608 -842.7916 -15361.5918)">
	</pattern>
	
		<rect id="tr_vi_2_Convertido_Recuperado_-03-2" x="6.3" y="8.6" style="fill:url(#tr_vi_2_Convertido_Recuperado_-03-2_00000102523557125632306810000007378643949076467636_);" width="90.4" height="52"/>
	
		<pattern  id="tr_vi_2_Convertido_Recuperado_-03-2_00000063615515899619894440000013701805501058540935_" xlink:href="#pattern-2_3" patternTransform="matrix(1.0944 0 0 -1.0944 973.8445 -17277.3477)">
	</pattern>
	
		<rect id="tr_vi_2_Convertido_Recuperado_-03-2_00000115505538629358253340000004392188815834458036_" x="1134.2" y="207.2" style="fill:url(#tr_vi_2_Convertido_Recuperado_-03-2_00000063615515899619894440000013701805501058540935_);" width="114.9" height="66.1"/>
</g>
</svg>
