<?xml version="1.0" encoding="utf-8"?>
<!-- Generator: Adobe Illustrator 28.3.0, SVG Export Plug-In . SVG Version: 6.00 Build 0)  -->
<svg version="1.1" id="Capa_1" xmlns="http://www.w3.org/2000/svg" xmlns:xlink="http://www.w3.org/1999/xlink" x="0px" y="0px"
	 viewBox="0 0 1229 550" style="enable-background:new 0 0 1229 550;" xml:space="preserve">
<style type="text/css">
	.st0{fill:#FFFFFF;}
	.st1{fill:#0B481E;}
	.st2{font-family:'Roboto-Regular';}
	.st3{font-size:16px;}
	.st4{fill:#ADCE32;}
	.st5{font-size:14px;}
	.st6{fill:#FFA686;}
	.st7{fill:#2EB64D;}
	.st8{fill:#FEFEFE;}
	.st9{fill:#030303;}
	.st10{fill:#DEE9F0;}
	.st11{fill:#FDFDFD;}
	.st12{fill:#FFD947;}
	.st13{fill:#63261B;}
	.st14{fill:#F8B189;}
	.st15{fill:#12263F;}
	.st16{font-family:'Roboto-Bold';}
	.st17{font-size:19px;}
	.st18{filter:url(#Trazado_501624-2);}
	.st19{filter:url(#Trazado_501624-3);}
	.st20{filter:url(#Trazado_501624-5);}
	.st21{filter:url(#Trazado_501624-6);}
	.st22{filter:url(#Trazado_501624-7);}
</style>
<filter  filterUnits="userSpaceOnUse" height="57" id="Trazado_501624-7" width="57" x="798.846" y="446.5">
	<feOffset  dy="3" input="SourceAlpha"></feOffset>
	<feGaussianBlur  result="blur-7" stdDeviation="3"></feGaussianBlur>
	<feFlood  flood-opacity="0.161"></feFlood>
	<feComposite  in2="blur-7" operator="in"></feComposite>
	<feComposite  in="SourceGraphic" operator="over"></feComposite>
</filter>
<filter  filterUnits="userSpaceOnUse" height="57" id="Trazado_501624-6" width="57" x="590.423" y="446.5">
	<feOffset  dy="3" input="SourceAlpha"></feOffset>
	<feGaussianBlur  result="blur-6" stdDeviation="3"></feGaussianBlur>
	<feFlood  flood-opacity="0.161"></feFlood>
	<feComposite  in2="blur-6" operator="in"></feComposite>
	<feComposite  in="SourceGraphic" operator="over"></feComposite>
</filter>
<filter  filterUnits="userSpaceOnUse" height="57" id="Trazado_501624-5" width="57" x="382" y="446.5">
	<feOffset  dy="3" input="SourceAlpha"></feOffset>
	<feGaussianBlur  result="blur-5" stdDeviation="3"></feGaussianBlur>
	<feFlood  flood-opacity="0.161"></feFlood>
	<feComposite  in2="blur-5" operator="in"></feComposite>
	<feComposite  in="SourceGraphic" operator="over"></feComposite>
</filter>
<filter  filterUnits="userSpaceOnUse" height="57" id="Trazado_501624-3" width="57" x="272.5" y="158.5">
	<feOffset  dy="3" input="SourceAlpha"></feOffset>
	<feGaussianBlur  result="blur-3" stdDeviation="3"></feGaussianBlur>
	<feFlood  flood-opacity="0.161"></feFlood>
	<feComposite  in2="blur-3" operator="in"></feComposite>
	<feComposite  in="SourceGraphic" operator="over"></feComposite>
</filter>
<filter  filterUnits="userSpaceOnUse" height="57" id="Trazado_501624-2" width="57" x="901" y="158.5">
	<feOffset  dy="3" input="SourceAlpha"></feOffset>
	<feGaussianBlur  result="blur-2" stdDeviation="3"></feGaussianBlur>
	<feFlood  flood-opacity="0.161"></feFlood>
	<feComposite  in2="blur-2" operator="in"></feComposite>
	<feComposite  in="SourceGraphic" operator="over"></feComposite>
</filter>
<g id="img58" transform="translate(-181.077 -3854.188)">
	<g id="img58-2">
		<rect id="Rectángulo_361744" x="181.1" y="3854.2" class="st0" width="1229" height="550"/>
		<g id="Grupo_1083612" transform="translate(-21.445 816)">
			<rect id="Rectángulo_361745" x="726.5" y="3523.2" class="st1" width="190" height="46"/>
			<g id="Grupo_1083613">
				<rect id="Rectángulo_34578" x="415.1" y="3236.2" class="st1" width="186.3" height="46"/>
				<g id="Grupo_1083611">
					<rect id="Rectángulo_34569" x="622.1" y="3235.2" class="st1" width="189.3" height="46"/>
					<text transform="matrix(1 0 0 1 681.8149 3263.188)" class="st0 st2 st3">Gallinaza</text>
					<rect id="Rectángulo_34570" x="832.5" y="3235.2" class="st1" width="189.3" height="46"/>
					<text transform="matrix(1 0 0 1 902.405 3263.188)" class="st0 st2 st3">Ceniza</text>
					<g id="cemento-01" transform="translate(913.011 2808.3)">
						<path id="Trazado_124102" class="st4" d="M153.6,414.9c-0.3-0.6-0.9-0.5-1.4-0.6c-10-2.6-16-12.8-13.5-22.8
							c0.8-3.1,2.4-5.9,4.6-8.2c2.6-2.7,3.8-6.4,3.4-10c-1.3-20.9-1.6-41.8-1.4-62.6c0.1-12.6,0.5-25.3,1.4-37.9
							c0.5-4.3-0.9-8.5-3.9-11.7c-6.6-7.2-6.1-18.3,0.8-25.4c6.8-7.1,17.9-7.6,25.4-1.3c2.7,2.5,6.3,3.7,9.9,3.3
							c14.7-1.2,29.4-1.7,44.2-1.4c9.8,0.2,19.6,0.6,29.4,1.4c3.3,0.3,6.6-0.8,9.1-3c7.8-6.8,19.6-6,26.4,1.8
							c1.1,1.3,2.1,2.7,2.8,4.2c3.4,6.8,2.3,15-2.9,20.7c-2.9,2.8-4.3,6.8-3.7,10.8c0.2,1.6,0.3,3.1,0.2,4.7c0,1.4-1.1,2.5-2.4,2.5
							c0,0-0.1,0-0.1,0c-1.3,0.2-2.5-0.6-2.7-1.9c0-0.1,0-0.2,0-0.2c-0.3-3.4-0.8-6.7-0.3-10.1c0.6-3.4,2.2-6.5,4.7-9
							c4.5-4.6,5.1-11.7,1.3-16.9c-4.4-6.2-13.2-7.9-18.9-3c-5,4.3-10.4,5.3-16.7,4.8c-18.4-1.5-36.9-1.8-55.4-0.8
							c-5,0.3-10.1,0.5-15.1,0.9c-4.7,0.4-9.3-1.1-12.8-4.3c-5.5-4.9-13.9-4.4-18.7,1c-0.9,1.1-1.7,2.3-2.3,3.6
							c-2.3,5.2-1.6,10.2,2.2,14.3c4.1,4.3,5.4,9.2,5.1,15c-1.7,28-1.9,56.1-0.8,84.1c0.2,5.7,0.5,11.4,0.8,17.1
							c0.4,4.8-1.4,9.5-4.8,12.9c-5.1,5.3-5,13.8,0.3,18.9c5,4.9,13,5,18.2,0.3c3.4-3.1,7.9-4.6,12.4-4.2
							c17.6,1.4,35.4,1.8,53.1,1.2c6.9-0.3,13.8-0.6,20.7-1.2c4.7-0.4,9.4,1.2,12.9,4.4c5.5,4.8,13.9,4.3,18.8-1.3
							c1.3-1.5,2.3-3.3,2.8-5.2c1.5-4.4,0.3-9.3-2.9-12.6c-4-4.2-5.4-9-5-14.6c1.5-24.6,1.8-49.2,1.1-73.8c-0.1-3.5-0.2-7-0.3-10.5
							c-0.1-2.2,1-3.6,2.7-3.6s2.6,1.1,2.7,3.3c0.8,18.8,0.8,37.7,0.4,56.5c-0.2,9.8-0.6,19.6-1.2,29.4c-0.3,3.5,0.9,6.9,3.4,9.3
							c5,5.4,6.6,11.9,4.1,18.9s-7.4,11.2-14.7,12.5c-0.1,0-0.2,0.2-0.3,0.3h-5.8c-0.1-0.1-0.2-0.3-0.4-0.3c-3.6-0.7-6.9-2.5-9.6-5
							c-2.1-1.8-4.8-2.7-7.5-2.4c-6.5,0.4-13,0.9-19.5,1.1c-18.6,0.7-37.2,0.3-55.7-1.1c-3-0.3-6.1,0.7-8.3,2.8
							c-1.8,1.6-3.8,2.9-6.1,3.7c-1.2,0.5-2.5,0.8-3.8,1.2L153.6,414.9z"/>
						<path id="Trazado_124103" class="st4" d="M159.7,414.9c1.3-0.4,2.6-0.7,3.8-1.2c2.3-0.8,4.3-2.1,6.1-3.7
							c2.2-2.1,5.3-3.1,8.3-2.8c18.5,1.5,37.2,1.8,55.7,1.1c6.5-0.3,13-0.7,19.5-1.1c2.7-0.3,5.5,0.6,7.5,2.4c2.7,2.5,6,4.2,9.6,5
							c0.1,0,0.2,0.2,0.4,0.3L159.7,414.9z"/>
						<path id="Trazado_124104" class="st4" d="M188.6,356.4l-5.2-0.3c-0.5-2.3-1.1-2.8-3.6-2.9c-4.4-0.1-8-3.5-8.5-7.8
							c-1.6-15.2-1.6-30.6,0-45.8c0.4-4.3,4-7.7,8.3-7.8c1.7-0.1,3.5-0.2,5.2-0.3c22.1-1.2,44.2-1.1,66.2,0.3
							c4.3,0.2,7.9,3.5,8.3,7.8c1.6,15.2,1.6,30.6,0,45.8c-0.4,4.2-3.8,7.5-8,7.8c-5.2,0.3-10.3,0.6-15.5,0.8
							c-14.6,0.6-29.1,0.4-43.7,0C189.9,353.7,189.4,354.1,188.6,356.4z M215.4,312.9h33.2c2.9,0,4.3-0.9,4.3-2.7s-1.3-2.7-4.2-2.7
							H182c-2.9,0-4.2,0.9-4.2,2.8s1.4,2.7,4.2,2.7L215.4,312.9z M215.4,325.1h33.2c2.9,0,4.3-0.9,4.3-2.7s-1.4-2.8-4.2-2.8h-66.6
							c-0.7,0-1.3,0-2,0.1c-1.4,0.3-2.4,1.6-2.2,3.1c0.2,1.2,1.1,2,2.3,2.2c0.7,0.1,1.3,0.1,2,0.1L215.4,325.1z M215.4,337.4h24.7
							c2.8,0,4.1-0.9,4.1-2.7s-1.3-2.8-4.2-2.8h-49.3c-0.7,0-1.3,0-2,0.1c-1.4,0.2-2.4,1.6-2.2,3.1c0.2,1.1,1.1,2,2.3,2.2
							c0.6,0.1,1.2,0.1,1.8,0.1L215.4,337.4z"/>
						<path id="Trazado_124105" class="st4" d="M188.6,356.3c0.7-2.3,1.3-2.7,3.7-2.6c14.6,0.5,29.1,0.6,43.7,0
							c5.2-0.2,10.3-0.4,15.5-0.8c4.2-0.3,7.6-3.6,8-7.8c1.6-15.2,1.6-30.6,0-45.8c-0.4-4.3-4-7.7-8.3-7.8
							c-22-1.4-44.2-1.5-66.2-0.3c-1.7,0.1-3.5,0.2-5.2,0.3c-4.3,0.2-7.9,3.5-8.3,7.8c-1.6,15.2-1.6,30.6,0,45.8
							c0.4,4.4,4.1,7.7,8.5,7.8c2.5,0.1,3.1,0.6,3.6,2.9c-0.6,2.1-1.3,2.6-3.5,2.5c-7.4-0.1-13.5-5.8-14-13.2
							c-1.2-12.4-1.5-24.9-0.7-37.3c0.1-3.5,0.5-7,1-10.4c1.2-6.3,6.7-11,13.1-11.3c19.1-1.1,38.1-1.4,57.2-0.7
							c5.6,0.2,11.2,0.1,16.7,1c6.3,1,11.1,6.2,11.6,12.6c1.6,15.5,1.6,31,0,46.5c-0.6,7-6.3,12.5-13.3,12.9
							c-19.7,1.2-39.3,1.4-59,0.7C189.9,359.1,189.2,358.7,188.6,356.3z"/>
						<path id="Trazado_124106" class="st4" d="M172.9,387.1c1.6,0,2.8,1.2,2.8,2.8c0,1.6-1.2,2.8-2.8,2.8c-1.6,0-2.8-1.2-2.8-2.8
							c0,0,0-0.1,0-0.1C170.2,388.3,171.4,387.1,172.9,387.1z"/>
						<path id="Trazado_124107" class="st4" d="M184.9,389.7c0.1,1.5-1,2.7-2.5,2.8c0,0-0.1,0-0.1,0c-1.4,0.1-2.7-1-2.7-2.5
							c0-0.1,0-0.2,0-0.2c-0.1-1.5,1-2.7,2.5-2.8c0,0,0.1,0,0.1,0C183.6,387,184.8,388.2,184.9,389.7
							C184.9,389.7,184.9,389.7,184.9,389.7L184.9,389.7z"/>
						<path id="Trazado_124108" class="st4" d="M258.9,262.3c0.1,1.5-1.1,2.8-2.6,2.9c0,0,0,0,0,0c-1.6,0-2.8-1.3-2.7-2.9
							c0-1.4,1.2-2.6,2.6-2.7C257.6,259.6,258.9,260.8,258.9,262.3C258.9,262.3,258.9,262.3,258.9,262.3L258.9,262.3z"/>
						<path id="Trazado_124109" class="st4" d="M260.8,251.6c1.5,0,2.7,1.2,2.7,2.7c0,0,0,0.1,0,0.1c0.1,1.4-1,2.7-2.5,2.8
							c-0.1,0-0.1,0-0.2,0c-1.5,0-2.7-1.2-2.7-2.7c0,0,0,0,0,0C258.1,252.9,259.3,251.6,260.8,251.6z"/>
						<path id="Trazado_124110" class="st4" d="M177.5,384.7c-1.4,0-2.6-1.1-2.7-2.6c0-0.1,0-0.1,0-0.2c0-1.5,1.1-2.7,2.6-2.8
							c0,0,0.1,0,0.1,0c1.5,0,2.7,1.3,2.7,2.8C180.2,383.4,179,384.7,177.5,384.7C177.5,384.7,177.5,384.7,177.5,384.7L177.5,384.7z
							"/>
						<path id="Trazado_124111" class="st4" d="M265.5,259.5c1.5,0,2.7,1.2,2.7,2.7c0,0,0,0.1,0,0.1c0.1,1.4-1,2.7-2.5,2.7
							c-0.1,0-0.1,0-0.2,0c-1.5-0.1-2.7-1.4-2.6-2.9C262.9,260.7,264.1,259.6,265.5,259.5L265.5,259.5z"/>
						<path id="Trazado_124112" class="st4" d="M215.4,312.8H182c-2.8,0-4.1-0.9-4.2-2.7s1.3-2.8,4.2-2.8h66.6
							c2.9,0,4.3,0.9,4.2,2.7s-1.4,2.7-4.3,2.7L215.4,312.8z"/>
						<path id="Trazado_124113" class="st4" d="M215.4,325.1h-33.2c-0.7,0-1.3,0-2-0.1c-1.5-0.2-2.5-1.5-2.3-3
							c0.1-1.2,1-2.1,2.2-2.3c0.7-0.1,1.3-0.1,2-0.1h66.6c2.9,0,4.3,0.9,4.2,2.8s-1.4,2.7-4.3,2.7L215.4,325.1z"/>
						<path id="Trazado_124114" class="st4" d="M215.4,337.4h-24.7c-0.6,0-1.2,0-1.8-0.1c-1.5-0.2-2.5-1.5-2.3-3
							c0.2-1.1,1-2.1,2.2-2.3c0.7-0.1,1.3-0.1,2-0.1H240c2.9,0,4.3,0.9,4.2,2.8s-1.4,2.7-4.1,2.7L215.4,337.4z"/>
					</g>
					<rect id="Rectángulo_34572" x="1041.4" y="3235.2" class="st1" width="190" height="46"/>
					<text transform="matrix(1 0 0 1 1120.022 3263.188)" class="st0 st2 st3">Cal</text>
					<rect id="Rectángulo_34574" x="516.4" y="3523.2" class="st1" width="190" height="46"/>
					<text transform="matrix(1 0 0 1 585.613 3549.2471)" class="st0 st2 st3">Melaza</text>
					<text transform="matrix(1 0 0 1 792.7869 3542.188)" class="st0 st2 st5">Residuos </text>
					<text transform="matrix(1 0 0 1 790.764 3558.188)" class="st0 st2 st5">Vegetales</text>
					<rect id="Rectángulo_34576" x="936.4" y="3523.2" class="st1" width="190" height="46"/>
					<text transform="matrix(1 0 0 1 988.809 3542.188)" class="st0 st2 st5">Suero o acido </text>
					<text transform="matrix(1 0 0 1 1010.578 3558.188)" class="st0 st2 st5">láctico</text>
					<g id="fertilizante-01" transform="translate(500.667 2797.175)">
						<path id="Trazado_124116" class="st1" d="M165.7,249.1c0.7-2.5,1.3-3,3.9-3h83.5c3,0,4,0.8,3.8,3.8
							c-0.8,10.6,1.4,20.9,3.1,31.3c3.8,22.7,6.1,45.6,4.7,68.6c-0.5,7.5-1,15-2.1,22.4c-0.3,2.3,0,2.8,2.4,3.3
							c7.2,1.4,12.7,7.5,13.4,14.8c0,1.3,0.9,2.5,2.2,2.8c5.7,2.1,9.7,7.1,10.5,13.1c0.1,0.8,0.6,1.5,1.3,1.8c5.4,2.6,8.3,7,9,12.9
							c0.3,2.8-0.7,4-3.5,4h-21.8c-0.8,0.1-1.5-0.1-2.2-0.4c-1.1-0.6-1.7-1.8-1.4-3c0.2-1.2,1.3-2.1,2.6-2h10.3c2.8,0,5.6-0.1,8.5,0
							c1.8,0.1,1.7-0.6,1.1-1.8c-1.2-2.6-3.5-4.5-6.3-5.3c-2-0.6-2.8-1.7-2.9-3.8c-0.2-5.9-3.9-10-9.7-11.1
							c-2.8-0.5-3.5-1.4-3.2-4.2c0.8-6.2-3.6-11.8-9.8-12.6c-0.6-0.1-1.2-0.1-1.7-0.1c-2.3,0.2-3.2-0.8-3.5-3
							c-0.9-7-7.3-11.9-14.3-11c-5.7,0.7-10.2,5.2-11,10.8c-0.4,2.5-1.2,3.2-3.7,3.2c-6.2-0.2-11.3,4.7-11.4,10.9c0,0.3,0,0.6,0,0.9
							c0,0.3,0,0.6,0,0.9c0.1,3.1-0.4,3.7-3.4,4.2c-4,0.6-7.3,3.3-8.7,7.1c-0.5,1.2-0.7,2.4-0.7,3.7c-0.2,3-0.4,3.2-3.1,4.1
							c-2.9,0.9-5.2,3-6.3,5.8c-0.4,0.9-0.2,1.2,0.8,1.2c6.9,0,13.8,0,20.7,0c1.1,0,1.3-0.6,1.6-1.4c1.7-4.9,6.4-8.2,11.6-8.3
							c1.5-0.2,2.9,1,3,2.5c0.2,1.5-1,2.9-2.5,3c-0.1,0-0.2,0-0.4,0c-2.7,0.1-5.1,1.7-6.3,4.1h18.6c2.2,0,3.5,1.1,3.4,2.6
							c-0.1,1.8-1.3,2.8-3.5,2.8H134.3c-2.5,0-3.6-0.9-3.4-3.3c0.7-10.8-1.4-21.3-3.2-31.8c-3.3-19.7-5.4-39.5-5-59.4
							c0.5-15.7,2-31.3,4.6-46.7c1-6.4,2.4-12.7,3.3-19c0.6-3.6,0.2-7.4,0.2-11.1c0-1.5,0-3,0-4.5c0.1-1.8,1-2.9,2.8-2.9
							c7.5-0.1,14.9,0,22.4,0c1.8,0,2.6,1.2,3,2.8c-0.4,1.8-1.5,2.6-3.5,2.6c-5.9-0.1-11.8,0-17.7-0.1c-1.3,0-1.8,0.4-1.7,1.7
							c0.1,2.1,0,4.1,0,6.2c0,2.7-0.3,2.4,2.4,2.4h110.6c0.4,0,0.8,0,1.1,0c1,0.1,1.3-0.3,1.3-1.3c-0.1-2.2,0-4.4,0-6.6
							c0-2.7,0.3-2.4-2.4-2.4h-79.7C167.6,251.4,166.3,251,165.7,249.1z M258,366.2c1.1-8.4,1.7-16.8,1.8-25.3
							c0.2-14-0.6-28-2.5-41.9c-1.3-10.2-2.9-20.3-4.8-30.4c-0.2-1.2-0.6-1.6-1.9-1.6c-37.8,0-75.5,0-113.3,0
							c-1.2,0-1.7,0.3-1.9,1.6c-2,10.2-3.6,20.6-4.9,30.9c-1.4,10.7-2.2,21.5-2.4,32.3c-0.1,12.2,0.6,24.4,2.1,36.5
							c1.3,11.4,3,22.7,5.2,33.9c0.3,1.4,0.7,1.7,2.1,1.7c20.2,0,40.5,0,60.7,0c1.1,0.2,2.1-0.5,2.4-1.5c1.7-4.5,5.3-7.9,9.8-9.4
							c1.1-0.3,1.9-1.3,1.8-2.4c0.5-7.5,6.1-13.7,13.5-15c1.3-0.1,2.3-1.1,2.5-2.4c2.9-8.2,11.3-13.2,19.9-11.8
							C251.7,362,255.2,363.7,258,366.2L258,366.2z M195.6,409.3h-33c-8.2,0-16.4,0-24.6,0c-1.3,0-1.7,0.4-1.7,1.7
							c0.1,2.3,0.1,4.6,0,6.9c-0.1,1.3,0.3,1.7,1.7,1.7c4.8-0.1,9.5,0,14.3,0h35.1c0.7,0,1.6,0.4,2-0.9
							C190.2,414.9,192.4,411.6,195.6,409.3z"/>
						<path id="Trazado_124117" class="st6" d="M163.6,246.3c0.5,2,1.9,2.4,3.8,2.4c27,0,54,0,81,0c2.8,0,2.4-0.3,2.4,2.5
							c0,2.2,0,4.5,0,6.7c0,1-0.3,1.4-1.3,1.3c-0.4,0-0.8,0-1.1,0H136.1c-2.7,0-2.4,0.3-2.4-2.5c0-2.1,0.1-4.2,0-6.3
							c-0.1-1.3,0.4-1.7,1.7-1.7c6,0.1,12,0,17.9,0.1c2,0,3.1-0.8,3.6-2.6C159.1,246.2,161.4,245.8,163.6,246.3z"/>
						<path id="Trazado_124118" class="st1" d="M242.6,384c2,0,3.2,1,3.3,2.7c0.1,1.6-1,2.7-2.8,2.9c-3.8,0.5-5.7,2.3-6.2,6.2
							c-0.3,1.9-1.4,3.1-3.1,2.9c-1.6-0.1-2.8-1.5-2.7-3c0,0,0-0.1,0-0.1C231.2,389.3,236.2,384.2,242.6,384z"/>
						<path id="Trazado_124119" class="st1" d="M259.2,396.6c5.7,0.1,11,5.3,11.2,11.2c0.1,1.9-0.9,3.2-2.5,3.5s-2.8-0.9-3.1-2.9
							c-0.7-4.2-2.2-5.6-6.4-6.2c-1.5-0.1-2.7-1.5-2.6-3C255.8,397.5,257.1,396.5,259.2,396.6z"/>
						<path id="Trazado_124120" class="st1" d="M258.7,419.4c1.2,0,2.4,0,3.6,0c1.4-0.1,2.5,0.9,2.6,2.3c0,0,0,0.1,0,0.2
							c0.2,1.4-0.8,2.7-2.3,2.9c0,0-0.1,0-0.1,0c-2.5,0.2-5.1,0.2-7.6,0c-1.4-0.1-2.5-1.4-2.4-2.8c0-0.1,0-0.1,0-0.2
							c0-1.3,1.1-2.4,2.5-2.4c0.1,0,0.1,0,0.2,0C256.4,419.4,257.6,419.4,258.7,419.4z"/>
						<path class="st4" d="M257.3,365.2c-2.8-2.5-6.3-4.2-10.1-4.9c-8.8-1.4-17.3,3.7-20.2,12c-0.2,1.3-1.3,2.3-2.6,2.4
							c-7.5,1.4-13.2,7.6-13.7,15.3c0,1.2-0.7,2.2-1.8,2.4c-4.6,1.5-8.3,5-10,9.6c-0.3,1.1-1.3,1.7-2.4,1.6c-20.6,0-41.1,0-61.7,0
							c-1.3,0-1.8-0.4-2.1-1.7c-2.2-11.4-4-22.9-5.3-34.4c-1.5-12.3-2.3-24.7-2.1-37.1c0.2-11,1.1-22,2.5-32.9c1.3-10.5,3-21,5-31.4
							c0.3-1.3,0.7-1.6,2-1.6c38.4,0,76.7,0,115.1,0c1.3,0,1.7,0.4,1.9,1.7c2,10.2,3.6,20.5,4.9,30.8c1.9,14.1,2.8,28.3,2.5,42.6
							C259,348.1,258.3,356.7,257.3,365.2L257.3,365.2z"/>
						<path class="st4" d="M155.3,272.1h-10.9c-1.9,0-2.9,0.9-2.9,2.5c-0.1,1.5,1,2.7,2.5,2.8c0.1,0,0.2,0,0.3,0
							c7.3,0.1,14.6,0.1,21.9,0c1.5,0.1,2.8-1,2.9-2.5c0-0.1,0-0.3,0-0.4c-0.1-1.5-1.2-2.4-3.1-2.4
							C162.5,272.1,158.9,272.1,155.3,272.1L155.3,272.1z"/>
						<path class="st4" d="M180.2,277.5L180.2,277.5c1.1,0,2.2,0,3.2-0.1c1.3-0.1,2.4-1.2,2.4-2.5c0.2-1.3-0.6-2.4-1.9-2.7
							c0,0,0,0,0,0c-2.4-0.4-4.8-0.4-7.2-0.1c-1.3,0.1-2.3,1.2-2.3,2.6c0,0,0,0,0,0c0,1.3,1,2.5,2.3,2.6
							C177.9,277.5,179.1,277.5,180.2,277.5L180.2,277.5z"/>
						<path id="Trazado_124122" class="st7" d="M193.9,409c-3.2,2.3-5.5,5.7-6.4,9.6c-0.3,1.2-1.2,0.9-2,0.9h-35.7
							c-4.8,0-9.7,0-14.5,0c-1.4,0-1.7-0.4-1.7-1.7c0.1-2.3,0.1-4.7,0-7.1c-0.1-1.3,0.3-1.7,1.7-1.7c8.3,0.1,16.7,0,25,0L193.9,409
							L193.9,409z"/>
						<path id="Trazado_124123" class="st1" d="M148.8,334.3c0-22.6,18.3-40.9,40.9-40.9c22.6,0,40.9,18.3,40.9,40.9
							c0,22.6-18.3,40.9-40.9,40.9c-10.7,0-21-4.2-28.7-11.7C153.2,355.7,148.8,345.2,148.8,334.3z M189.9,369.8
							c19.2,0.2,35.5-15.9,35.7-35.1c0.3-19.7-15.4-35.9-35.1-36.2s-35.9,15.4-36.2,35.1s15.4,35.9,35.1,36.2
							C189.5,369.8,189.7,369.8,189.9,369.8z"/>
						<path id="Trazado_124124" class="st1" d="M155.3,272.1H166c1.9,0,2.9,0.9,3.1,2.4c0.1,1.5-1,2.8-2.5,2.9c-0.1,0-0.2,0-0.4,0
							c-7.3,0.1-14.6,0.1-21.9,0c-1.5,0.1-2.7-1.1-2.7-2.5c0-0.1,0-0.2,0-0.3c0-1.6,1-2.5,2.9-2.5
							C148.1,272.1,151.7,272.1,155.3,272.1z"/>
						<path id="Trazado_124125" class="st1" d="M180.2,277.5c-1.1,0-2.3-0.1-3.4-0.2c-1.3-0.1-2.4-1.2-2.3-2.6
							c-0.1-1.3,0.9-2.5,2.2-2.6c0,0,0,0,0,0c2.4-0.4,4.8-0.3,7.2,0.1c1.3,0.2,2.1,1.4,1.9,2.6c0,0,0,0,0,0c0,1.3-1.1,2.5-2.4,2.5
							C182.4,277.5,181.3,277.5,180.2,277.5L180.2,277.5z"/>
						<path id="Trazado_124126" class="st8" d="M189.9,369.8c-19.7,0-35.8-16-35.8-35.7c0-19.7,16-35.8,35.7-35.8
							c19.7,0,35.8,16,35.8,35.7c0,0.2,0,0.5,0,0.7C225.4,353.9,209.1,370,189.9,369.8z M187,338.4c-4.1-4.1-8.7-6.4-14.2-6.8
							c-3.3-0.2-4.2,0.8-4.1,4.1c0.7,9.5,7.7,17.4,17,19.3c1.2,0.2,1.4,0.7,1.4,1.7c-0.1,1.5-0.1,3.1,0,4.6c0,1.5,1.1,2.7,2.6,2.7
							c0.1,0,0.2,0,0.3,0c1.4,0,2.5-1.1,2.6-2.5c0-0.1,0-0.2,0-0.3c0-1.5,0.1-3.1,0-4.6c-0.1-1.1,0.3-1.5,1.4-1.7
							c9.5-1.9,16.5-10,17.1-19.6c0.2-2.7-0.9-3.9-3.7-3.7c-5.1,0.2-9.9,2.3-13.6,5.8c-0.3,0.3-0.5,0.9-1.1,0.8
							c-0.4-2.4,0.2-4.8,1.7-6.7c5.5-8.1,4.6-18.9-2.1-26c-1.7-1.8-3.2-1.8-4.8,0c-6.8,7.2-7.6,18.2-1.9,26.3
							C187,333.8,187.2,335.8,187,338.4L187,338.4z"/>
						<path id="Trazado_124127" class="st1" d="M187,338.4c0.2-2.6,0-4.6-1.5-6.7c-5.7-8.1-4.9-19.1,1.9-26.3c1.7-1.8,3.1-1.8,4.8,0
							c6.7,7.1,7.6,17.9,2.1,26c-1.5,1.9-2.1,4.3-1.7,6.7c0.6,0.1,0.8-0.5,1.1-0.8c3.7-3.5,8.5-5.6,13.6-5.8c2.8-0.1,3.9,1,3.7,3.7
							c-0.5,9.7-7.5,17.8-17.1,19.7c-1.1,0.2-1.5,0.6-1.4,1.7c0.1,1.5,0,3.1,0,4.6c0.1,1.4-0.9,2.6-2.3,2.7c-0.1,0-0.1,0-0.2,0
							c-1.5,0.1-2.7-1-2.8-2.5c0-0.1,0-0.2,0-0.3c-0.1-1.5-0.1-3.1,0-4.6c0.1-1.1-0.2-1.5-1.4-1.7c-9.4-1.9-16.3-9.7-17-19.3
							c-0.2-3.3,0.8-4.3,4.1-4.1C178.3,332,182.9,334.3,187,338.4z M193.1,349.6c5.3-0.5,11.2-6.1,12.1-11.2c0.2-1.2-0.5-1-1.1-0.8
							C198.6,338.9,193.4,344.5,193.1,349.6L193.1,349.6z M190,311.1c-3.4,4-3.7,11.3-1,16.1c0.2,0.4,0.3,1,0.8,1
							c0.6,0,0.7-0.6,0.9-1.1C193.5,321.8,193.2,316.5,190,311.1L190,311.1z M175.7,337.5c-1.4-0.1-1.3,0.4-1.1,1
							c1.5,5.2,5.5,9.3,10.6,10.8c1.4,0.4,1.6,0,1.2-1.2c-1.2-4.1-4.1-7.6-8-9.5C177.6,338.2,176.7,337.9,175.7,337.5L175.7,337.5z"
							/>
						<path id="Trazado_124128" class="st4" d="M193.1,349.6c0.4-5,5.5-10.6,11-12c0.6-0.1,1.3-0.4,1.1,0.8
							C204.3,343.5,198.4,349,193.1,349.6z"/>
						<path id="Trazado_124129" class="st4" d="M190,311.1c3.2,5.4,3.4,10.6,0.7,16.1c-0.2,0.4-0.3,1.1-0.9,1.1
							c-0.5,0-0.6-0.6-0.8-1C186.3,322.4,186.6,315.1,190,311.1z"/>
						<path id="Trazado_124130" class="st4" d="M175.8,337.5c0.9,0.3,1.9,0.7,2.8,1.1c3.9,1.9,6.7,5.4,8,9.5
							c0.4,1.2,0.2,1.6-1.2,1.2c-5.2-1.5-9.2-5.6-10.6-10.8C174.5,338,174.4,337.4,175.8,337.5z"/>
					</g>
					<g id="terreno_1_-01" transform="translate(-167.601 2810.154)">
						<path id="Trazado_124132" class="st4" d="M583.8,335.8c0-0.4-0.1-0.7-0.1-1.1c0-19.7,0-39.3-0.1-59c-0.1-1,0.5-2,1.5-2.3
							c25.4-14.7,50.9-29.3,76.3-44c0.8-0.3,1.5-0.8,2-1.4h0.7c0.4,0.7,1.2,0.9,1.9,1.3c25.3,14.6,50.6,29.3,75.9,43.9
							c0.6,0.3,1.6,0.4,1.6,1.5c-0.3,0.1-0.6,0.2-0.8,0.3c-11.1,6.4-22.1,12.7-33.2,19.2c-14.8,8.5-29.5,17-44.3,25.5
							c-1,0.5-1.5,1.5-1.4,2.6c0,19.2,0,38.4-0.1,57.5v1.6h-0.4v-1.8c0-8.9,0-17.8,0-26.7c0-1.2-0.2-1.9-1.5-2.1
							c-7-1.3-14.1-2.7-21.1-4c-10.9-2.1-21.8-4.2-32.7-6.2C600,339,591.9,337.4,583.8,335.8z"/>
						<path id="Trazado_124133" class="st1" d="M583.8,335.8c8.1,1.6,16.2,3.1,24.3,4.7c10.9,2.1,21.8,4.2,32.7,6.2
							c7,1.3,14.1,2.7,21.1,4c1.3,0.2,1.5,0.9,1.5,2.1c0,8.9,0,17.8,0,26.7v1.8h0.4v-1.6c0-19.2,0.1-38.3,0.1-57.5
							c-0.1-1.1,0.5-2.1,1.4-2.5c14.8-8.5,29.5-17,44.2-25.5c11.1-6.4,22.1-12.8,33.2-19.2c0.3-0.1,0.5-0.2,0.8-0.3
							c0,10.7,0,21.4,0.1,32c0,19.3,0,38.7,0.1,58c0.1,1.1-0.5,2.2-1.6,2.7c-25.6,14.8-51.2,29.6-76.7,44.5c-1,0.7-2.3,0.6-3.3-0.1
							c-25.7-14.9-51.4-29.8-77.1-44.6c-0.7-0.4-1.3-0.8-1.3-1.9c0.1-9.6,0-19.2,0-28.8C583.8,336.3,583.8,336.1,583.8,335.8
							L583.8,335.8z"/>
						<g id="contaminacion-atmosferica-01" transform="translate(953.711 67.072)">
							<path id="Trazado_124134" class="st9" d="M43,277.2v-9.1c0.6-0.5,0.5-1.2,0.6-1.8c1.1-6.5,4.1-12.5,8.6-17.3
								c0.9-1,1.1-1.6,0.3-2.9c-3.6-5.6-5-12.2-4-18.8c2.2-15.5,16.5-26.2,32-24c1.8,0.3,3.5,0.7,5.2,1.3c0.9,0.3,1.3,0.3,1.8-0.6
								c5.2-9.4,16.5-13.6,26.6-10c1,0.3,1.4,0.2,1.9-0.7c7.9-13.2,19.5-19.3,34.8-17.9c15.2,1.7,27.5,13.1,30.3,28.1
								c0.2,1.3,0.7,1.7,2,1.7c14.8,0.5,26.9,9.8,30.8,23.8c0.4,1.5,0.4,3.1,1.1,4.6v8.1c-0.4,0.1-0.3,0.5-0.4,0.8
								c-0.7,4.7-2.5,9.2-5.2,13.1c-0.6,0.7-0.6,1.6-0.2,2.4c2.7,5.3,3.3,11.4,1.8,17.1c-3.1,12.4-14,20.3-27.1,19.6
								c-0.6,0-1.7-0.7-1.8,0.4c0,1,1.1,0.4,1.6,0.4c10,0.3,17.9,8.6,17.7,18.6c-0.3,10-8.6,17.9-18.6,17.7c-1.1,0-2.3-0.2-3.4-0.4
								c-0.7-0.2-1.4-0.4-2.1,0.3c-4,4-10,5.3-15.2,3.2c-5.6-2-8.8-6.3-9.6-12.2c-0.1-1-0.5-1.1-1.3-1.1c-2.9,0.2-5.8-0.1-8.7-0.8
								c-1.1-0.3-1.5,0.1-2,1c-8,14.4-26.1,19.6-40.5,11.7c-0.6-0.5-1.6-0.4-2.1,0.2c-4.9,4.6-11.3,7.2-18.1,7.5
								c-11.4,0.5-20.6-4-26.8-13.5s-6.5-19.7-1.5-30c0.5-0.7,0.4-1.7-0.3-2.3c-3.6-4.3-6.2-9.4-7.4-14.8
								C43.6,279.5,43.7,278.3,43,277.2z M152.4,316.8c-0.5-0.6-0.8-1-1-1.4c-3.1-4.8-3.5-9.8-1-15c3.7-7.2,12.4-10,19.6-6.4
								c1.4,0.7,2.6,1.6,3.7,2.7c0.4,0.4,0.6,1.2,1.4,0.8c1.1-0.5,2.1-0.9,2.2-2.4c0.1-1,0.3-2,0.5-3c0.4-2.5,1.2-3,3.8-2.6
								c8.8,1.6,16.2-0.9,21.5-8.2c5.1-7,5.5-14.6,1.4-22.3c-1.1-2.1-0.9-3.5,0.4-5.4c6.5-9.4,7.4-19.4,1.9-29.4
								S192.5,209.6,181,210c-3.4,0.1-3.8-0.2-4.3-3.6c-0.5-4.6-2.1-9-4.7-12.8c-6.6-9.6-15.8-14.4-27.3-13.6
								c-11.8,0.8-20.4,6.9-25.6,17.6c-1.3,2.7-2.1,3-4.8,1.7c-8.6-4.2-19-0.6-23.1,8c-0.1,0.2-0.2,0.5-0.3,0.7
								c-1.2,2.8-2,3.1-4.8,1.9c-4.1-1.8-8.6-2.4-13-1.7c-12.8,2-21.7,14-19.7,26.8c0.6,3.8,2.1,7.4,4.4,10.5
								c1.8,2.4,1.7,3.1-0.4,5.1c-12.2,11.6-12.8,30.9-1.3,43.2c2,2.1,2,2.5,0.5,5.1c-3,4.9-4.2,10.6-3.3,16.3
								c1.6,10,7.3,16.9,17,20.2c9.8,3.3,18.5,0.9,25.9-6.2c1.9-1.8,2.4-1.9,4.6-0.5c11.7,7.6,27.3,4.2,34.9-7.5
								c0.7-1,1.3-2.1,1.8-3.2c1.1-2.4,1.7-2.7,4.3-2C145.2,316.8,148.8,317.2,152.4,316.8z M190.9,312.8c0-2.2-1.3-4.2-3.4-5.1
								c-1.1-0.5-2.5,0-3,1.1c-0.1,0.2-0.2,0.5-0.2,0.8c-0.3,2.2,0.8,4.4,2.7,5.5C189.1,316.2,190.9,315.1,190.9,312.8L190.9,312.8z
								 M164.7,301.1c-1.5-0.1-2.8,0.9-2.9,2.4c-0.1,1.5,0.9,2.8,2.4,2.9c1.5,0.1,2.8-0.9,2.9-2.4c0-0.1,0-0.2,0-0.3
								C167.2,302.4,166.1,301.2,164.7,301.1L164.7,301.1z"/>
							<path id="Trazado_124137" class="st10" d="M152.4,316.8c-3.6,0.3-7.2,0-10.7-1c-2.6-0.7-3.2-0.5-4.3,2
								c-5.8,12.7-20.7,18.2-33.4,12.5c-1.1-0.5-2.2-1.1-3.2-1.8c-2.2-1.4-2.7-1.3-4.6,0.5c-7.4,7.1-16.1,9.5-25.9,6.2
								c-9.6-3.2-15.4-10.2-17-20.2c-0.9-5.6,0.2-11.4,3.3-16.3c1.6-2.6,1.5-3-0.5-5.1c-11.5-12.3-10.9-31.6,1.3-43.2
								c2.1-2,2.1-2.7,0.4-5.1c-7.8-10.4-5.6-25.2,4.8-32.9c3.1-2.3,6.7-3.8,10.5-4.4c4.4-0.7,8.9-0.1,12.9,1.7
								c2.7,1.2,3.6,0.9,4.8-1.9c3.8-8.8,14-12.8,22.7-9c0.2,0.1,0.5,0.2,0.7,0.3c2.7,1.3,3.5,1,4.8-1.7
								c5.2-10.7,13.8-16.8,25.6-17.6c11.5-0.8,20.7,4.1,27.3,13.6c2.6,3.8,4.2,8.2,4.7,12.8c0.4,3.4,0.9,3.7,4.3,3.6
								c11.4-0.3,20.3,4.4,25.8,14.4s4.6,20-1.9,29.4c-1.3,1.9-1.6,3.3-0.4,5.4c4.1,7.6,3.7,15.3-1.4,22.3
								c-5.3,7.2-12.7,9.7-21.5,8.2c-2.6-0.5-3.4,0.1-3.8,2.6c-0.2,1-0.4,2-0.5,3c-0.1,1.4-1.1,1.9-2.2,2.4
								c-0.9,0.4-1.1-0.4-1.4-0.8c-5.7-5.7-14.9-5.7-20.6,0c-1.1,1.1-2,2.3-2.7,3.7c-2.6,5.1-2.2,10.2,1,15
								C151.6,315.8,151.9,316.2,152.4,316.8z M101.8,286.7c-0.3,1.3,0.6,2.6,1.9,2.9c0.4,0.1,0.7,0.1,1.1,0
								c2.6-0.3,5.2-0.2,7.7,0.3c1.8,0.3,2.7-0.2,3.2-1.8c2.4-8.4,8.6-15.1,16.6-18.4c1.6-0.7,2.1-1.7,1.5-3.4
								c-2-5.1-1.5-10.9,1.5-15.6c1.1-1.9,0.4-3.5-1.7-3.9c-7.3-1.5-13.8-5.7-18.2-11.7c-1.2-1.6-2.5-1.7-4-0.4
								c-4.1,3.6-9.6,5.1-15,4.1c-2.1-0.4-3.1,0.4-3.3,2.5c-0.4,3.3-1.5,6.4-3.2,9.3c-1.6,2.7-1.5,3.1,1,5.1
								c7,5.4,11.3,13.6,11.7,22.5C102.7,280.9,102.5,283.8,101.8,286.7L101.8,286.7z"/>
							<path id="Trazado_124138" class="st11" d="M190.9,312.8c0,2.4-1.8,3.4-3.8,2.3c-1.9-1.1-3-3.3-2.7-5.5
								c0.1-1.2,1.2-2.2,2.4-2.1c0.3,0,0.5,0.1,0.8,0.2C189.6,308.5,190.9,310.5,190.9,312.8z"/>
							<path id="Trazado_124139" class="st11" d="M164.7,301.1c1.5-0.1,2.7,1.1,2.8,2.6c0.1,1.5-1.1,2.7-2.6,2.8
								c-1.5,0.1-2.7-1.1-2.8-2.6c0,0,0,0,0-0.1C162.1,302.4,163.3,301.2,164.7,301.1z"/>
							<path id="Trazado_124140" class="st9" d="M197.3,175.3c4.3-0.2,8.2,2.4,9.6,6.4c0.1,0.5,0.5,0.9,1,1c0.3,0.1,0.6,0.2,0.9,0.4
								c3.4,1.6,5.7,4,5.8,7.9c0,3.8-2.2,6.3-5.5,7.9c-0.8,0.4-1.5,1-1.9,1.9c-1.6,3.5-5.1,5.6-8.9,5.4c-3.9,0-7.3-2.4-8.7-6
								c-0.2-0.9-1-1.5-1.9-1.6c-2-0.3-3.9-1.2-5.4-2.5c-3.7-3.1-3.8-7.8-0.2-11c1.5-1.3,3.6-1.7,5.1-2.7c1.4-1,1.6-3.3,3.2-4.5
								C192.3,176.2,194.8,175.3,197.3,175.3z M197.9,201.5c2.3,0,4.1-0.6,4.6-2.1c1-2.9,3-4.1,5.5-5.4c2.7-1.3,2.6-4.4,0-6.1
								c-0.9-0.6-2-1-3.1-1.2c-1.3,0-2.4-1.1-2.4-2.4c0-0.1,0-0.2,0-0.3c0-1.1-0.5-2.1-1.3-2.8c-2.3-1.8-5.5-1.8-7.8,0
								c-0.8,0.6-1.3,1.6-1.3,2.6c-0.1,2-0.7,2.6-2.7,2.9c-1.3,0.1-2.6,0.6-3.8,1.3c-2.1,1.5-2.1,3.2,0.1,4.6
								c1.5,0.8,3.1,1.3,4.8,1.3c2.2,0.2,2.7,0.6,3,2.8C193.9,199.5,196,201.5,197.9,201.5L197.9,201.5z"/>
							<path id="Trazado_124141" class="st9" d="M101.8,286.7c0.7-2.8,0.9-5.7,0.7-8.6c-0.4-8.9-4.7-17.1-11.7-22.5
								c-2.5-2-2.6-2.4-1-5.1c1.7-2.8,2.8-6,3.2-9.3c0.3-2.1,1.2-2.9,3.3-2.5c5.4,1.1,10.9-0.4,15-4.1c1.5-1.3,2.8-1.2,4,0.4
								c4.4,6,10.9,10.1,18.2,11.7c2.1,0.5,2.8,2.1,1.7,3.9c-2.9,4.7-3.5,10.5-1.5,15.6c0.6,1.7,0.2,2.7-1.5,3.4
								c-8.1,3.3-14.2,10-16.6,18.4c-0.5,1.7-1.5,2.2-3.2,1.8c-2.5-0.5-5.1-0.6-7.7-0.3c-1.3,0.3-2.6-0.4-3-1.7
								C101.7,287.4,101.7,287,101.8,286.7z"/>
							<path id="Trazado_124142" class="st12" d="M197.9,201.5c-1.9,0-4-1.9-4.4-4.6c-0.3-2.2-0.7-2.6-3-2.8c-1.7,0-3.3-0.5-4.8-1.3
								c-2.2-1.4-2.2-3.1-0.1-4.6c1.1-0.7,2.4-1.2,3.8-1.3c2-0.3,2.6-0.9,2.7-2.9c0.1-1,0.5-2,1.3-2.6c2.3-1.8,5.5-1.8,7.8,0
								c0.9,0.7,1.4,1.7,1.3,2.8c-0.2,1.3,0.8,2.5,2.1,2.7c0.1,0,0.2,0,0.3,0c1.1,0.2,2.2,0.6,3.1,1.2c2.5,1.7,2.7,4.7,0,6.1
								c-2.6,1.2-4.6,2.5-5.5,5.4C201.9,200.9,200.1,201.4,197.9,201.5z M202.3,192.7c1.4,0,1.9-0.7,1.9-1.6
								c0.1-0.8-0.6-1.5-1.4-1.6c-0.1,0-0.3,0-0.4,0c-0.8-0.1-1.5,0.5-1.6,1.3c0,0.1,0,0.2,0,0.3c-0.1,0.8,0.4,1.5,1.2,1.6
								C202.1,192.6,202.2,192.7,202.3,192.7L202.3,192.7z"/>
							<path id="Trazado_124143" class="st11" d="M202.3,192.7c-0.8,0-1.4-0.6-1.4-1.4c0-0.1,0-0.1,0-0.2c-0.1-0.8,0.5-1.5,1.3-1.6
								c0.1,0,0.2,0,0.2,0c0.8-0.2,1.6,0.4,1.7,1.2c0,0.1,0,0.3,0,0.4C204.2,192,203.7,192.6,202.3,192.7z"/>
						</g>
					</g>
					<g id="melaza-01" transform="translate(375.21 3090.527)">
						<path id="Trazado_124146" class="st1" d="M277.5,248.9c4.9,4,9.9,7.5,1.5,13.5c-3.6,2.6-0.7,9.6,3.8,11.4
							c10.4,4.3,18.2,8.2,17.9,25.8c-0.5,31.3-0.8,62.6,0.1,93.8c0.4,14.7-2.4,26.1-16.9,32.2H175.5c-1.5-5.2-7.9-5.4-10.2-10.4
							c-1.8-4-3.4-7.5-3.4-12c0.1-35.6,0-71.3,0.1-106.9c0-10.8,5.5-18.3,16-21.8c7.6-2.6,9.2-8.4,3.6-13.9c-3.2-3.1-4-6-0.1-8.5
							c3.2-2.1,2.8-4.8,3.1-7.8c0.5-6.9,4.8-11.4,11.6-11.4c20.8-0.1,41.7,0.2,62.5,0.3c3,2.5,6.2,4.8,7.1,9
							C267.7,251.7,267.9,251.7,277.5,248.9z M231.3,413.9c14.1,0,28.1,0,42.1,0c12.6-0.1,16.2-3.5,16.2-16
							c0.1-27.1,0.1-54.2,0-81.3c0-9.4-0.5-9.8-9.9-7.1c-2.2,0.6-4.3,1.3-6.4,2.1c-8.5,3.4-18,3.4-26.4-0.2c-10-4.3-21.4-4.3-31.4,0
							c-9,3.7-18.1,3.4-27.1,0c-3.1-1.1-6.2-2.1-9.3-2.8c-4.2-1-6.3-0.2-6.3,5c0.2,28.9,0,57.7,0.2,86.6c0.1,9.7,4.2,13.7,13.9,13.7
							C201.7,413.9,216.5,413.9,231.3,413.9z"/>
						<path id="Trazado_124147" class="st4" d="M277.5,248.9c-9.7,2.8-9.8,2.8-11.9-6.7c-0.9-4.2-4.1-6.5-7.1-9c3,0.1,6-0.1,8.9,0.5
							C275.8,235.3,277.4,241.7,277.5,248.9z"/>
						<path id="Trazado_124148" class="st4" d="M231.3,413.9c-14.8,0-29.6,0.1-44.4,0c-9.6-0.1-13.8-4.1-13.9-13.8
							c-0.1-28.9,0.1-57.7-0.2-86.6c0-5.2,2.1-6.1,6.3-5c3.2,0.8,6.3,1.7,9.3,2.8c9.1,3.4,18.1,3.7,27.1,0c10-4.3,21.4-4.3,31.4,0
							c8.4,3.5,17.9,3.6,26.4,0.2c2.1-0.8,4.3-1.5,6.4-2.1c9.4-2.7,9.9-2.3,9.9,7.1v81.3c0,12.5-3.6,16-16.2,16
							C259.4,413.9,245.3,413.9,231.3,413.9z"/>
					</g>
					<g id="residuos_vegetales-01" transform="translate(540.491 3015.008)">
						<path id="Trazado_124150" class="st4" d="M241.6,495.2c-4.9,0-9.8,0.1-14.7,0c-5.5,0-10-4.3-10.1-9.8c-0.1-13.1,0-26.3,0-39.4
							c0-0.4,0.1-0.8,0.2-1.2c1.3,6.3,3,12.5,3.8,18.8c1.2,9.5,6.2,18.7,3.3,28.7c-0.2,0.8,0.3,1.5,1.1,1.7c0.1,0,0.2,0,0.2,0
							c0.8,0.2,1.6-0.2,1.9-1c0,0,0-0.1,0-0.1c0.6-2.7,1.8-5.3,1.2-8.3c-3.1-14.7-5.9-29.5-9-44.2c-0.4-2,0.3-2.1,1.9-2.1
							c1.8,0,1.9,1.4,2.3,2.4c4.7,10.9,9.4,21.8,14,32.8c1.8,4.2,4.7,8.3,2,13.2c-0.1,0.2-0.1,0.4-0.1,0.6c-0.1,0.9,0.5,1.6,1.3,1.8
							c0.7,0.2,1.5-0.2,1.7-1c0.8-3.3,2.6-6.2,0.9-9.9c-5.7-12.8-11-25.8-16.7-38.6c-1-2.3-0.2-3.6,1.4-4.5s1.9,1.1,2.4,1.9
							c6.6,8.8,13.1,17.6,19.8,26.4c2.6,3.5,5.4,6.7,2.9,11.4c-0.1,0.4-0.1,0.8,0,1.2c0.1,0.6,0.6,1.1,1.2,1.2
							c0.6,0.2,1.3,0,1.6-0.5c1.7-1.8,2-8.5,0.5-10.5c-7.7-10.3-15.3-20.6-23-30.8c-1.4-1.9-3-3.6-2.3-6.3c0.3-1.3-0.7-2.5-1.4-3.6
							c-3.3-4.9-6.6-9.8-9.9-14.7c-1-1.4-1.5-3.1-1.4-4.8c0.1-20.8,0.1-41.5,0-62.3c0-2.8,0.5-3.7,3.6-3.7
							c30.6,0.1,61.3,0.1,91.9,0.1c7,0,9,2,9,8.8v135.6c0,7-1.8,9-8.8,9h-68.7C244,493.4,242.2,492.9,241.6,495.2z M293.3,407.4
							c-0.8-16-6.6-31.4-16.5-43.9c-5.7-7.4-8.5-7.3-14.2,0c-9.4,12.1-15.2,25.8-16.2,41.1c-1.1,15.8,4.9,28.8,17.3,38.7
							c4.9,3.9,7.3,3.9,12.2,0C287.2,434.2,292.7,422.2,293.3,407.4L293.3,407.4z M223.5,359v7.3c0,1.9,0.4,3.5,2.7,3.6
							s3.3-1.4,3.3-3.5c0.1-2.8,0-5.7,0-8.5c0.1-2.3,0-4.7-0.2-7c-0.2-1.7-1.2-3.1-3.3-2.9s-2.6,1.6-2.6,3.4
							C223.5,353.9,223.5,356.4,223.5,359L223.5,359z M229.5,379.6c0-2.3,0-4.8-2.9-5.2c-2.2-0.3-3.3,1.5-3.1,3.6
							c0.2,2.4-1.1,5.7,2.7,6.5c1.2,0.3,2.3-0.6,2.9-1.9C229.4,381.6,229.6,380.6,229.5,379.6L229.5,379.6z"/>
						<path id="Trazado_124151" class="st1" d="M241.6,495.2c0.5-2.3,2.4-1.8,4-1.8h68.7c6.9,0,8.8-1.9,8.8-9V348.9
							c0-6.9-2-8.8-9-8.8c-30.6,0-61.3,0-91.9-0.1c-3.1,0-3.6,0.9-3.6,3.7c0.1,20.8,0.1,41.5,0,62.3c-0.1,1.7,0.5,3.4,1.4,4.8
							c3.4,4.8,6.6,9.8,9.9,14.7c0.7,1.1,1.8,2.2,1.4,3.6c-0.7,2.7,0.9,4.4,2.3,6.3c7.7,10.3,15.3,20.5,23,30.8
							c1.5,2,1.2,8.7-0.5,10.5c-0.4,0.5-1,0.7-1.6,0.5c-0.6-0.1-1.1-0.6-1.2-1.2c-0.1-0.4-0.1-0.8,0-1.2c2.5-4.7-0.3-7.9-2.9-11.4
							c-6.7-8.7-13.1-17.6-19.8-26.4c-0.6-0.8-0.9-2.8-2.4-1.9s-2.4,2.2-1.4,4.5c5.7,12.8,11,25.8,16.7,38.6
							c1.7,3.7-0.1,6.7-0.9,9.9c-0.2,0.7-1,1.2-1.7,1c-0.8-0.2-1.4-0.9-1.3-1.8c0-0.2,0-0.4,0.1-0.6c2.7-4.9-0.2-9-2-13.2
							c-4.6-11-9.3-21.9-14-32.7c-0.4-1-0.5-2.4-2.3-2.4c-1.6,0-2.3,0.1-1.9,2.1c3,14.7,5.9,29.5,9,44.2c0.6,3-0.6,5.6-1.2,8.3
							c-0.2,0.8-1,1.3-1.8,1.2c0,0-0.1,0-0.1,0c-0.8,0-1.4-0.7-1.4-1.5c0-0.1,0-0.2,0-0.2c2.9-10-2.1-19.1-3.3-28.7
							c-0.8-6.3-2.5-12.5-3.8-18.8c-0.3-1.5-0.6-3-0.8-4.5c-0.1-1.5-0.7-2.1-2.3-2.1c-1.9,0.1-1.4,1.4-1.4,2.4v53.8
							c0,1.2-0.3,2.4-1.7,2.3c-1.2,0-1.6-1.1-1.6-2.2v-53.4c0-1,0.9-2.5-1.2-2.8s-2.2,1-2.5,2.5c-2.9,14.7-5.9,29.3-8.9,43.9
							c-0.5,2.3,0.3,4.4,0.8,6.6c0.3,1.2,0.4,2.3-1,2.7s-2-0.7-2.3-1.8c-1-3.1-1.2-6.4-0.6-9.6c2.9-13.6,5.6-27.3,8.3-40.9
							c0.2-1,1.6-2.6-0.2-3.3c-2-0.8-3,0.6-3.7,2.4c-5.1,12.1-10.2,24.1-15.5,36.1c-1.3,2.9-2.1,5.6-0.7,8.7c0.5,1.1,1,2.8-0.8,3.3
							s-1.9-1.2-2.4-2.4c-1.4-3.5-1.2-6.6,0.4-10.1c5.5-12.2,10.6-24.6,15.9-36.9c0.5-1.1,1.1-2-0.1-3.3c-1.3-1.4-2-1.8-3.3,0.1
							c-7.6,10.4-15.4,20.8-23.1,31.1c-1,1-1.3,2.6-0.8,3.9c0.4,1.3,0.7,2.5,0.9,3.8c0.2,0.9-0.3,1.8-1.1,2c-0.1,0-0.1,0-0.2,0
							c-0.8,0.2-1.6-0.3-1.8-1.1c0,0,0-0.1,0-0.1c-1-3.9-2.6-7.4,0.8-11.6c8-9.8,15.3-20.3,23-30.5c0.9-1.2,1.7-2.4,1.3-4.1
							c-0.4-1.6,0.5-2.9,1.3-4.2c3.3-4.9,6.6-9.8,9.9-14.7c1.1-1.5,1.6-3.3,1.6-5.1c0-32.9,0-65.8,0-98.7c0-1.5-1-4.1,1.6-4.1
							c2.4,0,1.8,2.5,1.8,4.1c0,32.2,0,64.3,0,96.5c0,2.8,0.5,3.9,3.6,3.8c5-0.3,5-0.1,5-5c0-31.6,0-63.1,0-94.7
							c0-1.7-1-4.7,1.8-4.7s1.5,3.1,1.6,4.7c0.1,6.8,0.1,13.6,0.1,20.8c2.6-1.5,4.7-2.9,7.3-3.4c1.6-0.3,0.6-1.4,0.5-2.2
							c-1-9.2,4.4-16.7,13.2-18.3c4.9-0.9,9.9,0.7,13.5,4.2c1.2,1.1,1.7,1.6,3.3,0.3c5.2-4.4,11.3-3.5,16.9,2.1
							c2.5-2.8,5.8-4.8,9.5-5.8c9.2-2.3,18.6,3.3,20.9,12.6c0.2,0.9,0.4,1.8,0.4,2.7c0.2,1.8,0.7,2.6,2.5,3
							c5.9,1.3,9.5,5.1,11.2,10.9c0.3,1,0.4,1.9,1.8,2.4c5.2,1.8,7,5.8,6.9,11c0,17.5,0,35,0,52.5v3.5c2.7-1,5-1.9,7.3-2.8
							c1.3-0.5,0.8-1.7,0.8-2.7c0-9.1-0.1-18.1-0.2-27.2c0-5.7,2.3-7.5,7.9-6.1c4.8,1.2,9.6,2.5,14.4,3.8c3.9,1.1,5.2,2.7,4.5,6.6
							c-0.2,1,0.2,2,1,2.6c1.3,1.3,2.7,2.5,3.9,3.8c2.9,2.9,2.8,5.7-0.2,8.4c-4.6,4.1-9.3,8.2-14,12.3c-0.5,0.5-1.1,0.8-1.6,1.2
							c16.8,12.8,27.5,29.1,32.1,49.4c1.4,6,1.5,12.2,0.2,18.2c-2.4,10.7-9.3,17.3-19.3,21c-9.5,3.5-19.4,4.1-29.4,4.2
							c-1.3,0-2.6-0.2-2.6-1.9c0-1.9,1.5-1.9,2.9-1.8c8.1,0.1,16.3-0.4,24.2-2.6c11-3,19.1-9.2,21-21.1c1.3-8.1,0.1-16-2.7-23.6
							c-5.5-14.9-13.8-27.8-26.7-37.4c-6.5-4.8-13.5-5.5-20.8-1.3c-1.7,0.7-2.7,2.4-2.5,4.2c0.1,24.3,0.1,48.7,0.1,73
							c0,8.7-3.7,12.5-12.4,12.5h-68.7C244.1,496.9,242.2,497.4,241.6,495.2z M266.6,336.7h44.9c3.3,0,3.6-0.6,2-3.4
							c-2-3.6-5-5.9-9.2-6c-2.5-0.1-3.6-0.8-3.5-3.6c0.5-6.3-3.4-12.2-9.4-14.1c-6-2.1-12.1,0-16.1,5.4c-1.9,2.6-2.7,2.6-4.2-0.1
							c-3.3-5.9-10-6.3-14-1c-2,2.6-2.4,2.6-4.4,0c-3.9-5.4-10.3-7.1-15.9-4.3c-5.9,2.9-8.3,9.2-6,15.8c0.8,2.4,0.4,3.4-2.3,3.4
							c-3.7-0.1-7.1,1.8-8.8,5.1c-1.5,2.7-1.3,3,1.7,3L266.6,336.7z M340.2,368.5c-2.1-0.3-2.2,1.2-2.2,2.9l0.4,22.9
							c0,2-0.6,4.5,0.4,6s3.8,0.8,5.6,1.5c2.2,0.9,3.7,0.2,5.4-1.3c3.5-3.3,7.2-6.3,10.7-9.5c5.8-5.1,6.1-3.6-0.1-9.7
							c-1.1-1.1-1.6-0.8-2.3,0.3c-1.6,2.3-3.3,4.7-5,6.9c-0.8,1-1.6,2.4-3.1,1.3s-0.7-2.3,0.1-3.4c2.5-3.5,5-6.9,7.5-10.4
							c1.1-1.5,1-2.6-0.9-3.2C351.1,371.4,345.7,370,340.2,368.5L340.2,368.5z M210.8,434.5c2.8-0.1,5.7-0.1,8.5,0.1
							c3.3,0.4,5.5-1,7.6-3.3c1.1-1.3,1.3-2.2,0.3-3.7c-2.6-3.3-4.9-6.7-6.9-10.4c-2.6-5.1-6.2-7.1-11.8-6.3
							c-1.9,0.3-3.1,0.7-4.1,2.3c-2.6,4.1-5.5,8-8.1,12.1c-3.1,4.8-3.5,3.3,0.8,7.9c0.8,0.9,2,1.4,3.2,1.3
							C203.7,434.5,207.3,434.5,210.8,434.5L210.8,434.5z"/>
						<path id="Trazado_124152" class="st1" d="M368.1,460.5c0-3.9-0.7-7.7-2.1-11.4c-0.4-1.4-0.7-2.7,0.9-3.3
							c1.8-0.7,2.3,0.8,2.7,2.1c2.1,6.3,3.3,12.8,1.7,19.5c-2.5,11.1-11.6,15.8-20.4,17.6c-1.1,0.2-2.4,0.2-2.8-1.1
							c-0.4-1.5,0.6-2.2,2-2.5c1.2-0.3,2.3-0.7,3.5-1C363.6,477.3,368.1,471.1,368.1,460.5z"/>
						<path id="Trazado_124153" class="st1" d="M293.3,407.4c-0.6,14.9-6.1,26.9-17.5,35.8c-4.9,3.9-7.2,3.9-12.2,0
							c-12.4-9.9-18.3-23-17.3-38.7c1-15.3,6.8-29,16.2-41.1c5.7-7.3,8.5-7.4,14.2,0C286.7,376,292.5,391.3,293.3,407.4z
							 M267.8,362.3c-1.4,1.6-2.3,2.5-3.1,3.6c-7,9.4-11.9,20.2-14.1,31.8c-3,15.4,0.5,29,12.1,40.2c1.5,1.4,3,3,5.2,3.7
							c0-9.7-0.1-19.1,0-28.6c0.1-1.9-0.6-3.8-2.1-5c-4.3-3.9-7.9-8.5-10.7-13.6c-0.6-1.1-1-2.1,0.3-2.9c1.3-0.8,2.1,0,2.7,1.1
							c0.5,0.8,0.9,1.6,1.4,2.4c2.2,3.7,5,7,8.2,9.8L267.8,362.3z M271.4,385.9c2.1-1.6,3.9-3.5,5.4-5.7c0.7-0.9,1.5-1.4,2.6-0.7
							c0.8,0.5,1,1.6,0.5,2.4c-0.1,0.1-0.1,0.2-0.2,0.3c-0.8,1.2-1.5,2.6-2.6,3.3c-6.1,3.6-6.3,9.3-5.7,15.3v19.8
							c4.3-2.1,8.2-5.1,11.3-8.8c0.8-0.9,1.7-2.4,3.2-1.2s0.5,2.5-0.5,3.6c-3.3,3.9-7.3,7.1-11.8,9.5c-0.9,0.5-2.2,0.7-2.2,2.2v16.3
							c12.2-9.1,18.5-20.6,18.2-35.1c-0.3-15-6.1-28.2-14.6-40.4c-0.9-1.5-2.2-2.8-3.6-3.9L271.4,385.9z"/>
						<path id="Trazado_124154" class="st8" d="M223.5,359v-7.6c0-1.8,0.6-3.3,2.6-3.4s3.1,1.2,3.3,2.9c0.2,2.3,0.2,4.7,0.2,7
							c0,2.8,0,5.7,0,8.5c0,2.1-1,3.6-3.3,3.5s-2.7-1.6-2.7-3.6C223.5,363.9,223.5,361.4,223.5,359z"/>
						<path id="Trazado_124155" class="st8" d="M229.5,379.6c0.1,1-0.1,2-0.4,3c-0.6,1.2-1.7,2.1-2.9,1.9c-3.8-0.8-2.5-4-2.7-6.5
							c-0.1-2.1,0.9-3.9,3.1-3.6C229.5,374.7,229.5,377.2,229.5,379.6z"/>
						<path id="Trazado_124156" class="st12" d="M266.6,336.7h-45.2c-3,0-3.2-0.3-1.7-3c1.7-3.2,5.1-5.2,8.8-5.1
							c2.7,0,3.1-1.1,2.3-3.4c-2.3-6.6,0.1-12.8,6-15.8c5.6-2.8,12-1.1,15.9,4.3c1.9,2.6,2.4,2.6,4.4,0c4-5.3,10.7-4.8,14,1
							c1.5,2.7,2.3,2.7,4.2,0.1c4-5.4,10.2-7.5,16.1-5.4c6,2,9.9,7.8,9.4,14.1c-0.1,2.8,1,3.5,3.5,3.6c4.2,0.1,7.2,2.4,9.2,6
							c1.6,2.9,1.2,3.4-2,3.4L266.6,336.7L266.6,336.7z M258.6,320.9c-4.4-0.1-8.6,2.1-11.1,5.8c-0.6,0.9-1,1.9,0,2.7
							c0.7,0.6,1.8,0.6,2.5-0.1c0.1-0.1,0.1-0.2,0.2-0.3c3.7-4.8,8.2-5.9,13.7-3.2c0.7,0.5,1.8,0.3,2.3-0.4c0-0.1,0.1-0.1,0.1-0.2
							c0.5-0.8,0.2-1.9-0.6-2.4c-0.1-0.1-0.2-0.1-0.3-0.1C263.3,321.4,260.9,320.8,258.6,320.9L258.6,320.9z M298.9,328.4
							c-0.1-0.4-0.2-0.8-0.4-1.1c-2-2.5-5.1-3.9-8.3-3.8c-3-0.1-5.9,1.1-7.9,3.3c-0.6,0.6-0.5,1.6,0.1,2.1c0,0,0.1,0,0.1,0.1
							c0.5,0.7,1.5,0.7,2.2,0.2c0,0,0,0,0,0c3.9-2.9,7.6-2.6,11.3,0.6C297.4,330.9,298.4,330.1,298.9,328.4L298.9,328.4z"/>
						<path id="Trazado_124157" class="st8" d="M340.1,368.5c5.6,1.5,11,2.9,16.4,4.3c2,0.5,2,1.7,0.9,3.2c-2.5,3.5-5,6.9-7.5,10.4
							c-0.8,1.1-1.6,2.4-0.1,3.4s2.4-0.3,3.1-1.3c1.7-2.3,3.4-4.6,5-6.9c0.7-1.1,1.2-1.3,2.3-0.3c6.2,6.1,5.9,4.6,0.1,9.7
							c-3.6,3.2-7.3,6.2-10.7,9.5c-1.6,1.5-3.1,2.2-5.4,1.3c-1.8-0.8-4.6,0-5.6-1.5s-0.3-3.9-0.4-6l-0.4-22.9
							C337.9,369.7,338.1,368.2,340.1,368.5z"/>
						<path id="Trazado_124158" class="st8" d="M210.8,434.5c-3.6,0-7.1,0-10.7,0c-1.2,0.1-2.4-0.4-3.2-1.3c-4.3-4.6-3.9-3-0.8-7.9
							c2.6-4.1,5.5-8,8.1-12.1c1-1.6,2.2-2.1,4.1-2.3c5.6-0.8,9.2,1.2,11.8,6.3c1.9,3.7,4.5,7,6.9,10.4c1,1.4,0.9,2.4-0.3,3.7
							c-2,2.3-4.2,3.7-7.6,3.3C216.5,434.4,213.7,434.4,210.8,434.5z"/>
						<path id="Trazado_124159" class="st6" d="M267.8,362.3v42.3c-3.2-2.8-6-6.1-8.2-9.8c-0.5-0.8-0.9-1.6-1.4-2.4
							c-0.6-1.1-1.5-1.8-2.7-1.1c-1.3,0.7-0.9,1.8-0.3,2.9c2.8,5.1,6.4,9.7,10.7,13.6c1.5,1.2,2.2,3.1,2.1,5c-0.1,9.5,0,18.9,0,28.6
							c-2.3-0.7-3.7-2.2-5.2-3.7c-11.5-11.1-15-24.8-12.1-40.2c2.3-11.5,7.1-22.4,14.1-31.8C265.5,364.9,266.4,363.9,267.8,362.3z"
							/>
						<path id="Trazado_124160" class="st6" d="M271.4,385.9v-23.1c1.5,1,2.7,2.3,3.6,3.9c8.5,12.2,14.3,25.4,14.6,40.4
							c0.3,14.5-6,26-18.2,35.1v-16.3c0-1.5,1.2-1.7,2.2-2.2c4.5-2.4,8.5-5.6,11.8-9.4c1-1.1,2.1-2.3,0.5-3.6s-2.4,0.3-3.2,1.2
							c-3.1,3.7-7,6.7-11.3,8.8v-19.8c-0.6-6-0.4-11.7,5.7-15.3c1.1-0.7,1.8-2.1,2.6-3.3c0.7-0.7,0.7-1.8,0-2.5
							c-0.1-0.1-0.2-0.1-0.3-0.2c-1.1-0.7-1.9-0.2-2.6,0.7C275.3,382.4,273.5,384.3,271.4,385.9z"/>
						<path id="Trazado_124161" class="st13" d="M258.6,320.9c2.3-0.1,4.7,0.5,6.7,1.8c0.9,0.3,1.4,1.3,1,2.2c0,0.1-0.1,0.2-0.1,0.3
							c-0.4,0.8-1.4,1.1-2.2,0.7c-0.1,0-0.1-0.1-0.2-0.1c-5.4-2.7-10-1.6-13.7,3.2c-0.5,0.8-1.6,1.1-2.4,0.6
							c-0.1-0.1-0.2-0.1-0.3-0.2c-1-0.8-0.6-1.9,0-2.7C250,323,254.1,320.8,258.6,320.9z"/>
						<path id="Trazado_124162" class="st13" d="M298.9,328.4c-0.5,1.7-1.5,2.4-2.9,1.3c-3.7-3.1-7.3-3.5-11.3-0.6
							c-0.6,0.6-1.6,0.5-2.2-0.2c0,0,0,0,0,0c-0.6-0.5-0.7-1.5-0.2-2.1c0,0,0,0,0.1-0.1c2-2.2,4.9-3.4,7.9-3.3
							c3.2-0.1,6.2,1.4,8.3,3.8C298.7,327.7,298.8,328,298.9,328.4L298.9,328.4z"/>
					</g>
					<g id="acido-lactico-01" transform="translate(806.694 3077.867)">
						<path id="Trazado_124164" class="st6" d="M225.7,264.3c-21.2,0.1-39.9,7-55.8,21c-15.6,13.7-25.1,30.8-28,51.4
							c-3.3,23.3,1.9,44.5,16,63.4c4.2,5.7,9.2,10.8,14.8,15.2c0.1,0.1,0.2,0.2,0.3,0.3c1.2,0.9,1.7,2.1,0.7,3.4
							c-1.1,1.4-2.3,0.8-3.4-0.1c-4.5-3.6-8.6-7.5-12.3-11.9c-9.4-10.9-16-23.9-19.1-37.9c-5.3-24.1-1.6-46.8,11.7-67.6
							c12.7-20,30.7-32.9,53.6-38.8c8.1-2.1,16.4-3,24.7-2.6c20.2,1,38.3,7.7,53.8,20.7c14.6,12.1,24.9,28.5,29.4,46.9
							c2.1,8.1,3,16.4,2.6,24.7c-1,20-7.5,37.9-20.3,53.3c-2,2.4-4.2,4.7-6.3,7c-0.3,0.4-0.7,0.7-1,1c-1.1,0.8-2.3,1.2-3.3,0
							s-0.5-2.2,0.4-3.1c2.2-2.2,4.4-4.4,6.4-6.8c10.2-11.9,16.8-26.4,19-41.9c3-21.1-0.9-40.8-12.5-58.8
							c-13.2-20.3-31.9-32.8-55.7-37.6C236.3,264.6,231,264.2,225.7,264.3L225.7,264.3z"/>
						<path id="Trazado_124165" class="st1" d="M273.3,361.9c0.2,1-0.3,2-1.3,2.4c-0.9,0.3-1.9,0-2.3-0.8c-0.2-0.3-0.4-0.7-0.6-1.1
							c-9.2-23.8-21-46.3-33.3-68.6c-3-5.4-6.1-10.8-9.1-16.2c-0.8-1.4-1.1-1.4-1.9,0c-12.7,22.2-24.9,44.7-35.4,68
							c-0.7,1.5-1.2,3.3-3.4,2.6c-1.5-0.5-1.5-1.8-0.3-4.4c11.2-24.9,24.3-48.8,38-72.3c1.4-2.4,3-2.4,4.4,0.1
							c15.4,26.7,30.2,53.7,42.1,82.1c1,2.3,1.9,4.7,2.8,7.1C273.1,361.2,273.2,361.5,273.3,361.9z"/>
						<path id="Trazado_124166" class="st1" d="M229.1,440.8c-30-0.1-52.7-19.7-56.5-46c-0.7-4-0.7-8.1-0.2-12.1
							c0.2-1.5,0.4-3.1,2.4-2.9c2.2,0.2,1.9,1.9,1.8,3.5c-1.4,15.3,3.6,28.5,14.4,39c14.3,13.9,31.6,18,50.5,11.8
							c18.2-6,29-19.1,33-37.9c0.1-0.3,0.1-0.7,0.2-1c0.3-1.3,1.2-2.1,2.6-1.8c1.1,0.2,1.8,1.2,1.6,2.3c0,0.1,0,0.2-0.1,0.2
							c-0.6,4.5-1.9,8.9-3.9,13C264.9,429.5,248.3,439.8,229.1,440.8z"/>
						<path id="Trazado_124167" class="st14" d="M232.4,353.2c0-1.3-0.1-2.6,0-3.9c0.4-3.2-0.6-6.3-2.8-8.7
							c-4.4-5-3.3-12.9,1.8-17.1s13-3.8,17.4,1c4.7,5.2,4.6,12.6-0.3,17.4c-1.2,1-1.8,2.6-1.7,4.1c0.1,2.4,0,4.8,0,7.2l-4.1-1.9
							v-4.5c0-1-0.1-1.6-1.4-1.2c-1.1,0.3-2.3,0.3-3.4,0c-1.2-0.4-1.4,0.2-1.4,1.2c0,1.5,0,3,0,4.5
							C235,351.8,233.6,352.4,232.4,353.2L232.4,353.2z M231.1,333.3c0,4.7,3.8,8.4,8.5,8.4s8.4-3.8,8.4-8.5c0-4.7-3.8-8.4-8.5-8.4
							c-4.6-0.1-8.3,3.5-8.4,8.1C231.1,333,231.1,333.1,231.1,333.3z"/>
						<path id="Trazado_124168" class="st14" d="M251.3,368.5c1.6,1,3.2,1.9,4.7,2.9c0.7,0.6,1.8,0.6,2.4-0.1c0,0,0,0,0.1-0.1
							c4.9-4,10.9-4.4,15.6-1.1c5.7,4,7.2,11.9,3.2,17.6c-2.5,3.5-6.5,5.6-10.8,5.4c-5.5-0.3-10.2-4.1-11.7-9.5
							c-0.6-2.2-0.6-4.5,0.1-6.7c0.4-0.7,0.1-1.6-0.6-1.9c0,0-0.1,0-0.1-0.1c-1.6-1.1-3.4-2.1-5.2-3L251.3,368.5z M275.4,380.7
							c0.2-4.5-3.3-8.3-7.8-8.5c-0.1,0-0.2,0-0.3,0c-4.7-0.1-8.6,3.6-8.8,8.4c0,0,0,0.1,0,0.1c0.2,4.6,3.9,8.2,8.5,8.4
							C271.6,389.1,275.3,385.3,275.4,380.7L275.4,380.7z"/>
						<path id="Trazado_124169" class="st14" d="M198.9,376.4c-1-0.5-2-1.1-3-1.8c-1.4-1.2-2.4-1-3.9,0.1
							c-5.5,4.2-13.3,3.2-17.5-2.3c-0.1-0.2-0.2-0.3-0.3-0.5c-2.9-4.2-3-9.7-0.4-14c2.6-4.1,7.7-6.6,12.2-5.9
							c5.2,0.7,9.4,4.5,10.8,9.5c0.6,2.1,0.5,4.4-0.1,6.5c-0.5,1-0.1,2.1,0.9,2.6c0,0,0.1,0,0.1,0.1c1.2,0.7,2.2,1.6,3.4,2.4
							C200.4,374.3,199.6,375.4,198.9,376.4z M176.2,364.6c-0.1,4.5,3.4,8.3,7.9,8.5c0.1,0,0.2,0,0.3,0c4.7,0.1,8.6-3.7,8.7-8.4
							c0.1-4.4-4-8.6-8.6-8.6C179.9,356.3,176.2,360,176.2,364.6z"/>
						<path id="Trazado_124170" class="st6" d="M198.9,376.4c0.7-1.1,1.4-2.2,2.1-3.3c3.4-3,7.2-4.8,11.8-3.9
							c2.7,0.6,5.2,1.9,7.1,3.9l2.4,3.6c1.9,6.1,0.6,11.3-4.5,15.3l-4.4,2h-5.8l-4-1.8C198.2,388.2,196.8,382.8,198.9,376.4z
							 M210.5,373.3c-4.6,0.1-8.3,4-8.1,8.7c0.1,4.6,4,8.3,8.7,8.1c4.6-0.1,8.3-4,8.1-8.7c0-1.4-0.5-2.8-1.2-4
							C216.4,374.8,213.6,373.2,210.5,373.3z"/>
						<path id="Trazado_124171" class="st6" d="M217.8,403.2c8.4,6.3,6.5,17.7-1.6,21.7c-6.2,3.1-13.8,0.5-16.9-5.7
							c-2.4-4.9-1.4-10.7,2.5-14.5c0.6-0.6,1.2-1.1,1.8-1.7l4-1.8c1.9-0.2,3.8-0.2,5.8,0C214.9,401.7,216.4,402.4,217.8,403.2
							L217.8,403.2z M202.2,413.7c0,4.7,3.8,8.5,8.6,8.5c0,0,0,0,0,0c4.6-0.2,8.3-3.9,8.4-8.5c-0.1-4.7-3.9-8.5-8.6-8.4c0,0,0,0,0,0
							c-4.6,0-8.3,3.7-8.3,8.2C202.2,413.5,202.2,413.6,202.2,413.7L202.2,413.7z"/>
						<path id="Trazado_124172" class="st1" d="M251.3,368.5l-2.4,3.6c-6.1,5.6-12.3,5.6-18.9-0.1l-2.2-3.3
							c-0.6-2.5-1.2-5.1-0.6-7.7c0.7-3.2,2.6-6,5.2-7.9c1.3-0.8,2.7-1.4,4.2-1.9c2-0.3,4.1-0.3,6.2,0l4.1,1.9
							C251.8,357.3,253.3,362.4,251.3,368.5z M231.1,363.7c0,4.6,3.8,8.4,8.4,8.4c4.7-0.1,8.5-3.9,8.5-8.6c0-4.7-3.8-8.4-8.5-8.4
							c-0.1,0-0.1,0-0.2,0c-4.6,0-8.3,3.8-8.3,8.4C231.1,363.7,231.1,363.7,231.1,363.7L231.1,363.7z"/>
						<path id="Trazado_124173" class="st14" d="M217.8,403.2c-1.4-0.8-2.9-1.5-4.4-2v-7.1l4.4-2V403.2z"/>
						<path id="Trazado_124174" class="st14" d="M227.8,368.8l2.2,3.3l-7.6,4.7l-2.3-3.6C222.7,372.1,224.9,369.9,227.8,368.8z"/>
						<path id="Trazado_124175" class="st14" d="M207.6,401.2l-4,1.8v-10.6l4,1.8C207.6,396.5,207.6,398.9,207.6,401.2z"/>
						<path id="Trazado_124176" class="st8" d="M231.1,333.3c-0.1-4.6,3.4-8.4,8-8.5c0.1,0,0.3,0,0.4,0c4.7,0,8.5,3.7,8.5,8.4
							s-3.7,8.5-8.4,8.5C235,341.7,231.1,337.9,231.1,333.3z"/>
						<path id="Trazado_124177" class="st8" d="M242.7,351.3c-2-0.3-4.1-0.3-6.2,0c0-1.5,0-3,0-4.5c0-1,0.2-1.6,1.4-1.2
							c1.1,0.3,2.3,0.3,3.4,0c1.2-0.4,1.4,0.2,1.4,1.2C242.6,348.3,242.7,349.8,242.7,351.3z"/>
						<path id="Trazado_124178" class="st8" d="M275.4,380.7c-0.1,4.6-3.8,8.3-8.4,8.4c-4.6-0.2-8.3-3.8-8.5-8.4
							c0-4.7,3.9-8.5,8.6-8.5c0,0,0.1,0,0.1,0c4.5,0,8.2,3.7,8.2,8.2C275.4,380.5,275.4,380.6,275.4,380.7z"/>
						<path id="Trazado_124179" class="st8" d="M176.2,364.6c0-4.6,3.7-8.3,8.3-8.5c4.5,0,8.7,4.1,8.6,8.6c-0.1,4.7-4,8.4-8.7,8.4
							c-4.5,0-8.2-3.6-8.2-8.1C176.2,364.9,176.2,364.8,176.2,364.6z"/>
						<path id="Trazado_124180" class="st1" d="M210.5,373.3c4.6,0.1,8.3,3.9,8.3,8.5c-0.1,4.6-3.9,8.3-8.5,8.3
							c-4.6-0.1-8.3-3.9-8.3-8.5c0-1.4,0.4-2.8,1.1-4.1C204.6,374.9,207.5,373.3,210.5,373.3z"/>
						<path id="Trazado_124181" class="st8" d="M207.6,401.2v-7.1h5.8v7.1C211.5,401.1,209.5,401.1,207.6,401.2L207.6,401.2z"/>
						<path id="Trazado_124182" class="st1" d="M202.2,413.7c-0.1-4.6,3.5-8.3,8.1-8.4c0.1,0,0.1,0,0.2,0c4.7-0.1,8.6,3.7,8.6,8.4
							c-0.1,4.6-3.8,8.4-8.4,8.5C206,422.2,202.2,418.4,202.2,413.7z"/>
						<path id="Trazado_124183" class="st8" d="M231.1,363.7c-0.1-4.6,3.6-8.4,8.2-8.5c0,0,0.1,0,0.1,0c4.7-0.1,8.5,3.5,8.7,8.2
							c0,0,0,0.1,0,0.1c0,4.7-3.8,8.5-8.5,8.6C234.9,372.1,231.2,368.4,231.1,363.7z"/>
					</g>
					<text transform="matrix(1 0 0 1 484.711 3263.188)" class="st0 st2 st3">Suelo</text>
					<path id="Trazado_124187" class="st4" d="M416.2,3146c0-0.4-0.1-0.7-0.1-1.1c0-19.7,0-39.3-0.1-59c-0.1-1,0.5-2,1.5-2.3
						c25.4-14.7,50.9-29.3,76.3-44c0.8-0.3,1.5-0.8,2-1.4h0.7c0.4,0.7,1.2,0.9,1.9,1.3c25.3,14.6,50.6,29.3,75.9,43.9
						c0.6,0.3,1.6,0.4,1.6,1.5c-0.3,0.1-0.6,0.2-0.8,0.3c-11.1,6.4-22.1,12.7-33.2,19.2c-14.8,8.5-29.5,17-44.3,25.5
						c-1,0.5-1.5,1.5-1.4,2.6c0,19.2,0,38.4-0.1,57.6v1.6h-0.4v-1.8c0-8.9,0-17.8,0-26.7c0-1.2-0.2-1.9-1.5-2.1
						c-7-1.3-14.1-2.7-21.1-4c-10.9-2.1-21.8-4.2-32.7-6.2C432.4,3149.1,424.3,3147.5,416.2,3146z"/>
					<g id="Grupo_1084205" transform="translate(695.522 3203.161)">
						<text transform="matrix(1 0 0 1 14.5 26.026)" class="st15 st16 st17">+</text>
					</g>
					<g id="Grupo_1084206" transform="translate(1112.522 3203.161)">
						<g transform="matrix(1, 0, 0, 1, -910, -164.97)" class="st18">
							<path id="Trazado_501624-9_00000042005487952341484910000016418689156531330441_" class="st12" d="M929.5,203.5
								c-10.8,0-19.5-8.7-19.5-19.5s8.7-19.5,19.5-19.5S949,173.2,949,184S940.3,203.5,929.5,203.5z"/>
						</g>
						<text transform="matrix(1 0 0 1 14.5 26.026)" class="st15 st16 st17">+</text>
					</g>
				</g>
			</g>
			<path id="Trazado_124188" class="st1" d="M416.2,3157c8.1,1.6,16.2,3.1,24.3,4.7c10.9,2.1,21.8,4.2,32.7,6.2
				c7,1.3,14.1,2.7,21.1,4c1.3,0.2,1.5,0.9,1.5,2.1c-0.1,8.9,0,17.8,0,26.7v1.8h0.4v-1.6c0-19.2,0.1-38.3,0.1-57.5
				c-0.1-1.1,0.5-2.1,1.4-2.6c14.8-8.5,29.5-17,44.2-25.5c11.1-6.4,22.1-12.8,33.2-19.2c0.3-0.1,0.5-0.2,0.8-0.3
				c0,10.7,0,21.4,0.1,32c0,19.3,0,38.7,0.1,58c0.1,1.1-0.5,2.2-1.6,2.7c-25.6,14.8-51.2,29.6-76.7,44.5c-1,0.7-2.3,0.6-3.3-0.1
				c-25.7-14.9-51.4-29.8-77.1-44.6c-0.7-0.4-1.3-0.8-1.3-1.9c0.1-9.6,0-19.2,0-28.8C416.2,3157.5,416.2,3157.2,416.2,3157
				L416.2,3157z"/>
			<g id="Grupo_1084202" transform="translate(484.022 3203.161)">
				<g transform="matrix(1, 0, 0, 1, -281.5, -164.97)" class="st19">
					<path id="Trazado_501624-10_00000154421500946131857060000012489629776530696352_" class="st12" d="M301,203.5
						c-10.8,0-19.5-8.7-19.5-19.5s8.7-19.5,19.5-19.5s19.5,8.7,19.5,19.5S311.8,203.5,301,203.5z"/>
				</g>
				<path class="st12" d="M19.4,39.1c-10.8,0-19.5-8.7-19.5-19.5S8.6,0,19.4,0s19.5,8.7,19.5,19.5C38.9,30.3,30.2,39.1,19.4,39.1
					L19.4,39.1z"/>
				<text transform="matrix(1 0 0 1 14.2196 26.026)" class="st15 st16 st17">+</text>
			</g>
		</g>
		<g id="Grupo_1084207" transform="translate(572.077 4307.161)">
			<g transform="matrix(1, 0, 0, 1, -391, -452.97)" class="st20">
				<path id="Trazado_501624-12_00000003093180956446255550000010534265261164785306_" class="st12" d="M410.5,491.5
					c-10.8,0-19.5-8.7-19.5-19.5c0-10.8,8.7-19.5,19.5-19.5S430,461.2,430,472C430,482.8,421.3,491.5,410.5,491.5z"/>
			</g>
			<text transform="matrix(1 0 0 1 14.5 26.026)" class="st15 st16 st17">+</text>
		</g>
		<g id="Grupo_1084208" transform="translate(780.5 4307.161)">
			<g transform="matrix(1, 0, 0, 1, -599.42, -452.97)" class="st21">
				<path id="Trazado_501624-13_00000112624980145817399430000002983188835912283321_" class="st12" d="M618.9,491.5
					c-10.8,0-19.5-8.7-19.5-19.5c0-10.8,8.7-19.5,19.5-19.5s19.5,8.7,19.5,19.5C638.4,482.8,629.7,491.5,618.9,491.5z"/>
			</g>
			<text transform="matrix(1 0 0 1 14.5 26.026)" class="st15 st16 st17">+</text>
		</g>
		<g id="Grupo_1084209" transform="translate(988.923 4307.161)">
			<g transform="matrix(1, 0, 0, 1, -807.85, -452.97)" class="st22">
				<path id="Trazado_501624-14_00000039107291534380891100000000020419031812205463_" class="st12" d="M827.3,491.5
					c-10.8,0-19.5-8.7-19.5-19.5c0-10.8,8.7-19.5,19.5-19.5s19.5,8.7,19.5,19.5C846.8,482.8,838.1,491.5,827.3,491.5z"/>
			</g>
			<text transform="matrix(1 0 0 1 14.5 26.026)" class="st15 st16 st17">+</text>
		</g>
	</g>
</g>
<g id="Grupo_1084202_00000101072996529161380570000015520349937048285061_" transform="translate(484.022 3203.161)">
	<g transform="matrix(1, 0, 0, 1, -281.5, -164.97)" class="st19">
		<path id="Trazado_501624-10_00000061456917206975704800000000968965345360034208_" class="st12" d="M309.9-2834.1
			c-10.8,0-19.5-8.7-19.5-19.5s8.7-19.5,19.5-19.5c10.8,0,19.5,8.7,19.5,19.5S320.7-2834.1,309.9-2834.1z"/>
	</g>
	<path class="st12" d="M28.3-2998.5c-10.8,0-19.5-8.7-19.5-19.5c0-10.8,8.7-19.5,19.5-19.5s19.5,8.7,19.5,19.5
		C47.9-3007.3,39.1-2998.5,28.3-2998.5L28.3-2998.5z"/>
	<text transform="matrix(1 0 0 1 23.1571 -3011.5896)" class="st15 st16 st17">+</text>
</g>
<g id="Grupo_1084202_00000056403995009923372200000002870369682165095331_" transform="translate(484.022 3203.161)">
	<g transform="matrix(1, 0, 0, 1, -281.5, -164.97)" class="st19">
		<path id="Trazado_501624-10_00000081607823217172895850000013393714889137115272_" class="st12" d="M208-2546.7
			c-10.8,0-19.5-8.7-19.5-19.5c0-10.8,8.7-19.5,19.5-19.5c10.8,0,19.5,8.7,19.5,19.5C227.5-2555.4,218.7-2546.7,208-2546.7z"/>
	</g>
	<path class="st12" d="M-73.6-2711.1c-10.8,0-19.5-8.7-19.5-19.5c0-10.8,8.7-19.5,19.5-19.5c10.8,0,19.5,8.7,19.5,19.5
		C-54.1-2719.8-62.8-2711.1-73.6-2711.1L-73.6-2711.1z"/>
	<text transform="matrix(1 0 0 1 -78.8222 -2724.1262)" class="st15 st16 st17">+</text>
</g>
<g id="Grupo_1084202_00000127044557040910465770000010546478737259954599_" transform="translate(484.022 3203.161)">
	<g transform="matrix(1, 0, 0, 1, -281.5, -164.97)" class="st19">
		<path id="Trazado_501624-10_00000132787530258489881640000003076691202163318968_" class="st12" d="M416.8-2546.7
			c-10.8,0-19.5-8.7-19.5-19.5c0-10.8,8.7-19.5,19.5-19.5s19.5,8.7,19.5,19.5C436.3-2555.4,427.6-2546.7,416.8-2546.7z"/>
	</g>
	<path class="st12" d="M135.2-2711.1c-10.8,0-19.5-8.7-19.5-19.5c0-10.8,8.7-19.5,19.5-19.5c10.8,0,19.5,8.7,19.5,19.5
		C154.7-2719.8,146-2711.1,135.2-2711.1L135.2-2711.1z"/>
	<text transform="matrix(1 0 0 1 130.0136 -2724.1262)" class="st15 st16 st17">+</text>
</g>
<g id="Grupo_1084202_00000127007458448646523310000004257001933548457089_" transform="translate(484.022 3203.161)">
	<g transform="matrix(1, 0, 0, 1, -281.5, -164.97)" class="st19">
		<path id="Trazado_501624-10_00000080914932197734216570000000314619534974938768_" class="st12" d="M625.2-2546.7
			c-10.8,0-19.5-8.7-19.5-19.5c0-10.8,8.7-19.5,19.5-19.5c10.8,0,19.5,8.7,19.5,19.5C644.7-2555.4,636-2546.7,625.2-2546.7z"/>
	</g>
	<path class="st12" d="M343.6-2711.1c-10.8,0-19.5-8.7-19.5-19.5c0-10.8,8.7-19.5,19.5-19.5c10.8,0,19.5,8.7,19.5,19.5
		C363.1-2719.8,354.4-2711.1,343.6-2711.1L343.6-2711.1z"/>
	<text transform="matrix(1 0 0 1 338.406 -2724.1262)" class="st15 st16 st17">+</text>
</g>
<g id="Grupo_1084202_00000023263459448599015310000017748764416226190475_" transform="translate(484.022 3203.161)">
	<g transform="matrix(1, 0, 0, 1, -281.5, -164.97)" class="st19">
		<path id="Trazado_501624-10_00000123410304650451605540000000139325350190753680_" class="st12" d="M520.7-2834.1
			c-10.8,0-19.5-8.7-19.5-19.5s8.7-19.5,19.5-19.5c10.8,0,19.5,8.7,19.5,19.5S531.4-2834.1,520.7-2834.1z"/>
	</g>
	<path class="st12" d="M239.1-2998.5c-10.8,0-19.5-8.7-19.5-19.5s8.7-19.5,19.5-19.5c10.8,0,19.5,8.7,19.5,19.5
		C258.6-3007.3,249.9-2998.5,239.1-2998.5L239.1-2998.5z"/>
	<text transform="matrix(1 0 0 1 233.8935 -3011.5896)" class="st15 st16 st17">+</text>
</g>
<g id="Grupo_1084202_00000096032418291392122400000003129067946814561453_" transform="translate(484.022 3203.161)">
	<g transform="matrix(1, 0, 0, 1, -281.5, -164.97)" class="st19">
		<path id="Trazado_501624-10_00000005258476088935844580000006924347618466140815_" class="st12" d="M727-2834.1
			c-10.8,0-19.5-8.7-19.5-19.5s8.7-19.5,19.5-19.5c10.8,0,19.5,8.7,19.5,19.5S737.8-2834.1,727-2834.1z"/>
	</g>
	<path class="st12" d="M445.4-2998.5c-10.8,0-19.5-8.7-19.5-19.5c0-10.8,8.7-19.5,19.5-19.5c10.8,0,19.5,8.7,19.5,19.5
		C464.9-3007.3,456.2-2998.5,445.4-2998.5L445.4-2998.5z"/>
	<text transform="matrix(1 0 0 1 440.2111 -3011.5896)" class="st15 st16 st17">+</text>
</g>
</svg>
