<?xml version="1.0" encoding="utf-8"?>
<!-- Generator: Adobe Illustrator 28.3.0, SVG Export Plug-In . SVG Version: 6.00 Build 0)  -->
<svg version="1.1" id="Capa_1" xmlns="http://www.w3.org/2000/svg" xmlns:xlink="http://www.w3.org/1999/xlink" x="0px" y="0px"
	 viewBox="0 0 1229 550.8" style="enable-background:new 0 0 1229 550.8;" xml:space="preserve">
<style type="text/css">
	.st0{fill:none;}
	.st1{fill:#0B481E;}
	.st2{fill:#FFFFFF;}
	.st3{font-family:'Roboto-Regular';}
	.st4{font-size:16px;}
	.st5{fill:#ADCE32;}
	.st6{font-size:14px;}
	.st7{fill:#FFA686;}
	.st8{fill:#2EB64D;}
	.st9{fill:#FEFEFE;}
	.st10{fill:#030303;}
	.st11{fill:#DEE9F0;}
	.st12{fill:#FDFDFD;}
	.st13{fill:#FFD947;}
	.st14{fill:#63261B;}
	.st15{fill:#F8B189;}
	.st16{fill:#12263F;}
	.st17{font-family:'Roboto-Bold';}
	.st18{font-size:19px;}
</style>
<g id="Grupo_1084205_00000149366784121055209180000006646977703688409272_" transform="translate(-181.077 -3839.188)">
	<g id="Grupo_1084204">
		<g id="Rectángulo_361744_00000119802815701183546460000018387654198024231063_" transform="translate(181.077 3839.188)">
			<rect x="0.5" y="0" class="st0" width="1228" height="551"/>
		</g>
		<g id="Grupo_1084203">
			<rect id="Rectángulo_34575" x="705.1" y="4325.7" class="st1" width="190" height="46"/>
			
				<rect id="Rectángulo_34578_00000072280847793911771130000015117747195178626210_" x="394.1" y="4038.7" class="st1" width="186.3" height="46"/>
			
				<rect id="Rectángulo_34569_00000139288679459912335930000000626861335002277519_" x="601.1" y="4037.7" class="st1" width="189.3" height="46"/>
			<text transform="matrix(1 0 0 1 662.3701 4063.688)" class="st2 st3 st4">Gallinaza</text>
			
				<rect id="Rectángulo_34570_00000149364370562088366260000011291282787978197137_" x="811.1" y="4037.7" class="st1" width="189.3" height="46"/>
			<text transform="matrix(1 0 0 1 880.9601 4063.688)" class="st2 st3 st4">Ceniza</text>
			<g id="cemento-01_00000013914149021595013110000015903802960175871932_" transform="translate(891.566 3624.3)">
				<path id="Trazado_124102_00000139983980785661787010000010270589660460204928_" class="st5" d="M153.6,401.4
					c-0.3-0.6-0.9-0.5-1.4-0.6c-10-2.6-16-12.8-13.5-22.8c0.8-3.1,2.4-5.9,4.6-8.2c2.6-2.7,3.8-6.4,3.4-10
					c-1.3-20.9-1.6-41.8-1.4-62.6c0.1-12.6,0.5-25.3,1.4-37.9c0.5-4.3-0.9-8.5-3.9-11.7c-6.6-7.2-6.1-18.3,0.8-25.4
					c6.8-7.1,17.9-7.6,25.4-1.3c2.7,2.5,6.3,3.7,9.9,3.3c14.7-1.2,29.4-1.7,44.2-1.4c9.8,0.2,19.6,0.6,29.4,1.4
					c3.3,0.3,6.6-0.8,9.1-3c7.8-6.8,19.6-6,26.4,1.8c1.1,1.3,2.1,2.7,2.8,4.2c3.4,6.8,2.3,15-2.9,20.7c-2.9,2.8-4.3,6.8-3.7,10.8
					c0.2,1.6,0.3,3.1,0.2,4.7c0,1.4-1.1,2.5-2.4,2.5h-0.1c-1.3,0.2-2.5-0.6-2.7-1.9c0-0.1,0-0.2,0-0.2c-0.3-3.4-0.8-6.7-0.3-10.1
					c0.6-3.4,2.2-6.5,4.7-9c4.5-4.6,5.1-11.7,1.3-16.9c-4.4-6.2-13.2-7.9-18.9-3c-5,4.3-10.4,5.3-16.7,4.8
					c-18.4-1.5-36.9-1.8-55.4-0.8c-5,0.3-10.1,0.5-15.1,0.9c-4.7,0.4-9.3-1.1-12.8-4.3c-5.5-4.9-13.9-4.4-18.7,1
					c-0.9,1.1-1.7,2.3-2.3,3.6c-2.3,5.2-1.6,10.2,2.2,14.2c4.1,4.3,5.4,9.2,5.1,15c-1.7,28-1.9,56.1-0.8,84.1
					c0.2,5.7,0.5,11.4,0.8,17.1c0.4,4.8-1.4,9.5-4.8,12.9c-5.1,5.3-5,13.8,0.3,18.9c5,4.9,13,5,18.2,0.3c3.4-3.1,7.9-4.6,12.4-4.2
					c17.6,1.4,35.4,1.8,53.1,1.2c6.9-0.3,13.8-0.6,20.7-1.2c4.7-0.4,9.4,1.2,12.9,4.4c5.5,4.8,13.9,4.3,18.8-1.3
					c1.3-1.5,2.3-3.3,2.8-5.2c1.5-4.4,0.3-9.3-2.9-12.6c-4-4.2-5.4-9-5-14.6c1.5-24.6,1.8-49.2,1.1-73.8c-0.1-3.5-0.2-7-0.3-10.5
					c-0.1-2.2,1-3.6,2.7-3.6s2.6,1.1,2.7,3.3c0.8,18.8,0.8,37.7,0.4,56.5c-0.2,9.8-0.6,19.6-1.2,29.4c-0.3,3.5,0.9,6.9,3.4,9.3
					c5,5.4,6.6,11.9,4.1,18.9s-7.4,11.2-14.7,12.5c-0.1,0-0.2,0.2-0.3,0.3h-5.8c-0.1-0.1-0.2-0.3-0.4-0.3c-3.6-0.7-6.9-2.5-9.6-5
					c-2.1-1.8-4.8-2.7-7.5-2.4c-6.5,0.4-13,0.9-19.5,1.1c-18.6,0.7-37.2,0.3-55.7-1.1c-3-0.3-6.1,0.7-8.3,2.8
					c-1.8,1.6-3.8,2.9-6.1,3.7c-1.2,0.5-2.5,0.8-3.8,1.2L153.6,401.4z"/>
				<path id="Trazado_124103_00000124880707637060721850000008911414379089480323_" class="st5" d="M159.7,401.4
					c1.3-0.4,2.6-0.7,3.8-1.2c2.3-0.8,4.3-2.1,6.1-3.7c2.2-2.1,5.3-3.1,8.3-2.8c18.5,1.5,37.2,1.8,55.7,1.1c6.5-0.3,13-0.7,19.5-1.1
					c2.7-0.3,5.5,0.6,7.5,2.4c2.7,2.5,6,4.2,9.6,5c0.1,0,0.2,0.2,0.4,0.3L159.7,401.4z"/>
				<path id="Trazado_124104_00000095326594155668375180000004527053742508871335_" class="st5" d="M188.6,342.9l-5.2-0.3
					c-0.5-2.3-1.1-2.8-3.6-2.9c-4.4-0.1-8-3.5-8.5-7.8c-1.6-15.2-1.6-30.6,0-45.8c0.4-4.3,4-7.7,8.3-7.8c1.7-0.1,3.5-0.2,5.2-0.3
					c22.1-1.2,44.2-1.1,66.2,0.3c4.3,0.2,7.9,3.5,8.3,7.8c1.6,15.2,1.6,30.6,0,45.8c-0.4,4.2-3.8,7.5-8,7.8
					c-5.2,0.3-10.3,0.6-15.5,0.8c-14.6,0.6-29.1,0.4-43.7,0C189.9,340.2,189.4,340.6,188.6,342.9z M215.4,299.4h33.2
					c2.9,0,4.3-0.9,4.3-2.7s-1.3-2.7-4.2-2.7H182c-2.9,0-4.2,0.9-4.2,2.8s1.4,2.7,4.2,2.7L215.4,299.4z M215.4,311.6h33.2
					c2.9,0,4.3-0.9,4.3-2.7s-1.4-2.8-4.2-2.8h-66.6c-0.7,0-1.3,0-2,0.1c-1.4,0.3-2.4,1.6-2.2,3.1c0.2,1.2,1.1,2,2.3,2.2
					c0.7,0.1,1.3,0.1,2,0.1L215.4,311.6z M215.4,323.9h24.7c2.8,0,4.1-0.9,4.1-2.7s-1.3-2.8-4.2-2.8h-49.3c-0.7,0-1.3,0-2,0.1
					c-1.4,0.2-2.4,1.6-2.2,3.1c0.2,1.1,1.1,2,2.3,2.2c0.6,0.1,1.2,0.1,1.8,0.1L215.4,323.9z"/>
				<path id="Trazado_124105_00000131348999859192643430000011812633621454746033_" class="st5" d="M188.6,342.8
					c0.7-2.3,1.3-2.7,3.7-2.6c14.6,0.5,29.1,0.6,43.7,0c5.2-0.2,10.3-0.4,15.5-0.8c4.2-0.3,7.6-3.6,8-7.8c1.6-15.2,1.6-30.6,0-45.8
					c-0.4-4.3-4-7.7-8.3-7.8c-22-1.4-44.2-1.5-66.2-0.3c-1.7,0.1-3.5,0.2-5.2,0.3c-4.3,0.2-7.9,3.5-8.3,7.8
					c-1.6,15.2-1.6,30.6,0,45.8c0.4,4.4,4.1,7.7,8.5,7.8c2.5,0.1,3.1,0.6,3.6,2.9c-0.6,2.1-1.3,2.6-3.5,2.5
					c-7.4-0.1-13.5-5.8-14-13.2c-1.2-12.4-1.5-24.9-0.7-37.3c0.1-3.5,0.5-7,1-10.4c1.2-6.3,6.7-11,13.1-11.3
					c19.1-1.1,38.1-1.4,57.2-0.7c5.6,0.2,11.2,0.1,16.7,1c6.3,1,11.1,6.2,11.6,12.6c1.6,15.5,1.6,31,0,46.5
					c-0.6,7-6.3,12.5-13.3,12.9c-19.7,1.2-39.3,1.4-59,0.7C189.9,345.6,189.2,345.2,188.6,342.8z"/>
				<path id="Trazado_124106_00000181774283466128897360000003097209638808171445_" class="st5" d="M172.9,373.6
					c1.6,0,2.8,1.2,2.8,2.8c0,1.6-1.2,2.8-2.8,2.8s-2.8-1.2-2.8-2.8v-0.1C170.2,374.8,171.4,373.6,172.9,373.6z"/>
				<path id="Trazado_124107_00000035496154332772664930000013519539542164443309_" class="st5" d="M184.9,376.2
					c0.1,1.5-1,2.7-2.5,2.8h-0.1c-1.4,0.1-2.7-1-2.7-2.5c0-0.1,0-0.2,0-0.2c-0.1-1.5,1-2.7,2.5-2.8h0.1
					C183.6,373.5,184.8,374.7,184.9,376.2L184.9,376.2L184.9,376.2z"/>
				<path id="Trazado_124108_00000183238884228506065330000015824243437738460803_" class="st5" d="M258.9,248.8
					c0.1,1.5-1.1,2.8-2.6,2.9l0,0c-1.6,0-2.8-1.3-2.7-2.9c0-1.4,1.2-2.6,2.6-2.7C257.6,246.1,258.9,247.3,258.9,248.8L258.9,248.8
					L258.9,248.8z"/>
				<path id="Trazado_124109_00000070832117444073058670000008839131510798873267_" class="st5" d="M260.8,238.1
					c1.5,0,2.7,1.2,2.7,2.7v0.1c0.1,1.4-1,2.7-2.5,2.8c-0.1,0-0.1,0-0.2,0c-1.5,0-2.7-1.2-2.7-2.7l0,0
					C258.1,239.4,259.3,238.1,260.8,238.1z"/>
				<path id="Trazado_124110_00000101804166662570167980000002864596557271697818_" class="st5" d="M177.5,371.2
					c-1.4,0-2.6-1.1-2.7-2.6c0-0.1,0-0.1,0-0.2c0-1.5,1.1-2.7,2.6-2.8h0.1c1.5,0,2.7,1.3,2.7,2.8C180.2,369.9,179,371.2,177.5,371.2
					L177.5,371.2L177.5,371.2z"/>
				<path id="Trazado_124111_00000132794913401597552290000015983975479879570314_" class="st5" d="M265.5,246
					c1.5,0,2.7,1.2,2.7,2.7v0.1c0.1,1.4-1,2.7-2.5,2.7c-0.1,0-0.1,0-0.2,0c-1.5-0.1-2.7-1.4-2.6-2.9
					C262.9,247.2,264.1,246.1,265.5,246L265.5,246z"/>
				<path id="Trazado_124112_00000126300122495438471470000006825959563482987914_" class="st5" d="M215.4,299.3H182
					c-2.8,0-4.1-0.9-4.2-2.7s1.3-2.8,4.2-2.8h66.6c2.9,0,4.3,0.9,4.2,2.7s-1.4,2.7-4.3,2.7L215.4,299.3z"/>
				<path id="Trazado_124113_00000075883553403333455390000003735055961511572159_" class="st5" d="M215.4,311.6h-33.2
					c-0.7,0-1.3,0-2-0.1c-1.5-0.2-2.5-1.5-2.3-3c0.1-1.2,1-2.1,2.2-2.3c0.7-0.1,1.3-0.1,2-0.1h66.6c2.9,0,4.3,0.9,4.2,2.8
					s-1.4,2.7-4.3,2.7H215.4z"/>
				<path id="Trazado_124114_00000119828912085443687330000003100601887636730771_" class="st5" d="M215.4,323.9h-24.7
					c-0.6,0-1.2,0-1.8-0.1c-1.5-0.2-2.5-1.5-2.3-3c0.2-1.1,1-2.1,2.2-2.3c0.7-0.1,1.3-0.1,2-0.1H240c2.9,0,4.3,0.9,4.2,2.8
					s-1.4,2.7-4.1,2.7H215.4z"/>
			</g>
			
				<rect id="Rectángulo_34572_00000042717021097561987680000015922906141925232008_" x="1020.1" y="4037.7" class="st1" width="190" height="46"/>
			<text transform="matrix(1 0 0 1 1103.577 4063.688)" class="st2 st3 st4">Cal</text>
			
				<rect id="Rectángulo_34574_00000163780561957145105750000018012824897661373336_" x="495.1" y="4325.7" class="st1" width="190" height="46"/>
			<text transform="matrix(1 0 0 1 564.2451 4351.7471)" class="st2 st3 st4">Melaza</text>
			<text transform="matrix(1 0 0 1 771.342 4344.688)" class="st2 st3 st6">Residuos </text>
			<text transform="matrix(1 0 0 1 769.319 4360.688)" class="st2 st3 st6">Vegetales</text>
			
				<rect id="Rectángulo_34576_00000023256098740751616570000008251742482982683794_" x="915.1" y="4325.7" class="st1" width="190" height="46"/>
			<text transform="matrix(1 0 0 1 966.7372 4344.688)" class="st2 st3 st6">Suero o Ácido </text>
			<text transform="matrix(1 0 0 1 989.2651 4360.688)" class="st2 st3 st6">láctico</text>
			<g id="fertilizante-01_00000018926676710064507450000009152049648801428367_" transform="translate(479.222 3613.175)">
				<path id="Trazado_124116_00000039834201453895885220000008699116106978540420_" class="st1" d="M165.7,235.6
					c0.7-2.5,1.3-3,3.9-3h83.5c3,0,4,0.8,3.8,3.8c-0.8,10.6,1.4,20.9,3.1,31.3c3.8,22.7,6.1,45.6,4.7,68.6c-0.5,7.5-1,15-2.1,22.4
					c-0.3,2.3,0,2.8,2.4,3.3c7.2,1.4,12.7,7.5,13.4,14.8c0,1.3,0.9,2.5,2.2,2.8c5.7,2.1,9.7,7.1,10.5,13.1c0.1,0.8,0.6,1.5,1.3,1.8
					c5.4,2.6,8.3,7,9,12.9c0.3,2.8-0.7,4-3.5,4h-21.8c-0.8,0.1-1.5-0.1-2.2-0.4c-1.1-0.6-1.7-1.8-1.4-3c0.2-1.2,1.3-2.1,2.6-2h10.3
					c2.8,0,5.6-0.1,8.5,0c1.8,0.1,1.7-0.6,1.1-1.8c-1.2-2.6-3.5-4.5-6.3-5.3c-2-0.6-2.8-1.7-2.9-3.8c-0.2-5.9-3.9-10-9.7-11.1
					c-2.8-0.5-3.5-1.4-3.2-4.2c0.8-6.2-3.6-11.8-9.8-12.6c-0.6-0.1-1.2-0.1-1.7-0.1c-2.3,0.2-3.2-0.8-3.5-3c-0.9-7-7.3-11.9-14.3-11
					c-5.7,0.7-10.2,5.2-11,10.8c-0.4,2.5-1.2,3.2-3.7,3.2c-6.2-0.2-11.3,4.7-11.4,10.9c0,0.3,0,0.6,0,0.9s0,0.6,0,0.9
					c0.1,3.1-0.4,3.7-3.4,4.2c-4,0.6-7.3,3.3-8.7,7.1c-0.5,1.2-0.7,2.4-0.7,3.7c-0.2,3-0.4,3.2-3.1,4.1c-2.9,0.9-5.2,3-6.3,5.8
					c-0.4,0.9-0.2,1.2,0.8,1.2c6.9,0,13.8,0,20.7,0c1.1,0,1.3-0.6,1.6-1.4c1.7-4.9,6.4-8.2,11.6-8.3c1.5-0.2,2.9,1,3,2.5
					c0.2,1.5-1,2.9-2.5,3c-0.1,0-0.2,0-0.4,0c-2.7,0.1-5.1,1.7-6.3,4.1h18.6c2.2,0,3.5,1.1,3.4,2.6c-0.1,1.8-1.3,2.8-3.5,2.8h-108
					c-2.5,0-3.6-0.9-3.4-3.3c0.7-10.8-1.4-21.3-3.2-31.8c-3.3-19.7-5.4-39.5-5-59.4c0.5-15.7,2-31.3,4.6-46.7c1-6.4,2.4-12.7,3.3-19
					c0.6-3.6,0.2-7.4,0.2-11.1c0-1.5,0-3,0-4.5c0.1-1.8,1-2.9,2.8-2.9c7.5-0.1,14.9,0,22.4,0c1.8,0,2.6,1.2,3,2.8
					c-0.4,1.8-1.5,2.6-3.5,2.6c-5.9-0.1-11.8,0-17.7-0.1c-1.3,0-1.8,0.4-1.7,1.7c0.1,2.1,0,4.1,0,6.2c0,2.7-0.3,2.4,2.4,2.4h110.6
					c0.4,0,0.8,0,1.1,0c1,0.1,1.3-0.3,1.3-1.3c-0.1-2.2,0-4.4,0-6.6c0-2.7,0.3-2.4-2.4-2.4h-79.7
					C167.6,237.9,166.3,237.5,165.7,235.6z M258,352.7c1.1-8.4,1.7-16.8,1.8-25.3c0.2-14-0.6-28-2.5-41.9
					c-1.3-10.2-2.9-20.3-4.8-30.3c-0.2-1.2-0.6-1.6-1.9-1.6c-37.8,0-75.5,0-113.3,0c-1.2,0-1.7,0.3-1.9,1.6
					c-2,10.2-3.6,20.6-4.9,30.9c-1.4,10.7-2.2,21.5-2.4,32.3c-0.1,12.2,0.6,24.4,2.1,36.5c1.3,11.4,3,22.7,5.2,33.9
					c0.3,1.4,0.7,1.7,2.1,1.7c20.2,0,40.5,0,60.7,0c1.1,0.2,2.1-0.5,2.4-1.5c1.7-4.5,5.3-7.9,9.8-9.4c1.1-0.3,1.9-1.3,1.8-2.4
					c0.5-7.5,6.1-13.7,13.5-15c1.3-0.1,2.3-1.1,2.5-2.4c2.9-8.2,11.3-13.2,19.9-11.8C251.7,348.5,255.2,350.2,258,352.7L258,352.7z
					 M195.6,395.8h-33c-8.2,0-16.4,0-24.6,0c-1.3,0-1.7,0.4-1.7,1.7c0.1,2.3,0.1,4.6,0,6.9c-0.1,1.3,0.3,1.7,1.7,1.7
					c4.8-0.1,9.5,0,14.3,0h35.1c0.7,0,1.6,0.4,2-0.9C190.2,401.4,192.4,398.1,195.6,395.8z"/>
				<path id="Trazado_124117_00000068664039868400487310000012019582612890854334_" class="st7" d="M163.6,232.8
					c0.5,2,1.9,2.4,3.8,2.4c27,0,54,0,81,0c2.8,0,2.4-0.3,2.4,2.5c0,2.2,0,4.5,0,6.7c0,1-0.3,1.4-1.3,1.3c-0.4,0-0.8,0-1.1,0H136.1
					c-2.7,0-2.4,0.3-2.4-2.5c0-2.1,0.1-4.2,0-6.3c-0.1-1.3,0.4-1.7,1.7-1.7c6,0.1,12,0,17.9,0.1c2,0,3.1-0.8,3.6-2.6
					C159.1,232.7,161.4,232.3,163.6,232.8z"/>
				<path id="Trazado_124118_00000060710858617283706340000008336882326293454501_" class="st1" d="M242.6,370.5c2,0,3.2,1,3.3,2.7
					c0.1,1.6-1,2.7-2.8,2.9c-3.8,0.5-5.7,2.3-6.2,6.2c-0.3,1.9-1.4,3.1-3.1,2.9c-1.6-0.1-2.8-1.5-2.7-3v-0.1
					C231.2,375.8,236.2,370.7,242.6,370.5z"/>
				<path id="Trazado_124119_00000008148270909104635260000007449241727708110473_" class="st1" d="M259.2,383.1
					c5.7,0.1,11,5.3,11.2,11.2c0.1,1.9-0.9,3.2-2.5,3.5s-2.8-0.9-3.1-2.9c-0.7-4.2-2.2-5.6-6.4-6.2c-1.5-0.1-2.7-1.5-2.6-3
					C255.8,384,257.1,383,259.2,383.1z"/>
				<path id="Trazado_124120_00000093873384632732538440000016855977452997494181_" class="st1" d="M258.7,405.9c1.2,0,2.4,0,3.6,0
					c1.4-0.1,2.5,0.9,2.6,2.3c0,0,0,0.1,0,0.2c0.2,1.4-0.8,2.7-2.3,2.9h-0.1c-2.5,0.2-5.1,0.2-7.6,0c-1.4-0.1-2.5-1.4-2.4-2.8
					c0-0.1,0-0.1,0-0.2c0-1.3,1.1-2.4,2.5-2.4c0.1,0,0.1,0,0.2,0C256.4,405.9,257.6,405.9,258.7,405.9z"/>
				<path id="Trazado_124121" class="st5" d="M257.3,351.7c-2.8-2.5-6.3-4.2-10.1-4.9c-8.8-1.4-17.3,3.7-20.2,12
					c-0.2,1.3-1.3,2.3-2.6,2.4c-7.5,1.4-13.2,7.6-13.7,15.3c0,1.2-0.7,2.2-1.8,2.4c-4.6,1.5-8.3,5-10,9.6c-0.3,1.1-1.3,1.7-2.4,1.6
					c-20.6,0-41.1,0-61.7,0c-1.3,0-1.8-0.4-2.1-1.7c-2.2-11.4-4-22.9-5.3-34.4c-1.5-12.3-2.3-24.7-2.1-37.1c0.2-11,1.1-22,2.5-32.9
					c1.3-10.5,3-21,5-31.4c0.3-1.3,0.7-1.6,2-1.6c38.4,0,76.7,0,115.1,0c1.3,0,1.7,0.4,1.9,1.7c2,10.2,3.6,20.5,4.9,30.8
					c1.9,14.1,2.8,28.3,2.5,42.6C259,334.6,258.3,343.2,257.3,351.7L257.3,351.7z M155.3,258.6h-10.9c-1.9,0-2.9,0.9-2.9,2.5
					c-0.1,1.5,1,2.7,2.5,2.8c0.1,0,0.2,0,0.3,0c7.3,0.1,14.6,0.1,21.9,0c1.5,0.1,2.8-1,2.9-2.5c0-0.1,0-0.3,0-0.4
					c-0.1-1.5-1.2-2.4-3.1-2.4C162.5,258.6,158.9,258.6,155.3,258.6L155.3,258.6z M180.2,264L180.2,264c1.1,0,2.2,0,3.2-0.1
					c1.3-0.1,2.4-1.2,2.4-2.5c0.2-1.3-0.6-2.4-1.9-2.7l0,0c-2.4-0.4-4.8-0.4-7.2-0.1c-1.3,0.1-2.3,1.2-2.3,2.6l0,0
					c0,1.3,1,2.5,2.3,2.6C177.9,264,179.1,264,180.2,264L180.2,264z"/>
				<path id="Trazado_124122_00000178900262911040703360000017827011626803474623_" class="st8" d="M193.9,395.5
					c-3.2,2.3-5.5,5.7-6.4,9.6c-0.3,1.2-1.2,0.9-2,0.9h-35.7c-4.8,0-9.7,0-14.5,0c-1.4,0-1.7-0.4-1.7-1.7c0.1-2.3,0.1-4.7,0-7.1
					c-0.1-1.3,0.3-1.7,1.7-1.7c8.3,0.1,16.7,0,25,0L193.9,395.5L193.9,395.5z"/>
				<path id="Trazado_124123_00000065774239090128825570000002271010860513386392_" class="st1" d="M148.8,320.8
					c0-22.6,18.3-40.9,40.9-40.9s40.9,18.3,40.9,40.9s-18.3,40.9-40.9,40.9c-10.7,0-21-4.2-28.7-11.7
					C153.2,342.2,148.8,331.7,148.8,320.8z M189.9,356.3c19.2,0.2,35.5-15.9,35.7-35.1c0.3-19.7-15.4-35.9-35.1-36.2
					s-35.9,15.4-36.2,35.1s15.4,35.9,35.1,36.2C189.5,356.3,189.7,356.3,189.9,356.3z"/>
				<path id="Trazado_124124_00000034768416939738582680000000350485723742972043_" class="st1" d="M155.3,258.6H166
					c1.9,0,2.9,0.9,3.1,2.4c0.1,1.5-1,2.8-2.5,2.9c-0.1,0-0.2,0-0.4,0c-7.3,0.1-14.6,0.1-21.9,0c-1.5,0.1-2.7-1.1-2.7-2.5
					c0-0.1,0-0.2,0-0.3c0-1.6,1-2.5,2.9-2.5C148.1,258.6,151.7,258.6,155.3,258.6z"/>
				<path id="Trazado_124125_00000133517927215702467370000017646218086029107862_" class="st1" d="M180.2,264
					c-1.1,0-2.3-0.1-3.4-0.2c-1.3-0.1-2.4-1.2-2.3-2.6c-0.1-1.3,0.9-2.5,2.2-2.6l0,0c2.4-0.4,4.8-0.3,7.2,0.1
					c1.3,0.2,2.1,1.4,1.9,2.6l0,0c0,1.3-1.1,2.5-2.4,2.5C182.4,264,181.3,264,180.2,264L180.2,264z"/>
				<path id="Trazado_124126_00000101783520298791722150000000384017160701794995_" class="st9" d="M189.9,356.3
					c-19.7,0-35.8-16-35.8-35.7s16-35.8,35.7-35.8s35.8,16,35.8,35.7c0,0.2,0,0.5,0,0.7C225.4,340.4,209.1,356.5,189.9,356.3z
					 M187,324.9c-4.1-4.1-8.7-6.4-14.2-6.8c-3.3-0.2-4.2,0.8-4.1,4.1c0.7,9.5,7.7,17.4,17,19.3c1.2,0.2,1.4,0.7,1.4,1.7
					c-0.1,1.5-0.1,3.1,0,4.6c0,1.5,1.1,2.7,2.6,2.7c0.1,0,0.2,0,0.3,0c1.4,0,2.5-1.1,2.6-2.5c0-0.1,0-0.2,0-0.3c0-1.5,0.1-3.1,0-4.6
					c-0.1-1.1,0.3-1.5,1.4-1.7c9.5-1.9,16.5-10,17.1-19.6c0.2-2.7-0.9-3.9-3.7-3.7c-5.1,0.2-9.9,2.3-13.6,5.8
					c-0.3,0.3-0.5,0.9-1.1,0.8c-0.4-2.4,0.2-4.8,1.7-6.7c5.5-8.1,4.6-18.9-2.1-26c-1.7-1.8-3.2-1.8-4.8,0
					c-6.8,7.2-7.6,18.2-1.9,26.3C187,320.3,187.2,322.3,187,324.9L187,324.9z"/>
				<path id="Trazado_124127_00000159444209769353172530000012364925620791934110_" class="st1" d="M187,324.9
					c0.2-2.6,0-4.6-1.5-6.7c-5.7-8.1-4.9-19.1,1.9-26.3c1.7-1.8,3.1-1.8,4.8,0c6.7,7.1,7.6,17.9,2.1,26c-1.5,1.9-2.1,4.3-1.7,6.7
					c0.6,0.1,0.8-0.5,1.1-0.8c3.7-3.5,8.5-5.6,13.6-5.8c2.8-0.1,3.9,1,3.7,3.7c-0.5,9.7-7.5,17.8-17.1,19.7
					c-1.1,0.2-1.5,0.6-1.4,1.7c0.1,1.5,0,3.1,0,4.6c0.1,1.4-0.9,2.6-2.3,2.7c-0.1,0-0.1,0-0.2,0c-1.5,0.1-2.7-1-2.8-2.5
					c0-0.1,0-0.2,0-0.3c-0.1-1.5-0.1-3.1,0-4.6c0.1-1.1-0.2-1.5-1.4-1.7c-9.4-1.9-16.3-9.7-17-19.3c-0.2-3.3,0.8-4.3,4.1-4.1
					C178.3,318.5,182.9,320.8,187,324.9z M193.1,336.1c5.3-0.5,11.2-6.1,12.1-11.2c0.2-1.2-0.5-1-1.1-0.8
					C198.6,325.4,193.4,331,193.1,336.1L193.1,336.1z M190,297.6c-3.4,4-3.7,11.3-1,16.1c0.2,0.4,0.3,1,0.8,1c0.6,0,0.7-0.6,0.9-1.1
					C193.5,308.3,193.2,303,190,297.6L190,297.6z M175.7,324c-1.4-0.1-1.3,0.4-1.1,1c1.5,5.2,5.5,9.3,10.6,10.8
					c1.4,0.4,1.6,0,1.2-1.2c-1.2-4.1-4.1-7.6-8-9.5C177.6,324.7,176.7,324.4,175.7,324L175.7,324z"/>
				<path id="Trazado_124128_00000160165506158997176930000004486583433136558728_" class="st5" d="M193.1,336.1
					c0.4-5,5.5-10.6,11-12c0.6-0.1,1.3-0.4,1.1,0.8C204.3,330,198.4,335.5,193.1,336.1z"/>
				<path id="Trazado_124129_00000072969730875292913450000005133516930563980970_" class="st5" d="M190,297.6
					c3.2,5.4,3.4,10.6,0.7,16.1c-0.2,0.4-0.3,1.1-0.9,1.1c-0.5,0-0.6-0.6-0.8-1C186.3,308.9,186.6,301.6,190,297.6z"/>
				<path id="Trazado_124130_00000049185257036627684860000007693209872156438424_" class="st5" d="M175.8,324
					c0.9,0.3,1.9,0.7,2.8,1.1c3.9,1.9,6.7,5.4,8,9.5c0.4,1.2,0.2,1.6-1.2,1.2c-5.2-1.5-9.2-5.6-10.6-10.8
					C174.5,324.5,174.4,323.9,175.8,324z"/>
			</g>
			<g id="terreno_1_-01_00000074403667128662012790000018250437264955310736_" transform="translate(-189.047 3626.154)">
				<path id="Trazado_124132_00000160156506106447016210000014664851611093923481_" class="st5" d="M583.8,322.3
					c0-0.4-0.1-0.7-0.1-1.1c0-19.7,0-39.3-0.1-59c-0.1-1,0.5-2,1.5-2.3c25.4-14.7,50.9-29.3,76.3-44c0.8-0.3,1.5-0.8,2-1.4h0.7
					c0.4,0.7,1.2,0.9,1.9,1.3c25.3,14.6,50.6,29.3,75.9,43.9c0.6,0.3,1.6,0.4,1.6,1.5c-0.3,0.1-0.6,0.2-0.8,0.3
					c-11.1,6.4-22.1,12.7-33.2,19.2c-14.8,8.5-29.5,17-44.3,25.5c-1,0.5-1.5,1.5-1.4,2.6c0,19.2,0,38.4-0.1,57.5v1.6h-0.4v-1.8
					c0-8.9,0-17.8,0-26.7c0-1.2-0.2-1.9-1.5-2.1c-7-1.3-14.1-2.7-21.1-4c-10.9-2.1-21.8-4.2-32.7-6.2
					C600,325.5,591.9,323.9,583.8,322.3z"/>
				<path id="Trazado_124133_00000116922322963101865330000003269416968158175891_" class="st1" d="M583.8,322.3
					c8.1,1.6,16.2,3.1,24.3,4.7c10.9,2.1,21.8,4.2,32.7,6.2c7,1.3,14.1,2.7,21.1,4c1.3,0.2,1.5,0.9,1.5,2.1c0,8.9,0,17.8,0,26.7v1.8
					h0.4v-1.6c0-19.2,0.1-38.3,0.1-57.5c-0.1-1.1,0.5-2.1,1.4-2.5c14.8-8.5,29.5-17,44.2-25.5c11.1-6.4,22.1-12.8,33.2-19.2
					c0.3-0.1,0.5-0.2,0.8-0.3c0,10.7,0,21.4,0.1,32c0,19.3,0,38.7,0.1,58c0.1,1.1-0.5,2.2-1.6,2.7c-25.6,14.8-51.2,29.6-76.7,44.5
					c-1,0.7-2.3,0.6-3.3-0.1c-25.7-14.9-51.4-29.8-77.1-44.6c-0.7-0.4-1.3-0.8-1.3-1.9c0.1-9.6,0-19.2,0-28.8
					C583.8,322.8,583.8,322.6,583.8,322.3L583.8,322.3z"/>
				
					<g id="contaminacion-atmosferica-01_00000121976986339723388070000006398473402491722894_" transform="translate(953.711 67.072)">
					<path id="Trazado_124134_00000034805616051282983850000002313043919841667462_" class="st10" d="M43,263.7v-9.1
						c0.6-0.5,0.5-1.2,0.6-1.8c1.1-6.5,4.1-12.5,8.6-17.3c0.9-1,1.1-1.6,0.3-2.9c-3.6-5.6-5-12.2-4-18.8c2.2-15.5,16.5-26.2,32-24
						c1.8,0.3,3.5,0.7,5.2,1.3c0.9,0.3,1.3,0.3,1.8-0.6c5.2-9.4,16.5-13.6,26.6-10c1,0.3,1.4,0.2,1.9-0.7
						c7.9-13.2,19.5-19.3,34.8-17.9c15.2,1.7,27.5,13.1,30.3,28.1c0.2,1.3,0.7,1.7,2,1.7c14.8,0.5,26.9,9.8,30.8,23.8
						c0.4,1.5,0.4,3.1,1.1,4.6v8.1c-0.4,0.1-0.3,0.5-0.4,0.8c-0.7,4.7-2.5,9.2-5.2,13.1c-0.6,0.7-0.6,1.6-0.2,2.4
						c2.7,5.3,3.3,11.4,1.8,17.1c-3.1,12.4-14,20.3-27.1,19.6c-0.6,0-1.7-0.7-1.8,0.4c0,1,1.1,0.4,1.6,0.4
						c10,0.3,17.9,8.6,17.7,18.6c-0.3,10-8.6,17.9-18.6,17.7c-1.1,0-2.3-0.2-3.4-0.4c-0.7-0.2-1.4-0.4-2.1,0.3c-4,4-10,5.3-15.2,3.2
						c-5.6-2-8.8-6.3-9.6-12.2c-0.1-1-0.5-1.1-1.3-1.1c-2.9,0.2-5.8-0.1-8.7-0.8c-1.1-0.3-1.5,0.1-2,1c-8,14.4-26.1,19.6-40.5,11.7
						c-0.6-0.5-1.6-0.4-2.1,0.2c-4.9,4.6-11.3,7.2-18.1,7.5c-11.4,0.5-20.6-4-26.8-13.5s-6.5-19.7-1.5-30c0.5-0.7,0.4-1.7-0.3-2.3
						c-3.6-4.3-6.2-9.4-7.4-14.8C43.6,266,43.7,264.8,43,263.7z M152.4,303.3c-0.5-0.6-0.8-1-1-1.4c-3.1-4.8-3.5-9.8-1-15
						c3.7-7.2,12.4-10,19.6-6.4c1.4,0.7,2.6,1.6,3.7,2.7c0.4,0.4,0.6,1.2,1.4,0.8c1.1-0.5,2.1-0.9,2.2-2.4c0.1-1,0.3-2,0.5-3
						c0.4-2.5,1.2-3,3.8-2.6c8.8,1.6,16.2-0.9,21.5-8.2c5.1-7,5.5-14.6,1.4-22.3c-1.1-2.1-0.9-3.5,0.4-5.4
						c6.5-9.4,7.4-19.4,1.9-29.4S192.4,196,181,196.3c-3.4,0.1-3.8-0.2-4.3-3.6c-0.5-4.6-2.1-9-4.7-12.8
						c-6.6-9.6-15.8-14.4-27.3-13.6c-11.8,0.8-20.4,6.9-25.6,17.6c-1.3,2.7-2.1,3-4.8,1.7c-8.6-4.2-19-0.6-23.1,8
						c-0.1,0.2-0.2,0.5-0.3,0.7c-1.2,2.8-2,3.1-4.8,1.9c-4.1-1.8-8.6-2.4-13-1.7c-12.8,2-21.7,14-19.7,26.8
						c0.6,3.8,2.1,7.4,4.4,10.5c1.8,2.4,1.7,3.1-0.4,5.1c-12.2,11.6-12.8,30.9-1.3,43.2c2,2.1,2,2.5,0.5,5.1
						c-3,4.9-4.2,10.6-3.3,16.3c1.6,10,7.3,16.9,17,20.2c9.8,3.3,18.5,0.9,25.9-6.2c1.9-1.8,2.4-1.9,4.6-0.5
						c11.7,7.6,27.3,4.2,34.9-7.5c0.7-1,1.3-2.1,1.8-3.2c1.1-2.4,1.7-2.7,4.3-2C145.2,303.3,148.8,303.7,152.4,303.3z M190.9,299.3
						c0-2.2-1.3-4.2-3.4-5.1c-1.1-0.5-2.5,0-3,1.1c-0.1,0.2-0.2,0.5-0.2,0.8c-0.3,2.2,0.8,4.4,2.7,5.5
						C189.1,302.7,190.9,301.6,190.9,299.3L190.9,299.3z M164.7,287.6c-1.5-0.1-2.8,0.9-2.9,2.4c-0.1,1.5,0.9,2.8,2.4,2.9
						s2.8-0.9,2.9-2.4c0-0.1,0-0.2,0-0.3C167.2,288.9,166.1,287.7,164.7,287.6L164.7,287.6z"/>
					<path id="Trazado_124137_00000007395126195705200230000014195816290176395428_" class="st11" d="M152.4,303.3
						c-3.6,0.3-7.2,0-10.7-1c-2.6-0.7-3.2-0.5-4.3,2c-5.8,12.7-20.7,18.2-33.4,12.5c-1.1-0.5-2.2-1.1-3.2-1.8
						c-2.2-1.4-2.7-1.3-4.6,0.5c-7.4,7.1-16.1,9.5-25.9,6.2c-9.6-3.2-15.4-10.2-17-20.2c-0.9-5.6,0.2-11.4,3.3-16.3
						c1.6-2.6,1.5-3-0.5-5.1c-11.5-12.3-10.9-31.6,1.3-43.2c2.1-2,2.1-2.7,0.4-5.1c-7.8-10.4-5.6-25.2,4.8-32.9
						c3.1-2.3,6.7-3.8,10.5-4.4c4.4-0.7,8.9-0.1,12.9,1.7c2.7,1.2,3.6,0.9,4.8-1.9c3.8-8.8,14-12.8,22.7-9c0.2,0.1,0.5,0.2,0.7,0.3
						c2.7,1.3,3.5,1,4.8-1.7c5.2-10.7,13.8-16.8,25.6-17.6c11.5-0.8,20.7,4.1,27.3,13.6c2.6,3.8,4.2,8.2,4.7,12.8
						c0.4,3.4,0.9,3.7,4.3,3.6c11.4-0.3,20.3,4.4,25.8,14.4s4.6,20-1.9,29.4c-1.3,1.9-1.6,3.3-0.4,5.4c4.1,7.6,3.7,15.3-1.4,22.3
						c-5.3,7.2-12.7,9.7-21.5,8.2c-2.6-0.5-3.4,0.1-3.8,2.6c-0.2,1-0.4,2-0.5,3c-0.1,1.4-1.1,1.9-2.2,2.4c-0.9,0.4-1.1-0.4-1.4-0.8
						c-5.7-5.7-14.9-5.7-20.6,0c-1.1,1.1-2,2.3-2.7,3.7c-2.6,5.1-2.2,10.2,1,15C151.6,302.3,151.9,302.7,152.4,303.3z M101.8,273.2
						c-0.3,1.3,0.6,2.6,1.9,2.9c0.4,0.1,0.7,0.1,1.1,0c2.6-0.3,5.2-0.2,7.7,0.3c1.8,0.3,2.7-0.2,3.2-1.8c2.4-8.4,8.6-15.1,16.6-18.4
						c1.6-0.7,2.1-1.7,1.5-3.4c-2-5.1-1.5-10.9,1.5-15.6c1.1-1.9,0.4-3.5-1.7-3.9c-7.3-1.5-13.8-5.7-18.2-11.7
						c-1.2-1.6-2.5-1.7-4-0.4c-4.1,3.6-9.6,5.1-15,4.1c-2.1-0.4-3.1,0.4-3.3,2.5c-0.4,3.3-1.5,6.4-3.2,9.3c-1.6,2.7-1.5,3.1,1,5.1
						c7,5.4,11.3,13.6,11.7,22.5C102.7,267.4,102.5,270.3,101.8,273.2L101.8,273.2z"/>
					<path id="Trazado_124138_00000103265129162121840590000003224902194341573248_" class="st12" d="M190.9,299.3
						c0,2.4-1.8,3.4-3.8,2.3c-1.9-1.1-3-3.3-2.7-5.5c0.1-1.2,1.2-2.2,2.4-2.1c0.3,0,0.5,0.1,0.8,0.2
						C189.6,295,190.9,297,190.9,299.3z"/>
					<path id="Trazado_124139_00000047755818260233504050000002364259775627287983_" class="st12" d="M164.7,287.6
						c1.5-0.1,2.7,1.1,2.8,2.6s-1.1,2.7-2.6,2.8c-1.5,0.1-2.7-1.1-2.8-2.6c0,0,0,0,0-0.1C162.1,288.9,163.3,287.7,164.7,287.6z"/>
					<path id="Trazado_124140_00000125579187989075170250000008426029075965954954_" class="st10" d="M197.3,161.8
						c4.3-0.2,8.2,2.4,9.6,6.4c0.1,0.5,0.5,0.9,1,1c0.3,0.1,0.6,0.2,0.9,0.4c3.4,1.6,5.7,4,5.8,7.9c0,3.8-2.2,6.3-5.5,7.9
						c-0.8,0.4-1.5,1-1.9,1.9c-1.6,3.5-5.1,5.6-8.9,5.4c-3.9,0-7.3-2.4-8.7-6c-0.2-0.9-1-1.5-1.9-1.6c-2-0.3-3.9-1.2-5.4-2.5
						c-3.7-3.1-3.8-7.8-0.2-11c1.5-1.3,3.6-1.7,5.1-2.7c1.4-1,1.6-3.3,3.2-4.5C192.3,162.7,194.8,161.8,197.3,161.8z M197.9,188
						c2.3,0,4.1-0.6,4.6-2.1c1-2.9,3-4.1,5.5-5.4c2.7-1.3,2.6-4.4,0-6.1c-0.9-0.6-2-1-3.1-1.2c-1.3,0-2.4-1.1-2.4-2.4
						c0-0.1,0-0.2,0-0.3c0-1.1-0.5-2.1-1.3-2.8c-2.3-1.8-5.5-1.8-7.8,0c-0.8,0.6-1.3,1.6-1.3,2.6c-0.1,2-0.7,2.6-2.7,2.9
						c-1.3,0.1-2.6,0.6-3.8,1.3c-2.1,1.5-2.1,3.2,0.1,4.6c1.5,0.8,3.1,1.3,4.8,1.3c2.2,0.2,2.7,0.6,3,2.8
						C193.9,186,196,188,197.9,188L197.9,188z"/>
					<path id="Trazado_124141_00000157299909286398840920000013020404890559113625_" class="st10" d="M101.8,273.2
						c0.7-2.8,0.9-5.7,0.7-8.6c-0.4-8.9-4.7-17.1-11.7-22.5c-2.5-2-2.6-2.4-1-5.1c1.7-2.8,2.8-6,3.2-9.3c0.3-2.1,1.2-2.9,3.3-2.5
						c5.4,1.1,10.9-0.4,15-4.1c1.5-1.3,2.8-1.2,4,0.4c4.4,6,10.9,10.1,18.2,11.7c2.1,0.5,2.8,2.1,1.7,3.9
						c-2.9,4.7-3.5,10.5-1.5,15.6c0.6,1.7,0.2,2.7-1.5,3.4c-8.1,3.3-14.2,10-16.6,18.4c-0.5,1.7-1.5,2.2-3.2,1.8
						c-2.5-0.5-5.1-0.6-7.7-0.3c-1.3,0.3-2.6-0.4-3-1.7C101.7,273.9,101.7,273.5,101.8,273.2z"/>
					<path id="Trazado_124142_00000155116565011934077530000003243526479395795870_" class="st13" d="M197.9,188
						c-1.9,0-4-1.9-4.4-4.6c-0.3-2.2-0.7-2.6-3-2.8c-1.7,0-3.3-0.5-4.8-1.3c-2.2-1.4-2.2-3.1-0.1-4.6c1.1-0.7,2.4-1.2,3.8-1.3
						c2-0.3,2.6-0.9,2.7-2.9c0.1-1,0.5-2,1.3-2.6c2.3-1.8,5.5-1.8,7.8,0c0.9,0.7,1.4,1.7,1.3,2.8c-0.2,1.3,0.8,2.5,2.1,2.7
						c0.1,0,0.2,0,0.3,0c1.1,0.2,2.2,0.6,3.1,1.2c2.5,1.7,2.7,4.7,0,6.1c-2.6,1.2-4.6,2.5-5.5,5.4
						C201.9,187.4,200.1,187.9,197.9,188z M202.3,179.2c1.4,0,1.9-0.7,1.9-1.6c0.1-0.8-0.6-1.5-1.4-1.6c-0.1,0-0.3,0-0.4,0
						c-0.8-0.1-1.5,0.5-1.6,1.3c0,0.1,0,0.2,0,0.3c-0.1,0.8,0.4,1.5,1.2,1.6C202.1,179.1,202.2,179.2,202.3,179.2L202.3,179.2z"/>
					<path id="Trazado_124143_00000056419868257189439510000002947995166896794250_" class="st12" d="M202.3,179.2
						c-0.8,0-1.4-0.6-1.4-1.4c0-0.1,0-0.1,0-0.2c-0.1-0.8,0.5-1.5,1.3-1.6c0.1,0,0.2,0,0.2,0c0.8-0.2,1.6,0.4,1.7,1.2
						c0,0.1,0,0.3,0,0.4C204.2,178.5,203.7,179.1,202.3,179.2z"/>
				</g>
			</g>
			<g id="melaza-01_00000088822793903653053890000013241387601005508269_" transform="translate(353.765 3906.527)">
				<path id="Trazado_124146_00000098932926853058873510000008092479244852714887_" class="st1" d="M277.5,235.4
					c4.9,4,9.9,7.5,1.5,13.5c-3.6,2.6-0.7,9.6,3.8,11.4c10.4,4.3,18.2,8.2,17.9,25.8c-0.5,31.3-0.8,62.6,0.1,93.8
					c0.4,14.7-2.4,26.1-16.9,32.2H175.5c-1.5-5.2-7.9-5.4-10.2-10.4c-1.8-4-3.4-7.5-3.4-12c0.1-35.6,0-71.3,0.1-106.9
					c0-10.8,5.5-18.3,16-21.8c7.6-2.6,9.2-8.4,3.6-13.9c-3.2-3.1-4-6-0.1-8.5c3.2-2.1,2.8-4.8,3.1-7.8c0.5-6.9,4.8-11.4,11.6-11.4
					c20.8-0.1,41.7,0.2,62.5,0.3c3,2.5,6.2,4.8,7.1,9C267.7,238.2,267.9,238.2,277.5,235.4z M231.3,400.4c14.1,0,28.1,0,42.1,0
					c12.6-0.1,16.2-3.5,16.2-16c0.1-27.1,0.1-54.2,0-81.3c0-9.4-0.5-9.8-9.9-7.1c-2.2,0.6-4.3,1.3-6.4,2.1c-8.5,3.4-18,3.4-26.4-0.2
					c-10-4.3-21.4-4.3-31.4,0c-9,3.7-18.1,3.4-27.1,0c-3.1-1.1-6.2-2.1-9.3-2.8c-4.2-1-6.3-0.2-6.3,5c0.2,28.9,0,57.7,0.2,86.6
					c0.1,9.7,4.2,13.7,13.9,13.7C201.7,400.4,216.5,400.4,231.3,400.4z"/>
				<path id="Trazado_124147_00000111186386588802757750000000706158168034796968_" class="st5" d="M277.5,235.4
					c-9.7,2.8-9.8,2.8-11.9-6.7c-0.9-4.2-4.1-6.5-7.1-9c3,0.1,6-0.1,8.9,0.5C275.8,221.8,277.4,228.2,277.5,235.4z"/>
				<path id="Trazado_124148_00000079443644742977682990000016650180788329084557_" class="st5" d="M231.3,400.4
					c-14.8,0-29.6,0.1-44.4,0c-9.6-0.1-13.8-4.1-13.9-13.8c-0.1-28.9,0.1-57.7-0.2-86.6c0-5.2,2.1-6.1,6.3-5
					c3.2,0.8,6.3,1.7,9.3,2.8c9.1,3.4,18.1,3.7,27.1,0c10-4.3,21.4-4.3,31.4,0c8.4,3.5,17.9,3.6,26.4,0.2c2.1-0.8,4.3-1.5,6.4-2.1
					c9.4-2.7,9.9-2.3,9.9,7.1v81.3c0,12.5-3.6,16-16.2,16C259.4,400.4,245.3,400.4,231.3,400.4z"/>
			</g>
			<g id="residuos_vegetales-01_00000007409450132545570040000005575101955273268357_" transform="translate(519.046 3831.008)">
				<path id="Trazado_124150_00000096757952413290867560000002749492512929383071_" class="st5" d="M241.6,481.7
					c-4.9,0-9.8,0.1-14.7,0c-5.5,0-10-4.3-10.1-9.8c-0.1-13.1,0-26.3,0-39.4c0-0.4,0.1-0.8,0.2-1.2c1.3,6.3,3,12.5,3.8,18.8
					c1.2,9.5,6.2,18.7,3.3,28.7c-0.2,0.8,0.3,1.5,1.1,1.7c0.1,0,0.2,0,0.2,0c0.8,0.2,1.6-0.2,1.9-1v-0.1c0.6-2.7,1.8-5.3,1.2-8.3
					c-3.1-14.7-5.9-29.5-9-44.2c-0.4-2,0.3-2.1,1.9-2.1c1.8,0,1.9,1.4,2.3,2.4c4.7,10.9,9.4,21.8,14,32.8c1.8,4.2,4.7,8.3,2,13.2
					c-0.1,0.2-0.1,0.4-0.1,0.6c-0.1,0.9,0.5,1.6,1.3,1.8c0.7,0.2,1.5-0.2,1.7-1c0.8-3.3,2.6-6.2,0.9-9.9
					c-5.7-12.8-11-25.8-16.7-38.6c-1-2.3-0.2-3.6,1.4-4.5s1.9,1.1,2.4,1.9c6.6,8.8,13.1,17.6,19.8,26.4c2.6,3.5,5.4,6.7,2.9,11.4
					c-0.1,0.4-0.1,0.8,0,1.2c0.1,0.6,0.6,1.1,1.2,1.2c0.6,0.2,1.3,0,1.6-0.5c1.7-1.8,2-8.5,0.5-10.5c-7.7-10.3-15.3-20.6-23-30.8
					c-1.4-1.9-3-3.6-2.3-6.3c0.3-1.3-0.7-2.5-1.4-3.6c-3.3-4.9-6.6-9.8-9.9-14.7c-1-1.4-1.5-3.1-1.4-4.8c0.1-20.8,0.1-41.5,0-62.3
					c0-2.8,0.5-3.7,3.6-3.7c30.6,0.1,61.3,0.1,91.9,0.1c7,0,9,2,9,8.8V471c0,7-1.8,9-8.8,9h-68.7C244,479.9,242.2,479.4,241.6,481.7
					z M293.3,393.9c-0.8-16-6.6-31.4-16.5-43.9c-5.7-7.4-8.5-7.3-14.2,0c-9.4,12.1-15.2,25.8-16.2,41.1
					c-1.1,15.8,4.9,28.8,17.3,38.7c4.9,3.9,7.3,3.9,12.2,0C287.2,420.7,292.7,408.7,293.3,393.9L293.3,393.9z M223.5,345.5v7.3
					c0,1.9,0.4,3.5,2.7,3.6s3.3-1.4,3.3-3.5c0.1-2.8,0-5.7,0-8.5c0.1-2.3,0-4.7-0.2-7c-0.2-1.7-1.2-3.1-3.3-2.9s-2.6,1.6-2.6,3.4
					C223.5,340.4,223.5,342.9,223.5,345.5L223.5,345.5z M229.5,366.1c0-2.3,0-4.8-2.9-5.2c-2.2-0.3-3.3,1.5-3.1,3.6
					c0.2,2.4-1.1,5.7,2.7,6.5c1.2,0.3,2.3-0.6,2.9-1.9C229.4,368.1,229.6,367.1,229.5,366.1L229.5,366.1z"/>
				<path id="Trazado_124151_00000124877494220533706070000014452173936971126953_" class="st1" d="M241.6,481.7
					c0.5-2.3,2.4-1.8,4-1.8h68.7c6.9,0,8.8-1.9,8.8-9V335.4c0-6.9-2-8.8-9-8.8c-30.6,0-61.3,0-91.9-0.1c-3.1,0-3.6,0.9-3.6,3.7
					c0.1,20.8,0.1,41.5,0,62.3c-0.1,1.7,0.5,3.4,1.4,4.8c3.4,4.8,6.6,9.8,9.9,14.7c0.7,1.1,1.8,2.2,1.4,3.6
					c-0.7,2.7,0.9,4.4,2.3,6.3c7.7,10.3,15.3,20.5,23,30.8c1.5,2,1.2,8.7-0.5,10.5c-0.4,0.5-1,0.7-1.6,0.5c-0.6-0.1-1.1-0.6-1.2-1.2
					c-0.1-0.4-0.1-0.8,0-1.2c2.5-4.7-0.3-7.9-2.9-11.4c-6.7-8.7-13.1-17.6-19.8-26.4c-0.6-0.8-0.9-2.8-2.4-1.9s-2.4,2.2-1.4,4.5
					c5.7,12.8,11,25.8,16.7,38.6c1.7,3.7-0.1,6.7-0.9,9.9c-0.2,0.7-1,1.2-1.7,1c-0.8-0.2-1.4-0.9-1.3-1.8c0-0.2,0-0.4,0.1-0.6
					c2.7-4.9-0.2-9-2-13.2c-4.6-11-9.3-21.9-14-32.7c-0.4-1-0.5-2.4-2.3-2.4c-1.6,0-2.3,0.1-1.9,2.1c3,14.7,5.9,29.5,9,44.2
					c0.6,3-0.6,5.6-1.2,8.3c-0.2,0.8-1,1.3-1.8,1.2h-0.1c-0.8,0-1.4-0.7-1.4-1.5c0-0.1,0-0.2,0-0.2c2.9-10-2.1-19.1-3.3-28.7
					c-0.8-6.3-2.5-12.5-3.8-18.8c-0.3-1.5-0.6-3-0.8-4.5c-0.1-1.5-0.7-2.1-2.3-2.1c-1.9,0.1-1.4,1.4-1.4,2.4v53.8
					c0,1.2-0.3,2.4-1.7,2.3c-1.2,0-1.6-1.1-1.6-2.2v-53.4c0-1,0.9-2.5-1.2-2.8s-2.2,1-2.5,2.5c-2.9,14.7-5.9,29.3-8.9,43.9
					c-0.5,2.3,0.3,4.4,0.8,6.6c0.3,1.2,0.4,2.3-1,2.7s-2-0.7-2.3-1.8c-1-3.1-1.2-6.4-0.6-9.6c2.9-13.6,5.6-27.3,8.3-40.9
					c0.2-1,1.6-2.6-0.2-3.3c-2-0.8-3,0.6-3.7,2.4c-5.1,12.1-10.2,24.1-15.5,36.1c-1.3,2.9-2.1,5.6-0.7,8.7c0.5,1.1,1,2.8-0.8,3.3
					s-1.9-1.2-2.4-2.4c-1.4-3.5-1.2-6.6,0.4-10.1c5.5-12.2,10.6-24.6,15.9-36.9c0.5-1.1,1.1-2-0.1-3.3c-1.3-1.4-2-1.8-3.3,0.1
					c-7.6,10.4-15.4,20.8-23.1,31.1c-1,1-1.3,2.6-0.8,3.9c0.4,1.3,0.7,2.5,0.9,3.8c0.2,0.9-0.3,1.8-1.1,2c-0.1,0-0.1,0-0.2,0
					c-0.8,0.2-1.6-0.3-1.8-1.1v-0.1c-1-3.9-2.6-7.4,0.8-11.6c8-9.8,15.3-20.3,23-30.5c0.9-1.2,1.7-2.4,1.3-4.1
					c-0.4-1.6,0.5-2.9,1.3-4.2c3.3-4.9,6.6-9.8,9.9-14.7c1.1-1.5,1.6-3.3,1.6-5.1c0-32.9,0-65.8,0-98.7c0-1.5-1-4.1,1.6-4.1
					c2.4,0,1.8,2.5,1.8,4.1c0,32.2,0,64.3,0,96.5c0,2.8,0.5,3.9,3.6,3.8c5-0.3,5-0.1,5-5c0-31.6,0-63.1,0-94.7c0-1.7-1-4.7,1.8-4.7
					s1.5,3.1,1.6,4.7c0.1,6.8,0.1,13.6,0.1,20.8c2.6-1.5,4.7-2.9,7.3-3.4c1.6-0.3,0.6-1.4,0.5-2.2c-1-9.2,4.4-16.7,13.2-18.3
					c4.9-0.9,9.9,0.7,13.5,4.2c1.2,1.1,1.7,1.6,3.3,0.3c5.2-4.4,11.3-3.5,16.9,2.1c2.5-2.8,5.8-4.8,9.5-5.8
					c9.2-2.3,18.6,3.3,20.9,12.6c0.2,0.9,0.4,1.8,0.4,2.7c0.2,1.8,0.7,2.6,2.5,3c5.9,1.3,9.5,5.1,11.2,10.9c0.3,1,0.4,1.9,1.8,2.4
					c5.2,1.8,7,5.8,6.9,11c0,17.5,0,35,0,52.5v3.5c2.7-1,5-1.9,7.3-2.8c1.3-0.5,0.8-1.7,0.8-2.7c0-9.1-0.1-18.1-0.2-27.2
					c0-5.7,2.3-7.5,7.9-6.1c4.8,1.2,9.6,2.5,14.4,3.8c3.9,1.1,5.2,2.7,4.5,6.6c-0.2,1,0.2,2,1,2.6c1.3,1.3,2.7,2.5,3.9,3.8
					c2.9,2.9,2.8,5.7-0.2,8.4c-4.6,4.1-9.3,8.2-14,12.3c-0.5,0.5-1.1,0.8-1.6,1.2c16.8,12.8,27.5,29.1,32.1,49.4
					c1.4,6,1.5,12.2,0.2,18.2c-2.4,10.7-9.3,17.3-19.3,21c-9.5,3.5-19.4,4.1-29.4,4.2c-1.3,0-2.6-0.2-2.6-1.9c0-1.9,1.5-1.9,2.9-1.8
					c8.1,0.1,16.3-0.4,24.2-2.6c11-3,19.1-9.2,21-21.1c1.3-8.1,0.1-16-2.7-23.6c-5.5-14.9-13.8-27.8-26.7-37.4
					c-6.5-4.8-13.5-5.5-20.8-1.3c-1.7,0.7-2.7,2.4-2.5,4.2c0.1,24.3,0.1,48.7,0.1,73c0,8.7-3.7,12.5-12.4,12.5h-68.7
					C244.1,483.4,242.2,483.9,241.6,481.7z M266.6,323.2h44.9c3.3,0,3.6-0.6,2-3.4c-2-3.6-5-5.9-9.2-6c-2.5-0.1-3.6-0.8-3.5-3.6
					c0.5-6.3-3.4-12.2-9.4-14.1c-6-2.1-12.1,0-16.1,5.4c-1.9,2.6-2.7,2.6-4.2-0.1c-3.3-5.9-10-6.3-14-1c-2,2.6-2.4,2.6-4.4,0
					c-3.9-5.4-10.3-7.1-15.9-4.3c-5.9,2.9-8.3,9.2-6,15.8c0.8,2.4,0.4,3.4-2.3,3.4c-3.7-0.1-7.1,1.8-8.8,5.1c-1.5,2.7-1.3,3,1.7,3
					L266.6,323.2z M340.2,355c-2.1-0.3-2.2,1.2-2.2,2.9l0.4,22.9c0,2-0.6,4.5,0.4,6s3.8,0.8,5.6,1.5c2.2,0.9,3.7,0.2,5.4-1.3
					c3.5-3.3,7.2-6.3,10.7-9.5c5.8-5.1,6.1-3.6-0.1-9.7c-1.1-1.1-1.6-0.8-2.3,0.3c-1.6,2.3-3.3,4.7-5,6.9c-0.8,1-1.6,2.4-3.1,1.3
					s-0.7-2.3,0.1-3.4c2.5-3.5,5-6.9,7.5-10.4c1.1-1.5,1-2.6-0.9-3.2C351.1,357.9,345.7,356.5,340.2,355L340.2,355z M210.8,421
					c2.8-0.1,5.7-0.1,8.5,0.1c3.3,0.4,5.5-1,7.6-3.3c1.1-1.3,1.3-2.2,0.3-3.7c-2.6-3.3-4.9-6.7-6.9-10.4c-2.6-5.1-6.2-7.1-11.8-6.3
					c-1.9,0.3-3.1,0.7-4.1,2.3c-2.6,4.1-5.5,8-8.1,12.1c-3.1,4.8-3.5,3.3,0.8,7.9c0.8,0.9,2,1.4,3.2,1.3
					C203.7,421,207.3,421,210.8,421L210.8,421z"/>
				<path id="Trazado_124152_00000023974492474246011460000008217907280549219722_" class="st1" d="M368.1,447
					c0-3.9-0.7-7.7-2.1-11.4c-0.4-1.4-0.7-2.7,0.9-3.3c1.8-0.7,2.3,0.8,2.7,2.1c2.1,6.3,3.3,12.8,1.7,19.5
					c-2.5,11.1-11.6,15.8-20.4,17.6c-1.1,0.2-2.4,0.2-2.8-1.1c-0.4-1.5,0.6-2.2,2-2.5c1.2-0.3,2.3-0.7,3.5-1
					C363.6,463.8,368.1,457.6,368.1,447z"/>
				<path id="Trazado_124153_00000091017043457916287350000000389634499685738628_" class="st1" d="M293.3,393.9
					c-0.6,14.9-6.1,26.9-17.5,35.8c-4.9,3.9-7.2,3.9-12.2,0c-12.4-9.9-18.3-23-17.3-38.7c1-15.3,6.8-29,16.2-41.1
					c5.7-7.3,8.5-7.4,14.2,0C286.7,362.5,292.5,377.8,293.3,393.9z M267.8,348.8c-1.4,1.6-2.3,2.5-3.1,3.6
					c-7,9.4-11.9,20.2-14.1,31.8c-3,15.4,0.5,29,12.1,40.2c1.5,1.4,3,3,5.2,3.7c0-9.7-0.1-19.1,0-28.6c0.1-1.9-0.6-3.8-2.1-5
					c-4.3-3.9-7.9-8.5-10.7-13.6c-0.6-1.1-1-2.1,0.3-2.9c1.3-0.8,2.1,0,2.7,1.1c0.5,0.8,0.9,1.6,1.4,2.4c2.2,3.7,5,7,8.2,9.8
					L267.8,348.8z M271.4,372.4c2.1-1.6,3.9-3.5,5.4-5.7c0.7-0.9,1.5-1.4,2.6-0.7c0.8,0.5,1,1.6,0.5,2.4c-0.1,0.1-0.1,0.2-0.2,0.3
					c-0.8,1.2-1.5,2.6-2.6,3.3c-6.1,3.6-6.3,9.3-5.7,15.3v19.8c4.3-2.1,8.2-5.1,11.3-8.8c0.8-0.9,1.7-2.4,3.2-1.2s0.5,2.5-0.5,3.6
					c-3.3,3.9-7.3,7.1-11.8,9.5c-0.9,0.5-2.2,0.7-2.2,2.2v16.3c12.2-9.1,18.5-20.6,18.2-35.1c-0.3-15-6.1-28.2-14.6-40.4
					c-0.9-1.5-2.2-2.8-3.6-3.9L271.4,372.4z"/>
				<path id="Trazado_124154_00000003072149758326981070000017604148843230265992_" class="st9" d="M223.5,345.5v-7.6
					c0-1.8,0.6-3.3,2.6-3.4s3.1,1.2,3.3,2.9c0.2,2.3,0.2,4.7,0.2,7c0,2.8,0,5.7,0,8.5c0,2.1-1,3.6-3.3,3.5s-2.7-1.6-2.7-3.6
					C223.5,350.4,223.5,347.9,223.5,345.5z"/>
				<path id="Trazado_124155_00000032648422532842083730000001154407293560050326_" class="st9" d="M229.5,366.1c0.1,1-0.1,2-0.4,3
					c-0.6,1.2-1.7,2.1-2.9,1.9c-3.8-0.8-2.5-4-2.7-6.5c-0.1-2.1,0.9-3.9,3.1-3.6C229.5,361.2,229.5,363.7,229.5,366.1z"/>
				<path id="Trazado_124156_00000165938286725283740430000009495985144302526854_" class="st13" d="M266.6,323.2h-45.2
					c-3,0-3.2-0.3-1.7-3c1.7-3.2,5.1-5.2,8.8-5.1c2.7,0,3.1-1.1,2.3-3.4c-2.3-6.6,0.1-12.8,6-15.8c5.6-2.8,12-1.1,15.9,4.3
					c1.9,2.6,2.4,2.6,4.4,0c4-5.3,10.7-4.8,14,1c1.5,2.7,2.3,2.7,4.2,0.1c4-5.4,10.2-7.5,16.1-5.4c6,2,9.9,7.8,9.4,14.1
					c-0.1,2.8,1,3.5,3.5,3.6c4.2,0.1,7.2,2.4,9.2,6c1.6,2.9,1.2,3.4-2,3.4L266.6,323.2L266.6,323.2z M258.6,307.4
					c-4.4-0.1-8.6,2.1-11.1,5.8c-0.6,0.9-1,1.9,0,2.7c0.7,0.6,1.8,0.6,2.5-0.1c0.1-0.1,0.1-0.2,0.2-0.3c3.7-4.8,8.2-5.9,13.7-3.2
					c0.7,0.5,1.8,0.3,2.3-0.4c0-0.1,0.1-0.1,0.1-0.2c0.5-0.8,0.2-1.9-0.6-2.4c-0.1-0.1-0.2-0.1-0.3-0.1
					C263.3,307.9,260.9,307.3,258.6,307.4L258.6,307.4z M298.9,314.9c-0.1-0.4-0.2-0.8-0.4-1.1c-2-2.5-5.1-3.9-8.3-3.8
					c-3-0.1-5.9,1.1-7.9,3.3c-0.6,0.6-0.5,1.6,0.1,2.1c0,0,0.1,0,0.1,0.1c0.5,0.7,1.5,0.7,2.2,0.2l0,0c3.9-2.9,7.6-2.6,11.3,0.6
					C297.4,317.4,298.4,316.6,298.9,314.9L298.9,314.9z"/>
				<path id="Trazado_124157_00000024687359257918969170000013371948724555731109_" class="st9" d="M340.1,355
					c5.6,1.5,11,2.9,16.4,4.3c2,0.5,2,1.7,0.9,3.2c-2.5,3.5-5,6.9-7.5,10.4c-0.8,1.1-1.6,2.4-0.1,3.4s2.4-0.3,3.1-1.3
					c1.7-2.3,3.4-4.6,5-6.9c0.7-1.1,1.2-1.3,2.3-0.3c6.2,6.1,5.9,4.6,0.1,9.7c-3.6,3.2-7.3,6.2-10.7,9.5c-1.6,1.5-3.1,2.2-5.4,1.3
					c-1.8-0.8-4.6,0-5.6-1.5s-0.3-3.9-0.4-6l-0.4-22.9C337.9,356.2,338.1,354.7,340.1,355z"/>
				<path id="Trazado_124158_00000070816926969505328010000000575261886424302498_" class="st9" d="M210.8,421c-3.6,0-7.1,0-10.7,0
					c-1.2,0.1-2.4-0.4-3.2-1.3c-4.3-4.6-3.9-3-0.8-7.9c2.6-4.1,5.5-8,8.1-12.1c1-1.6,2.2-2.1,4.1-2.3c5.6-0.8,9.2,1.2,11.8,6.3
					c1.9,3.7,4.5,7,6.9,10.4c1,1.4,0.9,2.4-0.3,3.7c-2,2.3-4.2,3.7-7.6,3.3C216.5,420.9,213.7,420.9,210.8,421z"/>
				<path id="Trazado_124159_00000137099308587730632640000008536140961208578466_" class="st7" d="M267.8,348.8v42.3
					c-3.2-2.8-6-6.1-8.2-9.8c-0.5-0.8-0.9-1.6-1.4-2.4c-0.6-1.1-1.5-1.8-2.7-1.1c-1.3,0.7-0.9,1.8-0.3,2.9
					c2.8,5.1,6.4,9.7,10.7,13.6c1.5,1.2,2.2,3.1,2.1,5c-0.1,9.5,0,18.9,0,28.6c-2.3-0.7-3.7-2.2-5.2-3.7
					c-11.5-11.1-15-24.8-12.1-40.2c2.3-11.5,7.1-22.4,14.1-31.8C265.5,351.4,266.4,350.4,267.8,348.8z"/>
				<path id="Trazado_124160_00000036247152643654309340000001795891392502634371_" class="st7" d="M271.4,372.4v-23.1
					c1.5,1,2.7,2.3,3.6,3.9c8.5,12.2,14.3,25.4,14.6,40.4c0.3,14.5-6,26-18.2,35.1v-16.3c0-1.5,1.2-1.7,2.2-2.2
					c4.5-2.4,8.5-5.6,11.8-9.4c1-1.1,2.1-2.3,0.5-3.6s-2.4,0.3-3.2,1.2c-3.1,3.7-7,6.7-11.3,8.8v-19.8c-0.6-6-0.4-11.7,5.7-15.3
					c1.1-0.7,1.8-2.1,2.6-3.3c0.7-0.7,0.7-1.8,0-2.5c-0.1-0.1-0.2-0.1-0.3-0.2c-1.1-0.7-1.9-0.2-2.6,0.7
					C275.3,368.9,273.5,370.8,271.4,372.4z"/>
				<path id="Trazado_124161_00000084522589504390475270000008196664816914163620_" class="st14" d="M258.6,307.4
					c2.3-0.1,4.7,0.5,6.7,1.8c0.9,0.3,1.4,1.3,1,2.2c0,0.1-0.1,0.2-0.1,0.3c-0.4,0.8-1.4,1.1-2.2,0.7c-0.1,0-0.1-0.1-0.2-0.1
					c-5.4-2.7-10-1.6-13.7,3.2c-0.5,0.8-1.6,1.1-2.4,0.6c-0.1-0.1-0.2-0.1-0.3-0.2c-1-0.8-0.6-1.9,0-2.7
					C250,309.5,254.1,307.3,258.6,307.4z"/>
				<path id="Trazado_124162_00000147203824974971945430000003349592421708071084_" class="st14" d="M298.9,314.9
					c-0.5,1.7-1.5,2.4-2.9,1.3c-3.7-3.1-7.3-3.5-11.3-0.6c-0.6,0.6-1.6,0.5-2.2-0.2l0,0c-0.6-0.5-0.7-1.5-0.2-2.1c0,0,0,0,0.1-0.1
					c2-2.2,4.9-3.4,7.9-3.3c3.2-0.1,6.2,1.4,8.3,3.8C298.7,314.2,298.8,314.5,298.9,314.9L298.9,314.9z"/>
			</g>
			<g id="acido-lactico-01_00000171697620290166908900000004152770095817380520_" transform="translate(785.248 3893.867)">
				<path id="Trazado_124164_00000089547099327870984380000000605442436699381382_" class="st7" d="M225.7,250.8
					c-21.2,0.1-39.9,7-55.8,21c-15.6,13.7-25.1,30.8-28,51.4c-3.3,23.3,1.9,44.5,16,63.4c4.2,5.7,9.2,10.8,14.8,15.2
					c0.1,0.1,0.2,0.2,0.3,0.3c1.2,0.9,1.7,2.1,0.7,3.4c-1.1,1.4-2.3,0.8-3.4-0.1c-4.5-3.6-8.6-7.5-12.3-11.9
					c-9.4-10.9-16-23.9-19.1-37.9c-5.3-24.1-1.6-46.8,11.7-67.6c12.7-20,30.7-32.9,53.6-38.8c8.1-2.1,16.4-3,24.7-2.6
					c20.2,1,38.3,7.7,53.8,20.7c14.6,12.1,24.9,28.5,29.4,46.9c2.1,8.1,3,16.4,2.6,24.7c-1,20-7.5,37.9-20.3,53.3
					c-2,2.4-4.2,4.7-6.3,7c-0.3,0.4-0.7,0.7-1,1c-1.1,0.8-2.3,1.2-3.3,0s-0.5-2.2,0.4-3.1c2.2-2.2,4.4-4.4,6.4-6.8
					c10.2-11.9,16.8-26.4,19-41.9c3-21.1-0.9-40.8-12.5-58.8c-13.2-20.3-31.9-32.8-55.7-37.6C236.3,251.1,231,250.7,225.7,250.8
					L225.7,250.8z"/>
				<path id="Trazado_124165_00000125592168304107485710000013277346020013221566_" class="st1" d="M273.3,348.4
					c0.2,1-0.3,2-1.3,2.4c-0.9,0.3-1.9,0-2.3-0.8c-0.2-0.3-0.4-0.7-0.6-1.1c-9.2-23.8-21-46.3-33.3-68.6c-3-5.4-6.1-10.8-9.1-16.2
					c-0.8-1.4-1.1-1.4-1.9,0c-12.7,22.2-24.9,44.7-35.4,68c-0.7,1.5-1.2,3.3-3.4,2.6c-1.5-0.5-1.5-1.8-0.3-4.4
					c11.2-24.9,24.3-48.8,38-72.3c1.4-2.4,3-2.4,4.4,0.1c15.4,26.7,30.2,53.7,42.1,82.1c1,2.3,1.9,4.7,2.8,7.1
					C273.1,347.7,273.2,348,273.3,348.4z"/>
				<path id="Trazado_124166_00000032639877134556984140000003631392841935856259_" class="st1" d="M229.1,427.3
					c-30-0.1-52.7-19.7-56.5-46c-0.7-4-0.7-8.1-0.2-12.1c0.2-1.5,0.4-3.1,2.4-2.9c2.2,0.2,1.9,1.9,1.8,3.5
					c-1.4,15.3,3.6,28.5,14.4,39c14.3,13.9,31.6,18,50.5,11.8c18.2-6,29-19.1,33-37.9c0.1-0.3,0.1-0.7,0.2-1
					c0.3-1.3,1.2-2.1,2.6-1.8c1.1,0.2,1.8,1.2,1.6,2.3c0,0.1,0,0.2-0.1,0.2c-0.6,4.5-1.9,8.9-3.9,13
					C264.9,416,248.3,426.3,229.1,427.3z"/>
				<path id="Trazado_124167_00000036213712435583788920000011660154510756416155_" class="st15" d="M232.4,339.7
					c0-1.3-0.1-2.6,0-3.9c0.4-3.2-0.6-6.3-2.8-8.7c-4.4-5-3.3-12.9,1.8-17.1s13-3.8,17.4,1c4.7,5.2,4.6,12.6-0.3,17.4
					c-1.2,1-1.8,2.6-1.7,4.1c0.1,2.4,0,4.8,0,7.2l-4.1-1.9v-4.5c0-1-0.1-1.6-1.4-1.2c-1.1,0.3-2.3,0.3-3.4,0
					c-1.2-0.4-1.4,0.2-1.4,1.2c0,1.5,0,3,0,4.5C235,338.3,233.6,338.9,232.4,339.7L232.4,339.7z M231.1,319.8c0,4.7,3.8,8.4,8.5,8.4
					s8.4-3.8,8.4-8.5s-3.8-8.4-8.5-8.4c-4.6-0.1-8.3,3.5-8.4,8.1C231.1,319.5,231.1,319.6,231.1,319.8z"/>
				<path id="Trazado_124168_00000008136656799401644230000016932714400433517184_" class="st15" d="M251.3,355
					c1.6,1,3.2,1.9,4.7,2.9c0.7,0.6,1.8,0.6,2.4-0.1c0,0,0,0,0.1-0.1c4.9-4,10.9-4.4,15.6-1.1c5.7,4,7.2,11.9,3.2,17.6
					c-2.5,3.5-6.5,5.6-10.8,5.4c-5.5-0.3-10.2-4.1-11.7-9.5c-0.6-2.2-0.6-4.5,0.1-6.7c0.4-0.7,0.1-1.6-0.6-1.9c0,0-0.1,0-0.1-0.1
					c-1.6-1.1-3.4-2.1-5.2-3L251.3,355z M275.4,367.2c0.2-4.5-3.3-8.3-7.8-8.5c-0.1,0-0.2,0-0.3,0c-4.7-0.1-8.6,3.6-8.8,8.4v0.1
					c0.2,4.6,3.9,8.2,8.5,8.4C271.6,375.6,275.3,371.8,275.4,367.2L275.4,367.2z"/>
				<path id="Trazado_124169_00000167392756948476308900000016004042144724797602_" class="st15" d="M198.9,362.9
					c-1-0.5-2-1.1-3-1.8c-1.4-1.2-2.4-1-3.9,0.1c-5.5,4.2-13.3,3.2-17.5-2.3c-0.1-0.2-0.2-0.3-0.3-0.5c-2.9-4.2-3-9.7-0.4-14
					c2.6-4.1,7.7-6.6,12.2-5.9c5.2,0.7,9.4,4.5,10.8,9.5c0.6,2.1,0.5,4.4-0.1,6.5c-0.5,1-0.1,2.1,0.9,2.6c0,0,0.1,0,0.1,0.1
					c1.2,0.7,2.2,1.6,3.4,2.4C200.4,360.8,199.6,361.9,198.9,362.9z M176.2,351.1c-0.1,4.5,3.4,8.3,7.9,8.5c0.1,0,0.2,0,0.3,0
					c4.7,0.1,8.6-3.7,8.7-8.4c0.1-4.4-4-8.6-8.6-8.6C179.9,342.8,176.2,346.5,176.2,351.1z"/>
				<path id="Trazado_124170_00000021092647292248818880000011224572513077091215_" class="st7" d="M198.9,362.9
					c0.7-1.1,1.4-2.2,2.1-3.3c3.4-3,7.2-4.8,11.8-3.9c2.7,0.6,5.2,1.9,7.1,3.9l2.4,3.6c1.9,6.1,0.6,11.3-4.5,15.3l-4.4,2h-5.8
					l-4-1.8C198.2,374.7,196.8,369.3,198.9,362.9z M210.5,359.8c-4.6,0.1-8.3,4-8.1,8.7c0.1,4.6,4,8.3,8.7,8.1
					c4.6-0.1,8.3-4,8.1-8.7c0-1.4-0.5-2.8-1.2-4C216.4,361.3,213.6,359.7,210.5,359.8z"/>
				<path id="Trazado_124171_00000098923792677035088820000011310966737976145853_" class="st7" d="M217.8,389.7
					c8.4,6.3,6.5,17.7-1.6,21.7c-6.2,3.1-13.8,0.5-16.9-5.7c-2.4-4.9-1.4-10.7,2.5-14.5c0.6-0.6,1.2-1.1,1.8-1.7l4-1.8
					c1.9-0.2,3.8-0.2,5.8,0C214.9,388.2,216.4,388.9,217.8,389.7L217.8,389.7z M202.2,400.2c0,4.7,3.8,8.5,8.6,8.5l0,0
					c4.6-0.2,8.3-3.9,8.4-8.5c-0.1-4.7-3.9-8.5-8.6-8.4l0,0c-4.6,0-8.3,3.7-8.3,8.2C202.2,400,202.2,400.1,202.2,400.2L202.2,400.2z
					"/>
				<path id="Trazado_124172_00000015351915974130168330000013113503895887631026_" class="st1" d="M251.3,355l-2.4,3.6
					c-6.1,5.6-12.3,5.6-18.9-0.1l-2.2-3.3c-0.6-2.5-1.2-5.1-0.6-7.7c0.7-3.2,2.6-6,5.2-7.9c1.3-0.8,2.7-1.4,4.2-1.9
					c2-0.3,4.1-0.3,6.2,0l4.1,1.9C251.8,343.8,253.3,348.9,251.3,355z M231.1,350.2c0,4.6,3.8,8.4,8.4,8.4c4.7-0.1,8.5-3.9,8.5-8.6
					s-3.8-8.4-8.5-8.4c-0.1,0-0.1,0-0.2,0c-4.6,0-8.3,3.8-8.3,8.4C231.1,350.2,231.1,350.2,231.1,350.2L231.1,350.2z"/>
				<path id="Trazado_124173_00000091737273854375475840000013740245049820957366_" class="st15" d="M217.8,389.7
					c-1.4-0.8-2.9-1.5-4.4-2v-7.1l4.4-2V389.7z"/>
				<path id="Trazado_124174_00000071553929013378621100000009451792653111814315_" class="st15" d="M227.8,355.3l2.2,3.3l-7.6,4.7
					l-2.3-3.6C222.7,358.6,224.9,356.4,227.8,355.3z"/>
				<path id="Trazado_124175_00000022554486517591116420000009656016082025983408_" class="st15" d="M207.6,387.7l-4,1.8v-10.6
					l4,1.8C207.6,383,207.6,385.4,207.6,387.7z"/>
				<path id="Trazado_124176_00000021808013176461739480000006466031179369349515_" class="st9" d="M231.1,319.8
					c-0.1-4.6,3.4-8.4,8-8.5c0.1,0,0.3,0,0.4,0c4.7,0,8.5,3.7,8.5,8.4s-3.7,8.5-8.4,8.5C235,328.2,231.1,324.4,231.1,319.8z"/>
				<path id="Trazado_124177_00000072966427579980041370000002452505472852269756_" class="st9" d="M242.7,337.8
					c-2-0.3-4.1-0.3-6.2,0c0-1.5,0-3,0-4.5c0-1,0.2-1.6,1.4-1.2c1.1,0.3,2.3,0.3,3.4,0c1.2-0.4,1.4,0.2,1.4,1.2
					C242.6,334.8,242.7,336.3,242.7,337.8z"/>
				<path id="Trazado_124178_00000163060031939922074080000000869885097737511343_" class="st9" d="M275.4,367.2
					c-0.1,4.6-3.8,8.3-8.4,8.4c-4.6-0.2-8.3-3.8-8.5-8.4c0-4.7,3.9-8.5,8.6-8.5h0.1c4.5,0,8.2,3.7,8.2,8.2
					C275.4,367,275.4,367.1,275.4,367.2z"/>
				<path id="Trazado_124179_00000115498661771007731490000016433270111014414773_" class="st9" d="M176.2,351.1
					c0-4.6,3.7-8.3,8.3-8.5c4.5,0,8.7,4.1,8.6,8.6c-0.1,4.7-4,8.4-8.7,8.4c-4.5,0-8.2-3.6-8.2-8.1
					C176.2,351.4,176.2,351.3,176.2,351.1z"/>
				<path id="Trazado_124180_00000116957291997000602770000015758871841211745972_" class="st1" d="M210.5,359.8
					c4.6,0.1,8.3,3.9,8.3,8.5c-0.1,4.6-3.9,8.3-8.5,8.3c-4.6-0.1-8.3-3.9-8.3-8.5c0-1.4,0.4-2.8,1.1-4.1
					C204.6,361.4,207.5,359.8,210.5,359.8z"/>
				<path id="Trazado_124181_00000051379819590188739990000016931442803674938282_" class="st9" d="M207.6,387.7v-7.1h5.8v7.1
					C211.5,387.6,209.5,387.6,207.6,387.7L207.6,387.7z"/>
				<path id="Trazado_124182_00000099624706274988066370000016886339220119494321_" class="st1" d="M202.2,400.2
					c-0.1-4.6,3.5-8.3,8.1-8.4c0.1,0,0.1,0,0.2,0c4.7-0.1,8.6,3.7,8.6,8.4c-0.1,4.6-3.8,8.4-8.4,8.5
					C206,408.7,202.2,404.9,202.2,400.2z"/>
				<path id="Trazado_124183_00000004514304358653438410000001382610313290343062_" class="st9" d="M231.1,350.2
					c-0.1-4.6,3.6-8.4,8.2-8.5h0.1c4.7-0.1,8.5,3.5,8.7,8.2v0.1c0,4.7-3.8,8.5-8.5,8.6C234.9,358.6,231.2,354.9,231.1,350.2z"/>
			</g>
			<text transform="matrix(1 0 0 1 467.179 4063.688)" class="st2 st3 st4">Suelo</text>
			<path id="Trazado_124187_00000010293513351246192640000006759392698187083435_" class="st5" d="M394.8,3948.5
				c0-0.4-0.1-0.7-0.1-1.1c0-19.7,0-39.3-0.1-59c-0.1-1,0.5-2,1.5-2.3c25.4-14.7,50.9-29.3,76.3-44c0.8-0.3,1.5-0.8,2-1.4h0.7
				c0.4,0.7,1.2,0.9,1.9,1.3c25.3,14.6,50.6,29.3,75.9,43.9c0.6,0.3,1.6,0.4,1.6,1.5c-0.3,0.1-0.6,0.2-0.8,0.3
				c-11.1,6.4-22.1,12.7-33.2,19.2c-14.8,8.5-29.5,17-44.3,25.5c-1,0.5-1.5,1.5-1.4,2.6c0,19.2,0,38.4-0.1,57.6v1.6h-0.4v-1.8
				c0-8.9,0-17.8,0-26.7c0-1.2-0.2-1.9-1.5-2.1c-7-1.3-14.1-2.7-21.1-4c-10.9-2.1-21.8-4.2-32.7-6.2
				C411,3951.6,402.9,3950,394.8,3948.5z"/>
			<path id="Trazado_124188_00000042705946986477861980000014135772161321138583_" class="st1" d="M394.8,3959.5
				c8.1,1.6,16.2,3.1,24.3,4.7c10.9,2.1,21.8,4.2,32.7,6.2c7,1.3,14.1,2.7,21.1,4c1.3,0.2,1.5,0.9,1.5,2.1c-0.1,8.9,0,17.8,0,26.7
				v1.8h0.4v-1.6c0-19.2,0.1-38.3,0.1-57.5c-0.1-1.1,0.5-2.1,1.4-2.6c14.8-8.5,29.5-17,44.2-25.5c11.1-6.4,22.1-12.8,33.2-19.2
				c0.3-0.1,0.5-0.2,0.8-0.3c0,10.7,0,21.4,0.1,32c0,19.3,0,38.7,0.1,58c0.1,1.1-0.5,2.2-1.6,2.7c-25.6,14.8-51.2,29.6-76.7,44.5
				c-1,0.7-2.3,0.6-3.3-0.1c-25.7-14.9-51.4-29.8-77.1-44.6c-0.7-0.4-1.3-0.8-1.3-1.9c0.1-9.6,0-19.2,0-28.8
				C394.7,3960,394.8,3959.7,394.8,3959.5L394.8,3959.5z"/>
			<g id="Grupo_1084196" transform="translate(1)">
				<path id="Trazado_717120" class="st13" d="M486.6,4047.4c-10.7,0-19.5-8.7-19.5-19.4v-0.1c0-10.7,8.7-19.5,19.4-19.5h0.1
					c10.7,0,19.5,8.7,19.5,19.4v0.1C506.1,4038.6,497.3,4047.4,486.6,4047.4z"/>
				<text transform="matrix(1 0 0 1 481.388 4034.293)" class="st16 st17 st18">+</text>
			</g>
			<g id="Grupo_1084197" transform="translate(209)">
				<path id="Trazado_717120-2" class="st13" d="M486.6,4047.4c-10.7,0-19.5-8.7-19.5-19.4v-0.1c0-10.7,8.7-19.5,19.4-19.5h0.1
					c10.7,0,19.5,8.7,19.5,19.4v0.1C506.1,4038.6,497.3,4047.4,486.6,4047.4z"/>
				<text transform="matrix(1 0 0 1 481.388 4034.293)" class="st16 st17 st18">+</text>
			</g>
			<g id="Grupo_1084198" transform="translate(419)">
				<path id="Trazado_717120-3" class="st13" d="M486.6,4047.4c-10.7,0-19.5-8.7-19.5-19.4v-0.1c0-10.7,8.7-19.5,19.4-19.5h0.1
					c10.7,0,19.5,8.7,19.5,19.4v0.1C506.1,4038.6,497.3,4047.4,486.6,4047.4z"/>
				<text transform="matrix(1 0 0 1 481.388 4034.293)" class="st16 st17 st18">+</text>
			</g>
			<g id="Grupo_1084199" transform="translate(628)">
				<path id="Trazado_717120-4" class="st13" d="M486.6,4047.4c-10.7,0-19.5-8.7-19.5-19.4v-0.1c0-10.7,8.7-19.5,19.4-19.5h0.1
					c10.7,0,19.5,8.7,19.5,19.4v0.1C506.1,4038.6,497.3,4047.4,486.6,4047.4z"/>
				<text transform="matrix(1 0 0 1 481.388 4034.293)" class="st16 st17 st18">+</text>
			</g>
			<g id="Grupo_1084200" transform="translate(103 286)">
				<path id="Trazado_717120-5" class="st13" d="M486.6,4047.4c-10.7,0-19.5-8.7-19.5-19.4v-0.1c0-10.7,8.7-19.5,19.4-19.5h0.1
					c10.7,0,19.5,8.7,19.5,19.4v0.1C506.1,4038.6,497.3,4047.4,486.6,4047.4z"/>
				<text transform="matrix(1 0 0 1 481.388 4034.293)" class="st16 st17 st18">+</text>
			</g>
			<g id="Grupo_1084201" transform="translate(313 286)">
				<path id="Trazado_717120-6" class="st13" d="M486.6,4047.4c-10.7,0-19.5-8.7-19.5-19.4v-0.1c0-10.7,8.7-19.5,19.4-19.5h0.1
					c10.7,0,19.5,8.7,19.5,19.4v0.1C506.1,4038.6,497.3,4047.4,486.6,4047.4z"/>
				<text transform="matrix(1 0 0 1 481.388 4034.293)" class="st16 st17 st18">+</text>
			</g>
			<g id="Grupo_1084202_00000140734669579564426260000004536431129597176468_" transform="translate(523 286)">
				<path id="Trazado_717120-7" class="st13" d="M486.6,4047.4c-10.7,0-19.5-8.7-19.5-19.4v-0.1c0-10.7,8.7-19.5,19.4-19.5h0.1
					c10.7,0,19.5,8.7,19.5,19.4v0.1C506.1,4038.6,497.3,4047.4,486.6,4047.4z"/>
				<text transform="matrix(1 0 0 1 481.388 4034.293)" class="st16 st17 st18">+</text>
			</g>
		</g>
	</g>
</g>
</svg>
