<svg xmlns="http://www.w3.org/2000/svg" xmlns:xlink="http://www.w3.org/1999/xlink" width="81" height="81" viewBox="0 0 81 81">
  <defs>
    <clipPath id="clip-path">
      <rect id="Rectángulo_34564" data-name="Rectángulo 34564" width="81" height="81" fill="#ffd947" stroke="#707070" stroke-width="1"/>
    </clipPath>
  </defs>
  <g id="Enmascarar_grupo_108" data-name="Enmascarar grupo 108" clip-path="url(#clip-path)">
    <g id="documentos" transform="translate(4.825)">
      <g id="Grupo_86544" data-name="Grupo 86544" transform="translate(1.187 1.187)">
        <path id="Trazado_123894" data-name="Trazado 123894" d="M26.578,14.634H74.2a.791.791,0,0,1,.791.791v63.6a.791.791,0,0,1-.791.791H26.578a.791.791,0,0,1-.791-.791v-63.6A.791.791,0,0,1,26.578,14.634Z" transform="translate(-6.012 -1.187)" fill="#f5f5f5"/>
        <path id="Trazado_123895" data-name="Trazado 123895" d="M71.429,14.634V75.463a.791.791,0,0,1-.791.791H25.787V15.425a.791.791,0,0,1,.791-.791Z" transform="translate(-6.012 -1.187)" fill="#e6e6e6"/>
        <path id="Trazado_123896" data-name="Trazado 123896" d="M67.474,7.91H19.854a.791.791,0,0,0-.791.791V72.3a.791.791,0,0,0,.791.791H67.474a.791.791,0,0,0,.791-.791V8.7A.791.791,0,0,0,67.474,7.91Z" transform="translate(-6.012 -1.187)" fill="#f5f5f5"/>
        <path id="Trazado_123897" data-name="Trazado 123897" d="M64.705,7.91V68.739a.791.791,0,0,1-.791.791H19.063V8.7a.791.791,0,0,1,.791-.791Z" transform="translate(-6.012 -1.187)" fill="#e6e6e6"/>
        <path id="Trazado_123898" data-name="Trazado 123898" d="M61.541,1.978v63.6a.791.791,0,0,1-.791.791H13.922a7.911,7.911,0,0,1-7.91-7.91V56.4a.791.791,0,0,1,.791-.791h4.746a.153.153,0,0,0,.027,0,.79.79,0,0,0,.764-.789V1.978a.791.791,0,0,1,.791-.791H60.75A.791.791,0,0,1,61.541,1.978Z" transform="translate(-6.012 -1.187)" fill="#f5f5f5"/>
        <path id="Trazado_123899" data-name="Trazado 123899" d="M32.273,24.126H18.668a.791.791,0,0,1-.791-.791V9.729a.791.791,0,0,1,.791-.791H32.273a.791.791,0,0,1,.791.791V23.335A.791.791,0,0,1,32.273,24.126Z" transform="translate(-6.012 -1.187)" fill="#faa515"/>
        <g id="Grupo_86543" data-name="Grupo 86543" transform="translate(0 8.622)">
          <path id="Trazado_123900" data-name="Trazado 123900" d="M56,23.256H38.6a1.187,1.187,0,0,1,0-2.373H56a1.187,1.187,0,0,1,0,2.373Z" transform="translate(-6.012 -9.809)" fill="#2b597f"/>
          <path id="Trazado_123901" data-name="Trazado 123901" d="M45.721,34.014H28.16a1.187,1.187,0,0,1,0-2.373H45.721a1.187,1.187,0,0,1,0,2.373Z" transform="translate(-6.012 -9.809)" fill="#2b597f"/>
          <path id="Trazado_123902" data-name="Trazado 123902" d="M56,17.719H38.6a1.187,1.187,0,0,1,0-2.373H56a1.187,1.187,0,0,1,0,2.373Z" transform="translate(-6.012 -9.809)" fill="#2b597f"/>
          <path id="Trazado_123903" data-name="Trazado 123903" d="M56,12.182H38.6a1.187,1.187,0,0,1,0-2.373H56a1.187,1.187,0,0,1,0,2.373Z" transform="translate(-6.012 -9.809)" fill="#2b597f"/>
          <path id="Trazado_123904" data-name="Trazado 123904" d="M56,48.094H17.877a1.187,1.187,0,0,1,0-2.373H56a1.187,1.187,0,0,1,0,2.373Z" transform="translate(-6.012 -9.809)" fill="#2b597f"/>
          <path id="Trazado_123905" data-name="Trazado 123905" d="M56,40.975H35.279a1.187,1.187,0,0,1,0-2.373H56a1.187,1.187,0,0,1,0,2.373Z" transform="translate(-6.012 -9.809)" fill="#2b597f"/>
          <path id="Trazado_123906" data-name="Trazado 123906" d="M29.742,40.975H17.8a1.187,1.187,0,0,1,0-2.373H29.742a1.187,1.187,0,0,1,0,2.373Z" transform="translate(-6.012 -9.809)" fill="#2b597f"/>
          <path id="Trazado_123907" data-name="Trazado 123907" d="M53.754,66.366H13.922a7.91,7.91,0,0,1-7.91-7.91V56.4a.791.791,0,0,1,.791-.791h4.746a.153.153,0,0,0,.027,0H45.132a.791.791,0,0,1,.791.791v2.058A7.911,7.911,0,0,0,53.754,66.366Z" transform="translate(-6.012 -9.809)" fill="#2b597f"/>
        </g>
      </g>
      <g id="Grupo_86545" data-name="Grupo 86545">
        <path id="Trazado_123908" data-name="Trazado 123908" d="M74.988,13.447H69.451V7.91a1.186,1.186,0,0,0-1.187-1.187H62.728V1.187A1.186,1.186,0,0,0,61.541,0H12.34a1.186,1.186,0,0,0-1.187,1.187V54.422H6.012a1.186,1.186,0,0,0-1.187,1.187v2.848a9.107,9.107,0,0,0,9.1,9.1h3.955V73.09a1.186,1.186,0,0,0,1.187,1.187H24.6v5.537A1.186,1.186,0,0,0,25.787,81H49.6a1.187,1.187,0,0,0,0-2.373H26.974V74.276H68.265a1.186,1.186,0,0,0,1.187-1.187V54.422a1.187,1.187,0,0,0-2.373,0V71.9H20.25V67.553H61.541a1.186,1.186,0,0,0,1.187-1.187V9.1h4.351V49.043a1.187,1.187,0,0,0,2.373,0V15.82H73.8V78.627H54.976a1.187,1.187,0,0,0,0,2.373H74.988a1.186,1.186,0,0,0,1.187-1.187V14.634A1.186,1.186,0,0,0,74.988,13.447ZM60.354,65.18H53.789a6.731,6.731,0,0,1-6.724-6.724V55.608a1.186,1.186,0,0,0-1.187-1.187H37.652a1.187,1.187,0,0,0,0,2.373h7.04v1.661a9.075,9.075,0,0,0,2.976,6.724H13.922A6.731,6.731,0,0,1,7.2,58.456V56.795H32.115a1.187,1.187,0,0,0,0-2.373H13.526V2.373H60.354Z" transform="translate(-4.825)"/>
        <path id="Trazado_123909" data-name="Trazado 123909" d="M17.877,25.313H33.064a1.186,1.186,0,0,0,1.187-1.187V8.938a1.186,1.186,0,0,0-1.187-1.187H17.877A1.186,1.186,0,0,0,16.69,8.938V24.126A1.186,1.186,0,0,0,17.877,25.313Zm1.187-15.187H31.878V22.939H19.063Z" transform="translate(-4.825)"/>
        <path id="Trazado_123910" data-name="Trazado 123910" d="M56,20.883H38.6a1.187,1.187,0,0,0,0,2.373H56a1.187,1.187,0,0,0,0-2.373Z" transform="translate(-4.825)"/>
        <path id="Trazado_123911" data-name="Trazado 123911" d="M26.974,32.827a1.186,1.186,0,0,0,1.187,1.187H45.721a1.187,1.187,0,0,0,0-2.373H28.16A1.186,1.186,0,0,0,26.974,32.827Z" transform="translate(-4.825)"/>
        <path id="Trazado_123912" data-name="Trazado 123912" d="M56,15.346H38.6a1.187,1.187,0,0,0,0,2.373H56a1.187,1.187,0,0,0,0-2.373Z" transform="translate(-4.825)"/>
        <path id="Trazado_123913" data-name="Trazado 123913" d="M56,9.809H38.6a1.187,1.187,0,0,0,0,2.373H56a1.187,1.187,0,0,0,0-2.373Z" transform="translate(-4.825)"/>
        <path id="Trazado_123914" data-name="Trazado 123914" d="M56,45.721H17.877a1.187,1.187,0,0,0,0,2.373H56a1.187,1.187,0,0,0,0-2.373Z" transform="translate(-4.825)"/>
        <path id="Trazado_123915" data-name="Trazado 123915" d="M56,38.6H35.279a1.187,1.187,0,0,0,0,2.373H56A1.187,1.187,0,0,0,56,38.6Z" transform="translate(-4.825)"/>
        <path id="Trazado_123916" data-name="Trazado 123916" d="M17.8,40.975H29.742a1.187,1.187,0,0,0,0-2.373H17.8a1.187,1.187,0,0,0,0,2.373Z" transform="translate(-4.825)"/>
      </g>
    </g>
  </g>
</svg>
