<svg xmlns="http://www.w3.org/2000/svg" xmlns:xlink="http://www.w3.org/1999/xlink" width="1320" height="506.835" viewBox="0 0 1320 506.835">
  <defs>
    <clipPath id="clip-path">
      <path id="Rectangle_652" data-name="Rectangle 652" d="M20.787,0H1299.213C1310.693,0,1320,8.4,1320,18.772V488.063c0,10.367-9.307,18.772-20.787,18.772H20.787C9.307,506.835,0,498.431,0,488.063V18.772C0,8.4,9.307,0,20.787,0Z" fill="none"/>
    </clipPath>
    <clipPath id="clip-path-2">
      <path id="Rectangle_652-2" data-name="Rectangle 652" d="M1299.213,0H20.787C9.307,0,0,8.4,0,18.772V488.063c0,10.367,9.307,18.772,20.787,18.772H1299.213c11.48,0,20.787-8.4,20.787-18.772V18.772C1320,8.4,1310.693,0,1299.213,0Z" transform="translate(144.333 70)" fill="#0b481e"/>
    </clipPath>
  </defs>
  <g id="Grupo_1099229" data-name="Grupo 1099229" transform="translate(-140 -70)">
    <g id="Grupo_906996" data-name="Grupo 906996" transform="translate(12864 12500)">
      <path id="Rectangle_652-4" data-name="Rectangle 652" d="M1299.213,0H20.787C9.307,0,0,8.4,0,18.772V488.063c0,10.367,9.307,18.772,20.787,18.772H1299.213c11.48,0,20.787-8.4,20.787-18.772V18.772C1320,8.4,1310.693,0,1299.213,0Z" transform="translate(-12724 -12430)" fill="#0b481e"/>
      <g id="Enmascarar_grupo_45" data-name="Enmascarar grupo 45" transform="translate(-12724 -12430)" clip-path="url(#clip-path)">
        <g id="Grupo_78299" data-name="Grupo 78299" transform="translate(1421.653 781.694) rotate(172)">
          <path id="Trazado_113496" data-name="Trazado 113496" d="M15.112,287.169c17.715-34.451,50.7-57.088,87.588-67.784,43.738-12.681,85.825-5.919,129.709.813,40.461,6.207,85.463,7.935,119.6-18.36C405,161.024,410.063,81.949,458.584,36.2A134.3,134.3,0,0,1,548.268.007c36.475-.4,82.632,15.474,101.287,49.129,18.115,32.679-.244,65.218,6.189,98.672,12.579,65.429,102.933,61.541,146.589,94.017,20.86,15.517,34.9,38.67,44.515,62.826,10.673,26.809,16.485,56.674,9.26,84.61-11.968,46.276-56.921,63.6-100.7,65.259-32.532,1.236-64.873-7.137-94.75-20.072-26.422-11.439-51.276-26.448-78.3-36.385-66.737-24.537-132.48,6.775-190.061,40.442-73.916,43.219-150.258,84.883-238.634,70.014C86.133,497.157,16.048,455.615,2.8,383.4c-5.607-30.549-3.008-62.948,9.88-91.206Q13.839,289.642,15.112,287.169Z" transform="translate(597.339 534.145)" fill="#fff" opacity="0.132" style="mix-blend-mode: overlay;isolation: isolate"/>
          <path id="Trazado_113497" data-name="Trazado 113497" d="M15.112,287.169c17.715-34.451,50.7-57.088,87.588-67.784,43.738-12.681,85.825-5.919,129.709.813,40.461,6.207,85.463,7.935,119.6-18.36C405,161.024,410.063,81.949,458.584,36.2A134.3,134.3,0,0,1,548.268.007c36.475-.4,82.632,15.474,101.287,49.127,18.114,32.68-.244,65.219,6.189,98.676,6.347,33.006,36.346,50.719,65.8,61.073,23.3,8.193,47.923,13.476,69.253,25.93,36.453,21.285,58.916,61.769,65.874,103.4,4.179,25,2.986,52.073-10.213,73.713-16.245,26.633-48.234,40.456-79.362,42.524-35.128,2.333-74.219-6.057-106.434-20.005-26.423-11.439-51.276-26.448-78.3-36.385-66.738-24.537-132.48,6.775-190.062,40.442-73.916,43.219-150.258,84.882-238.634,70.014C86.133,497.157,16.048,455.615,2.8,383.4c-5.607-30.549-3.008-62.947,9.88-91.206Q13.839,289.642,15.112,287.169Z" transform="translate(125.154 0)" fill="#fff" opacity="0.11" style="mix-blend-mode: overlay;isolation: isolate"/>
          <path id="Trazado_113498" data-name="Trazado 113498" d="M15.111,287.169c17.715-34.453,50.7-57.088,87.588-67.785,43.738-12.681,85.825-5.917,129.709.815,40.462,6.207,85.463,7.935,119.6-18.361C405,161.022,410.063,81.949,458.583,36.195A134.313,134.313,0,0,1,548.268.007c36.474-.4,82.632,15.474,101.287,49.128,18.113,32.68-.244,65.219,6.188,98.674,12.581,65.428,102.934,61.539,146.59,94.017,20.86,15.517,34.9,38.67,44.514,62.826,10.673,26.808,16.486,56.673,9.261,84.61-11.968,46.276-56.921,63.6-100.7,65.259-32.533,1.236-64.873-7.137-94.75-20.072-26.422-11.44-51.276-26.449-78.3-36.385-66.738-24.539-132.48,6.775-190.061,40.442-73.918,43.218-150.259,84.883-238.634,70.013C86.133,497.157,16.049,455.615,2.794,383.4c-5.606-30.548-3.007-62.946,9.88-91.2Q13.84,289.642,15.111,287.169Z" transform="translate(77.891 12.415)" fill="#0b481e" opacity="0.22" style="mix-blend-mode: overlay;isolation: isolate"/>
          <path id="Trazado_113499" data-name="Trazado 113499" d="M15.112,287.169c17.715-34.453,50.7-57.089,87.588-67.785,43.738-12.681,85.825-5.917,129.709.813,40.462,6.207,85.463,7.935,119.6-18.36C405,161.023,410.064,81.949,458.584,36.195A134.306,134.306,0,0,1,548.268.007c36.475-.4,82.633,15.473,101.287,49.128,18.115,32.679-.243,65.219,6.189,98.672,12.581,65.429,102.934,61.541,146.591,94.017,20.859,15.518,34.9,38.672,44.514,62.826,10.673,26.809,16.486,56.674,9.26,84.61-11.967,46.276-56.921,63.6-100.7,65.261-32.532,1.236-64.873-7.137-94.749-20.072-26.423-11.44-51.276-26.449-78.3-36.386-66.738-24.537-132.48,6.775-190.061,40.442-73.917,43.219-150.259,84.882-238.635,70.014C86.133,497.156,16.049,455.615,2.8,383.4c-5.607-30.549-3.007-62.946,9.88-91.206Q13.841,289.641,15.112,287.169Z" transform="translate(564.713 766.841)" fill="#fff" opacity="0.17" style="mix-blend-mode: overlay;isolation: isolate"/>
          <path id="Trazado_113500" data-name="Trazado 113500" d="M632.125,127.541c-3.382,29.741-20.932,54.914-44.53,72.432-27.977,20.768-60.041,26.955-93.386,33.637-30.745,6.161-63.537,16.779-80.927,44.921-26.994,43.68-9.185,102.547-31.628,148.641a101.5,101.5,0,0,1-54.6,50c-26.09,9.918-63.548,10.548-86.073-9.015-21.874-19-17.512-47.516-31.2-70.159-26.779-44.284-90.623-17.612-130.787-29.721-19.192-5.785-35.553-18.927-49.011-33.962C15.04,317.622,2.765,297.427.379,275.194c-3.952-36.827,23.638-61.292,54.633-74.055,23.031-9.484,48.532-11.927,73.5-10.4,22.081,1.35,44,5.713,66.108,5.811,54.59.241,93.319-39.89,125.547-79.58C361.536,66.018,405.07,15.559,472.58,3.055,524.167-6.5,585.771,5.23,614.875,54.275c12.311,20.747,19.231,45.005,17.637,68.967Q632.368,125.406,632.125,127.541Z" transform="translate(0 507.532)" fill="#0b481e" opacity="0.15" style="mix-blend-mode: color-burn;isolation: isolate"/>
          <circle id="Elipse_4692" data-name="Elipse 4692" cx="24.819" cy="24.819" r="24.819" transform="translate(583.612 746.202)" fill="#524480" opacity="0.23" style="mix-blend-mode: color-dodge;isolation: isolate"/>
          <ellipse id="Elipse_4693" data-name="Elipse 4693" cx="12.41" cy="12.41" rx="12.41" ry="12.41" transform="translate(568.854 828.418) rotate(99.217)" fill="#fff" opacity="0.17" style="mix-blend-mode: overlay;isolation: isolate"/>
          <ellipse id="Elipse_4694" data-name="Elipse 4694" cx="12.41" cy="12.41" rx="12.41" ry="12.41" transform="translate(579.813 484.305) rotate(100.476)" fill="#fff" opacity="0.17" style="mix-blend-mode: overlay;isolation: isolate"/>
          <circle id="Elipse_4695" data-name="Elipse 4695" cx="24.819" cy="24.819" r="24.819" transform="translate(582.531 416.117)" fill="#fff" opacity="0.17" style="mix-blend-mode: overlay;isolation: isolate"/>
          <path id="Trazado_113525" data-name="Trazado 113525" d="M62.631,0A62.631,62.631,0,1,1,0,62.631,62.631,62.631,0,0,1,62.631,0Z" transform="translate(1197.28 574.039) rotate(97.033)" fill="#0b481e" opacity="0.15" style="mix-blend-mode: color-dodge;isolation: isolate"/>
          <ellipse id="Elipse_4697" data-name="Elipse 4697" cx="62.631" cy="62.631" rx="62.631" ry="62.631" transform="translate(292.839 772.152) rotate(97.065)" fill="#fff" opacity="0.17" style="mix-blend-mode: overlay;isolation: isolate"/>
          <rect id="Rectángulo_33709" data-name="Rectángulo 33709" width="942.874" height="628.582" transform="translate(222.43 318.341)" fill="none"/>
        </g>
      </g>
    </g>
    <g id="Enmascarar_grupo_51-2" data-name="Enmascarar grupo 51" transform="translate(-4.333)" clip-path="url(#clip-path-2)">
      <g id="Grupo_80163" data-name="Grupo 80163" transform="translate(-676.199 -22.071)">
        <g id="Grupo_80112" data-name="Grupo 80112" transform="translate(691.78 613.068) rotate(-49)">
          <path id="Trazado_113526" data-name="Trazado 113526" d="M988.6,195.688c-5.249,4.812-8.108,11.622-10.643,18.121-1.324,3.4-2.472,6.878-3.879,10.242a24.236,24.236,0,0,1-3.193,5.7,27.863,27.863,0,0,0-1.947,2.421,4.087,4.087,0,0,1-2.973-.842c-1.433-1.19-1.322-3.286-1.173-4.951a30.714,30.714,0,0,1,3-11.117,40.547,40.547,0,0,1,7.14-9.538,39.433,39.433,0,0,1,4.1-3.768c1.286-1.006,2.928-1.859,3.9-3.211,4.015-5.566-7.468-6.146-10.214-6.1-6.653.108-13.422,1.5-18.961,5.337-9.745,6.757-14.784,19.2-18.227,30.1-2.048,6.492-3.766,13.052-6.313,19.379a61.964,61.964,0,0,1-4.25,9.147c-.489.8-1.226,2.207-2.247,1.682-.91-.467-1.12-3.382-1.279-4.323-2.635-15.674,3.3-31.553,11.955-44.393a44.245,44.245,0,0,1,6.471-7.67c1.319-1.248,3.256-3.2,2.346-5.211-2.182-4.822-11.934-2.071-15.415-.875-11.624,3.987-24.255,12.224-27.861,24.572-2.255,7.723-1.771,15.884-1.292,23.811.525,8.734.928,17.506,1.821,26.212.507,4.933,1.034,9.854-.651,14.641-.57,1.619-1.485,3.955-3.248,4.605-2.57.951-4.681-2.068-5.788-3.977-3.655-6.31-3.5-14.124-3.841-21.178-.782-15.962.149-31.758,4.855-47.115a2.218,2.218,0,0,0-1.281-3.695c-5.475-1-10.958,2.7-15.415,5.39a53.036,53.036,0,0,0-14.262,12.272c-8,9.985-9.96,23.087-8.6,35.518,1.611,14.663,8.744,28.61,12.979,42.618,1.228,4.063,3.135,8.951,2.9,13.279-.394,7.256-9.937-1.624-11.708-4.02a78.593,78.593,0,0,1-10.545-19.975c-2.714-7.564-3.879-15.364-5.513-23.183a1.089,1.089,0,0,0-.336-.572c-.762-2.189-3.019-2.472-4.9-.3-3.831,4.429-3.96,11.347-4.144,16.85-.459,13.672.986,28.108,7.294,40.428,5.982,11.692,15.771,21.581,26.6,28.865a100.822,100.822,0,0,0,17.838,9.755c6.406,2.618,13.274,3.866,20.094,4.845,7.377,1.059,14.893,2.184,22.355,2.235,5.556.038,12.212-.272,17.112-3.327,3.733-.5,7.442-1.072,11.112-1.68,17.155-2.837,35.584-8.585,47.3-22.2,3.982-4.625,8.328-11.213,8.84-17.437.194-2.363-.534-4.913-2.913-5.886-3.314-1.357-7.3.739-10.426,1.728-9.364,2.961-19.657,2.963-29.382,2.439-8.749-.474-17.894-1.929-25.473-6.6-3.831-2.363-7.889-5.818-9.9-9.944-3.014-6.189,3.571-8.784,8.7-8.207,5.518.623,10.9,2.615,16.381,3.564,5.813,1,11.669,1.511,17.533,2.093,18.454,1.831,38.335-1.17,52.169-14.658,4.923-4.8,9.238-11.407,10.57-18.227.6-3.079.421-6.532-1.972-8.822-2.92-2.794-7.042-1.972-10.287-.222-4.883,2.633-9.236,6.149-14.192,8.724a110.925,110.925,0,0,1-16.139,7.168c-5.213,1.723-10.159,1.866-15.581,1.783-4.335-.068-8.706.043-12.973-.86-1.427-.3-10.56-4.04-8.048-5.5,2.081-1.206,6.54-.2,8.888-.156,5.8.1,11.667.525,17.443-.2,5.864-.734,11.606-2.633,17.213-4.436,9.178-2.953,17.73-6.535,25.1-12.905a51.521,51.521,0,0,0,15.016-21.564c1.034-2.885,2.108-6.368.146-9.069a2.147,2.147,0,0,0-2.573-.512c-3.574,2.209-7.7,3.168-11.395,5.142-4.605,2.464-8.976,5.062-13.972,6.716a19.563,19.563,0,0,1-16.207-1.569c-.646-2.961,1.753-5.334,4.4-6.63,5.538-2.714,11.717-3.781,17.243-6.658a31.1,31.1,0,0,0,12.61-11.46,55.914,55.914,0,0,0,4.272-9.5c1.223-3.284,3.306-8.053,2.222-11.576a1.634,1.634,0,0,0-.134-.282.527.527,0,0,0-.172-.51c-2.853-2.54-7.128-3.349-10.78-4.02-4.509-.827-9.114-1.425-13.674-1.884C1004.007,189.736,995.033,189.784,988.6,195.688ZM931.248,334.765c4.378.855,16.33,5.781,13.392,11.955-2.978,6.252-14.812,4.272-19.9,3.478-8.411-1.311-21.016-4-27.715-9.75-3.6-3.09-1.473-4.951,2.172-5.584a102.514,102.514,0,0,1,13.258-1.455A80.4,80.4,0,0,1,931.248,334.765Z" transform="translate(-829.899 -190.185)" fill="#4f9638"/>
          <g id="Grupo_80111" data-name="Grupo 80111" transform="translate(26.278 7.854)" opacity="0.7">
            <path id="Trazado_113527" data-name="Trazado 113527" d="M965.185,210.386c-3.652,2.936-7.261,5.927-10.852,8.936-9.73,8.151-19.49,16.245-29.067,24.572-8.787,7.642-17.374,15.566-25.639,23.768-10.3,10.219-20.406,20.88-29.864,31.906a78.422,78.422,0,0,1-5.279-13.811c-.134-.449-.931-.489-.9.058a30.077,30.077,0,0,0,1.713,8.519,48.458,48.458,0,0,0,3.1,6.8c-.245.29-.5.57-.747.86-9.458,11.211-18.973,22.532-27.155,34.726a1,1,0,0,0,1.662,1.13c7.831-10.857,17.125-20.769,26.126-30.658,10.464-11.5,21.3-22.726,32.136-33.871,16.565-17.031,34.441-33.029,52.28-48.7,6.719-5.9,14.01-11.074,20.815-16.825,1.178-.994-.114-2.6-1.41-2.114C969.485,206.674,967.348,208.646,965.185,210.386Z" transform="translate(-840.318 -174.588)" fill="#0a481c"/>
            <path id="Trazado_113528" data-name="Trazado 113528" d="M851.893,270.135a163.888,163.888,0,0,1-4.154-32.918c-.136-5.226-.02-10.459.1-15.682.121-5.042,1.125-10.537.257-15.518a.537.537,0,0,0-1.024-.071c-1.511,4.764-1.12,10.5-1.238,15.45-.134,5.634.066,11.251.424,16.873a177.35,177.35,0,0,0,4.938,32.007C851.308,270.717,852,270.581,851.893,270.135Z" transform="translate(-831.982 -174.574)" fill="#0a481c"/>
            <path id="Trazado_113529" data-name="Trazado 113529" d="M861.107,235.434a117.234,117.234,0,0,0,1.216,23.75c1.094,6.424,2.139,12.744,5.122,18.618.2.391.83.061.6-.3-3.407-5.362-3.274-12.507-4.214-18.625a118.057,118.057,0,0,1-1.082-22.744c.484-13.039,2.792-25.8,8.754-37.475a.5.5,0,0,0-.731-.648c-4.139,2.918-4.729,10.678-5.841,15.213-.8,3.243-2.121,6.34-2.822,9.607C861.223,226.953,861.233,231.245,861.107,235.434Z" transform="translate(-808.836 -186.295)" fill="#0a481c"/>
            <path id="Trazado_113530" data-name="Trazado 113530" d="M880.227,211.165c-1.019,3.122-2.073,6.235-2.956,9.4-1.708,6.131-2.845,12.419-1.665,18.759a.789.789,0,0,0,1.546-.315c-1.243-6.585.1-13.193,2.083-19.493.953-3.024,2.033-6,3.057-9,.84-2.462,2.424-5.619,2-8.25a.518.518,0,0,0-.926-.187,12.739,12.739,0,0,0-1.594,4.179C881.286,207.9,880.759,209.536,880.227,211.165Z" transform="translate(-787.345 -180.26)" fill="#0a481c"/>
            <path id="Trazado_113531" data-name="Trazado 113531" d="M887.753,196.376a35.686,35.686,0,0,0-3.422,4.129,62.136,62.136,0,0,0-4.979,9.3c-.28.59.666,1.047,1.011.509,1.849-2.865,3.9-5.566,5.993-8.262,1.014-1.311,2.063-2.613,3.2-3.821,1.11-1.18,2.787-2.318,3.349-3.866a.818.818,0,0,0-.923-1.059C890.3,193.526,888.87,195.211,887.753,196.376Z" transform="translate(-780.985 -193.299)" fill="#0a481c"/>
            <path id="Trazado_113532" data-name="Trazado 113532" d="M914.941,224.517c-9.417,1.586-20.093,1.937-29.319-.825-1.163-.348-1.791,1.412-.628,1.786,9.367,2.994,19.74,2.411,29.364,1.047a59.2,59.2,0,0,0,13.96-4.005c4.62-1.887,9.8-3.836,13.71-6.984a.437.437,0,0,0-.373-.752c-4.383.905-8.381,3.438-12.469,5.221A61.091,61.091,0,0,1,914.941,224.517Z" transform="translate(-773.261 -160.611)" fill="#0a481c"/>
            <path id="Trazado_113533" data-name="Trazado 113533" d="M894.994,211.624c-.678.643.255,1.728.958,1.1,6.3-5.617,13.564-9.952,20.83-14.174.275-.161.154-.638-.189-.555a36.612,36.612,0,0,0-11.506,5.528A75.471,75.471,0,0,0,894.994,211.624Z" transform="translate(-757.457 -186.167)" fill="#0a481c"/>
            <path id="Trazado_113534" data-name="Trazado 113534" d="M909.608,196.486c-.628.391-1.271.789-1.876,1.213-1.168.825-2.323,1.652-3.528,2.426a.217.217,0,0,0,.194.388c1.357-.54,2.764-1.052,4.071-1.71a15.409,15.409,0,0,0,1.917-1.155,9.248,9.248,0,0,0,1.483-1.511c.242-.277-.156-.671-.452-.517C910.827,195.926,910.168,196.135,909.608,196.486Z" transform="translate(-743.251 -189.818)" fill="#0a481c"/>
            <path id="Trazado_113535" data-name="Trazado 113535" d="M887.389,236.987c-2.151-1.808-5.12-2.555-7.755-3.377-2.734-.852-5.485-1.932-7.508-4.038a.729.729,0,0,0-1.1.958,16.979,16.979,0,0,0,7.412,4.684c2.777,1.016,5.667,1.826,8.51,2.646A.5.5,0,0,0,887.389,236.987Z" transform="translate(-793.854 -138.448)" fill="#0a481c"/>
            <path id="Trazado_113536" data-name="Trazado 113536" d="M934.686,232.627a39.817,39.817,0,0,1-6.87,4.4,56.091,56.091,0,0,1-15.062,4.905,83.427,83.427,0,0,1-31.445-.537c-.345-.071-.471.525-.126.61a80.229,80.229,0,0,0,32.731,1.609,52.943,52.943,0,0,0,15.538-5.026c4.061-2.086,9.735-5.253,11.518-9.71a.6.6,0,0,0-.822-.724C938.086,229.308,936.52,231.154,934.686,232.627Z" transform="translate(-778.431 -140.355)" fill="#0a481c"/>
          </g>
        </g>
        <g id="Grupo_80114" data-name="Grupo 80114" transform="translate(2020.244 92.071)">
          <path id="Trazado_113537" data-name="Trazado 113537" d="M1071.836,194.773c3.867-2.455,6.445-6.444,8.784-10.273,1.223-2,2.34-4.074,3.612-6.045a15.624,15.624,0,0,1,2.665-3.252,17.382,17.382,0,0,0,1.508-1.314,2.64,2.64,0,0,1,1.787.869c.772.916.466,2.23.182,3.266a19.749,19.749,0,0,1-3.156,6.7,26.08,26.08,0,0,1-5.6,5.232,25.43,25.43,0,0,1-3.02,1.924,11.826,11.826,0,0,0-2.833,1.593c-3.169,3.069,4.035,4.734,5.779,5.015a21.832,21.832,0,0,0,12.607-1.239c6.933-3.177,11.526-10.482,14.936-17,2.031-3.878,3.858-7.837,6.186-11.556a39.706,39.706,0,0,1,3.724-5.31c.4-.451,1.025-1.26,1.612-.813.524.4.328,2.267.321,2.882-.1,10.219-5.652,19.6-12.581,26.754a28.527,28.527,0,0,1-4.962,4.124c-.978.642-2.423,1.656-2.074,3.035.837,3.3,7.323,2.658,9.66,2.295,7.809-1.212,16.734-5,20.411-12.412,2.3-4.634,2.914-9.854,3.508-14.928.652-5.589,1.388-11.188,1.805-16.8.235-3.18.457-6.354,2.065-9.194.543-.96,1.388-2.335,2.577-2.55,1.734-.311,2.73,1.838,3.215,3.172,1.6,4.407.62,9.337.042,13.841-1.309,10.193-3.68,20.088-8.393,29.279a1.426,1.426,0,0,0,.394,2.483c3.352,1.252,7.243-.472,10.367-1.672a34.123,34.123,0,0,0,10.416-6.158c6.191-5.419,8.911-13.492,9.449-21.516.636-9.465-2.3-19.1-3.4-28.446-.319-2.71-.975-6.02-.337-8.735,1.069-4.548,6.108,2.151,6.959,3.868a50.525,50.525,0,0,1,4.42,13.836c.864,5.094.722,10.164.872,15.3a.7.7,0,0,0,.149.4c.235,1.474,1.632,1.906,3.065.744,2.924-2.37,3.787-6.736,4.525-10.2,1.833-8.6,2.548-17.907-.053-26.418-2.467-8.077-7.548-15.443-13.58-21.277a64.811,64.811,0,0,0-10.193-8.189,54.356,54.356,0,0,0-12.172-5.336,107.2,107.2,0,0,0-13.9-3.939c-3.513-.65-7.761-1.205-11.209.174-2.42-.1-4.833-.161-7.224-.19-11.183-.139-23.5,1.419-32.455,8.713-3.042,2.478-6.538,6.158-7.564,10.041a3.518,3.518,0,0,0,1.181,4.056c1.944,1.233,4.7.355,6.8.083,6.262-.817,12.777.344,18.875,1.773,5.485,1.288,11.111,3.242,15.382,7.055a16.95,16.95,0,0,1,5.145,7.412c1.208,4.259-3.252,5.159-6.434,4.214-3.424-1.017-6.6-2.887-9.969-4.1-3.567-1.289-7.216-2.274-10.863-3.3-11.476-3.242-24.4-3.589-34.682,3.39a23.591,23.591,0,0,0-8.75,10.346c-.728,1.88-1,4.087.253,5.808,1.534,2.1,4.235,2.042,6.488,1.3,3.388-1.116,6.542-2.848,9.969-3.92a71.192,71.192,0,0,1,11.025-2.715,29.207,29.207,0,0,1,10.067.629,43.369,43.369,0,0,1,8.116,2.009c.869.352,6.228,3.75,4.475,4.387-1.453.529-4.161-.613-5.644-.9a79.554,79.554,0,0,0-11.066-1.844,61.625,61.625,0,0,0-11.4.866c-6.145.834-11.963,2.136-17.347,5.336a33.118,33.118,0,0,0-11.94,11.956c-.981,1.709-2.055,3.794-1.119,5.725a1.383,1.383,0,0,0,1.572.615c2.512-.994,5.237-1.135,7.795-1.969a57.419,57.419,0,0,1,9.6-2.674,12.576,12.576,0,0,1,10.083,2.822c.075,1.946-1.713,3.18-3.532,3.7-3.813,1.093-7.845,1.072-11.669,2.269a19.987,19.987,0,0,0-9.275,5.832,35.911,35.911,0,0,0-3.776,5.527c-1.147,1.941-3,4.726-2.715,7.079a1.124,1.124,0,0,0,.054.195.337.337,0,0,0,.05.341c1.52,1.93,4.134,2.924,6.37,3.763,2.76,1.033,5.61,1.932,8.443,2.736C1061.409,196.8,1067.1,197.783,1071.836,194.773Zm52.01-81.574c-2.676-1.035-9.687-5.5-7.13-9.079,2.59-3.622,9.858-1.033,12.988.044,5.177,1.781,12.855,4.9,16.444,9.3,1.93,2.363.375,3.3-2,3.291a66.052,66.052,0,0,1-8.558-.576A51.57,51.57,0,0,1,1123.846,113.2Z" transform="translate(-1041.344 -86.137)" fill="#4f9638"/>
          <g id="Grupo_80113" data-name="Grupo 80113" transform="translate(8.484 18.339)" opacity="0.7">
            <path id="Trazado_113538" data-name="Trazado 113538" d="M1068.04,164.442c2.644-1.447,5.266-2.932,7.88-4.433,7.079-4.061,14.172-8.083,21.175-12.274,6.426-3.845,12.756-7.894,18.916-12.153,7.671-5.307,15.276-10.915,22.506-16.828a50.321,50.321,0,0,1,1.784,9.34c.032.3.532.415.574.063a19.371,19.371,0,0,0-.123-5.587,31.345,31.345,0,0,0-1.194-4.656c.187-.154.381-.3.568-.459a258.617,258.617,0,0,0,21.113-18.919.647.647,0,0,0-.924-.9c-6.184,5.989-13.188,11.217-20,16.46-7.923,6.1-16.048,11.984-24.169,17.816-12.412,8.912-25.534,17.021-38.6,24.931-4.921,2.978-10.119,5.428-15.077,8.3-.858.5-.221,1.659.655,1.5A17.207,17.207,0,0,0,1068.04,164.442Z" transform="translate(-1036.943 -97.445)" fill="#0a481c"/>
            <path id="Trazado_113539" data-name="Trazado 113539" d="M1112.732,122.819a105.509,105.509,0,0,1-1.087,21.308c-.5,3.323-1.168,6.624-1.836,9.916-.646,3.179-1.9,6.546-1.914,9.8a.345.345,0,0,0,.641.159c1.494-2.845,1.893-6.518,2.527-9.64.72-3.552,1.229-7.13,1.636-10.729a114.234,114.234,0,0,0,.488-20.821C1113.167,122.515,1112.716,122.523,1112.732,122.819Z" transform="translate(-1008.444 -81.807)" fill="#0a481c"/>
            <path id="Trazado_113540" data-name="Trazado 113540" d="M1099.161,149.214a75.422,75.422,0,0,0,1.912-15.172c.031-4.191.084-8.309-1.142-12.365-.081-.269-.517-.131-.413.12,1.552,3.781.66,8.288.564,12.268a75.69,75.69,0,0,1-1.882,14.52c-1.777,8.2-4.679,16.017-9.773,22.737a.318.318,0,0,0,.389.493c2.95-1.38,4.2-6.228,5.417-8.97.869-1.964,2.058-3.776,2.871-5.764A45.106,45.106,0,0,0,1099.161,149.214Z" transform="translate(-1020.599 -82.468)" fill="#0a481c"/>
            <path id="Trazado_113541" data-name="Trazado 113541" d="M1079.266,149.708c1-1.862,2.016-3.712,2.932-5.618,1.773-3.686,3.2-7.54,3.171-11.687a.507.507,0,0,0-1.014.024c.044,4.311-1.552,8.343-3.519,12.107-.944,1.805-1.964,3.571-2.952,5.354-.809,1.463-2.168,3.283-2.2,5a.334.334,0,0,0,.566.222,8.233,8.233,0,0,0,1.481-2.467C1078.226,151.654,1078.745,150.68,1079.266,149.708Z" transform="translate(-1028.472 -76.003)" fill="#0a481c"/>
            <path id="Trazado_113542" data-name="Trazado 113542" d="M1071.9,155.891a23.045,23.045,0,0,0,2.634-2.227,40.071,40.071,0,0,0,4.2-5.326c.243-.342-.305-.738-.584-.438-1.5,1.606-3.1,3.085-4.726,4.554-.792.715-1.6,1.421-2.457,2.058-.834.623-2.026,1.153-2.556,2.069a.526.526,0,0,0,.466.775C1069.965,157.407,1071.061,156.5,1071.9,155.891Z" transform="translate(-1033.04 -66.136)" fill="#0a481c"/>
            <path id="Trazado_113543" data-name="Trazado 113543" d="M1068.156,127.08c6.142.058,12.941,1.043,18.47,3.832.7.352,1.293-.693.6-1.059-5.592-2.953-12.225-3.756-18.473-3.978a38.015,38.015,0,0,0-9.289.96c-3.138.673-6.638,1.322-9.468,2.874a.281.281,0,0,0,.151.517c2.879-.078,5.694-1.229,8.484-1.9A39.373,39.373,0,0,1,1068.156,127.08Z" transform="translate(-1044.532 -79.777)" fill="#0a481c"/>
            <path id="Trazado_113544" data-name="Trazado 113544" d="M1065.987,142.244c.5-.331.034-1.121-.482-.8a80.587,80.587,0,0,1-14.788,6.62c-.191.07-.169.386.058.373a23.567,23.567,0,0,0,7.906-2.2A48.507,48.507,0,0,0,1065.987,142.244Z" transform="translate(-1044.081 -70.132)" fill="#0a481c"/>
            <path id="Trazado_113545" data-name="Trazado 113545" d="M1048.117,147.991c.441-.178.894-.357,1.325-.558.832-.389,1.658-.783,2.507-1.137a.139.139,0,0,0-.078-.268c-.921.188-1.87.354-2.772.623a9.892,9.892,0,0,0-1.343.514,6,6,0,0,0-1.109.79c-.185.148.023.441.227.38C1047.283,148.208,1047.723,148.15,1048.117,147.991Z" transform="translate(-1046.576 -67.236)" fill="#0a481c"/>
            <path id="Trazado_113546" data-name="Trazado 113546" d="M1082.378,116.652a14.1,14.1,0,0,0,4.53,3.013,11,11,0,0,1,4.3,3.4.469.469,0,0,0,.8-.482,10.9,10.9,0,0,0-4.165-3.8c-1.643-.959-3.381-1.8-5.088-2.637A.319.319,0,0,0,1082.378,116.652Z" transform="translate(-1024.364 -85.838)" fill="#0a481c"/>
            <path id="Trazado_113547" data-name="Trazado 113547" d="M1059.135,116.294a25.491,25.491,0,0,1,4.845-2.008,36.089,36.089,0,0,1,10.089-1.406,53.683,53.683,0,0,1,19.847,3.891c.211.083.357-.279.149-.373a51.605,51.605,0,0,0-20.539-4.713,34.028,34.028,0,0,0-10.406,1.429c-2.806.861-6.757,2.225-8.388,4.846a.384.384,0,0,0,.438.551A27.66,27.66,0,0,0,1059.135,116.294Z" transform="translate(-1041.534 -88.592)" fill="#0a481c"/>
          </g>
        </g>
        <g id="Grupo_80138" data-name="Grupo 80138" transform="translate(810.269 83.421)">
          <path id="Trazado_113563" data-name="Trazado 113563" d="M921.49,149.076a13.624,13.624,0,0,0,3.276-10.289c-.379-4.458-2.757-7.8-5.79-10.911a30.393,30.393,0,0,0-4.08-3.5h-.012a41.085,41.085,0,0,0-3.99-2.559h-.012c-1.49-.854-3.034-1.629-4.6-2.381-2.517-1.2-5.082-2.264-7.616-3.407a13.078,13.078,0,0,1-6.222-5.056c-1.351-2.247-2.235-4.79-3.462-7.1l-.471-.843a12.286,12.286,0,0,0-3.639-4.064c-4.068-2.78-8.669-2.4-13.342-2.183a22.436,22.436,0,0,1-8.791-.911,17.212,17.212,0,0,1-6.212-4.3c-.157-.133-.3-.288-.444-.432-.2-.2-.387-.4-.587-.6a38.2,38.2,0,0,0-4.517-4.317,14.018,14.018,0,0,0-6.823-2.539c-5.607-.686-11.217.139-16.8.593-1.281.1-2.568.151-3.822.372a.778.778,0,0,0-.714-.514c-1.983-.115-3.691,1.27-5.079,2.547a22.534,22.534,0,0,0-2.836,3.14,20.279,20.279,0,0,0-1.229,1.831v.012a23.974,23.974,0,0,0-3.342,12.983c.279,8.625,5.347,16.755,13.574,19.587.326.11.666.222,1.017.323h.012c.387.1.775.207,1.188.288,2.594.561,5.308.386,7.94.627a26.97,26.97,0,0,1,8.809,2.016,11.337,11.337,0,0,1,2.354,1.429,13.66,13.66,0,0,1,1.85,1.723c.012,0,.012,0,.012.012a45.474,45.474,0,0,1,5.056,7.421c2.264,3.713,4.665,7.353,8.981,8.845,4.864,1.694,10.356.271,15.3-.343.485-.056.958-.114,1.441-.158.413-.051.824-.09,1.234-.128a29.559,29.559,0,0,1,5.925.029,27,27,0,0,1,8.211,2.724,65.925,65.925,0,0,0,10.7,4.379c.411.106.823.212,1.236.293a20.937,20.937,0,0,0,3.226.457A16.742,16.742,0,0,0,921.49,149.076Z" transform="translate(-810.258 -83.421)" fill="#36753c"/>
          <g id="Grupo_80130" data-name="Grupo 80130" transform="translate(0 5.564)">
            <path id="Trazado_113564" data-name="Trazado 113564" d="M921.532,144.018c-1.544-.957-2.865-2.271-4.328-3.344-3.173-2.332-6.53-4.449-9.83-6.595-10.4-6.761-20.96-13.322-31.669-19.584-4.058-2.372-8.108-4.752-12.365-6.754-3.472-1.633-7.006-3.132-10.551-4.6-8.279-3.415-16.645-6.623-25.04-9.739-3.663-1.358-7.332-2.8-11.065-3.954-1.222-.379-2.445-.766-3.695-1.046a13.15,13.15,0,0,0-1.3-.248c-.255-.031-1.008-.149-.483-.035-.857-.188-1.342,1.108-.476,1.3-.09-.02.332.143.506.228.311.152.621.3.936.445.971.44,1.966.819,2.958,1.207,3.031,1.183,6.113,2.236,9.167,3.358,8.278,3.041,16.537,6.134,24.723,9.419a206.936,206.936,0,0,1,21.491,9.8q17.09,9.235,33.447,19.686c5.729,3.663,11.295,7.776,17.434,10.737.161.079.3-.184.145-.279Z" transform="translate(-810.269 -88.075)" fill="#4f9638"/>
          </g>
          <g id="Grupo_80131" data-name="Grupo 80131" transform="translate(71.12 34.972)">
            <path id="Trazado_113565" data-name="Trazado 113565" d="M871.382,114.024a3.8,3.8,0,0,1-1.38.007.292.292,0,0,1-.1-.548,1.467,1.467,0,0,1,.313-.154c1.363-.68,3.4-.55,4.849-.611a56.3,56.3,0,0,1,5.874.06,82.331,82.331,0,0,1,12.156,1.727q3.112.687,6.157,1.584h.012a41.085,41.085,0,0,1,3.99,2.559,95.666,95.666,0,0,0-10.494-2.982,82.436,82.436,0,0,0-11.913-1.767,54.683,54.683,0,0,0-5.6-.206c-1.022.024-2.035.1-3.054.218C871.917,113.935,871.65,113.986,871.382,114.024Z" transform="translate(-869.746 -112.669)" fill="#4f9638"/>
          </g>
          <g id="Grupo_80132" data-name="Grupo 80132" transform="translate(53.09 26.561)">
            <path id="Trazado_113566" data-name="Trazado 113566" d="M869.188,142.071c-.25-.32-.5-.653-.747-.973a62.932,62.932,0,0,1-7.051-10.751c-3.549-7.069-7.079-15.4-6.693-23.487.012-.287.035-.561.057-.847a.431.431,0,0,1,.859.069c-.02.395-.029.79-.026,1.2-.016,7.809,3.329,15.773,6.777,22.594a66.464,66.464,0,0,0,7.03,10.713c.347.448.695.9,1.028,1.356C870.012,141.981,869.6,142.019,869.188,142.071Z" transform="translate(-854.668 -105.634)" fill="#4f9638"/>
          </g>
          <g id="Grupo_80133" data-name="Grupo 80133" transform="translate(82.699 43.444)">
            <path id="Trazado_113567" data-name="Trazado 113567" d="M891.651,146.6c-.414-.081-.825-.187-1.236-.293a61.017,61.017,0,0,1-4.463-7.191,49.186,49.186,0,0,1-3.688-8.892c-.963-3.187-1.668-6.436-2.693-9.6-.037-.135-.087-.258-.124-.393-.123-.395.452-.684.588-.288s.293.816.427,1.222c1.853,5.5,2.975,11.149,5.606,16.391a62.123,62.123,0,0,0,4.979,8.218C891.251,146.056,891.444,146.335,891.651,146.6Z" transform="translate(-879.43 -119.754)" fill="#4f9638"/>
          </g>
          <g id="Grupo_80134" data-name="Grupo 80134" transform="translate(50.099 19.503)">
            <path id="Trazado_113568" data-name="Trazado 113568" d="M880.79,100.68a88.277,88.277,0,0,0-13.231.561,74,74,0,0,0-7.643,1.33,32.116,32.116,0,0,0-4.094,1.214c-.768.285-1.494.658-2.25.955-.3.12-.606.226-.914.32-.443.121-.645-.484-.359-.749l.116-.1c1.739-1.6,4.55-2.23,6.777-2.78a59.41,59.41,0,0,1,8.157-1.3,90.19,90.19,0,0,1,12.969-.3Z" transform="translate(-852.166 -99.732)" fill="#4f9638"/>
          </g>
          <g id="Grupo_80135" data-name="Grupo 80135" transform="translate(31.827 17.856)">
            <path id="Trazado_113569" data-name="Trazado 113569" d="M841.878,127.719a13.66,13.66,0,0,0-1.85-1.723A66.126,66.126,0,0,1,837.435,114c-.579-4.666-.932-9.733.157-14.384.076-.354.165-.695.264-1.034.1-.387.788-.248.708.154s-.148.78-.2,1.171a41.008,41.008,0,0,0-.329,5.936,65.5,65.5,0,0,0,3.126,19.715C841.384,126.286,841.626,127,841.878,127.719Z" transform="translate(-836.886 -98.355)" fill="#4f9638"/>
          </g>
          <g id="Grupo_80136" data-name="Grupo 80136" transform="translate(22.31 7.107)">
            <path id="Trazado_113570" data-name="Trazado 113570" d="M828.971,95.421a3.773,3.773,0,0,1,.221-.354c1.285-1.778,4.447-2.6,6.334-3.225a54.113,54.113,0,0,1,7.423-1.864,45.883,45.883,0,0,1,8.9-.6c.2.2.387.4.587.6.143.143.287.3.444.432a.258.258,0,0,1-.1,0,46.828,46.828,0,0,0-9.8.721,53.609,53.609,0,0,0-7.556,2.033,29.611,29.611,0,0,0-3.367,1.417c-.564.289-1.108.641-1.684.929h-.012a5.481,5.481,0,0,1-1.067.416C829,96.011,828.845,95.651,828.971,95.421Z" transform="translate(-828.926 -89.365)" fill="#36753c"/>
          </g>
          <g id="Grupo_80137" data-name="Grupo 80137" transform="translate(10.761 10.755)">
            <path id="Trazado_113571" data-name="Trazado 113571" d="M823.174,122.8c-.352-.1-.691-.213-1.018-.323-.484-2-.871-4.019-1.221-6.052a98.022,98.022,0,0,1-1.459-11.637c-.191-3.818-.557-8.143.61-11.851a1.877,1.877,0,0,1,.081-.257c.16-.5.929-.212.768.291a1.667,1.667,0,0,0-.068.246,20.67,20.67,0,0,0-.622,5.983c.011,2.209.048,4.408.2,6.616.253,3.5.821,6.977,1.413,10.445C822.234,118.45,822.642,120.643,823.174,122.8Z" transform="translate(-819.268 -92.416)" fill="#36753c"/>
          </g>
        </g>
        <g id="Grupo_80142" data-name="Grupo 80142" transform="translate(1917.879 93.018)">
          <g id="Grupo_80139" data-name="Grupo 80139" transform="translate(0.001 0.185)">
            <path id="Trazado_113572" data-name="Trazado 113572" d="M1081.888,86.88c-10.346,3.638-21.091,6.294-30.552,12.073a67.777,67.777,0,0,0-12.356,9.593c-3.381,3.343-6.791,7.182-8.933,11.46-1.719,3.433-3.623,8.312-1.215,11.878,2.021,2.991,5.995,3.7,9.343,3.234,10.172-1.424,12.56-13.239,16.081-21.105,4.278-9.559,11.676-16.7,20.466-21.882,2.976-.8,5.9-1.813,7.967-3.875C1083.245,87.7,1082.686,86.6,1081.888,86.88Z" transform="translate(-947.469 -86.835)" fill="#add031"/>
            <path id="Trazado_113573" data-name="Trazado 113573" d="M1039.929,113.1q7-3.328,13.824-6.989a141.866,141.866,0,0,0,12.443-7.744c2.456-1.653,4.963-3.2,7.375-4.913,1.018-.725,2.026-1.469,3.013-2.235.352-.272,1.126-.684,1.217-1.184a.687.687,0,0,0-.209-.642.566.566,0,0,0-.052-.136l-.115-.149a.745.745,0,0,0-.323-.19l.146.062c-.13-.055-.258-.13-.392-.174-.08-.026-.162-.042-.243-.065a4.109,4.109,0,0,1-.469-.162l-.11-.049c-.014-.7-.684-1.388-1.409-.864-14.091,10.175-31.127,14.676-47.827,18.463a125.085,125.085,0,0,1-14.409,2.457c-4.707.508-9.4.212-14.125.493-5.153.307-10.623.13-15.468,2.207-3.875,1.661-6.162,5.795-3.252,9.532,2.827,3.633,8.506,4.715,12.837,4.922,7.652.37,15.7-1.3,23.019-3.344A153.957,153.957,0,0,0,1039.929,113.1Z" transform="translate(-978.229 -86.436)" fill="#add031"/>
          </g>
          <g id="Grupo_80140" data-name="Grupo 80140" transform="translate(86.259 0)">
            <path id="Trazado_113574" data-name="Trazado 113574" d="M1031.938,127.929c4.74-10.523,11.239-21.008,21.085-27.429a82.847,82.847,0,0,1,14.866-7.345c2.535-1,5.128-1.813,7.72-2.657,2.462-.8,5.067-1.536,7.118-3.172.29-.232-.026-.678-.344-.594-2.867.769-5.641,1.938-8.486,2.8-2.783.847-5.487,1.841-8.172,2.955a77.663,77.663,0,0,0-14.806,7.65c-9.292,6.479-15.771,17.042-19.491,27.573-.1.294.378.5.51.214Z" transform="translate(-1031.414 -86.722)" fill="#4f9638"/>
          </g>
          <g id="Grupo_80141" data-name="Grupo 80141" transform="translate(2.905 2.725)">
            <path id="Trazado_113575" data-name="Trazado 113575" d="M980.258,117.417c2.407,1.236,5.106,1.2,7.749,1.207,3.388,0,6.757.313,10.149.264,7.079-.1,14.048-1.478,20.923-3.078a172.822,172.822,0,0,0,39.207-14.209c6.267-3.176,13.1-6.9,17.451-12.545.341-.441-.349-.85-.717-.553-4.987,4.027-9.884,7.835-15.649,10.7-5.931,2.947-11.891,5.78-18.082,8.155-6.092,2.339-12.307,4.154-18.595,5.876-6.64,1.82-13.351,3.644-20.218,4.366a60.65,60.65,0,0,1-11.408.01c-3.393-.282-7.175.524-10.339-1-.538-.259-1.014.532-.472.809Z" transform="translate(-980.02 -88.402)" fill="#4f9638"/>
          </g>
        </g>
        <g id="Grupo_80144" data-name="Grupo 80144" transform="translate(916.482 84.358)">
          <path id="Trazado_113576" data-name="Trazado 113576" d="M901.074,86.8c1.1,3.447-.182,7.849,0,11.48.2,3.991.459,8.132,1,12.091.525,3.82,1.314,7.952,3.754,11.064,3.012,3.844,5.078,1.926,5.365-2.218.207-2.98-.6-10.378,1.394-12.364,1.838,8.407,3.22,16.786,9.017,23.5,1.407,1.627,5.8,6.878,8.169,4.949,1.95-1.589.035-9.757-.777-11.809,4.795,6.343,13.6,13.689,22.151,13.284,10.3-.488-7.342-15.048-10.307-17.07-3.288-2.242-6.682-4.413-10.006-6.382,5.731-.851,14.019,2.987,19.324-.88,8.45-6.162-7.156-10.613-11.511-11.271a80.884,80.884,0,0,0-10.65-1.01c4.241,0,9.194.544,13.152-1.232,6.255-2.805-.941-5.667-4.26-6.994-7.453-2.98-16.024-2.433-23.948-2.413-2.906.007-8.331.34-10.879-1.236Z" transform="translate(-898.711 -83.696)" fill="#4f9638"/>
          <g id="Grupo_80143" data-name="Grupo 80143">
            <path id="Trazado_113577" data-name="Trazado 113577" d="M899.114,84.689a20.193,20.193,0,0,0,3.63,5.518c.891,1.1,1.747,2.218,2.619,3.328a.3.3,0,0,0,.185.236c.385.49.777.977,1.159,1.471a.251.251,0,0,0-.094.152,29.791,29.791,0,0,0-.059,5.408c-.019,1.78-.086,3.56-.124,5.34a47.615,47.615,0,0,0,.732,10.672c.054.264.5.209.477-.065a89.38,89.38,0,0,1-.215-10.812c.037-1.78.091-3.561.1-5.341a21.679,21.679,0,0,0-.146-4.5c.114.148.234.292.348.441,3.092,4.064,6.39,7.946,9.68,11.849,5.966,7.078,11.839,14.641,19.961,19.365.474.276.863-.422.423-.726-7.63-5.273-13.4-12.684-19.3-19.724-.921-1.1-1.83-2.206-2.742-3.312.749.033,1.514-.011,2.229.012,1.288.041,2.572.108,3.858.187,2.768.17,5.529.4,8.277.792a94.307,94.307,0,0,1,15.62,3.4c.047.014.065-.056.02-.073-2.58-.915-5.077-1.9-7.739-2.577q-4.061-1.024-8.2-1.673c-2.553-.4-5.124-.728-7.7-.928-1.375-.106-2.753-.172-4.131-.219a16.1,16.1,0,0,0-3.139-.016q-2.981-3.62-5.97-7.234c-.508-.611-1.033-1.209-1.554-1.81.537-.057,1.074-.151,1.6-.2q1.885-.163,3.779-.2a64.169,64.169,0,0,1,7.333.281c4.824.464,9.449,1.755,14.335,1.577a.084.084,0,0,0,0-.167c-4.925-.331-9.674-2.006-14.6-2.467a63.677,63.677,0,0,0-7.611-.262q-1.892.048-3.78.224a14.37,14.37,0,0,0-1.9.236c-.823-.942-1.644-1.886-2.443-2.848-1.522-1.84-2.815-3.835-4.289-5.7C899.514,84.026,898.987,84.345,899.114,84.689Z" transform="translate(-899.095 -84.205)" fill="#36753c"/>
            <path id="Trazado_113578" data-name="Trazado 113578" d="M915.977,109.9a25.71,25.71,0,0,0-1.045-4.751.188.188,0,0,0-.341.044c-.315,1.522.227,3.261.57,4.745.38,1.642.849,3.262,1.369,4.865,1.076,3.324,2.426,6.548,3.7,9.8.111.286.573.171.469-.129-1.124-3.234-2.312-6.447-3.359-9.707C916.821,113.166,916.356,111.544,915.977,109.9Z" transform="translate(-896.08 -80.122)" fill="#36753c"/>
          </g>
        </g>
        <g id="Grupo_80150" data-name="Grupo 80150" transform="translate(813.826 92.071) rotate(40)">
          <path id="Trazado_113579" data-name="Trazado 113579" d="M866.734,161.509a135.379,135.379,0,0,0-17.651,5.845,174.027,174.027,0,0,0-17.068,8.046,27.482,27.482,0,0,0-6.493,4.643c-1.827,1.838-3.558,4.1-5.764,5.491a1.371,1.371,0,0,0,1.052,2.495c.195-.058.363-.148.549-.218,5.338,2.285,10.484,5.121,15.609,7.843,4.794,2.547,9.676,4.912,14.306,7.755,7.715,4.739,16.8,11.64,26.393,10.943,4.24-.309,8.129-2.513,11.427-5.072,3.809-2.955,6.692-7.659,11.654-8.721,8.4-1.8,16.761,2.563,25.146,2.578,5.244.007,13.495-.607,15.246-6.742,2.025-7.092-4.291-13.708-10.123-16.448a65.13,65.13,0,0,0-11.051-3.652c-4.459-1.184-8.345-2.424-12.1-5.242-3.659-2.744-6.872-6.033-10.623-8.663a22.555,22.555,0,0,0-13.575-4.007C877.989,158.453,872.191,160.081,866.734,161.509Z" transform="translate(-818.251 -158.378)" fill="#add031"/>
          <g id="Grupo_80145" data-name="Grupo 80145" transform="translate(0 23.519)">
            <path id="Trazado_113580" data-name="Trazado 113580" d="M939.077,182.6c-7.284-1.87-14.338-4.551-21.7-6.136a207.476,207.476,0,0,0-23.028-3.406c-8.015-.794-16.075-.767-24.111-1.274a150.15,150.15,0,0,0-24.243.24c-8.9.865-17.746,1.554-26.539,3.244-1.058.2-1.11,2.031,0,2.188,3.453.491,6.99-.935,10.416-1.334,4.126-.478,8.239-.74,12.376-1.085,7.959-.662,15.669-1.32,23.669-.9,15.961.845,32.151.675,47.97,3.249,8.461,1.376,16.524,4.489,24.9,6.275.691.148.987-.886.294-1.065Z" transform="translate(-818.641 -171.407)" fill="#36753c"/>
          </g>
          <g id="Grupo_80146" data-name="Grupo 80146" transform="translate(30.198 25.619)">
            <path id="Trazado_113581" data-name="Trazado 113581" d="M869.665,197.98a110.8,110.8,0,0,1-26.259-18.467c-1.219-1.166-2.4-2.368-3.576-3.576a14.358,14.358,0,0,0-3.8-3.325c-.309-.144-.767.1-.632.486a10.144,10.144,0,0,0,2.549,3.482c1.3,1.357,2.681,2.639,4.072,3.9,2.672,2.424,5.421,4.764,8.278,6.966a94.308,94.308,0,0,0,18.829,11.463c.619.278,1.17-.619.542-.928Z" transform="translate(-835.37 -172.571)" fill="#36753c"/>
          </g>
          <g id="Grupo_80147" data-name="Grupo 80147" transform="translate(43.66 7.19)">
            <path id="Trazado_113582" data-name="Trazado 113582" d="M843.619,180.042a121.069,121.069,0,0,1,15.313-10.163,62.564,62.564,0,0,1,8.6-3.785c2.968-1.043,6.064-1.711,8.968-2.908a.417.417,0,0,0-.11-.814,25.419,25.419,0,0,0-9.1,1.789,65.9,65.9,0,0,0-8.841,3.8A59.613,59.613,0,0,0,842.969,179.2c-.406.419.143,1.218.65.843Z" transform="translate(-842.828 -162.361)" fill="#36753c"/>
          </g>
          <g id="Grupo_80148" data-name="Grupo 80148" transform="translate(91.439 28.577)">
            <path id="Trazado_113583" data-name="Trazado 113583" d="M887.706,186.117a46.146,46.146,0,0,1-9.578-5.305c-1.507-1.045-2.939-2.172-4.334-3.358-.7-.6-1.4-1.209-2.087-1.825a5.423,5.423,0,0,0-1.886-1.4c-.4-.121-.619.311-.485.63a5.754,5.754,0,0,0,1.756,1.818q1.053.907,2.128,1.789c1.45,1.184,2.926,2.35,4.439,3.455a33.875,33.875,0,0,0,9.8,5.083c.574.18.787-.681.245-.888Z" transform="translate(-869.296 -174.209)" fill="#36753c"/>
          </g>
          <g id="Grupo_80149" data-name="Grupo 80149" transform="translate(74.431 21.939)">
            <path id="Trazado_113584" data-name="Trazado 113584" d="M887.857,170.781c-4.939-.07-9.87-.473-14.8-.076a39.056,39.056,0,0,0-6.883,1.079,30.99,30.99,0,0,0-3.542,1.159,6.786,6.786,0,0,0-2.661,1.421c-.195.22-.081.653.26.63a12.719,12.719,0,0,0,2.919-.98,31.054,31.054,0,0,1,3.386-.912,58.886,58.886,0,0,1,7.206-1.061c4.7-.4,9.4-.554,14.116-.616a.322.322,0,0,0,0-.644Z" transform="translate(-859.874 -170.532)" fill="#36753c"/>
          </g>
        </g>
        <g id="Grupo_80159" data-name="Grupo 80159" transform="translate(2080.544 296.807) rotate(-97)">
          <path id="Trazado_113591" data-name="Trazado 113591" d="M39.335.161C29.429,1.406,26.678,10.723,27.813,19.453c.975,7.5,6.023,14.736,5.558,22.384-.331,5.433-5.9,4.029-9.66,3.071-4.751-1.21-9.679-2.917-14.651-2.54-3.791.287-7.628,2.313-8.792,6.185-.993,3.3.908,6.3,3.289,8.443,6.96,6.255,17.647,8.934,26.174,12.141,3.163,1.19,13.046,2.49,13.85,6.29.56,2.656-5.256,2.812-6.945,2.934-6.284.461-12.55-.36-18.831-.218-4.13.093-14.55.615-13.612,6.983.641,4.333,5.334,7.718,8.809,9.72a107.362,107.362,0,0,0,16.245,7.532,141.6,141.6,0,0,0,21.8,5.7A162.386,162.386,0,0,0,72.6,111.26c3.32.206,6.641.148,9.958.43a1.679,1.679,0,0,0,1.2,1.411,111.021,111.021,0,0,0,19.437,4.6c5.193.665,10.858.578,15.235-2.679,4.972-3.7,7.868-9.932,11.363-14.9,3.216-4.574,7.128-8.893,9.442-14.027,2.374-5.271,4.7-14.393-1.631-17.937-8.051-4.5-17.47,3.651-25.422,4.487-1.939.2-5.242.026-6.06-2.226-.557-1.538.6-3.335,1.393-4.568,2.385-3.706,5.857-6.76,9.093-9.7,5.608-5.091,12.376-10.748,8.928-19.243-3.921-9.668-16.706-10.167-24.281-4.734-4.226,3.033-6.911,7.575-8.9,12.286a46.264,46.264,0,0,0-2.089,6.217c-.952,3.59-3.3,5.332-6.891,3.019C77.9,50.17,76.068,41.874,73.949,36.2c-2.42-6.475-4.989-12.9-8.681-18.776C59.455,8.18,51.43-1.36,39.335.161Z" transform="translate(0 0)" fill="#add031"/>
          <g id="Grupo_80153" data-name="Grupo 80153" transform="translate(38.261 15.789)">
            <path id="Trazado_113592" data-name="Trazado 113592" d="M.009,1.1a73.132,73.132,0,0,0,3.782,16.9,122.538,122.538,0,0,0,6.94,14.91A178.911,178.911,0,0,0,29.367,60.839a185.064,185.064,0,0,0,23.956,24.18q6.113,5.181,12.6,9.935c4.5,3.294,9.535,7.366,15.075,8.6.728.163,1.393-.763.772-1.326-3.93-3.553-9-5.924-13.325-8.983-4.525-3.2-8.919-6.62-13.174-10.173A166.468,166.468,0,0,1,32.824,60.053,180.31,180.31,0,0,1,14.73,32.886C9.361,23.056,4.279,11.887,2.235.8,2.009-.437-.159-.167.009,1.1Z" fill="#4f9638"/>
          </g>
          <g id="Grupo_80154" data-name="Grupo 80154" transform="translate(105.377 73.228)">
            <path id="Trazado_113593" data-name="Trazado 113593" d="M1.625,30.172c3.2-4.989,6.226-10.1,9.488-15.049,1.593-2.418,3.242-4.8,5-7.1C17.963,5.609,20.108,3.342,21.73.765c.255-.4-.27-.981-.682-.682A30.7,30.7,0,0,0,15.1,6.41C13.255,8.8,11.522,11.28,9.859,13.8,6.5,18.9,3.418,24.161.139,29.3c-.6.94.891,1.8,1.486.871Z" fill="#4f9638"/>
          </g>
          <g id="Grupo_80155" data-name="Grupo 80155" transform="translate(56.935 11.841)">
            <path id="Trazado_113594" data-name="Trazado 113594" d="M7.866,49.738c2.905-7.88,2.3-16.84.9-24.964A102.048,102.048,0,0,0,5.487,11.261C4.352,7.668,3.2,3.253.895.208.593-.192-.141.014.024.577,1.075,4.1,2.9,7.432,4.056,10.953a102.839,102.839,0,0,1,3.352,13.07c1.538,8.208,2.74,17.51.107,25.62-.073.224.27.311.351.1Z" fill="#4f9638"/>
          </g>
          <g id="Grupo_80156" data-name="Grupo 80156" transform="translate(3.492 51.423)">
            <path id="Trazado_113595" data-name="Trazado 113595" d="M52.727,9.422c-4.725-.438-9.357-.6-14.068-1.26-4.5-.624-9.038-.862-13.525-1.564a120.12,120.12,0,0,1-13.578-2.85C7.853,2.717,4.35.21.484,0A.5.5,0,0,0,.231.932c7.427,4.737,16.8,6.426,25.387,7.6,4.252.58,8.539.923,12.811,1.315,4.789.438,9.511.081,14.3.345.5.026.488-.726,0-.772Z" fill="#4f9638"/>
          </g>
          <g id="Grupo_80157" data-name="Grupo 80157" transform="translate(12.278 85.443)">
            <path id="Trazado_113596" data-name="Trazado 113596" d="M.35,1.314c10.008,4.757,21,6.655,31.979,7.761A120.311,120.311,0,0,0,50.1,9.287c2.877-.139,5.753-.322,8.629-.45,2.58-.116,5.477.348,7.793-.9a.733.733,0,0,0,0-1.254c-2.049-1.051-4.3-.624-6.56-.534-2.876.116-5.752.276-8.629.4a141,141,0,0,1-17.263-.128A147.244,147.244,0,0,1,.892.032C.143-.206-.379.969.35,1.314Z" fill="#4f9638"/>
          </g>
          <g id="Grupo_80158" data-name="Grupo 80158" transform="translate(82.29 33.482)">
            <path id="Trazado_113597" data-name="Trazado 113597" d="M.677,49.757c2.136-5.2,4.354-10.3,6.943-15.293A91.262,91.262,0,0,1,16.6,20.9c3.318-4.327,7.294-7.668,11.488-11.093,1.9-1.544,3.631-3.271,5.552-4.783,1.721-1.353,4.151-2.261,5.642-3.8A.709.709,0,0,0,38.969.047C35.01-.574,30.7,5.071,28.082,7.373c-2.026,1.782-4.261,3.291-6.214,5.163-2.18,2.09-4.073,4.438-6.127,6.647A56.026,56.026,0,0,0,6.11,33.106C3.577,38.351,1.9,44.074.021,49.577c-.145.421.494.575.656.18Z" fill="#4f9638"/>
          </g>
        </g>
        <g id="Grupo_86301" data-name="Grupo 86301" transform="matrix(-0.966, -0.259, 0.259, -0.966, 2165.347, 683.305)">
          <path id="Trazado_113563-2" data-name="Trazado 113563" d="M187.016,110.448a22.92,22.92,0,0,0,5.512-17.309c-.638-7.5-4.639-13.115-9.74-18.355a51.131,51.131,0,0,0-6.863-5.892h-.02a69.123,69.123,0,0,0-6.713-4.3h-.02c-2.506-1.436-5.1-2.74-7.745-4.005-4.234-2.022-8.549-3.808-12.812-5.731-4.3-1.965-8-4.387-10.466-8.5-2.273-3.78-3.76-8.058-5.823-11.941l-.792-1.418a20.67,20.67,0,0,0-6.121-6.837c-6.843-4.677-14.584-4.039-22.445-3.673-4.924.243-10.086.183-14.789-1.533-4.061-1.442-7.427-4.22-10.45-7.234-.264-.223-.505-.485-.746-.726-.336-.332-.652-.68-.988-1.01a64.265,64.265,0,0,0-7.6-7.262A23.582,23.582,0,0,0,56.916.441c-9.432-1.155-18.871.233-28.257,1-2.154.167-4.321.253-6.429.626a1.309,1.309,0,0,0-1.2-.865c-3.335-.193-6.21,2.136-8.545,4.285a37.906,37.906,0,0,0-4.771,5.282,34.123,34.123,0,0,0-2.068,3.08l0,.02A40.333,40.333,0,0,0,.02,35.708c.469,14.509,9,28.186,22.836,32.951.549.185,1.12.374,1.712.543l.02,0c.652.173,1.3.348,2,.485,4.363.943,8.929.65,13.357,1.054a45.37,45.37,0,0,1,14.819,3.391,19.07,19.07,0,0,1,3.961,2.4,22.98,22.98,0,0,1,3.112,2.9c.02,0,.02,0,.02.02,3.412,3.691,5.979,8.322,8.505,12.484,3.808,6.246,7.847,12.369,15.109,14.879,8.183,2.85,17.422.457,25.74-.577.817-.095,1.611-.191,2.424-.266.694-.087,1.386-.151,2.076-.215a49.729,49.729,0,0,1,9.967.048c4.975.61,9.3,2.478,13.813,4.582,5.834,2.718,11.744,5.7,18.006,7.366.692.179,1.384.356,2.08.493a35.222,35.222,0,0,0,5.427.768C172.915,119.485,181.641,116.426,187.016,110.448Z" transform="translate(0.107 0)" fill="#36753c"/>
          <g id="Grupo_80130-2" data-name="Grupo 80130" transform="translate(0 9.361)">
            <path id="Trazado_113564-2" data-name="Trazado 113564" d="M187.176,94.111c-2.6-1.609-4.82-3.82-7.28-5.626C174.557,84.562,168.91,81,163.359,77.391c-17.5-11.373-35.261-22.411-53.277-32.945-6.827-3.991-13.641-7.994-20.8-11.361-5.842-2.748-11.786-5.268-17.75-7.73C57.6,19.609,43.529,14.212,29.406,8.97c-6.161-2.285-12.335-4.7-18.615-6.652C8.735,1.68,6.677,1.028,4.575.557A22.127,22.127,0,0,0,2.38.141C1.952.089.685-.111,1.568.083.125-.233-.689,1.947.767,2.267c-.151-.034.559.241.851.384.523.255,1.044.507,1.575.748C4.827,4.14,6.5,4.778,8.17,5.429c5.1,1.989,10.283,3.762,15.421,5.648C37.516,16.193,51.41,21.4,65.182,26.923A348.14,348.14,0,0,1,101.336,43.4Q130.085,58.938,157.6,76.518c9.637,6.161,19,13.081,29.329,18.062.271.133.5-.31.243-.469Z" fill="#4f9638"/>
          </g>
          <g id="Grupo_80131-2" data-name="Grupo 80131" transform="translate(119.644 58.832)">
            <path id="Trazado_113565-2" data-name="Trazado 113565" d="M2.751,2.28A6.384,6.384,0,0,1,.43,2.292a.491.491,0,0,1-.167-.921A2.468,2.468,0,0,1,.79,1.111C3.083-.033,6.517.186,8.946.083a94.718,94.718,0,0,1,9.881.1,138.5,138.5,0,0,1,20.45,2.9q5.235,1.156,10.358,2.665h.02a69.105,69.105,0,0,1,6.713,4.3A160.936,160.936,0,0,0,38.714,5.042,138.681,138.681,0,0,0,18.672,2.069a91.993,91.993,0,0,0-9.416-.346c-1.72.04-3.424.163-5.138.366C3.652,2.131,3.2,2.216,2.751,2.28Z" fill="#4f9638"/>
          </g>
          <g id="Grupo_80132-2" data-name="Grupo 80132" transform="translate(89.312 44.682)">
            <path id="Trazado_113566-2" data-name="Trazado 113566" d="M24.427,61.3c-.42-.539-.839-1.1-1.257-1.637A105.875,105.875,0,0,1,11.307,41.572C5.337,29.68-.6,15.671.049,2.061c.02-.483.058-.943.1-1.424A.725.725,0,0,1,1.59.754c-.034.664-.048,1.33-.044,2.016-.026,13.138,5.6,26.535,11.4,38.008A111.809,111.809,0,0,0,24.773,58.8c.583.754,1.169,1.509,1.73,2.281C25.813,61.145,25.121,61.209,24.427,61.3Z" fill="#4f9638"/>
          </g>
          <g id="Grupo_80133-2" data-name="Grupo 80133" transform="translate(139.122 73.085)">
            <path id="Trazado_113567-2" data-name="Trazado 113567" d="M20.559,45.168c-.7-.137-1.388-.314-2.08-.493a102.659,102.659,0,0,1-7.507-12.1,82.739,82.739,0,0,1-6.2-14.958C3.149,12.258,1.962,6.793.238,1.464.176,1.237.091,1.03.029.8c-.207-.664.76-1.151.99-.485.245.686.493,1.372.718,2.056,3.118,9.257,5,18.756,9.43,27.574a104.514,104.514,0,0,0,8.376,13.825C19.887,44.246,20.211,44.717,20.559,45.168Z" fill="#4f9638"/>
          </g>
          <g id="Grupo_80134-2" data-name="Grupo 80134" transform="translate(84.28 32.809)">
            <path id="Trazado_113568-2" data-name="Trazado 113568" d="M48.153,1.6a148.508,148.508,0,0,0-22.258.943A124.49,124.49,0,0,0,13.037,4.776,54.031,54.031,0,0,0,6.149,6.818C4.858,7.3,3.637,7.924,2.363,8.425c-.5.2-1.02.38-1.537.539-.744.2-1.084-.815-.6-1.259l.2-.167c2.925-2.685,7.654-3.752,11.4-4.677A99.946,99.946,0,0,1,25.543.675,151.729,151.729,0,0,1,47.36.178Z" fill="#4f9638"/>
          </g>
          <g id="Grupo_80135-2" data-name="Grupo 80135" transform="translate(53.543 30.039)">
            <path id="Trazado_113569-2" data-name="Trazado 113569" d="M8.4,49.4a22.982,22.982,0,0,0-3.112-2.9A111.241,111.241,0,0,1,.923,26.322c-.973-7.849-1.567-16.374.264-24.2.129-.6.277-1.169.445-1.74.175-.652,1.326-.416,1.191.26-.135.654-.249,1.312-.344,1.969A69,69,0,0,0,1.925,12.6,110.192,110.192,0,0,0,7.183,45.766C7.568,46.989,7.974,48.192,8.4,49.4Z" fill="#4f9638"/>
          </g>
          <g id="Grupo_80136-2" data-name="Grupo 80136" transform="translate(37.531 11.956)">
            <path id="Trazado_113570-2" data-name="Trazado 113570" d="M.076,10.189a6.354,6.354,0,0,1,.372-.6C2.61,6.6,7.929,5.22,11.1,4.168A91.029,91.029,0,0,1,23.591,1.032,77.187,77.187,0,0,1,38.569.018c.336.33.652.678.988,1.01.241.241.483.5.746.726a.433.433,0,0,1-.161.008A78.781,78.781,0,0,0,23.653,2.975a90.192,90.192,0,0,0-12.711,3.42A49.817,49.817,0,0,0,5.278,8.779c-.949.487-1.865,1.078-2.832,1.563h-.02a9.219,9.219,0,0,1-1.794.7C.116,11.18-.138,10.575.076,10.189Z" fill="#36753c"/>
          </g>
          <g id="Grupo_80137-2" data-name="Grupo 80137" transform="translate(18.104 18.093)">
            <path id="Trazado_113571-2" data-name="Trazado 113571" d="M6.571,51.11c-.591-.169-1.163-.358-1.712-.543-.815-3.357-1.464-6.761-2.054-10.181A164.907,164.907,0,0,1,.351,20.81C.029,14.387-.586,7.111,1.377.873A3.152,3.152,0,0,1,1.514.441c.27-.847,1.563-.356,1.292.489a2.8,2.8,0,0,0-.115.414A34.77,34.77,0,0,0,1.645,11.41c.018,3.715.08,7.415.34,11.13.426,5.888,1.382,11.737,2.378,17.571C4.99,43.8,5.676,47.485,6.571,51.11Z" fill="#36753c"/>
          </g>
        </g>
        <g id="Grupo_86302" data-name="Grupo 86302" transform="matrix(-0.574, -0.819, 0.819, -0.574, 2163.333, 667.701)">
          <path id="Trazado_113579-2" data-name="Trazado 113579" d="M80.089,5.266A227.745,227.745,0,0,0,50.4,15.1,292.744,292.744,0,0,0,21.684,28.634,46.231,46.231,0,0,0,10.76,36.445c-3.073,3.091-5.985,6.893-9.7,9.238-2.138,1.351-.8,4.977,1.771,4.2.328-.1.61-.249.923-.367,8.979,3.845,17.637,8.615,26.258,13.195,8.066,4.285,16.277,8.263,24.066,13.046,12.979,7.971,28.254,19.581,44.4,18.409,7.133-.519,13.674-4.227,19.223-8.533,6.408-4.971,11.257-12.885,19.605-14.671,14.13-3.022,28.2,4.312,42.3,4.336,8.821.012,22.7-1.02,25.648-11.342,3.407-11.931-7.218-23.061-17.03-27.671-5.922-2.779-12.29-4.47-18.591-6.143-7.5-1.992-14.039-4.078-20.358-8.819C143.125,16.7,137.72,11.17,131.41,6.745A37.943,37.943,0,0,0,108.574,0C99.023.125,89.269,2.864,80.089,5.266Z" transform="translate(1.473 0)" fill="#add031"/>
          <g id="Grupo_80145-2" data-name="Grupo 80145" transform="translate(0 39.565)">
            <path id="Trazado_113580-2" data-name="Trazado 113580" d="M202.606,18.823C190.353,15.677,178.485,11.168,166.1,8.5a349.021,349.021,0,0,0-38.74-5.73C113.876,1.435,100.317,1.481,86.8.627a252.593,252.593,0,0,0-40.783.4C31.037,2.486,16.16,3.646,1.368,6.488c-1.779.34-1.867,3.416,0,3.681C7.177,10.995,13.126,8.6,18.89,7.925,25.832,7.12,32.75,6.68,39.71,6.1,53.1,4.985,66.069,3.88,79.527,4.593c26.851,1.421,54.087,1.136,80.7,5.466,14.233,2.314,27.8,7.552,41.886,10.556,1.163.249,1.661-1.491.495-1.792Z" fill="#36753c"/>
          </g>
          <g id="Grupo_80146-2" data-name="Grupo 80146" transform="translate(50.801 43.097)">
            <path id="Trazado_113581-2" data-name="Trazado 113581" d="M57.693,42.746A176.5,176.5,0,0,1,27.062,23.329,177.121,177.121,0,0,1,13.518,11.68C11.468,9.718,9.482,7.7,7.5,5.664,5.562,3.672,3.664,1.27,1.1.071.585-.172-.187.238.041.888c.823,2.347,2.6,4.087,4.288,5.858,2.18,2.284,4.51,4.44,6.851,6.559,4.495,4.078,9.119,8.014,13.927,11.719A158.647,158.647,0,0,0,56.782,44.307c1.042.468,1.968-1.042.911-1.561Z" fill="#36753c"/>
          </g>
          <g id="Grupo_80147-2" data-name="Grupo 80147" transform="translate(73.447 12.094)">
            <path id="Trazado_113582-2" data-name="Trazado 113582" d="M1.331,29.744c8.311-6.168,16.593-12.241,25.76-17.1a105.248,105.248,0,0,1,14.47-6.368c4.993-1.755,10.2-2.879,15.087-4.892A.7.7,0,0,0,56.463.017C51.212-.178,46.08,1.332,41.148,3.026A110.857,110.857,0,0,0,26.274,9.413,100.286,100.286,0,0,0,.237,28.326c-.683.7.24,2.05,1.093,1.418Z" fill="#36753c"/>
          </g>
          <g id="Grupo_80148-2" data-name="Grupo 80148" transform="translate(153.825 48.074)">
            <path id="Trazado_113583-2" data-name="Trazado 113583" d="M30.97,20.032a77.628,77.628,0,0,1-16.113-8.925C12.322,9.349,9.913,7.454,7.566,5.459c-1.185-1.008-2.351-2.035-3.51-3.07A9.123,9.123,0,0,0,.882.035C.214-.168-.159.557.066,1.095c.549,1.3,1.913,2.159,2.955,3.058Q4.792,5.679,6.6,7.162c2.439,1.992,4.923,3.954,7.468,5.812a56.985,56.985,0,0,0,16.49,8.551c.966.3,1.324-1.145.413-1.494Z" fill="#36753c"/>
          </g>
          <g id="Grupo_80149-2" data-name="Grupo 80149" transform="translate(125.213 36.907)">
            <path id="Trazado_113584-2" data-name="Trazado 113584" d="M47.074.418C38.766.3,30.47-.378,22.173.29A65.7,65.7,0,0,0,10.594,2.106a52.135,52.135,0,0,0-5.958,1.95C3.118,4.66,1.256,5.2.16,6.446c-.328.37-.137,1.1.437,1.06C2.3,7.378,3.889,6.4,5.508,5.857a52.24,52.24,0,0,1,5.7-1.534A99.064,99.064,0,0,1,23.327,2.538c7.911-.68,15.816-.932,23.747-1.036a.542.542,0,0,0,0-1.084Z" fill="#36753c"/>
          </g>
        </g>
      </g>
    </g>
  </g>
</svg>
