<svg xmlns="http://www.w3.org/2000/svg" xmlns:xlink="http://www.w3.org/1999/xlink" width="1320" height="570" viewBox="0 0 1320 570">
  <defs>
    <clipPath id="clip-path">
      <path id="Rectangle_652" data-name="Rectangle 652" d="M20.787,0H1299.213A20.951,20.951,0,0,1,1320,21.111V548.889A20.951,20.951,0,0,1,1299.213,570H20.787A20.951,20.951,0,0,1,0,548.889V21.111A20.951,20.951,0,0,1,20.787,0Z" fill="none"/>
    </clipPath>
    <clipPath id="clip-path-2">
      <path id="Rectangle_652-2" data-name="Rectangle 652" d="M1299.213,0H20.787C9.307,0,0,8.4,0,18.772V488.063c0,10.367,9.307,18.772,20.787,18.772H1299.213c11.48,0,20.787-8.4,20.787-18.772V18.772C1320,8.4,1310.693,0,1299.213,0Z" transform="translate(144.333 70)" fill="#0b481e"/>
    </clipPath>
    <clipPath id="clip-path-3">
      <path id="Rectangle_652-3" data-name="Rectangle 652" d="M1299.213,0H20.787A20.951,20.951,0,0,0,0,21.111V548.889A20.951,20.951,0,0,0,20.787,570H1299.213A20.951,20.951,0,0,0,1320,548.889V21.111A20.951,20.951,0,0,0,1299.213,0Z" transform="translate(144.333 70)" fill="#0b481e"/>
    </clipPath>
  </defs>
  <g id="Grupo_1099309" data-name="Grupo 1099309" transform="translate(12619.333 12305.009)">
    <path id="Rectangle_652-4" data-name="Rectangle 652" d="M1299.213,0H20.787A20.951,20.951,0,0,0,0,21.111V548.889A20.951,20.951,0,0,0,20.787,570H1299.213A20.951,20.951,0,0,0,1320,548.889V21.111A20.951,20.951,0,0,0,1299.213,0Z" transform="translate(-12619.333 -12305.009)" fill="#0b481e"/>
    <g id="Enmascarar_grupo_45" data-name="Enmascarar grupo 45" transform="translate(-12619.333 -12305.009)" clip-path="url(#clip-path)">
      <g id="Grupo_78299" data-name="Grupo 78299" transform="translate(1421.653 879.114) rotate(172)">
        <path id="Trazado_113496" data-name="Trazado 113496" d="M10.216,322.005c18.349-38.966,51.8-64.935,88.964-77.572,44.061-14.982,86.134-8.116,130.008-1.315,40.452,6.27,85.533,7.437,120.207-22.658,53.82-46.713,60.25-135.539,109.675-187.717C483.521,6.928,516.512-8.434,549.591-9.409c36.57-1.077,82.566,15.946,100.688,53.393,17.6,36.361-1.365,73.193,4.509,110.625C666.274,227.819,756.913,221.9,800.117,257.6c20.644,17.055,34.318,42.8,43.543,69.739,10.239,29.9,15.552,63.317,7.829,94.791-12.792,52.137-58.15,72.348-102.064,74.965-32.631,1.946-64.908-6.895-94.634-20.9-26.289-12.383-50.945-28.8-77.864-39.487-66.476-26.39-132.916,9.878-191.214,48.649C310.876,535.128,233.635,583.2,145.3,568.027,77.8,556.436,8.262,511.022-3.783,430.21c-5.1-34.186-1.934-70.589,11.47-102.522Q8.9,324.8,10.216,322.005Z" transform="translate(589.607 589.164)" fill="#fff" opacity="0.132" style="mix-blend-mode: overlay;isolation: isolate"/>
        <path id="Trazado_113497" data-name="Trazado 113497" d="M10.216,322.005c18.349-38.966,51.8-64.935,88.964-77.572,44.061-14.982,86.134-8.116,130.008-1.315,40.452,6.27,85.533,7.437,120.207-22.658,53.82-46.713,60.25-135.539,109.675-187.717C483.52,6.928,516.513-8.434,549.591-9.409c36.57-1.076,82.566,15.946,100.688,53.392,17.6,36.363-1.365,73.194,4.509,110.629,5.8,36.93,35.562,56.293,64.907,67.407,23.218,8.794,47.807,14.3,68.975,27.91,36.175,23.26,58,68.306,64.257,114.909,3.76,27.984,2.1,58.386-11.5,82.9-16.742,30.167-49.045,46.228-80.284,49.084-35.253,3.222-74.294-5.523-106.347-20.622-26.29-12.383-50.945-28.8-77.864-39.487-66.478-26.39-132.916,9.878-191.216,48.649C310.876,535.128,233.635,583.2,145.3,568.027,77.8,556.436,8.261,511.021-3.783,430.21c-5.1-34.186-1.934-70.589,11.471-102.522Q8.9,324.8,10.216,322.005Z" transform="translate(125.456 -2.15)" fill="#fff" opacity="0.11" style="mix-blend-mode: overlay;isolation: isolate"/>
        <path id="Trazado_113498" data-name="Trazado 113498" d="M10.215,322.005c18.349-38.967,51.8-64.935,88.964-77.574,44.061-14.982,86.134-8.115,130.008-1.314,40.453,6.27,85.533,7.437,120.207-22.659,53.82-46.713,60.251-135.537,109.675-187.717,24.452-25.814,57.444-41.176,90.523-42.15,36.569-1.077,82.566,15.946,100.688,53.392,17.6,36.363-1.365,73.194,4.508,110.626C666.274,227.817,756.913,221.9,800.117,257.6c20.644,17.055,34.318,42.8,43.542,69.739,10.239,29.9,15.553,63.316,7.831,94.791-12.792,52.137-58.15,72.346-102.064,74.965-32.633,1.946-64.908-6.895-94.634-20.9-26.289-12.384-50.945-28.8-77.864-39.487-66.478-26.391-132.916,9.878-191.214,48.649C310.875,535.127,233.634,583.2,145.3,568.026c-67.5-11.59-137.039-57-149.085-137.818-5.094-34.185-1.933-70.587,11.47-102.521Q8.9,324.8,10.215,322.005Z" transform="translate(77.866 12.594)" fill="#0b481e" opacity="0.22" style="mix-blend-mode: overlay;isolation: isolate"/>
        <path id="Trazado_113499" data-name="Trazado 113499" d="M10.216,322.005c18.349-38.967,51.8-64.937,88.964-77.574,44.061-14.982,86.134-8.115,130.008-1.315,40.453,6.27,85.533,7.437,120.207-22.658,53.82-46.713,60.251-135.537,109.675-187.717,24.452-25.814,57.444-41.177,90.522-42.15,36.57-1.078,82.567,15.945,100.688,53.392,17.6,36.361-1.363,73.194,4.509,110.625C666.275,227.818,756.914,221.9,800.117,257.6c20.643,17.057,34.316,42.8,43.542,69.739,10.239,29.9,15.553,63.317,7.829,94.791-12.791,52.137-58.15,72.348-102.064,74.966-32.632,1.946-64.908-6.895-94.633-20.9-26.29-12.385-50.945-28.8-77.864-39.488-66.478-26.39-132.916,9.878-191.214,48.649-74.838,49.77-152.079,97.837-240.414,82.669-67.5-11.591-137.038-57-149.084-137.818-5.1-34.186-1.933-70.587,11.47-102.522Q8.9,324.8,10.216,322.005Z" transform="translate(552.905 850.859)" fill="#fff" opacity="0.17" style="mix-blend-mode: overlay;isolation: isolate"/>
        <path id="Trazado_113500" data-name="Trazado 113500" d="M631.461,132.271c-3.9,33.434-21.926,61.985-45.882,82.048-28.4,23.787-60.649,31.28-94.189,39.352-30.925,7.442-63.979,19.921-81.894,51.8-27.809,49.482-10.968,115.237-34.257,167.35-11.522,25.781-31.784,46.573-55.594,57.044-26.323,11.578-63.883,12.928-86.126-8.638-21.6-20.942-16.739-53.022-30.075-78.2-26.083-49.236-90.539-18.207-130.592-31.107-19.139-6.163-35.313-20.629-48.546-37.271C9.621,356.181-2.337,333.728-4.347,308.819c-3.329-41.26,24.748-69.188,56.036-84.043,23.25-11.039,48.854-14.218,73.854-12.934,22.111,1.136,44.011,5.655,66.168,5.385,54.717-.667,94.23-46.368,127.217-91.462C361.275,67.876,405.781,10.5,473.668-4.688c51.875-11.608,113.427.5,141.758,55.035,11.985,23.071,18.5,50.175,16.495,77.093Q631.741,129.871,631.461,132.271Z" transform="translate(-8.717 569.559)" fill="#0b481e" opacity="0.15" style="mix-blend-mode: color-burn;isolation: isolate"/>
        <path id="Trazado_720040" data-name="Trazado 720040" d="M24.879-.426C38.62-.662,49.568,11.617,49.332,27S37.767,55.043,24.027,55.279-.662,43.235-.426,27.853,11.139-.191,24.879-.426Z" transform="translate(572.204 827.373)" fill="#524480" opacity="0.23" style="mix-blend-mode: color-dodge;isolation: isolate"/>
        <path id="Trazado_720041" data-name="Trazado 720041" d="M13.955-.033C21.663-.051,27.9,5.491,27.878,12.345S21.6,24.77,13.89,24.788-.051,19.264-.033,12.41,6.248-.015,13.955-.033Z" transform="translate(555.998 919.891) rotate(99.217)" fill="#fff" opacity="0.17" style="mix-blend-mode: overlay;isolation: isolate"/>
        <path id="Trazado_720042" data-name="Trazado 720042" d="M13.953-.067C21.66-.1,27.877,5.424,27.84,12.279S21.526,24.722,13.82,24.758-.1,19.268-.067,12.413,6.247-.03,13.953-.067Z" transform="translate(572.894 533.534) rotate(100.476)" fill="#fff" opacity="0.17" style="mix-blend-mode: overlay;isolation: isolate"/>
        <path id="Trazado_720043" data-name="Trazado 720043" d="M24.879-.426C38.62-.662,49.568,11.617,49.332,27S37.767,55.043,24.027,55.279-.662,43.235-.426,27.853,11.139-.191,24.879-.426Z" transform="translate(576.79 456.966)" fill="#fff" opacity="0.17" style="mix-blend-mode: overlay;isolation: isolate"/>
        <path id="Trazado_113525" data-name="Trazado 113525" d="M70.434.132C109.334.2,140.927,28.305,141,62.9s-31.4,62.574-70.3,62.5S.2,97.224.132,62.633,31.534.059,70.434.132Z" transform="translate(1190.31 623.629) rotate(97.033)" fill="#0b481e" opacity="0.15" style="mix-blend-mode: color-dodge;isolation: isolate"/>
        <path id="Trazado_720045" data-name="Trazado 720045" d="M70.434.127C109.334.2,140.926,28.3,141,62.888s-31.407,62.576-70.307,62.506S.2,97.224.127,62.633,31.535.057,70.434.127Z" transform="translate(280.284 861.489) rotate(97.065)" fill="#fff" opacity="0.17" style="mix-blend-mode: overlay;isolation: isolate"/>
        <path id="Trazado_720044" data-name="Trazado 720044" d="M0,0,945.15-16.195l-10.8,705.4L-10.8,705.4Z" transform="translate(217.499 353.426)" fill="none"/>
      </g>
    </g>
    <g id="Enmascarar_grupo_51-2" data-name="Enmascarar grupo 51" transform="translate(-12763.666 -12375.009)" clip-path="url(#clip-path-3)">
      <g id="Grupo_80163" data-name="Grupo 80163" transform="translate(15.58 60.272)">
        <g id="Grupo_80112" data-name="Grupo 80112" transform="translate(0 595.655) rotate(-49)">
          <path id="Trazado_113526" data-name="Trazado 113526" d="M169.624-3.994c-5.918,5.394-9.4,12.745-12.517,19.75-1.628,3.664-3.072,7.4-4.786,11.031a29.539,29.539,0,0,1-3.772,6.208c-.748.917-1.62,1.733-2.235,2.671a4.085,4.085,0,0,1-3.132-.7c-1.461-1.166-1.213-3.381-.951-5.144a35.083,35.083,0,0,1,3.9-11.9A50.507,50.507,0,0,1,154.37,7.428a49.853,49.853,0,0,1,4.621-4.223c1.44-1.14,3.251-2.139,4.377-3.624,4.643-6.112-7.619-6.015-10.563-5.8-7.132.525-14.468,2.407-20.636,6.793-10.854,7.72-17.018,21.137-21.378,32.837-2.594,6.966-4.838,13.984-7.957,20.809a74.29,74.29,0,0,1-5.116,9.9c-.573.873-1.449,2.4-2.51,1.911-.946-.435-.991-3.494-1.1-4.476-1.855-16.353,5.483-33.45,15.542-47.512a55.514,55.514,0,0,1,7.4-8.48c1.49-1.4,3.684-3.568,2.834-5.635-2.039-4.946-12.654-1.445-16.455.029C90.736,4.879,76.7,14.337,72.076,27.57c-2.891,8.276-2.876,16.845-2.852,25.168.023,9.17-.086,18.387.333,27.505.239,5.167.5,10.318-1.6,15.466-.71,1.741-1.835,4.258-3.763,5.053-2.811,1.16-4.886-1.89-5.954-3.833-3.525-6.423-2.875-14.665-2.807-22.077.148-16.77,2.119-33.47,8.107-49.941A2.182,2.182,0,0,0,62.395,21.1c-5.8-.717-11.9,3.522-16.841,6.63A66.967,66.967,0,0,0,29.521,41.537C20.34,52.551,17.43,66.477,18.124,79.49c.821,15.35,7.6,29.605,11.27,44.1,1.065,4.205,2.805,9.238,2.284,13.812-.869,7.669-10.542-1.1-12.29-3.513A71.415,71.415,0,0,1,9.328,113.5c-2.44-7.8-3.206-15.949-4.474-24.086a.987.987,0,0,0-.324-.582c-.681-2.26-3.08-2.418-5.224-.017-4.376,4.9-4.941,12.2-5.478,18.009-1.335,14.434-.678,29.555,5.317,42.147,5.685,11.95,15.558,21.766,26.7,28.772a94.024,94.024,0,0,0,18.5,9.178c6.7,2.363,13.977,3.255,21.221,3.865,7.835.661,15.815,1.382,23.8.975,5.948-.3,13.1-1.041,18.532-4.561,4.028-.759,8.037-1.589,12-2.456,18.548-4.048,38.639-11.241,52.031-26.306,4.55-5.119,9.611-12.328,10.543-18.918.354-2.5-.269-5.144-2.757-6.022-3.465-1.225-7.862,1.229-11.273,2.464-10.212,3.7-21.235,4.335-31.619,4.383-9.34.04-19.045-.929-26.873-5.382-3.957-2.254-8.09-5.644-9.988-9.867-2.846-6.335,4.367-9.476,9.825-9.184,5.872.316,11.507,2.083,17.324,2.744,6.164.7,12.4.872,18.649,1.124,19.651.79,41.129-3.6,56.777-18.664,5.569-5.363,10.6-12.589,12.445-19.857.833-3.282.854-6.909-1.568-9.174-2.955-2.764-7.42-1.643-11,.4-5.392,3.076-10.271,7.049-15.737,10.067A136.494,136.494,0,0,1,168.962,91.1c-5.69,2.137-11,2.593-16.8,2.84-4.639.2-9.327.582-13.841-.106-1.51-.231-11.06-3.605-8.28-5.294,2.3-1.4,7.016-.611,9.528-.713,6.2-.252,12.463-.167,18.693-1.284,6.325-1.135,12.593-3.49,18.708-5.736,10.011-3.678,19.392-7.979,27.678-15.146a63.742,63.742,0,0,0,17.413-23.647c1.286-3.1,2.651-6.84.716-9.565a2.209,2.209,0,0,0-2.724-.381c-3.964,2.548-8.447,3.813-12.521,6.121-5.084,2.88-9.925,5.887-15.378,7.939-6.114,2.3-12.34,2.022-17.26-.653-.509-3.08,2.206-5.729,5.117-7.257,6.1-3.2,12.782-4.706,18.878-8.079A39.164,39.164,0,0,0,213.1,17.283a66.825,66.825,0,0,0,5.162-10.269c1.513-3.535,4.038-8.689,3.094-12.334a1.491,1.491,0,0,0-.126-.289.5.5,0,0,0-.152-.526c-2.9-2.5-7.427-3.089-11.3-3.571-4.778-.593-9.673-.939-14.529-1.141C186.495-11.216,176.881-10.612,169.624-3.994Zm-70,150.075c4.636.631,17.133,5.083,13.605,11.769-3.576,6.771-16.127,5.416-21.523,4.892-8.927-.863-22.261-2.918-29.081-8.563-3.661-3.033-1.272-5.126,2.67-6.017a116.643,116.643,0,0,1,14.289-2.351A86.076,86.076,0,0,1,99.622,146.081Z" fill="#4f9638"/>
          <g id="Grupo_80111" data-name="Grupo 80111" transform="translate(27.659 6.654)" opacity="0.7">
            <path id="Trazado_113527" data-name="Trazado 113527" d="M133.434-2.654C129.342.665,125.292,4.039,121.26,7.431,110.336,16.62,99.384,25.749,88.614,35.115,78.732,43.709,69.046,52.588,59.688,61.74,48.029,73.143,36.545,85,25.736,97.2a73.048,73.048,0,0,1-4.8-14.226c-.116-.465-.967-.458-.963.116a29.4,29.4,0,0,0,1.308,8.871,44.485,44.485,0,0,0,2.9,6.976c-.28.321-.573.632-.853.952C12.507,112.285,1.617,124.8-7.9,138.154c-.842,1.179.835,2.24,1.71,1.088,9.057-11.923,19.622-22.94,29.872-33.915C35.6,92.567,47.9,80.068,60.192,67.656c18.792-18.967,38.924-36.926,59-54.542C126.748,6.479,134.876.581,142.519-5.9c1.323-1.12.039-2.735-1.38-2.14C138.269-6.831,135.859-4.621,133.434-2.654Z" transform="translate(-1.913 32.667)" fill="#0a481c"/>
            <path id="Trazado_113528" data-name="Trazado 113528" d="M2.548,67.619A164.031,164.031,0,0,1,.131,33.191c.177-5.5.624-11.019,1.079-16.53C1.65,11.342,3.064,5.49,2.442.3,2.376-.239,1.548-.249,1.35.284-.562,5.4-.5,11.416-.93,16.639c-.491,5.945-.624,11.85-.587,17.751A175.865,175.865,0,0,0,1.8,67.81C1.885,68.269,2.634,68.082,2.548,67.619Z" transform="translate(12.88 31.839)" fill="#0a481c"/>
            <path id="Trazado_113529" data-name="Trazado 113529" d="M-2.2,39.54c-.76,8.564-1.133,16.594-.163,24.949.776,6.7,1.5,13.3,4.337,19.3.189.4.885.013.661-.351C-.688,78-.1,70.464-.733,64.075a121.381,121.381,0,0,1,.245-23.9C.835,26.409,4.093,12.823,11.2.152c.3-.542-.215-1.021-.743-.638C5.843,2.844,4.732,11.057,3.261,15.9,2.208,19.37.6,22.715-.354,26.2-1.556,30.6-1.81,35.119-2.2,39.54Z" transform="translate(55.154 9.01)" fill="#0a481c"/>
            <path id="Trazado_113530" data-name="Trazado 113530" d="M4.894,9.483c-1.284,3.353-2.605,6.7-3.746,10.086-2.207,6.565-3.813,13.26-2.94,19.868.138,1.038,1.813.616,1.675-.428C-1.042,32.148.8,25.1,3.317,18.343,4.525,15.1,5.865,11.893,7.146,8.67,8.2,6.025,10.089,2.6,9.795-.145c-.05-.476-.689-.511-.98-.14a14.986,14.986,0,0,0-1.965,4.5C6.23,5.979,5.564,7.733,4.894,9.483Z" transform="translate(92.674 17.348)" fill="#0a481c"/>
            <path id="Trazado_113531" data-name="Trazado 113531" d="M8.862,2.72a44.756,44.756,0,0,0-3.92,4.561A75.464,75.464,0,0,0-.964,17.389c-.336.639.649,1.062,1.052.474,2.157-3.133,4.525-6.106,6.928-9.075,1.167-1.444,2.37-2.88,3.661-4.223C11.938,3.253,13.8,1.951,14.5.284a.774.774,0,0,0-.923-1.059C11.766-.44,10.13,1.423,8.862,2.72Z" transform="translate(105.295 -6.067)" fill="#0a481c"/>
            <path id="Trazado_113532" data-name="Trazado 113532" d="M32.134,8.378C21.95,10.63,10.5,11.659.785,9.318c-1.224-.295-2,1.6-.783,1.92,9.847,2.576,20.993,1.322,31.384-.709a70.679,70.679,0,0,0,15.2-5.081C51.649,3.175,57.317.8,61.7-2.756a.431.431,0,0,0-.353-.769C56.594-2.3,52.157.614,47.669,2.745A73.42,73.42,0,0,1,32.134,8.378Z" transform="translate(115.66 50.214)" fill="#0a481c"/>
            <path id="Trazado_113533" data-name="Trazado 113533" d="M-.589,14.356a.732.732,0,1,0,.958,1.1C7.46,9.149,15.51,4.133,23.552-.764c.3-.187.2-.682-.168-.573A45.227,45.227,0,0,0,10.72,5.2,95.368,95.368,0,0,0-.589,14.356Z" transform="translate(146.319 3.98)" fill="#0a481c"/>
            <path id="Trazado_113534" data-name="Trazado 113534" d="M5.852.607c-.7.451-1.41.91-2.085,1.394-1.3.941-2.589,1.884-3.928,2.774-.258.171-.106.525.184.4C1.51,4.52,3.049,3.894,4.489,3.12A19.3,19.3,0,0,0,6.613,1.785,11.664,11.664,0,0,0,8.294.1c.276-.307-.126-.7-.452-.517C7.192-.058,6.474.2,5.852.607Z" transform="translate(171.902 -3.847)" fill="#0a481c"/>
            <path id="Trazado_113535" data-name="Trazado 113535" d="M17.246,7.04c-2.192-1.773-5.326-2.376-8.1-3.08-2.875-.73-5.756-1.7-7.792-3.791C.7-.5-.487.525.122,1.247,2.07,3.561,4.842,4.815,7.771,5.724c2.911.9,5.957,1.574,8.95,2.262A.558.558,0,0,0,17.246,7.04Z" transform="translate(76.848 91.013)" fill="#0a481c"/>
            <path id="Trazado_113536" data-name="Trazado 113536" d="M57.239,1.473A50,50,0,0,1,49.61,6.529a67.525,67.525,0,0,1-16.434,6.1A91,91,0,0,1-.467,14c-.365-.053-.537.582-.172.651a86.556,86.556,0,0,0,34.955-.324A63.693,63.693,0,0,0,51.267,8.073C55.745,5.625,62.018,1.937,64.2-2.869a.575.575,0,0,0-.836-.712C61.085-2.234,59.294-.192,57.239,1.473Z" transform="translate(104.414 86.106)" fill="#0a481c"/>
          </g>
        </g>
        <g id="Grupo_80114" data-name="Grupo 80114" transform="translate(1328.464 9.728)">
          <path id="Trazado_113537" data-name="Trazado 113537" d="M1071.836,208.312c3.867-2.762,6.445-7.247,8.784-11.553,1.223-2.251,2.34-4.582,3.612-6.8a17.316,17.316,0,0,1,2.665-3.657,18.178,18.178,0,0,0,1.508-1.477,2.542,2.542,0,0,1,1.787.978c.772,1.031.466,2.508.182,3.673a23.535,23.535,0,0,1-3.156,7.535,27.614,27.614,0,0,1-5.6,5.884,25.255,25.255,0,0,1-3.02,2.163,11.541,11.541,0,0,0-2.833,1.791c-3.169,3.451,4.035,5.324,5.779,5.64,4.223.766,8.667.638,12.607-1.394,6.933-3.573,11.526-11.788,14.936-19.115,2.031-4.361,3.858-8.813,6.186-13a45.1,45.1,0,0,1,3.724-5.972c.4-.507,1.025-1.417,1.612-.914.524.449.328,2.55.321,3.241-.1,11.493-5.652,22.045-12.581,30.088a29.593,29.593,0,0,1-4.962,4.638c-.978.722-2.423,1.862-2.074,3.413.837,3.71,7.323,2.99,9.66,2.581,7.809-1.363,16.734-5.625,20.411-13.959,2.3-5.211,2.914-11.082,3.508-16.788.652-6.285,1.388-12.582,1.805-18.895.235-3.577.457-7.146,2.065-10.34.543-1.08,1.388-2.627,2.577-2.867,1.734-.35,2.73,2.067,3.215,3.568,1.6,4.956.62,10.5.042,15.566-1.309,11.464-3.68,22.592-8.393,32.928a1.7,1.7,0,0,0,.394,2.792c3.352,1.408,7.243-.531,10.367-1.881a33.542,33.542,0,0,0,10.416-6.926c6.191-6.094,8.911-15.174,9.449-24.2.636-10.645-2.3-21.479-3.4-31.991-.319-3.048-.975-6.771-.337-9.824,1.069-5.114,6.108,2.419,6.959,4.35a62,62,0,0,1,4.42,15.56c.864,5.729.722,11.431.872,17.206a.841.841,0,0,0,.149.449c.235,1.658,1.632,2.143,3.065.837,2.924-2.665,3.787-7.575,4.525-11.469,1.833-9.676,2.548-20.139-.053-29.711a58.875,58.875,0,0,0-13.58-23.929,66.841,66.841,0,0,0-10.193-9.209,51.491,51.491,0,0,0-12.172-6,98.175,98.175,0,0,0-13.9-4.43c-3.513-.731-7.761-1.355-11.209.2-2.42-.115-4.833-.181-7.224-.213-11.183-.157-23.5,1.6-32.455,9.8-3.042,2.787-6.538,6.926-7.564,11.292-.389,1.658-.216,3.566,1.181,4.562,1.944,1.386,4.7.4,6.8.093,6.262-.919,12.777.387,18.875,1.994,5.485,1.448,11.111,3.646,15.382,7.934a19.253,19.253,0,0,1,5.145,8.336c1.208,4.79-3.252,5.8-6.434,4.739-3.424-1.144-6.6-3.247-9.969-4.616-3.567-1.45-7.216-2.557-10.863-3.715-11.476-3.646-24.4-4.036-34.682,3.812a25.984,25.984,0,0,0-8.75,11.635c-.728,2.114-1,4.6.253,6.532,1.534,2.36,4.235,2.3,6.488,1.463,3.388-1.255,6.542-3.2,9.969-4.409a64.77,64.77,0,0,1,11.025-3.053,26.062,26.062,0,0,1,10.067.708,39.472,39.472,0,0,1,8.116,2.26c.869.4,6.228,4.217,4.475,4.934-1.453.595-4.161-.689-5.644-1.018-3.66-.808-7.327-1.853-11.066-2.074a54.951,54.951,0,0,0-11.4.974c-6.145.938-11.963,2.4-17.347,6a35.479,35.479,0,0,0-11.94,13.446c-.981,1.922-2.055,4.266-1.119,6.439a1.319,1.319,0,0,0,1.572.691c2.512-1.118,5.237-1.277,7.795-2.214a52.543,52.543,0,0,1,9.6-3.008,11.623,11.623,0,0,1,10.083,3.174c.075,2.189-1.713,3.577-3.532,4.162-3.813,1.229-7.845,1.206-11.669,2.552a19.841,19.841,0,0,0-9.275,6.559,40.949,40.949,0,0,0-3.776,6.216c-1.147,2.183-3,5.315-2.715,7.962a1.39,1.39,0,0,0,.054.219.418.418,0,0,0,.05.383c1.52,2.171,4.134,3.289,6.37,4.232,2.76,1.162,5.61,2.172,8.443,3.077C1061.409,210.59,1067.1,211.7,1071.836,208.312Zm52.01-91.741c-2.676-1.164-9.687-6.189-7.13-10.211,2.59-4.073,9.858-1.162,12.988.049,5.177,2,12.855,5.516,16.444,10.461,1.93,2.658.375,3.712-2,3.7a58.854,58.854,0,0,1-8.558-.647A47,47,0,0,1,1123.846,116.572Z" transform="translate(-1041.344 -86.137)" fill="#4f9638"/>
          <g id="Grupo_80113" data-name="Grupo 80113" transform="translate(8.484 20.625)" opacity="0.7">
            <path id="Trazado_113538" data-name="Trazado 113538" d="M1068.04,172.792c2.644-1.627,5.266-3.3,7.88-4.985,7.079-4.567,14.172-9.091,21.175-13.8,6.426-4.325,12.756-8.877,18.916-13.667,7.671-5.968,15.276-12.275,22.506-18.926a62.915,62.915,0,0,1,1.784,10.5c.032.336.532.467.574.071a24.469,24.469,0,0,0-.123-6.284,38.869,38.869,0,0,0-1.194-5.237c.187-.173.381-.341.568-.516,7.254-6.78,14.556-13.634,21.113-21.277.579-.675-.328-1.665-.924-1.016-6.184,6.736-13.188,12.615-20,18.512-7.923,6.858-16.048,13.477-24.169,20.036-12.412,10.023-25.534,19.143-38.6,28.038-4.921,3.349-10.119,6.1-15.077,9.335a.931.931,0,0,0,.655,1.684A16.337,16.337,0,0,0,1068.04,172.792Z" transform="translate(-1036.943 -97.445)" fill="#0a481c"/>
            <path id="Trazado_113539" data-name="Trazado 113539" d="M1112.732,122.847a133.266,133.266,0,0,1-1.087,23.963c-.5,3.737-1.168,7.449-1.836,11.152-.646,3.575-1.9,7.362-1.914,11.017a.339.339,0,0,0,.641.179c1.494-3.2,1.893-7.331,2.527-10.842.72-3.994,1.229-8.018,1.636-12.066a144.394,144.394,0,0,0,.488-23.416A.229.229,0,1,0,1112.732,122.847Z" transform="translate(-1008.444 -76.724)" fill="#0a481c"/>
            <path id="Trazado_113540" data-name="Trazado 113540" d="M1099.161,152.664a94.874,94.874,0,0,0,1.912-17.063c.031-4.713.084-9.344-1.142-13.906a.218.218,0,1,0-.413.135c1.552,4.252.66,9.321.564,13.8a95.19,95.19,0,0,1-1.882,16.33c-1.777,9.222-4.679,18.014-9.773,25.57-.219.323.052.733.389.554,2.95-1.552,4.2-7,5.417-10.088.869-2.209,2.058-4.246,2.871-6.482A55.885,55.885,0,0,0,1099.161,152.664Z" transform="translate(-1020.599 -77.6)" fill="#0a481c"/>
            <path id="Trazado_113541" data-name="Trazado 113541" d="M1079.266,151.924c1-2.094,2.016-4.175,2.932-6.318,1.773-4.146,3.2-8.48,3.171-13.144a.509.509,0,1,0-1.014.027c.044,4.848-1.552,9.383-3.519,13.616-.944,2.03-1.964,4.016-2.952,6.021-.809,1.645-2.168,3.692-2.2,5.62a.329.329,0,0,0,.566.25,9.548,9.548,0,0,0,1.481-2.774C1078.226,154.113,1078.745,153.017,1079.266,151.924Z" transform="translate(-1028.472 -69.034)" fill="#0a481c"/>
            <path id="Trazado_113542" data-name="Trazado 113542" d="M1071.9,156.9a23.978,23.978,0,0,0,2.634-2.5,44.694,44.694,0,0,0,4.2-5.99c.243-.385-.305-.83-.584-.492-1.5,1.806-3.1,3.469-4.726,5.122-.792.8-1.6,1.6-2.457,2.315-.834.7-2.026,1.3-2.556,2.327a.593.593,0,0,0,.466.872C1069.965,158.605,1071.061,157.589,1071.9,156.9Z" transform="translate(-1033.04 -55.959)" fill="#0a481c"/>
            <path id="Trazado_113543" data-name="Trazado 113543" d="M1068.156,127.232c6.142.066,12.941,1.173,18.47,4.31.7.4,1.293-.779.6-1.191-5.592-3.321-12.225-4.224-18.473-4.474a33.977,33.977,0,0,0-9.289,1.08c-3.138.757-6.638,1.487-9.468,3.232a.324.324,0,0,0,.151.582c2.879-.087,5.694-1.383,8.484-2.134A35.278,35.278,0,0,1,1068.156,127.232Z" transform="translate(-1044.532 -74.034)" fill="#0a481c"/>
            <path id="Trazado_113544" data-name="Trazado 113544" d="M1065.987,142.353c.5-.372.034-1.26-.482-.9-4.622,3.2-9.712,5.361-14.788,7.445-.191.078-.169.434.058.42a21.591,21.591,0,0,0,7.906-2.475A47.137,47.137,0,0,0,1065.987,142.353Z" transform="translate(-1044.081 -61.254)" fill="#0a481c"/>
            <path id="Trazado_113545" data-name="Trazado 113545" d="M1048.117,148.236c.441-.2.894-.4,1.325-.627.832-.438,1.658-.881,2.507-1.279.164-.077.1-.343-.078-.3-.921.212-1.87.4-2.772.7a9.247,9.247,0,0,0-1.343.578,6.069,6.069,0,0,0-1.109.888.257.257,0,0,0,.227.427C1047.283,148.48,1047.723,148.415,1048.117,148.236Z" transform="translate(-1046.576 -57.417)" fill="#0a481c"/>
            <path id="Trazado_113546" data-name="Trazado 113546" d="M1082.378,116.719a14.111,14.111,0,0,0,4.53,3.389,11.322,11.322,0,0,1,4.3,3.827c.334.564,1.109.049.8-.542a11.492,11.492,0,0,0-4.165-4.274c-1.643-1.078-3.381-2.021-5.088-2.966C1082.422,115.969,1082.151,116.411,1082.378,116.719Z" transform="translate(-1024.364 -82.065)" fill="#0a481c"/>
            <path id="Trazado_113547" data-name="Trazado 113547" d="M1059.135,116.868a24.009,24.009,0,0,1,4.845-2.258,32.373,32.373,0,0,1,10.089-1.581,48.54,48.54,0,0,1,19.847,4.376c.211.093.357-.314.149-.42a46.914,46.914,0,0,0-20.539-5.3,30.526,30.526,0,0,0-10.406,1.607c-2.806.969-6.757,2.5-8.388,5.45-.17.31.128.742.438.62A26.962,26.962,0,0,0,1059.135,116.868Z" transform="translate(-1041.534 -85.715)" fill="#0a481c"/>
          </g>
        </g>
        <g id="Grupo_80138" data-name="Grupo 80138" transform="translate(118.489)">
          <path id="Trazado_113563" data-name="Trazado 113563" d="M921.49,157.258a16.611,16.611,0,0,0,3.276-11.572c-.379-5.013-2.757-8.768-5.79-12.271a31.7,31.7,0,0,0-4.08-3.939h-.012a40.845,40.845,0,0,0-3.99-2.878h-.012c-1.49-.96-3.034-1.832-4.6-2.677-2.517-1.351-5.082-2.546-7.616-3.831a13.522,13.522,0,0,1-6.222-5.686c-1.351-2.527-2.235-5.387-3.462-7.983l-.471-.948a13.415,13.415,0,0,0-3.639-4.571c-4.068-3.127-8.669-2.7-13.342-2.456a20.084,20.084,0,0,1-8.791-1.025,17.327,17.327,0,0,1-6.212-4.836c-.157-.149-.3-.324-.444-.485-.2-.222-.387-.455-.587-.675a40.606,40.606,0,0,0-4.517-4.855,13.112,13.112,0,0,0-6.823-2.855c-5.607-.772-11.217.156-16.8.667a35.383,35.383,0,0,0-3.822.418.794.794,0,0,0-.714-.578c-1.983-.129-3.691,1.428-5.079,2.864a24.574,24.574,0,0,0-2.836,3.531,23.185,23.185,0,0,0-1.229,2.059v.013a29.619,29.619,0,0,0-3.342,14.6c.279,9.7,5.347,18.843,13.574,22.029.326.124.666.25,1.017.363h.012c.387.116.775.233,1.188.324,2.594.631,5.308.434,7.94.7a24.5,24.5,0,0,1,8.809,2.267,11.182,11.182,0,0,1,2.354,1.607,14.452,14.452,0,0,1,1.85,1.938c.012,0,.012,0,.012.013a51.876,51.876,0,0,1,5.056,8.346c2.264,4.176,4.665,8.269,8.981,9.947,4.864,1.906,10.356.305,15.3-.386.485-.063.958-.128,1.441-.177.413-.058.824-.1,1.234-.144a26.3,26.3,0,0,1,5.925.032,24.986,24.986,0,0,1,8.211,3.063c3.468,1.817,6.981,3.814,10.7,4.925.411.12.823.238,1.236.329a18.769,18.769,0,0,0,3.226.514A15.8,15.8,0,0,0,921.49,157.258Z" transform="translate(-810.258 -83.421)" fill="#36753c"/>
          <g id="Grupo_80130" data-name="Grupo 80130" transform="translate(0 6.258)">
            <path id="Trazado_113564" data-name="Trazado 113564" d="M921.532,150.99c-1.544-1.076-2.865-2.554-4.328-3.761-3.173-2.622-6.53-5-9.83-7.416-10.4-7.6-20.96-14.982-31.669-22.025-4.058-2.668-8.108-5.344-12.365-7.6-3.472-1.837-7.006-3.522-10.551-5.168-8.279-3.841-16.645-7.449-25.04-10.953-3.663-1.528-7.332-3.145-11.065-4.447-1.222-.426-2.445-.862-3.695-1.177a11.858,11.858,0,0,0-1.3-.278c-.255-.035-1.008-.168-.483-.039-.857-.211-1.342,1.247-.476,1.46-.09-.023.332.161.506.257.311.171.621.339.936.5.971.495,1.966.921,2.958,1.357,3.031,1.33,6.113,2.515,9.167,3.776,8.278,3.42,16.537,6.9,24.723,10.593a196.74,196.74,0,0,1,21.491,11.016q17.09,10.386,33.447,22.139c5.729,4.119,11.295,8.745,17.434,12.075.161.089.3-.207.145-.313Z" transform="translate(-810.269 -88.075)" fill="#4f9638"/>
          </g>
          <g id="Grupo_80131" data-name="Grupo 80131" transform="translate(71.12 39.33)">
            <path id="Trazado_113565" data-name="Trazado 113565" d="M871.382,114.193a3.382,3.382,0,0,1-1.38.008.34.34,0,0,1-.1-.616,1.407,1.407,0,0,1,.313-.173c1.363-.765,3.4-.619,4.849-.687a50.076,50.076,0,0,1,5.874.067,73.809,73.809,0,0,1,12.156,1.942q3.112.773,6.157,1.782h.012a40.845,40.845,0,0,1,3.99,2.878,87.618,87.618,0,0,0-10.494-3.354,73.952,73.952,0,0,0-11.913-1.988,48.658,48.658,0,0,0-5.6-.231,28.758,28.758,0,0,0-3.054.245C871.917,114.093,871.65,114.15,871.382,114.193Z" transform="translate(-869.746 -112.669)" fill="#4f9638"/>
          </g>
          <g id="Grupo_80132" data-name="Grupo 80132" transform="translate(53.09 29.871)">
            <path id="Trazado_113566" data-name="Trazado 113566" d="M869.188,146.612c-.25-.36-.5-.734-.747-1.095a72.176,72.176,0,0,1-7.051-12.091c-3.549-7.95-7.079-17.315-6.693-26.414.012-.323.035-.631.057-.952a.432.432,0,1,1,.859.078c-.02.444-.029.889-.026,1.347-.016,8.783,3.329,17.739,6.777,25.409a76.223,76.223,0,0,0,7.03,12.048c.347.5.695,1.009,1.028,1.525C870.012,146.511,869.6,146.554,869.188,146.612Z" transform="translate(-854.668 -105.634)" fill="#4f9638"/>
          </g>
          <g id="Grupo_80133" data-name="Grupo 80133" transform="translate(82.699 48.859)">
            <path id="Trazado_113567" data-name="Trazado 113567" d="M891.651,149.949c-.414-.091-.825-.21-1.236-.329a70.524,70.524,0,0,1-4.463-8.087,59.341,59.341,0,0,1-3.688-10c-.963-3.584-1.668-7.238-2.693-10.8-.037-.152-.087-.29-.124-.442-.123-.444.452-.769.588-.324s.293.917.427,1.374c1.853,6.189,2.975,12.539,5.606,18.434a72.029,72.029,0,0,0,4.979,9.243C891.251,149.333,891.444,149.648,891.651,149.949Z" transform="translate(-879.43 -119.754)" fill="#4f9638"/>
          </g>
          <g id="Grupo_80134" data-name="Grupo 80134" transform="translate(50.099 21.933)">
            <path id="Trazado_113568" data-name="Trazado 113568" d="M880.79,100.8a78.579,78.579,0,0,0-13.231.631,66.577,66.577,0,0,0-7.643,1.5,29.485,29.485,0,0,0-4.094,1.365c-.768.32-1.494.74-2.25,1.074-.3.134-.606.254-.914.36-.443.136-.645-.545-.359-.842l.116-.112c1.739-1.8,4.55-2.508,6.777-3.127a53.363,53.363,0,0,1,8.157-1.462,80.239,80.239,0,0,1,12.969-.332Z" transform="translate(-852.166 -99.732)" fill="#4f9638"/>
          </g>
          <g id="Grupo_80135" data-name="Grupo 80135" transform="translate(31.827 20.081)">
            <path id="Trazado_113569" data-name="Trazado 113569" d="M841.878,131.379a14.454,14.454,0,0,0-1.85-1.938,82.431,82.431,0,0,1-2.594-13.489c-.579-5.247-.932-10.946.157-16.176.076-.4.165-.781.264-1.163a.365.365,0,0,1,.708.173c-.08.437-.148.877-.2,1.317a51.8,51.8,0,0,0-.329,6.675,82.111,82.111,0,0,0,3.126,22.172C841.384,129.767,841.626,130.572,841.878,131.379Z" transform="translate(-836.886 -98.355)" fill="#4f9638"/>
          </g>
          <g id="Grupo_80136" data-name="Grupo 80136" transform="translate(22.31 7.993)">
            <path id="Trazado_113570" data-name="Trazado 113570" d="M828.971,96.176a4.357,4.357,0,0,1,.221-.4c1.285-2,4.447-2.924,6.334-3.627a49.269,49.269,0,0,1,7.423-2.1,40.9,40.9,0,0,1,8.9-.678c.2.221.387.453.587.675.143.161.287.336.444.485a.23.23,0,0,1-.1.005,41.757,41.757,0,0,0-9.8.811,48.965,48.965,0,0,0-7.556,2.286,27.923,27.923,0,0,0-3.367,1.594c-.564.325-1.108.721-1.684,1.045h-.012a5.134,5.134,0,0,1-1.067.468C829,96.839,828.845,96.434,828.971,96.176Z" transform="translate(-828.926 -89.365)" fill="#36753c"/>
          </g>
          <g id="Grupo_80137" data-name="Grupo 80137" transform="translate(10.761 12.096)">
            <path id="Trazado_113571" data-name="Trazado 113571" d="M823.174,126.584c-.352-.113-.691-.239-1.018-.363-.484-2.244-.871-4.52-1.221-6.806a123.352,123.352,0,0,1-1.459-13.087c-.191-4.294-.557-9.158.61-13.328a2.306,2.306,0,0,1,.081-.289c.16-.566.929-.238.768.327a2.06,2.06,0,0,0-.068.277,26.027,26.027,0,0,0-.622,6.729c.011,2.484.048,4.957.2,7.441.253,3.936.821,7.847,1.413,11.747C822.234,121.694,822.642,124.16,823.174,126.584Z" transform="translate(-819.268 -92.416)" fill="#36753c"/>
          </g>
        </g>
        <g id="Grupo_80142" data-name="Grupo 80142" transform="translate(1226.1 10.793)">
          <g id="Grupo_80139" data-name="Grupo 80139" transform="translate(0 0.207)">
            <path id="Trazado_113572" data-name="Trazado 113572" d="M1081.888,86.886c-10.346,4.091-21.091,7.079-30.552,13.578a69.5,69.5,0,0,0-12.356,10.789,50.965,50.965,0,0,0-8.933,12.888c-1.719,3.861-3.623,9.348-1.215,13.359,2.021,3.363,5.995,4.162,9.343,3.637,10.172-1.6,12.56-14.889,16.081-23.735a52.835,52.835,0,0,1,20.466-24.609c2.976-.9,5.9-2.039,7.967-4.357C1083.245,87.811,1082.686,86.57,1081.888,86.886Z" transform="translate(-947.469 -86.835)" fill="#add031"/>
            <path id="Trazado_113573" data-name="Trazado 113573" d="M1039.929,116.29c4.664-2.5,9.269-5.127,13.824-7.86a140.4,140.4,0,0,0,12.443-8.709c2.456-1.859,4.963-3.593,7.375-5.525q1.527-1.223,3.013-2.513c.352-.306,1.126-.77,1.217-1.331a.831.831,0,0,0-.209-.722.686.686,0,0,0-.052-.153l-.115-.168a.732.732,0,0,0-.323-.213l.146.069c-.13-.062-.258-.146-.392-.2-.08-.029-.162-.047-.243-.073a3.81,3.81,0,0,1-.469-.182l-.11-.055c-.014-.792-.684-1.561-1.409-.972-14.091,11.444-31.127,16.505-47.827,20.764a112.5,112.5,0,0,1-14.409,2.763c-4.707.571-9.4.239-14.125.554-5.153.345-10.623.146-15.468,2.482-3.875,1.868-6.162,6.517-3.252,10.72,2.827,4.086,8.506,5.3,12.837,5.536,7.652.416,15.7-1.457,23.019-3.761A143.827,143.827,0,0,0,1039.929,116.29Z" transform="translate(-978.229 -86.306)" fill="#add031"/>
          </g>
          <g id="Grupo_80140" data-name="Grupo 80140" transform="translate(86.258 0)">
            <path id="Trazado_113574" data-name="Trazado 113574" d="M1031.938,133.064c4.74-11.834,11.239-23.626,21.085-30.847a79.508,79.508,0,0,1,14.866-8.261c2.535-1.129,5.128-2.039,7.72-2.988,2.462-.9,5.067-1.727,7.118-3.568a.4.4,0,0,0-.344-.668c-2.867.865-5.641,2.18-8.486,3.154a82.273,82.273,0,0,0-8.172,3.323,74.944,74.944,0,0,0-14.806,8.6c-9.292,7.287-15.771,19.166-19.491,31.009-.1.33.378.567.51.241Z" transform="translate(-1031.414 -86.722)" fill="#4f9638"/>
          </g>
          <g id="Grupo_80141" data-name="Grupo 80141" transform="translate(2.904 3.064)">
            <path id="Trazado_113575" data-name="Trazado 113575" d="M980.258,121.033c2.407,1.39,5.106,1.352,7.749,1.357,3.388.005,6.757.352,10.149.3,7.079-.113,14.048-1.662,20.923-3.462a160.919,160.919,0,0,0,39.207-15.98c6.267-3.571,13.1-7.756,17.451-14.108.341-.5-.349-.956-.717-.622-4.987,4.529-9.884,8.812-15.649,12.033a198.216,198.216,0,0,1-18.082,9.171,180.723,180.723,0,0,1-18.595,6.608c-6.64,2.046-13.351,4.1-20.218,4.91a53.961,53.961,0,0,1-11.408.011c-3.393-.317-7.175.589-10.339-1.125-.538-.292-1.014.6-.472.91Z" transform="translate(-980.02 -88.402)" fill="#4f9638"/>
          </g>
        </g>
        <g id="Grupo_80144" data-name="Grupo 80144" transform="translate(224.702 1.053)">
          <path id="Trazado_113576" data-name="Trazado 113576" d="M901.074,86.8c1.1,3.877-.182,8.827,0,12.911.2,4.489.459,9.146,1,13.6.525,4.3,1.314,8.943,3.754,12.443,3.012,4.323,5.078,2.166,5.365-2.495.207-3.351-.6-11.671,1.394-13.9,1.838,9.455,3.22,18.878,9.017,26.425,1.407,1.83,5.8,7.735,8.169,5.566,1.95-1.787.035-10.973-.777-13.281,4.795,7.134,13.6,15.395,22.151,14.939,10.3-.549-7.342-16.924-10.307-19.2-3.288-2.521-6.682-4.964-10.006-7.177,5.731-.957,14.019,3.359,19.324-.99,8.45-6.93-7.156-11.936-11.511-12.676A72.193,72.193,0,0,0,928,101.826c4.241,0,9.194.612,13.152-1.385,6.255-3.155-.941-6.373-4.26-7.866-7.453-3.351-16.024-2.737-23.948-2.714-2.906.008-8.331.382-10.879-1.391Z" transform="translate(-898.711 -83.309)" fill="#4f9638"/>
          <g id="Grupo_80143" data-name="Grupo 80143">
            <path id="Trazado_113577" data-name="Trazado 113577" d="M899.114,84.75a23.141,23.141,0,0,0,3.63,6.206c.891,1.233,1.747,2.495,2.619,3.742a.328.328,0,0,0,.185.265c.385.551.777,1.1,1.159,1.654a.288.288,0,0,0-.094.171,37.662,37.662,0,0,0-.059,6.082c-.019,2-.086,4-.124,6.006a60.094,60.094,0,0,0,.732,12,.242.242,0,0,0,.477-.073,113.011,113.011,0,0,1-.215-12.159c.037-2,.091-4,.1-6.007a27.4,27.4,0,0,0-.146-5.062c.114.167.234.328.348.5,3.092,4.571,6.39,8.936,9.68,13.325,5.966,7.96,11.839,16.465,19.961,21.778.474.311.863-.475.423-.816-7.63-5.93-13.4-14.265-19.3-22.182-.921-1.236-1.83-2.481-2.742-3.725.749.038,1.514-.012,2.229.013,1.288.046,2.572.121,3.858.21,2.768.191,5.529.455,8.277.89a85.4,85.4,0,0,1,15.62,3.819c.047.016.065-.063.02-.082a80.168,80.168,0,0,0-7.739-2.9,83.167,83.167,0,0,0-8.2-1.881c-2.553-.452-5.124-.819-7.7-1.044-1.375-.12-2.753-.194-4.131-.246a14.32,14.32,0,0,0-3.139-.017q-2.981-4.071-5.97-8.136c-.508-.687-1.033-1.36-1.554-2.036.537-.065,1.074-.169,1.6-.222,1.257-.122,2.517-.194,3.779-.221a57.1,57.1,0,0,1,7.333.316c4.824.522,9.449,1.974,14.335,1.774.109,0,.108-.18,0-.188-4.925-.372-9.674-2.257-14.6-2.774a56.662,56.662,0,0,0-7.611-.295q-1.892.054-3.78.251a12.858,12.858,0,0,0-1.9.265c-.823-1.06-1.644-2.121-2.443-3.2-1.522-2.07-2.815-4.313-4.289-6.415C899.514,84,898.987,84.362,899.114,84.75Z" transform="translate(-899.095 -84.205)" fill="#36753c"/>
            <path id="Trazado_113578" data-name="Trazado 113578" d="M915.977,110.5c-.354-1.732-.4-3.722-1.045-5.343a.181.181,0,0,0-.341.05c-.315,1.712.227,3.667.57,5.336.38,1.846.849,3.669,1.369,5.472,1.076,3.738,2.426,7.364,3.7,11.023a.246.246,0,1,0,.469-.145c-1.124-3.638-2.312-7.251-3.359-10.917C916.821,114.176,916.356,112.353,915.977,110.5Z" transform="translate(-896.08 -77.014)" fill="#36753c"/>
          </g>
        </g>
        <g id="Grupo_80150" data-name="Grupo 80150" transform="translate(122.046 9.728) rotate(40)">
          <path id="Trazado_113579" data-name="Trazado 113579" d="M50.251,6.281a126.977,126.977,0,0,0-18.2,5.189A158.766,158.766,0,0,0,14.6,19.057a24.527,24.527,0,0,0-6.543,4.584C6.247,25.5,4.566,27.82,2.332,29.18c-1.287.784-.319,3.146,1.26,2.742.2-.05.372-.137.564-.2C9.908,34.5,15.493,37.86,21.049,41.1c5.2,3.028,10.475,5.865,15.518,9.2,8.4,5.559,18.374,13.521,28.424,13.363,4.44-.071,8.393-2.2,11.7-4.742,3.824-2.937,6.566-7.809,11.719-8.643,8.721-1.412,17.781,3.779,26.6,4.309,5.514.33,14.153.177,15.618-6.3,1.694-7.487-5.353-14.974-11.654-18.273a75.31,75.31,0,0,0-11.844-4.6c-4.761-1.544-8.923-3.114-13.046-6.368-4.016-3.169-7.6-6.9-11.7-9.948A25.765,25.765,0,0,0,67.864,3.963C61.9,3.692,55.9,5.084,50.251,6.281Z" transform="translate(0.921 0.054)" fill="#add031"/>
          <g id="Grupo_80145" data-name="Grupo 80145" transform="translate(1.443 25.239)">
            <path id="Trazado_113580" data-name="Trazado 113580" d="M127.324,19.4c-7.773-2.454-15.356-5.763-23.2-7.916A226.952,226.952,0,0,0,79.706,6.414C71.23,5.07,62.756,4.6,54.275,3.567A155.47,155.47,0,0,0,28.8,2.336c-9.308.382-18.565.579-27.707,1.853-1.1.152-1.043,2.111.134,2.348,3.661.739,7.292-.575,10.87-.792,4.31-.26,8.617-.289,12.947-.4,8.328-.223,16.395-.455,24.833.492,16.835,1.886,33.848,2.7,50.639,6.431,8.981,2,17.651,5.832,26.565,8.261.736.2.984-.891.244-1.125Z" fill="#36753c"/>
          </g>
          <g id="Grupo_80146" data-name="Grupo 80146" transform="translate(33.325 29.345)">
            <path id="Trazado_113581" data-name="Trazado 113581" d="M37.62,29.373a128.834,128.834,0,0,1-19.854-13.5C14.7,13.36,11.713,10.73,8.876,7.944,7.523,6.618,6.207,5.255,4.9,3.887,3.61,2.545,2.336.944.693.085.359-.089-.108.145.058.568A12.782,12.782,0,0,0,2.952,4.461C4.4,6,5.933,7.458,7.473,8.9c2.958,2.766,5.992,5.445,9.132,7.984a115.393,115.393,0,0,0,20.5,13.456.546.546,0,1,0,.513-.962Z" fill="#36753c"/>
          </g>
          <g id="Grupo_80147" data-name="Grupo 80147" transform="translate(46.349 10.394)">
            <path id="Trazado_113582" data-name="Trazado 113582" d="M1.917,19.022A108.229,108.229,0,0,1,17.395,9.056a57.389,57.389,0,0,1,8.812-3.534c3.057-.938,6.271-1.464,9.252-2.57a.459.459,0,0,0-.166-.88A24.752,24.752,0,0,0,25.83,3.432a60.556,60.556,0,0,0-9.064,3.531A53.2,53.2,0,0,0,1.182,18.078c-.4.425.225,1.316.735.945Z" fill="#36753c"/>
          </g>
          <g id="Grupo_80148" data-name="Grupo 80148" transform="translate(97.901 36.278)">
            <path id="Trazado_113583" data-name="Trazado 113583" d="M20.088,13.908a55.988,55.988,0,0,1-10.4-6.281C8.043,6.413,6.468,5.117,4.928,3.758c-.777-.686-1.543-1.384-2.306-2.087A6.728,6.728,0,0,0,.553.055C.128-.1-.079.35.081.7A7.249,7.249,0,0,0,2.039,2.759Q3.2,3.8,4.387,4.81c1.6,1.36,3.221,2.7,4.88,3.98a40.829,40.829,0,0,0,10.619,6.057c.615.229.786-.682.2-.938Z" fill="#36753c"/>
          </g>
          <g id="Grupo_80149" data-name="Grupo 80149" transform="translate(79.61 28.111)">
            <path id="Trazado_113584" data-name="Trazado 113584" d="M29.439,1.984C24.242,1.605,19.031.871,13.87.994A38.476,38.476,0,0,0,6.7,1.73,29.1,29.1,0,0,0,3.046,2.756,6.154,6.154,0,0,0,.335,4.118a.435.435,0,0,0,.312.692,11.923,11.923,0,0,0,3.009-.873,29.587,29.587,0,0,1,3.5-.771,58.188,58.188,0,0,1,7.512-.7c4.92-.145,9.851-.018,14.805.206.435.021.4-.658-.04-.692Z" fill="#36753c"/>
          </g>
        </g>
        <g id="Grupo_80159" data-name="Grupo 80159" transform="translate(1388.765 239.979) rotate(-97)">
          <path id="Trazado_113591" data-name="Trazado 113591" d="M44.167.754c-11.1,1.1-14.052,10.391-12.646,19.154,1.208,7.531,6.984,14.854,6.578,22.509-.29,5.438-6.564,3.947-10.8,2.931-5.353-1.284-10.911-3.068-16.488-2.765-4.252.231-8.529,2.2-9.778,6.064-1.065,3.288,1.115,6.329,3.82,8.508,7.908,6.371,19.948,9.216,29.57,12.558,3.57,1.24,14.686,2.692,15.646,6.51.669,2.669-5.859,2.738-7.754,2.835-7.048.368-14.1-.55-21.146-.5-4.636.031-16.327.4-15.178,6.791.785,4.351,6.106,7.812,10.037,9.871a131.751,131.751,0,0,0,18.353,7.791,178.036,178.036,0,0,0,24.559,6.037,205.3,205.3,0,0,0,24.254,3.515c3.731.257,7.458.248,11.187.581a1.814,1.814,0,0,0,1.374,1.431,139.824,139.824,0,0,0,21.893,4.9c5.84.744,12.2.742,17.065-2.454,5.526-3.629,8.685-9.832,12.533-14.754,3.542-4.534,7.869-8.8,10.389-13.911,2.586-5.245,5.065-14.349-2.1-17.995-9.108-4.629-19.559,3.395-28.476,4.112-2.174.174-5.885-.053-6.838-2.322-.649-1.55.624-3.332,1.5-4.556,2.623-3.677,6.474-6.684,10.063-9.578C138,53,145.512,47.438,141.513,38.875c-4.548-9.745-18.911-10.438-27.334-5.109-4.7,2.975-7.645,7.485-9.806,12.175a41.81,41.81,0,0,0-2.252,6.2c-1.015,3.583-3.625,5.292-7.691,2.92-6.209-3.621-8.39-11.96-10.855-17.673-2.815-6.524-5.8-13-10.03-18.941C66.878,9.092,57.724-.587,44.167.754Z" transform="translate(0 0)" fill="#add031"/>
          <g id="Grupo_80153" data-name="Grupo 80153" transform="translate(43.196 16.395)">
            <path id="Trazado_113592" data-name="Trazado 113592" d="M.027,1.107C.989,7.021,2.065,12.452,4.528,18.1a121.318,121.318,0,0,0,8.016,15.042A186.721,186.721,0,0,0,33.89,61.395,206.413,206.413,0,0,0,61.152,85.981q6.941,5.283,14.3,10.143c5.1,3.368,10.816,7.524,17.056,8.843.82.174,1.552-.744.846-1.317-4.466-3.618-10.191-6.07-15.1-9.2-5.129-3.275-10.114-6.767-14.945-10.39a185.182,185.182,0,0,1-25.55-23.4,188.117,188.117,0,0,1-20.724-27.49C10.858,23.239,4.983,11.974,2.522.838,2.249-.407-.181-.169.027,1.107Z" transform="translate(0 0)" fill="#4f9638"/>
          </g>
          <g id="Grupo_80154" data-name="Grupo 80154" transform="translate(119.419 74.952)">
            <path id="Trazado_113593" data-name="Trazado 113593" d="M2.279,30.252C5.8,25.3,9.117,20.23,12.705,15.319c1.752-2.4,3.568-4.758,5.508-7.034,2.04-2.394,4.414-4.633,6.2-7.191.281-.4-.318-.987-.776-.694A31.177,31.177,0,0,0,17.052,6.65c-2.037,2.371-3.945,4.825-5.774,7.327C7.588,19.029,4.2,24.257.6,29.358c-.657.933,1.028,1.819,1.682.895Z" transform="translate(0 0)" fill="#4f9638"/>
          </g>
          <g id="Grupo_80155" data-name="Grupo 80155" transform="translate(64.104 12.721)">
            <path id="Trazado_113594" data-name="Trazado 113594" d="M9.582,49.949c3.143-7.851,2.327-16.836.637-25A95.279,95.279,0,0,0,6.33,11.364C5,7.747,3.638,3.307,1.008.222.663-.184-.158.012.036.578,1.269,4.127,3.365,7.49,4.719,11.035A96.332,96.332,0,0,1,8.679,24.179c1.851,8.246,3.34,17.584.507,25.669-.078.223.308.315.4.1Z" transform="translate(0 0)" fill="#4f9638"/>
          </g>
          <g id="Grupo_80156" data-name="Grupo 80156" transform="translate(4.695 51.57)">
            <path id="Trazado_113595" data-name="Trazado 113595" d="M59.342,10.234c-5.312-.51-10.515-.746-15.814-1.474-5.058-.693-10.161-1-15.209-1.771a151.559,151.559,0,0,1-15.288-3.06C8.858,2.841,4.887.276.543.008a.492.492,0,0,0-.269.93c8.41,4.857,18.958,6.691,28.619,8,4.783.646,9.6,1.053,14.4,1.51,5.383.511,10.68.225,16.057.562.561.034.537-.72-.012-.773Z" transform="translate(0 0)" fill="#4f9638"/>
          </g>
          <g id="Grupo_80157" data-name="Grupo 80157" transform="translate(15.074 85.786)">
            <path id="Trazado_113596" data-name="Trazado 113596" d="M.412,1.322C11.72,6.239,24.093,8.306,36.434,9.58a151.547,151.547,0,0,0,19.959.48c3.228-.1,6.454-.236,9.682-.321,2.9-.077,6.154.432,8.736-.781A.7.7,0,0,0,74.793,7.7c-2.317-1.084-4.842-.69-7.373-.634-3.227.073-6.455.19-9.682.271a177.566,177.566,0,0,1-19.385-.388A185.833,185.833,0,0,1,1,.045C.158-.2-.411.965.412,1.322Z" transform="translate(0 0)" fill="#4f9638"/>
          </g>
          <g id="Grupo_80158" data-name="Grupo 80158" transform="translate(92.898 34.785)">
            <path id="Trazado_113597" data-name="Trazado 113597" d="M1.51,49.86c2.32-5.181,4.733-10.251,7.564-15.217A87.672,87.672,0,0,1,18.95,21.19c3.66-4.285,8.074-7.572,12.731-10.94,2.1-1.518,4.028-3.222,6.162-4.708,1.912-1.329,4.626-2.2,6.278-3.724A.694.694,0,0,0,43.754.635C39.3-.047,34.542,5.544,31.641,7.81c-2.248,1.755-4.734,3.233-6.9,5.079-2.416,2.061-4.506,4.385-6.779,6.566a54.183,54.183,0,0,0-10.6,13.8C4.594,38.476,2.8,44.184.771,49.669c-.156.42.563.583.739.19Z" transform="translate(0 0)" fill="#4f9638"/>
          </g>
        </g>
        <g id="Grupo_86301" data-name="Grupo 86301" transform="matrix(-0.966, -0.259, 0.259, -0.966, 1473.568, 674.645)">
          <path id="Trazado_113563-2" data-name="Trazado 113563" d="M192.018,129.117c4.087-5.119,5.775-12.143,5.019-19.15-.877-8.391-5.086-14.785-10.393-20.793a58.3,58.3,0,0,0-7.1-6.791h-.02a75.275,75.275,0,0,0-6.9-5.014h-.02c-2.572-1.681-5.231-3.217-7.934-4.712-4.333-2.389-8.739-4.517-13.1-6.8-4.4-2.328-8.2-5.146-10.819-9.82-2.41-4.29-4.042-9.112-6.244-13.51l-.843-1.608a24.45,24.45,0,0,0-6.385-7.823c-7.046-5.434-14.832-4.963-22.747-4.8-4.958.118-10.165-.11-14.96-2.172-4.14-1.737-7.62-4.942-10.763-8.4-.273-.257-.524-.557-.775-.834-.349-.381-.678-.779-1.027-1.158a74.475,74.475,0,0,0-7.889-8.343A23.849,23.849,0,0,0,57.4,2.266C47.858.683,38.384,1.939,28.943,2.5A59.94,59.94,0,0,0,22.48,3a1.449,1.449,0,0,0-1.238-1c-3.369-.319-6.195,2.191-8.483,4.517a37.74,37.74,0,0,0-4.647,5.748,35.7,35.7,0,0,0-1.989,3.373v.022A47.068,47.068,0,0,0,1.133,39.861C2.058,56.072,11.082,71.6,25.186,77.355c.559.224,1.141.453,1.743.66l.02,0c.663.213,1.325.429,2.029.6,4.429,1.189,9.024,1,13.5,1.593a43.937,43.937,0,0,1,15.048,4.248A20.589,20.589,0,0,1,61.6,87.268,26.526,26.526,0,0,1,64.825,90.6c.02,0,.02,0,.021.023,3.555,4.227,6.288,9.476,8.965,14.2,4.034,7.091,8.3,14.052,15.7,17.08,8.34,3.437,17.582,1.053,25.937.157.821-.08,1.619-.163,2.436-.221.7-.075,1.393-.125,2.087-.176a45.467,45.467,0,0,1,10.052.364c5.035.835,9.458,3.056,14.072,5.546,5.967,3.215,12.019,6.734,18.385,8.784.7.221,1.407.441,2.113.615a33.256,33.256,0,0,0,5.5,1.027C178.081,138.767,186.785,135.623,192.018,129.117Z" transform="translate(0.108 0.003)" fill="#36753c"/>
          <g id="Grupo_80130-2" data-name="Grupo 80130" transform="translate(0.292 10.449)">
            <path id="Trazado_113564-2" data-name="Trazado 113564" d="M191.67,110.885c-2.669-1.877-4.979-4.414-7.516-6.507-5.505-4.545-11.31-8.7-17.021-12.9-18-13.241-36.254-26.115-54.748-38.436-7.009-4.668-14-9.348-21.329-13.33-5.976-3.249-12.048-6.248-18.139-9.182-14.223-6.847-28.582-13.31-42.986-19.6C23.647,8.186,17.346,5.292,10.953,2.923,8.86,2.147,6.765,1.356,4.631.765A21.169,21.169,0,0,0,2.4.231C1.971.16.687-.1,1.583.141.119-.256-.634,2.152.844,2.555c-.153-.043.571.287.87.455.535.3,1.068.6,1.612.884C5,4.772,6.7,5.536,8.407,6.315c5.2,2.38,10.486,4.519,15.725,6.786,14.2,6.144,28.374,12.386,42.432,18.983a360.628,360.628,0,0,1,36.969,19.521q29.473,18.239,57.769,38.72c9.91,7.178,19.567,15.194,30.136,21.076.278.157.5-.33.231-.516Z" transform="translate(0 0)" fill="#4f9638"/>
          </g>
          <g id="Grupo_80131-2" data-name="Grupo 80131" transform="translate(122.476 69.401)">
            <path id="Trazado_113565-2" data-name="Trazado 113565" d="M2.845,2.631A5.833,5.833,0,0,1,.5,2.572a.575.575,0,0,1-.2-1.034,2.229,2.229,0,0,1,.524-.273C3.108.059,6.577.411,9.024.372a86.659,86.659,0,0,1,9.966.42A130.777,130.777,0,0,1,39.7,4.671q5.315,1.453,10.527,3.3h.02a75.256,75.256,0,0,1,6.9,5.014,158.33,158.33,0,0,0-17.957-6.15,131.17,131.17,0,0,0-20.3-3.943,84.636,84.636,0,0,0-9.506-.68,48.972,48.972,0,0,0-5.169.249C3.749,2.493,3.3,2.573,2.845,2.631Z" transform="translate(0 0)" fill="#4f9638"/>
          </g>
          <g id="Grupo_80132-2" data-name="Grupo 80132" transform="translate(91.45 52.661)">
            <path id="Trazado_113566-2" data-name="Trazado 113566" d="M26.541,69.184c-.441-.615-.88-1.252-1.319-1.867A129.741,129.741,0,0,1,12.7,46.758C6.306,33.3-.118,17.475.113,2.3.119,1.764.143,1.251.166.715.215-.313,1.652-.138,1.627.891c-.014.74-.007,1.483.018,2.249C2.028,17.8,8.118,32.934,14.326,45.922A137.014,137.014,0,0,0,26.812,66.408c.612.86,1.226,1.721,1.815,2.6C27.933,69.059,27.238,69.109,26.541,69.184Z" transform="translate(0 0)" fill="#4f9638"/>
          </g>
          <g id="Grupo_80133-2" data-name="Grupo 80133" transform="translate(142.561 85.918)">
            <path id="Trazado_113567-2" data-name="Trazado 113567" d="M22.138,51.06c-.706-.174-1.409-.394-2.113-.615a126.413,126.413,0,0,1-7.947-13.738A104.033,104.033,0,0,1,5.357,19.817C3.557,13.782,2.19,7.644.286,1.642.216,1.386.124,1.152.054.9c-.23-.747.731-1.261.983-.51.269.773.54,1.547.788,2.317C5.258,13.134,7.456,23.8,12.193,33.778A128.93,128.93,0,0,0,21.07,49.472C21.432,50.011,21.773,50.546,22.138,51.06Z" transform="translate(0 0)" fill="#4f9638"/>
          </g>
          <g id="Grupo_80134-2" data-name="Grupo 80134" transform="translate(86.005 39.249)">
            <path id="Trazado_113568-2" data-name="Trazado 113568" d="M48.6,3.282a134.587,134.587,0,0,0-22.414.36,111.066,111.066,0,0,0-12.9,2.1A48.071,48.071,0,0,0,6.413,7.8c-1.287.494-2.5,1.157-3.767,1.676-.5.209-1.017.393-1.533.554-.744.2-1.119-.943-.648-1.424l.192-.18c2.866-2.907,7.6-3.949,11.351-4.865A89.278,89.278,0,0,1,25.777,1.549a137.971,137.971,0,0,1,21.984.125Z" transform="translate(0 0)" fill="#4f9638"/>
          </g>
          <g id="Grupo_80135-2" data-name="Grupo 80135" transform="translate(54.926 35.2)">
            <path id="Trazado_113569-2" data-name="Trazado 113569" d="M10.007,55.4a26.53,26.53,0,0,0-3.228-3.333,140.527,140.527,0,0,1-5.028-22.66c-1.226-8.792-2.09-18.327-.488-27,.111-.661.243-1.3.394-1.928C1.813-.241,2.981.057,2.866.807,2.75,1.533,2.655,2.264,2.581,3a84.6,84.6,0,0,0-.247,11.129A138.725,138.725,0,0,0,8.669,51.311C9.095,52.688,9.542,54.044,10.007,55.4Z" transform="translate(0 0)" fill="#4f9638"/>
          </g>
          <g id="Grupo_80136-2" data-name="Grupo 80136" transform="translate(38.217 14.515)">
            <path id="Trazado_113570-2" data-name="Trazado 113570" d="M.394,11.376a6.724,6.724,0,0,1,.357-.653C2.838,7.451,8.158,6.074,11.326,5A80.976,80.976,0,0,1,23.82,1.887a69.691,69.691,0,0,1,15.072-.665c.349.379.678.777,1.027,1.158.251.277.5.576.775.834a.393.393,0,0,1-.162,0,71.075,71.075,0,0,0-16.589.84A80.226,80.226,0,0,0,11.233,7.479,44.634,44.634,0,0,0,5.6,9.964c-.942.514-1.847,1.145-2.807,1.657h-.02a8.242,8.242,0,0,1-1.788.726C.465,12.484.191,11.8.394,11.376Z" transform="translate(0 0)" fill="#36753c"/>
          </g>
          <g id="Grupo_80137-2" data-name="Grupo 80137" transform="translate(18.819 20.761)">
            <path id="Trazado_113571-2" data-name="Trazado 113571" d="M8.218,57.257c-.6-.207-1.184-.436-1.743-.66-.926-3.773-1.687-7.593-2.388-11.428A207.313,207.313,0,0,1,1,23.24C.478,16.06-.37,7.919,1.416,1.017A3.629,3.629,0,0,1,1.54.539C1.786-.4,3.105.19,2.858,1.125a3.255,3.255,0,0,0-.1.459,42.185,42.185,0,0,0-.741,11.2c.134,4.148.312,8.279.689,12.435.613,6.586,1.759,13.145,2.945,19.688C6.4,49.044,7.2,53.183,8.218,57.257Z" transform="translate(0 0)" fill="#36753c"/>
          </g>
        </g>
        <g id="Grupo_86302" data-name="Grupo 86302" transform="matrix(-0.574, -0.819, 0.819, -0.574, 1471.553, 657.096)">
          <path id="Trazado_113579-2" data-name="Trazado 113579" d="M87.095,10.172a231.882,231.882,0,0,0-31.6,8.5A286.211,286.211,0,0,0,25.174,31.079,42.971,42.971,0,0,0,13.794,38.57c-3.149,3.038-6.082,6.826-9.966,9.049-2.237,1.282-.577,5.134,2.164,4.472.35-.082.647-.223.979-.328,9.955,4.528,19.616,10,29.227,15.273,8.991,4.933,18.122,9.555,26.843,14.99,14.531,9.058,31.763,22.038,49.191,21.763,7.7-.123,14.57-3.6,20.33-7.758,6.652-4.8,11.444-12.754,20.386-14.124,15.134-2.318,30.806,6.14,46.093,6.991,9.56.529,24.541.267,27.129-10.306C229.163,66.372,217,54.163,206.1,48.79c-6.58-3.239-13.579-5.373-20.506-7.484-8.244-2.513-15.451-5.067-22.577-10.372-6.941-5.166-13.122-11.242-20.219-16.217a46.264,46.264,0,0,0-25.141-8.355C107.311,5.929,96.9,8.209,87.095,10.172Z" transform="translate(1.596 0.086)" fill="#add031"/>
          <g id="Grupo_80145-2" data-name="Grupo 80145" transform="translate(2.317 41.187)">
            <path id="Trazado_113580-2" data-name="Trazado 113580" d="M220.651,31.459c-13.462-3.993-26.586-9.382-40.165-12.883a413.919,413.919,0,0,0-42.315-8.234c-14.689-2.18-29.379-2.927-44.079-4.607a286.1,286.1,0,0,0-44.17-1.967c-16.144.637-32.2.974-48.06,3.067-1.908.25-1.824,3.447.216,3.831,6.344,1.2,12.649-.949,18.856-1.31,7.475-.431,14.946-.485,22.454-.681,14.444-.376,28.433-.768,43.059.763,29.179,3.052,58.677,4.349,87.767,10.415,15.559,3.242,30.565,9.49,46.007,13.441a.944.944,0,1,0,.431-1.836Z" transform="translate(0 0)" fill="#36753c"/>
          </g>
          <g id="Grupo_80146-2" data-name="Grupo 80146" transform="translate(57.573 47.839)">
            <path id="Trazado_113581-2" data-name="Trazado 113581" d="M65.021,47.877A222.962,222.962,0,0,1,30.691,25.87c-5.3-4.09-10.458-8.378-15.358-12.92C13,10.788,10.726,8.567,8.461,6.336,6.242,4.149,4.045,1.537,1.2.138.623-.145-.188.237.1.926,1.126,3.418,3.149,5.333,5.086,7.276c2.5,2.5,5.147,4.886,7.808,7.229C18,19.014,23.245,23.382,28.671,27.52A200.253,200.253,0,0,0,64.125,49.448c1.156.548,2.071-.969.9-1.572Z" transform="translate(0 0)" fill="#36753c"/>
          </g>
          <g id="Grupo_80147-2" data-name="Grupo 80147" transform="translate(80.298 16.891)">
            <path id="Trazado_113582-2" data-name="Trazado 113582" d="M3.184,31.041C11.829,25.107,20.447,19.27,30.1,14.752A103.775,103.775,0,0,1,45.4,8.97C50.712,7.435,56.29,6.57,61.466,4.76a.742.742,0,0,0-.281-1.436c-5.7-.51-11.174.761-16.419,2.236a109.631,109.631,0,0,0-15.744,5.777A93.069,93.069,0,0,0,1.916,29.5c-.7.693.38,2.148,1.268,1.54Z" transform="translate(0 0)" fill="#36753c"/>
          </g>
          <g id="Grupo_80148-2" data-name="Grupo 80148" transform="translate(169.504 59.052)">
            <path id="Trazado_113583-2" data-name="Trazado 113583" d="M34.733,22.667A97.773,97.773,0,0,1,16.75,12.432C13.9,10.454,11.179,8.34,8.519,6.126,7.176,5.007,5.852,3.87,4.535,2.724A11.508,11.508,0,0,0,.958.088C.222-.163-.14.571.135,1.144.806,2.526,2.335,3.5,3.516,4.5Q5.525,6.192,7.571,7.842c2.76,2.217,5.566,4.4,8.432,6.488A71.582,71.582,0,0,0,34.373,24.2c1.064.373,1.367-1.114.36-1.531Z" transform="translate(0 0)" fill="#36753c"/>
          </g>
          <g id="Grupo_80149-2" data-name="Grupo 80149" transform="translate(137.845 45.753)">
            <path id="Trazado_113584-2" data-name="Trazado 113584" d="M51.035,3.192C42.026,2.582,33,1.391,24.045,1.6A70.86,70.86,0,0,0,11.6,2.813,53.147,53.147,0,0,0,5.261,4.494c-1.609.54-3.6,1-4.71,2.226a.7.7,0,0,0,.536,1.129c1.842-.033,3.5-.961,5.225-1.429a54.257,54.257,0,0,1,6.083-1.263A107.2,107.2,0,0,1,25.426,4.008c8.532-.245,17.084-.044,25.673.312.753.034.694-1.075-.063-1.129Z" transform="translate(0 0)" fill="#36753c"/>
          </g>
        </g>
      </g>
    </g>
  </g>
</svg>
