<svg xmlns="http://www.w3.org/2000/svg" width="152.83" height="136.824" viewBox="0 0 152.83 136.824">
  <g id="AGUA_2" data-name="AGUA 2" transform="translate(-6.17 -47.912)">
    <path id="Trazado_124262" data-name="Trazado 124262" d="M234.488,268.962a6.268,6.268,0,0,1,.867,4.293q.045,19.81.02,39.621c0,6.064,0,5.941,6.051,6.1,2.539.073,3.223-.692,3.2-3.215-.118-14.325-.069-28.653-.028-42.978,0-1.009-.513-2.2.993-3.447A27.456,27.456,0,0,0,247.669,272c4.883,4.92,4.839,4.851,9.726-.077,1.323-1.335,1.347-2.055,0-3.366q-7.976-7.752-15.737-15.733c-1.286-1.327-2.035-1.432-3.365-.045-4.147,4.326-8.444,8.509-12.685,12.746-5.03,5.034-5,5,.167,9.791,1.139,1.054,1.884,1.241,2.946,0C230.517,273.268,232.389,271.282,234.488,268.962Zm44.732,21.776c1.054,1.005,1.937,1.831,2.8,2.678,4.773,4.692,4.717,4.639,9.409-.045,1.3-1.3,1.428-2.006.049-3.345q-7.887-7.634-15.537-15.513c-1.38-1.416-2.242-1.493-3.663,0-4.07,4.273-8.273,8.412-12.436,12.587-5.042,5.054-5.014,5.005.338,9.738,1.135,1.009,1.782.883,2.731-.11,1.921-2.035,3.935-3.956,6.1-6.1a6.483,6.483,0,0,1,.615,3.7v18.313c0,6.434,0,6.328,6.418,6.344,2.128,0,2.543-.785,2.523-2.653-.069-7.325-.041-14.65,0-21.975.012-1.095-.3-2.238.651-3.6Zm-78.729-.208a5.293,5.293,0,0,1,.68,3.528c0,6.3-.094,12.587-.114,18.882-.024,6.031,0,5.933,6.161,6.011,2.23.033,3-.533,2.959-2.869-.142-7.325-.069-14.622-.029-21.935,0-1.05-.407-2.218.5-3.186,1.221.444,1.917,1.51,2.763,2.348,5.144,5.087,5.083,5.054,10.044-.313,1.078-1.168.814-1.725-.114-2.661q-8.139-8.033-16.156-16.16c-1.07-1.087-1.807-1.262-2.967-.077-5.412,5.5-10.9,10.927-16.339,16.4-.439.44-1.4.924-.651,1.713a75.211,75.211,0,0,0,5.441,5.331c.855.737,1.416-.431,1.929-.94C196.524,294.69,198.4,292.708,200.492,290.531Z" transform="translate(-157.407 -203.87)" fill="#c3e436"/>
    <path id="Trazado_124263" data-name="Trazado 124263" d="M129.51,433.726c13.73-.024,27.465-.289,41.187-.02,36.707.724,73.414,0,110.121.281.509,0,1.013.02,1.522.028a21.293,21.293,0,0,1-.383,2.405c-7.83,28.723-25.768,47.8-54.173,56.969-4.4,1.416-9.026,1.668-13.429,3.036h-17.7c-1.066-1.192-2.6-.859-3.919-1.107-25.736-4.859-44.642-18.956-56.774-42.091A54.935,54.935,0,0,1,129.51,433.726Zm76.462,44.325c8.452.285,15.334-8.855,12.412-16.8-2.482-6.764-7.012-12.31-11.492-17.853-1.066-1.319-1.652-.517-2.324.317a95.918,95.918,0,0,0-10.41,15.366C189.56,467.824,196.042,477.791,205.972,478.051Zm34.041-14.089A9.064,9.064,0,0,0,248.5,451.62c-1.746-4.277-4.607-7.87-7.439-11.464-.789-1.005-1.331-.956-2.088,0-2.849,3.589-5.7,7.187-7.451,11.456A9.068,9.068,0,0,0,240.013,463.963Zm-59.195-10.174c-1.042-5.022-4.981-9.555-8.692-14.207-.57-.712-1.066-.045-1.441.407-2.938,3.622-5.8,7.325-7.618,11.655-1.5,3.581-.619,6.78,1.978,9.5a9.05,9.05,0,0,0,10.084,2.075c3.337-1.388,5.673-4.794,5.689-9.421Z" transform="translate(-123.34 -311.689)" fill="#61c2ff"/>
    <path id="Trazado_124267" data-name="Trazado 124267" d="M285.37,268.98c-2.1,2.307-3.98,4.293-5.766,6.365-1.062,1.221-1.807,1.046-2.946,0-5.164-4.794-5.2-4.757-.167-9.791,4.24-4.236,8.546-8.42,12.685-12.746,1.331-1.388,2.079-1.282,3.365.045q7.756,7.988,15.737,15.72c1.347,1.31,1.323,2.035,0,3.365-4.883,4.928-4.847,5-9.726.077a27.446,27.446,0,0,1-2.075-2.657c-1.506,1.245-.993,2.442-.993,3.447-.041,14.325-.09,28.653.028,42.978.02,2.523-.663,3.288-3.2,3.215-6.051-.167-6.051-.045-6.051-6.1q0-19.81-.02-39.621A6.288,6.288,0,0,0,285.37,268.98Z" transform="translate(-208.289 -203.888)" fill="#0b481e"/>
    <path id="Trazado_124268" data-name="Trazado 124268" d="M380.009,322.269c-.952,1.359-.639,2.5-.647,3.573-.028,7.325-.057,14.65,0,21.975.02,1.868-.407,2.657-2.523,2.653-6.418,0-6.418.09-6.418-6.344V325.814a6.449,6.449,0,0,0-.615-3.7c-2.161,2.157-4.175,4.094-6.1,6.1-.948.993-1.6,1.119-2.731.11-5.351-4.733-5.38-4.684-.338-9.738,4.163-4.175,8.371-8.314,12.436-12.587,1.4-1.477,2.267-1.4,3.663,0q7.659,7.9,15.533,15.55c1.38,1.339,1.253,2.035-.049,3.345-4.692,4.684-4.635,4.737-9.409.045C381.946,324.084,381.063,323.27,380.009,322.269Z" transform="translate(-258.196 -235.389)" fill="#adce32"/>
    <path id="Trazado_124269" data-name="Trazado 124269" d="M200.492,321.864c-2.1,2.165-3.968,4.147-5.9,6.064-.513.509-1.074,1.677-1.929.94a75.214,75.214,0,0,1-5.429-5.319c-.745-.789.212-1.274.651-1.713,5.437-5.478,10.927-10.9,16.339-16.4,1.16-1.184,1.9-1.009,2.967.077q8.021,8.139,16.156,16.16c.94.936,1.192,1.493.114,2.661-4.961,5.368-4.883,5.4-10.044.313-.846-.838-1.522-1.9-2.763-2.348-.916.969-.5,2.136-.5,3.186-.041,7.325-.114,14.626.029,21.935.045,2.336-.728,2.9-2.959,2.869-6.165-.077-6.186.02-6.161-6.011,0-6.3.1-12.587.114-18.882A5.314,5.314,0,0,0,200.492,321.864Z" transform="translate(-157.407 -235.203)" fill="#adce32"/>
    <path id="Trazado_124270" data-name="Trazado 124270" d="M297.994,491.338c-9.934-.26-16.412-10.227-11.8-18.968A95.385,95.385,0,0,1,296.6,457c.671-.834,1.258-1.628,2.324-.317,4.476,5.543,9.01,11.089,11.492,17.853C313.328,482.483,306.446,491.623,297.994,491.338Z" transform="translate(-215.362 -324.976)" fill="#fefefc"/>
    <path id="Trazado_124271" data-name="Trazado 124271" d="M387.722,472.466a9.064,9.064,0,0,1-8.489-12.347c1.754-4.269,4.611-7.866,7.451-11.456.757-.96,1.3-1.009,2.088,0,2.849,3.593,5.7,7.187,7.439,11.464A9.061,9.061,0,0,1,387.722,472.466Z" transform="translate(-271.049 -320.193)" fill="#fefefc"/>
    <path id="Trazado_124272" data-name="Trazado 124272" d="M228.646,462.106c0,4.627-2.352,8.037-5.7,9.441a9.05,9.05,0,0,1-10.084-2.075c-2.6-2.723-3.475-5.921-1.978-9.5,1.819-4.342,4.68-8.033,7.618-11.655.374-.46.871-1.127,1.441-.407C223.665,452.551,227.592,457.084,228.646,462.106Z" transform="translate(-171.167 -319.994)" fill="#fefefc"/>
  </g>
</svg>
