<svg xmlns="http://www.w3.org/2000/svg" width="182" height="181.503" viewBox="0 0 182 181.503">
  <g id="img22" transform="translate(-58.537 -183.561)">
    <path id="Trazado_123960" data-name="Trazado 123960" d="M92.67,228.441c14.409-24.133,35.441-39.041,63.121-43.58,40.259-6.615,77.72,12.382,96.062,48.315a86.942,86.942,0,0,1,9.357,49.994c-3.143,28.028-16.4,50.021-39.423,66.207-1.369.964-2.893,1.709-4.346,2.557L189.893,324.75a2.9,2.9,0,0,1-.813-2.311c5.026.045,10.1-.575,12.534-5.529,2.016-4.1,5.295-3,7.965-2.587,2.825.431.911,3.4,1.286,5.17.321,1.513-.068,3.4,2.216,3.445,5.109.087,10.211.026,16.1.026-7.208-7.4-8.721-15.983-9.016-24.961-.1-2.9-.234-5.813-.068-8.7.2-3.4-1.732-3.718-4.357-3.585-2.394.125-5.007-.526-4.856,3.426.189,4.954.125,9.924-.019,14.882-.034,1.188,1.089,3.479-1.282,3.4-2.3-.068-5.34,1.645-6.891-1.225-2.9-5.393-7.409-7.129-13.214-7.1-11.251.091-22.5-.068-33.754-.125V296.82c9.652-.042,19.288-.049,28.951-.144a6.829,6.829,0,0,0,7.186-6.9c.159-4.175.159-8.449,0-12.666s-2.708-6.535-6.959-6.736c-1.2-.057-2.432.121-3.616-.045-2.647-.378-3.211.821-3.147,3.264.121,4.451-1.725,6.335-6.214,6.384-7.6.079-15.2-.045-22.8-.087v-2.405c6.645-.034,13.29-.061,19.935-.113a22.937,22.937,0,0,0,4.33-.231c2.78-.533,1.967-2.844,2.107-4.671.121-1.547-.545-2.156-2.1-2.125-10.968.212-21.973-.378-32.952.31-.378-1.017-1.513-1.615-1.513-2.833,3.385-.042,6.77,0,10.147-.151,3.453-.166,7.9,1.535,10.083-.719,2-2.073.219-6.482.632-9.81,1.021-8.211-2.33-14.47-6.891-21.2-5.8-8.559-12.481-12.125-22.571-10.639-4.712.692-5.945,1.3-5.976,6.1q-.091,13.052-.151,26.1c-1.868.219-2.78-1.214-3.861-2.292Q108.074,242.964,95.82,230.7C94.9,229.788,94.179,228.551,92.67,228.441Zm77.406,29.121h0c0,2.53-.042,5.06.023,7.59.023.87-.477,2.167.843,2.417a6.827,6.827,0,0,0,3.54-.155c1.006-.378.48-1.706.586-2.625.843-7.3-2.863-15.62,4.97-21.364.957-.7.182-2.038-.666-2.833s-2.042-1.161-2.939-.31c-3.026,2.882-6.479,5.56-6.35,10.416.045,2.269-.008,4.561-.008,6.849Z" transform="translate(-21.224)" fill="#db9b85"/>
    <path id="Trazado_123961" data-name="Trazado 123961" d="M71.446,302.23c1.513.11,2.231,1.346,3.143,2.269q12.3,12.242,24.545,24.515c1.082,1.078,1.993,2.511,3.861,2.292.045,2.647.189,5.317.106,7.969-.057,1.755.59,2.269,2.3,2.269,4.107-.061,8.214.049,12.322.087,0,1.218,1.135,1.815,1.513,2.833.113,6.66.113,6.66,6.91,6.751.59,0,1.184.053,1.774.079V353.7a56.76,56.76,0,0,1-5.783.049c-2.519-.223-4.659-1.078-5.276-4.028-.378-1.8.942-4.334-1.04-5.295-1.577-.756-3.782-.246-5.707-.276a34.036,34.036,0,0,1-3.979-.03c-2.42-.287-3.067.719-3.026,3.048.136,6.634.635,13.347-.174,19.882-.469,3.782.809,3.495,3.343,3.483,9.41-.038,18.819.053,28.229.095v2.167c-3.026.053-6.051.144-9.058.159-7.617.034-15.241-.132-22.851.106-6.429.2-11.928,6.07-11.724,12s6.358,11.059,12.779,11.047c21.4-.042,42.8.079,64.2.14a2.9,2.9,0,0,0,.813,2.311q13.778,13.589,27.548,27.185a83.842,83.842,0,0,1-54.041,12.643c-37.23-3.869-63.439-23.535-77.2-58.159C54.389,353.612,57.075,327.218,71.446,302.23Z" transform="translate(0 -73.789)" fill="#f0d04f"/>
    <path id="Trazado_123962" data-name="Trazado 123962" d="M221.019,490.344c-21.4-.06-42.8-.182-64.2-.14-6.429,0-12.568-5.075-12.779-11.047s5.295-11.792,11.724-12c7.609-.238,15.234-.072,22.851-.106,3.026,0,6.051-.106,9.058-.159,11.251.057,22.5.216,33.754.125,5.809-.045,10.31,1.7,13.214,7.087,1.551,2.871,4.588,1.157,6.891,1.225,2.371.072,1.248-2.22,1.282-3.4.144-4.958.208-9.928.019-14.882-.151-3.952,2.462-3.3,4.856-3.426,2.625-.132,4.538.193,4.357,3.585-.166,2.893-.03,5.805.068,8.7.3,8.978,1.808,17.56,9.016,24.961-5.877,0-10.994.06-16.1-.026-2.269-.038-1.891-1.914-2.216-3.445-.378-1.785,1.539-4.739-1.286-5.17-2.685-.408-5.949-1.513-7.965,2.587C231.12,489.769,226.045,490.39,221.019,490.344Zm-19.511-4.588a7.137,7.137,0,0,0,7-7.235,7.22,7.22,0,0,0-7.36-6.913,7.148,7.148,0,0,0-6.959,7.28,7.046,7.046,0,0,0,7.322,6.868Zm-22.881,0a7.106,7.106,0,1,0-7.034-7.114,6.951,6.951,0,0,0,7.038,7.129Zm45.006,0a7.051,7.051,0,1,0-6.834-7.394,7.145,7.145,0,0,0,6.842,7.4Zm-67.671.019a7.067,7.067,0,1,0,.083-14.133,6.8,6.8,0,0,0-7.072,6.978,6.908,6.908,0,0,0,7,7.159Z" transform="translate(-53.162 -167.909)" fill="#fefdfd"/>
    <path id="Trazado_123963" data-name="Trazado 123963" d="M207.295,439.234c-9.41-.042-18.819-.132-28.229-.095-2.534,0-3.812.31-3.343-3.483.809-6.535.31-13.237.174-19.882-.049-2.33.6-3.336,3.026-3.048,1.309.155,2.647,0,3.979.03,1.925.03,4.13-.484,5.707.276,1.982.957.662,3.487,1.04,5.295.616,2.95,2.757,3.8,5.276,4.028a56.751,56.751,0,0,0,5.783-.049c7.6.042,15.2.166,22.8.087,4.489-.049,6.335-1.933,6.214-6.384-.064-2.443.5-3.638,3.147-3.264a35.962,35.962,0,0,0,3.616.045c4.251.2,6.808,2.549,6.959,6.736s.155,8.449,0,12.666-3.026,6.864-7.186,6.9C226.6,439.2,216.946,439.2,207.295,439.234Zm5.745-7.186q-9.054-.064-18.108-.11c-.942,0-2.141-.113-2.133,1.278s1.214,1.335,2.148,1.327c6.028-.049,12.057-.144,18.085-.227,3.858.083,7.715.185,11.569.238,1.006,0,2.118-.227,2-1.513-.087-1-1.082-1.135-1.974-1.135Zm1.414-5.488c-6.384-.083-12.768-.182-19.152-.227-1.021,0-2.473-.216-2.481,1.343,0,1.622,1.46,1.282,2.466,1.282,6.4,0,12.787-.06,19.178-.095,3.339.038,6.683.083,10.026.11.968,0,2.125,0,2.107-1.309-.023-1.237-1.169-1.365-2.141-1.35-3.336.06-6.668.147-10,.234Z" transform="translate(-72.807 -142.426)" fill="#fefdfd"/>
    <path id="Trazado_123964" data-name="Trazado 123964" d="M190.787,335.908c-4.107-.038-8.214-.147-12.322-.087-1.709.023-2.356-.507-2.3-2.269.083-2.647-.061-5.314-.106-7.969q.072-13.052.151-26.1c.03-4.8,1.263-5.4,5.976-6.1,10.113-1.486,16.784,2.08,22.594,10.639,4.561,6.728,7.912,12.987,6.891,21.2-.412,3.328,1.373,7.738-.632,9.81-2.182,2.269-6.63.552-10.083.719C197.568,335.919,194.191,335.866,190.787,335.908Zm15.688-22.62c-2.965-3.873-5.9-6.963-7.942-10.559-2.432-4.281-5.964-4.637-10.094-4.262-2.519.231-4.391,1.483-4.183,4.032.3,3.669-2.137,8.2,2.833,10.65a1.6,1.6,0,0,0,.707.132c5.991.008,11.97.008,18.691.008Zm2.432,8.4c.442-2.152-.605-2.685-2.576-2.587-1.759.087-3.026.378-3.113,2.519-.087,2.352,1.271,2.67,3.2,2.757,2.091.095,2.9-.654,2.5-2.689Zm-13.146,6.766c-.2-1.021.726-3.468-1.774-3.377-2.107.076-1.433,2.341-1.535,3.782a12.884,12.884,0,0,0,.068,2.5c.117.893.6,1.615,1.6,1.622a1.555,1.555,0,0,0,1.63-1.57c.091-.817.026-1.657.026-2.961Zm-8.26-6.808c1.35-.314,3.638.5,3.574-1.849-.053-2.1-2.171-1.441-3.491-1.426-1.414,0-3.7-.756-3.653,1.638.049,1.929,2.16,1.418,3.582,1.634Zm2.621,7.485h.11a23.284,23.284,0,0,0-.163-2.867c-.163-.938-.915-1.641-1.8-1.2-2,1-1.021,2.973-1.135,4.538-.076,1.2-.586,2.825,1.2,3.347a1.332,1.332,0,0,0,1.755-1.3,19.425,19.425,0,0,0,.045-2.526Zm10.968.11c0-.84.045-1.679,0-2.519-.076-1.085-.635-2.05-1.785-1.675-1.865.605-1.309,2.4-1.214,3.721.1,1.475-1.021,3.582,1.46,4.179,1.036.25,1.467-.62,1.539-1.547.064-.719.019-1.441.019-2.163Z" transform="translate(-73.076 -68.088)" fill="#fefdfd"/>
    <path id="Trazado_123965" data-name="Trazado 123965" d="M227.723,420.1c-.59-.026-1.184-.072-1.774-.079-6.808-.091-6.808-.091-6.91-6.751,10.968-.692,21.97-.1,32.952-.31,1.558-.03,2.224.579,2.1,2.125-.14,1.827.673,4.137-2.107,4.671a23.917,23.917,0,0,1-4.33.231C241,420.039,234.353,420.065,227.723,420.1Z" transform="translate(-99.801 -142.617)" fill="#fefdfd"/>
    <path id="Trazado_123966" data-name="Trazado 123966" d="M297.224,349.964c0-2.288.053-4.58,0-6.864-.129-4.856,3.309-7.534,6.35-10.416.9-.851,2.057-.514,2.939.31s1.622,2.133.666,2.833c-7.844,5.745-4.137,14.065-4.981,21.364-.106.919.42,2.239-.586,2.625a6.826,6.826,0,0,1-3.54.155c-1.32-.25-.821-1.547-.843-2.417-.064-2.53-.023-5.06-.023-7.59Z" transform="translate(-148.372 -92.417)" fill="#fefdfd"/>
    <path id="Trazado_123967" data-name="Trazado 123967" d="M283.96,515.366a7.046,7.046,0,0,1-7.322-6.868,7.162,7.162,0,1,1,7.322,6.868Zm-3.759-7.273c.072,2.269,1.161,3.65,3.5,3.714a3.528,3.528,0,1,0,.276-7.05c-2.02-.019-3.835.707-3.771,3.336Z" transform="translate(-135.615 -197.518)" fill="#004624"/>
    <path id="Trazado_123968" data-name="Trazado 123968" d="M223.941,515.358a6.951,6.951,0,0,1-7.035-7.114,7.088,7.088,0,1,1,7.034,7.116Zm3.729-7.061c-.378-2.243-1.573-3.7-3.869-3.551a3.268,3.268,0,0,0-3.309,3.593c.061,2.364,1.433,3.525,3.748,3.449C226.464,511.7,227.349,510.226,227.67,508.3Z" transform="translate(-98.473 -197.495)" fill="#004624"/>
    <path id="Trazado_123969" data-name="Trazado 123969" d="M343.266,515.473a7.051,7.051,0,1,1,.677-14.084,7.05,7.05,0,1,1-.677,14.084Zm.567-3.536c2.167-.242,3.438-1.471,3.324-3.756a3.569,3.569,0,0,0-7.129.269c.057,2.262,1.411,3.453,3.8,3.487Z" transform="translate(-172.789 -197.622)" fill="#004624"/>
    <path id="Trazado_123970" data-name="Trazado 123970" d="M164.1,515.453a6.916,6.916,0,0,1-6.989-7.156,7.056,7.056,0,0,1,14.111.125,6.925,6.925,0,0,1-7.121,7.031Zm3.589-7.137c-.212-2.383-1.592-3.729-3.782-3.468-1.846.219-3.941,1.135-3.676,3.529a3.726,3.726,0,0,0,3.877,3.476C166.455,511.887,167.544,510.487,167.688,508.317Z" transform="translate(-61.292 -197.583)" fill="#004624"/>
    <path id="Trazado_123971" data-name="Trazado 123971" d="M242.734,451.369c-6.392.034-12.783.087-19.178.095-1.006,0-2.473.34-2.466-1.282,0-1.558,1.46-1.35,2.481-1.343,6.384.045,12.768.144,19.152.227Z" transform="translate(-101.076 -164.942)" fill="#004624"/>
    <path id="Trazado_123972" data-name="Trazado 123972" d="M241.264,466.086c-6.028.083-12.057.178-18.085.227-.934,0-2.141.034-2.148-1.327s1.191-1.282,2.133-1.278q9.054.034,18.108.11Q241.271,464.951,241.264,466.086Z" transform="translate(-101.038 -174.194)" fill="#004624"/>
    <path id="Trazado_123973" data-name="Trazado 123973" d="M274.53,466.064v-2.269l11.592-.125c.893,0,1.891.121,1.974,1.135.113,1.282-1,1.513-2,1.513C282.245,466.238,278.388,466.136,274.53,466.064Z" transform="translate(-134.305 -174.172)" fill="#004624"/>
    <path id="Trazado_123974" data-name="Trazado 123974" d="M278.32,451.359v-2.3c3.336-.087,6.668-.189,10-.246.972,0,2.118.113,2.141,1.35.019,1.293-1.135,1.316-2.107,1.309C285.007,451.442,281.659,451.4,278.32,451.359Z" transform="translate(-136.661 -164.932)" fill="#004624"/>
    <path id="Trazado_123975" data-name="Trazado 123975" d="M219.423,322H200.744a1.6,1.6,0,0,1-.707-.132c-4.97-2.447-2.534-6.982-2.833-10.65-.208-2.549,1.664-3.8,4.183-4.032,4.13-.378,7.662-.019,10.094,4.262C213.523,315.034,216.458,318.124,219.423,322Z" transform="translate(-86.013 -76.797)" fill="#004624"/>
    <path id="Trazado_123976" data-name="Trazado 123976" d="M253.582,364.479c.4,2.035-.408,2.784-2.489,2.689-1.929-.087-3.287-.4-3.2-2.757.076-2.129,1.354-2.432,3.113-2.519C252.976,361.793,254.024,362.327,253.582,364.479Z" transform="translate(-117.74 -110.88)" fill="#004624"/>
    <path id="Trazado_123977" data-name="Trazado 123977" d="M222.712,381.1c0,1.3.064,2.144,0,2.973a1.57,1.57,0,0,1-1.63,1.57,1.629,1.629,0,0,1-1.6-1.622,12.886,12.886,0,0,1-.068-2.5c.1-1.452-.571-3.718,1.535-3.782C223.438,377.633,222.512,380.08,222.712,381.1Z" transform="translate(-100.016 -120.736)" fill="#004624"/>
    <path id="Trazado_123978" data-name="Trazado 123978" d="M200.469,363.074c-1.422-.216-3.54.295-3.57-1.638-.042-2.386,2.239-1.619,3.653-1.638,1.32,0,3.438-.677,3.491,1.426C204.123,363.593,201.819,362.761,200.469,363.074Z" transform="translate(-86.033 -109.521)" fill="#004624"/>
    <path id="Trazado_123979" data-name="Trazado 123979" d="M208.154,381.5c0,.84.064,1.687,0,2.515a1.333,1.333,0,0,1-1.755,1.3c-1.789-.522-1.278-2.144-1.2-3.347.095-1.558-.881-3.532,1.135-4.538.889-.446,1.641.257,1.8,1.2a23.287,23.287,0,0,1,.163,2.867Z" transform="translate(-91.097 -120.465)" fill="#004624"/>
    <path id="Trazado_123980" data-name="Trazado 123980" d="M237.085,381.681c0,.719.045,1.441,0,2.156-.072.927-.5,1.8-1.539,1.547-2.481-.6-1.358-2.7-1.46-4.179-.095-1.324-.651-3.116,1.214-3.721,1.135-.378,1.709.59,1.785,1.675C237.13,380,237.085,380.837,237.085,381.681Z" transform="translate(-109.053 -120.529)" fill="#004624"/>
    <path id="Trazado_123981" data-name="Trazado 123981" d="M286.067,513.915c-.064-2.628,1.808-3.355,3.782-3.336a3.528,3.528,0,1,1-.276,7.05C287.228,517.569,286.139,516.177,286.067,513.915Z" transform="translate(-141.478 -203.34)" fill="#004624"/>
    <path id="Trazado_123982" data-name="Trazado 123982" d="M233.566,514.14c-.321,1.944-1.206,3.4-3.43,3.491-2.315.076-3.687-1.085-3.748-3.449a3.268,3.268,0,0,1,3.309-3.593C231.992,510.422,233.191,511.871,233.566,514.14Z" transform="translate(-104.369 -203.338)" fill="#004624"/>
    <path id="Trazado_123983" data-name="Trazado 123983" d="M349.742,517.65c-2.394-.034-3.748-1.275-3.8-3.487a3.339,3.339,0,0,1,3.612-3.593,3.291,3.291,0,0,1,3.517,3.324C353.188,516.179,351.917,517.408,349.742,517.65Z" transform="translate(-178.705 -203.335)" fill="#004624"/>
    <path id="Trazado_123984" data-name="Trazado 123984" d="M172.8,514.07c-.144,2.171-1.233,3.57-3.57,3.536a3.726,3.726,0,0,1-3.877-3.476c-.265-2.409,1.83-3.309,3.676-3.529C171.207,510.357,172.588,511.688,172.8,514.07Z" transform="translate(-66.404 -203.337)" fill="#fefdfd"/>
  </g>
</svg>
