<svg xmlns="http://www.w3.org/2000/svg" width="139.531" height="122.205" viewBox="0 0 139.531 122.205">
  <g id="img21" transform="translate(0 19.524) rotate(-9)">
    <path id="Trazado_113591" data-name="Trazado 113591" d="M967.037,221.329c-8.725,1.1-11.148,9.3-10.149,16.992.859,6.608,5.3,12.979,4.9,19.715-.291,4.786-5.2,3.548-8.508,2.7-4.185-1.066-8.525-2.569-12.9-2.237-3.339.253-6.718,2.038-7.743,5.448-.874,2.9.8,5.553,2.9,7.437,6.13,5.509,15.543,7.869,23.053,10.693,2.786,1.048,11.491,2.193,12.2,5.54.493,2.339-4.63,2.477-6.117,2.585-5.535.406-11.054-.317-16.586-.192-3.638.082-12.815.542-11.989,6.151.565,3.817,4.7,6.8,7.759,8.561a94.567,94.567,0,0,0,14.308,6.634,124.718,124.718,0,0,0,19.2,5.018,143.024,143.024,0,0,0,18.989,2.8c2.924.182,5.849.13,8.771.378a1.479,1.479,0,0,0,1.061,1.242,97.788,97.788,0,0,0,17.12,4.054c4.574.585,9.564.509,13.419-2.36,4.379-3.257,6.93-8.748,10.008-13.122,2.832-4.029,6.278-7.833,8.316-12.355,2.091-4.642,4.144-12.677-1.437-15.8-7.092-3.962-15.387,3.216-22.392,3.952-1.708.179-4.617.023-5.338-1.961-.491-1.355.529-2.937,1.227-4.024,2.1-3.264,5.159-5.954,8.009-8.541,4.939-4.484,10.9-9.466,7.863-16.949-3.454-8.515-14.714-8.955-21.387-4.169-3.722,2.671-6.087,6.672-7.838,10.821a40.745,40.745,0,0,0-1.84,5.476c-.839,3.162-2.907,4.7-6.069,2.659-4.829-3.111-6.442-10.417-8.308-15.413a89.638,89.638,0,0,0-7.646-16.537C984.758,228.393,977.689,219.99,967.037,221.329Z" transform="translate(-932.391 -221.188)" fill="#add031"/>
    <g id="Grupo_80153" data-name="Grupo 80153" transform="translate(33.699 13.906)">
      <path id="Trazado_113592" data-name="Trazado 113592" d="M945.582,227.6a64.421,64.421,0,0,0,3.331,14.886,107.924,107.924,0,0,0,6.112,13.132,157.584,157.584,0,0,0,16.415,24.6,163,163,0,0,0,21.1,21.3q5.384,4.563,11.1,8.751c3.962,2.9,8.4,6.488,13.278,7.575.642.143,1.227-.672.68-1.168-3.461-3.129-7.925-5.218-11.736-7.912-3.985-2.82-7.856-5.831-11.6-8.96a146.623,146.623,0,0,1-19.771-20.275,158.8,158.8,0,0,1-15.936-23.928c-4.729-8.659-9.206-18.5-11.005-28.258-.2-1.092-2.109-.854-1.961.266Z" transform="translate(-945.574 -226.627)" fill="#4f9638"/>
    </g>
    <g id="Grupo_80154" data-name="Grupo 80154" transform="translate(92.814 64.497)">
      <path id="Trazado_113593" data-name="Trazado 113593" d="M970.129,272.993c2.822-4.394,5.484-8.894,8.357-13.255,1.4-2.13,2.855-4.226,4.4-6.25,1.629-2.129,3.518-4.126,4.947-6.4.225-.355-.238-.864-.6-.6A27.036,27.036,0,0,0,982,252.063c-1.626,2.109-3.152,4.29-4.617,6.511-2.955,4.486-5.673,9.124-8.562,13.651-.526.828.785,1.588,1.309.767Z" transform="translate(-968.698 -246.417)" fill="#4f9638"/>
    </g>
    <g id="Grupo_80155" data-name="Grupo 80155" transform="translate(50.147 10.429)">
      <path id="Trazado_113594" data-name="Trazado 113594" d="M958.936,269.076c2.559-6.941,2.025-14.832.795-21.988a89.889,89.889,0,0,0-2.891-11.9c-1-3.165-2.017-7.053-4.044-9.735-.266-.353-.913-.171-.767.325.926,3.106,2.531,6.038,3.551,9.139a90.589,90.589,0,0,1,2.953,11.511c1.355,7.229,2.413,15.423.095,22.565-.064.2.238.274.309.084Z" transform="translate(-952.008 -225.267)" fill="#4f9638"/>
    </g>
    <g id="Grupo_80156" data-name="Grupo 80156" transform="translate(3.075 45.292)">
      <path id="Trazado_113595" data-name="Trazado 113595" d="M980.035,247.2c-4.162-.386-8.241-.532-12.391-1.109-3.96-.55-7.961-.759-11.913-1.378a105.8,105.8,0,0,1-11.959-2.51c-3.262-.908-6.347-3.116-9.753-3.3a.444.444,0,0,0-.222.821c6.542,4.172,14.8,5.66,22.361,6.7,3.745.511,7.521.813,11.284,1.158,4.218.386,8.377.072,12.592.3.44.023.43-.639,0-.68Z" transform="translate(-933.594 -238.905)" fill="#4f9638"/>
    </g>
    <g id="Grupo_80157" data-name="Grupo 80157" transform="translate(10.814 75.256)">
      <path id="Trazado_113596" data-name="Trazado 113596" d="M936.929,251.784c8.815,4.19,18.5,5.862,28.166,6.836a105.958,105.958,0,0,0,15.655.187c2.534-.123,5.067-.284,7.6-.4,2.273-.1,4.824.307,6.864-.79a.645.645,0,0,0,0-1.1c-1.8-.925-3.791-.55-5.777-.47-2.533.1-5.067.243-7.6.353a124.178,124.178,0,0,1-15.205-.112,129.692,129.692,0,0,1-29.225-5.632c-.659-.21-1.12.826-.478,1.13Z" transform="translate(-936.621 -250.626)" fill="#4f9638"/>
    </g>
    <g id="Grupo_80158" data-name="Grupo 80158" transform="translate(72.479 29.49)">
      <path id="Trazado_113597" data-name="Trazado 113597" d="M961.34,276.549c1.882-4.584,3.834-9.07,6.115-13.47a80.378,80.378,0,0,1,7.907-11.946,59.733,59.733,0,0,1,10.118-9.771c1.67-1.36,3.2-2.881,4.89-4.213,1.516-1.191,3.656-1.991,4.97-3.349a.625.625,0,0,0-.274-1.035c-3.487-.547-7.286,4.425-9.589,6.452-1.784,1.57-3.753,2.9-5.473,4.548-1.92,1.841-3.587,3.909-5.4,5.854a49.347,49.347,0,0,0-8.482,12.263c-2.232,4.619-3.709,9.661-5.363,14.508-.128.371.435.506.578.159Z" transform="translate(-960.744 -232.724)" fill="#4f9638"/>
    </g>
  </g>
</svg>
