<svg xmlns="http://www.w3.org/2000/svg" xmlns:xlink="http://www.w3.org/1999/xlink" width="103" height="103" viewBox="0 0 103 103"><defs><filter id="a" x="0" y="0" width="103" height="103" filterUnits="userSpaceOnUse"><feOffset dy="3" input="SourceAlpha"/><feGaussianBlur stdDeviation="3" result="b"/><feFlood flood-opacity="0.161"/><feComposite operator="in" in2="b"/><feComposite in="SourceGraphic"/></filter></defs><g transform="translate(-361 -1297)"><g transform="matrix(1, 0, 0, 1, 361, 1297)" filter="url(#a)"><circle cx="42.5" cy="42.5" r="42.5" transform="translate(9 6)" fill="#ffd3c3"/></g><circle cx="32.5" cy="32.5" r="32.5" transform="translate(380 1313)" fill="#429fff"/><g transform="translate(389 1316.6)"><path d="M46,18.7a.948.948,0,0,0-1.3.2l-4.2,5.7H33l-4.5-7.8,3.7-7.6a.894.894,0,0,0-1.6-.8L26.8,16H18L13.8,7.7a.9.9,0,0,0-1.3-.4.955.955,0,0,0-.4,1.3L16.3,17l-4.7,8.2a.75.75,0,0,0,0,.9l4.7,8.2-3.9,7.2H5a.9.9,0,0,0,0,1.8h8a.891.891,0,0,0,.8-.5l4.1-7.7h8.9L30,40.8a1.02,1.02,0,0,0,.8.5.9.9,0,0,0,.5-.1,1.094,1.094,0,0,0,.4-1.3l-3.3-5.8,4.5-7.7h8a.909.909,0,0,0,.8-.4l4.5-6.1a.841.841,0,0,0-.2-1.2ZM26.8,33.3H17.9l-4.5-7.7,4.5-7.7h8.9l4.5,7.7Z" fill="#666"/><path d="M20.4,17.2a2.946,2.946,0,0,1-3,3A2.813,2.813,0,0,1,15,18.9a2.716,2.716,0,0,1-.6-1.7,2.946,2.946,0,0,1,3-3,2.716,2.716,0,0,1,1.7.6A2.813,2.813,0,0,1,20.4,17.2Z" fill="#ccc"/><path d="M35.2,25.6a2.946,2.946,0,0,1-3,3,3.127,3.127,0,0,1-2.5-1.3,3.486,3.486,0,0,1-.6-1.7,2.946,2.946,0,0,1,3-3,2.523,2.523,0,0,1,1.7.6A2.486,2.486,0,0,1,35.2,25.6Z" fill="#638b3f"/><path d="M30.4,16.9a2.946,2.946,0,0,1-3,3,3.127,3.127,0,0,1-2.5-1.3,3.486,3.486,0,0,1-.6-1.7,2.946,2.946,0,0,1,3-3,2.523,2.523,0,0,1,1.7.6A2.693,2.693,0,0,1,30.4,16.9Z" fill="#ed7161"/><path d="M20.4,34.2a2.946,2.946,0,0,1-3,3A2.813,2.813,0,0,1,15,35.9a2.792,2.792,0,0,1-.6-1.8,2.946,2.946,0,0,1,3-3,2.716,2.716,0,0,1,1.7.6,3.127,3.127,0,0,1,1.3,2.5Z" fill="#d56455"/><path d="M30.6,34a2.946,2.946,0,0,1-3,3,2.813,2.813,0,0,1-2.4-1.3,2.716,2.716,0,0,1-.6-1.7,3.009,3.009,0,0,1,3-3,2.792,2.792,0,0,1,1.8.6A2.98,2.98,0,0,1,30.6,34Z" fill="#ea449f"/><path d="M15.8,25.6a2.946,2.946,0,0,1-3,3,2.813,2.813,0,0,1-2.4-1.3,2.716,2.716,0,0,1-.6-1.7,2.946,2.946,0,0,1,3-3,2.523,2.523,0,0,1,1.7.6,2.813,2.813,0,0,1,1.3,2.4Z" fill="#1f5878"/><path d="M15.7,7.6a2.946,2.946,0,0,1-3,3,3.127,3.127,0,0,1-2.5-1.3,2.887,2.887,0,0,1-.6-1.7,2.946,2.946,0,0,1,3-3,2.716,2.716,0,0,1,1.7.6,2.693,2.693,0,0,1,1.4,2.4Z" fill="#d56455"/><path d="M34.6,8.1a2.946,2.946,0,0,1-3,3,3.009,3.009,0,0,1-3-3,2.946,2.946,0,0,1,3-3A3.009,3.009,0,0,1,34.6,8.1Z" fill="#e7b95d"/><path d="M49,18.3a2.946,2.946,0,0,1-3,3A3.127,3.127,0,0,1,43.5,20a2.86,2.86,0,0,1-.5-1.7,2.946,2.946,0,0,1,3-3,2.716,2.716,0,0,1,1.7.6A2.813,2.813,0,0,1,49,18.3Z" fill="#1f5878"/><path d="M43.8,25.2a2.946,2.946,0,0,1-3,3,2.813,2.813,0,0,1-2.4-1.3,2.716,2.716,0,0,1-.6-1.7,2.946,2.946,0,0,1,3-3,2.352,2.352,0,0,1,1.7.6A2.813,2.813,0,0,1,43.8,25.2Z" fill="#ccc"/><path d="M15.9,41.9a2.946,2.946,0,0,1-3,3,2.813,2.813,0,0,1-2.4-1.3,2.716,2.716,0,0,1-.6-1.7,2.946,2.946,0,0,1,3-3,2.523,2.523,0,0,1,1.7.6A2.813,2.813,0,0,1,15.9,41.9Z" fill="#ccc"/><path d="M7,42.4a2.946,2.946,0,0,1-3,3,3.127,3.127,0,0,1-2.5-1.3A3.371,3.371,0,0,1,1,42.4a2.946,2.946,0,0,1,3-3,2.716,2.716,0,0,1,1.7.6A2.813,2.813,0,0,1,7,42.4Z" fill="#d56455"/><path d="M34.9,42a2.946,2.946,0,0,1-3,3,3.156,3.156,0,0,1-3-3.1,2.946,2.946,0,0,1,3-3,2.792,2.792,0,0,1,1.8.6A3.338,3.338,0,0,1,34.9,42Z" fill="#e7b95d"/><path d="M19.7,16.5a2.946,2.946,0,0,1-3,3,2.716,2.716,0,0,1-1.7-.6,2.716,2.716,0,0,1-.6-1.7,2.946,2.946,0,0,1,3-3,2.716,2.716,0,0,1,1.7.6,2.352,2.352,0,0,1,.6,1.7Z" fill="#e6e6e6"/><path d="M34.4,24.9a2.946,2.946,0,0,1-3,3,2.523,2.523,0,0,1-1.7-.6,3.486,3.486,0,0,1-.6-1.7,2.946,2.946,0,0,1,3-3,2.523,2.523,0,0,1,1.7.6,2.352,2.352,0,0,1,.6,1.7Z" fill="#88c057"/><path d="M29.7,16.2a2.946,2.946,0,0,1-3,3,2.792,2.792,0,0,1-1.8-.6,3.486,3.486,0,0,1-.6-1.7,2.946,2.946,0,0,1,3-3,2.523,2.523,0,0,1,1.7.6,2.06,2.06,0,0,1,.7,1.7Z" fill="#ed7161"/><path d="M19.7,33.5a2.946,2.946,0,0,1-3,3,2.716,2.716,0,0,1-1.7-.6,2.792,2.792,0,0,1-.6-1.8,2.946,2.946,0,0,1,3-3,2.716,2.716,0,0,1,1.7.6,3.226,3.226,0,0,1,.6,1.8Z" fill="#ed7161"/><path d="M29.9,33.3a3.009,3.009,0,0,1-3,3,2.716,2.716,0,0,1-1.7-.6,2.716,2.716,0,0,1-.6-1.7,3.009,3.009,0,0,1,3-3,2.792,2.792,0,0,1,1.8.6,3.371,3.371,0,0,1,.5,1.7Z" fill="#f06eaa"/><path d="M15.1,24.9a2.946,2.946,0,0,1-3,3,2.523,2.523,0,0,1-1.7-.6,2.716,2.716,0,0,1-.6-1.7,2.946,2.946,0,0,1,3-3,2.523,2.523,0,0,1,1.7.6A2.352,2.352,0,0,1,15.1,24.9Z" fill="#26688d"/><path d="M15,6.9a2.946,2.946,0,0,1-3,3,2.792,2.792,0,0,1-1.8-.6,2.887,2.887,0,0,1-.6-1.7,3.005,3.005,0,0,1,4.7-2.5A2.743,2.743,0,0,1,15,6.9Z" fill="#ed7161"/><path d="M33.3,5.7a2.792,2.792,0,0,0-1.8-.6,3.012,3.012,0,0,0-2.4,4.8,3.486,3.486,0,0,0,1.7.6,2.946,2.946,0,0,0,3-3,2.068,2.068,0,0,0-.5-1.8Z" fill="#fc6"/><path d="M48.3,17.6a2.946,2.946,0,0,1-3,3,2.792,2.792,0,0,1-1.8-.6,2.86,2.86,0,0,1-.5-1.7,2.946,2.946,0,0,1,3-3,2.716,2.716,0,0,1,1.7.6A2.716,2.716,0,0,1,48.3,17.6Z" fill="#26688d"/><path d="M43.1,24.5a2.946,2.946,0,0,1-3,3,2.716,2.716,0,0,1-1.7-.6,2.716,2.716,0,0,1-.6-1.7,2.946,2.946,0,0,1,3-3,2.089,2.089,0,0,1,2.3,2.3Z" fill="#e6e6e6"/><path d="M15.2,41.2a2.946,2.946,0,0,1-3,3,2.716,2.716,0,0,1-1.7-.6,2.716,2.716,0,0,1-.6-1.7,2.946,2.946,0,0,1,3-3,2.523,2.523,0,0,1,1.7.6A2.716,2.716,0,0,1,15.2,41.2Z" fill="#e6e6e6"/><path d="M6.3,41.7a2.946,2.946,0,0,1-3,3,2.523,2.523,0,0,1-1.7-.6A2.716,2.716,0,0,1,1,42.4a2.946,2.946,0,0,1,3-3,2.716,2.716,0,0,1,1.7.6,2.352,2.352,0,0,1,.6,1.7Z" fill="#ed7161"/><path d="M34.2,41.3a2.946,2.946,0,0,1-3,3,2.716,2.716,0,0,1-1.7-.6,2.792,2.792,0,0,1-.6-1.8,2.946,2.946,0,0,1,3-3,2.792,2.792,0,0,1,1.8.6A4.075,4.075,0,0,1,34.2,41.3Z" fill="#fc6"/></g></g></svg>