<svg xmlns="http://www.w3.org/2000/svg" xmlns:xlink="http://www.w3.org/1999/xlink" width="103" height="103" viewBox="0 0 103 103"><defs><filter id="a" x="0" y="0" width="103" height="103" filterUnits="userSpaceOnUse"><feOffset dy="3" input="SourceAlpha"/><feGaussianBlur stdDeviation="3" result="b"/><feFlood flood-opacity="0.161"/><feComposite operator="in" in2="b"/><feComposite in="SourceGraphic"/></filter></defs><g transform="translate(-361 -1143)"><g transform="matrix(1, 0, 0, 1, 361, 1143)" filter="url(#a)"><circle cx="42.5" cy="42.5" r="42.5" transform="translate(9 6)" fill="#ffd3c3"/></g><circle cx="32.5" cy="32.5" r="32.5" transform="translate(380 1159)" fill="#429fff"/><g transform="translate(388 1166.23)"><path d="M51.887,44h.759a1.552,1.552,0,0,1,0,3.1h-.759" transform="translate(-11.191 -9.422)" fill="#442518"/><path d="M41.455,44H40.7a1.552,1.552,0,0,0,0,3.1h.759" transform="translate(-8.341 -9.422)" fill="#674025"/><path d="M50.679,38.789a8.493,8.493,0,0,0-10.43,0l.877,2.244a7.987,7.987,0,0,1-.738,7.252l-.233.417v-.02A3.3,3.3,0,0,1,42.584,50.5a2.189,2.189,0,0,0,1.962,1.241h1.838A2.189,2.189,0,0,0,48.345,50.5a3.3,3.3,0,0,1,2.426-1.82l-.233-.4a7.987,7.987,0,0,1-.737-7.253l.875-2.238Z" transform="translate(-8.56 -7.852)" fill="#f5cf88"/><path d="M40.253,38.789l.877,2.244a7.989,7.989,0,0,1-.738,7.251l-.221.4A3.3,3.3,0,0,1,42.587,50.5a2.189,2.189,0,0,0,1.962,1.241h1.17a28.111,28.111,0,0,0,2.393-11.374,28.489,28.489,0,0,0-.155-2.983,8.433,8.433,0,0,0-7.7,1.409Z" transform="translate(-8.563 -7.852)" fill="#fadfb2"/><path d="M40.158,52.075l.01-.019-.007,0Z" transform="translate(-8.56 -11.229)" fill="#fadfb2"/><g transform="translate(3.697 10.857)"><path d="M0,0H1.551V3.635H0Z" transform="matrix(0.832, -0.555, 0.555, 0.832, 18.604, 7.072)" fill="#d5cec2"/><path d="M0,0H3.593V1.551H0Z" transform="matrix(0.555, -0.832, 0.832, 0.555, 21.26, 9.2)" fill="#d5cec2"/><path d="M0,0H1.551V3.436H0Z" transform="matrix(0.832, -0.555, 0.555, 0.832, 0, 30.349)" fill="#d5cec2"/><path d="M0,0H3.866V1.551H0Z" transform="matrix(0.555, -0.832, 0.832, 0.555, 2.505, 32.697)" fill="#d5cec2"/><path d="M0,0H1.551V3.5H0Z" transform="matrix(0.832, -0.555, 0.555, 0.832, 39.542, 0.861)" fill="#d5cec2"/><path d="M0,0H3.871V1.551H0Z" transform="matrix(0.555, -0.832, 0.832, 0.555, 42.041, 3.221)" fill="#d5cec2"/></g><path d="M31.871,12.43H41.2a3.926,3.926,0,0,1,2.777,1.151,4.019,4.019,0,0,0,2.843,1.176,1.438,1.438,0,0,0,.643-2.724L47.4,12a1.255,1.255,0,0,1,0-2.245l.063-.032A1.438,1.438,0,0,0,46.819,7a4.019,4.019,0,0,0-2.841,1.177A3.926,3.926,0,0,1,41.2,9.327H31.871a3.121,3.121,0,0,1,.1.776,3.085,3.085,0,0,1-.109.776,3.085,3.085,0,0,1,.109.776,3.13,3.13,0,0,1-.063.625Z" transform="translate(-6.698 -1.122)" fill="#f5cf88"/><path d="M45.465,28.635a6.169,6.169,0,0,1,.967-3.328l-.016-.01A9.716,9.716,0,0,0,43.191,17l-3.033,3.878a8.114,8.114,0,0,1,4.781,5.6Z" transform="translate(-8.56 -3.365)" fill="#976947"/><path d="M43.635,31.551h2.893a6.177,6.177,0,0,0,3.38-1c.026.013.085.047.11.061a11.382,11.382,0,0,1,5.251,6.623l-1.718.879a3.8,3.8,0,0,1-4.154-.45l-.361-.3a8.492,8.492,0,0,0-10.8,0l-.361.3a3.8,3.8,0,0,1-4.154.449L32,37.235a11.382,11.382,0,0,1,5.251-6.623A4.662,4.662,0,0,1,39.559,30h.363a4.672,4.672,0,0,1,2.637.817Z" transform="translate(-6.73 -6.282)" fill="#dc3926"/><path d="M6.205,0H9.1A6.205,6.205,0,0,1,2.893,6.205H0A6.205,6.205,0,0,1,6.205,0Z" transform="translate(46.004 25.27) rotate(180)" fill="#adce32"/><path d="M53.52,53.606l-2.7,4.3a3.9,3.9,0,0,1-6.114.672.5.5,0,0,0-.72,0,3.894,3.894,0,0,1-6.112-.672l-2.7-4.3,1.52-1.037A3.238,3.238,0,0,1,38.52,52a3.287,3.287,0,0,1,2.948,1.862,2.189,2.189,0,0,0,1.96,1.241h1.838a2.189,2.189,0,0,0,1.962-1.241A3.286,3.286,0,0,1,50.175,52,3.238,3.238,0,0,1,52,52.566l1.52,1.039Z" transform="translate(-7.442 -11.217)" fill="#dc3926"/><path d="M46.553,46.878a1.993,1.993,0,1,0-1.533-1.939A1.753,1.753,0,0,0,46.553,46.878Z" transform="translate(-9.648 -9.198)" fill="#674025"/><path d="M15.118,16.525a2.366,2.366,0,0,0,.068-.563,2.327,2.327,0,0,0-2.327-2.327,2.327,2.327,0,1,0-4.654,0,2.327,2.327,0,0,0-2.327,2.327,3.1,3.1,0,0,1-3.1-3.1,3.062,3.062,0,0,1,.147-.9,3.1,3.1,0,0,1,0-4.412,3.062,3.062,0,0,1-.147-.9,3.1,3.1,0,0,1,3.1-3.1,3.08,3.08,0,0,1,.408.041A3.062,3.062,0,0,1,10.92,2.7a3.069,3.069,0,0,1,4.725,1.06,3.052,3.052,0,0,1,3.788,1.385,2.851,2.851,0,0,1,2.473.761c.088-.007.172-.026.262-.026a3.066,3.066,0,0,1,2.993,3.878,3.066,3.066,0,0,1-2.993,3.878c-.09,0-.175-.019-.262-.026a2.851,2.851,0,0,1-2.473.761,3.052,3.052,0,0,1-3.788,1.385,3.158,3.158,0,0,1-.527.771Z" fill="#976947"/><rect width="4.654" height="3.103" rx="1.551" transform="translate(22.943 19.84)" fill="#adce32"/><rect width="4.654" height="3.103" rx="1.551" transform="translate(4.327 43.11)" fill="#adce32"/><rect width="4.654" height="3.103" rx="1.551" transform="translate(43.886 13.635)" fill="#adce32"/><path d="M45.337,31.551h-1.7l-1.077-.735A4.672,4.672,0,0,0,39.922,30h-.363a4.662,4.662,0,0,0-2.308.612A11.382,11.382,0,0,0,32,37.235l1.718.879a3.8,3.8,0,0,0,4.154-.45l.361-.3a8.431,8.431,0,0,1,7.883-1.557,28.148,28.148,0,0,0-.78-4.26Z" transform="translate(-6.73 -6.282)" fill="#ef523d"/><path d="M43.427,55.1a2.189,2.189,0,0,1-1.962-1.241A3.287,3.287,0,0,0,38.518,52a3.238,3.238,0,0,0-1.827.566L35.171,53.6l2.7,4.3a3.927,3.927,0,0,0,3.323,1.855,3.879,3.879,0,0,0,.88-.111A28.139,28.139,0,0,0,44.6,55.1Z" transform="translate(-7.441 -11.217)" fill="#ef523d"/><path d="M47.742,28.206A6.18,6.18,0,0,0,47,31.149h1.7a27.986,27.986,0,0,0-.96-2.943Z" transform="translate(-10.095 -5.879)" fill="#96cc7f"/><path d="M44.939,26.9l.526,2.153a6.159,6.159,0,0,1,.749-2.926,28.2,28.2,0,0,0-4.146-7.273l-1.91,2.443a8.114,8.114,0,0,1,4.781,5.6Z" transform="translate(-8.56 -3.78)" fill="#c18e59"/><path d="M29.736,44.373l-.314-.615a1.544,1.544,0,0,0-2.456-.432L24.195,46.1l-1.884-1.885,2.12-4.946L23,38.652l-1.875,4.377-1.145-1.145,2.12-4.947-1.426-.612L18.8,40.7l-1.145-1.145,2.12-4.947L18.351,34l-1.876,4.377L15.331,37.23l2.12-4.947-1.426-.612-1.876,4.377-3.86-3.857L8.981,25,7.43,30.43,2,31.981l7.191,1.308,3.86,3.86L8.675,39.023l.612,1.426,4.946-2.12,1.146,1.146L11,41.35l.612,1.426,4.946-2.12L17.7,41.8l-4.376,1.875.612,1.426,4.946-2.12,1.146,1.146L15.652,46l.612,1.426,4.946-2.12L23.1,47.195l-2.771,2.771a1.544,1.544,0,0,0,.432,2.456l.615.314a8.773,8.773,0,0,0,3.862.963A5.357,5.357,0,0,0,30.7,48.236a8.773,8.773,0,0,0-.963-3.863Z" transform="translate(0 -5.16)" fill="#fff"/><path d="M34.164,55.327a1.163,1.163,0,1,1,1.164-1.163,1.163,1.163,0,0,1-1.164,1.163Z" transform="translate(-6.954 -11.441)" fill="#e7e4dd"/></g></g></svg>