<svg xmlns="http://www.w3.org/2000/svg" xmlns:xlink="http://www.w3.org/1999/xlink" width="103" height="103" viewBox="0 0 103 103"><defs><filter id="a" x="0" y="0" width="103" height="103" filterUnits="userSpaceOnUse"><feOffset dy="3" input="SourceAlpha"/><feGaussianBlur stdDeviation="3" result="b"/><feFlood flood-opacity="0.161"/><feComposite operator="in" in2="b"/><feComposite in="SourceGraphic"/></filter></defs><g transform="translate(-591 -1297)"><g transform="matrix(1, 0, 0, 1, 591, 1297)" filter="url(#a)"><circle cx="42.5" cy="42.5" r="42.5" transform="translate(9 6)" fill="#ffd3c3"/></g><g transform="translate(608.833 1311.833)"><path d="M92.106,16.966a33.675,33.675,0,0,0-58.475,0,22.812,22.812,0,0,0,22.8,23.392H69.3A22.813,22.813,0,0,0,92.112,17.545Z" transform="translate(-29.201)" fill="#429fff"/><path d="M62.911,129.021l-.007-.011a33.5,33.5,0,0,1-1.94,3h0a33.8,33.8,0,0,1-12.859,10.717,33.61,33.61,0,0,1-14.437,3.246h-.03a34.042,34.042,0,0,1-4.215-.266,33.4,33.4,0,0,1-10.193-2.98,33.822,33.822,0,0,1-14.8-13.721A33.52,33.52,0,0,0,0,145.711l33.668,27.436,33.666-27.436A33.506,33.506,0,0,0,62.911,129.021Z" transform="translate(0 -112.044)" fill="#2891f9"/><path d="M33.668,262.452v17.841L.618,262.452A33.753,33.753,0,0,1,0,256H21Z" transform="translate(0 -222.333)" fill="#a9e700"/><path d="M289.676,256a33.753,33.753,0,0,1-.618,6.452L256.01,280.293V262.452L268.675,256Z" transform="translate(-222.342 -222.333)" fill="#5dd100"/><path d="M37.75,305.06v24.75H25.083A33.72,33.72,0,0,1,4.7,305.06Z" transform="translate(-4.082 -264.941)" fill="#f3854f"/><path d="M289.058,305.06a33.725,33.725,0,0,1-20.383,24.752H256.01V305.06Z" transform="translate(-222.342 -264.941)" fill="#e26e40"/><path d="M159.69,256h12.667l4.985,14.388-4.985,19.279h0a33.732,33.732,0,0,1-6.545-.637c-.058-.012-.116-.022-.174-.036l-2.118-1.591-2.953.139-.028-.011q-.428-.158-.848-.33Z" transform="translate(-138.689 -222.333)" fill="#a04545"/><path d="M319.05,502.223c.364-.092.727-.189,1.086-.293C319.776,502.034,319.414,502.132,319.05,502.223Z" transform="translate(-277.091 -435.92)" fill="#a04545"/><path d="M268.675,256v31.2a33.3,33.3,0,0,1-4.374,1.433l-3.828-.194-2.637,1.175h-.005q-.9.049-1.82.049V256Z" transform="translate(-222.342 -222.333)" fill="#893131"/><g transform="translate(21.877 59.042)"><path d="M177.69,449.158l-1.87,2.155-.792.913-1.408,1.619-.793.913-.11.129-2.418.75h0l-2.426.012q-.769-.247-1.52-.527a10.007,10.007,0,0,1,1.193-2.087l.813-.255.195-.9a10.156,10.156,0,0,1,1.894-1.472l.928.333.184-.913a10.019,10.019,0,0,1,2.04-.661l.71.614.477-.788A10.121,10.121,0,0,1,177.69,449.158Z" transform="translate(-166.35 -448.951)" fill="#f3854f"/><path d="M186.728,453.261l-.744.178.118.844a10.1,10.1,0,0,1-1.408,1.619l-.85.217-.122.577a10.042,10.042,0,0,1-2.095,1.165l-.395-.03-1.377-.664H178.4c-.125-.037-.249-.075-.372-.114l-.138-.043h0l3.152-2.082,1.088-.717,5.583-3.689A10.066,10.066,0,0,1,186.728,453.261Z" transform="translate(-176.372 -450.314)" fill="#e26e40"/><g transform="translate(1.193 0.038)"><path d="M222.985,451.105l-.13.627-.958.091-.44-2.408a9.989,9.989,0,0,1,1.187-.174Z" transform="translate(-215.404 -449.242)" fill="#e26e40"/><path d="M199.141,458.609l-.137.632-.95.086h0l-.576-3.158a9.945,9.945,0,0,1,1.112-.581Z" transform="translate(-194.577 -454.753)" fill="#e26e40"/><path d="M176.97,474.155l0,.539-1.089.179h0l-.46-2.523a9.839,9.839,0,0,1,1.007-1.156l.54,2.962Z" transform="translate(-175.423 -468.305)" fill="#e26e40"/></g><g transform="translate(1.654 1.902)"><path d="M226.844,465.479l-1.052-.7-.99-.654,1.087-.718.7.459.886.586A9.775,9.775,0,0,1,226.844,465.479Z" transform="translate(-218.769 -463.411)" fill="#d3592f"/><path d="M204.543,481.051l-.873-.577-1.807-1.193,1.087-.718,1.512,1,1.051.694A9.945,9.945,0,0,1,204.543,481.051Z" transform="translate(-198.848 -476.57)" fill="#d3592f"/><path d="M182.529,495.38c-.06.025-.121.05-.183.072-.212-.042-.423-.087-.633-.134l-.159-.036q-.767-.174-1.519-.384c-.138-.038-.275-.078-.412-.117-.107-.032-.213-.063-.318-.1l-.376-.249,1.085-.717,1.207.8Z" transform="translate(-178.93 -489.734)" fill="#d3592f"/></g></g><g transform="translate(34.304 63.441)"><path d="M265.232,484.683l-.18,1.532-.452.062c-.185.025-.372.047-.559.067-.665.076-1.339.133-2.016.17l-.071-.129.359-.8-.836-.217a9.427,9.427,0,0,1-.636-2.655l2.441,1.1,1.035.464Z" transform="translate(-260.84 -482.669)" fill="#f3854f"/><path d="M268.5,485.262q-.475.122-.956.229-.221.049-.442.095l-.5-.412-.744.647-.025,0q-.3.049-.6.095l-.18.026-4.212-3.5a9.456,9.456,0,0,1,2.728.142l.36.622.727-.337a9.526,9.526,0,0,1,1.835.827l.425.7.552-.047A9.368,9.368,0,0,1,268.5,485.262Z" transform="translate(-260.84 -482.4)" fill="#e26e40"/><g transform="translate(0.637 1.833)"><path d="M267.261,496.389l.6-.054.341.835-2.043,1.047a9.348,9.348,0,0,1-.478-1.019Z" transform="translate(-265.68 -496.335)" fill="#e26e40"/></g><g transform="translate(2.218 0.183)"><path d="M279.3,484.079l-.34,1.133-.319,1.066-.939-.782.224-.749.286-.954A9.163,9.163,0,0,1,279.3,484.079Z" transform="translate(-277.703 -483.794)" fill="#d3592f"/><path d="M300.574,492.906l-.281.939-.088.295c-.138.029-.276.057-.416.083q-.14.03-.28.055l-.316.058-.233.039.3-.994.338-1.131A9.391,9.391,0,0,1,300.574,492.906Z" transform="translate(-296.164 -491.138)" fill="#d3592f"/></g></g><g transform="translate(21.84 52.93)"><path d="M172.023,406.464l1.858-.774h0l1.136-.473h0l2.355-.982a8.01,8.01,0,0,0-3.136-1.535l-.627.257-.577-.45a8.022,8.022,0,0,0-1.905.066l-.4.676-.577-.464a8.018,8.018,0,0,0-1.582.637l-.12.735-.693-.237a8.008,8.008,0,0,0-1.688,1.583l2.24.362.948.154,1.684.272.948.153Z" transform="translate(-166.068 -402.476)" fill="#f3854f"/><path d="M173.524,418.482l.68-.662.452.205a7.993,7.993,0,0,0,2.717-2.192l-4.988.559-1.029.116-5.286.593a8.014,8.014,0,0,0,2,1.171l.545-.271.358.576a8.026,8.026,0,0,0,1.684.271l.628-.3.369.291A8.019,8.019,0,0,0,173.524,418.482Z" transform="translate(-166.069 -414.077)" fill="#e26e40"/><g transform="translate(1.688 0.029)"><path d="M179.649,411.461l.4.317.631-.432-.958-1.694a7.933,7.933,0,0,0-.813.5Z" transform="translate(-178.907 -408.737)" fill="#e26e40"/><path d="M198.324,405.535l.406.316.624-.431h0L198.1,403.2a7.923,7.923,0,0,0-.975.212Z" transform="translate(-194.726 -403.132)" fill="#e26e40"/><path d="M220.2,404.777l.273.331.756-.446h0l-1-1.774a7.831,7.831,0,0,0-1.2-.193l1.179,2.083Z" transform="translate(-213.748 -402.693)" fill="#e26e40"/></g><g transform="translate(1.997 1.997)"><path d="M182.158,424.393l.288-.96.271-.9-1.029.115-.19.635-.243.809A7.757,7.757,0,0,0,182.158,424.393Z" transform="translate(-181.255 -421.889)" fill="#d3592f"/><path d="M201.927,422.54l.239-.8.495-1.649-1.029.116-.414,1.381-.288.958A7.973,7.973,0,0,0,201.927,422.54Z" transform="translate(-198.342 -419.775)" fill="#d3592f"/><path d="M222.755,420.067a7.862,7.862,0,0,0,1.132-.457l.362-1.21.223-.742-1.029.115-.331,1.1Z" transform="translate(-217.297 -417.659)" fill="#d3592f"/></g></g><g transform="translate(35.36 56.953)"><path d="M274.733,435.968l1.242,1.708h0l.76,1.044h0l1.573,2.165a8.4,8.4,0,0,1-3.647-.337l-.421-.572-.762.088a8.417,8.417,0,0,1-1.671-1.1l.013-.822-.771.1a8.409,8.409,0,0,1-1.07-1.434l.294-.724-.75-.166a8.4,8.4,0,0,1-.648-2.34l2.2.9.933.38,1.657.676.933.381Z" transform="translate(-268.874 -433.511)" fill="#f3854f"/><path d="M276.3,435.965l.248.964.517.063a8.381,8.381,0,0,1,1.237,3.446l-4.163-3.224-.858-.666-4.412-3.417a8.411,8.411,0,0,1,2.428.042l.34.541.635-.321a8.4,8.4,0,0,1,1.656.677l.4.612.49-.059A8.4,8.4,0,0,1,276.3,435.965Z" transform="translate(-268.873 -433.063)" fill="#e26e40"/><g transform="translate(0.648 1.573)"><path d="M275.181,445.088l.53-.066.329.732-1.783.994a8.36,8.36,0,0,1-.456-.89Z" transform="translate(-273.801 -445.022)" fill="#e26e40"/><path d="M287.644,459.156l.536-.062.323.727h0l-2.338,1.3a8.292,8.292,0,0,1-.757-.722Z" transform="translate(-283.881 -457.243)" fill="#e26e40"/><path d="M306.063,472.63l.425-.147.434.812h0l-1.868,1.041a8.191,8.191,0,0,1-1.183-.484l2.193-1.222Z" transform="translate(-299.915 -468.872)" fill="#e26e40"/></g><g transform="translate(2.028 0.11)"><path d="M285.669,434.118l-.266,1.017-.25.958-.859-.665.176-.672.224-.857A8.168,8.168,0,0,1,285.669,434.118Z" transform="translate(-284.293 -433.898)" fill="#d3592f"/><path d="M303.955,441.271l-.221.844-.457,1.747-.859-.665.383-1.463.265-1.016A8.308,8.308,0,0,1,303.955,441.271Z" transform="translate(-300.034 -439.821)" fill="#d3592f"/><path d="M321.183,455.129a8.238,8.238,0,0,1,.764,1.027l-.336,1.282-.205.786-.858-.665.3-1.166Z" transform="translate(-315.78 -452.337)" fill="#d3592f"/></g></g><g transform="translate(34.026 48.681)"><path d="M265.655,373.868l1.563,1.862h0l.956,1.138h0l1.981,2.359a9.674,9.674,0,0,1-4.215-.093l-.53-.623-.869.163a9.686,9.686,0,0,1-2.007-1.128l-.051-.946-.877.178a9.68,9.68,0,0,1-1.344-1.561l.279-.855-.875-.13a9.669,9.669,0,0,1-.932-2.635l2.6.854,1.1.361,1.958.643,1.1.362Z" transform="translate(-258.734 -371.408)" fill="#f3854f"/><path d="M267.495,373.006l.362,1.087.6.031a9.651,9.651,0,0,1,1.7,3.858l-5.04-3.367-1.039-.7-5.341-3.569a9.679,9.679,0,0,1,2.792-.148l.434.593.7-.42a9.681,9.681,0,0,1,1.957.644l.507.671.557-.107A9.691,9.691,0,0,1,267.495,373.006Z" transform="translate(-258.733 -370.161)" fill="#e26e40"/><g transform="translate(0.933 1.711)"><path d="M267.347,383.29l.6-.119.437.814-1.967,1.285a9.606,9.606,0,0,1-.6-.986Z" transform="translate(-265.824 -383.171)" fill="#e26e40"/><path d="M283.044,397.983l.61-.114.43.809h0l-2.58,1.685a9.544,9.544,0,0,1-.928-.768Z" transform="translate(-278.635 -395.936)" fill="#e26e40"/><path d="M305.314,412.055l.476-.2.563.9h0l-2.061,1.346a9.432,9.432,0,0,1-1.4-.461l2.42-1.58Z" transform="translate(-298.018 -408.08)" fill="#e26e40"/></g><g transform="translate(2.455 0.041)"><path d="M278.876,370.649l-.224,1.19-.21,1.12-1.04-.695.148-.786.189-1A9.39,9.39,0,0,1,278.876,370.649Z" transform="translate(-277.402 -370.475)" fill="#d3592f"/><path d="M300.958,377.259l-.186.987-.384,2.043-1.04-.695.322-1.71.223-1.188A9.536,9.536,0,0,1,300.958,377.259Z" transform="translate(-296.462 -375.878)" fill="#d3592f"/><path d="M321.833,391.793a9.5,9.5,0,0,1,.96,1.118l-.283,1.5-.172.919-1.039-.694.256-1.364Z" transform="translate(-315.526 -388.989)" fill="#d3592f"/></g></g><g transform="translate(22.509 35.895)"><path d="M208.148,335.674a.773.773,0,1,1-.773-.773A.773.773,0,0,1,208.148,335.674Z" transform="translate(-201.94 -326.753)" fill="#893131"/><circle cx="1.093" cy="1.093" r="1.093" transform="translate(6.653 3.635) rotate(-22.386)" fill="#893131"/><circle cx="1.093" cy="1.093" r="1.093" transform="matrix(0.16, -0.987, 0.987, 0.16, 7.982, 14.989)" fill="#893131"/><circle cx="1.093" cy="1.093" r="1.093" transform="translate(0 13.145) rotate(-25.976)" fill="#893131"/><circle cx="1.093" cy="1.093" r="1.093" transform="translate(1.228)" fill="#893131"/></g><path d="M279.271,302.475a.667.667,0,1,1-.667-.667A.667.667,0,0,1,279.271,302.475Z" transform="translate(-241.385 -262.117)" fill="#6d2424"/><path d="M320.015,278.388a.773.773,0,1,1-.773-.773A.773.773,0,0,1,320.015,278.388Z" transform="translate(-276.587 -241.105)" fill="#6d2424"/><path d="M292.847,343.643a.773.773,0,1,1-.773-.773A.773.773,0,0,1,292.847,343.643Z" transform="translate(-252.992 -297.779)" fill="#6d2424"/><circle cx="1.093" cy="1.093" r="1.093" transform="matrix(0.16, -0.987, 0.987, 0.16, 43.311, 48.415)" fill="#6d2424"/><path d="M130.406,334.662a1.386,1.386,0,1,1-.073-1.958A1.385,1.385,0,0,1,130.406,334.662Z" transform="translate(-111.171 -288.629)" fill="#e26e40"/><circle cx="1.385" cy="1.385" r="1.385" transform="matrix(0.549, -0.836, 0.836, 0.549, 15.897, 56.701)" fill="#e26e40"/><path d="M41.868,324.128a1.385,1.385,0,1,1-.073-1.958A1.385,1.385,0,0,1,41.868,324.128Z" transform="translate(-34.277 -279.48)" fill="#e26e40"/><path d="M83.654,375.792a1.385,1.385,0,1,1-.073-1.958A1.385,1.385,0,0,1,83.654,375.792Z" transform="translate(-70.568 -324.349)" fill="#e26e40"/><path d="M429.31,394.578a1.386,1.386,0,1,1,1.842-.668A1.386,1.386,0,0,1,429.31,394.578Z" transform="translate(-372.157 -340.393)" fill="#d3592f"/><circle cx="1.385" cy="1.385" r="1.385" transform="translate(47.459 55.574) rotate(-19.939)" fill="#d3592f"/><path d="M464.079,317.112a1.385,1.385,0,1,1,1.842-.668A1.385,1.385,0,0,1,464.079,317.112Z" transform="translate(-402.354 -273.115)" fill="#d3592f"/><circle cx="1.385" cy="1.385" r="1.385" transform="matrix(0.192, -0.981, 0.981, 0.192, 52.188, 48.743)" fill="#d3592f"/><circle cx="1.385" cy="1.385" r="1.385" transform="translate(48.414 42.134) rotate(-19.939)" fill="#d3592f"/><g transform="translate(24.854 21.417)"><path d="M193.4,167.97c-.252-.841-.5-1.689-.711-2.571l-.615-2.543h0l-1.231,2.543c-.427.882-.918,1.73-1.422,2.571a3.086,3.086,0,0,0,2.652,4.672h0a1.25,1.25,0,0,0,1.012-.752A5.485,5.485,0,0,0,193.4,167.97Z" transform="translate(-188.988 -162.856)" fill="#fff"/><path d="M214.506,171.89a3.078,3.078,0,0,1-2.024.752v-9.786l1.231,2.544c.427.882.918,1.73,1.422,2.571a3.09,3.09,0,0,1-.628,3.92Z" transform="translate(-209.392 -162.856)" fill="#e5f0ff"/></g><g transform="translate(38.398 19.398)"><path d="M296.393,152.611c-.252-.841-.5-1.689-.711-2.571l-.615-2.543h0l-1.231,2.543c-.427.882-.918,1.73-1.421,2.571a3.086,3.086,0,0,0,2.652,4.672h0a1.25,1.25,0,0,0,1.012-.752A5.484,5.484,0,0,0,296.393,152.611Z" transform="translate(-291.977 -147.497)" fill="#fff"/><path d="M317.5,156.531a3.078,3.078,0,0,1-2.024.752V147.5l1.231,2.544c.427.882.918,1.73,1.422,2.571A3.09,3.09,0,0,1,317.5,156.531Z" transform="translate(-312.382 -147.497)" fill="#e5f0ff"/></g><g transform="translate(31.85 9.519)"><path d="M246.6,77.5c-.252-.841-.5-1.689-.711-2.571l-.615-2.543h0l-1.231,2.543c-.427.882-.918,1.73-1.422,2.571a3.086,3.086,0,0,0,2.652,4.672h0a1.25,1.25,0,0,0,1.012-.752A5.485,5.485,0,0,0,246.6,77.5Z" transform="translate(-242.186 -72.384)" fill="#fff"/><path d="M267.7,81.418a3.078,3.078,0,0,1-2.024.752V72.384l1.231,2.544c.427.882.918,1.73,1.422,2.571A3.09,3.09,0,0,1,267.7,81.418Z" transform="translate(-262.59 -72.384)" fill="#e5f0ff"/></g></g></g></svg>