<svg xmlns="http://www.w3.org/2000/svg" xmlns:xlink="http://www.w3.org/1999/xlink" width="141.692" height="142.83" viewBox="0 0 141.692 142.83">
  <defs>
    <radialGradient id="radial-gradient" cx="0.076" cy="0.019" r="1.465" gradientTransform="translate(0.001)" gradientUnits="objectBoundingBox">
      <stop offset="0" stop-color="#f6f6f7"/>
      <stop offset="0.477" stop-color="#f9f9fa"/>
      <stop offset="0.715" stop-color="#fff"/>
    </radialGradient>
    <filter id="Trazado_40937" x="0" y="1.287" width="141.692" height="141.543" filterUnits="userSpaceOnUse">
      <feOffset dy="7" input="SourceAlpha"/>
      <feGaussianBlur stdDeviation="2.5" result="blur"/>
      <feFlood flood-opacity="0.102"/>
      <feComposite operator="in" in2="blur"/>
      <feComposite in="SourceGraphic"/>
    </filter>
  </defs>
  <g id="img11" transform="translate(-319.974 -3669.835)">
    <g id="Grupo_1083515" data-name="Grupo 1083515" transform="translate(325.835 3669.835)">
      <g id="Grupo_18423" data-name="Grupo 18423" transform="translate(0 0)">
        <g id="Grupo_18421" data-name="Grupo 18421">
          <g id="Grupo_18420" data-name="Grupo 18420">
            <g id="Grupo_18419" data-name="Grupo 18419">
              <path id="Trazado_40936" data-name="Trazado 40936" d="M322.954,2209.884a64.165,64.165,0,1,1-64.164-64.163A64.165,64.165,0,0,1,322.954,2209.884Z" transform="translate(-194.623 -2145.721)" fill="#fff"/>
            </g>
          </g>
        </g>
        <g transform="matrix(1, 0, 0, 1, -5.86, 0)" filter="url(#Trazado_40937)">
          <path id="Trazado_40937-2" data-name="Trazado 40937" d="M322.169,2209.028A64.164,64.164,0,1,0,258,2273.195,63.91,63.91,0,0,0,322.169,2209.028Z" transform="translate(-187.98 -2144.86)" fill="url(#radial-gradient)"/>
        </g>
        <g id="Grupo_18422" data-name="Grupo 18422" transform="translate(11.368 36.024)">
          <path id="Trazado_40939" data-name="Trazado 40939" d="M311.02,2164.488a64.173,64.173,0,0,1-110.475,63.9,63.969,63.969,0,0,0,110.475-63.9Z" transform="translate(-200.545 -2164.488)" fill="#eceef0"/>
        </g>
      </g>
    </g>
    <g id="_7514995-01" data-name="7514995-01" transform="translate(343.405 3695.135)">
      <path id="Trazado_123986" data-name="Trazado 123986" d="M131.179,374.463c1.428.846,2.507.6,3.908-.466,2.466-1.876,5.478-1.366,7.87.833a9.775,9.775,0,0,0-1.76,3.617c-.17.715-.3,1.575.688,1.817s1.267-.57,1.339-1.324a3.7,3.7,0,0,1,.74-2.036A4.061,4.061,0,0,1,148,375.222c2.135.357,3.225,1.876,3.765,3.834.17.616.207,1.326,1.048,1.206.93-.133.863-.954.782-1.61a6.775,6.775,0,0,0-3.309-4.842c3.785-4.726,9.211-5.9,13.859-2.974a4.827,4.827,0,0,1,.661.612,12.206,12.206,0,0,0-3.19,3.489,1.069,1.069,0,0,0,.247,1.479.814.814,0,0,0,1.272-.259c.769-1.418,2.219-2.219,3.075-3.55,1.42.217,2.754-.567,4.191-.335.587.1.624-.464.631-.9v-2.1c.587.094,1,.18,1.418.224,1.465.153,2.424-.247,2.219-1.992-.1-.9-.059-1.726,1.267-1.7.964.017,1.479.215,1.45,1.326-.079,2.273-.039,4.547-.091,6.82-.027,1.1.185,1.714,1.543,1.534,2-.264,3.511.789,4.867,2.483a5.816,5.816,0,0,1,3.745-3.723,5.236,5.236,0,0,1,3.945.281,7.559,7.559,0,0,0-1.452,3.883,1.166,1.166,0,0,0,.942,1.383,1.028,1.028,0,0,0,1.132-1.159c-.074-1.176.624-2.1.833-3.163,2.219-2.152,4.731-3.319,7.833-2.1,2.239.875,3.851,2.574,3.945,4.931.313,7.732.454,15.476.081,23.215H167.839c1.854,1.188,3.328,2.589,5.5,1.8a1.671,1.671,0,0,1,.74,0c.74.1,1.349.473,1.326,1.27s-.688.986-1.349.912c-1.726-.207-1.5.74-1,1.726,1.817,3.521-1.329,8.523-4.174,9.761-.525.229-1.262.18-1.526.885q-8.154.37-16.314,0c-1.366-1.258-2.493-2.663-1.62-4.635.853-1.928,2.626-2.18,4.5-2.167,3.575.02,7.15-.03,10.72,0,1.1,0,1.99-.074,1.955-1.511-.034-1.376-.782-1.8-2.039-1.76s-2.466,0-3.7-.034a3.21,3.21,0,0,1-2.712-5.025c.232-.4.826-.6.68-1.275q-17.362,0-34.737.017a4.82,4.82,0,0,0-3.5,1.435,10.475,10.475,0,0,1-8.4,3c0-3.7.027-7.384-.052-11.073-.03-1.307.414-1.76,1.7-1.669,1.233.086,2.466,0,3.7.02.634,0,.878-.276.853-.895s-.367-.7-.856-.7c-1.292,0-2.586-.049-3.876.012-1.09.052-1.538-.308-1.519-1.464.057-3.568,0-7.138.035-10.705a6.645,6.645,0,0,1,4.334-6.482,6.563,6.563,0,0,1,7.621,1.462,4.287,4.287,0,0,0-1.876,4.127c.03.55.266.986.863,1a.841.841,0,0,0,.9-.942c-.015-1.181.717-2.064,1.149-3.065,1.171-.6,2.165-1.649,3.656-1.43.03,1.161.025,2.323.1,3.479a1.133,1.133,0,0,0,.986,1.154c.722.049,1.1-.51,1.156-1.169C131.152,376.538,131.145,375.5,131.179,374.463Z" transform="translate(-111.862 -341.491)" fill="#a3be3c"/>
      <path id="Trazado_123987" data-name="Trazado 123987" d="M111.825,514.861a10.5,10.5,0,0,0,8.4-3,4.819,4.819,0,0,1,3.5-1.435q17.37-.044,34.737-.017c.145.673-.449.875-.68,1.275a3.21,3.21,0,0,0,2.712,5.025c1.233.047,2.466.074,3.7.034s2,.385,2.039,1.76c.035,1.437-.853,1.519-1.955,1.511-3.573-.025-7.15.025-10.72,0-1.876,0-3.649.246-4.5,2.167-.873,1.973.247,3.378,1.62,4.635-6.327.029-12.656.079-18.985.086q-9.035,0-18.07-.044a3.029,3.029,0,0,1-1.8-.214,9.486,9.486,0,0,0-.173-3.272Z" transform="translate(-111.494 -450.44)" fill="#004624"/>
      <path id="Trazado_123988" data-name="Trazado 123988" d="M336.08,527.009c.264-.705,1-.656,1.526-.885,2.845-1.233,5.991-6.24,4.174-9.761-.493-.971-.725-1.926,1-1.726.661.079,1.326-.131,1.349-.912s-.579-1.169-1.326-1.27a1.671,1.671,0,0,0-.74,0c-2.172.784-3.646-.616-5.5-1.8H373.45c.377,4.3.042,8.629.175,12.924-.429,1.068-.126,2.177-.18,3.264-.338.385-.8.261-1.211.261H336.81A6.2,6.2,0,0,1,336.08,527.009Z" transform="translate(-280.591 -450.629)" fill="#004624"/>
      <path id="Trazado_123989" data-name="Trazado 123989" d="M151.657,300.18c-.034,1.036-.027,2.076-.116,3.109-.057.658-.434,1.218-1.156,1.169a1.125,1.125,0,0,1-.986-1.154c-.074-1.156-.069-2.318-.1-3.479.533-2.493.68-4.874-1.743-6.605a9.309,9.309,0,0,1-1.309-1.3c-.39-.414-.791-.875-.281-1.44s1.085-.392,1.6.094,1.048.986,1.972,1.854v-6.775c0-.9-.661-.74-1.191-.614-2.5.565-4.352-.515-5.737-2.443a16.7,16.7,0,0,1-3.205-11.659c.316-3.247,2.466-4.519,5.476-3.235a16.423,16.423,0,0,1,7.355,6.526c.653,1.018,1.095,1.26,2.268.69a16.015,16.015,0,0,1,9.122-1.686c3.205.4,4.463,2.379,3.18,5.316a16.631,16.631,0,0,1-9.436,8.876c-1.995.8-3.856.266-5.9-1.267C151.541,291.072,151.26,295.619,151.657,300.18Zm10.207-20.814a2.75,2.75,0,0,0,3.205-1.857c.385-.959.288-1.935-.89-2.219a10.79,10.79,0,0,0-7.643,1.048,1.393,1.393,0,0,0-.476,2.2c.663.9,1.331.836,2.187.261,1.07-.717,2.2-1.334,3.319-1.972.444-.247.937-.446,1.3.094a1.169,1.169,0,0,1-.106,1.524C162.49,278.759,161.921,278.764,161.864,279.366Z" transform="translate(-132.339 -267.208)" fill="#db9b85"/>
      <path id="Trazado_123990" data-name="Trazado 123990" d="M361.539,294.62c.922,0,1.849-.059,2.766.012a3.284,3.284,0,0,1,3.161,3.227,3.1,3.1,0,0,1-2.973,3.188c-3.873-.113-7.673.831-11.548.6-1.218-.074-1.275-.466-.957-1.465a8.264,8.264,0,0,1,7.522-5.555h2.029Z" transform="translate(-292.452 -287.845)" fill="#f0d04f"/>
      <path id="Trazado_123991" data-name="Trazado 123991" d="M238.707,396.574a6.775,6.775,0,0,1,3.309,4.842c.081.656.148,1.479-.782,1.61-.841.121-.878-.589-1.048-1.206-.54-1.958-1.63-3.476-3.765-3.834a4.061,4.061,0,0,0-4.039,1.681,3.7,3.7,0,0,0-.74,2.037c-.072.754-.313,1.573-1.339,1.324s-.865-1.1-.693-1.817a9.776,9.776,0,0,1,1.763-3.617A7.269,7.269,0,0,1,238.707,396.574Z" transform="translate(-200.277 -364.256)" fill="#f0d04f"/>
      <path id="Trazado_123992" data-name="Trazado 123992" d="M351.223,331.58c-.19-2.86-.19-2.86,2.527-2.86,3.713,0,3.713,0,3.713,3.681,0,.74-.057,1.479,0,2.219.106,1.169-.6,1.248-1.479,1.309-1.068.074-1.2-.493-1.248-1.354C354.549,331.255,354.529,331.255,351.223,331.58Z" transform="translate(-291.946 -313.555)" fill="#f0d04f"/>
      <path id="Trazado_123993" data-name="Trazado 123993" d="M316.851,389.9c-.861,1.322-2.305,2.133-3.075,3.55a.814.814,0,0,1-1.272.259,1.085,1.085,0,0,1-.247-1.479,12.036,12.036,0,0,1,3.19-3.489A2.652,2.652,0,0,1,316.851,389.9Z" transform="translate(-262.506 -358.777)" fill="#f0d04f"/>
      <path id="Trazado_123994" data-name="Trazado 123994" d="M430.615,402.114c-.21,1.067-.907,1.987-.833,3.163a1.028,1.028,0,0,1-1.132,1.159,1.166,1.166,0,0,1-.942-1.383,7.559,7.559,0,0,1,1.452-3.883,2.855,2.855,0,0,1,1.455.944Z" transform="translate(-349.617 -368.142)" fill="#f0d04f"/>
      <path id="Trazado_123995" data-name="Trazado 123995" d="M156.055,401.872c-.431,1-1.164,1.884-1.149,3.065a.844.844,0,0,1-.9.942c-.594-.017-.833-.451-.863-1a4.31,4.31,0,0,1,1.876-4.127C155.352,401.125,155.7,401.5,156.055,401.872Z" transform="translate(-142.745 -367.825)" fill="#f0d04f"/>
      <path id="Trazado_123996" data-name="Trazado 123996" d="M111.171,563c.424,1.073.133,2.182.173,3.272C110.794,565.219,111.087,564.109,111.171,563Z" transform="translate(-111.018 -490.072)" fill="#e07847"/>
      <path id="Trazado_123997" data-name="Trazado 123997" d="M487.469,566.324c.054-1.087-.246-2.2.18-3.264C487.73,564.157,488.033,565.264,487.469,566.324Z" transform="translate(-394.614 -490.118)" fill="#e07847"/>
      <path id="Trazado_123998" data-name="Trazado 123998" d="M211.94,303.165c.062-.6.626-.607.89-.922a1.169,1.169,0,0,0,.106-1.524c-.367-.54-.86-.35-1.3-.094-1.114.646-2.249,1.262-3.319,1.972-.856.574-1.524.639-2.187-.261a1.4,1.4,0,0,1,.476-2.2,10.8,10.8,0,0,1,7.643-1.048c1.179.281,1.275,1.257.89,2.219A2.733,2.733,0,0,1,211.94,303.165Z" transform="translate(-182.415 -291.008)" fill="#f0d04f"/>
    </g>
  </g>
</svg>
