<svg xmlns="http://www.w3.org/2000/svg" width="138.5" height="138.548" viewBox="0 0 138.5 138.548"><g transform="translate(-0.088)"><g transform="translate(0.088 0)"><g transform="translate(0)"><ellipse cx="60.953" cy="60.858" rx="60.953" ry="60.858" fill="#cee284"/></g><g transform="translate(0 58.28)"><path d="M26.873,268.2l3-.86-2.458-3.806A60.959,60.959,0,0,1,.14,215.274,60.91,60.91,0,0,0,26.873,268.2Z" transform="translate(-0.088 -215.274)" fill="#adce32"/><path d="M369.4,215.275a60.94,60.94,0,0,1-28.325,48.936l-1.656,3.864,2.069.9a60.915,60.915,0,0,0,27.912-53.7Z" transform="translate(-247.557 -215.275)" fill="#adce32"/></g><path d="M141.727,317.6H126.361a25.9,25.9,0,0,0-25.351,20.556l3.047,4.477c20.989,9.881,39.012,11.307,60.633.331l2.52-4.13A25.892,25.892,0,0,0,141.727,317.6Z" transform="translate(-73.688 -231.615)" fill="#8bcaff"/><path d="M99.565,393.527a25.872,25.872,0,0,0-.538,4.665,60.7,60.7,0,0,0,24.573,9.692l9-1.686,9.026,1.858a60.737,60.737,0,0,0,24.554-9.086v-.145a25.955,25.955,0,0,0-.413-4.62A61.108,61.108,0,0,1,99.565,393.527Z" transform="translate(-72.242 -286.99)" fill="#60b8ff"/><path d="M209.5,326.692l-4.715,2.437-4.715-2.437-2.056-9.1h13.542Z" transform="translate(-144.433 -231.615)" fill="#c61926"/><path d="M194.422,374.577l13.15.174,1.62-2.486L205.7,351.2h-9.429L192.8,372.11Z" transform="translate(-140.628 -256.118)" fill="#ff4755"/><path d="M190.608,428.451l-.813,4.9a61.4,61.4,0,0,0,18.023.174L207,428.605A61.393,61.393,0,0,1,190.608,428.451Z" transform="translate(-138.437 -312.459)" fill="#fc2b3a"/><path d="M128.252,213.726l-2.437-4.81a7.12,7.12,0,0,0-.725-.037,7.01,7.01,0,0,0-6.542,4.481,6.983,6.983,0,0,0,5.073,6.779l2.193-2.334Z" transform="translate(-86.477 -152.331)" fill="#f4b184"/><path d="M123.842,229.917a7.009,7.009,0,0,1-6.54-4.482,7,7,0,0,0,6.54,9.512,7.077,7.077,0,0,0,.933-.062l2.521-2.828-2.73-2.177A6.886,6.886,0,0,1,123.842,229.917Z" transform="translate(-85.228 -164.404)" fill="#eaa678"/><path d="M291.665,213.726l2.437-4.81a7.12,7.12,0,0,1,.725-.037,7.01,7.01,0,0,1,6.541,4.481,6.983,6.983,0,0,1-5.073,6.779l-2.193-2.334Z" transform="translate(-212.728 -152.331)" fill="#f4b184"/><path d="M294.036,229.917a7.009,7.009,0,0,0,6.54-4.482,7,7,0,0,1-6.54,9.512,7.077,7.077,0,0,1-.933-.062l-2.521-2.828,2.73-2.177a6.885,6.885,0,0,0,.724.037Z" transform="translate(-211.938 -164.404)" fill="#eaa678"/><path d="M145.4,138.725v27.519a21.017,21.017,0,0,0,42.035,0V138.725Z" transform="translate(-106.058 -101.169)" fill="#ffc89f"/><path d="M166.414,251.777A21,21,0,0,1,145.4,230.792v5.03a21.017,21.017,0,0,0,42.035,0v-5.03A21,21,0,0,1,166.414,251.777Z" transform="translate(-106.058 -168.311)" fill="#f7bc94"/><path d="M163.609,84.945a12.2,12.2,0,0,0-4.224-8.788,14.433,14.433,0,0,0-8.967-2.993c-2.283-2.033-9.8-7.7-19.873-4.811a40.124,40.124,0,0,0-10.271,4.817c-4.236,2.566-7.581,4.593-14.432,3.724a2.1,2.1,0,0,0-2.359,2.222c.188,2.749,1.8,7.375,6.329,9.154a11.543,11.543,0,0,1-6.09,1.312,2.187,2.187,0,0,0-.286.012s-.02,6.975,11.512,9.516c5.015,1.105,13.006-.78,18.54-4.154a6.475,6.475,0,0,0,6.931,2.836c3.253-.8,6.258-3.82,8.533-5.472,1.639,2.334,4.038,5.227,6.853,6.8a2.1,2.1,0,0,0,2.287-.156C158.358,98.759,164.1,91.21,163.609,84.945Z" transform="translate(-75.457 -49.26)" fill="#7b7179"/><g transform="translate(26.103 35.533)"><path d="M127.951,152.525l.012-.057a1.189,1.189,0,0,0-1.866-1.227,27.62,27.62,0,0,1-15.576,5.257c-.113,0-.2,0-.265,0a6.173,6.173,0,0,1-1.607-.255c-4.287-1.276-8.233-5.041-10.265-7.249a2.093,2.093,0,0,0-1.429,3.375c.227.289,5.622,7.1,11.694,8.9a6.164,6.164,0,0,0,1.607.255c.063,0,.152,0,.265,0a27.561,27.561,0,0,0,17.915-7.175A2.093,2.093,0,0,1,127.951,152.525Z" transform="translate(-96.508 -144.189)" fill="#726a71"/><path d="M244.548,131.253c-.8,7.934-5.276,11.4-5.5,11.572a2.1,2.1,0,0,1-2.287.156,22.3,22.3,0,0,1-6.2-5.943,1.2,1.2,0,0,0-1.8-.143c-4.9,4.8-12.228,5.185-12.557,5.215a2.1,2.1,0,0,1-1.761-.694,5.855,5.855,0,0,1,.522,3.5,2.095,2.095,0,0,0,2.243,2.537c.352-.032,7.663-.775,12.5-6.547,1.639,2.334,4.236,5.541,7.052,7.109a2.1,2.1,0,0,0,2.287-.156c.267-.2,6.56-5.079,5.5-16.6C244.543,131.253,244.556,131.253,244.548,131.253Z" transform="translate(-182.516 -131.252)" fill="#726a71"/></g><path d="M375.906,347.534a25.229,25.229,0,0,0-50.134.519c-.086.848-.13,25.369,25.1,25.369C376.2,373.422,376.03,348.549,375.906,347.534Z" transform="translate(-237.594 -237.311)" fill="#ff4755"/><path d="M350.543,432.008a25.229,25.229,0,0,1-25.1-22.711q-.123,1.241-.125,2.515a25.226,25.226,0,0,0,50.453,0q0-1.273-.125-2.515A25.229,25.229,0,0,1,350.543,432.008Z" transform="translate(-237.27 -298.491)" fill="#fc2b3a"/><path d="M385.479,368.754l2.183,4.423a2.389,2.389,0,0,0,1.8,1.307l4.881.709a2.389,2.389,0,0,1,1.324,4.075l-3.532,3.443a2.39,2.39,0,0,0-.687,2.115l.7,4.1H374.522l.7-4.1a2.39,2.39,0,0,0-.687-2.115l-3.532-3.443a2.389,2.389,0,0,1,1.324-4.075l4.881-.709a2.39,2.39,0,0,0,1.8-1.307l2.183-4.423A2.389,2.389,0,0,1,385.479,368.754Z" transform="translate(-270.062 -267.952)" fill="#fff5f5"/><g transform="translate(104.293 116.653)"><path d="M403.12,435.218l-7.7-4.049a2.389,2.389,0,0,0-2.224,0l-7.7,4.049-.13.757a2.389,2.389,0,0,0,3.467,2.519l4.365-2.3a2.389,2.389,0,0,1,2.224,0l4.365,2.3a2.389,2.389,0,0,0,3.467-2.519Z" transform="translate(-385.325 -430.894)" fill="#efe2dd"/></g></g><g transform="translate(48.082 56.939)"><path d="M202.235,262.929c5.446,0,7.59-3.373,8.1-4.362a2.1,2.1,0,0,0-1.835-3.137,2.109,2.109,0,0,0-1.929,1.254c-.975,2.021-4.2,2.045-4.338,2.045s-3.368-.024-4.34-2.049a2.11,2.11,0,0,0-4.036.852,2.087,2.087,0,0,0,.275,1.036C194.648,259.56,196.793,262.929,202.235,262.929Z" transform="translate(-189.394 -243.218)" fill="#ff4755"/><path d="M179.474,210.32a2.1,2.1,0,0,0-2.107,2.1v4.714a2.107,2.107,0,0,0,4.213,0V212.42A2.1,2.1,0,0,0,179.474,210.32Z" transform="translate(-177.367 -210.32)" fill="#726a71"/><path d="M254.976,219.234a2.1,2.1,0,0,0,2.107-2.1V212.42a2.107,2.107,0,0,0-4.213,0v4.714A2.1,2.1,0,0,0,254.976,219.234Z" transform="translate(-232.429 -210.32)" fill="#726a71"/></g></g></svg>