<svg xmlns="http://www.w3.org/2000/svg" width="420" height="351.852" viewBox="0 0 420 351.852"><g transform="translate(0 56.413)"><g transform="translate(24.494 14.833)"><rect width="32.908" height="10.473" transform="translate(23.511 13.646)" fill="#ebebeb"/><rect width="32.908" height="10.473" transform="translate(226.96 62.321)" fill="#ebebeb"/><path d="M89.076,77.54c-5.466.094-19.477.328-24.756.384l-8.152.037.431-.431L56.636,88l-.468-.468c5.466.019,19.4.066,24.681.14l8.227.1L88.851,88l.225-10.464Zm0,0L89.3,88.013v.215h-.225c-4.109.056-12.345.15-16.454.178l-16.454.066H55.7V88l.037-10.473V77.1h.421l8.3.037c5.251.075,19.206.318,24.616.4Z" transform="translate(-51.02 -77.1)" fill="#ebebeb"/><path d="M175.527,285.95c-5.466.094-19.477.328-24.756.384l-8.152.037.431-.431.037,10.473-.468-.468c5.466.019,19.4.066,24.681.14l8.227.1-.225.225.225-10.464Zm0,0,.225,10.473.009.215h-.225c-4.109.056-12.345.15-16.454.178l-16.454.066h-.468v-.468l.037-10.473v-.43h.421l8.3.037c5.241.075,19.2.309,24.606.4Z" transform="translate(-67.387 -147.679)" fill="#ebebeb"/><path d="M155.917,271.84c-5.466.094-19.477.328-24.756.384l-8.152.037.431-.431.037,10.473-.468-.468c5.466.019,19.4.066,24.681.14l8.227.1-.225.225.225-10.464Zm0,0,.225,10.473.009.215h-.225c-4.109.056-12.345.15-16.454.178l-16.454.066h-.468V282.3l.037-10.473V271.4h.421l8.3.037c5.241.075,19.187.309,24.606.4Z" transform="translate(-66.131 -144.915)" fill="#ebebeb"/><rect width="32.908" height="10.473" transform="translate(38.599 138.288)" fill="#ebebeb"/><rect width="32.908" height="10.473" transform="translate(362.598 111.697)" fill="#ebebeb"/><rect width="32.908" height="10.473" transform="translate(318.037 222.3)" fill="#ebebeb"/><path d="M454.557,376.34c-5.466.094-19.477.328-24.756.384l-8.152.037.431-.431.037,10.473-.468-.468c5.466.019,19.4.065,24.681.14l8.227.1-.225.225.225-10.464Zm0,0,.225,10.473.009.215h-.225c-4.109.056-12.345.15-16.454.178l-16.454.066h-.468V386.8l.037-10.473V375.9h.421l8.3.037c5.241.075,19.2.318,24.606.4Z" transform="translate(-85.257 -167.246)" fill="#ebebeb"/><path d="M95.646,390.45c-5.466.094-19.477.328-24.756.384l-8.152.037.431-.431.037,10.473-.468-.468,16.454.066c4.1.028,12.355.131,16.454.178l-.225.225.225-10.464Zm0,0,.225,10.473v.215h-.225c-4.109.056-12.345.15-16.454.178l-16.454.066H62.27v-.468l.037-10.473v-.431h.421l8.3.037c5.251.075,19.2.318,24.616.4Z" transform="translate(-62.27 -168.15)" fill="#ebebeb"/></g><g transform="translate(113.562)"><path d="M175.77,107.848l-.384,2.742a2.042,2.042,0,0,1-2.359,1.778,2.091,2.091,0,0,1-1.778-2.359l.618-4.39c.009-.037.047-.037.056-.075-.037-.047-.037-.047-.028-.094a2.146,2.146,0,0,1,2.359-1.778,4.773,4.773,0,1,0,1.32-9.453,4.731,4.731,0,0,0-4.38,1.75A2.091,2.091,0,1,1,167.9,93.4a8.959,8.959,0,1,1,7.871,14.451Zm-1.292,9.247-.1.758a2.042,2.042,0,0,1-2.359,1.778,2.091,2.091,0,0,1-1.778-2.359l.1-.758a2.123,2.123,0,0,1,2.359-1.778A2.068,2.068,0,0,1,174.478,117.095Z" transform="translate(-167.433 -89.986)" fill="#ebebeb"/></g><g transform="translate(0 20.562)"><rect width="74.895" height="74.895" transform="translate(3.894 3.903)" fill="#fff"/><rect width="19.552" height="56.494" transform="translate(16.772 15.883)" fill="#c7c7c7"/><path d="M355.1,195.6v82.682h82.682V195.6Zm78.789,78.8h-74.9V199.5h74.9Z" transform="translate(-355.1 -195.6)" fill="#dbdbdb"/><rect width="29.904" height="29.904" transform="translate(26.394 26.394)" fill="#ebebeb"/><rect width="3.192" height="82.692" transform="translate(82.692)" fill="#c7c7c7"/></g></g><g transform="translate(10.614 319.05)"><path d="M47.44,437.708l47.4-.225,47.4-.084,94.793-.159,94.793.159,47.4.075,47.4.234-47.4.225-47.4.084-94.793.159-94.793-.159-47.4-.084Z" transform="translate(-47.44 -437.24)" fill="#263238"/></g><g transform="translate(67.351)"><g transform="translate(139.165 120.966)"><path d="M285.821,242.14c47.228,49.343,106.034,152.532,94.475,173.1-12.879,22.9-78.648-46.264-78.33-50.242.243-3-22.322-65.489-39.46-110.939C245.379,208.652,274.14,229.935,285.821,242.14Z" transform="translate(-256.777 -225.649)" fill="#d3766a"/><path d="M301.488,365.02c-1.937-6.673-32.674-89.084-41.425-115.122s-.159-33.938,25.589-9.809,81.756,104.256,94.185,146.524c11.971,40.714-8.9,40.405-36.147,21.3C321.378,392.275,301.488,365.02,301.488,365.02Z" transform="translate(-256.748 -225.601)" fill="#ffc727"/><path d="M258.043,229.54c-.178-.066-.356-.131-.543-.215a3.485,3.485,0,0,1,.29-.665c.356.14.721.271,1.086.393,2.948.945,6.561,1.245,9.144-.786a5.712,5.712,0,0,0,.8-.767c.234.112.468.234.711.356C266.9,231.019,261.824,230.926,258.043,229.54Zm20.357,4.305c-.243-.2-.487-.384-.721-.571q-.618.295-1.235.562c-5.9,2.593-13.178,5.2-18.279,9.584.075.29.15.59.225.889a36.306,36.306,0,0,1,9.023-5.709C271.015,236.906,274.787,235.53,278.4,233.846Zm6.561,17.558a48.408,48.408,0,0,1,5.766-6.177c-.187-.206-.384-.4-.571-.6-5.382,4.689-9.238,11.83-14.358,16.37a24.8,24.8,0,0,1-9.884,5.663c.084.243.168.487.262.73a23.25,23.25,0,0,0,7.123-3.435C278.128,260.623,281.32,255.9,284.961,251.4Zm26.59,18.532c-7.787,10.567-21.911,13.1-34.3,14.975-1.5.225-3,.468-4.493.767.1.271.2.552.3.833,5.232-1.067,10.614-1.516,15.818-2.7,8.676-1.984,17.764-6.093,23.221-13.169v-.009C311.907,270.395,311.729,270.17,311.551,269.936Zm10.6,91.1c-5.354-1.338-10.221.44-14.928,2.93-1.544.824-3.107,1.694-4.7,2.508.159.206.337.44.533.693,6.346-3.266,12.458-7.338,19.767-4.961a8.591,8.591,0,0,1,5.606,4.717c1.217,3.1-.15,6.327-2.312,8.62-3.023,3.192-7.151,4.464-11.147,5.971l.693.777c1.142-.449,2.293-.889,3.454-1.348,4.764-1.881,10.361-5.354,10.707-11.082C330.1,365.207,326.339,362.072,322.156,361.033Zm-18.625-57.1c3.781-5.326,7.254-10.857,11.026-16.192,1.629-2.312,3.341-4.68,5.213-6.9-.178-.243-.356-.477-.534-.721-1,1.179-1.947,2.387-2.864,3.6-3.8,5.045-7.207,10.37-10.745,15.593-5.335,7.871-11.6,16.735-19.814,22.191.1.29.206.571.318.861C293.16,317.707,298.822,310.547,303.53,303.93ZM305.44,318a12.753,12.753,0,0,0,5.241,11.99c4.362,3,9.238,1.151,12.336-2.686,1.834-2.265,3.154-4.867,4.792-7.263a30.578,30.578,0,0,1,6.861-7.366,20.814,20.814,0,0,1,5.2-2.836l-.534-.814a20.009,20.009,0,0,0-3.332,1.638c-5.288,3.22-8.508,8.19-11.746,13.291-1.666,2.6-3.669,5.372-6.748,6.355a7.6,7.6,0,0,1-7.478-2.012c-4.493-4.193-4.783-10.642-1.395-15.574,3.594-5.223,9.8-8.03,15.649-9.884,3-.945,6.084-1.741,9.107-2.7-.168-.253-.346-.505-.515-.758-6.084,1.956-12.57,3.323-17.783,6.411C310.615,308.432,306.263,312.616,305.44,318Zm49.568,16.2a37.222,37.222,0,0,1-8.892,7.787,39.518,39.518,0,0,1-18.345,6.439,25.325,25.325,0,0,1-18.045-5.4c-4.446-3.575-8.414-8.012-14.32-8.985a17.584,17.584,0,0,0-5.054-.1c.122.328.234.646.356.964a16.276,16.276,0,0,1,6.87.711c3.107,1.039,5.672,3.164,8.105,5.269a43.2,43.2,0,0,0,7.413,5.625,24.861,24.861,0,0,0,8.386,2.724,34.671,34.671,0,0,0,17.362-2.424c5.925-2.34,12.392-6.365,16.7-11.7C355.363,334.807,355.186,334.508,355.008,334.2Zm.047,80.857c.87.468,1.732.908,2.574,1.31a30.053,30.053,0,0,1,8.236,3.2,27.645,27.645,0,0,0,3.3.711,41.89,41.89,0,0,0-9.088-4.268A24.72,24.72,0,0,0,355.054,415.056Zm4.708-72.565c-.14-.243-.271-.487-.412-.73-7.9,1.694-15.275,7.347-18.214,14.545-2.321,5.681-.964,11.241,1.516,16.623a81.975,81.975,0,0,1,4.053,9.3,33.267,33.267,0,0,1,1.526,9.032,30.736,30.736,0,0,1-4.343,16.875q.365.267.73.505A30.587,30.587,0,0,0,348.905,396a34.082,34.082,0,0,0-2.349-16.7c-2.555-6.215-6.9-12.336-5.588-19.393C342.55,351.42,350.908,344.335,359.762,342.491Zm20.647,46.077a47.56,47.56,0,0,1-7.834,1.806c-3.182.393-7.02.253-8.892-2.789-1.348-2.209-1.1-5.045-.374-7.422,1.6-5.185,5.794-8.162,9.753-11.447-.1-.262-.225-.524-.346-.786-1.994,1.638-4.09,3.182-5.887,4.9-3.22,3.089-5.616,7.993-4.858,12.542.936,5.709,6.739,6.5,11.559,5.756a53.394,53.394,0,0,0,7.076-1.816C380.55,389.074,380.484,388.821,380.409,388.568Z" transform="translate(-256.797 -225.722)" fill="#fff"/><path d="M343.691,408.158c-22.3-15.64-42.2-42.9-42.2-42.9-1.937-6.664-32.684-89.065-41.425-115.122-3.229-9.622-4.1-16.772-2.6-20.731Z" transform="translate(-256.749 -225.844)" opacity="0.1"/></g><g transform="translate(0 109.311)"><path d="M290.449,423.187H108.06S145.367,278.217,207,218.213c8.274-8.049,40.461-6.692,47.874,5.419C282.681,269.1,290.955,422.542,290.449,423.187Z" transform="translate(-108.06 -213.149)" fill="#ffc727"/><path d="M267.753,341.982c-7.169,10.183.627,24.054,12.055,26.45a15.287,15.287,0,0,0,7.085-.234c.028.318.056.627.084.936a16.025,16.025,0,0,1-6.561.393c-10.164-1.582-18.7-12.411-16-22.725,2.1-8.04,10.258-13.637,18.42-13.89.037.337.084.665.131,1a15.564,15.564,0,0,0-2.087.168A19.7,19.7,0,0,0,267.753,341.982ZM116.391,397.4c-.094-.075-.187-.159-.281-.234-.1.309-.2.618-.29.927,7.123,5.887,8.592,16.491,10.876,25.112h.945C125.2,414.191,123.869,403.774,116.391,397.4Zm30.456-52.395c5.569-.356,11.222-2.218,14.62-6.889,2.621-3.6,3.987-8.676,2.05-12.888-2.246-4.876-7.731-6.168-12.635-6.046-2.125.047-4.221.253-6.308.487-.131.3-.262.608-.393.917a39.757,39.757,0,0,1,10.314-.346,10.494,10.494,0,0,1,7.665,4.371,10.033,10.033,0,0,1,1.03,7.656c-1.423,6.13-6.421,10-12.373,11.288-5.269,1.142-10.632.524-15.939-.234-.112.29-.225.571-.337.852A62.582,62.582,0,0,0,146.847,345.005Zm7.853,68.222c-5.316-.973-13.852,4.137-16.716-2.808-2.153-5.2.927-11.016,4.231-14.928,4.015-4.745,9.2-8.293,14.32-11.746,9.453-6.393,32.356-25.963,21.424-34.256-10.193-7.722-23.287,14.807-30.952,21.873-6.776,6.233-16.7,11.877-26.394,11.737-.094.281-.187.552-.281.833,9.8.168,19.487-5.41,26.768-11.447,9.584-7.937,19.028-28.575,30.1-22.248,9.191,5.251-7.946,23.661-17.437,30.2-4.783,3.3-9.753,6.4-14.114,10.277-3.856,3.426-7.637,7.656-8.807,12.823-.861,3.819-.421,8.723,3.463,10.726,2.471,1.282,5.269.8,7.881.3,3.285-.636,6.364-1.02,9.416.636a12.688,12.688,0,0,1,6.177,8h1c0-.019-.009-.028-.009-.047C163.526,418.421,159.632,414.135,154.7,413.227ZM221.424,297.7a13.846,13.846,0,0,0-14.938.739c-4.708,3.313-7.553,8.667-9.753,13.833-2.452,5.775-4.652,12.139-9.453,16.445-2.583,2.331-6.655,4.371-9.828,1.891-2.068-1.629-2.855-4.5-2.93-7.038-.178-5.429,3.061-10.558,6.3-14.657,3.351-4.259,7.263-8.03,10.642-12.27,3.135-3.931,5.887-8.414,6.627-13.478.365-2.5.028-5.2-2.05-6.879a8.442,8.442,0,0,0-6.074-1.479c-5.316.515-9.856,4.38-13.057,8.4a46.6,46.6,0,0,0-4.689,7.329c-1.451,2.761-2.527,5.709-4,8.442-1.7,3.182-4.633,4.727-8.171,3.641a11.427,11.427,0,0,1-5.756-4.268c-.131.271-.262.543-.384.814,2.6,3.192,6.5,5.681,10.642,4.334,2.63-.861,4.043-3.238,5.129-5.625,1.254-2.77,2.471-5.55,3.95-8.208,2.967-5.344,7.095-10.82,12.954-13.188,2.462-.992,5.625-1.395,8.059-.112,3.4,1.788,2.967,5.962,2.078,9.116-2.976,10.455-12.813,17.062-18.682,25.757-2.7,3.987-4.932,8.8-4.3,13.73.58,4.436,3.725,8.564,8.658,7.488,5.775-1.254,9.537-7.347,11.887-12.27,2.677-5.578,4.474-11.615,8.283-16.594,3.819-5,9.659-8.311,16-6.149,6.786,2.312,10.67,9.013,10.923,15.93.468,12.607-8.4,23.043-17.484,30.653-8.723,7.31-18.579,13.262-26.647,21.358a59.346,59.346,0,0,0-16.594,33.2c-1.133,7.7-1.123,16.969,1.994,24.616h1.179a35.183,35.183,0,0,1-2.04-7.029c-2.4-12.86.524-26.787,6.963-38.065,6.205-10.866,15.958-18.307,25.832-25.636,8.686-6.449,17.774-13.169,23.277-22.725C231.785,319.65,233.179,304.235,221.424,297.7Zm30.39,59.517a18.4,18.4,0,0,0-7.89-14.47,13.125,13.125,0,0,0-14.517-.215c-4.5,2.883-7.413,7.984-8.527,13.122-1.619,7.441-.271,15.078-.122,22.585a75.178,75.178,0,0,1-11.166,40.77c-.889,1.432-1.844,2.836-2.883,4.193h1.273a64.885,64.885,0,0,0,7.563-13.44,76.218,76.218,0,0,0,5.531-19.908c.983-7.226.524-14.311.14-21.555-.365-6.945-.14-14.217,3.912-20.151,3.566-5.223,9.8-8.452,15.986-5.822,6.271,2.649,9.6,9.172,9.781,15.743.374,13.543-9.35,24.915-16.033,35.819-3.182,5.185-6.037,10.67-7.375,16.641a34.174,34.174,0,0,0-.412,12.673h.955a33.738,33.738,0,0,1,.824-14.329c3.435-12.177,12.392-21.723,18.111-32.8C249.952,370.285,252.226,363.827,251.814,357.219ZM279,398.42c-3.482-4.156-8.526-6.917-14.058-6.374-5.054.5-9.491,3.725-10.576,8.845-1.245,5.9,1.863,12.018,5.1,16.744,1.254,1.834,2.677,3.678,4.034,5.569h1.058c-2.546-3.65-5.4-7.113-7.338-11.147-2.808-5.84-3.716-13.852,2.808-17.605,5.531-3.192,12.345-1.338,16.754,2.855,4.773,4.549,7.01,11.044,8.339,17.343.59,2.78,1.039,5.653,1.488,8.555h.889C286.182,414.35,284.853,405.393,279,398.42ZM221.47,213.41q-.772.07-1.516.168a36.266,36.266,0,0,1-7.319,6.5,40.1,40.1,0,0,1-12.28,5.578c-.374.431-.758.852-1.142,1.292a30.232,30.232,0,0,0,3.135-.814C209.21,223.968,216.716,219.522,221.47,213.41Zm1.31,25.954a10.533,10.533,0,0,1-.814-7.244c1.048-4.755,4.848-9.341,9.828-10.155,6.449-1.048,11.54,4.624,17.175,6.673,2.864,1.048,6.458,1.357,9.191.075-.1-.225-.215-.44-.318-.646-2.443,1.235-5.494.9-8.04.084-5.728-1.834-10.333-7.141-16.669-7.066-8.47.112-14.882,10.829-11.194,18.382,1.282,2.621,3.7,4.4,5.85,6.271a19.084,19.084,0,0,1,5.157,6.72,19.6,19.6,0,0,1,.159,15.5,13.447,13.447,0,0,1-11.887,8.349,16.125,16.125,0,0,1-12.879-5.906,11.077,11.077,0,0,1-2.424-6.524c-.084-3.2,1.123-6.308,1.919-9.359,1.189-4.539,1.367-10.492-3.828-12.57-4.165-1.675-9.1.412-12.355,3.061-4.352,3.529-6.112,9.1-8.545,13.946-2.6,5.176-6.4,10.09-12.589,10.651-.393.037-.777.056-1.161.056-.168.3-.337.608-.515.908a2.107,2.107,0,0,0,.243.009c5,.047,9.172-2.555,12.064-6.533,3.407-4.7,4.867-10.483,8.162-15.256,2.8-4.053,8.826-7.8,13.9-6.2,7.385,2.331,3.678,11.465,2.462,16.576-1.1,4.614-.59,8.966,2.677,12.579,6.018,6.636,17.381,7.516,23.258.281,6.028-7.431,4.736-19.374-2.106-25.842C227.208,244.016,224.306,242.237,222.781,239.364Zm26.89,26.946c4.97,1.863,10.455-.421,14.554-3.257a30.246,30.246,0,0,0,4.792-4.184c-.075-.271-.15-.543-.225-.8-.664.711-1.357,1.395-2.068,2.031-4.315,3.828-10.885,7.675-16.8,5.429-6.093-2.312-7.385-9.425-5.457-15.013,2.171-6.3,8.133-10.118,13.871-12.813q1.6-.744,3.229-1.432c-.084-.243-.187-.477-.29-.721-8.779,3.809-17.97,8.742-18.5,19.262C242.529,259.712,244.907,264.522,249.671,266.31ZM280.7,317.619a34,34,0,0,1-12.954,7.16c-6.692,1.853-13.478.243-17.727-5.457a27.722,27.722,0,0,1-4.081-8.414c-1.151-3.716-1.984-7.778-.964-11.625,1.7-6.458,7.9-10.5,13.927-12.392,5.166-1.629,10.595-2.171,15.949-3.042-.066-.3-.122-.6-.178-.9-2.19.393-4.371.739-6.5,1.058-6.318.955-12.8,2.246-17.952,6.271a16.192,16.192,0,0,0-6.449,15.209c.739,5.784,3.051,12.13,7.2,16.342s9.949,5.363,15.6,4.165a33.06,33.06,0,0,0,14.273-7.366C280.791,318.293,280.744,317.956,280.7,317.619Z" transform="translate(-108.557 -213.165)" fill="#fff"/></g><g transform="translate(17.02 250.655)"><path d="M377.422,423.127c-13.075,13.571-39.254,14.779-113.915,17.521-10.333.384-32.627-71.806-21.611-72.78,13.871-1.226,67.96-2.976,71.928-2.6C347.322,368.4,386.295,413.927,377.422,423.127Z" transform="translate(-133.46 -364.232)" fill="#d3766a"/><path d="M258.706,369.542s-29.417-6.542-45.927-5.194c-22.117,1.806-40.471,12.467-47.893,17.4-15.49,10.3-45.824,45.909-37.092,56.429,7.9,9.528,37.073-28.434,37.073-28.434s-36.128,33.8-24.5,43.522,42.979-36.268,42.979-36.268S147,452.552,160.58,460.685c10.258,6.14,41-33.919,41-33.919s-31.027,30.784-20.75,37.55c11.353,7.488,42.052-27.714,42.052-27.714,29.024,12.823,48.089,7.048,61.165,1.329C287.206,436.566,258.706,369.542,258.706,369.542Z" transform="translate(-126.244 -364.165)" fill="#d3766a"/><g transform="translate(13.486 33.064)"><path d="M177.527,399.518c-4.39,3.819-8.854,7.647-12.888,11.84s-7.928,8.536-11.55,13.085c-8.892,11.157-12.71,19.543-12.42,19.047,6.917-11.634,21.124-26.871,25.158-31.064s7.843-8.573,11.868-12.766C177.8,399.565,177.63,399.434,177.527,399.518Z" transform="translate(-140.654 -399.491)" fill="#263238"/><path d="M194.419,414.788c-5.391,5.12-10.932,10-16.1,15.35-5.138,5.326-9.556,10.838-14.311,16.5-.365.44-.009.487.374.066,4.979-5.475,10.015-10.155,15.06-15.565,5.026-5.4,9.884-11.035,15.106-16.239C194.634,414.826,194.5,414.713,194.419,414.788Z" transform="translate(-142.14 -400.469)" fill="#263238"/><path d="M211.43,425.347c-8.639,7.394-15.9,16.379-22.819,25.355-.346.449.122.468.5.028,7.431-8.573,13.2-15.35,22.575-25.084C211.833,425.5,211.608,425.188,211.43,425.347Z" transform="translate(-143.717 -401.144)" fill="#263238"/></g><g transform="translate(117.037 0.773)"><path d="M251.3,365.841l52.282,80.679s64.562-5.953,76.617-20.909c7.937-9.846-31.589-59.845-68.867-60.491Z" transform="translate(-251.291 -364.998)" fill="#ffc727"/><path d="M260.977,366.966a29.891,29.891,0,0,1-1.469,10.82l-.627-.973a29.764,29.764,0,0,0,1.179-8.994,18.718,18.718,0,0,0-.168-2.05l.973-.009Q260.934,366.362,260.977,366.966Zm14.049,34.771.562.861a15.787,15.787,0,0,1,10.361,4.455c4.773,4.549,7.01,11.044,8.339,17.343.665,3.117,1.142,6.346,1.638,9.594l1.161,1.8c-1.507-9.743-2.443-19.9-8.92-27.62C284.881,404.245,280.2,401.559,275.025,401.737Zm71.619-13.59c-1.834-4.483-4.614-8.91-5.532-13.684-.29-.178-.58-.346-.87-.515a29.057,29.057,0,0,0,2.5,7.825,81.964,81.964,0,0,1,4.053,9.3,33.268,33.268,0,0,1,1.526,9.032c.374,12.326-6.374,24.41-18.672,27.873-11.063,3.117-23.614-1.666-26.712-13.394a20.641,20.641,0,0,1,1.554-14.91c3.135-5.812,8.938-7.6,14.723-9.893,4.764-1.881,10.361-5.354,10.707-11.082.271-4.652-3.491-7.787-7.675-8.826-5.354-1.338-10.221.44-14.928,2.93-5.719,3.023-11.587,6.8-18.345,5.372a19.26,19.26,0,0,1-13.946-12.589l-1.132.009a20.422,20.422,0,0,0,15.687,13.674c12.2,1.9,21.106-12.2,33.339-8.227a8.591,8.591,0,0,1,5.606,4.717c1.217,3.1-.15,6.327-2.312,8.62-4.736,5-12.167,5.279-17.6,9.182-7.7,5.541-9.1,16.8-5.185,25.009,4.614,9.687,16.183,12.982,26.048,10.37,11.166-2.958,18.279-12.879,19.515-24.1A34.082,34.082,0,0,0,346.644,388.147Zm23.923,12.064c-.225-.281-.459-.562-.683-.842-2.405-.066-4.764-.749-6.112-2.939a7.655,7.655,0,0,1-.908-4.839l-.814-.814a11.187,11.187,0,0,0,.009,3.444C362.8,398.76,366.618,400.183,370.567,400.211Zm-10.4,24.644c-4.418-1.31-9.6-1.544-13.871.431-4.549,2.1-6.477,6.57-5.85,11.437a37.039,37.039,0,0,0,.889,4.287c.262-.047.524-.1.786-.15-.955-3.837-1.713-7.665.374-11.157,2.7-4.493,8.7-5.335,13.468-4.783,5.971.693,10.923,4.043,16.052,6.9.346-.168.683-.346,1.02-.515C368.836,428.954,364.783,426.212,360.169,424.855Z" transform="translate(-251.776 -365.029)" fill="#fff"/><g transform="translate(26.526)"><path d="M356.376,383.288c-18.757-15.284-25.1-17.933-54.65-18.3-.243,0-.29.309-.047.318,32.393,1.469,47.35,13.44,54.473,18.214C356.348,383.644,356.545,383.428,356.376,383.288Z" transform="translate(-281.033 -364.99)" fill="#263238"/><path d="M324.612,437.713c-5.279-9.182-11.035-18.064-16.819-26.937S296.234,393,290.225,384.27c-3.4-4.932-6.758-9.893-10.333-14.7-.094-.131-.328,0-.243.14,5.26,9.163,10.988,18.092,16.707,26.984q8.592,13.379,17.465,26.581c3.341,4.979,6.767,9.893,10.333,14.7C324.331,438.209,324.771,437.975,324.612,437.713Z" transform="translate(-279.631 -365.28)" fill="#263238"/></g><path d="M317.228,365.605l-.009.009-43.026,35.548-22.9-35.332,60.041-.73c.711.009,1.413.047,2.125.094l3.36.365Z" transform="translate(-251.29 -364.997)" opacity="0.1"/></g></g><g transform="translate(74.716 123.786)"><g transform="translate(0 0.002)"><path d="M190.1,269.072C182.433,355.61,194.4,424.543,230.738,429.5c24.129,3.295,18.092-69.878,18.036-71.441-.187-5.354-2.976-50.008-20.076-98.575C209.875,206.054,193.524,230.407,190.1,269.072Z" transform="translate(-187.888 -228.616)" fill="#d3766a"/></g><path d="M190.1,269.072C182.433,355.61,194.4,424.543,230.738,429.5c24.129,3.295,27.508-58.413,27.452-59.976-.187-5.354-12.392-61.473-29.5-110.05C209.875,206.054,193.524,230.407,190.1,269.072Z" transform="translate(-187.888 -228.614)" fill="#ffc727"/><g transform="translate(42.906 37.032)"><path d="M233.73,268.18c5.288,16.3,10.1,32.749,14.769,49.231,4.446,16.538,9.191,33.058,11.98,49.98-6.336-29.061-18.859-70.112-26.75-99.211Z" transform="translate(-233.73 -268.18)" fill="#263238"/><path d="M238.51,272.5c1.2,4.642,2.1,9.668.992,14.4.14-4.745-.739-9.668-.992-14.4Z" transform="translate(-234.036 -268.457)" fill="#263238"/></g><path d="M193.934,250.7c-.421.608-.8,1.226-1.179,1.863q.295-1.306.618-2.555a16.454,16.454,0,0,1,2.9-3.089c3.257-2.649,8.19-4.736,12.355-3.061,5.195,2.078,5.017,8.03,3.828,12.57-.8,3.051-2,6.159-1.919,9.36a11.077,11.077,0,0,0,2.424,6.524,16.125,16.125,0,0,0,12.879,5.906,12.772,12.772,0,0,0,7.862-2.976c.1.29.2.58.29.88-6.187,4.773-15.7,3.407-21.021-2.462-3.266-3.613-3.781-7.965-2.677-12.579,1.217-5.11,4.923-14.245-2.462-16.576C202.76,242.9,196.732,246.648,193.934,250.7Zm8.779,34.378c.365-2.5.028-5.2-2.05-6.879a8.442,8.442,0,0,0-6.074-1.479,13.95,13.95,0,0,0-5.157,1.582c-.028.328-.056.655-.075.983a15.312,15.312,0,0,1,1.853-.889c2.462-.992,5.625-1.395,8.059-.112,3.4,1.788,2.967,5.962,2.078,9.116-2.181,7.656-8.04,13.253-13.319,19.112-.019.421-.028.842-.028,1.254,2.686-3.079,5.541-6.009,8.087-9.21C199.222,294.625,201.974,290.142,202.713,285.078ZM230.6,331.661c5.812-10.1,7.207-25.514-4.549-32.047a13.846,13.846,0,0,0-14.938.739c-4.708,3.313-7.553,8.667-9.753,13.833-2.452,5.775-4.652,12.139-9.453,16.445a13.151,13.151,0,0,1-3.716,2.405c.019.337.028.664.047.992,5.1-1.778,8.5-7.357,10.679-11.924,2.677-5.578,4.474-11.615,8.283-16.594,3.819-5,9.659-8.311,16-6.149,6.786,2.312,10.67,9.013,10.923,15.93.468,12.607-8.4,23.043-17.484,30.652-8.3,6.954-17.624,12.682-25.458,20.2.066.44.131.88.206,1.31a149.7,149.7,0,0,1,15.939-13.066C216,347.937,225.092,341.217,230.6,331.661Zm20.993,46.33c2.77-5.382,4.932-11.334,4.9-17.446,0-.477-.019-.936-.047-1.413a20.255,20.255,0,0,0-1.853-7.385,17.035,17.035,0,0,0-6.037-7.085,13.125,13.125,0,0,0-14.517-.215c-4.5,2.883-7.413,7.984-8.527,13.122-1.619,7.441-.271,15.078-.122,22.585a75.179,75.179,0,0,1-11.166,40.77c-.206.337-.421.665-.636,1,.253.243.515.477.777.711a69.054,69.054,0,0,0,5.812-10.96,76.216,76.216,0,0,0,5.532-19.908c.983-7.226.524-14.311.14-21.555-.365-6.945-.14-14.217,3.912-20.151,3.566-5.223,9.8-8.452,15.986-5.822,6.271,2.649,9.6,9.172,9.781,15.743.374,13.543-9.35,24.915-16.033,35.819-3.182,5.185-6.037,10.67-7.375,16.641a34.442,34.442,0,0,0,.571,17.119c.094.337.206.674.309,1.011.318-.009.636-.028.945-.066a34.177,34.177,0,0,1-.459-19.721C236.913,398.61,245.87,389.063,251.589,377.99Z" transform="translate(-187.896 -229.552)" fill="#fff"/></g><g transform="translate(73.365 176.111)"><path d="M188.459,284.52c-.1,21.125.44,42.277,2.19,63.327,2.218,26.319,8.4,81.83,42.1,84.442,5.279.318,10.146-.711,14.4-4.015,6.393-4.577,11.737-10.464,16.866-16.417,10.174-12.027,19.4-25.355,27.957-38.318l-2.05-2.087,2.125,2.012.028.028c-2.7,4.567-5.55,9.032-8.461,13.468-8.564,12.776-28.322,42.137-42.839,46.32-17.783,3.94-31.149-8.274-38.327-23.343-15.892-33.629-14.938-88.148-13.992-125.418Z" transform="translate(-186.546 -284.52)" fill="#263238"/><path d="M186.618,290.11c.449,4.006,1.1,7.871,1.535,11.877a25.438,25.438,0,0,1-1.535-11.877Z" transform="translate(-186.446 -284.878)" fill="#263238"/></g><g transform="translate(60.181)"><path d="M249.22,263.463s-31.139-28.49-50.654-27.161l-16.089,15.275s-5.382,1.965-7.188-1.423c-4.446-8.4-5.971-29,11.334-42.988,15.846-12.8,49.287-11.419,71.685-6.308,21.508,4.9,33.676,17.062,27.6,31.186S249.22,263.463,249.22,263.463Z" transform="translate(-172.359 -102.814)" fill="#ffc727"/><path d="M252.842,257.2s23.876-18.27,26.048-28.724S260.011,208.84,246.5,205.405c-20.919-5.307-34.986-3.5-46.227,7.946S252.842,257.2,252.842,257.2Z" transform="translate(-174.061 -103.159)" opacity="0.1"/><g transform="translate(48.197 74.038)"><path d="M257.882,251.984c-11.157,1.4-28.051-17.231-33.985-31.495-.4-.983,2.059-10.567,4.5-22.36,1.451-7.16,2.9-15.172,3.7-22.575.159-1.516,45.216,16.267,45.216,16.267s-6.233,15.031-7.534,27.948a17.722,17.722,0,0,0-.009,3.07c0,.14.019.318.009.515C270.105,229.212,268.664,250.617,257.882,251.984Z" transform="translate(-223.854 -175.462)" fill="#d3766a"/><path d="M265.647,223.083a28.8,28.8,0,0,0,4.792.262c.009-.2-.009-.365-.009-.515a16.07,16.07,0,0,1,.019-3.07c1.31-12.907,7.525-27.938,7.525-27.938S241.4,177.38,234.04,175.63C234.545,184.344,238.327,219.545,265.647,223.083Z" transform="translate(-224.506 -175.473)" fill="#263238"/></g><g transform="translate(39.667)"><g transform="translate(1.952 0.762)"><path d="M216.877,133.279c-1.17,17.268,18.186,61.876,32.066,69.6,20.132,11.194,47.687,6.3,55.839-16.669,7.9-22.257-18.354-79.949-33.357-86.407C249.317,90.291,218.608,107.765,216.877,133.279Z" transform="translate(-216.826 -97.172)" fill="#d3766a"/></g><path d="M255.489,214.9c-.009,0-.019-.009-.009-.019C255.47,214.889,255.48,214.9,255.489,214.9Z" transform="translate(-217.349 -103.948)" fill="#f5a79e"/><g transform="translate(42.626 29.972)"><g transform="translate(5.014 23.389)"><path d="M272.471,155.649c-.075-.1-.178.243-.122.365,1.385,2.967,2.471,6.608.168,8.77-.075.066,0,.215.094.159C275.746,163.052,274.258,158.241,272.471,155.649Z" transform="translate(-266.069 -153.515)" fill="#263238"/><path d="M268.008,153.51c-5,1.7-1.226,11.578,3.407,10C275.973,161.962,272.2,152.088,268.008,153.51Z" transform="translate(-265.64 -153.371)" fill="#263238"/></g><g transform="translate(29.91 13.364)"><path d="M292.36,147.547c-.019-.122.29.056.337.178,1.076,3.1,2.827,6.458,5.981,6.421.1,0,.15.159.037.178C295.158,155.138,292.875,150.645,292.36,147.547Z" transform="translate(-292.248 -142.97)" fill="#263238"/><path d="M293.859,143c4.773-2.256,8.938,7.46,4.511,9.556C294.018,154.6,289.853,144.888,293.859,143Z" transform="translate(-292.24 -142.66)" fill="#263238"/></g><path d="M263.416,153.412a40.568,40.568,0,0,0,4.006-1.666c1.535-.655,2.817-1.02,3.763-2.48a2.247,2.247,0,0,0-.505-2.686c-1.657-1.31-3.734-.973-5.616-.262a8.163,8.163,0,0,0-4.493,3.772C259.522,151.923,261.544,153.992,263.416,153.412Z" transform="translate(-260.283 -129.489)" fill="#263238"/><path d="M293.57,133.893a41.669,41.669,0,0,1-4.315.487c-1.657.168-2.958.468-4.493-.346a2.226,2.226,0,0,1-.852-2.593c.814-1.956,2.8-2.658,4.783-2.948a8.125,8.125,0,0,1,5.756,1.133C296.247,130.711,295.489,133.5,293.57,133.893Z" transform="translate(-261.788 -128.381)" fill="#263238"/><path d="M280.881,185.895c1.011.44,2.115,1.142,3.257.814a8.635,8.635,0,0,0,3-2.031.117.117,0,0,1,.2.1,4.4,4.4,0,0,1-3.248,3.145c-1.479.29-2.621-.646-3.444-1.788C280.526,185.988,280.731,185.829,280.881,185.895Z" transform="translate(-261.585 -131.984)" fill="#263238"/><g transform="translate(19.47 5.457)"><path d="M282.8,177.844c3.285-3.042,8.461-4.483,11.765-5.316.337-.187.384-1.011.309-1.367l-.009-.019c-.047-.112-2.7-6.383-2.7-6.383,1.011.094,6.112.365,5.569-.824-4.511-9.827-9.528-20.759-16.089-29.595a.3.3,0,0,0-.524.29c3.959,9.622,9.584,18.476,13.721,28.079-1.591.009-4.221-.084-5.429.412-.29.225,3.21,6.617,3.5,7.7,0,0-6.889.552-10.679,5.709C281.249,177.872,281.23,179.3,282.8,177.844Z" transform="translate(-281.086 -134.212)" fill="#263238"/></g></g><path d="M226.692,175.56c7.544-.693,9.706-13.057,9.837-17.97s-6.776-23.249-5.878-30.886,7.984-12.663,14.226-13.131,16.3,4.156,20.3,2.2,1.591-11.3,4.474-12.392c6.346-2.415,14.994,10.661,18.775,17.184,0,0-8.19-31.785-41.865-22.51-30.709,8.461-32.5,32.6-31.682,42.52C216.425,159.593,226.692,175.56,226.692,175.56Z" transform="translate(-214.74 -96.358)" fill="#263238"/><g transform="translate(7.712 36.55)"><path d="M274.463,175.361a13.928,13.928,0,1,1,8.162-20.423h0a13.949,13.949,0,0,1-4.979,19.056A14.32,14.32,0,0,1,274.463,175.361Zm-7.2-24.981a12.066,12.066,0,1,0,13.759,5.494A12.019,12.019,0,0,0,267.266,150.381Z" transform="translate(-225.138 -136.219)" fill="#ebebeb"/><path d="M306.028,162.019c-5.12,1.479-11.278-2.433-14.086-9.126a16.606,16.606,0,0,1-1.058-10.118,8.671,8.671,0,0,1,13.693-5.747,16.594,16.594,0,0,1,6.477,7.834c2.967,7.076,1.1,14.638-4.165,16.857A7.21,7.21,0,0,1,306.028,162.019ZM297.5,137.525a5.6,5.6,0,0,0-.665.234,7.422,7.422,0,0,0-4.137,5.447,14.747,14.747,0,0,0,.964,8.966c2.574,6.13,8.18,9.659,12.514,7.834s5.747-8.283,3.173-14.414a14.776,14.776,0,0,0-5.728-6.964A7.663,7.663,0,0,0,297.5,137.525Z" transform="translate(-227.305 -135.409)" fill="#ebebeb"/><path d="M284.487,156.786l-1.657-.852c1.264-2.452,4.839-6.542,9.388-4.5l-.758,1.694C287.388,151.292,284.608,156.561,284.487,156.786Z" transform="translate(-226.813 -136.4)" fill="#ebebeb"/><path d="M224.833,184.957l-1.853-.15c.075-.87.777-8.517,4.352-10.754,3.341-2.078,27.255-9.584,28.275-9.893l.552,1.778c-6.861,2.143-25.261,8.087-27.845,9.7C225.956,177.114,225,182.86,224.833,184.957Z" transform="translate(-222.98 -137.25)" fill="#ebebeb"/></g><g transform="translate(2.283 65.108)"><path d="M238.754,174.185s-14.292-12.327-20.142-6.87,7.544,25.2,16.286,26.141a8.376,8.376,0,0,0,9.771-7.132Z" transform="translate(-217.18 -165.921)" fill="#d3766a"/><path d="M222.954,173.342c-.131.019-.112.206.009.225,6.177.842,10.445,5.288,13.871,10.155-2.19-1.647-4.745-2.209-7.02.477-.122.14.075.337.225.262a5.157,5.157,0,0,1,5.943.346,25.216,25.216,0,0,1,3.763,3.781c.393.431,1.226-.066.889-.59a.53.53,0,0,1-.075-.122C238.884,180.7,230.8,172.116,222.954,173.342Z" transform="translate(-217.544 -166.389)" fill="#263238"/></g></g><path d="M252.707,257.987s-25.542-40.115-55.867-43.147l3.295,22.594s18.017-.562,50.654,27.161Z" transform="translate(-173.927 -103.946)" fill="#ffc727"/><g transform="translate(10.119 133.219)"><path d="M191.68,239.645c5.5-.87,11.035.168,16.276,1.629a71.3,71.3,0,0,1,15.069,6.421,123.435,123.435,0,0,1,13.824,8.882l6.486,5.082,6.261,5.382.7.608.749-.412A140.477,140.477,0,0,0,267,256.885a79.51,79.51,0,0,0,7.31-6.065,48.639,48.639,0,0,0,6.336-7.048c-4.315,4.6-9.444,8.246-14.62,11.746-2.6,1.741-5.279,3.36-7.984,4.932s-5.428,3.135-8.171,4.558l1.451.187-6.271-5.569c-2.162-1.769-4.371-3.491-6.589-5.2-2.312-1.582-4.6-3.22-6.963-4.717-2.424-1.423-4.8-2.92-7.347-4.118a66.019,66.019,0,0,0-15.8-5.8c-1.367-.337-2.77-.534-4.146-.758-1.4-.131-2.8-.29-4.2-.309A24.589,24.589,0,0,0,191.68,239.645Z" transform="translate(-183.715 -238.693)" fill="#263238"/><path d="M183.17,254.245a81.97,81.97,0,0,0,8.508-7.141,79.954,79.954,0,0,0,7.572-8.133,81.013,81.013,0,0,0-8.508,7.141A85.392,85.392,0,0,0,183.17,254.245Z" transform="translate(-183.17 -238.71)" fill="#263238"/></g><g transform="translate(66.425 145.777)"><path d="M244.126,252.381a166.138,166.138,0,0,0-.384,28.734c.44,6.683,5.082,30.372,12.411,28.865s-6.074-15.892-9.285-28.322c-3.267-12.617-.646-21.957-.852-29.548Z" transform="translate(-243.33 -252.11)" fill="#ffc727"/><g opacity="0.1"><path d="M244.126,252.381a166.138,166.138,0,0,0-.384,28.734c.44,6.683,5.082,30.372,12.411,28.865s-6.074-15.892-9.285-28.322c-3.267-12.617-.646-21.957-.852-29.548Z" transform="translate(-243.33 -252.11)"/></g></g><g transform="translate(90.545 147.237)"><path d="M270.8,253.67a151.791,151.791,0,0,1,7.722,24.887c1.338,5.925,3.388,27.723-3.379,28.294s1.2-15.387.8-27.021c-.4-11.812-5.082-19.262-6.851-25.917Z" transform="translate(-269.1 -253.67)" fill="#ffc727"/><g opacity="0.1"><path d="M270.8,253.67a151.791,151.791,0,0,1,7.722,24.887c1.338,5.925,3.388,27.723-3.379,28.294s1.2-15.387.8-27.021c-.4-11.812-5.082-19.262-6.851-25.917Z" transform="translate(-269.1 -253.67)"/></g></g></g><g transform="translate(87.948 92.68)"><g transform="translate(6.897)"><path d="M238.882,428.106c19.908-3.061,52.544-47.93,73.238-99.23,3.94-9.762-71.863-49.231-74.858-38.374-9.622,34.827-28.462,80.38-27.854,108.486C209.886,420.843,225.114,430.23,238.882,428.106Z" transform="translate(-209.395 -201.352)" fill="#d3766a"/><g transform="translate(26.399)"><g transform="translate(6.791 8.033)"><path d="M276.607,248.137c-4.839-5.915-5.569-22.463-9.9-32.216s-17.006-14.329-19.271-10.745,1.086,7.2,2.115,23.221c.665,10.3-7.216,30.9-3.856,49.6C247.387,287.391,281.446,254.052,276.607,248.137Z" transform="translate(-244.855 -203.962)" fill="#f7a9a0"/><path d="M276.607,248.137c-4.839-5.915-5.569-22.463-9.9-32.216s-17.006-14.329-19.271-10.745,1.086,7.2,2.115,23.221c.665,10.3-7.216,30.9-3.856,49.6C247.387,287.391,281.446,254.052,276.607,248.137Z" transform="translate(-244.855 -203.962)" fill="#d3766a"/><path d="M276.607,248.137c-4.839-5.915-5.569-22.463-9.9-32.216s-17.006-14.329-19.271-10.745,1.086,7.2,2.115,23.221c.665,10.3-7.216,30.9-3.856,49.6C247.387,287.391,281.446,254.052,276.607,248.137Z" transform="translate(-244.855 -203.962)" opacity="0.06"/></g><path d="M313.815,197.261c6.767,6.308-10.211,21.667-10.211,21.667s6.168-1.666,11.531,1.329c6.14,3.426,3.463,14.554,3.463,14.554a21.013,21.013,0,0,1,11.943,3.341c5.55,3.865,4.446,15.49,4.446,15.49s6.346,3.014,8.648,9.547c3.95,11.175-8.4,24.6-14.414,34.406-6.43,10.511-14.5,23.567-19.131,30.035L237.6,290.754s12.42-55.437,22.257-64.927C268.159,217.834,303.482,187.612,313.815,197.261Z" transform="translate(-237.6 -195.38)" fill="#d3766a"/><g transform="translate(36.589 23.462)"><path d="M305.789,220.487c-10.848,6.383-20.151,15.35-29.033,24.1-.2.2.112.505.309.309,8.732-8.807,20.029-15.49,29.089-23.932A.305.305,0,0,0,305.789,220.487Z" transform="translate(-276.693 -220.448)" fill="#263238"/><path d="M321.535,237.076c-2.415,1.516-4.315,3.828-6.224,5.906-2.059,2.237-4.071,4.521-6.056,6.823q-5.953,6.921-11.559,14.142c-.168.215.122.515.309.3,3.959-4.6,7.993-9.135,12.149-13.553q3.117-3.327,6.29-6.589c1.966-2.031,4.2-4.006,5.681-6.439A.435.435,0,0,0,321.535,237.076Z" transform="translate(-278.035 -221.509)" fill="#263238"/><path d="M339.994,257.819c-2.153,1.235-3.763,3.734-5.316,5.616q-2.653,3.215-5.326,6.393c-3.575,4.24-7.151,8.48-10.876,12.6-.187.206.122.515.309.3,3.8-4.165,7.656-8.274,11.428-12.467q2.78-3.089,5.513-6.215c1.554-1.769,3.7-3.8,4.5-6.065C340.256,257.866,340.1,257.763,339.994,257.819Z" transform="translate(-279.365 -222.84)" fill="#263238"/></g><path d="M306.635,195.38c-12.308,5.1-27.058,15.93-35.7,22.631A118.25,118.25,0,0,0,261.653,226c-2.864,2.873-4.727,6.533-6.552,10.155-1.235,2.443-2.3,4.97-3.341,7.525,1.872-6.552,4.118-13.515,8.779-18.747a93.087,93.087,0,0,1,9.294-8.311c8.714-6.692,17.633-13.468,27.77-17.839Z" transform="translate(-238.507 -195.38)" fill="#263238"/></g></g><g transform="translate(0.746 109.394)"><path d="M221.23,312.26l71.741,63.018s-37.513,60.631-55,59.442S201.5,422.207,202.9,380.164C203.241,369.625,221.23,312.26,221.23,312.26Z" transform="translate(-202.823 -312.26)" fill="#ffc727"/><path d="M208.579,359.622c-.3.225-.6.44-.9.674.131-.505.271-1.011.4-1.526,3.323-2.462,6.645-4.932,9.809-7.591,7.984-6.683,15.8-15.556,17.25-26.16l.711.627a33.617,33.617,0,0,1-4,11.25C226.352,346.453,217.264,353.173,208.579,359.622Zm41.229-9.725a13.125,13.125,0,0,0-14.517-.215c-4.5,2.883-7.413,7.984-8.527,13.122-1.619,7.441-.271,15.078-.122,22.585a75.11,75.11,0,0,1-10.96,40.424c.253.262.515.515.777.758a72.994,72.994,0,0,0,4.97-9.659A76.216,76.216,0,0,0,226.961,397c.983-7.226.524-14.311.14-21.555-.365-6.945-.14-14.217,3.912-20.151,3.566-5.223,9.8-8.452,15.986-5.822,6.271,2.649,9.6,9.172,9.781,15.743.374,13.543-9.35,24.915-16.033,35.819-3.182,5.185-6.037,10.67-7.375,16.641a34.442,34.442,0,0,0,.571,17.119,2.267,2.267,0,0,0,.075.234c.328.056.665.112,1,.159a34.147,34.147,0,0,1-.281-19.168c3.435-12.177,12.392-21.723,18.111-32.8,2.986-5.794,5.26-12.252,4.848-18.86A18.4,18.4,0,0,0,249.807,349.9Zm21.022,49.3c-5.054.5-9.491,3.725-10.576,8.845-.767,3.65.131,7.394,1.694,10.829.215-.253.449-.505.674-.758-2.405-5.709-2.827-12.991,3.295-16.51a12.823,12.823,0,0,1,10.586-.861c.187-.253.365-.505.562-.758A14.217,14.217,0,0,0,270.829,399.194Zm21.677-23.783a15.3,15.3,0,0,1-6.814.168c-8.835-1.853-15.5-10.558-14.76-19.112l-.964-.852c-1.451,9.781,6.711,19.561,16.332,21.059a16.232,16.232,0,0,0,6.935-.5.854.854,0,0,1,.047-.084Z" transform="translate(-203.134 -313.077)" fill="#fff"/><path d="M221.613,340.106c3.51,2.93,6.786,6.168,10.118,9.294s6.645,6.3,9.9,9.509c6.524,6.421,13.019,12.869,19.421,19.4,1.75,1.788,3.5,3.575,5.223,5.4,1.844,1.947,3.444,4.128,5.3,6.056a.162.162,0,0,1-.234.225c-1.629-1.544-3.482-2.864-5.148-4.38-1.722-1.572-3.416-3.182-5.092-4.792q-4.942-4.759-9.846-9.565c-6.533-6.4-13.038-12.851-19.356-19.468-3.566-3.734-7.282-7.4-10.623-11.344A.238.238,0,0,1,221.613,340.106Z" transform="translate(-204 -314.039)" fill="#263238"/></g><path d="M229.3,319.372l-8.293-6.945.4-.112c-3.95,14.863-8.3,29.623-12.383,44.43a199.531,199.531,0,0,0-4.661,19.468,105.71,105.71,0,0,0-.075,25.739,80.451,80.451,0,0,1-1.966-25.973c2.031-14.367,6.636-28.228,10.932-42.034q3.65-11.161,7.825-22.145l.271.243,7.946,7.328Z" transform="translate(-202.026 -202.836)" fill="#263238"/></g></g><g transform="translate(325.942 198.319)"><g transform="translate(34.126 31.654)"><path d="M449,342.285c-12.27,16.623-25.074,35.913-28.191,56.756a.279.279,0,0,0,.543.1,123.613,123.613,0,0,1,5.428-16.688c8.068-2.218,15.986-4.043,20.226-12.055,4.324-8.236,3.772-18.962,2.948-27.938C449.9,341.986,449.244,341.958,449,342.285Z" transform="translate(-420.808 -342.067)" fill="#adce32"/><g transform="translate(6.071 5.241)"><path d="M427.318,382.656c5.513-12.373,12.589-24.793,21.592-34.967.056-.066.159.028.1.1-5.887,7.244-10.37,15.134-14.741,23.165,4.062-4.128,8.517-7.825,12.364-12.2.075-.084.2.037.122.122-3.819,4.586-8,9.575-12.972,12.963q-2.008,3.692-4.053,7.4c.337-.187.683-.356,1.02-.524.056-.028.112.056.056.094-.384.2-.758.393-1.151.562-.646,1.17-1.292,2.34-1.956,3.51C427.562,383.142,427.2,382.918,427.318,382.656Z" transform="translate(-427.294 -347.666)" fill="#263238"/><path d="M431.7,380.008a73.7,73.7,0,0,0,9.425-6.29c.084-.065.2.047.112.112a50.019,50.019,0,0,1-9.4,6.4C431.677,380.317,431.546,380.093,431.7,380.008Z" transform="translate(-427.572 -349.334)" fill="#263238"/></g></g><g transform="translate(31.824)"><path d="M419.23,393.777c.028.253.459.243.449-.019.065-6.861.009-13.759.112-20.657,1.76-3.547,5.531-5.513,8.162-8.358a36.792,36.792,0,0,0,4.9-6.814A48.908,48.908,0,0,0,438.529,339c.721-7.347-2.059-31.57-5.157-30.727-1.61.44-6.8,12.439-8.18,16.407a114.207,114.207,0,0,0-4.886,20.114C417.8,360.935,418,377.52,419.23,393.777Z" transform="translate(-418.348 -308.247)" fill="#adce32"/><g transform="translate(0.773 4.233)"><path d="M419.236,364.453l.028-.028c.374-8.686,2.331-17.456,4.165-25.879,1.975-9.079,4.277-17.624,8.948-25.711.084-.15.309-.019.234.131a95.216,95.216,0,0,0-7.188,19.739c.309-.487.693-.955,1.02-1.413.131-.178.431-.009.3.178a12.79,12.79,0,0,1-1.46,2.059c-.019.019-.037.019-.056.028-1.61,6.486-2.761,13.122-3.753,19.739.075-.084.15-.178.215-.253.047-.056.131.019.1.075-.122.215-.262.44-.393.655-.5,3.36-.955,6.711-1.423,10.033,5.981-5.11,11.091-11.138,13.974-18.56.009-.037.066-.019.056.019-2.827,7.7-7.272,14.545-14.124,19.225-.122.9-.253,1.788-.374,2.686-.028.187-.318.14-.318-.047,0-.8.037-1.582.075-2.377C419.17,364.669,419.133,364.538,419.236,364.453Z" transform="translate(-419.174 -312.769)" fill="#263238"/><path d="M422.248,353.1c4.567-6.823,8.845-13.45,12.186-20.984.037-.084.178-.028.15.066-2.817,7.5-6.767,15.088-12.1,21.106C422.37,353.4,422.155,353.242,422.248,353.1Z" transform="translate(-419.37 -314.006)" fill="#263238"/><path d="M428.738,329.631c1.891-3.351,3.894-6.608,5.672-10.024.047-.094.178-.009.14.084a52.488,52.488,0,0,1-5.522,10.118C428.907,329.968,428.635,329.818,428.738,329.631Z" transform="translate(-419.785 -313.205)" fill="#263238"/><path d="M427.948,331.87a.028.028,0,1,1,0,.056C427.911,331.936,427.911,331.87,427.948,331.87Z" transform="translate(-419.734 -313.993)" fill="#263238"/></g></g><g transform="translate(8.896 10.359)"><path d="M413.018,374.635a70.52,70.52,0,0,1-1.6,13.525c.075.487.14.973.215,1.479a64.413,64.413,0,0,0,2.415-15.078.462.462,0,0,0,.019-.468v-.019a99.716,99.716,0,0,0-1.516-20.423c-2.125-12.617-6.767-24.719-15.565-34.181a.632.632,0,0,0-.973.2c-3.547,9.023-2.312,19.8.711,28.809a53.039,53.039,0,0,0,6.973,13.684C406.719,366.408,410.566,369.992,413.018,374.635Z" transform="translate(-393.851 -319.315)" fill="#adce32"/><g transform="translate(3.822 4.296)"><path d="M398.286,323.994c8.339,13.534,14.142,29.576,14.854,45.562.009.281-.468.356-.505.066-.2-1.432-.421-2.864-.646-4.277-.009,0-.009,0-.019-.009-3.454-3.3-6.992-6.786-9.462-10.923-.047-.075.066-.159.122-.094a116.274,116.274,0,0,0,9.191,10.005c-.6-3.538-1.3-7.01-2.143-10.436-.225-.253-.44-.515-.655-.777-.14-.168.094-.421.243-.243l.2.225A119.3,119.3,0,0,0,405.1,339.25c-2.125-2.536-4.493-4.717-6.046-7.768a.065.065,0,0,1,.112-.066c1.245,1.741,2.443,3.5,3.856,5.12.562.646,1.179,1.245,1.76,1.881a106.885,106.885,0,0,0-6.823-14.227C397.846,323.975,398.164,323.788,398.286,323.994Z" transform="translate(-397.935 -323.905)" fill="#263238"/><path d="M400.1,341.837c2.7,3.632,5.766,7.085,8.274,10.838.075.1-.084.215-.178.131-3.22-3.023-5.943-7.141-8.283-10.866C399.844,341.827,400.021,341.724,400.1,341.837Z" transform="translate(-398.06 -325.05)" fill="#263238"/><path d="M409.34,354.308l.112.112c.084.084-.047.206-.122.122l-.112-.112C409.134,354.355,409.265,354.234,409.34,354.308Z" transform="translate(-398.656 -325.851)" fill="#263238"/></g></g><g transform="translate(0 39.953)"><path d="M384.35,351.744a41.613,41.613,0,0,0,8.8,20.647,21.9,21.9,0,0,0,7.132,5.569c3.089,1.526,6.327,3.295,9.519,4.549a62.161,62.161,0,0,1,3.369,11.98c.1-.346.206-.711.309-1.058-2.05-17.624-13.459-32.693-28.051-42.361A.688.688,0,0,0,384.35,351.744Z" transform="translate(-384.346 -350.934)" fill="#8aa428"/><g transform="translate(5.013 5.8)"><path d="M389.738,357.345c-.1-.094.038-.271.15-.2a59.69,59.69,0,0,1,18.588,22.912c.1.243-.225.449-.365.215-.674-1.189-1.367-2.34-2.068-3.482h-.009c-3.332-.627-6.486-2.967-8.957-5.195-.066-.056.028-.159.1-.1a20.213,20.213,0,0,0,4.212,2.958c1.357.693,2.817,1.123,4.23,1.675-1.235-1.956-2.518-3.837-3.865-5.663a38.7,38.7,0,0,1-10.005-5.625c-.094-.066-.009-.225.094-.159a99.859,99.859,0,0,0,9.3,4.97,83.019,83.019,0,0,0-6.57-7.656c-1.132-.6-2.284-1.2-3.379-1.834a.093.093,0,0,1,.075-.168,12.313,12.313,0,0,1,2.593,1.273C392.545,359.947,391.188,358.628,389.738,357.345Z" transform="translate(-389.702 -357.131)" fill="#263238"/><path d="M390.06,363.859a4.071,4.071,0,0,1,.562.4c.056.047-.019.112-.075.094a4.507,4.507,0,0,1-.59-.328C389.864,363.962,389.957,363.793,390.06,363.859Z" transform="translate(-389.716 -357.561)" fill="#263238"/></g></g><g transform="translate(11.928 71.613)"><g transform="translate(0 5.616)"><path d="M437.074,435.2H397.09l3.229-36.409.711-8.03h32.113l.7,8.03Z" transform="translate(-397.09 -390.76)" fill="#455a64"/><path d="M434.066,398.791H400.54l.711-8.03h32.113Z" transform="translate(-397.311 -390.76)" fill="#263238"/></g><rect width="35.931" height="7.946" transform="translate(2.031)" fill="#455a64"/></g></g><g transform="translate(263.806 38.514)"><g transform="translate(17.326 83.652)"><path d="M354.59,133.066a9.813,9.813,0,1,1-10.623-8.929A9.811,9.811,0,0,1,354.59,133.066Z" transform="translate(-334.572 -123.897)" fill="#fff"/><path d="M354.56,133.052c.842,8.732-9.537,14.245-16.351,8.658a10.15,10.15,0,0,1-1.245-14.386c5.747-6.683,16.931-3.023,17.6,5.728Zm0,0a9.579,9.579,0,1,0-15.836,8.049,9.6,9.6,0,0,0,15.836-8.049Z" transform="translate(-334.542 -123.883)" fill="#263238"/></g><g transform="translate(0 97.808)"><path d="M327.4,144.219a5.463,5.463,0,1,1-5.915-4.97A5.465,5.465,0,0,1,327.4,144.219Z" transform="translate(-316.061 -139.022)" fill="#fff"/><path d="M327.374,144.2a5.7,5.7,0,1,1-9.921-3.3,5.719,5.719,0,0,1,9.921,3.3Zm0,0c-.824-6.9-10.8-5.981-10.417.9.8,6.851,10.792,6.037,10.417-.9Z" transform="translate(-316.031 -139.008)" fill="#263238"/></g><g transform="translate(17.092)"><path d="M440.261,85.27a28.657,28.657,0,0,1-39.582,29.857,24.038,24.038,0,0,1-38.234-.084,19.079,19.079,0,0,1-3.22.674,19.486,19.486,0,0,1-18.307-30.54A28.645,28.645,0,0,1,379.49,43.733a24.045,24.045,0,0,1,41.276,6.552,15.175,15.175,0,0,1,3.079-.693,15.722,15.722,0,0,1,13.515,26.2A27.721,27.721,0,0,1,440.261,85.27Z" transform="translate(-334.323 -34.52)" fill="#fff"/><path d="M440.231,85.257a28.763,28.763,0,0,1-39.647,30.007l.2-.056a24.274,24.274,0,0,1-38.6-.009l.318.1a18.384,18.384,0,0,1-4.511.786c-16.482,1.03-26.909-17.633-17.446-31.177l.009.505c-14.133-17.718-2.93-44.327,19.571-46.807a28.9,28.9,0,0,1,19.5,4.858l-.384.056c11.69-14.592,35.08-10.838,41.631,6.683l-.178-.084a14.079,14.079,0,0,1,3.828-.739,15.8,15.8,0,0,1,12.841,26.4,27.2,27.2,0,0,1,2.873,9.472Zm0,0a27.926,27.926,0,0,0-2.93-9.491A15.646,15.646,0,0,0,420.651,50.44c-6.43-17.24-29.5-21.012-40.967-6.552l-.168.206-.215-.15A28.18,28.18,0,0,0,360.207,39.3c-21.864,2.527-32.543,28.313-18.981,45.6l.2.253-.178.262c-9.172,13,.824,31,16.716,30.082a17.58,17.58,0,0,0,4.567-.8,23.813,23.813,0,0,0,37.99.318l.084-.1.122.047a28.593,28.593,0,0,0,39.507-29.707Z" transform="translate(-334.292 -34.507)" fill="#263238"/></g></g><g transform="translate(320.81 60.445)"><path d="M394.329,85.314l-.225,3.959a2.923,2.923,0,0,1-3.154,2.817,3,3,0,0,1-2.817-3.145l.356-6.327c0-.056.066-.056.066-.122-.056-.066-.056-.066-.056-.122a3.085,3.085,0,0,1,3.145-2.817,6.826,6.826,0,1,0,.767-13.627,6.729,6.729,0,0,0-6.028,3.014,3.008,3.008,0,0,1-4.2.861,2.974,2.974,0,0,1-.8-4.137,12.81,12.81,0,1,1,12.954,19.646Zm-.749,13.328-.066,1.1a2.923,2.923,0,0,1-3.154,2.817,3,3,0,0,1-2.817-3.154l.066-1.1a3.037,3.037,0,0,1,3.145-2.817A2.962,2.962,0,0,1,393.58,98.642Z" transform="translate(-380.863 -59.939)" fill="#ffc107"/></g></svg>