<svg xmlns="http://www.w3.org/2000/svg" xmlns:xlink="http://www.w3.org/1999/xlink" width="130" height="133" viewBox="0 0 130 133"><defs><filter id="a" x="3" y="9" width="124" height="124" filterUnits="userSpaceOnUse"><feOffset dy="3" input="SourceAlpha"/><feGaussianBlur stdDeviation="3" result="b"/><feFlood flood-opacity="0.161"/><feComposite operator="in" in2="b"/><feComposite in="SourceGraphic"/></filter></defs><g transform="translate(-252 -1850)"><g transform="translate(252 1850)"><g transform="matrix(1, 0, 0, 1, 0, 0)" filter="url(#a)"><circle cx="53" cy="53" r="53" transform="translate(12 15)" fill="#fff"/></g><rect width="130" height="130" fill="none"/></g><path d="M44.048,0H14.59A1.964,1.964,0,0,0,13.2.576L.575,13.2A1.965,1.965,0,0,0,0,14.589V60.882a6.18,6.18,0,0,0,6.173,6.173H44.048a6.17,6.17,0,0,0,6.173-6.173V6.173A6.17,6.17,0,0,0,44.048,0Zm0,0" transform="translate(289.654 1882.954)" fill="#f6f6f6"/><g transform="translate(289.654 1882.954)"><path d="M210.669,0H191.731V67.055h18.938a6.17,6.17,0,0,0,6.173-6.173V6.173A6.17,6.17,0,0,0,210.669,0Zm0,0" transform="translate(-166.621)" fill="#e8e8e8"/><path d="M12.486,14.73a2.247,2.247,0,0,0,2.244-2.244V0h-.14A1.965,1.965,0,0,0,13.2.576L.575,13.2A1.965,1.965,0,0,0,0,14.59v.14Zm0,0" transform="translate(0 0)" fill="#e8e8e8"/><path d="M107.55,192.8H82.3a1.964,1.964,0,1,0,0,3.929h25.25a1.964,1.964,0,1,0,0-3.929Zm0,0" transform="translate(-69.815 -167.551)" fill="#e8e8e8"/><path d="M107.55,257.066H82.3a1.964,1.964,0,1,0,0,3.929h25.25a1.964,1.964,0,1,0,0-3.929Zm0,0" transform="translate(-69.815 -223.399)" fill="#e8e8e8"/><path d="M107.55,321.332H82.3a1.965,1.965,0,0,0,0,3.929h25.25a1.965,1.965,0,0,0,0-3.929Zm0,0" transform="translate(-69.815 -279.248)" fill="#e8e8e8"/><path d="M92.96,385.6H82.3a1.964,1.964,0,1,0,0,3.929H92.96a1.964,1.964,0,1,0,0-3.929Zm0,0" transform="translate(-69.814 -335.101)" fill="#e8e8e8"/></g><path d="M206.321,194.765a1.965,1.965,0,0,1-1.964,1.964H191.731V192.8h12.625A1.964,1.964,0,0,1,206.321,194.765Zm0,0" transform="translate(123.033 1715.403)" fill="#afafaf"/><path d="M206.321,259.035A1.964,1.964,0,0,1,204.356,261H191.731V257.07h12.625A1.964,1.964,0,0,1,206.321,259.035Zm0,0" transform="translate(123.033 1659.552)" fill="#afafaf"/><path d="M206.321,323.293a1.963,1.963,0,0,1-1.964,1.964H191.731v-3.929h12.625A1.965,1.965,0,0,1,206.321,323.293Zm0,0" transform="translate(123.033 1603.709)" fill="#afafaf"/><path d="M286.246,303.79a14.59,14.59,0,1,1-14.589-14.59A14.589,14.589,0,0,1,286.246,303.79Zm0,0" transform="translate(66.254 1631.63)" fill="#cee284"/><path d="M383.058,303.79a14.59,14.59,0,0,0-14.589-14.59v29.179a14.589,14.589,0,0,0,14.589-14.589Zm0,0" transform="translate(-30.558 1631.63)" fill="#adce32"/><path d="M331.717,357.677h-2.244v-2.244a1.964,1.964,0,0,0-3.929,0v2.244H323.3a1.964,1.964,0,0,0,0,3.929h2.244v2.244a1.964,1.964,0,0,0,3.929,0v-2.244h2.244a1.964,1.964,0,0,0,0-3.929Zm0,0" transform="translate(10.402 1575.777)" fill="#eff6fe"/><path d="M370.433,363.849v-2.244h2.244a1.964,1.964,0,1,0,0-3.929h-2.244v-2.244a1.965,1.965,0,0,0-1.965-1.964v12.346A1.965,1.965,0,0,0,370.433,363.849Zm0,0" transform="translate(-30.558 1575.778)" fill="#d9e4ef"/></g></svg>