<svg xmlns="http://www.w3.org/2000/svg" xmlns:xlink="http://www.w3.org/1999/xlink" width="130" height="133" viewBox="0 0 130 133"><defs><filter id="a" x="3" y="9" width="124" height="124" filterUnits="userSpaceOnUse"><feOffset dy="3" input="SourceAlpha"/><feGaussianBlur stdDeviation="3" result="b"/><feFlood flood-opacity="0.161"/><feComposite operator="in" in2="b"/><feComposite in="SourceGraphic"/></filter></defs><g transform="translate(-798 -1851)"><g transform="translate(798 1851)"><g transform="matrix(1, 0, 0, 1, 0, 0)" filter="url(#a)"><circle cx="53" cy="53" r="53" transform="translate(12 15)" fill="#fff"/></g><rect width="130" height="130" fill="none"/></g><g transform="translate(835.886 1887.751)"><path d="M3.4,1.86V64.638a1.86,1.86,0,0,0,1.86,1.86h47.7a1.86,1.86,0,0,0,1.86-1.86V1.86A1.86,1.86,0,0,0,52.965,0H5.263A1.86,1.86,0,0,0,3.4,1.86Z" transform="translate(-3.403 0)" fill="#f6f6f6"/><path d="M225.039,0H201.167V66.5h23.872a1.86,1.86,0,0,0,1.86-1.86V1.86A1.86,1.86,0,0,0,225.039,0Z" transform="translate(-175.477 0)" fill="#e8e8e8"/><g transform="translate(7.152 7.46)"><path d="M74.953,61.564H60.53a2.068,2.068,0,1,1,0-4.137H74.953a2.068,2.068,0,1,1,0,4.137Z" transform="translate(-58.462 -57.427)" fill="#e8e8e8"/></g><g transform="translate(15.126 21.883)"><path d="M138.5,172.591H121.916a2.068,2.068,0,0,1,0-4.137H138.5a2.068,2.068,0,0,1,0,4.137Z" transform="translate(-119.848 -168.454)" fill="#e8e8e8"/></g><g transform="translate(7.696 30.046)"><path d="M97.4,235.438H64.716a2.068,2.068,0,1,1,0-4.137H97.4a2.068,2.068,0,1,1,0,4.137Z" transform="translate(-62.648 -231.301)" fill="#e8e8e8"/></g><g transform="translate(15.126 38.21)"><path d="M146.4,298.283H121.916a2.068,2.068,0,0,1,0-4.137H146.4a2.068,2.068,0,0,1,0,4.137Z" transform="translate(-119.848 -294.146)" fill="#e8e8e8"/></g><g transform="translate(7.696 46.374)"><path d="M96.629,361.129H64.716a2.068,2.068,0,1,1,0-4.137H96.629a2.068,2.068,0,0,1,0,4.137Z" transform="translate(-62.648 -356.992)" fill="#e8e8e8"/></g><g transform="translate(7.696 54.538)"><path d="M96.629,423.975H64.716a2.068,2.068,0,1,1,0-4.137H96.629a2.068,2.068,0,0,1,0,4.137Z" transform="translate(-62.648 -419.838)" fill="#e8e8e8"/></g><ellipse cx="1.949" cy="1.949" rx="1.949" ry="1.949" transform="translate(7.509 21.962)" fill="#e8e8e8"/><ellipse cx="1.949" cy="1.949" rx="1.949" ry="1.949" transform="translate(7.509 38.257)" fill="#e8e8e8"/><g transform="translate(25.689 21.883)"><path d="M212.445,168.455H201.167v4.137h11.278a2.068,2.068,0,1,0,0-4.137Z" transform="translate(-201.166 -168.455)" fill="#afafaf"/><path d="M217.2,231.3H201.167v4.137H217.2a2.068,2.068,0,0,0,0-4.137Z" transform="translate(-201.166 -223.137)" fill="#afafaf"/><path d="M217.145,294.146H201.156v4.137h15.989a2.068,2.068,0,1,0,0-4.137Z" transform="translate(-201.156 -277.818)" fill="#afafaf"/><path d="M217.145,356.992H201.156v4.137h15.989a2.068,2.068,0,1,0,0-4.137Z" transform="translate(-201.156 -332.501)" fill="#afafaf"/><path d="M217.145,419.838H201.156v4.137h15.989a2.068,2.068,0,1,0,0-4.137Z" transform="translate(-201.156 -387.183)" fill="#afafaf"/></g><g transform="translate(37.09 7.848)"><ellipse cx="14.262" cy="14.262" rx="14.262" ry="14.262" fill="#ffbca4"/><path d="M399.384,60.411V88.932a14.261,14.261,0,0,0,0-28.521Z" transform="translate(-385.036 -60.411)" fill="#ffa686"/><g transform="translate(6.809 8.238)"><path d="M346.759,136.123a2.061,2.061,0,0,1-1.462-.606l-3.349-3.349a2.068,2.068,0,0,1,2.925-2.925l1.886,1.886,6.7-6.7a2.068,2.068,0,1,1,2.925,2.925l-8.162,8.162A2.062,2.062,0,0,1,346.759,136.123Z" transform="translate(-341.342 -123.825)" fill="#fff"/></g><path d="M403.961,124.431l-4.577,4.577v5.85l7.5-7.5a2.068,2.068,0,0,0-2.925-2.925Z" transform="translate(-385.036 -115.588)" fill="#fff5f5"/></g></g></g></svg>